G04 #@! TF.GenerationSoftware,KiCad,Pcbnew,5.1.4-e60b266~84~ubuntu18.04.1*
G04 #@! TF.CreationDate,2019-08-28T18:32:27-06:00*
G04 #@! TF.ProjectId,001,3030312e-6b69-4636-9164-5f7063625858,1*
G04 #@! TF.SameCoordinates,Original*
G04 #@! TF.FileFunction,Copper,L1,Top*
G04 #@! TF.FilePolarity,Positive*
%FSLAX46Y46*%
G04 Gerber Fmt 4.6, Leading zero omitted, Abs format (unit mm)*
G04 Created by KiCad (PCBNEW 5.1.4-e60b266~84~ubuntu18.04.1) date 2019-08-28 18:32:27*
%MOMM*%
%LPD*%
G04 APERTURE LIST*
%ADD10C,0.010000*%
%ADD11C,1.800000*%
%ADD12R,1.800000X1.800000*%
%ADD13C,0.685800*%
%ADD14C,0.254000*%
G04 APERTURE END LIST*
D10*
G36*
X142409243Y-88693789D02*
G01*
X142664200Y-88698008D01*
X142870432Y-88706597D01*
X143045903Y-88720849D01*
X143208573Y-88742057D01*
X143376405Y-88771513D01*
X143484600Y-88793177D01*
X143990613Y-88915005D01*
X144544007Y-89079177D01*
X145123891Y-89277957D01*
X145709378Y-89503612D01*
X146279578Y-89748408D01*
X146813602Y-90004609D01*
X146955934Y-90078463D01*
X147120375Y-90165939D01*
X147268839Y-90246603D01*
X147410821Y-90326304D01*
X147555813Y-90410889D01*
X147713309Y-90506209D01*
X147892802Y-90618111D01*
X148103785Y-90752445D01*
X148355752Y-90915060D01*
X148658197Y-91111803D01*
X149020612Y-91348524D01*
X149072600Y-91382523D01*
X149524742Y-91676322D01*
X149917435Y-91926971D01*
X150260394Y-92140151D01*
X150563335Y-92321544D01*
X150835974Y-92476833D01*
X151088024Y-92611701D01*
X151329203Y-92731830D01*
X151569225Y-92842902D01*
X151570267Y-92843367D01*
X152171963Y-93092108D01*
X152754438Y-93293431D01*
X153310617Y-93446038D01*
X153833424Y-93548632D01*
X154315785Y-93599918D01*
X154750625Y-93598598D01*
X155130869Y-93543375D01*
X155235998Y-93515276D01*
X155369910Y-93484128D01*
X155480225Y-93474165D01*
X155515155Y-93478737D01*
X155578206Y-93534651D01*
X155588970Y-93624934D01*
X155549403Y-93718947D01*
X155496684Y-93768145D01*
X155335991Y-93838437D01*
X155108923Y-93891962D01*
X154832441Y-93926916D01*
X154523504Y-93941498D01*
X154199070Y-93933905D01*
X154046767Y-93922231D01*
X153572979Y-93853417D01*
X153051269Y-93734633D01*
X152497951Y-93571065D01*
X151929340Y-93367896D01*
X151361753Y-93130311D01*
X150970749Y-92944783D01*
X150834644Y-92876005D01*
X150706707Y-92809077D01*
X150578369Y-92738756D01*
X150441063Y-92659801D01*
X150286219Y-92566967D01*
X150105270Y-92455013D01*
X149889645Y-92318696D01*
X149630779Y-92152772D01*
X149320100Y-91951999D01*
X148949042Y-91711134D01*
X148860934Y-91653854D01*
X148405498Y-91359031D01*
X148010680Y-91106641D01*
X147667245Y-90891270D01*
X147365959Y-90707505D01*
X147097588Y-90549935D01*
X146852898Y-90413144D01*
X146622654Y-90291720D01*
X146397624Y-90180251D01*
X146168571Y-90073323D01*
X146151600Y-90065619D01*
X145427893Y-89755072D01*
X144753469Y-89502761D01*
X144118748Y-89306069D01*
X143514149Y-89162376D01*
X142930092Y-89069062D01*
X142356996Y-89023507D01*
X142337386Y-89022759D01*
X141665481Y-89027294D01*
X141042593Y-89094182D01*
X140457701Y-89226075D01*
X139899784Y-89425630D01*
X139357818Y-89695500D01*
X139227795Y-89771690D01*
X139001834Y-89902719D01*
X138836053Y-89984979D01*
X138722607Y-90020111D01*
X138653651Y-90009754D01*
X138621339Y-89955550D01*
X138616267Y-89899552D01*
X138627153Y-89824998D01*
X138669382Y-89755623D01*
X138757308Y-89674031D01*
X138877601Y-89582879D01*
X139296722Y-89320015D01*
X139782009Y-89090334D01*
X140319502Y-88899664D01*
X140832023Y-88767161D01*
X140980711Y-88739636D01*
X141145545Y-88719364D01*
X141341556Y-88705453D01*
X141583773Y-88697011D01*
X141887225Y-88693146D01*
X142087600Y-88692649D01*
X142409243Y-88693789D01*
X142409243Y-88693789D01*
G37*
X142409243Y-88693789D02*
X142664200Y-88698008D01*
X142870432Y-88706597D01*
X143045903Y-88720849D01*
X143208573Y-88742057D01*
X143376405Y-88771513D01*
X143484600Y-88793177D01*
X143990613Y-88915005D01*
X144544007Y-89079177D01*
X145123891Y-89277957D01*
X145709378Y-89503612D01*
X146279578Y-89748408D01*
X146813602Y-90004609D01*
X146955934Y-90078463D01*
X147120375Y-90165939D01*
X147268839Y-90246603D01*
X147410821Y-90326304D01*
X147555813Y-90410889D01*
X147713309Y-90506209D01*
X147892802Y-90618111D01*
X148103785Y-90752445D01*
X148355752Y-90915060D01*
X148658197Y-91111803D01*
X149020612Y-91348524D01*
X149072600Y-91382523D01*
X149524742Y-91676322D01*
X149917435Y-91926971D01*
X150260394Y-92140151D01*
X150563335Y-92321544D01*
X150835974Y-92476833D01*
X151088024Y-92611701D01*
X151329203Y-92731830D01*
X151569225Y-92842902D01*
X151570267Y-92843367D01*
X152171963Y-93092108D01*
X152754438Y-93293431D01*
X153310617Y-93446038D01*
X153833424Y-93548632D01*
X154315785Y-93599918D01*
X154750625Y-93598598D01*
X155130869Y-93543375D01*
X155235998Y-93515276D01*
X155369910Y-93484128D01*
X155480225Y-93474165D01*
X155515155Y-93478737D01*
X155578206Y-93534651D01*
X155588970Y-93624934D01*
X155549403Y-93718947D01*
X155496684Y-93768145D01*
X155335991Y-93838437D01*
X155108923Y-93891962D01*
X154832441Y-93926916D01*
X154523504Y-93941498D01*
X154199070Y-93933905D01*
X154046767Y-93922231D01*
X153572979Y-93853417D01*
X153051269Y-93734633D01*
X152497951Y-93571065D01*
X151929340Y-93367896D01*
X151361753Y-93130311D01*
X150970749Y-92944783D01*
X150834644Y-92876005D01*
X150706707Y-92809077D01*
X150578369Y-92738756D01*
X150441063Y-92659801D01*
X150286219Y-92566967D01*
X150105270Y-92455013D01*
X149889645Y-92318696D01*
X149630779Y-92152772D01*
X149320100Y-91951999D01*
X148949042Y-91711134D01*
X148860934Y-91653854D01*
X148405498Y-91359031D01*
X148010680Y-91106641D01*
X147667245Y-90891270D01*
X147365959Y-90707505D01*
X147097588Y-90549935D01*
X146852898Y-90413144D01*
X146622654Y-90291720D01*
X146397624Y-90180251D01*
X146168571Y-90073323D01*
X146151600Y-90065619D01*
X145427893Y-89755072D01*
X144753469Y-89502761D01*
X144118748Y-89306069D01*
X143514149Y-89162376D01*
X142930092Y-89069062D01*
X142356996Y-89023507D01*
X142337386Y-89022759D01*
X141665481Y-89027294D01*
X141042593Y-89094182D01*
X140457701Y-89226075D01*
X139899784Y-89425630D01*
X139357818Y-89695500D01*
X139227795Y-89771690D01*
X139001834Y-89902719D01*
X138836053Y-89984979D01*
X138722607Y-90020111D01*
X138653651Y-90009754D01*
X138621339Y-89955550D01*
X138616267Y-89899552D01*
X138627153Y-89824998D01*
X138669382Y-89755623D01*
X138757308Y-89674031D01*
X138877601Y-89582879D01*
X139296722Y-89320015D01*
X139782009Y-89090334D01*
X140319502Y-88899664D01*
X140832023Y-88767161D01*
X140980711Y-88739636D01*
X141145545Y-88719364D01*
X141341556Y-88705453D01*
X141583773Y-88697011D01*
X141887225Y-88693146D01*
X142087600Y-88692649D01*
X142409243Y-88693789D01*
G36*
X132847473Y-88693734D02*
G01*
X133211729Y-88732158D01*
X133553354Y-88796026D01*
X133892361Y-88887732D01*
X134019226Y-88928559D01*
X134331535Y-89042992D01*
X134632372Y-89172008D01*
X134911874Y-89309624D01*
X135160181Y-89449854D01*
X135367432Y-89586715D01*
X135523765Y-89714222D01*
X135619319Y-89826393D01*
X135644610Y-89914875D01*
X135611923Y-89990031D01*
X135538395Y-90014377D01*
X135417953Y-89986713D01*
X135244528Y-89905840D01*
X135058561Y-89798998D01*
X134469404Y-89487515D01*
X133857353Y-89253628D01*
X133220602Y-89097229D01*
X132557346Y-89018211D01*
X131865779Y-89016467D01*
X131144095Y-89091891D01*
X130390488Y-89244373D01*
X129603152Y-89473809D01*
X129599267Y-89475103D01*
X129200528Y-89611879D01*
X128831712Y-89747749D01*
X128482453Y-89888061D01*
X128142384Y-90038164D01*
X127801139Y-90203405D01*
X127448352Y-90389134D01*
X127073656Y-90600699D01*
X126666686Y-90843447D01*
X126217074Y-91122728D01*
X125714454Y-91443889D01*
X125446374Y-91617715D01*
X124958566Y-91933634D01*
X124531430Y-92206227D01*
X124156000Y-92440320D01*
X123823308Y-92640740D01*
X123524387Y-92812312D01*
X123250269Y-92959863D01*
X122991986Y-93088221D01*
X122740572Y-93202210D01*
X122487060Y-93306658D01*
X122222480Y-93406390D01*
X121937867Y-93506234D01*
X121936934Y-93506553D01*
X121287348Y-93706763D01*
X120687107Y-93847842D01*
X120138683Y-93929417D01*
X119644553Y-93951113D01*
X119227600Y-93915909D01*
X119060795Y-93880685D01*
X118899941Y-93833268D01*
X118836017Y-93808596D01*
X118730029Y-93750253D01*
X118684675Y-93684313D01*
X118677267Y-93616642D01*
X118696357Y-93516441D01*
X118759974Y-93471391D01*
X118877638Y-93478487D01*
X119001549Y-93514329D01*
X119157222Y-93548557D01*
X119375237Y-93571290D01*
X119634052Y-93582526D01*
X119912126Y-93582261D01*
X120187919Y-93570495D01*
X120439888Y-93547224D01*
X120637410Y-93514495D01*
X121491602Y-93287283D01*
X122323915Y-92991345D01*
X123077176Y-92652122D01*
X123244847Y-92566859D01*
X123402939Y-92483495D01*
X123560862Y-92396306D01*
X123728026Y-92299570D01*
X123913841Y-92187563D01*
X124127718Y-92054562D01*
X124379066Y-91894843D01*
X124677296Y-91702682D01*
X125031818Y-91472357D01*
X125238934Y-91337306D01*
X125532819Y-91146438D01*
X125825493Y-90958046D01*
X126103440Y-90780705D01*
X126353147Y-90622990D01*
X126561098Y-90493478D01*
X126713779Y-90400743D01*
X126730224Y-90391036D01*
X127554088Y-89944589D01*
X128412889Y-89549847D01*
X129288149Y-89214155D01*
X130161389Y-88944859D01*
X130699934Y-88813090D01*
X130921624Y-88768859D01*
X131138329Y-88736062D01*
X131372658Y-88712397D01*
X131647223Y-88695561D01*
X131971011Y-88683646D01*
X132440572Y-88678361D01*
X132847473Y-88693734D01*
X132847473Y-88693734D01*
G37*
X132847473Y-88693734D02*
X133211729Y-88732158D01*
X133553354Y-88796026D01*
X133892361Y-88887732D01*
X134019226Y-88928559D01*
X134331535Y-89042992D01*
X134632372Y-89172008D01*
X134911874Y-89309624D01*
X135160181Y-89449854D01*
X135367432Y-89586715D01*
X135523765Y-89714222D01*
X135619319Y-89826393D01*
X135644610Y-89914875D01*
X135611923Y-89990031D01*
X135538395Y-90014377D01*
X135417953Y-89986713D01*
X135244528Y-89905840D01*
X135058561Y-89798998D01*
X134469404Y-89487515D01*
X133857353Y-89253628D01*
X133220602Y-89097229D01*
X132557346Y-89018211D01*
X131865779Y-89016467D01*
X131144095Y-89091891D01*
X130390488Y-89244373D01*
X129603152Y-89473809D01*
X129599267Y-89475103D01*
X129200528Y-89611879D01*
X128831712Y-89747749D01*
X128482453Y-89888061D01*
X128142384Y-90038164D01*
X127801139Y-90203405D01*
X127448352Y-90389134D01*
X127073656Y-90600699D01*
X126666686Y-90843447D01*
X126217074Y-91122728D01*
X125714454Y-91443889D01*
X125446374Y-91617715D01*
X124958566Y-91933634D01*
X124531430Y-92206227D01*
X124156000Y-92440320D01*
X123823308Y-92640740D01*
X123524387Y-92812312D01*
X123250269Y-92959863D01*
X122991986Y-93088221D01*
X122740572Y-93202210D01*
X122487060Y-93306658D01*
X122222480Y-93406390D01*
X121937867Y-93506234D01*
X121936934Y-93506553D01*
X121287348Y-93706763D01*
X120687107Y-93847842D01*
X120138683Y-93929417D01*
X119644553Y-93951113D01*
X119227600Y-93915909D01*
X119060795Y-93880685D01*
X118899941Y-93833268D01*
X118836017Y-93808596D01*
X118730029Y-93750253D01*
X118684675Y-93684313D01*
X118677267Y-93616642D01*
X118696357Y-93516441D01*
X118759974Y-93471391D01*
X118877638Y-93478487D01*
X119001549Y-93514329D01*
X119157222Y-93548557D01*
X119375237Y-93571290D01*
X119634052Y-93582526D01*
X119912126Y-93582261D01*
X120187919Y-93570495D01*
X120439888Y-93547224D01*
X120637410Y-93514495D01*
X121491602Y-93287283D01*
X122323915Y-92991345D01*
X123077176Y-92652122D01*
X123244847Y-92566859D01*
X123402939Y-92483495D01*
X123560862Y-92396306D01*
X123728026Y-92299570D01*
X123913841Y-92187563D01*
X124127718Y-92054562D01*
X124379066Y-91894843D01*
X124677296Y-91702682D01*
X125031818Y-91472357D01*
X125238934Y-91337306D01*
X125532819Y-91146438D01*
X125825493Y-90958046D01*
X126103440Y-90780705D01*
X126353147Y-90622990D01*
X126561098Y-90493478D01*
X126713779Y-90400743D01*
X126730224Y-90391036D01*
X127554088Y-89944589D01*
X128412889Y-89549847D01*
X129288149Y-89214155D01*
X130161389Y-88944859D01*
X130699934Y-88813090D01*
X130921624Y-88768859D01*
X131138329Y-88736062D01*
X131372658Y-88712397D01*
X131647223Y-88695561D01*
X131971011Y-88683646D01*
X132440572Y-88678361D01*
X132847473Y-88693734D01*
G36*
X139920182Y-90515910D02*
G01*
X139996886Y-90552505D01*
X140104867Y-90628541D01*
X140254262Y-90750199D01*
X140455206Y-90923662D01*
X140455315Y-90923757D01*
X140711683Y-91134025D01*
X141023697Y-91367434D01*
X141370842Y-91610136D01*
X141732605Y-91848287D01*
X142088469Y-92068041D01*
X142417922Y-92255552D01*
X142468600Y-92282580D01*
X143242632Y-92653448D01*
X144068802Y-92976448D01*
X144949957Y-93252171D01*
X145888946Y-93481206D01*
X146888616Y-93664144D01*
X147951816Y-93801576D01*
X149081394Y-93894093D01*
X150280197Y-93942284D01*
X150490767Y-93946106D01*
X150827367Y-93951755D01*
X151141885Y-93958114D01*
X151422944Y-93964871D01*
X151659168Y-93971712D01*
X151839179Y-93978323D01*
X151951601Y-93984390D01*
X151978929Y-93987125D01*
X152095647Y-94030639D01*
X152142427Y-94106081D01*
X152112686Y-94199936D01*
X152093893Y-94223189D01*
X152068579Y-94245891D01*
X152032122Y-94263671D01*
X151974955Y-94277064D01*
X151887510Y-94286601D01*
X151760217Y-94292817D01*
X151583510Y-94296244D01*
X151347819Y-94297415D01*
X151043578Y-94296863D01*
X150791122Y-94295768D01*
X150446372Y-94292900D01*
X150102388Y-94287858D01*
X149776000Y-94281048D01*
X149484034Y-94272877D01*
X149243321Y-94263752D01*
X149072600Y-94254220D01*
X148365968Y-94191683D01*
X147649207Y-94107638D01*
X146935726Y-94004586D01*
X146238934Y-93885031D01*
X145572243Y-93751472D01*
X144949060Y-93606411D01*
X144382796Y-93452350D01*
X143886861Y-93291790D01*
X143858393Y-93281556D01*
X143105743Y-92977562D01*
X142355373Y-92613980D01*
X141629870Y-92203208D01*
X140951821Y-91757642D01*
X140584767Y-91484701D01*
X140292022Y-91249958D01*
X140067642Y-91055124D01*
X139907948Y-90895633D01*
X139809260Y-90766922D01*
X139767896Y-90664427D01*
X139780178Y-90583584D01*
X139820061Y-90536313D01*
X139864619Y-90512573D01*
X139920182Y-90515910D01*
X139920182Y-90515910D01*
G37*
X139920182Y-90515910D02*
X139996886Y-90552505D01*
X140104867Y-90628541D01*
X140254262Y-90750199D01*
X140455206Y-90923662D01*
X140455315Y-90923757D01*
X140711683Y-91134025D01*
X141023697Y-91367434D01*
X141370842Y-91610136D01*
X141732605Y-91848287D01*
X142088469Y-92068041D01*
X142417922Y-92255552D01*
X142468600Y-92282580D01*
X143242632Y-92653448D01*
X144068802Y-92976448D01*
X144949957Y-93252171D01*
X145888946Y-93481206D01*
X146888616Y-93664144D01*
X147951816Y-93801576D01*
X149081394Y-93894093D01*
X150280197Y-93942284D01*
X150490767Y-93946106D01*
X150827367Y-93951755D01*
X151141885Y-93958114D01*
X151422944Y-93964871D01*
X151659168Y-93971712D01*
X151839179Y-93978323D01*
X151951601Y-93984390D01*
X151978929Y-93987125D01*
X152095647Y-94030639D01*
X152142427Y-94106081D01*
X152112686Y-94199936D01*
X152093893Y-94223189D01*
X152068579Y-94245891D01*
X152032122Y-94263671D01*
X151974955Y-94277064D01*
X151887510Y-94286601D01*
X151760217Y-94292817D01*
X151583510Y-94296244D01*
X151347819Y-94297415D01*
X151043578Y-94296863D01*
X150791122Y-94295768D01*
X150446372Y-94292900D01*
X150102388Y-94287858D01*
X149776000Y-94281048D01*
X149484034Y-94272877D01*
X149243321Y-94263752D01*
X149072600Y-94254220D01*
X148365968Y-94191683D01*
X147649207Y-94107638D01*
X146935726Y-94004586D01*
X146238934Y-93885031D01*
X145572243Y-93751472D01*
X144949060Y-93606411D01*
X144382796Y-93452350D01*
X143886861Y-93291790D01*
X143858393Y-93281556D01*
X143105743Y-92977562D01*
X142355373Y-92613980D01*
X141629870Y-92203208D01*
X140951821Y-91757642D01*
X140584767Y-91484701D01*
X140292022Y-91249958D01*
X140067642Y-91055124D01*
X139907948Y-90895633D01*
X139809260Y-90766922D01*
X139767896Y-90664427D01*
X139780178Y-90583584D01*
X139820061Y-90536313D01*
X139864619Y-90512573D01*
X139920182Y-90515910D01*
G36*
X134388351Y-90536966D02*
G01*
X134453365Y-90597236D01*
X134461114Y-90681180D01*
X134408885Y-90792404D01*
X134293968Y-90934512D01*
X134113651Y-91111108D01*
X133865221Y-91325799D01*
X133684434Y-91472727D01*
X132969940Y-91992271D01*
X132190732Y-92462378D01*
X131352930Y-92879989D01*
X130462653Y-93242046D01*
X129551192Y-93538288D01*
X128658074Y-93766337D01*
X127710322Y-93952749D01*
X126703526Y-94098092D01*
X125633276Y-94202932D01*
X124495161Y-94267838D01*
X123714214Y-94288923D01*
X123313778Y-94295010D01*
X122989647Y-94298975D01*
X122733483Y-94300587D01*
X122536944Y-94299617D01*
X122391693Y-94295834D01*
X122289388Y-94289009D01*
X122221689Y-94278911D01*
X122180259Y-94265310D01*
X122156755Y-94247976D01*
X122154968Y-94245907D01*
X122114885Y-94154876D01*
X122113755Y-94102684D01*
X122140120Y-94065370D01*
X122208319Y-94035307D01*
X122325505Y-94011755D01*
X122498834Y-93993974D01*
X122735462Y-93981227D01*
X123042544Y-93972775D01*
X123418600Y-93967947D01*
X124544452Y-93937784D01*
X125634723Y-93866417D01*
X126682998Y-93754889D01*
X127682866Y-93604242D01*
X128627914Y-93415523D01*
X129511729Y-93189773D01*
X130327898Y-92928037D01*
X130719735Y-92779547D01*
X131333806Y-92505895D01*
X131967958Y-92172419D01*
X132599911Y-91792604D01*
X133207386Y-91379935D01*
X133768105Y-90947897D01*
X133827435Y-90898544D01*
X134019777Y-90739361D01*
X134159700Y-90629805D01*
X134257851Y-90563012D01*
X134324879Y-90532117D01*
X134371430Y-90530257D01*
X134388351Y-90536966D01*
X134388351Y-90536966D01*
G37*
X134388351Y-90536966D02*
X134453365Y-90597236D01*
X134461114Y-90681180D01*
X134408885Y-90792404D01*
X134293968Y-90934512D01*
X134113651Y-91111108D01*
X133865221Y-91325799D01*
X133684434Y-91472727D01*
X132969940Y-91992271D01*
X132190732Y-92462378D01*
X131352930Y-92879989D01*
X130462653Y-93242046D01*
X129551192Y-93538288D01*
X128658074Y-93766337D01*
X127710322Y-93952749D01*
X126703526Y-94098092D01*
X125633276Y-94202932D01*
X124495161Y-94267838D01*
X123714214Y-94288923D01*
X123313778Y-94295010D01*
X122989647Y-94298975D01*
X122733483Y-94300587D01*
X122536944Y-94299617D01*
X122391693Y-94295834D01*
X122289388Y-94289009D01*
X122221689Y-94278911D01*
X122180259Y-94265310D01*
X122156755Y-94247976D01*
X122154968Y-94245907D01*
X122114885Y-94154876D01*
X122113755Y-94102684D01*
X122140120Y-94065370D01*
X122208319Y-94035307D01*
X122325505Y-94011755D01*
X122498834Y-93993974D01*
X122735462Y-93981227D01*
X123042544Y-93972775D01*
X123418600Y-93967947D01*
X124544452Y-93937784D01*
X125634723Y-93866417D01*
X126682998Y-93754889D01*
X127682866Y-93604242D01*
X128627914Y-93415523D01*
X129511729Y-93189773D01*
X130327898Y-92928037D01*
X130719735Y-92779547D01*
X131333806Y-92505895D01*
X131967958Y-92172419D01*
X132599911Y-91792604D01*
X133207386Y-91379935D01*
X133768105Y-90947897D01*
X133827435Y-90898544D01*
X134019777Y-90739361D01*
X134159700Y-90629805D01*
X134257851Y-90563012D01*
X134324879Y-90532117D01*
X134371430Y-90530257D01*
X134388351Y-90536966D01*
D11*
X145923000Y-85725000D03*
D12*
X143383000Y-85725000D03*
D11*
X130987800Y-85725000D03*
D12*
X128447800Y-85725000D03*
D13*
X137414000Y-105664000D03*
D14*
G36*
X139846977Y-80365558D02*
G01*
X146112004Y-80847483D01*
X152276842Y-81760793D01*
X157832843Y-82851697D01*
X163617863Y-84348698D01*
X169226167Y-86048953D01*
X169947341Y-86301364D01*
X169812917Y-86435617D01*
X169698608Y-86542357D01*
X169582865Y-86645310D01*
X169468597Y-86741793D01*
X169355998Y-86831677D01*
X169245396Y-86914755D01*
X169136981Y-86990953D01*
X169031087Y-87060132D01*
X168928003Y-87122222D01*
X168828022Y-87177197D01*
X168735192Y-87223214D01*
X168600396Y-87280576D01*
X168425188Y-87344288D01*
X168208705Y-87413704D01*
X167954886Y-87487045D01*
X167760530Y-87538453D01*
X167724322Y-87528667D01*
X166277089Y-87122426D01*
X166273568Y-87121492D01*
X163937537Y-86537484D01*
X162388788Y-86131255D01*
X162386139Y-86130591D01*
X160582739Y-85698791D01*
X160581957Y-85698606D01*
X157635557Y-85012806D01*
X157631006Y-85011835D01*
X153973406Y-84300635D01*
X153972381Y-84300440D01*
X148917781Y-83360640D01*
X148903569Y-83358820D01*
X148878682Y-83359497D01*
X148854405Y-83365017D01*
X148831672Y-83375167D01*
X148811355Y-83389557D01*
X148794237Y-83407634D01*
X148780974Y-83428704D01*
X148755574Y-83479504D01*
X148744606Y-83511524D01*
X148742166Y-83536300D01*
X148742166Y-83714100D01*
X148746276Y-83746148D01*
X148754890Y-83769507D01*
X149567539Y-85445595D01*
X149893592Y-86122783D01*
X150396892Y-87758506D01*
X150623832Y-88893207D01*
X150724891Y-89499560D01*
X150780030Y-89874505D01*
X150769988Y-89878582D01*
X150753569Y-89887210D01*
X150736797Y-89895099D01*
X150723796Y-89902854D01*
X150680471Y-89925620D01*
X150670284Y-89933860D01*
X150645707Y-89945589D01*
X150593110Y-89984881D01*
X150540455Y-90023761D01*
X150516413Y-90050176D01*
X150512521Y-90053728D01*
X150476304Y-90082940D01*
X150441227Y-90124950D01*
X150404593Y-90165653D01*
X150380801Y-90205662D01*
X150376041Y-90212658D01*
X150349452Y-90246265D01*
X150322835Y-90298280D01*
X150294851Y-90349583D01*
X150284133Y-90383867D01*
X150273616Y-90403358D01*
X150261469Y-90442837D01*
X150258725Y-90449813D01*
X150251582Y-90474972D01*
X150248054Y-90486440D01*
X149961600Y-90271600D01*
X149958378Y-90269262D01*
X148764578Y-89431062D01*
X148759614Y-89427747D01*
X146676814Y-88106947D01*
X146663290Y-88099484D01*
X145647290Y-87616884D01*
X145636201Y-87612246D01*
X145077401Y-87409046D01*
X145067991Y-87406033D01*
X144610791Y-87279033D01*
X144606216Y-87277854D01*
X144444929Y-87239452D01*
X144527180Y-87214502D01*
X144637494Y-87155537D01*
X144734185Y-87076185D01*
X144813537Y-86979494D01*
X144872502Y-86869180D01*
X144878056Y-86850873D01*
X144944495Y-86917312D01*
X145195905Y-87085299D01*
X145475257Y-87201011D01*
X145771816Y-87260000D01*
X146074184Y-87260000D01*
X146370743Y-87201011D01*
X146650095Y-87085299D01*
X146901505Y-86917312D01*
X147115312Y-86703505D01*
X147283299Y-86452095D01*
X147399011Y-86172743D01*
X147458000Y-85876184D01*
X147458000Y-85573816D01*
X147399011Y-85277257D01*
X147283299Y-84997905D01*
X147115312Y-84746495D01*
X146901505Y-84532688D01*
X146650095Y-84364701D01*
X146370743Y-84248989D01*
X146074184Y-84190000D01*
X145771816Y-84190000D01*
X145475257Y-84248989D01*
X145195905Y-84364701D01*
X144944495Y-84532688D01*
X144878056Y-84599127D01*
X144872502Y-84580820D01*
X144813537Y-84470506D01*
X144734185Y-84373815D01*
X144637494Y-84294463D01*
X144527180Y-84235498D01*
X144407482Y-84199188D01*
X144283000Y-84186928D01*
X142483000Y-84186928D01*
X142358518Y-84199188D01*
X142238820Y-84235498D01*
X142128506Y-84294463D01*
X142031815Y-84373815D01*
X141952463Y-84470506D01*
X141893498Y-84580820D01*
X141857188Y-84700518D01*
X141844928Y-84825000D01*
X141844928Y-86625000D01*
X141857188Y-86749482D01*
X141893498Y-86869180D01*
X141952463Y-86979494D01*
X142013777Y-87054206D01*
X141845705Y-87071898D01*
X141834093Y-87073666D01*
X141326093Y-87175266D01*
X141317009Y-87177433D01*
X140859809Y-87304433D01*
X140844954Y-87309569D01*
X140235354Y-87563569D01*
X140227404Y-87567208D01*
X139617804Y-87872008D01*
X139602885Y-87880786D01*
X139120285Y-88210986D01*
X139102197Y-88225997D01*
X138981576Y-88346618D01*
X138785600Y-88493600D01*
X138771997Y-88505397D01*
X138596551Y-88680843D01*
X138345041Y-88907202D01*
X138334423Y-88917970D01*
X137978823Y-89324370D01*
X137976107Y-89327579D01*
X137748440Y-89605839D01*
X137596974Y-89782549D01*
X137591800Y-89789000D01*
X137439400Y-89992200D01*
X137429982Y-90006723D01*
X137302982Y-90235323D01*
X137296718Y-90248276D01*
X137289466Y-90272093D01*
X137264066Y-90399093D01*
X137261920Y-90433003D01*
X137266110Y-90457544D01*
X137275008Y-90480796D01*
X137325808Y-90582396D01*
X137330498Y-90590941D01*
X137406698Y-90717941D01*
X137419483Y-90735610D01*
X137902083Y-91294410D01*
X137904737Y-91297386D01*
X138488937Y-91932386D01*
X138501097Y-91943964D01*
X139263097Y-92578964D01*
X139275724Y-92588230D01*
X139986924Y-93045430D01*
X139992065Y-93048565D01*
X141135065Y-93708965D01*
X141147020Y-93715054D01*
X142747220Y-94426254D01*
X142751085Y-94427896D01*
X143690885Y-94808896D01*
X143706972Y-94814199D01*
X145484972Y-95271399D01*
X145498639Y-95274124D01*
X147098839Y-95502724D01*
X147114611Y-95503981D01*
X148587811Y-95529381D01*
X148595287Y-95529290D01*
X149814487Y-95478490D01*
X149819464Y-95478185D01*
X150759264Y-95401985D01*
X150777074Y-95399258D01*
X152249598Y-95065486D01*
X152258679Y-95087218D01*
X152260074Y-95089292D01*
X152305430Y-95195662D01*
X152311527Y-95212064D01*
X152318619Y-95226594D01*
X152324957Y-95241458D01*
X152333362Y-95256799D01*
X152442786Y-95480982D01*
X152446699Y-95490606D01*
X152457523Y-95511176D01*
X152467737Y-95532102D01*
X152473196Y-95540960D01*
X152612458Y-95805615D01*
X152614208Y-95809761D01*
X152628143Y-95835422D01*
X152641705Y-95861195D01*
X152644174Y-95864943D01*
X152727196Y-96017825D01*
X152829930Y-96207011D01*
X152829933Y-96207018D01*
X152848775Y-96241713D01*
X152862040Y-96266142D01*
X152862043Y-96266147D01*
X152960607Y-96447645D01*
X153060239Y-96631119D01*
X153090360Y-96687831D01*
X153113747Y-96716482D01*
X153134498Y-96747098D01*
X153156309Y-96768623D01*
X153175686Y-96792361D01*
X153204215Y-96815900D01*
X153230538Y-96841878D01*
X153256125Y-96858731D01*
X153279764Y-96878236D01*
X153312340Y-96895758D01*
X153343224Y-96916101D01*
X153371610Y-96927640D01*
X153398597Y-96942156D01*
X153433963Y-96952986D01*
X153468224Y-96966913D01*
X153498315Y-96972692D01*
X153527616Y-96981665D01*
X153564413Y-96985387D01*
X153600734Y-96992363D01*
X153664967Y-96991939D01*
X154197688Y-96993343D01*
X154197694Y-96993342D01*
X154632560Y-96994489D01*
X154632564Y-96994489D01*
X155202026Y-96995988D01*
X155202032Y-96995987D01*
X155667822Y-96997215D01*
X156125265Y-97002028D01*
X156569589Y-97013912D01*
X157003582Y-97032895D01*
X157427258Y-97058970D01*
X157840625Y-97092124D01*
X158243707Y-97132344D01*
X158636574Y-97179614D01*
X159019285Y-97233916D01*
X159391851Y-97295226D01*
X159754399Y-97363529D01*
X160106910Y-97438785D01*
X160449466Y-97520965D01*
X160782119Y-97610035D01*
X161105043Y-97705987D01*
X161418204Y-97808755D01*
X161721786Y-97918335D01*
X162015818Y-98034674D01*
X162300442Y-98157752D01*
X162575822Y-98287570D01*
X162842048Y-98424091D01*
X163099275Y-98567320D01*
X163347650Y-98717261D01*
X163587378Y-98873959D01*
X163818538Y-99037393D01*
X164041380Y-99207667D01*
X164256041Y-99384823D01*
X164462668Y-99568925D01*
X164661430Y-99760066D01*
X164852513Y-99958390D01*
X165035995Y-100163945D01*
X165212062Y-100376914D01*
X165381185Y-100597899D01*
X165590201Y-100892025D01*
X165780783Y-101183014D01*
X165865653Y-101322209D01*
X165947638Y-101463989D01*
X166025168Y-101605944D01*
X166098475Y-101748643D01*
X166167777Y-101892658D01*
X166233289Y-102038586D01*
X166295248Y-102187120D01*
X166353823Y-102338845D01*
X166409188Y-102494396D01*
X166461485Y-102654380D01*
X166510869Y-102819487D01*
X166557424Y-102990203D01*
X166601268Y-103167185D01*
X166642478Y-103350948D01*
X166681135Y-103542016D01*
X166716790Y-103738018D01*
X166782539Y-104164564D01*
X166838750Y-104624764D01*
X166886577Y-105125466D01*
X166926725Y-105670106D01*
X166959969Y-106262138D01*
X166987189Y-106906299D01*
X167014290Y-107649516D01*
X167040828Y-108377297D01*
X167040828Y-108377304D01*
X167068294Y-109130557D01*
X167071099Y-109207473D01*
X163931995Y-109207473D01*
X163898348Y-109204159D01*
X163864701Y-109207473D01*
X163764065Y-109217385D01*
X163634942Y-109256554D01*
X163515941Y-109320161D01*
X163411637Y-109405762D01*
X163326036Y-109510066D01*
X163262429Y-109629067D01*
X163223260Y-109758190D01*
X163210034Y-109892473D01*
X163213348Y-109926120D01*
X163213348Y-113302264D01*
X163210034Y-113335911D01*
X163213348Y-113369557D01*
X163213348Y-113369558D01*
X163214488Y-113381133D01*
X163223260Y-113470194D01*
X163262429Y-113599317D01*
X163326036Y-113718318D01*
X163411637Y-113822622D01*
X163515941Y-113908223D01*
X163634942Y-113971830D01*
X163764065Y-114010999D01*
X163864701Y-114020911D01*
X163898348Y-114024225D01*
X163931995Y-114020911D01*
X164560262Y-114020911D01*
X164567485Y-114021073D01*
X164593321Y-114429158D01*
X164593234Y-114432695D01*
X164595445Y-114462698D01*
X164597349Y-114492778D01*
X164597919Y-114496277D01*
X164702633Y-115917490D01*
X164702596Y-115919421D01*
X164705109Y-115951093D01*
X164707436Y-115982682D01*
X164707765Y-115984579D01*
X164858868Y-117889310D01*
X164858850Y-117890423D01*
X164861524Y-117922801D01*
X164864101Y-117955281D01*
X164864298Y-117956380D01*
X165040884Y-120094282D01*
X165040872Y-120095233D01*
X165043662Y-120127910D01*
X165046346Y-120160405D01*
X165046516Y-120161335D01*
X165227552Y-122281682D01*
X165227541Y-122282835D01*
X165230417Y-122315241D01*
X165233179Y-122347586D01*
X165233389Y-122348717D01*
X165397784Y-124200847D01*
X165397777Y-124202944D01*
X165400762Y-124234394D01*
X165403549Y-124265792D01*
X165403937Y-124267848D01*
X165530566Y-125601959D01*
X165530603Y-125606198D01*
X165533746Y-125635462D01*
X165536524Y-125664734D01*
X165537335Y-125668890D01*
X165577292Y-126040964D01*
X165577781Y-126052485D01*
X165580883Y-126074404D01*
X165583246Y-126096407D01*
X165585594Y-126107693D01*
X165607029Y-126259144D01*
X165607565Y-126267243D01*
X165611737Y-126292414D01*
X165615319Y-126317720D01*
X165615924Y-126320207D01*
X165615208Y-126331055D01*
X165609867Y-126366973D01*
X165598566Y-126418931D01*
X165580557Y-126484210D01*
X165555607Y-126560662D01*
X165525576Y-126641672D01*
X165439445Y-126842702D01*
X165330851Y-127062576D01*
X165199546Y-127301143D01*
X165047917Y-127553349D01*
X164878325Y-127814796D01*
X164693109Y-128081440D01*
X164494600Y-128349471D01*
X164285089Y-128615263D01*
X164066996Y-128875149D01*
X163842698Y-129125640D01*
X163614837Y-129363080D01*
X163384366Y-129585634D01*
X163220383Y-129732969D01*
X163047654Y-129879148D01*
X162867717Y-130022854D01*
X162680958Y-130163832D01*
X162487671Y-130301911D01*
X162288167Y-130436914D01*
X162082856Y-130568609D01*
X161872031Y-130696847D01*
X161656039Y-130821458D01*
X161435157Y-130942310D01*
X161209901Y-131059148D01*
X160980418Y-131171922D01*
X160747210Y-131280400D01*
X160510564Y-131384466D01*
X160270777Y-131483997D01*
X160028224Y-131578839D01*
X159783351Y-131668815D01*
X159536400Y-131753836D01*
X159287768Y-131833753D01*
X159037768Y-131908450D01*
X158786781Y-131977792D01*
X158535157Y-132041660D01*
X158283299Y-132099922D01*
X158031455Y-132152490D01*
X157780094Y-132199227D01*
X157529504Y-132240041D01*
X157280062Y-132274823D01*
X157032189Y-132303469D01*
X156786169Y-132325894D01*
X156542432Y-132342006D01*
X156301252Y-132351727D01*
X156058380Y-132355045D01*
X155783444Y-132355045D01*
X155783444Y-129965897D01*
X155787153Y-129317605D01*
X155797757Y-128645015D01*
X155814552Y-127966472D01*
X155836761Y-127302306D01*
X155863618Y-126672806D01*
X155894277Y-126098821D01*
X155927804Y-125602133D01*
X155963810Y-125195909D01*
X156048162Y-124297101D01*
X156048841Y-124293387D01*
X156051300Y-124263673D01*
X156054096Y-124233876D01*
X156054079Y-124230087D01*
X156151305Y-123055016D01*
X156151721Y-123052648D01*
X156154078Y-123021503D01*
X156156656Y-122990350D01*
X156156618Y-122987944D01*
X156256391Y-121669768D01*
X156256776Y-121667483D01*
X156258932Y-121636190D01*
X156261295Y-121604975D01*
X156261243Y-121602663D01*
X156350820Y-120302715D01*
X156350942Y-120301980D01*
X156353141Y-120269034D01*
X156355395Y-120236319D01*
X156355373Y-120235579D01*
X156408825Y-119434636D01*
X156462366Y-118689161D01*
X156515079Y-118025360D01*
X156568118Y-117437878D01*
X156622556Y-116921637D01*
X156679346Y-116471705D01*
X156739259Y-116083286D01*
X156803623Y-115747295D01*
X156836006Y-115604681D01*
X156870122Y-115470859D01*
X156905170Y-115348523D01*
X156941090Y-115236986D01*
X156977899Y-115135251D01*
X157015623Y-115042326D01*
X157054383Y-114957032D01*
X157094403Y-114878115D01*
X157136051Y-114804212D01*
X157179829Y-114733954D01*
X157226333Y-114666044D01*
X157276260Y-114599238D01*
X157330360Y-114532388D01*
X157386283Y-114468031D01*
X157529415Y-114317318D01*
X157731762Y-114114493D01*
X157731765Y-114114490D01*
X157873548Y-113972374D01*
X157889347Y-113956537D01*
X157916295Y-113929526D01*
X157916302Y-113929518D01*
X158053300Y-113792192D01*
X158053303Y-113792190D01*
X158237559Y-113607499D01*
X158263375Y-113586312D01*
X158285077Y-113559869D01*
X158285368Y-113559577D01*
X158306520Y-113533740D01*
X158348977Y-113482008D01*
X158349172Y-113481644D01*
X158349427Y-113481332D01*
X158380770Y-113422527D01*
X158412584Y-113363007D01*
X158412703Y-113362616D01*
X158412894Y-113362257D01*
X158432299Y-113298014D01*
X158451753Y-113233884D01*
X158451793Y-113233479D01*
X158451911Y-113233088D01*
X158458362Y-113166783D01*
X158461665Y-113133248D01*
X158461665Y-113132831D01*
X158464977Y-113098789D01*
X158461665Y-113065561D01*
X158461665Y-109926122D01*
X158464979Y-109892475D01*
X158451753Y-109758192D01*
X158412584Y-109629069D01*
X158348977Y-109510068D01*
X158263376Y-109405764D01*
X158159072Y-109320163D01*
X158040071Y-109256556D01*
X157910948Y-109217387D01*
X157810312Y-109207475D01*
X157776665Y-109204161D01*
X157743018Y-109207475D01*
X153984267Y-109207475D01*
X153950620Y-109204161D01*
X153916973Y-109207475D01*
X153816337Y-109217387D01*
X153687214Y-109256556D01*
X153568213Y-109320163D01*
X153463909Y-109405764D01*
X153378308Y-109510068D01*
X153314701Y-109629069D01*
X153275532Y-109758192D01*
X153262306Y-109892475D01*
X153265620Y-109926122D01*
X153265620Y-111000685D01*
X153262811Y-111195231D01*
X153254652Y-111382787D01*
X153241163Y-111568072D01*
X153222420Y-111751047D01*
X153198521Y-111931478D01*
X153169542Y-112109314D01*
X153135583Y-112284363D01*
X153096720Y-112456559D01*
X153053065Y-112625681D01*
X153004700Y-112791652D01*
X152951698Y-112954407D01*
X152894197Y-113113680D01*
X152832254Y-113269461D01*
X152765978Y-113421592D01*
X152695473Y-113569940D01*
X152620819Y-113714422D01*
X152542136Y-113854879D01*
X152459502Y-113991237D01*
X152373028Y-114123365D01*
X152282799Y-114251177D01*
X152188917Y-114374560D01*
X152091461Y-114493438D01*
X151990520Y-114607717D01*
X151886170Y-114717316D01*
X151778535Y-114822111D01*
X151667628Y-114922080D01*
X151553564Y-115017108D01*
X151436350Y-115107164D01*
X151316111Y-115192119D01*
X151192799Y-115271970D01*
X151066555Y-115346580D01*
X150930998Y-115419320D01*
X150780326Y-115496188D01*
X150780325Y-115496188D01*
X150768470Y-115502236D01*
X150729213Y-115522264D01*
X150581637Y-115597553D01*
X150406395Y-115686952D01*
X150406388Y-115686955D01*
X150240470Y-115771601D01*
X150230758Y-115774657D01*
X150180474Y-115802208D01*
X150159476Y-115812921D01*
X150150947Y-115818387D01*
X150112423Y-115839495D01*
X150094275Y-115854707D01*
X150074337Y-115867484D01*
X150042683Y-115897950D01*
X150009012Y-115926172D01*
X149994180Y-115944631D01*
X149977117Y-115961054D01*
X149952015Y-115997110D01*
X149924497Y-116031358D01*
X149913551Y-116052358D01*
X149900020Y-116071793D01*
X149882435Y-116112053D01*
X149862127Y-116151012D01*
X149855488Y-116173744D01*
X149846009Y-116195445D01*
X149836614Y-116238367D01*
X149824299Y-116280534D01*
X149822223Y-116304117D01*
X149817158Y-116327257D01*
X149816318Y-116371194D01*
X149815431Y-116381267D01*
X149815675Y-116404803D01*
X149814578Y-116462165D01*
X149816374Y-116472190D01*
X149828881Y-117678684D01*
X149828882Y-117678690D01*
X149841634Y-118908809D01*
X149841635Y-118908815D01*
X149854387Y-120138936D01*
X149854388Y-120138942D01*
X149867140Y-121369061D01*
X149867141Y-121369067D01*
X149879893Y-122599185D01*
X149879894Y-122599191D01*
X149892646Y-123829313D01*
X149892647Y-123829319D01*
X149905399Y-125059437D01*
X149905400Y-125059443D01*
X149917770Y-126252708D01*
X149917816Y-126316773D01*
X149925084Y-126353178D01*
X149929107Y-126390090D01*
X149938264Y-126419187D01*
X149944235Y-126449094D01*
X149958465Y-126483379D01*
X149969612Y-126518800D01*
X149984270Y-126545552D01*
X149995961Y-126573720D01*
X150016610Y-126604575D01*
X150034450Y-126637135D01*
X150054043Y-126660511D01*
X150071006Y-126685858D01*
X150097278Y-126712092D01*
X150121127Y-126740546D01*
X150144902Y-126759649D01*
X150166486Y-126781202D01*
X150197370Y-126801806D01*
X150226313Y-126825061D01*
X150253364Y-126839161D01*
X150278733Y-126856086D01*
X150313041Y-126870268D01*
X150345967Y-126887431D01*
X150375243Y-126895981D01*
X150403432Y-126907634D01*
X150439856Y-126914852D01*
X150475489Y-126925259D01*
X150539305Y-126930877D01*
X150716273Y-126948179D01*
X150795971Y-126955972D01*
X150795973Y-126955972D01*
X150817115Y-126958039D01*
X150862943Y-126962520D01*
X150862947Y-126962520D01*
X151009618Y-126976860D01*
X151009621Y-126976860D01*
X151149626Y-126990548D01*
X151175018Y-126993031D01*
X151274483Y-127681258D01*
X151274483Y-127681264D01*
X151455577Y-128934303D01*
X151455577Y-128934306D01*
X151636671Y-130187346D01*
X151636671Y-130187353D01*
X151817813Y-131440717D01*
X151817828Y-131441046D01*
X151822663Y-131474280D01*
X151827392Y-131506998D01*
X151827470Y-131507313D01*
X152107295Y-133430550D01*
X152107329Y-133431254D01*
X152112105Y-133463610D01*
X152116881Y-133496435D01*
X152117053Y-133497129D01*
X152359878Y-135142179D01*
X152359933Y-135143243D01*
X152364800Y-135175523D01*
X152369550Y-135207702D01*
X152369807Y-135208732D01*
X152548690Y-136395141D01*
X152548883Y-136398317D01*
X152553704Y-136428394D01*
X152558248Y-136458534D01*
X152559029Y-136461621D01*
X152649393Y-137025428D01*
X152652128Y-137047225D01*
X152654716Y-137058640D01*
X152656567Y-137070186D01*
X152662149Y-137091415D01*
X152677479Y-137159021D01*
X152683508Y-137187386D01*
X152684915Y-137191814D01*
X152685940Y-137196335D01*
X152695077Y-137223801D01*
X152698695Y-137235187D01*
X152698830Y-137236362D01*
X152719049Y-137299253D01*
X152728949Y-137330414D01*
X152729417Y-137331504D01*
X152729780Y-137332632D01*
X152742767Y-137362575D01*
X152750897Y-137381498D01*
X152751799Y-137385425D01*
X152777623Y-137442940D01*
X152789285Y-137469827D01*
X152791420Y-137473667D01*
X152793220Y-137477676D01*
X152807792Y-137503115D01*
X152821118Y-137527084D01*
X152821917Y-137529368D01*
X152830173Y-137543370D01*
X152838423Y-137558209D01*
X152840059Y-137560136D01*
X152853998Y-137583777D01*
X152868585Y-137609242D01*
X152871082Y-137612752D01*
X152873278Y-137616476D01*
X152890643Y-137640245D01*
X152927207Y-137691639D01*
X152929942Y-137694218D01*
X152946340Y-137716486D01*
X152965605Y-137742857D01*
X152966482Y-137743839D01*
X152967254Y-137744887D01*
X152988900Y-137768934D01*
X153032974Y-137818271D01*
X153034021Y-137819059D01*
X153052313Y-137839380D01*
X153072267Y-137862005D01*
X153074816Y-137864379D01*
X153077142Y-137866963D01*
X153099377Y-137887254D01*
X153169063Y-137952155D01*
X153186781Y-137969531D01*
X153193677Y-137975079D01*
X153200141Y-137981099D01*
X153219845Y-137996131D01*
X153296093Y-138057472D01*
X153310961Y-138070461D01*
X153322287Y-138078545D01*
X153333129Y-138087267D01*
X153349650Y-138098075D01*
X153434201Y-138158420D01*
X153446205Y-138167995D01*
X153461557Y-138177946D01*
X153476461Y-138188583D01*
X153489783Y-138196241D01*
X153585140Y-138258048D01*
X153594577Y-138265059D01*
X153613352Y-138276334D01*
X153631735Y-138288249D01*
X153642182Y-138293647D01*
X153751125Y-138359069D01*
X153758388Y-138364179D01*
X153779935Y-138376370D01*
X153801189Y-138389134D01*
X153809224Y-138392942D01*
X153936721Y-138465082D01*
X153944394Y-138470177D01*
X153965971Y-138481631D01*
X153987260Y-138493677D01*
X153995693Y-138497410D01*
X154361574Y-138691643D01*
X154367596Y-138695464D01*
X154391231Y-138707387D01*
X154414689Y-138719840D01*
X154421307Y-138722559D01*
X154884175Y-138956059D01*
X154885968Y-138957181D01*
X154914204Y-138971208D01*
X154942366Y-138985414D01*
X154944340Y-138986177D01*
X155393870Y-139209483D01*
X155393875Y-139209485D01*
X155781239Y-139401906D01*
X156228874Y-139624270D01*
X156228877Y-139624272D01*
X156326389Y-139672711D01*
X156326389Y-140772402D01*
X139905282Y-140772402D01*
X139905282Y-138125056D01*
X140447708Y-138125056D01*
X140449433Y-138125390D01*
X140515032Y-138125056D01*
X140547059Y-138125056D01*
X140548805Y-138124884D01*
X140584363Y-138124703D01*
X140615778Y-138118288D01*
X140647695Y-138115144D01*
X140681732Y-138104819D01*
X140716568Y-138097705D01*
X140746125Y-138085286D01*
X140776818Y-138075975D01*
X140808185Y-138059209D01*
X140840966Y-138045435D01*
X140867533Y-138027487D01*
X140895819Y-138012368D01*
X140923315Y-137989802D01*
X140952775Y-137969900D01*
X140975331Y-137947113D01*
X141000123Y-137926767D01*
X141022684Y-137899277D01*
X141047701Y-137874004D01*
X141065378Y-137847254D01*
X141085724Y-137822463D01*
X141102492Y-137791092D01*
X141122093Y-137761431D01*
X141134210Y-137731751D01*
X141149331Y-137703462D01*
X141159657Y-137669423D01*
X141173095Y-137636507D01*
X141179190Y-137605032D01*
X141188500Y-137574339D01*
X141191986Y-137538941D01*
X141192318Y-137537229D01*
X141195278Y-137505524D01*
X141201726Y-137440056D01*
X141201553Y-137438303D01*
X141229967Y-137133943D01*
X141229968Y-137133937D01*
X141273876Y-136663639D01*
X141273876Y-136663634D01*
X141306076Y-136318718D01*
X141349177Y-135857042D01*
X141352320Y-135823386D01*
X141348835Y-135789747D01*
X141348663Y-135755921D01*
X141341898Y-135722795D01*
X141338415Y-135689172D01*
X141328434Y-135656858D01*
X141321666Y-135623716D01*
X141308569Y-135592547D01*
X141298593Y-135560249D01*
X141282500Y-135530504D01*
X141269396Y-135499318D01*
X141250470Y-135471303D01*
X141234384Y-135441571D01*
X141212795Y-135415536D01*
X141193861Y-135387508D01*
X141169830Y-135363719D01*
X141148256Y-135337702D01*
X141122013Y-135316386D01*
X141097966Y-135292582D01*
X141069753Y-135273938D01*
X141043520Y-135252630D01*
X141013613Y-135236839D01*
X140985392Y-135218189D01*
X140965876Y-135210221D01*
X141031537Y-134372247D01*
X141104128Y-133511217D01*
X141104182Y-133510921D01*
X141106964Y-133477579D01*
X141109756Y-133444458D01*
X141109752Y-133444159D01*
X141164763Y-132784778D01*
X141165395Y-132781107D01*
X141167562Y-132751223D01*
X141170048Y-132721426D01*
X141169992Y-132717708D01*
X141208195Y-132190904D01*
X141208872Y-132186654D01*
X141210630Y-132157328D01*
X141212751Y-132128073D01*
X141212640Y-132123777D01*
X141237491Y-131709116D01*
X141264698Y-131260914D01*
X141309377Y-130654811D01*
X141343489Y-130199603D01*
X141343929Y-130196966D01*
X141345995Y-130166161D01*
X141348317Y-130135182D01*
X141348254Y-130132492D01*
X141382512Y-129621822D01*
X141382987Y-129618805D01*
X141384772Y-129588124D01*
X141386812Y-129557717D01*
X141386717Y-129554675D01*
X141458374Y-128322709D01*
X141458799Y-128319858D01*
X141460332Y-128289043D01*
X141462115Y-128258395D01*
X141462000Y-128255528D01*
X141492133Y-127649972D01*
X141492451Y-127647735D01*
X141493806Y-127616346D01*
X141495365Y-127585016D01*
X141495256Y-127582763D01*
X141520462Y-126998858D01*
X141520847Y-126995976D01*
X141521915Y-126965206D01*
X141523239Y-126934525D01*
X141523079Y-126931629D01*
X141541724Y-126394230D01*
X141542226Y-126390094D01*
X141542890Y-126360632D01*
X141543913Y-126331147D01*
X141543648Y-126326985D01*
X141554066Y-125864752D01*
X141554392Y-125861863D01*
X141554825Y-125831078D01*
X141555517Y-125800389D01*
X141555297Y-125797484D01*
X141587770Y-123486994D01*
X141587770Y-123486991D01*
X141620203Y-121179409D01*
X141620203Y-121179406D01*
X141652636Y-118871827D01*
X141652636Y-118871824D01*
X141684190Y-116626708D01*
X141687977Y-116588259D01*
X141681833Y-116525884D01*
X141676571Y-116463477D01*
X141675227Y-116458813D01*
X141674751Y-116453976D01*
X141656548Y-116393968D01*
X141639220Y-116333816D01*
X141636993Y-116329505D01*
X141635582Y-116324853D01*
X141606022Y-116269550D01*
X141577292Y-116213933D01*
X141574266Y-116210139D01*
X141571975Y-116205852D01*
X141532192Y-116157377D01*
X141493165Y-116108436D01*
X141489457Y-116105305D01*
X141486374Y-116101548D01*
X141437920Y-116061782D01*
X141390075Y-116021378D01*
X141385826Y-116019030D01*
X141382070Y-116015947D01*
X141326775Y-115986391D01*
X141271979Y-115956105D01*
X141267356Y-115954631D01*
X141263069Y-115952340D01*
X141203074Y-115934141D01*
X141143419Y-115915125D01*
X141138595Y-115914581D01*
X141133946Y-115913171D01*
X141071580Y-115907028D01*
X141009335Y-115900013D01*
X140970842Y-115903259D01*
X133261403Y-115903259D01*
X133222904Y-115900014D01*
X133160686Y-115907028D01*
X133098314Y-115913171D01*
X133093656Y-115914584D01*
X133088821Y-115915129D01*
X133029162Y-115934148D01*
X132969191Y-115952340D01*
X132964896Y-115954636D01*
X132960262Y-115956113D01*
X132905492Y-115986388D01*
X132850190Y-116015947D01*
X132846423Y-116019039D01*
X132842169Y-116021390D01*
X132794368Y-116061760D01*
X132745886Y-116101548D01*
X132742795Y-116105315D01*
X132739081Y-116108451D01*
X132700068Y-116157377D01*
X132660285Y-116205852D01*
X132657989Y-116210148D01*
X132654957Y-116213950D01*
X132626228Y-116269569D01*
X132596678Y-116324853D01*
X132595264Y-116329513D01*
X132593032Y-116333835D01*
X132575702Y-116394003D01*
X132557509Y-116453976D01*
X132557032Y-116458821D01*
X132555685Y-116463497D01*
X132550428Y-116525872D01*
X132544283Y-116588259D01*
X132548072Y-116626726D01*
X132579628Y-118867363D01*
X132579629Y-118867370D01*
X132611118Y-121103180D01*
X132611119Y-121103186D01*
X132642606Y-123338993D01*
X132642607Y-123338999D01*
X132673179Y-125509867D01*
X132672999Y-125512197D01*
X132673652Y-125543441D01*
X132674094Y-125574807D01*
X132674357Y-125577139D01*
X132682717Y-125976959D01*
X132682437Y-125981275D01*
X132683421Y-126010629D01*
X132684033Y-126039922D01*
X132684546Y-126044206D01*
X132697929Y-126443648D01*
X132697727Y-126447408D01*
X132699054Y-126477218D01*
X132700056Y-126507127D01*
X132700552Y-126510871D01*
X132718171Y-126906698D01*
X132718028Y-126909917D01*
X132719663Y-126940224D01*
X132721019Y-126970691D01*
X132721479Y-126973895D01*
X132742658Y-127366512D01*
X132742533Y-127370278D01*
X132744469Y-127400079D01*
X132746080Y-127429940D01*
X132746652Y-127433670D01*
X132800775Y-128266717D01*
X132800698Y-128269947D01*
X132802954Y-128300247D01*
X132804928Y-128330637D01*
X132805454Y-128333832D01*
X132865685Y-129142949D01*
X132865664Y-129143938D01*
X132868184Y-129176520D01*
X132870607Y-129209072D01*
X132870777Y-129210045D01*
X132933530Y-130021473D01*
X132992514Y-130828731D01*
X133038963Y-131594703D01*
X133055369Y-131956562D01*
X133065970Y-132293081D01*
X133065618Y-132307719D01*
X133067029Y-132326715D01*
X133067628Y-132345721D01*
X133069518Y-132360218D01*
X133129810Y-133171752D01*
X133129772Y-133173876D01*
X133132310Y-133205397D01*
X133134639Y-133236752D01*
X133135001Y-133238833D01*
X133214855Y-134230765D01*
X133289308Y-135192228D01*
X133290473Y-135209540D01*
X133277032Y-135214845D01*
X133248680Y-135233108D01*
X133218670Y-135248497D01*
X133192099Y-135269556D01*
X133163597Y-135287916D01*
X133139351Y-135311361D01*
X133112922Y-135332308D01*
X133090970Y-135358146D01*
X133066597Y-135381714D01*
X133047393Y-135409435D01*
X133025556Y-135435138D01*
X133009066Y-135464763D01*
X132989760Y-135492632D01*
X132976333Y-135523568D01*
X132959930Y-135553037D01*
X132949536Y-135585310D01*
X132936038Y-135616411D01*
X132928905Y-135649372D01*
X132918566Y-135681474D01*
X132914668Y-135715158D01*
X132907497Y-135748291D01*
X132906931Y-135782003D01*
X132903053Y-135815512D01*
X132905801Y-135849312D01*
X132905800Y-135849398D01*
X132908502Y-135882523D01*
X132913989Y-135950000D01*
X132914013Y-135950085D01*
X132943012Y-136305588D01*
X132971580Y-136655808D01*
X132971580Y-136655811D01*
X133009491Y-137120529D01*
X133035086Y-137434289D01*
X133034517Y-137440061D01*
X133040567Y-137501489D01*
X133042835Y-137529289D01*
X133043863Y-137534954D01*
X133047743Y-137574344D01*
X133055887Y-137601190D01*
X133060896Y-137628786D01*
X133075422Y-137665590D01*
X133086912Y-137703467D01*
X133100139Y-137728213D01*
X133110434Y-137754297D01*
X133131858Y-137787555D01*
X133150519Y-137822468D01*
X133168318Y-137844156D01*
X133183505Y-137867732D01*
X133211010Y-137896175D01*
X133236120Y-137926772D01*
X133257810Y-137944572D01*
X133277303Y-137964731D01*
X133309821Y-137987258D01*
X133340424Y-138012373D01*
X133365170Y-138025600D01*
X133388222Y-138041569D01*
X133424517Y-138057322D01*
X133459425Y-138075980D01*
X133486273Y-138084124D01*
X133512000Y-138095290D01*
X133550670Y-138103659D01*
X133588548Y-138115149D01*
X133616471Y-138117899D01*
X133643880Y-138123831D01*
X133683435Y-138124495D01*
X133689184Y-138125061D01*
X133717176Y-138125061D01*
X133778793Y-138126095D01*
X133784489Y-138125061D01*
X134326632Y-138125061D01*
X134326632Y-140772407D01*
X117905525Y-140772407D01*
X117905525Y-140625631D01*
X117905686Y-140382793D01*
X117909023Y-140348917D01*
X117905709Y-140315270D01*
X117905709Y-139667644D01*
X117926818Y-139657302D01*
X117926820Y-139657301D01*
X118422198Y-139414595D01*
X118857140Y-139201500D01*
X118857145Y-139201497D01*
X119233555Y-139017078D01*
X119235532Y-139016326D01*
X119263766Y-139002277D01*
X119292087Y-138988401D01*
X119293886Y-138987289D01*
X119591223Y-138839332D01*
X119595181Y-138837770D01*
X119621345Y-138824343D01*
X119647662Y-138811248D01*
X119651266Y-138808989D01*
X119932100Y-138664874D01*
X119936259Y-138663169D01*
X119961992Y-138649534D01*
X119987961Y-138636208D01*
X119991748Y-138633768D01*
X120247172Y-138498433D01*
X120251943Y-138496392D01*
X120276882Y-138482691D01*
X120302044Y-138469359D01*
X120306372Y-138466490D01*
X120529907Y-138343684D01*
X120535990Y-138340941D01*
X120559385Y-138327489D01*
X120583036Y-138314496D01*
X120588541Y-138310725D01*
X120774872Y-138203589D01*
X120783779Y-138199259D01*
X120804020Y-138186830D01*
X120824617Y-138174987D01*
X120832679Y-138169232D01*
X120980224Y-138078630D01*
X120996214Y-138069773D01*
X121008865Y-138061043D01*
X121021971Y-138052995D01*
X121036543Y-138041943D01*
X121145574Y-137966704D01*
X121171311Y-137949226D01*
X121173284Y-137947582D01*
X121175385Y-137946132D01*
X121197847Y-137927128D01*
X121213645Y-137917389D01*
X121249487Y-137884080D01*
X121261123Y-137874384D01*
X121274139Y-137861171D01*
X121287720Y-137848550D01*
X121297747Y-137837206D01*
X121327354Y-137807150D01*
X121335343Y-137799665D01*
X121373724Y-137746080D01*
X121412500Y-137692410D01*
X121413092Y-137691117D01*
X121413915Y-137689968D01*
X121441147Y-137629833D01*
X121468665Y-137569721D01*
X121476795Y-137535458D01*
X121482905Y-137517446D01*
X121493186Y-137487165D01*
X121493206Y-137487081D01*
X121493232Y-137487003D01*
X121500566Y-137455519D01*
X121519606Y-137373882D01*
X121523388Y-137361140D01*
X121527243Y-137341134D01*
X121531869Y-137321299D01*
X121533604Y-137308125D01*
X121591842Y-137005900D01*
X121593555Y-136999706D01*
X121598201Y-136972898D01*
X121603357Y-136946144D01*
X121603949Y-136939736D01*
X121685547Y-136468961D01*
X121686363Y-136465902D01*
X121691300Y-136435771D01*
X121696500Y-136405770D01*
X121696732Y-136402621D01*
X121798829Y-135779517D01*
X121799532Y-135776789D01*
X121804262Y-135746357D01*
X121809253Y-135715896D01*
X121809434Y-135713079D01*
X122071005Y-134030146D01*
X122071632Y-134027635D01*
X122076178Y-133996859D01*
X122080943Y-133966203D01*
X122081088Y-133963626D01*
X122381270Y-131931543D01*
X122381541Y-131930442D01*
X122386155Y-131898472D01*
X122390936Y-131866108D01*
X122390992Y-131864961D01*
X122584440Y-130524616D01*
X122584440Y-130524611D01*
X122777726Y-129185390D01*
X122777726Y-129185389D01*
X122971015Y-127846168D01*
X122971015Y-127846161D01*
X123088343Y-127033232D01*
X123204497Y-127013291D01*
X123204502Y-127013290D01*
X123281645Y-127000045D01*
X123281646Y-127000045D01*
X123491446Y-126964026D01*
X123491447Y-126964026D01*
X123634926Y-126939393D01*
X123634931Y-126939392D01*
X123717463Y-126925222D01*
X123756587Y-126921779D01*
X123816137Y-126904389D01*
X123875912Y-126887961D01*
X123880828Y-126885498D01*
X123886110Y-126883955D01*
X123941119Y-126855284D01*
X123996545Y-126827508D01*
X124000887Y-126824132D01*
X124005766Y-126821589D01*
X124054110Y-126782748D01*
X124103067Y-126744682D01*
X124106668Y-126740522D01*
X124110955Y-126737078D01*
X124150806Y-126689537D01*
X124191382Y-126642666D01*
X124194099Y-126637889D01*
X124197636Y-126633670D01*
X124227449Y-126579262D01*
X124258099Y-126525381D01*
X124259834Y-126520161D01*
X124262477Y-126515337D01*
X124281100Y-126456168D01*
X124300652Y-126397333D01*
X124301335Y-126391878D01*
X124302987Y-126386628D01*
X124309706Y-126324986D01*
X124317408Y-126263446D01*
X124314588Y-126224269D01*
X124327398Y-124992764D01*
X124327398Y-124992763D01*
X124340151Y-123766716D01*
X124340151Y-123766715D01*
X124352204Y-122607964D01*
X124352205Y-122607955D01*
X124365656Y-121314619D01*
X124365656Y-121314618D01*
X124378409Y-120088572D01*
X124378409Y-120088571D01*
X124391162Y-118862524D01*
X124391162Y-118862523D01*
X124403915Y-117636474D01*
X124403915Y-117636473D01*
X124416216Y-116453927D01*
X124418473Y-116396389D01*
X124411635Y-116353230D01*
X124407804Y-116309694D01*
X124401100Y-116286736D01*
X124397358Y-116263120D01*
X124382232Y-116222125D01*
X124369980Y-116180170D01*
X124358926Y-116158962D01*
X124350649Y-116136529D01*
X124327815Y-116099272D01*
X124307614Y-116060514D01*
X124292634Y-116041869D01*
X124280140Y-116021483D01*
X124250472Y-115989391D01*
X124223103Y-115955326D01*
X124204781Y-115939967D01*
X124188543Y-115922403D01*
X124153185Y-115896717D01*
X124119695Y-115868644D01*
X124069192Y-115840971D01*
X123836179Y-115704415D01*
X123836173Y-115704412D01*
X123623685Y-115579887D01*
X123623684Y-115579886D01*
X123411197Y-115455360D01*
X123411193Y-115455358D01*
X123232409Y-115350583D01*
X123088382Y-115263074D01*
X122953774Y-115175223D01*
X122823956Y-115084279D01*
X122698851Y-114990246D01*
X122578411Y-114893147D01*
X122462583Y-114792997D01*
X122351276Y-114689764D01*
X122244486Y-114583492D01*
X122142079Y-114474085D01*
X122044074Y-114361593D01*
X121950364Y-114245919D01*
X121860939Y-114127063D01*
X121775747Y-114004959D01*
X121694771Y-113879580D01*
X121617959Y-113750821D01*
X121545321Y-113618666D01*
X121476857Y-113483071D01*
X121412546Y-113343931D01*
X121352423Y-113201246D01*
X121296480Y-113054898D01*
X121244775Y-112904926D01*
X121197332Y-112751269D01*
X121154168Y-112593828D01*
X121115333Y-112432594D01*
X121080895Y-112267633D01*
X121050872Y-112098806D01*
X121025334Y-111926179D01*
X121004321Y-111749710D01*
X120987888Y-111569401D01*
X120976089Y-111385294D01*
X120968972Y-111197344D01*
X120966536Y-111001459D01*
X120966536Y-109926226D01*
X120969850Y-109892579D01*
X120956624Y-109758296D01*
X120917455Y-109629173D01*
X120853848Y-109510172D01*
X120768247Y-109405868D01*
X120663943Y-109320267D01*
X120544942Y-109256660D01*
X120415819Y-109217491D01*
X120315183Y-109207579D01*
X120281536Y-109204265D01*
X120247889Y-109207579D01*
X116489139Y-109207579D01*
X116455492Y-109204265D01*
X116421845Y-109207579D01*
X116321209Y-109217491D01*
X116192086Y-109256660D01*
X116073085Y-109320267D01*
X115968781Y-109405868D01*
X115883180Y-109510172D01*
X115819573Y-109629173D01*
X115780404Y-109758296D01*
X115767178Y-109892579D01*
X115770492Y-109926226D01*
X115770492Y-111498654D01*
X115770371Y-111499932D01*
X115770492Y-111532067D01*
X115770492Y-111564645D01*
X115770620Y-111565940D01*
X115772368Y-112030299D01*
X115771849Y-112037304D01*
X115772495Y-112063957D01*
X115772595Y-112090574D01*
X115773309Y-112097551D01*
X115781959Y-112454555D01*
X115781494Y-112466106D01*
X115782772Y-112488137D01*
X115783308Y-112510242D01*
X115784722Y-112521738D01*
X115791825Y-112644133D01*
X115791780Y-112656706D01*
X115793772Y-112677693D01*
X115794994Y-112698751D01*
X115796950Y-112711177D01*
X115807130Y-112818431D01*
X115807976Y-112836066D01*
X115810310Y-112851925D01*
X115811822Y-112867859D01*
X115815200Y-112885163D01*
X115829904Y-112985091D01*
X115832675Y-113008647D01*
X115834801Y-113018372D01*
X115836248Y-113028203D01*
X115841977Y-113051189D01*
X115863120Y-113147882D01*
X115869253Y-113177358D01*
X115870288Y-113180664D01*
X115871029Y-113184054D01*
X115880320Y-113212718D01*
X115889970Y-113243548D01*
X115890204Y-113245613D01*
X115910107Y-113307885D01*
X115919549Y-113338054D01*
X115920356Y-113339956D01*
X115920989Y-113341935D01*
X115933570Y-113371078D01*
X115946890Y-113402453D01*
X115947723Y-113406086D01*
X115973351Y-113463228D01*
X115984783Y-113489711D01*
X115987123Y-113493937D01*
X115989104Y-113498354D01*
X116003456Y-113523433D01*
X116019630Y-113552642D01*
X116019938Y-113553532D01*
X116023313Y-113559294D01*
X116033769Y-113578177D01*
X116035734Y-113580501D01*
X116052226Y-113608656D01*
X116067286Y-113634973D01*
X116069300Y-113637806D01*
X116071047Y-113640789D01*
X116088800Y-113665239D01*
X116125874Y-113717394D01*
X116128404Y-113719782D01*
X116142872Y-113739707D01*
X116161360Y-113765464D01*
X116162594Y-113766869D01*
X116163692Y-113768381D01*
X116184725Y-113792063D01*
X116239478Y-113854396D01*
X116254890Y-113872956D01*
X116261653Y-113879642D01*
X116267936Y-113886794D01*
X116285568Y-113903281D01*
X116341629Y-113958698D01*
X116355873Y-113973875D01*
X116365549Y-113982343D01*
X116374684Y-113991373D01*
X116390836Y-114004473D01*
X116549958Y-114143729D01*
X116640922Y-114227996D01*
X116730393Y-114324384D01*
X116827564Y-114442301D01*
X116925351Y-114574033D01*
X117018110Y-114712286D01*
X117100864Y-114849675D01*
X117168821Y-114977829D01*
X117217784Y-115087170D01*
X117244657Y-115164308D01*
X117279218Y-115288216D01*
X117318302Y-115454955D01*
X117359799Y-115659043D01*
X117402690Y-115896919D01*
X117446123Y-116164212D01*
X117535307Y-116791767D01*
X117624556Y-117521858D01*
X117713112Y-118346400D01*
X117800008Y-119254982D01*
X117884428Y-120238167D01*
X117965557Y-121286308D01*
X118042610Y-122389922D01*
X118114849Y-123540076D01*
X118181510Y-124727474D01*
X118241819Y-125942422D01*
X118295041Y-127175998D01*
X118340436Y-128419088D01*
X118377289Y-129663500D01*
X118398476Y-130477621D01*
X118398476Y-130477625D01*
X118420569Y-131326524D01*
X118420569Y-131326527D01*
X118442662Y-132175429D01*
X118442662Y-132175431D01*
X118447339Y-132355149D01*
X118184479Y-132355149D01*
X117902302Y-132349348D01*
X117610587Y-132332442D01*
X117304550Y-132304494D01*
X116986814Y-132265833D01*
X116659849Y-132216852D01*
X116326092Y-132157997D01*
X115987817Y-132089726D01*
X115647440Y-132012561D01*
X115307130Y-131926999D01*
X114969227Y-131833602D01*
X114635951Y-131732928D01*
X114309503Y-131625550D01*
X113992238Y-131512122D01*
X113686489Y-131393337D01*
X113394545Y-131269920D01*
X113117278Y-131142010D01*
X112977880Y-131072407D01*
X112834759Y-130996305D01*
X112689297Y-130914419D01*
X112545052Y-130828865D01*
X112243314Y-130636735D01*
X111941723Y-130427773D01*
X111639852Y-130202112D01*
X111340272Y-129961899D01*
X111045485Y-129709316D01*
X110757931Y-129446577D01*
X110479968Y-129175886D01*
X110214041Y-128899609D01*
X109962434Y-128620040D01*
X109727523Y-128339668D01*
X109509299Y-128058060D01*
X109411163Y-127922983D01*
X109316629Y-127786631D01*
X109227991Y-127652156D01*
X109145486Y-127519912D01*
X109069438Y-127390422D01*
X108997424Y-127259283D01*
X108882194Y-127041644D01*
X108731875Y-126757730D01*
X108731871Y-126757724D01*
X108605740Y-126519496D01*
X108590448Y-126490614D01*
X108711034Y-125153010D01*
X108846846Y-123646507D01*
X108846846Y-123646506D01*
X108982657Y-122140001D01*
X109112475Y-120699986D01*
X109112572Y-120699471D01*
X109115493Y-120666506D01*
X109118469Y-120633495D01*
X109118465Y-120632963D01*
X109324325Y-118309483D01*
X109324535Y-118308350D01*
X109327306Y-118275836D01*
X109330163Y-118243592D01*
X109330152Y-118242449D01*
X109499375Y-116256969D01*
X109499683Y-116255258D01*
X109502243Y-116223320D01*
X109504943Y-116191639D01*
X109504920Y-116189914D01*
X109619533Y-114759934D01*
X109620036Y-114756991D01*
X109622219Y-114726417D01*
X109624670Y-114695835D01*
X109624616Y-114692841D01*
X109653991Y-114281403D01*
X109654978Y-114274885D01*
X109656387Y-114247846D01*
X109658314Y-114220857D01*
X109658137Y-114214271D01*
X109668207Y-114021032D01*
X109668913Y-114021022D01*
X110300157Y-114021022D01*
X110333804Y-114024336D01*
X110367451Y-114021022D01*
X110468087Y-114011110D01*
X110597210Y-113971941D01*
X110716211Y-113908334D01*
X110820515Y-113822733D01*
X110906116Y-113718429D01*
X110969723Y-113599428D01*
X111008892Y-113470305D01*
X111022118Y-113336022D01*
X111018804Y-113302375D01*
X111018804Y-109926231D01*
X111022118Y-109892584D01*
X111008892Y-109758301D01*
X110969723Y-109629178D01*
X110906116Y-109510177D01*
X110820515Y-109405873D01*
X110716211Y-109320272D01*
X110597210Y-109256665D01*
X110468087Y-109217496D01*
X110367451Y-109207584D01*
X110333804Y-109204270D01*
X110300157Y-109207584D01*
X107194103Y-109207584D01*
X107194464Y-109023334D01*
X107194464Y-109023333D01*
X107195284Y-108604858D01*
X107195284Y-108604857D01*
X107196035Y-108221720D01*
X107198945Y-107796659D01*
X107205989Y-107386550D01*
X107217252Y-106989507D01*
X107232803Y-106605221D01*
X107252706Y-106233497D01*
X107277023Y-105874014D01*
X107305817Y-105526442D01*
X107339133Y-105190603D01*
X107377031Y-104866082D01*
X107419544Y-104552708D01*
X107466724Y-104250092D01*
X107518607Y-103957944D01*
X107575218Y-103675998D01*
X107636589Y-103403911D01*
X107702783Y-103141221D01*
X107773782Y-102887766D01*
X107849673Y-102643005D01*
X107930473Y-102406631D01*
X108016238Y-102178230D01*
X108107056Y-101957330D01*
X108202974Y-101743570D01*
X108304122Y-101536436D01*
X108410617Y-101335483D01*
X108522587Y-101140270D01*
X108640194Y-100950332D01*
X108763624Y-100765207D01*
X108893074Y-100584453D01*
X109028760Y-100407634D01*
X109170855Y-100234396D01*
X109319649Y-100064267D01*
X109475300Y-99896952D01*
X109638426Y-99731693D01*
X109811105Y-99565909D01*
X109986082Y-99406352D01*
X110163127Y-99253345D01*
X110342522Y-99106729D01*
X110524599Y-98966305D01*
X110709693Y-98831889D01*
X110898143Y-98703307D01*
X111090299Y-98580388D01*
X111286583Y-98462933D01*
X111487299Y-98350829D01*
X111692905Y-98243890D01*
X111903703Y-98142028D01*
X112120163Y-98045084D01*
X112342623Y-97952972D01*
X112571430Y-97865611D01*
X112806976Y-97782911D01*
X113049601Y-97704806D01*
X113299682Y-97631222D01*
X113557497Y-97562118D01*
X113823393Y-97497436D01*
X114097673Y-97437125D01*
X114380612Y-97381143D01*
X114672594Y-97329425D01*
X114973771Y-97281944D01*
X115284463Y-97238641D01*
X115604917Y-97199466D01*
X115935428Y-97164357D01*
X116276269Y-97133255D01*
X116627665Y-97106100D01*
X116989838Y-97082831D01*
X117362998Y-97063381D01*
X117749251Y-97047602D01*
X118504557Y-97020780D01*
X118504559Y-97020780D01*
X119228007Y-96995089D01*
X119228009Y-96995089D01*
X119951455Y-96969398D01*
X119951457Y-96969398D01*
X120635697Y-96945099D01*
X120697475Y-96943922D01*
X120736017Y-96935489D01*
X120775125Y-96930230D01*
X120801774Y-96921102D01*
X120829290Y-96915081D01*
X120865451Y-96899289D01*
X120902777Y-96886503D01*
X120927130Y-96872353D01*
X120952945Y-96861079D01*
X120985326Y-96838538D01*
X121019446Y-96818713D01*
X121040577Y-96800078D01*
X121063689Y-96783989D01*
X121091050Y-96755565D01*
X121120646Y-96729464D01*
X121137732Y-96707069D01*
X121157266Y-96686776D01*
X121178558Y-96653557D01*
X121202491Y-96622188D01*
X121229660Y-96566708D01*
X121312770Y-96403828D01*
X121388509Y-96255397D01*
X121388514Y-96255390D01*
X121410870Y-96211576D01*
X121419093Y-96195461D01*
X121419095Y-96195456D01*
X121492110Y-96052358D01*
X121580635Y-95878868D01*
X121722019Y-95602084D01*
X121845990Y-95359944D01*
X121939315Y-95178255D01*
X121983035Y-95093868D01*
X122010227Y-95045627D01*
X122024536Y-95002000D01*
X122041561Y-94959357D01*
X122041919Y-94957430D01*
X123542926Y-95297658D01*
X123560736Y-95300385D01*
X124500536Y-95376585D01*
X124505513Y-95376890D01*
X125724713Y-95427690D01*
X125732189Y-95427781D01*
X127205389Y-95402381D01*
X127221161Y-95401124D01*
X128821361Y-95172524D01*
X128835028Y-95169799D01*
X130613028Y-94712599D01*
X130629115Y-94707296D01*
X131568915Y-94326296D01*
X131572780Y-94324654D01*
X133172980Y-93613454D01*
X133184935Y-93607365D01*
X134327935Y-92946965D01*
X134333076Y-92943830D01*
X135044276Y-92486630D01*
X135056903Y-92477364D01*
X135818903Y-91842364D01*
X135831063Y-91830786D01*
X136415263Y-91195786D01*
X136417917Y-91192810D01*
X136900517Y-90634010D01*
X136913302Y-90616341D01*
X136989502Y-90489341D01*
X136994192Y-90480796D01*
X137044992Y-90379196D01*
X137055986Y-90347046D01*
X137058400Y-90322267D01*
X137055934Y-90297493D01*
X137030534Y-90170493D01*
X137026917Y-90156567D01*
X137017018Y-90133723D01*
X136890018Y-89905123D01*
X136880600Y-89890600D01*
X136728200Y-89687400D01*
X136723026Y-89680949D01*
X136571560Y-89504239D01*
X136343893Y-89225979D01*
X136341177Y-89222770D01*
X135985577Y-88816370D01*
X135974959Y-88805602D01*
X135723449Y-88579243D01*
X135548003Y-88403797D01*
X135534400Y-88392000D01*
X135338424Y-88245018D01*
X135217803Y-88124397D01*
X135199715Y-88109386D01*
X134717115Y-87779186D01*
X134702196Y-87770408D01*
X134092596Y-87465608D01*
X134084646Y-87461969D01*
X133475046Y-87207969D01*
X133460191Y-87202833D01*
X133002991Y-87075833D01*
X132993907Y-87073666D01*
X132485907Y-86972066D01*
X132474295Y-86970298D01*
X131991695Y-86919498D01*
X131978400Y-86918800D01*
X131964078Y-86918800D01*
X131966305Y-86917312D01*
X132180112Y-86703505D01*
X132348099Y-86452095D01*
X132463811Y-86172743D01*
X132522800Y-85876184D01*
X132522800Y-85573816D01*
X132463811Y-85277257D01*
X132348099Y-84997905D01*
X132180112Y-84746495D01*
X131966305Y-84532688D01*
X131714895Y-84364701D01*
X131435543Y-84248989D01*
X131138984Y-84190000D01*
X130836616Y-84190000D01*
X130540057Y-84248989D01*
X130260705Y-84364701D01*
X130009295Y-84532688D01*
X129942856Y-84599127D01*
X129937302Y-84580820D01*
X129878337Y-84470506D01*
X129798985Y-84373815D01*
X129702294Y-84294463D01*
X129591980Y-84235498D01*
X129472282Y-84199188D01*
X129347800Y-84186928D01*
X128733550Y-84190000D01*
X128574800Y-84348750D01*
X128574800Y-85598000D01*
X128594800Y-85598000D01*
X128594800Y-85852000D01*
X128574800Y-85852000D01*
X128574800Y-87101250D01*
X128733550Y-87260000D01*
X129347800Y-87263072D01*
X129430082Y-87254968D01*
X129252009Y-87304433D01*
X129242599Y-87307446D01*
X128683799Y-87510646D01*
X128672710Y-87515284D01*
X127656710Y-87997884D01*
X127643186Y-88005347D01*
X125560386Y-89326147D01*
X125555422Y-89329462D01*
X124361622Y-90167662D01*
X124358400Y-90170000D01*
X123984717Y-90450262D01*
X123984163Y-90448962D01*
X123983103Y-90439783D01*
X123968273Y-90393701D01*
X123964573Y-90379551D01*
X123957961Y-90361657D01*
X123952125Y-90343522D01*
X123947423Y-90332689D01*
X123945658Y-90325321D01*
X123939968Y-90312961D01*
X123929524Y-90284697D01*
X123919500Y-90268358D01*
X123910181Y-90246889D01*
X123906518Y-90240304D01*
X123903369Y-90233465D01*
X123896363Y-90221497D01*
X123892894Y-90212328D01*
X123875046Y-90183735D01*
X123861019Y-90158521D01*
X123856115Y-90152746D01*
X123850233Y-90142699D01*
X123844509Y-90134812D01*
X123839348Y-90126544D01*
X123830564Y-90115136D01*
X123826071Y-90106665D01*
X123807937Y-90084422D01*
X123790836Y-90060859D01*
X123783645Y-90054205D01*
X123774733Y-90042631D01*
X123768200Y-90035679D01*
X123762174Y-90028288D01*
X123752683Y-90018735D01*
X123748730Y-90013030D01*
X123728853Y-89993813D01*
X123705480Y-89968942D01*
X123697672Y-89963367D01*
X123686316Y-89951937D01*
X123680994Y-89947540D01*
X123676030Y-89942741D01*
X123666670Y-89935320D01*
X123664903Y-89933272D01*
X123643687Y-89916720D01*
X123608356Y-89887532D01*
X123602243Y-89884239D01*
X123589561Y-89874184D01*
X123587294Y-89872724D01*
X123585174Y-89871070D01*
X123558984Y-89854491D01*
X123504545Y-89819429D01*
X123502670Y-89818689D01*
X123492743Y-89812313D01*
X123490731Y-89811284D01*
X123488826Y-89810078D01*
X123479527Y-89805399D01*
X123490837Y-89680994D01*
X123540688Y-89282188D01*
X123615734Y-88931972D01*
X123616621Y-88927433D01*
X123692390Y-88498076D01*
X123818149Y-87919586D01*
X123969585Y-87364319D01*
X124095097Y-86912477D01*
X124201569Y-86625000D01*
X126909728Y-86625000D01*
X126921988Y-86749482D01*
X126958298Y-86869180D01*
X127017263Y-86979494D01*
X127096615Y-87076185D01*
X127193306Y-87155537D01*
X127303620Y-87214502D01*
X127423318Y-87250812D01*
X127547800Y-87263072D01*
X128162050Y-87260000D01*
X128320800Y-87101250D01*
X128320800Y-85852000D01*
X127071550Y-85852000D01*
X126912800Y-86010750D01*
X126909728Y-86625000D01*
X124201569Y-86625000D01*
X124347247Y-86231671D01*
X124348023Y-86229517D01*
X124522239Y-85731756D01*
X124770971Y-85284039D01*
X124775143Y-85275843D01*
X124984463Y-84825000D01*
X126909728Y-84825000D01*
X126912800Y-85439250D01*
X127071550Y-85598000D01*
X128320800Y-85598000D01*
X128320800Y-84348750D01*
X128162050Y-84190000D01*
X127547800Y-84186928D01*
X127423318Y-84199188D01*
X127303620Y-84235498D01*
X127193306Y-84294463D01*
X127096615Y-84373815D01*
X127017263Y-84470506D01*
X126958298Y-84580820D01*
X126921988Y-84700518D01*
X126909728Y-84825000D01*
X124984463Y-84825000D01*
X125104006Y-84567524D01*
X125356538Y-84087712D01*
X125357745Y-84085358D01*
X125611745Y-83577358D01*
X125617507Y-83563963D01*
X125719107Y-83284563D01*
X125724313Y-83265938D01*
X125726753Y-83241162D01*
X125726753Y-83190362D01*
X125721698Y-83154888D01*
X125712434Y-83131779D01*
X125698840Y-83110922D01*
X125681438Y-83093117D01*
X125660897Y-83079050D01*
X125638007Y-83069260D01*
X125613646Y-83064124D01*
X125588751Y-83063839D01*
X125004551Y-83114639D01*
X124995746Y-83115716D01*
X124030546Y-83268116D01*
X124027480Y-83268639D01*
X122224080Y-83598839D01*
X122223289Y-83598986D01*
X120750089Y-83878386D01*
X120745669Y-83879306D01*
X116376869Y-84869906D01*
X116372985Y-84870851D01*
X110708785Y-86344051D01*
X110702004Y-86346018D01*
X106472484Y-87701107D01*
X106450861Y-87696542D01*
X106174132Y-87633315D01*
X105937580Y-87573858D01*
X105745918Y-87519596D01*
X105606835Y-87473617D01*
X105521103Y-87438476D01*
X105441691Y-87397969D01*
X105342745Y-87340973D01*
X105232761Y-87271265D01*
X105113563Y-87189602D01*
X104986583Y-87096752D01*
X104852975Y-86993455D01*
X104713767Y-86880463D01*
X104572080Y-86760393D01*
X104270386Y-86489778D01*
X103961056Y-86193511D01*
X103646547Y-85874342D01*
X103618464Y-85844282D01*
X105042862Y-85337829D01*
X109684659Y-83968118D01*
X115063375Y-82674181D01*
X121431961Y-81456285D01*
X127621215Y-80669945D01*
X133886455Y-80314830D01*
X139846977Y-80365558D01*
X139846977Y-80365558D01*
G37*
X139846977Y-80365558D02*
X146112004Y-80847483D01*
X152276842Y-81760793D01*
X157832843Y-82851697D01*
X163617863Y-84348698D01*
X169226167Y-86048953D01*
X169947341Y-86301364D01*
X169812917Y-86435617D01*
X169698608Y-86542357D01*
X169582865Y-86645310D01*
X169468597Y-86741793D01*
X169355998Y-86831677D01*
X169245396Y-86914755D01*
X169136981Y-86990953D01*
X169031087Y-87060132D01*
X168928003Y-87122222D01*
X168828022Y-87177197D01*
X168735192Y-87223214D01*
X168600396Y-87280576D01*
X168425188Y-87344288D01*
X168208705Y-87413704D01*
X167954886Y-87487045D01*
X167760530Y-87538453D01*
X167724322Y-87528667D01*
X166277089Y-87122426D01*
X166273568Y-87121492D01*
X163937537Y-86537484D01*
X162388788Y-86131255D01*
X162386139Y-86130591D01*
X160582739Y-85698791D01*
X160581957Y-85698606D01*
X157635557Y-85012806D01*
X157631006Y-85011835D01*
X153973406Y-84300635D01*
X153972381Y-84300440D01*
X148917781Y-83360640D01*
X148903569Y-83358820D01*
X148878682Y-83359497D01*
X148854405Y-83365017D01*
X148831672Y-83375167D01*
X148811355Y-83389557D01*
X148794237Y-83407634D01*
X148780974Y-83428704D01*
X148755574Y-83479504D01*
X148744606Y-83511524D01*
X148742166Y-83536300D01*
X148742166Y-83714100D01*
X148746276Y-83746148D01*
X148754890Y-83769507D01*
X149567539Y-85445595D01*
X149893592Y-86122783D01*
X150396892Y-87758506D01*
X150623832Y-88893207D01*
X150724891Y-89499560D01*
X150780030Y-89874505D01*
X150769988Y-89878582D01*
X150753569Y-89887210D01*
X150736797Y-89895099D01*
X150723796Y-89902854D01*
X150680471Y-89925620D01*
X150670284Y-89933860D01*
X150645707Y-89945589D01*
X150593110Y-89984881D01*
X150540455Y-90023761D01*
X150516413Y-90050176D01*
X150512521Y-90053728D01*
X150476304Y-90082940D01*
X150441227Y-90124950D01*
X150404593Y-90165653D01*
X150380801Y-90205662D01*
X150376041Y-90212658D01*
X150349452Y-90246265D01*
X150322835Y-90298280D01*
X150294851Y-90349583D01*
X150284133Y-90383867D01*
X150273616Y-90403358D01*
X150261469Y-90442837D01*
X150258725Y-90449813D01*
X150251582Y-90474972D01*
X150248054Y-90486440D01*
X149961600Y-90271600D01*
X149958378Y-90269262D01*
X148764578Y-89431062D01*
X148759614Y-89427747D01*
X146676814Y-88106947D01*
X146663290Y-88099484D01*
X145647290Y-87616884D01*
X145636201Y-87612246D01*
X145077401Y-87409046D01*
X145067991Y-87406033D01*
X144610791Y-87279033D01*
X144606216Y-87277854D01*
X144444929Y-87239452D01*
X144527180Y-87214502D01*
X144637494Y-87155537D01*
X144734185Y-87076185D01*
X144813537Y-86979494D01*
X144872502Y-86869180D01*
X144878056Y-86850873D01*
X144944495Y-86917312D01*
X145195905Y-87085299D01*
X145475257Y-87201011D01*
X145771816Y-87260000D01*
X146074184Y-87260000D01*
X146370743Y-87201011D01*
X146650095Y-87085299D01*
X146901505Y-86917312D01*
X147115312Y-86703505D01*
X147283299Y-86452095D01*
X147399011Y-86172743D01*
X147458000Y-85876184D01*
X147458000Y-85573816D01*
X147399011Y-85277257D01*
X147283299Y-84997905D01*
X147115312Y-84746495D01*
X146901505Y-84532688D01*
X146650095Y-84364701D01*
X146370743Y-84248989D01*
X146074184Y-84190000D01*
X145771816Y-84190000D01*
X145475257Y-84248989D01*
X145195905Y-84364701D01*
X144944495Y-84532688D01*
X144878056Y-84599127D01*
X144872502Y-84580820D01*
X144813537Y-84470506D01*
X144734185Y-84373815D01*
X144637494Y-84294463D01*
X144527180Y-84235498D01*
X144407482Y-84199188D01*
X144283000Y-84186928D01*
X142483000Y-84186928D01*
X142358518Y-84199188D01*
X142238820Y-84235498D01*
X142128506Y-84294463D01*
X142031815Y-84373815D01*
X141952463Y-84470506D01*
X141893498Y-84580820D01*
X141857188Y-84700518D01*
X141844928Y-84825000D01*
X141844928Y-86625000D01*
X141857188Y-86749482D01*
X141893498Y-86869180D01*
X141952463Y-86979494D01*
X142013777Y-87054206D01*
X141845705Y-87071898D01*
X141834093Y-87073666D01*
X141326093Y-87175266D01*
X141317009Y-87177433D01*
X140859809Y-87304433D01*
X140844954Y-87309569D01*
X140235354Y-87563569D01*
X140227404Y-87567208D01*
X139617804Y-87872008D01*
X139602885Y-87880786D01*
X139120285Y-88210986D01*
X139102197Y-88225997D01*
X138981576Y-88346618D01*
X138785600Y-88493600D01*
X138771997Y-88505397D01*
X138596551Y-88680843D01*
X138345041Y-88907202D01*
X138334423Y-88917970D01*
X137978823Y-89324370D01*
X137976107Y-89327579D01*
X137748440Y-89605839D01*
X137596974Y-89782549D01*
X137591800Y-89789000D01*
X137439400Y-89992200D01*
X137429982Y-90006723D01*
X137302982Y-90235323D01*
X137296718Y-90248276D01*
X137289466Y-90272093D01*
X137264066Y-90399093D01*
X137261920Y-90433003D01*
X137266110Y-90457544D01*
X137275008Y-90480796D01*
X137325808Y-90582396D01*
X137330498Y-90590941D01*
X137406698Y-90717941D01*
X137419483Y-90735610D01*
X137902083Y-91294410D01*
X137904737Y-91297386D01*
X138488937Y-91932386D01*
X138501097Y-91943964D01*
X139263097Y-92578964D01*
X139275724Y-92588230D01*
X139986924Y-93045430D01*
X139992065Y-93048565D01*
X141135065Y-93708965D01*
X141147020Y-93715054D01*
X142747220Y-94426254D01*
X142751085Y-94427896D01*
X143690885Y-94808896D01*
X143706972Y-94814199D01*
X145484972Y-95271399D01*
X145498639Y-95274124D01*
X147098839Y-95502724D01*
X147114611Y-95503981D01*
X148587811Y-95529381D01*
X148595287Y-95529290D01*
X149814487Y-95478490D01*
X149819464Y-95478185D01*
X150759264Y-95401985D01*
X150777074Y-95399258D01*
X152249598Y-95065486D01*
X152258679Y-95087218D01*
X152260074Y-95089292D01*
X152305430Y-95195662D01*
X152311527Y-95212064D01*
X152318619Y-95226594D01*
X152324957Y-95241458D01*
X152333362Y-95256799D01*
X152442786Y-95480982D01*
X152446699Y-95490606D01*
X152457523Y-95511176D01*
X152467737Y-95532102D01*
X152473196Y-95540960D01*
X152612458Y-95805615D01*
X152614208Y-95809761D01*
X152628143Y-95835422D01*
X152641705Y-95861195D01*
X152644174Y-95864943D01*
X152727196Y-96017825D01*
X152829930Y-96207011D01*
X152829933Y-96207018D01*
X152848775Y-96241713D01*
X152862040Y-96266142D01*
X152862043Y-96266147D01*
X152960607Y-96447645D01*
X153060239Y-96631119D01*
X153090360Y-96687831D01*
X153113747Y-96716482D01*
X153134498Y-96747098D01*
X153156309Y-96768623D01*
X153175686Y-96792361D01*
X153204215Y-96815900D01*
X153230538Y-96841878D01*
X153256125Y-96858731D01*
X153279764Y-96878236D01*
X153312340Y-96895758D01*
X153343224Y-96916101D01*
X153371610Y-96927640D01*
X153398597Y-96942156D01*
X153433963Y-96952986D01*
X153468224Y-96966913D01*
X153498315Y-96972692D01*
X153527616Y-96981665D01*
X153564413Y-96985387D01*
X153600734Y-96992363D01*
X153664967Y-96991939D01*
X154197688Y-96993343D01*
X154197694Y-96993342D01*
X154632560Y-96994489D01*
X154632564Y-96994489D01*
X155202026Y-96995988D01*
X155202032Y-96995987D01*
X155667822Y-96997215D01*
X156125265Y-97002028D01*
X156569589Y-97013912D01*
X157003582Y-97032895D01*
X157427258Y-97058970D01*
X157840625Y-97092124D01*
X158243707Y-97132344D01*
X158636574Y-97179614D01*
X159019285Y-97233916D01*
X159391851Y-97295226D01*
X159754399Y-97363529D01*
X160106910Y-97438785D01*
X160449466Y-97520965D01*
X160782119Y-97610035D01*
X161105043Y-97705987D01*
X161418204Y-97808755D01*
X161721786Y-97918335D01*
X162015818Y-98034674D01*
X162300442Y-98157752D01*
X162575822Y-98287570D01*
X162842048Y-98424091D01*
X163099275Y-98567320D01*
X163347650Y-98717261D01*
X163587378Y-98873959D01*
X163818538Y-99037393D01*
X164041380Y-99207667D01*
X164256041Y-99384823D01*
X164462668Y-99568925D01*
X164661430Y-99760066D01*
X164852513Y-99958390D01*
X165035995Y-100163945D01*
X165212062Y-100376914D01*
X165381185Y-100597899D01*
X165590201Y-100892025D01*
X165780783Y-101183014D01*
X165865653Y-101322209D01*
X165947638Y-101463989D01*
X166025168Y-101605944D01*
X166098475Y-101748643D01*
X166167777Y-101892658D01*
X166233289Y-102038586D01*
X166295248Y-102187120D01*
X166353823Y-102338845D01*
X166409188Y-102494396D01*
X166461485Y-102654380D01*
X166510869Y-102819487D01*
X166557424Y-102990203D01*
X166601268Y-103167185D01*
X166642478Y-103350948D01*
X166681135Y-103542016D01*
X166716790Y-103738018D01*
X166782539Y-104164564D01*
X166838750Y-104624764D01*
X166886577Y-105125466D01*
X166926725Y-105670106D01*
X166959969Y-106262138D01*
X166987189Y-106906299D01*
X167014290Y-107649516D01*
X167040828Y-108377297D01*
X167040828Y-108377304D01*
X167068294Y-109130557D01*
X167071099Y-109207473D01*
X163931995Y-109207473D01*
X163898348Y-109204159D01*
X163864701Y-109207473D01*
X163764065Y-109217385D01*
X163634942Y-109256554D01*
X163515941Y-109320161D01*
X163411637Y-109405762D01*
X163326036Y-109510066D01*
X163262429Y-109629067D01*
X163223260Y-109758190D01*
X163210034Y-109892473D01*
X163213348Y-109926120D01*
X163213348Y-113302264D01*
X163210034Y-113335911D01*
X163213348Y-113369557D01*
X163213348Y-113369558D01*
X163214488Y-113381133D01*
X163223260Y-113470194D01*
X163262429Y-113599317D01*
X163326036Y-113718318D01*
X163411637Y-113822622D01*
X163515941Y-113908223D01*
X163634942Y-113971830D01*
X163764065Y-114010999D01*
X163864701Y-114020911D01*
X163898348Y-114024225D01*
X163931995Y-114020911D01*
X164560262Y-114020911D01*
X164567485Y-114021073D01*
X164593321Y-114429158D01*
X164593234Y-114432695D01*
X164595445Y-114462698D01*
X164597349Y-114492778D01*
X164597919Y-114496277D01*
X164702633Y-115917490D01*
X164702596Y-115919421D01*
X164705109Y-115951093D01*
X164707436Y-115982682D01*
X164707765Y-115984579D01*
X164858868Y-117889310D01*
X164858850Y-117890423D01*
X164861524Y-117922801D01*
X164864101Y-117955281D01*
X164864298Y-117956380D01*
X165040884Y-120094282D01*
X165040872Y-120095233D01*
X165043662Y-120127910D01*
X165046346Y-120160405D01*
X165046516Y-120161335D01*
X165227552Y-122281682D01*
X165227541Y-122282835D01*
X165230417Y-122315241D01*
X165233179Y-122347586D01*
X165233389Y-122348717D01*
X165397784Y-124200847D01*
X165397777Y-124202944D01*
X165400762Y-124234394D01*
X165403549Y-124265792D01*
X165403937Y-124267848D01*
X165530566Y-125601959D01*
X165530603Y-125606198D01*
X165533746Y-125635462D01*
X165536524Y-125664734D01*
X165537335Y-125668890D01*
X165577292Y-126040964D01*
X165577781Y-126052485D01*
X165580883Y-126074404D01*
X165583246Y-126096407D01*
X165585594Y-126107693D01*
X165607029Y-126259144D01*
X165607565Y-126267243D01*
X165611737Y-126292414D01*
X165615319Y-126317720D01*
X165615924Y-126320207D01*
X165615208Y-126331055D01*
X165609867Y-126366973D01*
X165598566Y-126418931D01*
X165580557Y-126484210D01*
X165555607Y-126560662D01*
X165525576Y-126641672D01*
X165439445Y-126842702D01*
X165330851Y-127062576D01*
X165199546Y-127301143D01*
X165047917Y-127553349D01*
X164878325Y-127814796D01*
X164693109Y-128081440D01*
X164494600Y-128349471D01*
X164285089Y-128615263D01*
X164066996Y-128875149D01*
X163842698Y-129125640D01*
X163614837Y-129363080D01*
X163384366Y-129585634D01*
X163220383Y-129732969D01*
X163047654Y-129879148D01*
X162867717Y-130022854D01*
X162680958Y-130163832D01*
X162487671Y-130301911D01*
X162288167Y-130436914D01*
X162082856Y-130568609D01*
X161872031Y-130696847D01*
X161656039Y-130821458D01*
X161435157Y-130942310D01*
X161209901Y-131059148D01*
X160980418Y-131171922D01*
X160747210Y-131280400D01*
X160510564Y-131384466D01*
X160270777Y-131483997D01*
X160028224Y-131578839D01*
X159783351Y-131668815D01*
X159536400Y-131753836D01*
X159287768Y-131833753D01*
X159037768Y-131908450D01*
X158786781Y-131977792D01*
X158535157Y-132041660D01*
X158283299Y-132099922D01*
X158031455Y-132152490D01*
X157780094Y-132199227D01*
X157529504Y-132240041D01*
X157280062Y-132274823D01*
X157032189Y-132303469D01*
X156786169Y-132325894D01*
X156542432Y-132342006D01*
X156301252Y-132351727D01*
X156058380Y-132355045D01*
X155783444Y-132355045D01*
X155783444Y-129965897D01*
X155787153Y-129317605D01*
X155797757Y-128645015D01*
X155814552Y-127966472D01*
X155836761Y-127302306D01*
X155863618Y-126672806D01*
X155894277Y-126098821D01*
X155927804Y-125602133D01*
X155963810Y-125195909D01*
X156048162Y-124297101D01*
X156048841Y-124293387D01*
X156051300Y-124263673D01*
X156054096Y-124233876D01*
X156054079Y-124230087D01*
X156151305Y-123055016D01*
X156151721Y-123052648D01*
X156154078Y-123021503D01*
X156156656Y-122990350D01*
X156156618Y-122987944D01*
X156256391Y-121669768D01*
X156256776Y-121667483D01*
X156258932Y-121636190D01*
X156261295Y-121604975D01*
X156261243Y-121602663D01*
X156350820Y-120302715D01*
X156350942Y-120301980D01*
X156353141Y-120269034D01*
X156355395Y-120236319D01*
X156355373Y-120235579D01*
X156408825Y-119434636D01*
X156462366Y-118689161D01*
X156515079Y-118025360D01*
X156568118Y-117437878D01*
X156622556Y-116921637D01*
X156679346Y-116471705D01*
X156739259Y-116083286D01*
X156803623Y-115747295D01*
X156836006Y-115604681D01*
X156870122Y-115470859D01*
X156905170Y-115348523D01*
X156941090Y-115236986D01*
X156977899Y-115135251D01*
X157015623Y-115042326D01*
X157054383Y-114957032D01*
X157094403Y-114878115D01*
X157136051Y-114804212D01*
X157179829Y-114733954D01*
X157226333Y-114666044D01*
X157276260Y-114599238D01*
X157330360Y-114532388D01*
X157386283Y-114468031D01*
X157529415Y-114317318D01*
X157731762Y-114114493D01*
X157731765Y-114114490D01*
X157873548Y-113972374D01*
X157889347Y-113956537D01*
X157916295Y-113929526D01*
X157916302Y-113929518D01*
X158053300Y-113792192D01*
X158053303Y-113792190D01*
X158237559Y-113607499D01*
X158263375Y-113586312D01*
X158285077Y-113559869D01*
X158285368Y-113559577D01*
X158306520Y-113533740D01*
X158348977Y-113482008D01*
X158349172Y-113481644D01*
X158349427Y-113481332D01*
X158380770Y-113422527D01*
X158412584Y-113363007D01*
X158412703Y-113362616D01*
X158412894Y-113362257D01*
X158432299Y-113298014D01*
X158451753Y-113233884D01*
X158451793Y-113233479D01*
X158451911Y-113233088D01*
X158458362Y-113166783D01*
X158461665Y-113133248D01*
X158461665Y-113132831D01*
X158464977Y-113098789D01*
X158461665Y-113065561D01*
X158461665Y-109926122D01*
X158464979Y-109892475D01*
X158451753Y-109758192D01*
X158412584Y-109629069D01*
X158348977Y-109510068D01*
X158263376Y-109405764D01*
X158159072Y-109320163D01*
X158040071Y-109256556D01*
X157910948Y-109217387D01*
X157810312Y-109207475D01*
X157776665Y-109204161D01*
X157743018Y-109207475D01*
X153984267Y-109207475D01*
X153950620Y-109204161D01*
X153916973Y-109207475D01*
X153816337Y-109217387D01*
X153687214Y-109256556D01*
X153568213Y-109320163D01*
X153463909Y-109405764D01*
X153378308Y-109510068D01*
X153314701Y-109629069D01*
X153275532Y-109758192D01*
X153262306Y-109892475D01*
X153265620Y-109926122D01*
X153265620Y-111000685D01*
X153262811Y-111195231D01*
X153254652Y-111382787D01*
X153241163Y-111568072D01*
X153222420Y-111751047D01*
X153198521Y-111931478D01*
X153169542Y-112109314D01*
X153135583Y-112284363D01*
X153096720Y-112456559D01*
X153053065Y-112625681D01*
X153004700Y-112791652D01*
X152951698Y-112954407D01*
X152894197Y-113113680D01*
X152832254Y-113269461D01*
X152765978Y-113421592D01*
X152695473Y-113569940D01*
X152620819Y-113714422D01*
X152542136Y-113854879D01*
X152459502Y-113991237D01*
X152373028Y-114123365D01*
X152282799Y-114251177D01*
X152188917Y-114374560D01*
X152091461Y-114493438D01*
X151990520Y-114607717D01*
X151886170Y-114717316D01*
X151778535Y-114822111D01*
X151667628Y-114922080D01*
X151553564Y-115017108D01*
X151436350Y-115107164D01*
X151316111Y-115192119D01*
X151192799Y-115271970D01*
X151066555Y-115346580D01*
X150930998Y-115419320D01*
X150780326Y-115496188D01*
X150780325Y-115496188D01*
X150768470Y-115502236D01*
X150729213Y-115522264D01*
X150581637Y-115597553D01*
X150406395Y-115686952D01*
X150406388Y-115686955D01*
X150240470Y-115771601D01*
X150230758Y-115774657D01*
X150180474Y-115802208D01*
X150159476Y-115812921D01*
X150150947Y-115818387D01*
X150112423Y-115839495D01*
X150094275Y-115854707D01*
X150074337Y-115867484D01*
X150042683Y-115897950D01*
X150009012Y-115926172D01*
X149994180Y-115944631D01*
X149977117Y-115961054D01*
X149952015Y-115997110D01*
X149924497Y-116031358D01*
X149913551Y-116052358D01*
X149900020Y-116071793D01*
X149882435Y-116112053D01*
X149862127Y-116151012D01*
X149855488Y-116173744D01*
X149846009Y-116195445D01*
X149836614Y-116238367D01*
X149824299Y-116280534D01*
X149822223Y-116304117D01*
X149817158Y-116327257D01*
X149816318Y-116371194D01*
X149815431Y-116381267D01*
X149815675Y-116404803D01*
X149814578Y-116462165D01*
X149816374Y-116472190D01*
X149828881Y-117678684D01*
X149828882Y-117678690D01*
X149841634Y-118908809D01*
X149841635Y-118908815D01*
X149854387Y-120138936D01*
X149854388Y-120138942D01*
X149867140Y-121369061D01*
X149867141Y-121369067D01*
X149879893Y-122599185D01*
X149879894Y-122599191D01*
X149892646Y-123829313D01*
X149892647Y-123829319D01*
X149905399Y-125059437D01*
X149905400Y-125059443D01*
X149917770Y-126252708D01*
X149917816Y-126316773D01*
X149925084Y-126353178D01*
X149929107Y-126390090D01*
X149938264Y-126419187D01*
X149944235Y-126449094D01*
X149958465Y-126483379D01*
X149969612Y-126518800D01*
X149984270Y-126545552D01*
X149995961Y-126573720D01*
X150016610Y-126604575D01*
X150034450Y-126637135D01*
X150054043Y-126660511D01*
X150071006Y-126685858D01*
X150097278Y-126712092D01*
X150121127Y-126740546D01*
X150144902Y-126759649D01*
X150166486Y-126781202D01*
X150197370Y-126801806D01*
X150226313Y-126825061D01*
X150253364Y-126839161D01*
X150278733Y-126856086D01*
X150313041Y-126870268D01*
X150345967Y-126887431D01*
X150375243Y-126895981D01*
X150403432Y-126907634D01*
X150439856Y-126914852D01*
X150475489Y-126925259D01*
X150539305Y-126930877D01*
X150716273Y-126948179D01*
X150795971Y-126955972D01*
X150795973Y-126955972D01*
X150817115Y-126958039D01*
X150862943Y-126962520D01*
X150862947Y-126962520D01*
X151009618Y-126976860D01*
X151009621Y-126976860D01*
X151149626Y-126990548D01*
X151175018Y-126993031D01*
X151274483Y-127681258D01*
X151274483Y-127681264D01*
X151455577Y-128934303D01*
X151455577Y-128934306D01*
X151636671Y-130187346D01*
X151636671Y-130187353D01*
X151817813Y-131440717D01*
X151817828Y-131441046D01*
X151822663Y-131474280D01*
X151827392Y-131506998D01*
X151827470Y-131507313D01*
X152107295Y-133430550D01*
X152107329Y-133431254D01*
X152112105Y-133463610D01*
X152116881Y-133496435D01*
X152117053Y-133497129D01*
X152359878Y-135142179D01*
X152359933Y-135143243D01*
X152364800Y-135175523D01*
X152369550Y-135207702D01*
X152369807Y-135208732D01*
X152548690Y-136395141D01*
X152548883Y-136398317D01*
X152553704Y-136428394D01*
X152558248Y-136458534D01*
X152559029Y-136461621D01*
X152649393Y-137025428D01*
X152652128Y-137047225D01*
X152654716Y-137058640D01*
X152656567Y-137070186D01*
X152662149Y-137091415D01*
X152677479Y-137159021D01*
X152683508Y-137187386D01*
X152684915Y-137191814D01*
X152685940Y-137196335D01*
X152695077Y-137223801D01*
X152698695Y-137235187D01*
X152698830Y-137236362D01*
X152719049Y-137299253D01*
X152728949Y-137330414D01*
X152729417Y-137331504D01*
X152729780Y-137332632D01*
X152742767Y-137362575D01*
X152750897Y-137381498D01*
X152751799Y-137385425D01*
X152777623Y-137442940D01*
X152789285Y-137469827D01*
X152791420Y-137473667D01*
X152793220Y-137477676D01*
X152807792Y-137503115D01*
X152821118Y-137527084D01*
X152821917Y-137529368D01*
X152830173Y-137543370D01*
X152838423Y-137558209D01*
X152840059Y-137560136D01*
X152853998Y-137583777D01*
X152868585Y-137609242D01*
X152871082Y-137612752D01*
X152873278Y-137616476D01*
X152890643Y-137640245D01*
X152927207Y-137691639D01*
X152929942Y-137694218D01*
X152946340Y-137716486D01*
X152965605Y-137742857D01*
X152966482Y-137743839D01*
X152967254Y-137744887D01*
X152988900Y-137768934D01*
X153032974Y-137818271D01*
X153034021Y-137819059D01*
X153052313Y-137839380D01*
X153072267Y-137862005D01*
X153074816Y-137864379D01*
X153077142Y-137866963D01*
X153099377Y-137887254D01*
X153169063Y-137952155D01*
X153186781Y-137969531D01*
X153193677Y-137975079D01*
X153200141Y-137981099D01*
X153219845Y-137996131D01*
X153296093Y-138057472D01*
X153310961Y-138070461D01*
X153322287Y-138078545D01*
X153333129Y-138087267D01*
X153349650Y-138098075D01*
X153434201Y-138158420D01*
X153446205Y-138167995D01*
X153461557Y-138177946D01*
X153476461Y-138188583D01*
X153489783Y-138196241D01*
X153585140Y-138258048D01*
X153594577Y-138265059D01*
X153613352Y-138276334D01*
X153631735Y-138288249D01*
X153642182Y-138293647D01*
X153751125Y-138359069D01*
X153758388Y-138364179D01*
X153779935Y-138376370D01*
X153801189Y-138389134D01*
X153809224Y-138392942D01*
X153936721Y-138465082D01*
X153944394Y-138470177D01*
X153965971Y-138481631D01*
X153987260Y-138493677D01*
X153995693Y-138497410D01*
X154361574Y-138691643D01*
X154367596Y-138695464D01*
X154391231Y-138707387D01*
X154414689Y-138719840D01*
X154421307Y-138722559D01*
X154884175Y-138956059D01*
X154885968Y-138957181D01*
X154914204Y-138971208D01*
X154942366Y-138985414D01*
X154944340Y-138986177D01*
X155393870Y-139209483D01*
X155393875Y-139209485D01*
X155781239Y-139401906D01*
X156228874Y-139624270D01*
X156228877Y-139624272D01*
X156326389Y-139672711D01*
X156326389Y-140772402D01*
X139905282Y-140772402D01*
X139905282Y-138125056D01*
X140447708Y-138125056D01*
X140449433Y-138125390D01*
X140515032Y-138125056D01*
X140547059Y-138125056D01*
X140548805Y-138124884D01*
X140584363Y-138124703D01*
X140615778Y-138118288D01*
X140647695Y-138115144D01*
X140681732Y-138104819D01*
X140716568Y-138097705D01*
X140746125Y-138085286D01*
X140776818Y-138075975D01*
X140808185Y-138059209D01*
X140840966Y-138045435D01*
X140867533Y-138027487D01*
X140895819Y-138012368D01*
X140923315Y-137989802D01*
X140952775Y-137969900D01*
X140975331Y-137947113D01*
X141000123Y-137926767D01*
X141022684Y-137899277D01*
X141047701Y-137874004D01*
X141065378Y-137847254D01*
X141085724Y-137822463D01*
X141102492Y-137791092D01*
X141122093Y-137761431D01*
X141134210Y-137731751D01*
X141149331Y-137703462D01*
X141159657Y-137669423D01*
X141173095Y-137636507D01*
X141179190Y-137605032D01*
X141188500Y-137574339D01*
X141191986Y-137538941D01*
X141192318Y-137537229D01*
X141195278Y-137505524D01*
X141201726Y-137440056D01*
X141201553Y-137438303D01*
X141229967Y-137133943D01*
X141229968Y-137133937D01*
X141273876Y-136663639D01*
X141273876Y-136663634D01*
X141306076Y-136318718D01*
X141349177Y-135857042D01*
X141352320Y-135823386D01*
X141348835Y-135789747D01*
X141348663Y-135755921D01*
X141341898Y-135722795D01*
X141338415Y-135689172D01*
X141328434Y-135656858D01*
X141321666Y-135623716D01*
X141308569Y-135592547D01*
X141298593Y-135560249D01*
X141282500Y-135530504D01*
X141269396Y-135499318D01*
X141250470Y-135471303D01*
X141234384Y-135441571D01*
X141212795Y-135415536D01*
X141193861Y-135387508D01*
X141169830Y-135363719D01*
X141148256Y-135337702D01*
X141122013Y-135316386D01*
X141097966Y-135292582D01*
X141069753Y-135273938D01*
X141043520Y-135252630D01*
X141013613Y-135236839D01*
X140985392Y-135218189D01*
X140965876Y-135210221D01*
X141031537Y-134372247D01*
X141104128Y-133511217D01*
X141104182Y-133510921D01*
X141106964Y-133477579D01*
X141109756Y-133444458D01*
X141109752Y-133444159D01*
X141164763Y-132784778D01*
X141165395Y-132781107D01*
X141167562Y-132751223D01*
X141170048Y-132721426D01*
X141169992Y-132717708D01*
X141208195Y-132190904D01*
X141208872Y-132186654D01*
X141210630Y-132157328D01*
X141212751Y-132128073D01*
X141212640Y-132123777D01*
X141237491Y-131709116D01*
X141264698Y-131260914D01*
X141309377Y-130654811D01*
X141343489Y-130199603D01*
X141343929Y-130196966D01*
X141345995Y-130166161D01*
X141348317Y-130135182D01*
X141348254Y-130132492D01*
X141382512Y-129621822D01*
X141382987Y-129618805D01*
X141384772Y-129588124D01*
X141386812Y-129557717D01*
X141386717Y-129554675D01*
X141458374Y-128322709D01*
X141458799Y-128319858D01*
X141460332Y-128289043D01*
X141462115Y-128258395D01*
X141462000Y-128255528D01*
X141492133Y-127649972D01*
X141492451Y-127647735D01*
X141493806Y-127616346D01*
X141495365Y-127585016D01*
X141495256Y-127582763D01*
X141520462Y-126998858D01*
X141520847Y-126995976D01*
X141521915Y-126965206D01*
X141523239Y-126934525D01*
X141523079Y-126931629D01*
X141541724Y-126394230D01*
X141542226Y-126390094D01*
X141542890Y-126360632D01*
X141543913Y-126331147D01*
X141543648Y-126326985D01*
X141554066Y-125864752D01*
X141554392Y-125861863D01*
X141554825Y-125831078D01*
X141555517Y-125800389D01*
X141555297Y-125797484D01*
X141587770Y-123486994D01*
X141587770Y-123486991D01*
X141620203Y-121179409D01*
X141620203Y-121179406D01*
X141652636Y-118871827D01*
X141652636Y-118871824D01*
X141684190Y-116626708D01*
X141687977Y-116588259D01*
X141681833Y-116525884D01*
X141676571Y-116463477D01*
X141675227Y-116458813D01*
X141674751Y-116453976D01*
X141656548Y-116393968D01*
X141639220Y-116333816D01*
X141636993Y-116329505D01*
X141635582Y-116324853D01*
X141606022Y-116269550D01*
X141577292Y-116213933D01*
X141574266Y-116210139D01*
X141571975Y-116205852D01*
X141532192Y-116157377D01*
X141493165Y-116108436D01*
X141489457Y-116105305D01*
X141486374Y-116101548D01*
X141437920Y-116061782D01*
X141390075Y-116021378D01*
X141385826Y-116019030D01*
X141382070Y-116015947D01*
X141326775Y-115986391D01*
X141271979Y-115956105D01*
X141267356Y-115954631D01*
X141263069Y-115952340D01*
X141203074Y-115934141D01*
X141143419Y-115915125D01*
X141138595Y-115914581D01*
X141133946Y-115913171D01*
X141071580Y-115907028D01*
X141009335Y-115900013D01*
X140970842Y-115903259D01*
X133261403Y-115903259D01*
X133222904Y-115900014D01*
X133160686Y-115907028D01*
X133098314Y-115913171D01*
X133093656Y-115914584D01*
X133088821Y-115915129D01*
X133029162Y-115934148D01*
X132969191Y-115952340D01*
X132964896Y-115954636D01*
X132960262Y-115956113D01*
X132905492Y-115986388D01*
X132850190Y-116015947D01*
X132846423Y-116019039D01*
X132842169Y-116021390D01*
X132794368Y-116061760D01*
X132745886Y-116101548D01*
X132742795Y-116105315D01*
X132739081Y-116108451D01*
X132700068Y-116157377D01*
X132660285Y-116205852D01*
X132657989Y-116210148D01*
X132654957Y-116213950D01*
X132626228Y-116269569D01*
X132596678Y-116324853D01*
X132595264Y-116329513D01*
X132593032Y-116333835D01*
X132575702Y-116394003D01*
X132557509Y-116453976D01*
X132557032Y-116458821D01*
X132555685Y-116463497D01*
X132550428Y-116525872D01*
X132544283Y-116588259D01*
X132548072Y-116626726D01*
X132579628Y-118867363D01*
X132579629Y-118867370D01*
X132611118Y-121103180D01*
X132611119Y-121103186D01*
X132642606Y-123338993D01*
X132642607Y-123338999D01*
X132673179Y-125509867D01*
X132672999Y-125512197D01*
X132673652Y-125543441D01*
X132674094Y-125574807D01*
X132674357Y-125577139D01*
X132682717Y-125976959D01*
X132682437Y-125981275D01*
X132683421Y-126010629D01*
X132684033Y-126039922D01*
X132684546Y-126044206D01*
X132697929Y-126443648D01*
X132697727Y-126447408D01*
X132699054Y-126477218D01*
X132700056Y-126507127D01*
X132700552Y-126510871D01*
X132718171Y-126906698D01*
X132718028Y-126909917D01*
X132719663Y-126940224D01*
X132721019Y-126970691D01*
X132721479Y-126973895D01*
X132742658Y-127366512D01*
X132742533Y-127370278D01*
X132744469Y-127400079D01*
X132746080Y-127429940D01*
X132746652Y-127433670D01*
X132800775Y-128266717D01*
X132800698Y-128269947D01*
X132802954Y-128300247D01*
X132804928Y-128330637D01*
X132805454Y-128333832D01*
X132865685Y-129142949D01*
X132865664Y-129143938D01*
X132868184Y-129176520D01*
X132870607Y-129209072D01*
X132870777Y-129210045D01*
X132933530Y-130021473D01*
X132992514Y-130828731D01*
X133038963Y-131594703D01*
X133055369Y-131956562D01*
X133065970Y-132293081D01*
X133065618Y-132307719D01*
X133067029Y-132326715D01*
X133067628Y-132345721D01*
X133069518Y-132360218D01*
X133129810Y-133171752D01*
X133129772Y-133173876D01*
X133132310Y-133205397D01*
X133134639Y-133236752D01*
X133135001Y-133238833D01*
X133214855Y-134230765D01*
X133289308Y-135192228D01*
X133290473Y-135209540D01*
X133277032Y-135214845D01*
X133248680Y-135233108D01*
X133218670Y-135248497D01*
X133192099Y-135269556D01*
X133163597Y-135287916D01*
X133139351Y-135311361D01*
X133112922Y-135332308D01*
X133090970Y-135358146D01*
X133066597Y-135381714D01*
X133047393Y-135409435D01*
X133025556Y-135435138D01*
X133009066Y-135464763D01*
X132989760Y-135492632D01*
X132976333Y-135523568D01*
X132959930Y-135553037D01*
X132949536Y-135585310D01*
X132936038Y-135616411D01*
X132928905Y-135649372D01*
X132918566Y-135681474D01*
X132914668Y-135715158D01*
X132907497Y-135748291D01*
X132906931Y-135782003D01*
X132903053Y-135815512D01*
X132905801Y-135849312D01*
X132905800Y-135849398D01*
X132908502Y-135882523D01*
X132913989Y-135950000D01*
X132914013Y-135950085D01*
X132943012Y-136305588D01*
X132971580Y-136655808D01*
X132971580Y-136655811D01*
X133009491Y-137120529D01*
X133035086Y-137434289D01*
X133034517Y-137440061D01*
X133040567Y-137501489D01*
X133042835Y-137529289D01*
X133043863Y-137534954D01*
X133047743Y-137574344D01*
X133055887Y-137601190D01*
X133060896Y-137628786D01*
X133075422Y-137665590D01*
X133086912Y-137703467D01*
X133100139Y-137728213D01*
X133110434Y-137754297D01*
X133131858Y-137787555D01*
X133150519Y-137822468D01*
X133168318Y-137844156D01*
X133183505Y-137867732D01*
X133211010Y-137896175D01*
X133236120Y-137926772D01*
X133257810Y-137944572D01*
X133277303Y-137964731D01*
X133309821Y-137987258D01*
X133340424Y-138012373D01*
X133365170Y-138025600D01*
X133388222Y-138041569D01*
X133424517Y-138057322D01*
X133459425Y-138075980D01*
X133486273Y-138084124D01*
X133512000Y-138095290D01*
X133550670Y-138103659D01*
X133588548Y-138115149D01*
X133616471Y-138117899D01*
X133643880Y-138123831D01*
X133683435Y-138124495D01*
X133689184Y-138125061D01*
X133717176Y-138125061D01*
X133778793Y-138126095D01*
X133784489Y-138125061D01*
X134326632Y-138125061D01*
X134326632Y-140772407D01*
X117905525Y-140772407D01*
X117905525Y-140625631D01*
X117905686Y-140382793D01*
X117909023Y-140348917D01*
X117905709Y-140315270D01*
X117905709Y-139667644D01*
X117926818Y-139657302D01*
X117926820Y-139657301D01*
X118422198Y-139414595D01*
X118857140Y-139201500D01*
X118857145Y-139201497D01*
X119233555Y-139017078D01*
X119235532Y-139016326D01*
X119263766Y-139002277D01*
X119292087Y-138988401D01*
X119293886Y-138987289D01*
X119591223Y-138839332D01*
X119595181Y-138837770D01*
X119621345Y-138824343D01*
X119647662Y-138811248D01*
X119651266Y-138808989D01*
X119932100Y-138664874D01*
X119936259Y-138663169D01*
X119961992Y-138649534D01*
X119987961Y-138636208D01*
X119991748Y-138633768D01*
X120247172Y-138498433D01*
X120251943Y-138496392D01*
X120276882Y-138482691D01*
X120302044Y-138469359D01*
X120306372Y-138466490D01*
X120529907Y-138343684D01*
X120535990Y-138340941D01*
X120559385Y-138327489D01*
X120583036Y-138314496D01*
X120588541Y-138310725D01*
X120774872Y-138203589D01*
X120783779Y-138199259D01*
X120804020Y-138186830D01*
X120824617Y-138174987D01*
X120832679Y-138169232D01*
X120980224Y-138078630D01*
X120996214Y-138069773D01*
X121008865Y-138061043D01*
X121021971Y-138052995D01*
X121036543Y-138041943D01*
X121145574Y-137966704D01*
X121171311Y-137949226D01*
X121173284Y-137947582D01*
X121175385Y-137946132D01*
X121197847Y-137927128D01*
X121213645Y-137917389D01*
X121249487Y-137884080D01*
X121261123Y-137874384D01*
X121274139Y-137861171D01*
X121287720Y-137848550D01*
X121297747Y-137837206D01*
X121327354Y-137807150D01*
X121335343Y-137799665D01*
X121373724Y-137746080D01*
X121412500Y-137692410D01*
X121413092Y-137691117D01*
X121413915Y-137689968D01*
X121441147Y-137629833D01*
X121468665Y-137569721D01*
X121476795Y-137535458D01*
X121482905Y-137517446D01*
X121493186Y-137487165D01*
X121493206Y-137487081D01*
X121493232Y-137487003D01*
X121500566Y-137455519D01*
X121519606Y-137373882D01*
X121523388Y-137361140D01*
X121527243Y-137341134D01*
X121531869Y-137321299D01*
X121533604Y-137308125D01*
X121591842Y-137005900D01*
X121593555Y-136999706D01*
X121598201Y-136972898D01*
X121603357Y-136946144D01*
X121603949Y-136939736D01*
X121685547Y-136468961D01*
X121686363Y-136465902D01*
X121691300Y-136435771D01*
X121696500Y-136405770D01*
X121696732Y-136402621D01*
X121798829Y-135779517D01*
X121799532Y-135776789D01*
X121804262Y-135746357D01*
X121809253Y-135715896D01*
X121809434Y-135713079D01*
X122071005Y-134030146D01*
X122071632Y-134027635D01*
X122076178Y-133996859D01*
X122080943Y-133966203D01*
X122081088Y-133963626D01*
X122381270Y-131931543D01*
X122381541Y-131930442D01*
X122386155Y-131898472D01*
X122390936Y-131866108D01*
X122390992Y-131864961D01*
X122584440Y-130524616D01*
X122584440Y-130524611D01*
X122777726Y-129185390D01*
X122777726Y-129185389D01*
X122971015Y-127846168D01*
X122971015Y-127846161D01*
X123088343Y-127033232D01*
X123204497Y-127013291D01*
X123204502Y-127013290D01*
X123281645Y-127000045D01*
X123281646Y-127000045D01*
X123491446Y-126964026D01*
X123491447Y-126964026D01*
X123634926Y-126939393D01*
X123634931Y-126939392D01*
X123717463Y-126925222D01*
X123756587Y-126921779D01*
X123816137Y-126904389D01*
X123875912Y-126887961D01*
X123880828Y-126885498D01*
X123886110Y-126883955D01*
X123941119Y-126855284D01*
X123996545Y-126827508D01*
X124000887Y-126824132D01*
X124005766Y-126821589D01*
X124054110Y-126782748D01*
X124103067Y-126744682D01*
X124106668Y-126740522D01*
X124110955Y-126737078D01*
X124150806Y-126689537D01*
X124191382Y-126642666D01*
X124194099Y-126637889D01*
X124197636Y-126633670D01*
X124227449Y-126579262D01*
X124258099Y-126525381D01*
X124259834Y-126520161D01*
X124262477Y-126515337D01*
X124281100Y-126456168D01*
X124300652Y-126397333D01*
X124301335Y-126391878D01*
X124302987Y-126386628D01*
X124309706Y-126324986D01*
X124317408Y-126263446D01*
X124314588Y-126224269D01*
X124327398Y-124992764D01*
X124327398Y-124992763D01*
X124340151Y-123766716D01*
X124340151Y-123766715D01*
X124352204Y-122607964D01*
X124352205Y-122607955D01*
X124365656Y-121314619D01*
X124365656Y-121314618D01*
X124378409Y-120088572D01*
X124378409Y-120088571D01*
X124391162Y-118862524D01*
X124391162Y-118862523D01*
X124403915Y-117636474D01*
X124403915Y-117636473D01*
X124416216Y-116453927D01*
X124418473Y-116396389D01*
X124411635Y-116353230D01*
X124407804Y-116309694D01*
X124401100Y-116286736D01*
X124397358Y-116263120D01*
X124382232Y-116222125D01*
X124369980Y-116180170D01*
X124358926Y-116158962D01*
X124350649Y-116136529D01*
X124327815Y-116099272D01*
X124307614Y-116060514D01*
X124292634Y-116041869D01*
X124280140Y-116021483D01*
X124250472Y-115989391D01*
X124223103Y-115955326D01*
X124204781Y-115939967D01*
X124188543Y-115922403D01*
X124153185Y-115896717D01*
X124119695Y-115868644D01*
X124069192Y-115840971D01*
X123836179Y-115704415D01*
X123836173Y-115704412D01*
X123623685Y-115579887D01*
X123623684Y-115579886D01*
X123411197Y-115455360D01*
X123411193Y-115455358D01*
X123232409Y-115350583D01*
X123088382Y-115263074D01*
X122953774Y-115175223D01*
X122823956Y-115084279D01*
X122698851Y-114990246D01*
X122578411Y-114893147D01*
X122462583Y-114792997D01*
X122351276Y-114689764D01*
X122244486Y-114583492D01*
X122142079Y-114474085D01*
X122044074Y-114361593D01*
X121950364Y-114245919D01*
X121860939Y-114127063D01*
X121775747Y-114004959D01*
X121694771Y-113879580D01*
X121617959Y-113750821D01*
X121545321Y-113618666D01*
X121476857Y-113483071D01*
X121412546Y-113343931D01*
X121352423Y-113201246D01*
X121296480Y-113054898D01*
X121244775Y-112904926D01*
X121197332Y-112751269D01*
X121154168Y-112593828D01*
X121115333Y-112432594D01*
X121080895Y-112267633D01*
X121050872Y-112098806D01*
X121025334Y-111926179D01*
X121004321Y-111749710D01*
X120987888Y-111569401D01*
X120976089Y-111385294D01*
X120968972Y-111197344D01*
X120966536Y-111001459D01*
X120966536Y-109926226D01*
X120969850Y-109892579D01*
X120956624Y-109758296D01*
X120917455Y-109629173D01*
X120853848Y-109510172D01*
X120768247Y-109405868D01*
X120663943Y-109320267D01*
X120544942Y-109256660D01*
X120415819Y-109217491D01*
X120315183Y-109207579D01*
X120281536Y-109204265D01*
X120247889Y-109207579D01*
X116489139Y-109207579D01*
X116455492Y-109204265D01*
X116421845Y-109207579D01*
X116321209Y-109217491D01*
X116192086Y-109256660D01*
X116073085Y-109320267D01*
X115968781Y-109405868D01*
X115883180Y-109510172D01*
X115819573Y-109629173D01*
X115780404Y-109758296D01*
X115767178Y-109892579D01*
X115770492Y-109926226D01*
X115770492Y-111498654D01*
X115770371Y-111499932D01*
X115770492Y-111532067D01*
X115770492Y-111564645D01*
X115770620Y-111565940D01*
X115772368Y-112030299D01*
X115771849Y-112037304D01*
X115772495Y-112063957D01*
X115772595Y-112090574D01*
X115773309Y-112097551D01*
X115781959Y-112454555D01*
X115781494Y-112466106D01*
X115782772Y-112488137D01*
X115783308Y-112510242D01*
X115784722Y-112521738D01*
X115791825Y-112644133D01*
X115791780Y-112656706D01*
X115793772Y-112677693D01*
X115794994Y-112698751D01*
X115796950Y-112711177D01*
X115807130Y-112818431D01*
X115807976Y-112836066D01*
X115810310Y-112851925D01*
X115811822Y-112867859D01*
X115815200Y-112885163D01*
X115829904Y-112985091D01*
X115832675Y-113008647D01*
X115834801Y-113018372D01*
X115836248Y-113028203D01*
X115841977Y-113051189D01*
X115863120Y-113147882D01*
X115869253Y-113177358D01*
X115870288Y-113180664D01*
X115871029Y-113184054D01*
X115880320Y-113212718D01*
X115889970Y-113243548D01*
X115890204Y-113245613D01*
X115910107Y-113307885D01*
X115919549Y-113338054D01*
X115920356Y-113339956D01*
X115920989Y-113341935D01*
X115933570Y-113371078D01*
X115946890Y-113402453D01*
X115947723Y-113406086D01*
X115973351Y-113463228D01*
X115984783Y-113489711D01*
X115987123Y-113493937D01*
X115989104Y-113498354D01*
X116003456Y-113523433D01*
X116019630Y-113552642D01*
X116019938Y-113553532D01*
X116023313Y-113559294D01*
X116033769Y-113578177D01*
X116035734Y-113580501D01*
X116052226Y-113608656D01*
X116067286Y-113634973D01*
X116069300Y-113637806D01*
X116071047Y-113640789D01*
X116088800Y-113665239D01*
X116125874Y-113717394D01*
X116128404Y-113719782D01*
X116142872Y-113739707D01*
X116161360Y-113765464D01*
X116162594Y-113766869D01*
X116163692Y-113768381D01*
X116184725Y-113792063D01*
X116239478Y-113854396D01*
X116254890Y-113872956D01*
X116261653Y-113879642D01*
X116267936Y-113886794D01*
X116285568Y-113903281D01*
X116341629Y-113958698D01*
X116355873Y-113973875D01*
X116365549Y-113982343D01*
X116374684Y-113991373D01*
X116390836Y-114004473D01*
X116549958Y-114143729D01*
X116640922Y-114227996D01*
X116730393Y-114324384D01*
X116827564Y-114442301D01*
X116925351Y-114574033D01*
X117018110Y-114712286D01*
X117100864Y-114849675D01*
X117168821Y-114977829D01*
X117217784Y-115087170D01*
X117244657Y-115164308D01*
X117279218Y-115288216D01*
X117318302Y-115454955D01*
X117359799Y-115659043D01*
X117402690Y-115896919D01*
X117446123Y-116164212D01*
X117535307Y-116791767D01*
X117624556Y-117521858D01*
X117713112Y-118346400D01*
X117800008Y-119254982D01*
X117884428Y-120238167D01*
X117965557Y-121286308D01*
X118042610Y-122389922D01*
X118114849Y-123540076D01*
X118181510Y-124727474D01*
X118241819Y-125942422D01*
X118295041Y-127175998D01*
X118340436Y-128419088D01*
X118377289Y-129663500D01*
X118398476Y-130477621D01*
X118398476Y-130477625D01*
X118420569Y-131326524D01*
X118420569Y-131326527D01*
X118442662Y-132175429D01*
X118442662Y-132175431D01*
X118447339Y-132355149D01*
X118184479Y-132355149D01*
X117902302Y-132349348D01*
X117610587Y-132332442D01*
X117304550Y-132304494D01*
X116986814Y-132265833D01*
X116659849Y-132216852D01*
X116326092Y-132157997D01*
X115987817Y-132089726D01*
X115647440Y-132012561D01*
X115307130Y-131926999D01*
X114969227Y-131833602D01*
X114635951Y-131732928D01*
X114309503Y-131625550D01*
X113992238Y-131512122D01*
X113686489Y-131393337D01*
X113394545Y-131269920D01*
X113117278Y-131142010D01*
X112977880Y-131072407D01*
X112834759Y-130996305D01*
X112689297Y-130914419D01*
X112545052Y-130828865D01*
X112243314Y-130636735D01*
X111941723Y-130427773D01*
X111639852Y-130202112D01*
X111340272Y-129961899D01*
X111045485Y-129709316D01*
X110757931Y-129446577D01*
X110479968Y-129175886D01*
X110214041Y-128899609D01*
X109962434Y-128620040D01*
X109727523Y-128339668D01*
X109509299Y-128058060D01*
X109411163Y-127922983D01*
X109316629Y-127786631D01*
X109227991Y-127652156D01*
X109145486Y-127519912D01*
X109069438Y-127390422D01*
X108997424Y-127259283D01*
X108882194Y-127041644D01*
X108731875Y-126757730D01*
X108731871Y-126757724D01*
X108605740Y-126519496D01*
X108590448Y-126490614D01*
X108711034Y-125153010D01*
X108846846Y-123646507D01*
X108846846Y-123646506D01*
X108982657Y-122140001D01*
X109112475Y-120699986D01*
X109112572Y-120699471D01*
X109115493Y-120666506D01*
X109118469Y-120633495D01*
X109118465Y-120632963D01*
X109324325Y-118309483D01*
X109324535Y-118308350D01*
X109327306Y-118275836D01*
X109330163Y-118243592D01*
X109330152Y-118242449D01*
X109499375Y-116256969D01*
X109499683Y-116255258D01*
X109502243Y-116223320D01*
X109504943Y-116191639D01*
X109504920Y-116189914D01*
X109619533Y-114759934D01*
X109620036Y-114756991D01*
X109622219Y-114726417D01*
X109624670Y-114695835D01*
X109624616Y-114692841D01*
X109653991Y-114281403D01*
X109654978Y-114274885D01*
X109656387Y-114247846D01*
X109658314Y-114220857D01*
X109658137Y-114214271D01*
X109668207Y-114021032D01*
X109668913Y-114021022D01*
X110300157Y-114021022D01*
X110333804Y-114024336D01*
X110367451Y-114021022D01*
X110468087Y-114011110D01*
X110597210Y-113971941D01*
X110716211Y-113908334D01*
X110820515Y-113822733D01*
X110906116Y-113718429D01*
X110969723Y-113599428D01*
X111008892Y-113470305D01*
X111022118Y-113336022D01*
X111018804Y-113302375D01*
X111018804Y-109926231D01*
X111022118Y-109892584D01*
X111008892Y-109758301D01*
X110969723Y-109629178D01*
X110906116Y-109510177D01*
X110820515Y-109405873D01*
X110716211Y-109320272D01*
X110597210Y-109256665D01*
X110468087Y-109217496D01*
X110367451Y-109207584D01*
X110333804Y-109204270D01*
X110300157Y-109207584D01*
X107194103Y-109207584D01*
X107194464Y-109023334D01*
X107194464Y-109023333D01*
X107195284Y-108604858D01*
X107195284Y-108604857D01*
X107196035Y-108221720D01*
X107198945Y-107796659D01*
X107205989Y-107386550D01*
X107217252Y-106989507D01*
X107232803Y-106605221D01*
X107252706Y-106233497D01*
X107277023Y-105874014D01*
X107305817Y-105526442D01*
X107339133Y-105190603D01*
X107377031Y-104866082D01*
X107419544Y-104552708D01*
X107466724Y-104250092D01*
X107518607Y-103957944D01*
X107575218Y-103675998D01*
X107636589Y-103403911D01*
X107702783Y-103141221D01*
X107773782Y-102887766D01*
X107849673Y-102643005D01*
X107930473Y-102406631D01*
X108016238Y-102178230D01*
X108107056Y-101957330D01*
X108202974Y-101743570D01*
X108304122Y-101536436D01*
X108410617Y-101335483D01*
X108522587Y-101140270D01*
X108640194Y-100950332D01*
X108763624Y-100765207D01*
X108893074Y-100584453D01*
X109028760Y-100407634D01*
X109170855Y-100234396D01*
X109319649Y-100064267D01*
X109475300Y-99896952D01*
X109638426Y-99731693D01*
X109811105Y-99565909D01*
X109986082Y-99406352D01*
X110163127Y-99253345D01*
X110342522Y-99106729D01*
X110524599Y-98966305D01*
X110709693Y-98831889D01*
X110898143Y-98703307D01*
X111090299Y-98580388D01*
X111286583Y-98462933D01*
X111487299Y-98350829D01*
X111692905Y-98243890D01*
X111903703Y-98142028D01*
X112120163Y-98045084D01*
X112342623Y-97952972D01*
X112571430Y-97865611D01*
X112806976Y-97782911D01*
X113049601Y-97704806D01*
X113299682Y-97631222D01*
X113557497Y-97562118D01*
X113823393Y-97497436D01*
X114097673Y-97437125D01*
X114380612Y-97381143D01*
X114672594Y-97329425D01*
X114973771Y-97281944D01*
X115284463Y-97238641D01*
X115604917Y-97199466D01*
X115935428Y-97164357D01*
X116276269Y-97133255D01*
X116627665Y-97106100D01*
X116989838Y-97082831D01*
X117362998Y-97063381D01*
X117749251Y-97047602D01*
X118504557Y-97020780D01*
X118504559Y-97020780D01*
X119228007Y-96995089D01*
X119228009Y-96995089D01*
X119951455Y-96969398D01*
X119951457Y-96969398D01*
X120635697Y-96945099D01*
X120697475Y-96943922D01*
X120736017Y-96935489D01*
X120775125Y-96930230D01*
X120801774Y-96921102D01*
X120829290Y-96915081D01*
X120865451Y-96899289D01*
X120902777Y-96886503D01*
X120927130Y-96872353D01*
X120952945Y-96861079D01*
X120985326Y-96838538D01*
X121019446Y-96818713D01*
X121040577Y-96800078D01*
X121063689Y-96783989D01*
X121091050Y-96755565D01*
X121120646Y-96729464D01*
X121137732Y-96707069D01*
X121157266Y-96686776D01*
X121178558Y-96653557D01*
X121202491Y-96622188D01*
X121229660Y-96566708D01*
X121312770Y-96403828D01*
X121388509Y-96255397D01*
X121388514Y-96255390D01*
X121410870Y-96211576D01*
X121419093Y-96195461D01*
X121419095Y-96195456D01*
X121492110Y-96052358D01*
X121580635Y-95878868D01*
X121722019Y-95602084D01*
X121845990Y-95359944D01*
X121939315Y-95178255D01*
X121983035Y-95093868D01*
X122010227Y-95045627D01*
X122024536Y-95002000D01*
X122041561Y-94959357D01*
X122041919Y-94957430D01*
X123542926Y-95297658D01*
X123560736Y-95300385D01*
X124500536Y-95376585D01*
X124505513Y-95376890D01*
X125724713Y-95427690D01*
X125732189Y-95427781D01*
X127205389Y-95402381D01*
X127221161Y-95401124D01*
X128821361Y-95172524D01*
X128835028Y-95169799D01*
X130613028Y-94712599D01*
X130629115Y-94707296D01*
X131568915Y-94326296D01*
X131572780Y-94324654D01*
X133172980Y-93613454D01*
X133184935Y-93607365D01*
X134327935Y-92946965D01*
X134333076Y-92943830D01*
X135044276Y-92486630D01*
X135056903Y-92477364D01*
X135818903Y-91842364D01*
X135831063Y-91830786D01*
X136415263Y-91195786D01*
X136417917Y-91192810D01*
X136900517Y-90634010D01*
X136913302Y-90616341D01*
X136989502Y-90489341D01*
X136994192Y-90480796D01*
X137044992Y-90379196D01*
X137055986Y-90347046D01*
X137058400Y-90322267D01*
X137055934Y-90297493D01*
X137030534Y-90170493D01*
X137026917Y-90156567D01*
X137017018Y-90133723D01*
X136890018Y-89905123D01*
X136880600Y-89890600D01*
X136728200Y-89687400D01*
X136723026Y-89680949D01*
X136571560Y-89504239D01*
X136343893Y-89225979D01*
X136341177Y-89222770D01*
X135985577Y-88816370D01*
X135974959Y-88805602D01*
X135723449Y-88579243D01*
X135548003Y-88403797D01*
X135534400Y-88392000D01*
X135338424Y-88245018D01*
X135217803Y-88124397D01*
X135199715Y-88109386D01*
X134717115Y-87779186D01*
X134702196Y-87770408D01*
X134092596Y-87465608D01*
X134084646Y-87461969D01*
X133475046Y-87207969D01*
X133460191Y-87202833D01*
X133002991Y-87075833D01*
X132993907Y-87073666D01*
X132485907Y-86972066D01*
X132474295Y-86970298D01*
X131991695Y-86919498D01*
X131978400Y-86918800D01*
X131964078Y-86918800D01*
X131966305Y-86917312D01*
X132180112Y-86703505D01*
X132348099Y-86452095D01*
X132463811Y-86172743D01*
X132522800Y-85876184D01*
X132522800Y-85573816D01*
X132463811Y-85277257D01*
X132348099Y-84997905D01*
X132180112Y-84746495D01*
X131966305Y-84532688D01*
X131714895Y-84364701D01*
X131435543Y-84248989D01*
X131138984Y-84190000D01*
X130836616Y-84190000D01*
X130540057Y-84248989D01*
X130260705Y-84364701D01*
X130009295Y-84532688D01*
X129942856Y-84599127D01*
X129937302Y-84580820D01*
X129878337Y-84470506D01*
X129798985Y-84373815D01*
X129702294Y-84294463D01*
X129591980Y-84235498D01*
X129472282Y-84199188D01*
X129347800Y-84186928D01*
X128733550Y-84190000D01*
X128574800Y-84348750D01*
X128574800Y-85598000D01*
X128594800Y-85598000D01*
X128594800Y-85852000D01*
X128574800Y-85852000D01*
X128574800Y-87101250D01*
X128733550Y-87260000D01*
X129347800Y-87263072D01*
X129430082Y-87254968D01*
X129252009Y-87304433D01*
X129242599Y-87307446D01*
X128683799Y-87510646D01*
X128672710Y-87515284D01*
X127656710Y-87997884D01*
X127643186Y-88005347D01*
X125560386Y-89326147D01*
X125555422Y-89329462D01*
X124361622Y-90167662D01*
X124358400Y-90170000D01*
X123984717Y-90450262D01*
X123984163Y-90448962D01*
X123983103Y-90439783D01*
X123968273Y-90393701D01*
X123964573Y-90379551D01*
X123957961Y-90361657D01*
X123952125Y-90343522D01*
X123947423Y-90332689D01*
X123945658Y-90325321D01*
X123939968Y-90312961D01*
X123929524Y-90284697D01*
X123919500Y-90268358D01*
X123910181Y-90246889D01*
X123906518Y-90240304D01*
X123903369Y-90233465D01*
X123896363Y-90221497D01*
X123892894Y-90212328D01*
X123875046Y-90183735D01*
X123861019Y-90158521D01*
X123856115Y-90152746D01*
X123850233Y-90142699D01*
X123844509Y-90134812D01*
X123839348Y-90126544D01*
X123830564Y-90115136D01*
X123826071Y-90106665D01*
X123807937Y-90084422D01*
X123790836Y-90060859D01*
X123783645Y-90054205D01*
X123774733Y-90042631D01*
X123768200Y-90035679D01*
X123762174Y-90028288D01*
X123752683Y-90018735D01*
X123748730Y-90013030D01*
X123728853Y-89993813D01*
X123705480Y-89968942D01*
X123697672Y-89963367D01*
X123686316Y-89951937D01*
X123680994Y-89947540D01*
X123676030Y-89942741D01*
X123666670Y-89935320D01*
X123664903Y-89933272D01*
X123643687Y-89916720D01*
X123608356Y-89887532D01*
X123602243Y-89884239D01*
X123589561Y-89874184D01*
X123587294Y-89872724D01*
X123585174Y-89871070D01*
X123558984Y-89854491D01*
X123504545Y-89819429D01*
X123502670Y-89818689D01*
X123492743Y-89812313D01*
X123490731Y-89811284D01*
X123488826Y-89810078D01*
X123479527Y-89805399D01*
X123490837Y-89680994D01*
X123540688Y-89282188D01*
X123615734Y-88931972D01*
X123616621Y-88927433D01*
X123692390Y-88498076D01*
X123818149Y-87919586D01*
X123969585Y-87364319D01*
X124095097Y-86912477D01*
X124201569Y-86625000D01*
X126909728Y-86625000D01*
X126921988Y-86749482D01*
X126958298Y-86869180D01*
X127017263Y-86979494D01*
X127096615Y-87076185D01*
X127193306Y-87155537D01*
X127303620Y-87214502D01*
X127423318Y-87250812D01*
X127547800Y-87263072D01*
X128162050Y-87260000D01*
X128320800Y-87101250D01*
X128320800Y-85852000D01*
X127071550Y-85852000D01*
X126912800Y-86010750D01*
X126909728Y-86625000D01*
X124201569Y-86625000D01*
X124347247Y-86231671D01*
X124348023Y-86229517D01*
X124522239Y-85731756D01*
X124770971Y-85284039D01*
X124775143Y-85275843D01*
X124984463Y-84825000D01*
X126909728Y-84825000D01*
X126912800Y-85439250D01*
X127071550Y-85598000D01*
X128320800Y-85598000D01*
X128320800Y-84348750D01*
X128162050Y-84190000D01*
X127547800Y-84186928D01*
X127423318Y-84199188D01*
X127303620Y-84235498D01*
X127193306Y-84294463D01*
X127096615Y-84373815D01*
X127017263Y-84470506D01*
X126958298Y-84580820D01*
X126921988Y-84700518D01*
X126909728Y-84825000D01*
X124984463Y-84825000D01*
X125104006Y-84567524D01*
X125356538Y-84087712D01*
X125357745Y-84085358D01*
X125611745Y-83577358D01*
X125617507Y-83563963D01*
X125719107Y-83284563D01*
X125724313Y-83265938D01*
X125726753Y-83241162D01*
X125726753Y-83190362D01*
X125721698Y-83154888D01*
X125712434Y-83131779D01*
X125698840Y-83110922D01*
X125681438Y-83093117D01*
X125660897Y-83079050D01*
X125638007Y-83069260D01*
X125613646Y-83064124D01*
X125588751Y-83063839D01*
X125004551Y-83114639D01*
X124995746Y-83115716D01*
X124030546Y-83268116D01*
X124027480Y-83268639D01*
X122224080Y-83598839D01*
X122223289Y-83598986D01*
X120750089Y-83878386D01*
X120745669Y-83879306D01*
X116376869Y-84869906D01*
X116372985Y-84870851D01*
X110708785Y-86344051D01*
X110702004Y-86346018D01*
X106472484Y-87701107D01*
X106450861Y-87696542D01*
X106174132Y-87633315D01*
X105937580Y-87573858D01*
X105745918Y-87519596D01*
X105606835Y-87473617D01*
X105521103Y-87438476D01*
X105441691Y-87397969D01*
X105342745Y-87340973D01*
X105232761Y-87271265D01*
X105113563Y-87189602D01*
X104986583Y-87096752D01*
X104852975Y-86993455D01*
X104713767Y-86880463D01*
X104572080Y-86760393D01*
X104270386Y-86489778D01*
X103961056Y-86193511D01*
X103646547Y-85874342D01*
X103618464Y-85844282D01*
X105042862Y-85337829D01*
X109684659Y-83968118D01*
X115063375Y-82674181D01*
X121431961Y-81456285D01*
X127621215Y-80669945D01*
X133886455Y-80314830D01*
X139846977Y-80365558D01*
M02*
