G04 #@! TF.GenerationSoftware,KiCad,Pcbnew,5.1.4-e60b266~84~ubuntu18.04.1*
G04 #@! TF.CreationDate,2019-08-28T18:32:27-06:00*
G04 #@! TF.ProjectId,001,3030312e-6b69-4636-9164-5f7063625858,1*
G04 #@! TF.SameCoordinates,Original*
G04 #@! TF.FileFunction,Legend,Bot*
G04 #@! TF.FilePolarity,Positive*
%FSLAX46Y46*%
G04 Gerber Fmt 4.6, Leading zero omitted, Abs format (unit mm)*
G04 Created by KiCad (PCBNEW 5.1.4-e60b266~84~ubuntu18.04.1) date 2019-08-28 18:32:27*
%MOMM*%
%LPD*%
G04 APERTURE LIST*
%ADD10C,0.500000*%
%ADD11C,0.225000*%
%ADD12C,0.010000*%
%ADD13C,0.152400*%
%ADD14C,5.000000*%
%ADD15C,1.800000*%
%ADD16R,1.800000X1.800000*%
%ADD17R,4.000000X4.000000*%
%ADD18R,5.200000X5.200000*%
G04 APERTURE END LIST*
D10*
X134340504Y-85766257D02*
X132816695Y-85766257D01*
X133578600Y-86528161D02*
X133578600Y-85004352D01*
X149199504Y-85715457D02*
X147675695Y-85715457D01*
X148437600Y-86477361D02*
X148437600Y-84953552D01*
D11*
X150601714Y-136170042D02*
X150601714Y-135270042D01*
X150387428Y-135270042D01*
X150258857Y-135312900D01*
X150173142Y-135398614D01*
X150130285Y-135484328D01*
X150087428Y-135655757D01*
X150087428Y-135784328D01*
X150130285Y-135955757D01*
X150173142Y-136041471D01*
X150258857Y-136127185D01*
X150387428Y-136170042D01*
X150601714Y-136170042D01*
X149358857Y-136127185D02*
X149444571Y-136170042D01*
X149616000Y-136170042D01*
X149701714Y-136127185D01*
X149744571Y-136041471D01*
X149744571Y-135698614D01*
X149701714Y-135612900D01*
X149616000Y-135570042D01*
X149444571Y-135570042D01*
X149358857Y-135612900D01*
X149316000Y-135698614D01*
X149316000Y-135784328D01*
X149744571Y-135870042D01*
X149016000Y-135570042D02*
X148801714Y-136170042D01*
X148587428Y-135570042D01*
X147901714Y-136127185D02*
X147987428Y-136170042D01*
X148158857Y-136170042D01*
X148244571Y-136127185D01*
X148287428Y-136041471D01*
X148287428Y-135698614D01*
X148244571Y-135612900D01*
X148158857Y-135570042D01*
X147987428Y-135570042D01*
X147901714Y-135612900D01*
X147858857Y-135698614D01*
X147858857Y-135784328D01*
X148287428Y-135870042D01*
X147344571Y-136170042D02*
X147430285Y-136127185D01*
X147473142Y-136041471D01*
X147473142Y-135270042D01*
X146873142Y-136170042D02*
X146958857Y-136127185D01*
X147001714Y-136084328D01*
X147044571Y-135998614D01*
X147044571Y-135741471D01*
X147001714Y-135655757D01*
X146958857Y-135612900D01*
X146873142Y-135570042D01*
X146744571Y-135570042D01*
X146658857Y-135612900D01*
X146616000Y-135655757D01*
X146573142Y-135741471D01*
X146573142Y-135998614D01*
X146616000Y-136084328D01*
X146658857Y-136127185D01*
X146744571Y-136170042D01*
X146873142Y-136170042D01*
X146187428Y-135570042D02*
X146187428Y-136470042D01*
X146187428Y-135612900D02*
X146101714Y-135570042D01*
X145930285Y-135570042D01*
X145844571Y-135612900D01*
X145801714Y-135655757D01*
X145758857Y-135741471D01*
X145758857Y-135998614D01*
X145801714Y-136084328D01*
X145844571Y-136127185D01*
X145930285Y-136170042D01*
X146101714Y-136170042D01*
X146187428Y-136127185D01*
X145030285Y-136127185D02*
X145116000Y-136170042D01*
X145287428Y-136170042D01*
X145373142Y-136127185D01*
X145416000Y-136041471D01*
X145416000Y-135698614D01*
X145373142Y-135612900D01*
X145287428Y-135570042D01*
X145116000Y-135570042D01*
X145030285Y-135612900D01*
X144987428Y-135698614D01*
X144987428Y-135784328D01*
X145416000Y-135870042D01*
X144216000Y-136170042D02*
X144216000Y-135270042D01*
X144216000Y-136127185D02*
X144301714Y-136170042D01*
X144473142Y-136170042D01*
X144558857Y-136127185D01*
X144601714Y-136084328D01*
X144644571Y-135998614D01*
X144644571Y-135741471D01*
X144601714Y-135655757D01*
X144558857Y-135612900D01*
X144473142Y-135570042D01*
X144301714Y-135570042D01*
X144216000Y-135612900D01*
X147601714Y-137745042D02*
X147601714Y-136845042D01*
X147601714Y-137187900D02*
X147516000Y-137145042D01*
X147344571Y-137145042D01*
X147258857Y-137187900D01*
X147216000Y-137230757D01*
X147173142Y-137316471D01*
X147173142Y-137573614D01*
X147216000Y-137659328D01*
X147258857Y-137702185D01*
X147344571Y-137745042D01*
X147516000Y-137745042D01*
X147601714Y-137702185D01*
X146873142Y-137145042D02*
X146658857Y-137745042D01*
X146444571Y-137145042D02*
X146658857Y-137745042D01*
X146744571Y-137959328D01*
X146787428Y-138002185D01*
X146873142Y-138045042D01*
D12*
G36*
X159192384Y-71647415D02*
G01*
X160039050Y-71647780D01*
X160409467Y-71717322D01*
X160552712Y-71744626D01*
X160703288Y-71774030D01*
X160847317Y-71802777D01*
X160970920Y-71828114D01*
X161023300Y-71839195D01*
X161577765Y-71979774D01*
X162123692Y-72160397D01*
X162658477Y-72379191D01*
X163179515Y-72634285D01*
X163684201Y-72923806D01*
X164169933Y-73245882D01*
X164634104Y-73598643D01*
X165074111Y-73980214D01*
X165487350Y-74388725D01*
X165871216Y-74822304D01*
X166223105Y-75279078D01*
X166540412Y-75757176D01*
X166591327Y-75841446D01*
X166826190Y-76260846D01*
X167034864Y-76687854D01*
X167219123Y-77127595D01*
X167380739Y-77585193D01*
X167521485Y-78065773D01*
X167643135Y-78574459D01*
X167747461Y-79116378D01*
X167769131Y-79245884D01*
X167781850Y-79351038D01*
X167792251Y-79491535D01*
X167800336Y-79660446D01*
X167806107Y-79850844D01*
X167809565Y-80055801D01*
X167810713Y-80268389D01*
X167809551Y-80481681D01*
X167806082Y-80688749D01*
X167800306Y-80882665D01*
X167792226Y-81056502D01*
X167781843Y-81203332D01*
X167769159Y-81316227D01*
X167768654Y-81319606D01*
X167740229Y-81494247D01*
X167704645Y-81691943D01*
X167664307Y-81900767D01*
X167621624Y-82108795D01*
X167579003Y-82304102D01*
X167538849Y-82474763D01*
X167522303Y-82540052D01*
X167357086Y-83090305D01*
X167151992Y-83630306D01*
X166908754Y-84157574D01*
X166629110Y-84669627D01*
X166314794Y-85163982D01*
X165967543Y-85638156D01*
X165589093Y-86089668D01*
X165181179Y-86516036D01*
X164745537Y-86914776D01*
X164283903Y-87283408D01*
X164124217Y-87399400D01*
X163759808Y-87639988D01*
X163362383Y-87869784D01*
X162940764Y-88084458D01*
X162503773Y-88279676D01*
X162060232Y-88451109D01*
X161809594Y-88535967D01*
X161526605Y-88621256D01*
X161229589Y-88700789D01*
X160928330Y-88772436D01*
X160632615Y-88834068D01*
X160352227Y-88883556D01*
X160096953Y-88918772D01*
X160007300Y-88928086D01*
X159919750Y-88933875D01*
X159798107Y-88938645D01*
X159650598Y-88942348D01*
X159485451Y-88944937D01*
X159310896Y-88946366D01*
X159135160Y-88946587D01*
X158966471Y-88945553D01*
X158813058Y-88943216D01*
X158683150Y-88939529D01*
X158610300Y-88936102D01*
X158053915Y-88882647D01*
X157495362Y-88788459D01*
X156938212Y-88654746D01*
X156386036Y-88482719D01*
X155842405Y-88273585D01*
X155310890Y-88028555D01*
X154795063Y-87748837D01*
X154422313Y-87518108D01*
X154092337Y-87293098D01*
X153787826Y-87064980D01*
X153497869Y-86824743D01*
X153211556Y-86563377D01*
X152937535Y-86291955D01*
X152531546Y-85847306D01*
X152162226Y-85382614D01*
X151829198Y-84897160D01*
X151532089Y-84390226D01*
X151270524Y-83861093D01*
X151123171Y-83501783D01*
X151780584Y-83501783D01*
X151781947Y-83544268D01*
X151804031Y-83617719D01*
X151844484Y-83717610D01*
X151900955Y-83839414D01*
X151971089Y-83978606D01*
X152052535Y-84130660D01*
X152142940Y-84291049D01*
X152239952Y-84455247D01*
X152341218Y-84618729D01*
X152439975Y-84770384D01*
X152764009Y-85219060D01*
X153123563Y-85650881D01*
X153513407Y-86060454D01*
X153928311Y-86442390D01*
X154363045Y-86791298D01*
X154492999Y-86886191D01*
X154908701Y-87161501D01*
X155350392Y-87413633D01*
X155812292Y-87640439D01*
X156288623Y-87839769D01*
X156773604Y-88009475D01*
X157261457Y-88147408D01*
X157746401Y-88251419D01*
X158222657Y-88319359D01*
X158388050Y-88334359D01*
X158527336Y-88342529D01*
X158697671Y-88348596D01*
X158889379Y-88352552D01*
X159092784Y-88354390D01*
X159298212Y-88354103D01*
X159495986Y-88351682D01*
X159676432Y-88347120D01*
X159829873Y-88340410D01*
X159902527Y-88335543D01*
X160399321Y-88276963D01*
X160904493Y-88180359D01*
X161412317Y-88047621D01*
X161917065Y-87880638D01*
X162413007Y-87681300D01*
X162894417Y-87451496D01*
X163343377Y-87200483D01*
X163756848Y-86930023D01*
X164164472Y-86622075D01*
X164561006Y-86281484D01*
X164941206Y-85913090D01*
X165299829Y-85521738D01*
X165631631Y-85112268D01*
X165692530Y-85031034D01*
X165836391Y-84826979D01*
X165983367Y-84600949D01*
X166127293Y-84363499D01*
X166262003Y-84125186D01*
X166381330Y-83896565D01*
X166479109Y-83688192D01*
X166485396Y-83673689D01*
X166522065Y-83582414D01*
X166536519Y-83522636D01*
X166526269Y-83488391D01*
X166488823Y-83473717D01*
X166421693Y-83472653D01*
X166401862Y-83473703D01*
X166343137Y-83479861D01*
X166311600Y-83497123D01*
X166292115Y-83537427D01*
X166282867Y-83567548D01*
X166263476Y-83618628D01*
X166228384Y-83697220D01*
X166182126Y-83793653D01*
X166129239Y-83898258D01*
X166114190Y-83927069D01*
X165827951Y-84426138D01*
X165508068Y-84900567D01*
X165156269Y-85348889D01*
X164774282Y-85769634D01*
X164363835Y-86161334D01*
X163926657Y-86522519D01*
X163464475Y-86851721D01*
X162979017Y-87147471D01*
X162472012Y-87408300D01*
X161945187Y-87632738D01*
X161615967Y-87750769D01*
X161331932Y-87837810D01*
X161024147Y-87918389D01*
X160706429Y-87989522D01*
X160392591Y-88048224D01*
X160096450Y-88091511D01*
X159977519Y-88104689D01*
X159871511Y-88112360D01*
X159731381Y-88118394D01*
X159565271Y-88122791D01*
X159381322Y-88125552D01*
X159187676Y-88126678D01*
X158992475Y-88126168D01*
X158803860Y-88124023D01*
X158629972Y-88120243D01*
X158478954Y-88114829D01*
X158358947Y-88107781D01*
X158322581Y-88104616D01*
X157845761Y-88039490D01*
X157359114Y-87938504D01*
X156870607Y-87804209D01*
X156388204Y-87639160D01*
X155919869Y-87445908D01*
X155473568Y-87227008D01*
X155318884Y-87141880D01*
X154826126Y-86838357D01*
X154358828Y-86502070D01*
X153918587Y-86134686D01*
X153506997Y-85737870D01*
X153125652Y-85313288D01*
X152776147Y-84862605D01*
X152460079Y-84387489D01*
X152179040Y-83889603D01*
X152149389Y-83831653D01*
X152098940Y-83729433D01*
X152056289Y-83638062D01*
X152024873Y-83565298D01*
X152008132Y-83518895D01*
X152006300Y-83508861D01*
X152005729Y-83506637D01*
X152343422Y-83506637D01*
X152345192Y-83520351D01*
X152352749Y-83530011D01*
X152373314Y-83559978D01*
X152409757Y-83619508D01*
X152457599Y-83701047D01*
X152512362Y-83797038D01*
X152535906Y-83839050D01*
X152802828Y-84290401D01*
X153080947Y-84704941D01*
X153374607Y-85087634D01*
X153688150Y-85443445D01*
X154025922Y-85777336D01*
X154392265Y-86094273D01*
X154749617Y-86368849D01*
X154860692Y-86448813D01*
X154973477Y-86528269D01*
X155077891Y-86600233D01*
X155163854Y-86657720D01*
X155199116Y-86680324D01*
X155275990Y-86727802D01*
X155327431Y-86752388D01*
X155361880Y-86750542D01*
X155387775Y-86718723D01*
X155413555Y-86653392D01*
X155437936Y-86580134D01*
X155533241Y-86347387D01*
X155655272Y-86139269D01*
X155800960Y-85958839D01*
X155967230Y-85809156D01*
X156151012Y-85693279D01*
X156349234Y-85614268D01*
X156427551Y-85594579D01*
X156511691Y-85581116D01*
X156611781Y-85571665D01*
X156717355Y-85566417D01*
X156817946Y-85565565D01*
X156903088Y-85569300D01*
X156962317Y-85577813D01*
X156979833Y-85584460D01*
X156993122Y-85613582D01*
X157004926Y-85679819D01*
X157015041Y-85777971D01*
X157023267Y-85902839D01*
X157029401Y-86049224D01*
X157033240Y-86211927D01*
X157034582Y-86385748D01*
X157033226Y-86565488D01*
X157028969Y-86745948D01*
X157027089Y-86799628D01*
X157021214Y-86951026D01*
X157015128Y-87065569D01*
X157006645Y-87148686D01*
X156993582Y-87205808D01*
X156973755Y-87242368D01*
X156944981Y-87263795D01*
X156905075Y-87275521D01*
X156851853Y-87282977D01*
X156831780Y-87285333D01*
X156750518Y-87297444D01*
X156706534Y-87311714D01*
X156694781Y-87331144D01*
X156709564Y-87357956D01*
X156762890Y-87399840D01*
X156841683Y-87436562D01*
X156929103Y-87461549D01*
X156993236Y-87468669D01*
X157080088Y-87469134D01*
X157083922Y-87423780D01*
X158485979Y-87423780D01*
X158500118Y-87445522D01*
X158515153Y-87457758D01*
X158584654Y-87501822D01*
X158678869Y-87549288D01*
X158781533Y-87592951D01*
X158876377Y-87625609D01*
X158917432Y-87635895D01*
X158987470Y-87645050D01*
X159082947Y-87651072D01*
X159187025Y-87653046D01*
X159224380Y-87652566D01*
X159324658Y-87648817D01*
X159399023Y-87640495D01*
X159463888Y-87623839D01*
X159535666Y-87595088D01*
X159594706Y-87567703D01*
X159710906Y-87508778D01*
X159786600Y-87461518D01*
X159821921Y-87425722D01*
X159817000Y-87401193D01*
X159771971Y-87387733D01*
X159716746Y-87384791D01*
X159669217Y-87378584D01*
X159633986Y-87356749D01*
X159608708Y-87313688D01*
X159591039Y-87243803D01*
X159578634Y-87141498D01*
X159571210Y-87037387D01*
X159563571Y-86926860D01*
X159554791Y-86854860D01*
X159542909Y-86821711D01*
X159525966Y-86827739D01*
X159502000Y-86873268D01*
X159469050Y-86958625D01*
X159433374Y-87060245D01*
X159383528Y-87190511D01*
X159335191Y-87283419D01*
X159284549Y-87343611D01*
X159227785Y-87375727D01*
X159166770Y-87384467D01*
X159103631Y-87377895D01*
X159054638Y-87361713D01*
X159048902Y-87358009D01*
X159019302Y-87321059D01*
X158980566Y-87251115D01*
X158936130Y-87155604D01*
X158889435Y-87041954D01*
X158843917Y-86917593D01*
X158840706Y-86908217D01*
X158790217Y-86760050D01*
X158777035Y-86992884D01*
X158771417Y-87091187D01*
X158766457Y-87176295D01*
X158762769Y-87237780D01*
X158761160Y-87262759D01*
X158738117Y-87317942D01*
X158686437Y-87361906D01*
X158619814Y-87383948D01*
X158605009Y-87384791D01*
X158546768Y-87390970D01*
X158504570Y-87405122D01*
X158485979Y-87423780D01*
X157083922Y-87423780D01*
X157093778Y-87307190D01*
X157100957Y-87199378D01*
X157105914Y-87081222D01*
X157107467Y-86992336D01*
X157109328Y-86905289D01*
X157114197Y-86825885D01*
X157120774Y-86772889D01*
X157134081Y-86706353D01*
X157610137Y-86712035D01*
X158086192Y-86717717D01*
X158144353Y-86882532D01*
X158183079Y-86984417D01*
X158225108Y-87082129D01*
X158266668Y-87168223D01*
X158303984Y-87235257D01*
X158333282Y-87275787D01*
X158348035Y-87284242D01*
X158358675Y-87261146D01*
X158368198Y-87201733D01*
X158376357Y-87112008D01*
X158382908Y-86997977D01*
X158387605Y-86865647D01*
X158390203Y-86721025D01*
X158390457Y-86570115D01*
X158388121Y-86418926D01*
X158386132Y-86351606D01*
X158379829Y-86198726D01*
X158372774Y-86086442D01*
X158364797Y-86013017D01*
X158355731Y-85976719D01*
X158349429Y-85972118D01*
X158321968Y-85997769D01*
X158285512Y-86054135D01*
X158244550Y-86131802D01*
X158203571Y-86221354D01*
X158167064Y-86313380D01*
X158139519Y-86398464D01*
X158132174Y-86427734D01*
X158115346Y-86499167D01*
X158097273Y-86553738D01*
X158072425Y-86593717D01*
X158035270Y-86621374D01*
X157980276Y-86638980D01*
X157901913Y-86648803D01*
X157794649Y-86653116D01*
X157652952Y-86654187D01*
X157580348Y-86654217D01*
X157427493Y-86653439D01*
X157312484Y-86650918D01*
X157230860Y-86646370D01*
X157178159Y-86639513D01*
X157149920Y-86630065D01*
X157145554Y-86626685D01*
X157136748Y-86607987D01*
X157129890Y-86568914D01*
X157124790Y-86505438D01*
X157121260Y-86413534D01*
X157119108Y-86289174D01*
X157118146Y-86128331D01*
X157118050Y-86042921D01*
X157118050Y-85841745D01*
X158487715Y-85841745D01*
X158499642Y-85869663D01*
X158548645Y-85888887D01*
X158636308Y-85899791D01*
X158747037Y-85902800D01*
X158878482Y-85902800D01*
X158991517Y-86289092D01*
X159037061Y-86443898D01*
X159072656Y-86562187D01*
X159099898Y-86648169D01*
X159120383Y-86706057D01*
X159135709Y-86740061D01*
X159147473Y-86754392D01*
X159157270Y-86753261D01*
X159164304Y-86744776D01*
X159176097Y-86716692D01*
X159198197Y-86655160D01*
X159228233Y-86567124D01*
X159263833Y-86459525D01*
X159300076Y-86347300D01*
X159339468Y-86227232D01*
X159376655Y-86119937D01*
X159409032Y-86032469D01*
X159433995Y-85971886D01*
X159448223Y-85945910D01*
X159487335Y-85926868D01*
X159561250Y-85910712D01*
X159649011Y-85900248D01*
X159730107Y-85891889D01*
X159793978Y-85882709D01*
X159829644Y-85874367D01*
X159833064Y-85872425D01*
X159830955Y-85848036D01*
X159792890Y-85810580D01*
X159722249Y-85762645D01*
X159622410Y-85706816D01*
X159605134Y-85697925D01*
X159446384Y-85617050D01*
X158869171Y-85617050D01*
X158681655Y-85712300D01*
X158601289Y-85756078D01*
X158536747Y-85796816D01*
X158496601Y-85828794D01*
X158487715Y-85841745D01*
X157118050Y-85841745D01*
X157118050Y-85486688D01*
X157181550Y-85384597D01*
X157274613Y-85264896D01*
X157380649Y-85182678D01*
X157496991Y-85139977D01*
X157503816Y-85138786D01*
X157546996Y-85135228D01*
X157628053Y-85132070D01*
X157742815Y-85129310D01*
X157887111Y-85126945D01*
X158056767Y-85124972D01*
X158247612Y-85123387D01*
X158455475Y-85122188D01*
X158676183Y-85121372D01*
X158905565Y-85120935D01*
X159139448Y-85120875D01*
X159373660Y-85121189D01*
X159604031Y-85121873D01*
X159826386Y-85122925D01*
X160036556Y-85124342D01*
X160230367Y-85126120D01*
X160403648Y-85128257D01*
X160552228Y-85130749D01*
X160671933Y-85133594D01*
X160758592Y-85136788D01*
X160808033Y-85140329D01*
X160813619Y-85141177D01*
X160895506Y-85163792D01*
X160962750Y-85202594D01*
X161019338Y-85252302D01*
X161080793Y-85315568D01*
X161126253Y-85374084D01*
X161158460Y-85436202D01*
X161180158Y-85510275D01*
X161194088Y-85604657D01*
X161202995Y-85727700D01*
X161207301Y-85824744D01*
X161211009Y-85970622D01*
X161211264Y-86117585D01*
X161208392Y-86258555D01*
X161202721Y-86386455D01*
X161194575Y-86494208D01*
X161184281Y-86574736D01*
X161172166Y-86620962D01*
X161170456Y-86624111D01*
X161143506Y-86634622D01*
X161082069Y-86643122D01*
X160993949Y-86649574D01*
X160886946Y-86653939D01*
X160768863Y-86656180D01*
X160647501Y-86656259D01*
X160530661Y-86654137D01*
X160426146Y-86649778D01*
X160341758Y-86643142D01*
X160285297Y-86634192D01*
X160269349Y-86628489D01*
X160234602Y-86589954D01*
X160203695Y-86514605D01*
X160189777Y-86464607D01*
X160147643Y-86325382D01*
X160093886Y-86190029D01*
X160034879Y-86073586D01*
X160003028Y-86023800D01*
X159954999Y-85956350D01*
X159940036Y-86040700D01*
X159935645Y-86087504D01*
X159932135Y-86168545D01*
X159929499Y-86276510D01*
X159927729Y-86404082D01*
X159926818Y-86543946D01*
X159926760Y-86688788D01*
X159927547Y-86831291D01*
X159929172Y-86964142D01*
X159931629Y-87080024D01*
X159934910Y-87171622D01*
X159939008Y-87231621D01*
X159941196Y-87246742D01*
X159954750Y-87310100D01*
X160000534Y-87245803D01*
X160049865Y-87163247D01*
X160102064Y-87053772D01*
X160150784Y-86931775D01*
X160185659Y-86825775D01*
X160220149Y-86707134D01*
X160672297Y-86707134D01*
X160838672Y-86706692D01*
X160967655Y-86707722D01*
X161064137Y-86713754D01*
X161133010Y-86728321D01*
X161179164Y-86754954D01*
X161207492Y-86797183D01*
X161222884Y-86858542D01*
X161230231Y-86942561D01*
X161234425Y-87052772D01*
X161236698Y-87114637D01*
X161242278Y-87229493D01*
X161248945Y-87330245D01*
X161256034Y-87408898D01*
X161262878Y-87457459D01*
X161266172Y-87468253D01*
X161300472Y-87484530D01*
X161366069Y-87476839D01*
X161459748Y-87445728D01*
X161501704Y-87428028D01*
X161567698Y-87390876D01*
X161607747Y-87351941D01*
X161615971Y-87317812D01*
X161609382Y-87307326D01*
X161583628Y-87298814D01*
X161528506Y-87288540D01*
X161467413Y-87280165D01*
X161395973Y-87267728D01*
X161341849Y-87250915D01*
X161319651Y-87236329D01*
X161307052Y-87193667D01*
X161296592Y-87111915D01*
X161288389Y-86994269D01*
X161282563Y-86843924D01*
X161279232Y-86664074D01*
X161278516Y-86457917D01*
X161280533Y-86228645D01*
X161280997Y-86197600D01*
X161283671Y-86015267D01*
X161286559Y-85870865D01*
X161291484Y-85760023D01*
X161300267Y-85678369D01*
X161314729Y-85621531D01*
X161336691Y-85585137D01*
X161367974Y-85564816D01*
X161410400Y-85556196D01*
X161465789Y-85554905D01*
X161535964Y-85556573D01*
X161547947Y-85556809D01*
X161794508Y-85579529D01*
X162019892Y-85638767D01*
X162224770Y-85734781D01*
X162409812Y-85867828D01*
X162448671Y-85902791D01*
X162584429Y-86047576D01*
X162697826Y-86209585D01*
X162795049Y-86398445D01*
X162844320Y-86518436D01*
X162879471Y-86608178D01*
X162910660Y-86683285D01*
X162934069Y-86734828D01*
X162944685Y-86753152D01*
X162971451Y-86751272D01*
X163027495Y-86725732D01*
X163108908Y-86679156D01*
X163211784Y-86614171D01*
X163332217Y-86533401D01*
X163466299Y-86439472D01*
X163610124Y-86335009D01*
X163759784Y-86222637D01*
X163911372Y-86104982D01*
X163923134Y-86095683D01*
X164034615Y-86002161D01*
X164166116Y-85883287D01*
X164310532Y-85746208D01*
X164460754Y-85598070D01*
X164609677Y-85446022D01*
X164750192Y-85297210D01*
X164875194Y-85158781D01*
X164977575Y-85037882D01*
X164988408Y-85024384D01*
X165164918Y-84791713D01*
X165348449Y-84529124D01*
X165532266Y-84246734D01*
X165709635Y-83954660D01*
X165770304Y-83849634D01*
X165969240Y-83500384D01*
X165851062Y-83486806D01*
X165815968Y-83485167D01*
X165741086Y-83483558D01*
X165628958Y-83481990D01*
X165482129Y-83480478D01*
X165303144Y-83479034D01*
X165094546Y-83477670D01*
X164858879Y-83476401D01*
X164598688Y-83475238D01*
X164316517Y-83474196D01*
X164014909Y-83473286D01*
X163696410Y-83472522D01*
X163363562Y-83471917D01*
X163018911Y-83471484D01*
X162811884Y-83471314D01*
X159890884Y-83469400D01*
X160004356Y-83531951D01*
X160164798Y-83639054D01*
X160322495Y-83778886D01*
X160469082Y-83942219D01*
X160596193Y-84119826D01*
X160687760Y-84285804D01*
X160737642Y-84405412D01*
X160782660Y-84538311D01*
X160819340Y-84671815D01*
X160844212Y-84793235D01*
X160853802Y-84889885D01*
X160853819Y-84892616D01*
X160848706Y-84948911D01*
X160826940Y-84979929D01*
X160795759Y-84995825D01*
X160764197Y-85000942D01*
X160695559Y-85005696D01*
X160589188Y-85010099D01*
X160444426Y-85014166D01*
X160260616Y-85017910D01*
X160037102Y-85021344D01*
X159773228Y-85024482D01*
X159468335Y-85027336D01*
X159121767Y-85029921D01*
X159121325Y-85029924D01*
X158815589Y-85031869D01*
X158549538Y-85033324D01*
X158320529Y-85034260D01*
X158125914Y-85034647D01*
X157963050Y-85034455D01*
X157829291Y-85033654D01*
X157721993Y-85032213D01*
X157638509Y-85030104D01*
X157576194Y-85027295D01*
X157532405Y-85023757D01*
X157504495Y-85019460D01*
X157489819Y-85014373D01*
X157486524Y-85011381D01*
X157468137Y-84950047D01*
X157467117Y-84858683D01*
X157481510Y-84744927D01*
X157509361Y-84616415D01*
X157548717Y-84480784D01*
X157564151Y-84438145D01*
X157935670Y-84438145D01*
X157961499Y-84536534D01*
X157981096Y-84570958D01*
X158064264Y-84664142D01*
X158160432Y-84719647D01*
X158265081Y-84736004D01*
X158373697Y-84711746D01*
X158390865Y-84704129D01*
X158456852Y-84654563D01*
X158515164Y-84579584D01*
X158555503Y-84495254D01*
X158567967Y-84427895D01*
X158567171Y-84423876D01*
X159764589Y-84423876D01*
X159777348Y-84535390D01*
X159818466Y-84619511D01*
X159892201Y-84683655D01*
X159924138Y-84701559D01*
X160021385Y-84733989D01*
X160119268Y-84729031D01*
X160218207Y-84691009D01*
X160306076Y-84625071D01*
X160362439Y-84539177D01*
X160387032Y-84441943D01*
X160379587Y-84341982D01*
X160339840Y-84247909D01*
X160267524Y-84168338D01*
X160235035Y-84145852D01*
X160136914Y-84109792D01*
X160027964Y-84110612D01*
X159922100Y-84146239D01*
X159839497Y-84201746D01*
X159789594Y-84271678D01*
X159767151Y-84365275D01*
X159764589Y-84423876D01*
X158567171Y-84423876D01*
X158551249Y-84343589D01*
X158507762Y-84255159D01*
X158447506Y-84179457D01*
X158398106Y-84141602D01*
X158303503Y-84111518D01*
X158197959Y-84112935D01*
X158097424Y-84144659D01*
X158060276Y-84166913D01*
X157987208Y-84242366D01*
X157944956Y-84336433D01*
X157935670Y-84438145D01*
X157564151Y-84438145D01*
X157597624Y-84345672D01*
X157654126Y-84218716D01*
X157716271Y-84107553D01*
X157718788Y-84103634D01*
X157780198Y-84020272D01*
X157862981Y-83924172D01*
X157959129Y-83823109D01*
X158060635Y-83724856D01*
X158159490Y-83637189D01*
X158247687Y-83567880D01*
X158312943Y-83526807D01*
X158428336Y-83468634D01*
X155550693Y-83468760D01*
X155201723Y-83468875D01*
X154862310Y-83469181D01*
X154535086Y-83469666D01*
X154222683Y-83470318D01*
X153927731Y-83471126D01*
X153652862Y-83472077D01*
X153400708Y-83473160D01*
X153173899Y-83474362D01*
X152975068Y-83475672D01*
X152806846Y-83477079D01*
X152671863Y-83478570D01*
X152572753Y-83480133D01*
X152512145Y-83481756D01*
X152498013Y-83482513D01*
X152413137Y-83489907D01*
X152363839Y-83497219D01*
X152343422Y-83506637D01*
X152005729Y-83506637D01*
X152000084Y-83484683D01*
X151974647Y-83472597D01*
X151919806Y-83468756D01*
X151899803Y-83468634D01*
X151827836Y-83473266D01*
X151789700Y-83488579D01*
X151780584Y-83501783D01*
X151123171Y-83501783D01*
X151044128Y-83309043D01*
X150852527Y-82733355D01*
X150695347Y-82133313D01*
X150642345Y-81887872D01*
X150611693Y-81733731D01*
X150586368Y-81596335D01*
X150565865Y-81469286D01*
X150549679Y-81346185D01*
X150537304Y-81220630D01*
X150528236Y-81086224D01*
X150522967Y-80960384D01*
X151149050Y-80960384D01*
X151151348Y-81214384D01*
X151154364Y-81328611D01*
X151162213Y-81436066D01*
X151176397Y-81548632D01*
X151198417Y-81678192D01*
X151229774Y-81836628D01*
X151230256Y-81838961D01*
X151262942Y-81988386D01*
X151301243Y-82149139D01*
X151343517Y-82315573D01*
X151388120Y-82482040D01*
X151433408Y-82642892D01*
X151477739Y-82792482D01*
X151519469Y-82925163D01*
X151556956Y-83035285D01*
X151588556Y-83117203D01*
X151612626Y-83165268D01*
X151618190Y-83172300D01*
X151626824Y-83175395D01*
X151647168Y-83178306D01*
X151680393Y-83181037D01*
X151727667Y-83183593D01*
X151790159Y-83185980D01*
X151869039Y-83188202D01*
X151965476Y-83190265D01*
X152080638Y-83192172D01*
X152215695Y-83193929D01*
X152371815Y-83195541D01*
X152550168Y-83197013D01*
X152751923Y-83198350D01*
X152978249Y-83199556D01*
X153230315Y-83200637D01*
X153509290Y-83201597D01*
X153816343Y-83202441D01*
X154152643Y-83203175D01*
X154519360Y-83203802D01*
X154917662Y-83204329D01*
X155348718Y-83204760D01*
X155813698Y-83205100D01*
X156313770Y-83205353D01*
X156850104Y-83205525D01*
X157423868Y-83205620D01*
X158036232Y-83205644D01*
X158688365Y-83205602D01*
X159381436Y-83205497D01*
X159520467Y-83205471D01*
X160193496Y-83205309D01*
X160825355Y-83205098D01*
X161417206Y-83204834D01*
X161970213Y-83204511D01*
X162485537Y-83204126D01*
X162964342Y-83203673D01*
X163407790Y-83203148D01*
X163817045Y-83202547D01*
X164193269Y-83201864D01*
X164537624Y-83201096D01*
X164851275Y-83200238D01*
X165135383Y-83199284D01*
X165391111Y-83198231D01*
X165619622Y-83197074D01*
X165822079Y-83195809D01*
X165999645Y-83194430D01*
X166153482Y-83192933D01*
X166284754Y-83191313D01*
X166394623Y-83189567D01*
X166484251Y-83187689D01*
X166554803Y-83185675D01*
X166607440Y-83183520D01*
X166643325Y-83181219D01*
X166663621Y-83178769D01*
X166668755Y-83177251D01*
X166691147Y-83155844D01*
X166715869Y-83113328D01*
X166745133Y-83044588D01*
X166781150Y-82944506D01*
X166819684Y-82828001D01*
X166886772Y-82610322D01*
X166948900Y-82389684D01*
X167005286Y-82170401D01*
X167055147Y-81956788D01*
X167097699Y-81753160D01*
X167132159Y-81563832D01*
X167157745Y-81393121D01*
X167173673Y-81245340D01*
X167179159Y-81124805D01*
X167173421Y-81035830D01*
X167155675Y-80982732D01*
X167154807Y-80981550D01*
X167151530Y-80977637D01*
X167146922Y-80973971D01*
X167139631Y-80970543D01*
X167128302Y-80967345D01*
X167111585Y-80964366D01*
X167088124Y-80961598D01*
X167056568Y-80959031D01*
X167015563Y-80956656D01*
X166963756Y-80954464D01*
X166899795Y-80952445D01*
X166822326Y-80950591D01*
X166729996Y-80948891D01*
X166621452Y-80947337D01*
X166495342Y-80945919D01*
X166350312Y-80944628D01*
X166185009Y-80943454D01*
X165998080Y-80942389D01*
X165788173Y-80941423D01*
X165553933Y-80940547D01*
X165294009Y-80939752D01*
X165007047Y-80939028D01*
X164691694Y-80938366D01*
X164346597Y-80937756D01*
X163970403Y-80937190D01*
X163561759Y-80936658D01*
X163119312Y-80936151D01*
X162641710Y-80935660D01*
X162127598Y-80935175D01*
X161575625Y-80934687D01*
X160984436Y-80934186D01*
X160352680Y-80933664D01*
X160151883Y-80933499D01*
X159599327Y-80933099D01*
X159051995Y-80932807D01*
X158511769Y-80932620D01*
X157980528Y-80932536D01*
X157460151Y-80932552D01*
X156952519Y-80932666D01*
X156459511Y-80932875D01*
X155983006Y-80933177D01*
X155524885Y-80933570D01*
X155087026Y-80934050D01*
X154671311Y-80934616D01*
X154279618Y-80935264D01*
X153913828Y-80935993D01*
X153575820Y-80936800D01*
X153267473Y-80937682D01*
X152990668Y-80938638D01*
X152747284Y-80939663D01*
X152539201Y-80940757D01*
X152368299Y-80941916D01*
X152236457Y-80943138D01*
X152165050Y-80944083D01*
X151149050Y-80960384D01*
X150522967Y-80960384D01*
X150521969Y-80936567D01*
X150517998Y-80765259D01*
X150515819Y-80565901D01*
X150515004Y-80352401D01*
X151097351Y-80352401D01*
X151098422Y-80461912D01*
X151102748Y-80543440D01*
X151110938Y-80601757D01*
X151123602Y-80641640D01*
X151141350Y-80667863D01*
X151164790Y-80685202D01*
X151187476Y-80695652D01*
X151235310Y-80712248D01*
X151258644Y-80706704D01*
X151271548Y-80674323D01*
X151273430Y-80666953D01*
X151278149Y-80631438D01*
X151284183Y-80560682D01*
X151291056Y-80461737D01*
X151298289Y-80341658D01*
X151305403Y-80207498D01*
X151307505Y-80164245D01*
X151322579Y-79879705D01*
X151339541Y-79629583D01*
X151357172Y-79431184D01*
X155757152Y-79431184D01*
X155757411Y-79583365D01*
X155779801Y-79705525D01*
X155826358Y-79804902D01*
X155880975Y-79871475D01*
X155990749Y-79952316D01*
X156122349Y-80001075D01*
X156268475Y-80016395D01*
X156421825Y-79996913D01*
X156474537Y-79982048D01*
X156581756Y-79931826D01*
X156676981Y-79858499D01*
X156734736Y-79789713D01*
X157009692Y-79789713D01*
X157018240Y-79815829D01*
X157061695Y-79874662D01*
X157131751Y-79932729D01*
X157213912Y-79979108D01*
X157255634Y-79994690D01*
X157367072Y-80012182D01*
X157494056Y-80007729D01*
X157617034Y-79983058D01*
X157686161Y-79956705D01*
X157795793Y-79881182D01*
X157877130Y-79777143D01*
X157912651Y-79688183D01*
X158123546Y-79688183D01*
X158143393Y-79796816D01*
X158199394Y-79889532D01*
X158286549Y-79960344D01*
X158383289Y-79999331D01*
X158471471Y-80011679D01*
X158582635Y-80012587D01*
X158701724Y-80003403D01*
X158813681Y-79985474D01*
X158903449Y-79960146D01*
X158924597Y-79950914D01*
X158993668Y-79907249D01*
X159024333Y-79867694D01*
X159020521Y-79836031D01*
X158986157Y-79816040D01*
X158925170Y-79811501D01*
X158841485Y-79826194D01*
X158806278Y-79837015D01*
X158695378Y-79863834D01*
X158590712Y-79869395D01*
X158499532Y-79855433D01*
X158429091Y-79823683D01*
X158386643Y-79775879D01*
X158377467Y-79734461D01*
X158389575Y-79686168D01*
X158429037Y-79644605D01*
X158500562Y-79606560D01*
X158608858Y-79568819D01*
X158628890Y-79562891D01*
X158767515Y-79519457D01*
X158869451Y-79478776D01*
X158939806Y-79436889D01*
X158983688Y-79389834D01*
X159006205Y-79333652D01*
X159012467Y-79265516D01*
X158993731Y-79173413D01*
X158943777Y-79082810D01*
X158871980Y-79007212D01*
X158804779Y-78966467D01*
X158777791Y-78960134D01*
X159308800Y-78960134D01*
X159308800Y-79477165D01*
X159309008Y-79638917D01*
X159309864Y-79763320D01*
X159311719Y-79855356D01*
X159314924Y-79920009D01*
X159319828Y-79962261D01*
X159326783Y-79987095D01*
X159336139Y-79999494D01*
X159345842Y-80003876D01*
X159418677Y-80014959D01*
X159486501Y-80012313D01*
X159532866Y-79996868D01*
X159537400Y-79993067D01*
X159546252Y-79970019D01*
X159553050Y-79918675D01*
X159557941Y-79835947D01*
X159561073Y-79718748D01*
X159562595Y-79563991D01*
X159562800Y-79463900D01*
X159562800Y-78960134D01*
X159308800Y-78960134D01*
X158777791Y-78960134D01*
X158726457Y-78948088D01*
X158621949Y-78943316D01*
X158504871Y-78951327D01*
X158388835Y-78971297D01*
X158301615Y-78996904D01*
X158238626Y-79023821D01*
X158207188Y-79049303D01*
X158197680Y-79081756D01*
X158197550Y-79087796D01*
X158204712Y-79124868D01*
X158234406Y-79141914D01*
X158267904Y-79146799D01*
X158331794Y-79143897D01*
X158408546Y-79128581D01*
X158435716Y-79120341D01*
X158538947Y-79092988D01*
X158618315Y-79091861D01*
X158683491Y-79117348D01*
X158702696Y-79131003D01*
X158751545Y-79185644D01*
X158759045Y-79238872D01*
X158726182Y-79289483D01*
X158653938Y-79336272D01*
X158543297Y-79378035D01*
X158488618Y-79393036D01*
X158342702Y-79438173D01*
X158236055Y-79491397D01*
X158166035Y-79554844D01*
X158129998Y-79630650D01*
X158123546Y-79688183D01*
X157912651Y-79688183D01*
X157928212Y-79649212D01*
X157947078Y-79502018D01*
X157936431Y-79365870D01*
X157895258Y-79219850D01*
X157825111Y-79104536D01*
X157728017Y-79020949D01*
X157686750Y-78998074D01*
X157644431Y-78983361D01*
X157590393Y-78975064D01*
X157513967Y-78971436D01*
X157421291Y-78970717D01*
X157316531Y-78971768D01*
X157244415Y-78975908D01*
X157195283Y-78984621D01*
X157159477Y-78999387D01*
X157136848Y-79014358D01*
X157064380Y-79079420D01*
X157022878Y-79140726D01*
X157013717Y-79193215D01*
X157038272Y-79231825D01*
X157073586Y-79247240D01*
X157144539Y-79244521D01*
X157228190Y-79206757D01*
X157276800Y-79172232D01*
X157361791Y-79127485D01*
X157449391Y-79121959D01*
X157532769Y-79153611D01*
X157605091Y-79220396D01*
X157643023Y-79281853D01*
X157675472Y-79384517D01*
X157682530Y-79498041D01*
X157666316Y-79611115D01*
X157628947Y-79712428D01*
X157572541Y-79790669D01*
X157543348Y-79814150D01*
X157465235Y-79846613D01*
X157383051Y-79841878D01*
X157292541Y-79799092D01*
X157227551Y-79750739D01*
X157164306Y-79713661D01*
X157102072Y-79701764D01*
X157049674Y-79712304D01*
X157015938Y-79742535D01*
X157009692Y-79789713D01*
X156734736Y-79789713D01*
X156749836Y-79771729D01*
X156787638Y-79690384D01*
X156800232Y-79622433D01*
X156808727Y-79534339D01*
X156811015Y-79466998D01*
X156792821Y-79315422D01*
X156740482Y-79185640D01*
X156657771Y-79080630D01*
X156548467Y-79003370D01*
X156416342Y-78956835D01*
X156265175Y-78944005D01*
X156161330Y-78954658D01*
X156019921Y-78992966D01*
X155911248Y-79055412D01*
X155832968Y-79144758D01*
X155782739Y-79263767D01*
X155758218Y-79415199D01*
X155757152Y-79431184D01*
X151357172Y-79431184D01*
X151359413Y-79405972D01*
X151383219Y-79200964D01*
X151411982Y-79006653D01*
X151446727Y-78815132D01*
X151488475Y-78618494D01*
X151492024Y-78603449D01*
X159312959Y-78603449D01*
X159313203Y-78656967D01*
X159338763Y-78699571D01*
X159345842Y-78704438D01*
X159402767Y-78722877D01*
X159468031Y-78724617D01*
X159522619Y-78710400D01*
X159540571Y-78696830D01*
X159557152Y-78654084D01*
X159559038Y-78606872D01*
X159550250Y-78569107D01*
X159527002Y-78550309D01*
X159476749Y-78542048D01*
X159460694Y-78540798D01*
X159396996Y-78542195D01*
X159348441Y-78553656D01*
X159338986Y-78559265D01*
X159312959Y-78603449D01*
X151492024Y-78603449D01*
X151512284Y-78517579D01*
X159879885Y-78517579D01*
X159893872Y-79252148D01*
X159898842Y-79480033D01*
X159904288Y-79666099D01*
X159910235Y-79810857D01*
X159916709Y-79914819D01*
X159923736Y-79978495D01*
X159931121Y-80002268D01*
X159980954Y-80017119D01*
X160043815Y-80014756D01*
X160098281Y-79997354D01*
X160115833Y-79983499D01*
X160124427Y-79953052D01*
X160132082Y-79887485D01*
X160138739Y-79792809D01*
X160144338Y-79675032D01*
X160147143Y-79590600D01*
X160462384Y-79590600D01*
X160462917Y-79731753D01*
X160464807Y-79836192D01*
X160468490Y-79909525D01*
X160474404Y-79957361D01*
X160482984Y-79985308D01*
X160494134Y-79998632D01*
X160548940Y-80011989D01*
X160617952Y-79997841D01*
X160686908Y-79960017D01*
X160709566Y-79940776D01*
X160767780Y-79885003D01*
X160899745Y-79944226D01*
X161036730Y-79995252D01*
X161151152Y-80014258D01*
X161247517Y-80001771D01*
X161280525Y-79988790D01*
X161358074Y-79930427D01*
X161407690Y-79848145D01*
X161426130Y-79752413D01*
X161410149Y-79653701D01*
X161395102Y-79618978D01*
X161339593Y-79551160D01*
X161248798Y-79487535D01*
X161129762Y-79431796D01*
X160989528Y-79387636D01*
X160927195Y-79373667D01*
X160859540Y-79352206D01*
X160795567Y-79318960D01*
X160747369Y-79281625D01*
X160727037Y-79247900D01*
X160726967Y-79246195D01*
X160740989Y-79208387D01*
X160769300Y-79171800D01*
X160831825Y-79138292D01*
X160926511Y-79130948D01*
X161053799Y-79149767D01*
X161138154Y-79171353D01*
X161234550Y-79193880D01*
X161297435Y-79195387D01*
X161330574Y-79174922D01*
X161337732Y-79131528D01*
X161336530Y-79121054D01*
X161310362Y-79076946D01*
X161249326Y-79034166D01*
X161160820Y-78996389D01*
X161052243Y-78967290D01*
X161012509Y-78960097D01*
X160846974Y-78945772D01*
X160711541Y-78960721D01*
X160605524Y-79005161D01*
X160528239Y-79079309D01*
X160503023Y-79121676D01*
X160488300Y-79155913D01*
X160477572Y-79195121D01*
X160470230Y-79246332D01*
X160465664Y-79316578D01*
X160463265Y-79412892D01*
X160462424Y-79542305D01*
X160462384Y-79590600D01*
X160147143Y-79590600D01*
X160148819Y-79540165D01*
X160152124Y-79394218D01*
X160154192Y-79243199D01*
X160154963Y-79093119D01*
X160154378Y-78949987D01*
X160152378Y-78819813D01*
X160148901Y-78708607D01*
X160143890Y-78622377D01*
X160137283Y-78567135D01*
X160130082Y-78548919D01*
X160094279Y-78541984D01*
X160032988Y-78533637D01*
X159991218Y-78528977D01*
X159879885Y-78517579D01*
X151512284Y-78517579D01*
X151512742Y-78515634D01*
X161658300Y-78515634D01*
X161658719Y-78997175D01*
X161660396Y-79223493D01*
X161665792Y-79411473D01*
X161676100Y-79565033D01*
X161692510Y-79688093D01*
X161716216Y-79784573D01*
X161748410Y-79858390D01*
X161790284Y-79913466D01*
X161843030Y-79953719D01*
X161907840Y-79983068D01*
X161963749Y-79999936D01*
X162036009Y-80009749D01*
X162133354Y-80011426D01*
X162240520Y-80005938D01*
X162342247Y-79994256D01*
X162423273Y-79977350D01*
X162446759Y-79969221D01*
X162504510Y-79936263D01*
X162522766Y-79898311D01*
X162502765Y-79848802D01*
X162475995Y-79814371D01*
X162425857Y-79756082D01*
X162298780Y-79794558D01*
X162220426Y-79815533D01*
X162164561Y-79821542D01*
X162114490Y-79813649D01*
X162094551Y-79807570D01*
X162054509Y-79792373D01*
X162022482Y-79772991D01*
X161997468Y-79744797D01*
X161978470Y-79703164D01*
X161964487Y-79643465D01*
X161954521Y-79561072D01*
X161947571Y-79451358D01*
X161942639Y-79309695D01*
X161938725Y-79131458D01*
X161937811Y-79081842D01*
X161927580Y-78515634D01*
X161658300Y-78515634D01*
X151512742Y-78515634D01*
X151530775Y-78439212D01*
X151686863Y-77889094D01*
X151752741Y-77708119D01*
X152135394Y-77708119D01*
X152151814Y-77728831D01*
X152199497Y-77738125D01*
X152199570Y-77738134D01*
X152232886Y-77739723D01*
X152304723Y-77741342D01*
X152411269Y-77742956D01*
X152548711Y-77744530D01*
X152713239Y-77746030D01*
X152901040Y-77747424D01*
X153108302Y-77748676D01*
X153331212Y-77749753D01*
X153565959Y-77750620D01*
X153614967Y-77750768D01*
X154959050Y-77754678D01*
X156429048Y-77383217D01*
X157467300Y-77383217D01*
X157477884Y-77393800D01*
X157488467Y-77383217D01*
X157477884Y-77372634D01*
X157467300Y-77383217D01*
X156429048Y-77383217D01*
X156917412Y-77259810D01*
X157172586Y-77318353D01*
X157270770Y-77339948D01*
X157353108Y-77356299D01*
X157411362Y-77365894D01*
X157437295Y-77367224D01*
X157437701Y-77366955D01*
X157422757Y-77356652D01*
X157374835Y-77335455D01*
X157300987Y-77306252D01*
X157208263Y-77271928D01*
X157186889Y-77264282D01*
X156926136Y-77171550D01*
X156204787Y-76420134D01*
X156007907Y-76214899D01*
X155838786Y-76038079D01*
X155695767Y-75887645D01*
X155577195Y-75761569D01*
X155481413Y-75657819D01*
X155406764Y-75574368D01*
X155351593Y-75509186D01*
X155314243Y-75460243D01*
X155293059Y-75425511D01*
X155286383Y-75402959D01*
X155292561Y-75390559D01*
X155309935Y-75386282D01*
X155336849Y-75388097D01*
X155366509Y-75393011D01*
X155431830Y-75408466D01*
X155531785Y-75436462D01*
X155661156Y-75475254D01*
X155814727Y-75523095D01*
X155987283Y-75578238D01*
X156173606Y-75638937D01*
X156368481Y-75703446D01*
X156566691Y-75770017D01*
X156763021Y-75836905D01*
X156952253Y-75902362D01*
X157129171Y-75964643D01*
X157288561Y-76022000D01*
X157425204Y-76072688D01*
X157533885Y-76114959D01*
X157581059Y-76134505D01*
X157607164Y-76143409D01*
X157606641Y-76130777D01*
X157588526Y-76100617D01*
X157570829Y-76060629D01*
X157544194Y-75984286D01*
X157509897Y-75876317D01*
X157469210Y-75741451D01*
X157423407Y-75584417D01*
X157373762Y-75409945D01*
X157321549Y-75222762D01*
X157268041Y-75027598D01*
X157214512Y-74829181D01*
X157162236Y-74632241D01*
X157112486Y-74441507D01*
X157066536Y-74261706D01*
X157025660Y-74097569D01*
X156991132Y-73953824D01*
X156964225Y-73835200D01*
X156946213Y-73746425D01*
X156938370Y-73692230D01*
X156938134Y-73685908D01*
X156938888Y-73658132D01*
X156942452Y-73637684D01*
X156950780Y-73626525D01*
X156965822Y-73626615D01*
X156989532Y-73639915D01*
X157023862Y-73668386D01*
X157070764Y-73713988D01*
X157132191Y-73778681D01*
X157210095Y-73864427D01*
X157306428Y-73973184D01*
X157423144Y-74106915D01*
X157562194Y-74267579D01*
X157725531Y-74457138D01*
X157848251Y-74599800D01*
X158023008Y-74802759D01*
X158171455Y-74974583D01*
X158294631Y-75116452D01*
X158393574Y-75229544D01*
X158469321Y-75315040D01*
X158522911Y-75374117D01*
X158555384Y-75407956D01*
X158567775Y-75417735D01*
X158567967Y-75417240D01*
X158572379Y-75394055D01*
X158584903Y-75334416D01*
X158604466Y-75243194D01*
X158629997Y-75125261D01*
X158660424Y-74985488D01*
X158694676Y-74828745D01*
X158731681Y-74659906D01*
X158770368Y-74483840D01*
X158809665Y-74305419D01*
X158848501Y-74129515D01*
X158885804Y-73960999D01*
X158920502Y-73804742D01*
X158951525Y-73665616D01*
X158977800Y-73548491D01*
X158998257Y-73458240D01*
X159010838Y-73403884D01*
X159051963Y-73237783D01*
X159088165Y-73107818D01*
X159118957Y-73015474D01*
X159143856Y-72962236D01*
X159159301Y-72948800D01*
X159169875Y-72955698D01*
X159182490Y-72978171D01*
X159197808Y-73018885D01*
X159216492Y-73080508D01*
X159239204Y-73165706D01*
X159266605Y-73277148D01*
X159299358Y-73417500D01*
X159338125Y-73589430D01*
X159383567Y-73795604D01*
X159436348Y-74038690D01*
X159478743Y-74235632D01*
X159535901Y-74500794D01*
X159585142Y-74726765D01*
X159627010Y-74915835D01*
X159662044Y-75070294D01*
X159690789Y-75192431D01*
X159713784Y-75284535D01*
X159731573Y-75348897D01*
X159744696Y-75387804D01*
X159753696Y-75403548D01*
X159755297Y-75404134D01*
X159770956Y-75388702D01*
X159811149Y-75344791D01*
X159872760Y-75275977D01*
X159952673Y-75185839D01*
X160047772Y-75077952D01*
X160154942Y-74955893D01*
X160271066Y-74823240D01*
X160393028Y-74683570D01*
X160517713Y-74540459D01*
X160642004Y-74397484D01*
X160762786Y-74258223D01*
X160876943Y-74126251D01*
X160981359Y-74005147D01*
X161072917Y-73898487D01*
X161148503Y-73809847D01*
X161204999Y-73742806D01*
X161239291Y-73700939D01*
X161242024Y-73697443D01*
X161279140Y-73664931D01*
X161320537Y-73648178D01*
X161352470Y-73650542D01*
X161361967Y-73668130D01*
X161356573Y-73713944D01*
X161341209Y-73795789D01*
X161317096Y-73908866D01*
X161285459Y-74048380D01*
X161247521Y-74209533D01*
X161204505Y-74387530D01*
X161157634Y-74577573D01*
X161108131Y-74774866D01*
X161057221Y-74974612D01*
X161006125Y-75172015D01*
X160956069Y-75362278D01*
X160908274Y-75540604D01*
X160863964Y-75702197D01*
X160824363Y-75842259D01*
X160790693Y-75955995D01*
X160764178Y-76038608D01*
X160746042Y-76085301D01*
X160744987Y-76087346D01*
X160732200Y-76117518D01*
X160746873Y-76119129D01*
X160761546Y-76113288D01*
X160818326Y-76090987D01*
X160907399Y-76058604D01*
X161024174Y-76017639D01*
X161164062Y-75969592D01*
X161322471Y-75915965D01*
X161494813Y-75858257D01*
X161676497Y-75797970D01*
X161862933Y-75736603D01*
X162049530Y-75675658D01*
X162231699Y-75616635D01*
X162404850Y-75561034D01*
X162564392Y-75510356D01*
X162705735Y-75466101D01*
X162824289Y-75429770D01*
X162915465Y-75402864D01*
X162974671Y-75386883D01*
X162995592Y-75382967D01*
X163013725Y-75383963D01*
X163026176Y-75388295D01*
X163031206Y-75397983D01*
X163027077Y-75415043D01*
X163012050Y-75441493D01*
X162984386Y-75479352D01*
X162942347Y-75530637D01*
X162884193Y-75597367D01*
X162808187Y-75681558D01*
X162712589Y-75785230D01*
X162595661Y-75910399D01*
X162455664Y-76059084D01*
X162290860Y-76233302D01*
X162099509Y-76435073D01*
X161986384Y-76554243D01*
X161414884Y-77156167D01*
X161090033Y-77269006D01*
X160983030Y-77307048D01*
X160893598Y-77340530D01*
X160827810Y-77367038D01*
X160791742Y-77384156D01*
X160787518Y-77389289D01*
X160815491Y-77387314D01*
X160876010Y-77376597D01*
X160960591Y-77358825D01*
X161060750Y-77335683D01*
X161076948Y-77331767D01*
X161181123Y-77307203D01*
X161273311Y-77286894D01*
X161344187Y-77272798D01*
X161384426Y-77266870D01*
X161386693Y-77266800D01*
X161415462Y-77272050D01*
X161480833Y-77287075D01*
X161578490Y-77310793D01*
X161704119Y-77342119D01*
X161853403Y-77379969D01*
X162022029Y-77423260D01*
X162205681Y-77470907D01*
X162359091Y-77511057D01*
X163288841Y-77755315D01*
X164716192Y-77749182D01*
X165023544Y-77747548D01*
X165296756Y-77745445D01*
X165534733Y-77742892D01*
X165736377Y-77739910D01*
X165900593Y-77736521D01*
X166026282Y-77732745D01*
X166112350Y-77728602D01*
X166157699Y-77724113D01*
X166164641Y-77721884D01*
X166169197Y-77689755D01*
X166155661Y-77625408D01*
X166126190Y-77533800D01*
X166082941Y-77419889D01*
X166028069Y-77288633D01*
X165963731Y-77144990D01*
X165892084Y-76993919D01*
X165815284Y-76840378D01*
X165735487Y-76689324D01*
X165654850Y-76545715D01*
X165647965Y-76533908D01*
X165540003Y-76356893D01*
X165414006Y-76162695D01*
X165279098Y-75964674D01*
X165144404Y-75776190D01*
X165019047Y-75610604D01*
X165007083Y-75595450D01*
X164923868Y-75496462D01*
X164815273Y-75376221D01*
X164687546Y-75240914D01*
X164546931Y-75096725D01*
X164399677Y-74949838D01*
X164252028Y-74806440D01*
X164110232Y-74672713D01*
X163980534Y-74554844D01*
X163869181Y-74459017D01*
X163817300Y-74417391D01*
X163344562Y-74076525D01*
X162860508Y-73776340D01*
X162364335Y-73516509D01*
X161855238Y-73296707D01*
X161332413Y-73116605D01*
X160795054Y-72975879D01*
X160242358Y-72874200D01*
X159914627Y-72833008D01*
X159754559Y-72819856D01*
X159564509Y-72810150D01*
X159355524Y-72803971D01*
X159138647Y-72801401D01*
X158924924Y-72802522D01*
X158725400Y-72807414D01*
X158551119Y-72816160D01*
X158472717Y-72822389D01*
X157936843Y-72892934D01*
X157402457Y-73003631D01*
X156874777Y-73152768D01*
X156359021Y-73338633D01*
X155860406Y-73559515D01*
X155384152Y-73813700D01*
X155300655Y-73863189D01*
X154827832Y-74172030D01*
X154381951Y-74512398D01*
X153964519Y-74882701D01*
X153577043Y-75281345D01*
X153221031Y-75706740D01*
X152897990Y-76157292D01*
X152609427Y-76631409D01*
X152514829Y-76806490D01*
X152445071Y-76943616D01*
X152375835Y-77086437D01*
X152310121Y-77228121D01*
X152250929Y-77361834D01*
X152201258Y-77480742D01*
X152164108Y-77578012D01*
X152142478Y-77646811D01*
X152139250Y-77662146D01*
X152135394Y-77708119D01*
X151752741Y-77708119D01*
X151880810Y-77356302D01*
X152111198Y-76842358D01*
X152376612Y-76348787D01*
X152675634Y-75877112D01*
X153006849Y-75428858D01*
X153368841Y-75005549D01*
X153760192Y-74608708D01*
X154179488Y-74239860D01*
X154625311Y-73900529D01*
X155096245Y-73592238D01*
X155590874Y-73316512D01*
X156107782Y-73074874D01*
X156645552Y-72868849D01*
X156735486Y-72838616D01*
X157086884Y-72730023D01*
X157423546Y-72641866D01*
X157753977Y-72572957D01*
X158086684Y-72522109D01*
X158430171Y-72488135D01*
X158792944Y-72469848D01*
X159183509Y-72466059D01*
X159382884Y-72469032D01*
X159625111Y-72475798D01*
X159834565Y-72485316D01*
X160020766Y-72498582D01*
X160193238Y-72516593D01*
X160361504Y-72540345D01*
X160535085Y-72570833D01*
X160723505Y-72609054D01*
X160725553Y-72609491D01*
X161292195Y-72751741D01*
X161845424Y-72933482D01*
X162383022Y-73153668D01*
X162902771Y-73411257D01*
X163402456Y-73705205D01*
X163879859Y-74034467D01*
X164081884Y-74189941D01*
X164207362Y-74295195D01*
X164352618Y-74426105D01*
X164510600Y-74575583D01*
X164674258Y-74736537D01*
X164836540Y-74901881D01*
X164990395Y-75064523D01*
X165128770Y-75217374D01*
X165244615Y-75353346D01*
X165268511Y-75382967D01*
X165617315Y-75853489D01*
X165927653Y-76340230D01*
X166199041Y-76842293D01*
X166430991Y-77358780D01*
X166619843Y-77878911D01*
X166710163Y-78178083D01*
X166786715Y-78474122D01*
X166850660Y-78774180D01*
X166903161Y-79085408D01*
X166945381Y-79414958D01*
X166978482Y-79769983D01*
X167003627Y-80157632D01*
X167009559Y-80276371D01*
X167017488Y-80427084D01*
X167026078Y-80539958D01*
X167036655Y-80619485D01*
X167050545Y-80670153D01*
X167069073Y-80696454D01*
X167093566Y-80702876D01*
X167125349Y-80693910D01*
X167131998Y-80690985D01*
X167177477Y-80652966D01*
X167199183Y-80612796D01*
X167203584Y-80576058D01*
X167207245Y-80504012D01*
X167209996Y-80403680D01*
X167211663Y-80282082D01*
X167212077Y-80146240D01*
X167211871Y-80092550D01*
X167188372Y-79541397D01*
X167124063Y-78996734D01*
X167018652Y-78457357D01*
X166871846Y-77922063D01*
X166683354Y-77389647D01*
X166452881Y-76858907D01*
X166399448Y-76748217D01*
X166146147Y-76269614D01*
X165870339Y-75821629D01*
X165567319Y-75397768D01*
X165232381Y-74991538D01*
X164860821Y-74596443D01*
X164788203Y-74524553D01*
X164356273Y-74130786D01*
X163899808Y-73771257D01*
X163420248Y-73446806D01*
X162919034Y-73158271D01*
X162397607Y-72906491D01*
X161857407Y-72692305D01*
X161377375Y-72538369D01*
X160940714Y-72425167D01*
X160510756Y-72338994D01*
X160079001Y-72278933D01*
X159636951Y-72244062D01*
X159176106Y-72233461D01*
X158687968Y-72246213D01*
X158680988Y-72246548D01*
X158119019Y-72294517D01*
X157566314Y-72382730D01*
X157024592Y-72509777D01*
X156495570Y-72674245D01*
X155980966Y-72874725D01*
X155482500Y-73109806D01*
X155001888Y-73378075D01*
X154540850Y-73678123D01*
X154101104Y-74008538D01*
X153684367Y-74367910D01*
X153292358Y-74754826D01*
X152926796Y-75167876D01*
X152589397Y-75605650D01*
X152281882Y-76066736D01*
X152005967Y-76549723D01*
X151763371Y-77053200D01*
X151555812Y-77575755D01*
X151385009Y-78115979D01*
X151343495Y-78272217D01*
X151275865Y-78548937D01*
X151221943Y-78797715D01*
X151180148Y-79030086D01*
X151148900Y-79257585D01*
X151126618Y-79491745D01*
X151111720Y-79744102D01*
X151102627Y-80026189D01*
X151102535Y-80030324D01*
X151098925Y-80210129D01*
X151097351Y-80352401D01*
X150515004Y-80352401D01*
X150514926Y-80332094D01*
X150514849Y-80272467D01*
X150514749Y-80051626D01*
X150515291Y-79866504D01*
X150517049Y-79710488D01*
X150520594Y-79576963D01*
X150526499Y-79459317D01*
X150535338Y-79350934D01*
X150547683Y-79245201D01*
X150564107Y-79135504D01*
X150585183Y-79015230D01*
X150611483Y-78877764D01*
X150643579Y-78716492D01*
X150654159Y-78663800D01*
X150795883Y-78062102D01*
X150975254Y-77478626D01*
X151191436Y-76914560D01*
X151443588Y-76371091D01*
X151730872Y-75849405D01*
X152052449Y-75350689D01*
X152407481Y-74876131D01*
X152795127Y-74426916D01*
X153214549Y-74004231D01*
X153664909Y-73609264D01*
X154145366Y-73243202D01*
X154655084Y-72907230D01*
X154773769Y-72835874D01*
X155300884Y-72547681D01*
X155839021Y-72299948D01*
X156390831Y-72091667D01*
X156958967Y-71921830D01*
X157506558Y-71797059D01*
X157691178Y-71761077D01*
X157846988Y-71731364D01*
X157980728Y-71707323D01*
X158099136Y-71688354D01*
X158208951Y-71673860D01*
X158316913Y-71663242D01*
X158429759Y-71655903D01*
X158554228Y-71651244D01*
X158697059Y-71648667D01*
X158864992Y-71647575D01*
X159064764Y-71647367D01*
X159192384Y-71647415D01*
X159192384Y-71647415D01*
G37*
X159192384Y-71647415D02*
X160039050Y-71647780D01*
X160409467Y-71717322D01*
X160552712Y-71744626D01*
X160703288Y-71774030D01*
X160847317Y-71802777D01*
X160970920Y-71828114D01*
X161023300Y-71839195D01*
X161577765Y-71979774D01*
X162123692Y-72160397D01*
X162658477Y-72379191D01*
X163179515Y-72634285D01*
X163684201Y-72923806D01*
X164169933Y-73245882D01*
X164634104Y-73598643D01*
X165074111Y-73980214D01*
X165487350Y-74388725D01*
X165871216Y-74822304D01*
X166223105Y-75279078D01*
X166540412Y-75757176D01*
X166591327Y-75841446D01*
X166826190Y-76260846D01*
X167034864Y-76687854D01*
X167219123Y-77127595D01*
X167380739Y-77585193D01*
X167521485Y-78065773D01*
X167643135Y-78574459D01*
X167747461Y-79116378D01*
X167769131Y-79245884D01*
X167781850Y-79351038D01*
X167792251Y-79491535D01*
X167800336Y-79660446D01*
X167806107Y-79850844D01*
X167809565Y-80055801D01*
X167810713Y-80268389D01*
X167809551Y-80481681D01*
X167806082Y-80688749D01*
X167800306Y-80882665D01*
X167792226Y-81056502D01*
X167781843Y-81203332D01*
X167769159Y-81316227D01*
X167768654Y-81319606D01*
X167740229Y-81494247D01*
X167704645Y-81691943D01*
X167664307Y-81900767D01*
X167621624Y-82108795D01*
X167579003Y-82304102D01*
X167538849Y-82474763D01*
X167522303Y-82540052D01*
X167357086Y-83090305D01*
X167151992Y-83630306D01*
X166908754Y-84157574D01*
X166629110Y-84669627D01*
X166314794Y-85163982D01*
X165967543Y-85638156D01*
X165589093Y-86089668D01*
X165181179Y-86516036D01*
X164745537Y-86914776D01*
X164283903Y-87283408D01*
X164124217Y-87399400D01*
X163759808Y-87639988D01*
X163362383Y-87869784D01*
X162940764Y-88084458D01*
X162503773Y-88279676D01*
X162060232Y-88451109D01*
X161809594Y-88535967D01*
X161526605Y-88621256D01*
X161229589Y-88700789D01*
X160928330Y-88772436D01*
X160632615Y-88834068D01*
X160352227Y-88883556D01*
X160096953Y-88918772D01*
X160007300Y-88928086D01*
X159919750Y-88933875D01*
X159798107Y-88938645D01*
X159650598Y-88942348D01*
X159485451Y-88944937D01*
X159310896Y-88946366D01*
X159135160Y-88946587D01*
X158966471Y-88945553D01*
X158813058Y-88943216D01*
X158683150Y-88939529D01*
X158610300Y-88936102D01*
X158053915Y-88882647D01*
X157495362Y-88788459D01*
X156938212Y-88654746D01*
X156386036Y-88482719D01*
X155842405Y-88273585D01*
X155310890Y-88028555D01*
X154795063Y-87748837D01*
X154422313Y-87518108D01*
X154092337Y-87293098D01*
X153787826Y-87064980D01*
X153497869Y-86824743D01*
X153211556Y-86563377D01*
X152937535Y-86291955D01*
X152531546Y-85847306D01*
X152162226Y-85382614D01*
X151829198Y-84897160D01*
X151532089Y-84390226D01*
X151270524Y-83861093D01*
X151123171Y-83501783D01*
X151780584Y-83501783D01*
X151781947Y-83544268D01*
X151804031Y-83617719D01*
X151844484Y-83717610D01*
X151900955Y-83839414D01*
X151971089Y-83978606D01*
X152052535Y-84130660D01*
X152142940Y-84291049D01*
X152239952Y-84455247D01*
X152341218Y-84618729D01*
X152439975Y-84770384D01*
X152764009Y-85219060D01*
X153123563Y-85650881D01*
X153513407Y-86060454D01*
X153928311Y-86442390D01*
X154363045Y-86791298D01*
X154492999Y-86886191D01*
X154908701Y-87161501D01*
X155350392Y-87413633D01*
X155812292Y-87640439D01*
X156288623Y-87839769D01*
X156773604Y-88009475D01*
X157261457Y-88147408D01*
X157746401Y-88251419D01*
X158222657Y-88319359D01*
X158388050Y-88334359D01*
X158527336Y-88342529D01*
X158697671Y-88348596D01*
X158889379Y-88352552D01*
X159092784Y-88354390D01*
X159298212Y-88354103D01*
X159495986Y-88351682D01*
X159676432Y-88347120D01*
X159829873Y-88340410D01*
X159902527Y-88335543D01*
X160399321Y-88276963D01*
X160904493Y-88180359D01*
X161412317Y-88047621D01*
X161917065Y-87880638D01*
X162413007Y-87681300D01*
X162894417Y-87451496D01*
X163343377Y-87200483D01*
X163756848Y-86930023D01*
X164164472Y-86622075D01*
X164561006Y-86281484D01*
X164941206Y-85913090D01*
X165299829Y-85521738D01*
X165631631Y-85112268D01*
X165692530Y-85031034D01*
X165836391Y-84826979D01*
X165983367Y-84600949D01*
X166127293Y-84363499D01*
X166262003Y-84125186D01*
X166381330Y-83896565D01*
X166479109Y-83688192D01*
X166485396Y-83673689D01*
X166522065Y-83582414D01*
X166536519Y-83522636D01*
X166526269Y-83488391D01*
X166488823Y-83473717D01*
X166421693Y-83472653D01*
X166401862Y-83473703D01*
X166343137Y-83479861D01*
X166311600Y-83497123D01*
X166292115Y-83537427D01*
X166282867Y-83567548D01*
X166263476Y-83618628D01*
X166228384Y-83697220D01*
X166182126Y-83793653D01*
X166129239Y-83898258D01*
X166114190Y-83927069D01*
X165827951Y-84426138D01*
X165508068Y-84900567D01*
X165156269Y-85348889D01*
X164774282Y-85769634D01*
X164363835Y-86161334D01*
X163926657Y-86522519D01*
X163464475Y-86851721D01*
X162979017Y-87147471D01*
X162472012Y-87408300D01*
X161945187Y-87632738D01*
X161615967Y-87750769D01*
X161331932Y-87837810D01*
X161024147Y-87918389D01*
X160706429Y-87989522D01*
X160392591Y-88048224D01*
X160096450Y-88091511D01*
X159977519Y-88104689D01*
X159871511Y-88112360D01*
X159731381Y-88118394D01*
X159565271Y-88122791D01*
X159381322Y-88125552D01*
X159187676Y-88126678D01*
X158992475Y-88126168D01*
X158803860Y-88124023D01*
X158629972Y-88120243D01*
X158478954Y-88114829D01*
X158358947Y-88107781D01*
X158322581Y-88104616D01*
X157845761Y-88039490D01*
X157359114Y-87938504D01*
X156870607Y-87804209D01*
X156388204Y-87639160D01*
X155919869Y-87445908D01*
X155473568Y-87227008D01*
X155318884Y-87141880D01*
X154826126Y-86838357D01*
X154358828Y-86502070D01*
X153918587Y-86134686D01*
X153506997Y-85737870D01*
X153125652Y-85313288D01*
X152776147Y-84862605D01*
X152460079Y-84387489D01*
X152179040Y-83889603D01*
X152149389Y-83831653D01*
X152098940Y-83729433D01*
X152056289Y-83638062D01*
X152024873Y-83565298D01*
X152008132Y-83518895D01*
X152006300Y-83508861D01*
X152005729Y-83506637D01*
X152343422Y-83506637D01*
X152345192Y-83520351D01*
X152352749Y-83530011D01*
X152373314Y-83559978D01*
X152409757Y-83619508D01*
X152457599Y-83701047D01*
X152512362Y-83797038D01*
X152535906Y-83839050D01*
X152802828Y-84290401D01*
X153080947Y-84704941D01*
X153374607Y-85087634D01*
X153688150Y-85443445D01*
X154025922Y-85777336D01*
X154392265Y-86094273D01*
X154749617Y-86368849D01*
X154860692Y-86448813D01*
X154973477Y-86528269D01*
X155077891Y-86600233D01*
X155163854Y-86657720D01*
X155199116Y-86680324D01*
X155275990Y-86727802D01*
X155327431Y-86752388D01*
X155361880Y-86750542D01*
X155387775Y-86718723D01*
X155413555Y-86653392D01*
X155437936Y-86580134D01*
X155533241Y-86347387D01*
X155655272Y-86139269D01*
X155800960Y-85958839D01*
X155967230Y-85809156D01*
X156151012Y-85693279D01*
X156349234Y-85614268D01*
X156427551Y-85594579D01*
X156511691Y-85581116D01*
X156611781Y-85571665D01*
X156717355Y-85566417D01*
X156817946Y-85565565D01*
X156903088Y-85569300D01*
X156962317Y-85577813D01*
X156979833Y-85584460D01*
X156993122Y-85613582D01*
X157004926Y-85679819D01*
X157015041Y-85777971D01*
X157023267Y-85902839D01*
X157029401Y-86049224D01*
X157033240Y-86211927D01*
X157034582Y-86385748D01*
X157033226Y-86565488D01*
X157028969Y-86745948D01*
X157027089Y-86799628D01*
X157021214Y-86951026D01*
X157015128Y-87065569D01*
X157006645Y-87148686D01*
X156993582Y-87205808D01*
X156973755Y-87242368D01*
X156944981Y-87263795D01*
X156905075Y-87275521D01*
X156851853Y-87282977D01*
X156831780Y-87285333D01*
X156750518Y-87297444D01*
X156706534Y-87311714D01*
X156694781Y-87331144D01*
X156709564Y-87357956D01*
X156762890Y-87399840D01*
X156841683Y-87436562D01*
X156929103Y-87461549D01*
X156993236Y-87468669D01*
X157080088Y-87469134D01*
X157083922Y-87423780D01*
X158485979Y-87423780D01*
X158500118Y-87445522D01*
X158515153Y-87457758D01*
X158584654Y-87501822D01*
X158678869Y-87549288D01*
X158781533Y-87592951D01*
X158876377Y-87625609D01*
X158917432Y-87635895D01*
X158987470Y-87645050D01*
X159082947Y-87651072D01*
X159187025Y-87653046D01*
X159224380Y-87652566D01*
X159324658Y-87648817D01*
X159399023Y-87640495D01*
X159463888Y-87623839D01*
X159535666Y-87595088D01*
X159594706Y-87567703D01*
X159710906Y-87508778D01*
X159786600Y-87461518D01*
X159821921Y-87425722D01*
X159817000Y-87401193D01*
X159771971Y-87387733D01*
X159716746Y-87384791D01*
X159669217Y-87378584D01*
X159633986Y-87356749D01*
X159608708Y-87313688D01*
X159591039Y-87243803D01*
X159578634Y-87141498D01*
X159571210Y-87037387D01*
X159563571Y-86926860D01*
X159554791Y-86854860D01*
X159542909Y-86821711D01*
X159525966Y-86827739D01*
X159502000Y-86873268D01*
X159469050Y-86958625D01*
X159433374Y-87060245D01*
X159383528Y-87190511D01*
X159335191Y-87283419D01*
X159284549Y-87343611D01*
X159227785Y-87375727D01*
X159166770Y-87384467D01*
X159103631Y-87377895D01*
X159054638Y-87361713D01*
X159048902Y-87358009D01*
X159019302Y-87321059D01*
X158980566Y-87251115D01*
X158936130Y-87155604D01*
X158889435Y-87041954D01*
X158843917Y-86917593D01*
X158840706Y-86908217D01*
X158790217Y-86760050D01*
X158777035Y-86992884D01*
X158771417Y-87091187D01*
X158766457Y-87176295D01*
X158762769Y-87237780D01*
X158761160Y-87262759D01*
X158738117Y-87317942D01*
X158686437Y-87361906D01*
X158619814Y-87383948D01*
X158605009Y-87384791D01*
X158546768Y-87390970D01*
X158504570Y-87405122D01*
X158485979Y-87423780D01*
X157083922Y-87423780D01*
X157093778Y-87307190D01*
X157100957Y-87199378D01*
X157105914Y-87081222D01*
X157107467Y-86992336D01*
X157109328Y-86905289D01*
X157114197Y-86825885D01*
X157120774Y-86772889D01*
X157134081Y-86706353D01*
X157610137Y-86712035D01*
X158086192Y-86717717D01*
X158144353Y-86882532D01*
X158183079Y-86984417D01*
X158225108Y-87082129D01*
X158266668Y-87168223D01*
X158303984Y-87235257D01*
X158333282Y-87275787D01*
X158348035Y-87284242D01*
X158358675Y-87261146D01*
X158368198Y-87201733D01*
X158376357Y-87112008D01*
X158382908Y-86997977D01*
X158387605Y-86865647D01*
X158390203Y-86721025D01*
X158390457Y-86570115D01*
X158388121Y-86418926D01*
X158386132Y-86351606D01*
X158379829Y-86198726D01*
X158372774Y-86086442D01*
X158364797Y-86013017D01*
X158355731Y-85976719D01*
X158349429Y-85972118D01*
X158321968Y-85997769D01*
X158285512Y-86054135D01*
X158244550Y-86131802D01*
X158203571Y-86221354D01*
X158167064Y-86313380D01*
X158139519Y-86398464D01*
X158132174Y-86427734D01*
X158115346Y-86499167D01*
X158097273Y-86553738D01*
X158072425Y-86593717D01*
X158035270Y-86621374D01*
X157980276Y-86638980D01*
X157901913Y-86648803D01*
X157794649Y-86653116D01*
X157652952Y-86654187D01*
X157580348Y-86654217D01*
X157427493Y-86653439D01*
X157312484Y-86650918D01*
X157230860Y-86646370D01*
X157178159Y-86639513D01*
X157149920Y-86630065D01*
X157145554Y-86626685D01*
X157136748Y-86607987D01*
X157129890Y-86568914D01*
X157124790Y-86505438D01*
X157121260Y-86413534D01*
X157119108Y-86289174D01*
X157118146Y-86128331D01*
X157118050Y-86042921D01*
X157118050Y-85841745D01*
X158487715Y-85841745D01*
X158499642Y-85869663D01*
X158548645Y-85888887D01*
X158636308Y-85899791D01*
X158747037Y-85902800D01*
X158878482Y-85902800D01*
X158991517Y-86289092D01*
X159037061Y-86443898D01*
X159072656Y-86562187D01*
X159099898Y-86648169D01*
X159120383Y-86706057D01*
X159135709Y-86740061D01*
X159147473Y-86754392D01*
X159157270Y-86753261D01*
X159164304Y-86744776D01*
X159176097Y-86716692D01*
X159198197Y-86655160D01*
X159228233Y-86567124D01*
X159263833Y-86459525D01*
X159300076Y-86347300D01*
X159339468Y-86227232D01*
X159376655Y-86119937D01*
X159409032Y-86032469D01*
X159433995Y-85971886D01*
X159448223Y-85945910D01*
X159487335Y-85926868D01*
X159561250Y-85910712D01*
X159649011Y-85900248D01*
X159730107Y-85891889D01*
X159793978Y-85882709D01*
X159829644Y-85874367D01*
X159833064Y-85872425D01*
X159830955Y-85848036D01*
X159792890Y-85810580D01*
X159722249Y-85762645D01*
X159622410Y-85706816D01*
X159605134Y-85697925D01*
X159446384Y-85617050D01*
X158869171Y-85617050D01*
X158681655Y-85712300D01*
X158601289Y-85756078D01*
X158536747Y-85796816D01*
X158496601Y-85828794D01*
X158487715Y-85841745D01*
X157118050Y-85841745D01*
X157118050Y-85486688D01*
X157181550Y-85384597D01*
X157274613Y-85264896D01*
X157380649Y-85182678D01*
X157496991Y-85139977D01*
X157503816Y-85138786D01*
X157546996Y-85135228D01*
X157628053Y-85132070D01*
X157742815Y-85129310D01*
X157887111Y-85126945D01*
X158056767Y-85124972D01*
X158247612Y-85123387D01*
X158455475Y-85122188D01*
X158676183Y-85121372D01*
X158905565Y-85120935D01*
X159139448Y-85120875D01*
X159373660Y-85121189D01*
X159604031Y-85121873D01*
X159826386Y-85122925D01*
X160036556Y-85124342D01*
X160230367Y-85126120D01*
X160403648Y-85128257D01*
X160552228Y-85130749D01*
X160671933Y-85133594D01*
X160758592Y-85136788D01*
X160808033Y-85140329D01*
X160813619Y-85141177D01*
X160895506Y-85163792D01*
X160962750Y-85202594D01*
X161019338Y-85252302D01*
X161080793Y-85315568D01*
X161126253Y-85374084D01*
X161158460Y-85436202D01*
X161180158Y-85510275D01*
X161194088Y-85604657D01*
X161202995Y-85727700D01*
X161207301Y-85824744D01*
X161211009Y-85970622D01*
X161211264Y-86117585D01*
X161208392Y-86258555D01*
X161202721Y-86386455D01*
X161194575Y-86494208D01*
X161184281Y-86574736D01*
X161172166Y-86620962D01*
X161170456Y-86624111D01*
X161143506Y-86634622D01*
X161082069Y-86643122D01*
X160993949Y-86649574D01*
X160886946Y-86653939D01*
X160768863Y-86656180D01*
X160647501Y-86656259D01*
X160530661Y-86654137D01*
X160426146Y-86649778D01*
X160341758Y-86643142D01*
X160285297Y-86634192D01*
X160269349Y-86628489D01*
X160234602Y-86589954D01*
X160203695Y-86514605D01*
X160189777Y-86464607D01*
X160147643Y-86325382D01*
X160093886Y-86190029D01*
X160034879Y-86073586D01*
X160003028Y-86023800D01*
X159954999Y-85956350D01*
X159940036Y-86040700D01*
X159935645Y-86087504D01*
X159932135Y-86168545D01*
X159929499Y-86276510D01*
X159927729Y-86404082D01*
X159926818Y-86543946D01*
X159926760Y-86688788D01*
X159927547Y-86831291D01*
X159929172Y-86964142D01*
X159931629Y-87080024D01*
X159934910Y-87171622D01*
X159939008Y-87231621D01*
X159941196Y-87246742D01*
X159954750Y-87310100D01*
X160000534Y-87245803D01*
X160049865Y-87163247D01*
X160102064Y-87053772D01*
X160150784Y-86931775D01*
X160185659Y-86825775D01*
X160220149Y-86707134D01*
X160672297Y-86707134D01*
X160838672Y-86706692D01*
X160967655Y-86707722D01*
X161064137Y-86713754D01*
X161133010Y-86728321D01*
X161179164Y-86754954D01*
X161207492Y-86797183D01*
X161222884Y-86858542D01*
X161230231Y-86942561D01*
X161234425Y-87052772D01*
X161236698Y-87114637D01*
X161242278Y-87229493D01*
X161248945Y-87330245D01*
X161256034Y-87408898D01*
X161262878Y-87457459D01*
X161266172Y-87468253D01*
X161300472Y-87484530D01*
X161366069Y-87476839D01*
X161459748Y-87445728D01*
X161501704Y-87428028D01*
X161567698Y-87390876D01*
X161607747Y-87351941D01*
X161615971Y-87317812D01*
X161609382Y-87307326D01*
X161583628Y-87298814D01*
X161528506Y-87288540D01*
X161467413Y-87280165D01*
X161395973Y-87267728D01*
X161341849Y-87250915D01*
X161319651Y-87236329D01*
X161307052Y-87193667D01*
X161296592Y-87111915D01*
X161288389Y-86994269D01*
X161282563Y-86843924D01*
X161279232Y-86664074D01*
X161278516Y-86457917D01*
X161280533Y-86228645D01*
X161280997Y-86197600D01*
X161283671Y-86015267D01*
X161286559Y-85870865D01*
X161291484Y-85760023D01*
X161300267Y-85678369D01*
X161314729Y-85621531D01*
X161336691Y-85585137D01*
X161367974Y-85564816D01*
X161410400Y-85556196D01*
X161465789Y-85554905D01*
X161535964Y-85556573D01*
X161547947Y-85556809D01*
X161794508Y-85579529D01*
X162019892Y-85638767D01*
X162224770Y-85734781D01*
X162409812Y-85867828D01*
X162448671Y-85902791D01*
X162584429Y-86047576D01*
X162697826Y-86209585D01*
X162795049Y-86398445D01*
X162844320Y-86518436D01*
X162879471Y-86608178D01*
X162910660Y-86683285D01*
X162934069Y-86734828D01*
X162944685Y-86753152D01*
X162971451Y-86751272D01*
X163027495Y-86725732D01*
X163108908Y-86679156D01*
X163211784Y-86614171D01*
X163332217Y-86533401D01*
X163466299Y-86439472D01*
X163610124Y-86335009D01*
X163759784Y-86222637D01*
X163911372Y-86104982D01*
X163923134Y-86095683D01*
X164034615Y-86002161D01*
X164166116Y-85883287D01*
X164310532Y-85746208D01*
X164460754Y-85598070D01*
X164609677Y-85446022D01*
X164750192Y-85297210D01*
X164875194Y-85158781D01*
X164977575Y-85037882D01*
X164988408Y-85024384D01*
X165164918Y-84791713D01*
X165348449Y-84529124D01*
X165532266Y-84246734D01*
X165709635Y-83954660D01*
X165770304Y-83849634D01*
X165969240Y-83500384D01*
X165851062Y-83486806D01*
X165815968Y-83485167D01*
X165741086Y-83483558D01*
X165628958Y-83481990D01*
X165482129Y-83480478D01*
X165303144Y-83479034D01*
X165094546Y-83477670D01*
X164858879Y-83476401D01*
X164598688Y-83475238D01*
X164316517Y-83474196D01*
X164014909Y-83473286D01*
X163696410Y-83472522D01*
X163363562Y-83471917D01*
X163018911Y-83471484D01*
X162811884Y-83471314D01*
X159890884Y-83469400D01*
X160004356Y-83531951D01*
X160164798Y-83639054D01*
X160322495Y-83778886D01*
X160469082Y-83942219D01*
X160596193Y-84119826D01*
X160687760Y-84285804D01*
X160737642Y-84405412D01*
X160782660Y-84538311D01*
X160819340Y-84671815D01*
X160844212Y-84793235D01*
X160853802Y-84889885D01*
X160853819Y-84892616D01*
X160848706Y-84948911D01*
X160826940Y-84979929D01*
X160795759Y-84995825D01*
X160764197Y-85000942D01*
X160695559Y-85005696D01*
X160589188Y-85010099D01*
X160444426Y-85014166D01*
X160260616Y-85017910D01*
X160037102Y-85021344D01*
X159773228Y-85024482D01*
X159468335Y-85027336D01*
X159121767Y-85029921D01*
X159121325Y-85029924D01*
X158815589Y-85031869D01*
X158549538Y-85033324D01*
X158320529Y-85034260D01*
X158125914Y-85034647D01*
X157963050Y-85034455D01*
X157829291Y-85033654D01*
X157721993Y-85032213D01*
X157638509Y-85030104D01*
X157576194Y-85027295D01*
X157532405Y-85023757D01*
X157504495Y-85019460D01*
X157489819Y-85014373D01*
X157486524Y-85011381D01*
X157468137Y-84950047D01*
X157467117Y-84858683D01*
X157481510Y-84744927D01*
X157509361Y-84616415D01*
X157548717Y-84480784D01*
X157564151Y-84438145D01*
X157935670Y-84438145D01*
X157961499Y-84536534D01*
X157981096Y-84570958D01*
X158064264Y-84664142D01*
X158160432Y-84719647D01*
X158265081Y-84736004D01*
X158373697Y-84711746D01*
X158390865Y-84704129D01*
X158456852Y-84654563D01*
X158515164Y-84579584D01*
X158555503Y-84495254D01*
X158567967Y-84427895D01*
X158567171Y-84423876D01*
X159764589Y-84423876D01*
X159777348Y-84535390D01*
X159818466Y-84619511D01*
X159892201Y-84683655D01*
X159924138Y-84701559D01*
X160021385Y-84733989D01*
X160119268Y-84729031D01*
X160218207Y-84691009D01*
X160306076Y-84625071D01*
X160362439Y-84539177D01*
X160387032Y-84441943D01*
X160379587Y-84341982D01*
X160339840Y-84247909D01*
X160267524Y-84168338D01*
X160235035Y-84145852D01*
X160136914Y-84109792D01*
X160027964Y-84110612D01*
X159922100Y-84146239D01*
X159839497Y-84201746D01*
X159789594Y-84271678D01*
X159767151Y-84365275D01*
X159764589Y-84423876D01*
X158567171Y-84423876D01*
X158551249Y-84343589D01*
X158507762Y-84255159D01*
X158447506Y-84179457D01*
X158398106Y-84141602D01*
X158303503Y-84111518D01*
X158197959Y-84112935D01*
X158097424Y-84144659D01*
X158060276Y-84166913D01*
X157987208Y-84242366D01*
X157944956Y-84336433D01*
X157935670Y-84438145D01*
X157564151Y-84438145D01*
X157597624Y-84345672D01*
X157654126Y-84218716D01*
X157716271Y-84107553D01*
X157718788Y-84103634D01*
X157780198Y-84020272D01*
X157862981Y-83924172D01*
X157959129Y-83823109D01*
X158060635Y-83724856D01*
X158159490Y-83637189D01*
X158247687Y-83567880D01*
X158312943Y-83526807D01*
X158428336Y-83468634D01*
X155550693Y-83468760D01*
X155201723Y-83468875D01*
X154862310Y-83469181D01*
X154535086Y-83469666D01*
X154222683Y-83470318D01*
X153927731Y-83471126D01*
X153652862Y-83472077D01*
X153400708Y-83473160D01*
X153173899Y-83474362D01*
X152975068Y-83475672D01*
X152806846Y-83477079D01*
X152671863Y-83478570D01*
X152572753Y-83480133D01*
X152512145Y-83481756D01*
X152498013Y-83482513D01*
X152413137Y-83489907D01*
X152363839Y-83497219D01*
X152343422Y-83506637D01*
X152005729Y-83506637D01*
X152000084Y-83484683D01*
X151974647Y-83472597D01*
X151919806Y-83468756D01*
X151899803Y-83468634D01*
X151827836Y-83473266D01*
X151789700Y-83488579D01*
X151780584Y-83501783D01*
X151123171Y-83501783D01*
X151044128Y-83309043D01*
X150852527Y-82733355D01*
X150695347Y-82133313D01*
X150642345Y-81887872D01*
X150611693Y-81733731D01*
X150586368Y-81596335D01*
X150565865Y-81469286D01*
X150549679Y-81346185D01*
X150537304Y-81220630D01*
X150528236Y-81086224D01*
X150522967Y-80960384D01*
X151149050Y-80960384D01*
X151151348Y-81214384D01*
X151154364Y-81328611D01*
X151162213Y-81436066D01*
X151176397Y-81548632D01*
X151198417Y-81678192D01*
X151229774Y-81836628D01*
X151230256Y-81838961D01*
X151262942Y-81988386D01*
X151301243Y-82149139D01*
X151343517Y-82315573D01*
X151388120Y-82482040D01*
X151433408Y-82642892D01*
X151477739Y-82792482D01*
X151519469Y-82925163D01*
X151556956Y-83035285D01*
X151588556Y-83117203D01*
X151612626Y-83165268D01*
X151618190Y-83172300D01*
X151626824Y-83175395D01*
X151647168Y-83178306D01*
X151680393Y-83181037D01*
X151727667Y-83183593D01*
X151790159Y-83185980D01*
X151869039Y-83188202D01*
X151965476Y-83190265D01*
X152080638Y-83192172D01*
X152215695Y-83193929D01*
X152371815Y-83195541D01*
X152550168Y-83197013D01*
X152751923Y-83198350D01*
X152978249Y-83199556D01*
X153230315Y-83200637D01*
X153509290Y-83201597D01*
X153816343Y-83202441D01*
X154152643Y-83203175D01*
X154519360Y-83203802D01*
X154917662Y-83204329D01*
X155348718Y-83204760D01*
X155813698Y-83205100D01*
X156313770Y-83205353D01*
X156850104Y-83205525D01*
X157423868Y-83205620D01*
X158036232Y-83205644D01*
X158688365Y-83205602D01*
X159381436Y-83205497D01*
X159520467Y-83205471D01*
X160193496Y-83205309D01*
X160825355Y-83205098D01*
X161417206Y-83204834D01*
X161970213Y-83204511D01*
X162485537Y-83204126D01*
X162964342Y-83203673D01*
X163407790Y-83203148D01*
X163817045Y-83202547D01*
X164193269Y-83201864D01*
X164537624Y-83201096D01*
X164851275Y-83200238D01*
X165135383Y-83199284D01*
X165391111Y-83198231D01*
X165619622Y-83197074D01*
X165822079Y-83195809D01*
X165999645Y-83194430D01*
X166153482Y-83192933D01*
X166284754Y-83191313D01*
X166394623Y-83189567D01*
X166484251Y-83187689D01*
X166554803Y-83185675D01*
X166607440Y-83183520D01*
X166643325Y-83181219D01*
X166663621Y-83178769D01*
X166668755Y-83177251D01*
X166691147Y-83155844D01*
X166715869Y-83113328D01*
X166745133Y-83044588D01*
X166781150Y-82944506D01*
X166819684Y-82828001D01*
X166886772Y-82610322D01*
X166948900Y-82389684D01*
X167005286Y-82170401D01*
X167055147Y-81956788D01*
X167097699Y-81753160D01*
X167132159Y-81563832D01*
X167157745Y-81393121D01*
X167173673Y-81245340D01*
X167179159Y-81124805D01*
X167173421Y-81035830D01*
X167155675Y-80982732D01*
X167154807Y-80981550D01*
X167151530Y-80977637D01*
X167146922Y-80973971D01*
X167139631Y-80970543D01*
X167128302Y-80967345D01*
X167111585Y-80964366D01*
X167088124Y-80961598D01*
X167056568Y-80959031D01*
X167015563Y-80956656D01*
X166963756Y-80954464D01*
X166899795Y-80952445D01*
X166822326Y-80950591D01*
X166729996Y-80948891D01*
X166621452Y-80947337D01*
X166495342Y-80945919D01*
X166350312Y-80944628D01*
X166185009Y-80943454D01*
X165998080Y-80942389D01*
X165788173Y-80941423D01*
X165553933Y-80940547D01*
X165294009Y-80939752D01*
X165007047Y-80939028D01*
X164691694Y-80938366D01*
X164346597Y-80937756D01*
X163970403Y-80937190D01*
X163561759Y-80936658D01*
X163119312Y-80936151D01*
X162641710Y-80935660D01*
X162127598Y-80935175D01*
X161575625Y-80934687D01*
X160984436Y-80934186D01*
X160352680Y-80933664D01*
X160151883Y-80933499D01*
X159599327Y-80933099D01*
X159051995Y-80932807D01*
X158511769Y-80932620D01*
X157980528Y-80932536D01*
X157460151Y-80932552D01*
X156952519Y-80932666D01*
X156459511Y-80932875D01*
X155983006Y-80933177D01*
X155524885Y-80933570D01*
X155087026Y-80934050D01*
X154671311Y-80934616D01*
X154279618Y-80935264D01*
X153913828Y-80935993D01*
X153575820Y-80936800D01*
X153267473Y-80937682D01*
X152990668Y-80938638D01*
X152747284Y-80939663D01*
X152539201Y-80940757D01*
X152368299Y-80941916D01*
X152236457Y-80943138D01*
X152165050Y-80944083D01*
X151149050Y-80960384D01*
X150522967Y-80960384D01*
X150521969Y-80936567D01*
X150517998Y-80765259D01*
X150515819Y-80565901D01*
X150515004Y-80352401D01*
X151097351Y-80352401D01*
X151098422Y-80461912D01*
X151102748Y-80543440D01*
X151110938Y-80601757D01*
X151123602Y-80641640D01*
X151141350Y-80667863D01*
X151164790Y-80685202D01*
X151187476Y-80695652D01*
X151235310Y-80712248D01*
X151258644Y-80706704D01*
X151271548Y-80674323D01*
X151273430Y-80666953D01*
X151278149Y-80631438D01*
X151284183Y-80560682D01*
X151291056Y-80461737D01*
X151298289Y-80341658D01*
X151305403Y-80207498D01*
X151307505Y-80164245D01*
X151322579Y-79879705D01*
X151339541Y-79629583D01*
X151357172Y-79431184D01*
X155757152Y-79431184D01*
X155757411Y-79583365D01*
X155779801Y-79705525D01*
X155826358Y-79804902D01*
X155880975Y-79871475D01*
X155990749Y-79952316D01*
X156122349Y-80001075D01*
X156268475Y-80016395D01*
X156421825Y-79996913D01*
X156474537Y-79982048D01*
X156581756Y-79931826D01*
X156676981Y-79858499D01*
X156734736Y-79789713D01*
X157009692Y-79789713D01*
X157018240Y-79815829D01*
X157061695Y-79874662D01*
X157131751Y-79932729D01*
X157213912Y-79979108D01*
X157255634Y-79994690D01*
X157367072Y-80012182D01*
X157494056Y-80007729D01*
X157617034Y-79983058D01*
X157686161Y-79956705D01*
X157795793Y-79881182D01*
X157877130Y-79777143D01*
X157912651Y-79688183D01*
X158123546Y-79688183D01*
X158143393Y-79796816D01*
X158199394Y-79889532D01*
X158286549Y-79960344D01*
X158383289Y-79999331D01*
X158471471Y-80011679D01*
X158582635Y-80012587D01*
X158701724Y-80003403D01*
X158813681Y-79985474D01*
X158903449Y-79960146D01*
X158924597Y-79950914D01*
X158993668Y-79907249D01*
X159024333Y-79867694D01*
X159020521Y-79836031D01*
X158986157Y-79816040D01*
X158925170Y-79811501D01*
X158841485Y-79826194D01*
X158806278Y-79837015D01*
X158695378Y-79863834D01*
X158590712Y-79869395D01*
X158499532Y-79855433D01*
X158429091Y-79823683D01*
X158386643Y-79775879D01*
X158377467Y-79734461D01*
X158389575Y-79686168D01*
X158429037Y-79644605D01*
X158500562Y-79606560D01*
X158608858Y-79568819D01*
X158628890Y-79562891D01*
X158767515Y-79519457D01*
X158869451Y-79478776D01*
X158939806Y-79436889D01*
X158983688Y-79389834D01*
X159006205Y-79333652D01*
X159012467Y-79265516D01*
X158993731Y-79173413D01*
X158943777Y-79082810D01*
X158871980Y-79007212D01*
X158804779Y-78966467D01*
X158777791Y-78960134D01*
X159308800Y-78960134D01*
X159308800Y-79477165D01*
X159309008Y-79638917D01*
X159309864Y-79763320D01*
X159311719Y-79855356D01*
X159314924Y-79920009D01*
X159319828Y-79962261D01*
X159326783Y-79987095D01*
X159336139Y-79999494D01*
X159345842Y-80003876D01*
X159418677Y-80014959D01*
X159486501Y-80012313D01*
X159532866Y-79996868D01*
X159537400Y-79993067D01*
X159546252Y-79970019D01*
X159553050Y-79918675D01*
X159557941Y-79835947D01*
X159561073Y-79718748D01*
X159562595Y-79563991D01*
X159562800Y-79463900D01*
X159562800Y-78960134D01*
X159308800Y-78960134D01*
X158777791Y-78960134D01*
X158726457Y-78948088D01*
X158621949Y-78943316D01*
X158504871Y-78951327D01*
X158388835Y-78971297D01*
X158301615Y-78996904D01*
X158238626Y-79023821D01*
X158207188Y-79049303D01*
X158197680Y-79081756D01*
X158197550Y-79087796D01*
X158204712Y-79124868D01*
X158234406Y-79141914D01*
X158267904Y-79146799D01*
X158331794Y-79143897D01*
X158408546Y-79128581D01*
X158435716Y-79120341D01*
X158538947Y-79092988D01*
X158618315Y-79091861D01*
X158683491Y-79117348D01*
X158702696Y-79131003D01*
X158751545Y-79185644D01*
X158759045Y-79238872D01*
X158726182Y-79289483D01*
X158653938Y-79336272D01*
X158543297Y-79378035D01*
X158488618Y-79393036D01*
X158342702Y-79438173D01*
X158236055Y-79491397D01*
X158166035Y-79554844D01*
X158129998Y-79630650D01*
X158123546Y-79688183D01*
X157912651Y-79688183D01*
X157928212Y-79649212D01*
X157947078Y-79502018D01*
X157936431Y-79365870D01*
X157895258Y-79219850D01*
X157825111Y-79104536D01*
X157728017Y-79020949D01*
X157686750Y-78998074D01*
X157644431Y-78983361D01*
X157590393Y-78975064D01*
X157513967Y-78971436D01*
X157421291Y-78970717D01*
X157316531Y-78971768D01*
X157244415Y-78975908D01*
X157195283Y-78984621D01*
X157159477Y-78999387D01*
X157136848Y-79014358D01*
X157064380Y-79079420D01*
X157022878Y-79140726D01*
X157013717Y-79193215D01*
X157038272Y-79231825D01*
X157073586Y-79247240D01*
X157144539Y-79244521D01*
X157228190Y-79206757D01*
X157276800Y-79172232D01*
X157361791Y-79127485D01*
X157449391Y-79121959D01*
X157532769Y-79153611D01*
X157605091Y-79220396D01*
X157643023Y-79281853D01*
X157675472Y-79384517D01*
X157682530Y-79498041D01*
X157666316Y-79611115D01*
X157628947Y-79712428D01*
X157572541Y-79790669D01*
X157543348Y-79814150D01*
X157465235Y-79846613D01*
X157383051Y-79841878D01*
X157292541Y-79799092D01*
X157227551Y-79750739D01*
X157164306Y-79713661D01*
X157102072Y-79701764D01*
X157049674Y-79712304D01*
X157015938Y-79742535D01*
X157009692Y-79789713D01*
X156734736Y-79789713D01*
X156749836Y-79771729D01*
X156787638Y-79690384D01*
X156800232Y-79622433D01*
X156808727Y-79534339D01*
X156811015Y-79466998D01*
X156792821Y-79315422D01*
X156740482Y-79185640D01*
X156657771Y-79080630D01*
X156548467Y-79003370D01*
X156416342Y-78956835D01*
X156265175Y-78944005D01*
X156161330Y-78954658D01*
X156019921Y-78992966D01*
X155911248Y-79055412D01*
X155832968Y-79144758D01*
X155782739Y-79263767D01*
X155758218Y-79415199D01*
X155757152Y-79431184D01*
X151357172Y-79431184D01*
X151359413Y-79405972D01*
X151383219Y-79200964D01*
X151411982Y-79006653D01*
X151446727Y-78815132D01*
X151488475Y-78618494D01*
X151492024Y-78603449D01*
X159312959Y-78603449D01*
X159313203Y-78656967D01*
X159338763Y-78699571D01*
X159345842Y-78704438D01*
X159402767Y-78722877D01*
X159468031Y-78724617D01*
X159522619Y-78710400D01*
X159540571Y-78696830D01*
X159557152Y-78654084D01*
X159559038Y-78606872D01*
X159550250Y-78569107D01*
X159527002Y-78550309D01*
X159476749Y-78542048D01*
X159460694Y-78540798D01*
X159396996Y-78542195D01*
X159348441Y-78553656D01*
X159338986Y-78559265D01*
X159312959Y-78603449D01*
X151492024Y-78603449D01*
X151512284Y-78517579D01*
X159879885Y-78517579D01*
X159893872Y-79252148D01*
X159898842Y-79480033D01*
X159904288Y-79666099D01*
X159910235Y-79810857D01*
X159916709Y-79914819D01*
X159923736Y-79978495D01*
X159931121Y-80002268D01*
X159980954Y-80017119D01*
X160043815Y-80014756D01*
X160098281Y-79997354D01*
X160115833Y-79983499D01*
X160124427Y-79953052D01*
X160132082Y-79887485D01*
X160138739Y-79792809D01*
X160144338Y-79675032D01*
X160147143Y-79590600D01*
X160462384Y-79590600D01*
X160462917Y-79731753D01*
X160464807Y-79836192D01*
X160468490Y-79909525D01*
X160474404Y-79957361D01*
X160482984Y-79985308D01*
X160494134Y-79998632D01*
X160548940Y-80011989D01*
X160617952Y-79997841D01*
X160686908Y-79960017D01*
X160709566Y-79940776D01*
X160767780Y-79885003D01*
X160899745Y-79944226D01*
X161036730Y-79995252D01*
X161151152Y-80014258D01*
X161247517Y-80001771D01*
X161280525Y-79988790D01*
X161358074Y-79930427D01*
X161407690Y-79848145D01*
X161426130Y-79752413D01*
X161410149Y-79653701D01*
X161395102Y-79618978D01*
X161339593Y-79551160D01*
X161248798Y-79487535D01*
X161129762Y-79431796D01*
X160989528Y-79387636D01*
X160927195Y-79373667D01*
X160859540Y-79352206D01*
X160795567Y-79318960D01*
X160747369Y-79281625D01*
X160727037Y-79247900D01*
X160726967Y-79246195D01*
X160740989Y-79208387D01*
X160769300Y-79171800D01*
X160831825Y-79138292D01*
X160926511Y-79130948D01*
X161053799Y-79149767D01*
X161138154Y-79171353D01*
X161234550Y-79193880D01*
X161297435Y-79195387D01*
X161330574Y-79174922D01*
X161337732Y-79131528D01*
X161336530Y-79121054D01*
X161310362Y-79076946D01*
X161249326Y-79034166D01*
X161160820Y-78996389D01*
X161052243Y-78967290D01*
X161012509Y-78960097D01*
X160846974Y-78945772D01*
X160711541Y-78960721D01*
X160605524Y-79005161D01*
X160528239Y-79079309D01*
X160503023Y-79121676D01*
X160488300Y-79155913D01*
X160477572Y-79195121D01*
X160470230Y-79246332D01*
X160465664Y-79316578D01*
X160463265Y-79412892D01*
X160462424Y-79542305D01*
X160462384Y-79590600D01*
X160147143Y-79590600D01*
X160148819Y-79540165D01*
X160152124Y-79394218D01*
X160154192Y-79243199D01*
X160154963Y-79093119D01*
X160154378Y-78949987D01*
X160152378Y-78819813D01*
X160148901Y-78708607D01*
X160143890Y-78622377D01*
X160137283Y-78567135D01*
X160130082Y-78548919D01*
X160094279Y-78541984D01*
X160032988Y-78533637D01*
X159991218Y-78528977D01*
X159879885Y-78517579D01*
X151512284Y-78517579D01*
X151512742Y-78515634D01*
X161658300Y-78515634D01*
X161658719Y-78997175D01*
X161660396Y-79223493D01*
X161665792Y-79411473D01*
X161676100Y-79565033D01*
X161692510Y-79688093D01*
X161716216Y-79784573D01*
X161748410Y-79858390D01*
X161790284Y-79913466D01*
X161843030Y-79953719D01*
X161907840Y-79983068D01*
X161963749Y-79999936D01*
X162036009Y-80009749D01*
X162133354Y-80011426D01*
X162240520Y-80005938D01*
X162342247Y-79994256D01*
X162423273Y-79977350D01*
X162446759Y-79969221D01*
X162504510Y-79936263D01*
X162522766Y-79898311D01*
X162502765Y-79848802D01*
X162475995Y-79814371D01*
X162425857Y-79756082D01*
X162298780Y-79794558D01*
X162220426Y-79815533D01*
X162164561Y-79821542D01*
X162114490Y-79813649D01*
X162094551Y-79807570D01*
X162054509Y-79792373D01*
X162022482Y-79772991D01*
X161997468Y-79744797D01*
X161978470Y-79703164D01*
X161964487Y-79643465D01*
X161954521Y-79561072D01*
X161947571Y-79451358D01*
X161942639Y-79309695D01*
X161938725Y-79131458D01*
X161937811Y-79081842D01*
X161927580Y-78515634D01*
X161658300Y-78515634D01*
X151512742Y-78515634D01*
X151530775Y-78439212D01*
X151686863Y-77889094D01*
X151752741Y-77708119D01*
X152135394Y-77708119D01*
X152151814Y-77728831D01*
X152199497Y-77738125D01*
X152199570Y-77738134D01*
X152232886Y-77739723D01*
X152304723Y-77741342D01*
X152411269Y-77742956D01*
X152548711Y-77744530D01*
X152713239Y-77746030D01*
X152901040Y-77747424D01*
X153108302Y-77748676D01*
X153331212Y-77749753D01*
X153565959Y-77750620D01*
X153614967Y-77750768D01*
X154959050Y-77754678D01*
X156429048Y-77383217D01*
X157467300Y-77383217D01*
X157477884Y-77393800D01*
X157488467Y-77383217D01*
X157477884Y-77372634D01*
X157467300Y-77383217D01*
X156429048Y-77383217D01*
X156917412Y-77259810D01*
X157172586Y-77318353D01*
X157270770Y-77339948D01*
X157353108Y-77356299D01*
X157411362Y-77365894D01*
X157437295Y-77367224D01*
X157437701Y-77366955D01*
X157422757Y-77356652D01*
X157374835Y-77335455D01*
X157300987Y-77306252D01*
X157208263Y-77271928D01*
X157186889Y-77264282D01*
X156926136Y-77171550D01*
X156204787Y-76420134D01*
X156007907Y-76214899D01*
X155838786Y-76038079D01*
X155695767Y-75887645D01*
X155577195Y-75761569D01*
X155481413Y-75657819D01*
X155406764Y-75574368D01*
X155351593Y-75509186D01*
X155314243Y-75460243D01*
X155293059Y-75425511D01*
X155286383Y-75402959D01*
X155292561Y-75390559D01*
X155309935Y-75386282D01*
X155336849Y-75388097D01*
X155366509Y-75393011D01*
X155431830Y-75408466D01*
X155531785Y-75436462D01*
X155661156Y-75475254D01*
X155814727Y-75523095D01*
X155987283Y-75578238D01*
X156173606Y-75638937D01*
X156368481Y-75703446D01*
X156566691Y-75770017D01*
X156763021Y-75836905D01*
X156952253Y-75902362D01*
X157129171Y-75964643D01*
X157288561Y-76022000D01*
X157425204Y-76072688D01*
X157533885Y-76114959D01*
X157581059Y-76134505D01*
X157607164Y-76143409D01*
X157606641Y-76130777D01*
X157588526Y-76100617D01*
X157570829Y-76060629D01*
X157544194Y-75984286D01*
X157509897Y-75876317D01*
X157469210Y-75741451D01*
X157423407Y-75584417D01*
X157373762Y-75409945D01*
X157321549Y-75222762D01*
X157268041Y-75027598D01*
X157214512Y-74829181D01*
X157162236Y-74632241D01*
X157112486Y-74441507D01*
X157066536Y-74261706D01*
X157025660Y-74097569D01*
X156991132Y-73953824D01*
X156964225Y-73835200D01*
X156946213Y-73746425D01*
X156938370Y-73692230D01*
X156938134Y-73685908D01*
X156938888Y-73658132D01*
X156942452Y-73637684D01*
X156950780Y-73626525D01*
X156965822Y-73626615D01*
X156989532Y-73639915D01*
X157023862Y-73668386D01*
X157070764Y-73713988D01*
X157132191Y-73778681D01*
X157210095Y-73864427D01*
X157306428Y-73973184D01*
X157423144Y-74106915D01*
X157562194Y-74267579D01*
X157725531Y-74457138D01*
X157848251Y-74599800D01*
X158023008Y-74802759D01*
X158171455Y-74974583D01*
X158294631Y-75116452D01*
X158393574Y-75229544D01*
X158469321Y-75315040D01*
X158522911Y-75374117D01*
X158555384Y-75407956D01*
X158567775Y-75417735D01*
X158567967Y-75417240D01*
X158572379Y-75394055D01*
X158584903Y-75334416D01*
X158604466Y-75243194D01*
X158629997Y-75125261D01*
X158660424Y-74985488D01*
X158694676Y-74828745D01*
X158731681Y-74659906D01*
X158770368Y-74483840D01*
X158809665Y-74305419D01*
X158848501Y-74129515D01*
X158885804Y-73960999D01*
X158920502Y-73804742D01*
X158951525Y-73665616D01*
X158977800Y-73548491D01*
X158998257Y-73458240D01*
X159010838Y-73403884D01*
X159051963Y-73237783D01*
X159088165Y-73107818D01*
X159118957Y-73015474D01*
X159143856Y-72962236D01*
X159159301Y-72948800D01*
X159169875Y-72955698D01*
X159182490Y-72978171D01*
X159197808Y-73018885D01*
X159216492Y-73080508D01*
X159239204Y-73165706D01*
X159266605Y-73277148D01*
X159299358Y-73417500D01*
X159338125Y-73589430D01*
X159383567Y-73795604D01*
X159436348Y-74038690D01*
X159478743Y-74235632D01*
X159535901Y-74500794D01*
X159585142Y-74726765D01*
X159627010Y-74915835D01*
X159662044Y-75070294D01*
X159690789Y-75192431D01*
X159713784Y-75284535D01*
X159731573Y-75348897D01*
X159744696Y-75387804D01*
X159753696Y-75403548D01*
X159755297Y-75404134D01*
X159770956Y-75388702D01*
X159811149Y-75344791D01*
X159872760Y-75275977D01*
X159952673Y-75185839D01*
X160047772Y-75077952D01*
X160154942Y-74955893D01*
X160271066Y-74823240D01*
X160393028Y-74683570D01*
X160517713Y-74540459D01*
X160642004Y-74397484D01*
X160762786Y-74258223D01*
X160876943Y-74126251D01*
X160981359Y-74005147D01*
X161072917Y-73898487D01*
X161148503Y-73809847D01*
X161204999Y-73742806D01*
X161239291Y-73700939D01*
X161242024Y-73697443D01*
X161279140Y-73664931D01*
X161320537Y-73648178D01*
X161352470Y-73650542D01*
X161361967Y-73668130D01*
X161356573Y-73713944D01*
X161341209Y-73795789D01*
X161317096Y-73908866D01*
X161285459Y-74048380D01*
X161247521Y-74209533D01*
X161204505Y-74387530D01*
X161157634Y-74577573D01*
X161108131Y-74774866D01*
X161057221Y-74974612D01*
X161006125Y-75172015D01*
X160956069Y-75362278D01*
X160908274Y-75540604D01*
X160863964Y-75702197D01*
X160824363Y-75842259D01*
X160790693Y-75955995D01*
X160764178Y-76038608D01*
X160746042Y-76085301D01*
X160744987Y-76087346D01*
X160732200Y-76117518D01*
X160746873Y-76119129D01*
X160761546Y-76113288D01*
X160818326Y-76090987D01*
X160907399Y-76058604D01*
X161024174Y-76017639D01*
X161164062Y-75969592D01*
X161322471Y-75915965D01*
X161494813Y-75858257D01*
X161676497Y-75797970D01*
X161862933Y-75736603D01*
X162049530Y-75675658D01*
X162231699Y-75616635D01*
X162404850Y-75561034D01*
X162564392Y-75510356D01*
X162705735Y-75466101D01*
X162824289Y-75429770D01*
X162915465Y-75402864D01*
X162974671Y-75386883D01*
X162995592Y-75382967D01*
X163013725Y-75383963D01*
X163026176Y-75388295D01*
X163031206Y-75397983D01*
X163027077Y-75415043D01*
X163012050Y-75441493D01*
X162984386Y-75479352D01*
X162942347Y-75530637D01*
X162884193Y-75597367D01*
X162808187Y-75681558D01*
X162712589Y-75785230D01*
X162595661Y-75910399D01*
X162455664Y-76059084D01*
X162290860Y-76233302D01*
X162099509Y-76435073D01*
X161986384Y-76554243D01*
X161414884Y-77156167D01*
X161090033Y-77269006D01*
X160983030Y-77307048D01*
X160893598Y-77340530D01*
X160827810Y-77367038D01*
X160791742Y-77384156D01*
X160787518Y-77389289D01*
X160815491Y-77387314D01*
X160876010Y-77376597D01*
X160960591Y-77358825D01*
X161060750Y-77335683D01*
X161076948Y-77331767D01*
X161181123Y-77307203D01*
X161273311Y-77286894D01*
X161344187Y-77272798D01*
X161384426Y-77266870D01*
X161386693Y-77266800D01*
X161415462Y-77272050D01*
X161480833Y-77287075D01*
X161578490Y-77310793D01*
X161704119Y-77342119D01*
X161853403Y-77379969D01*
X162022029Y-77423260D01*
X162205681Y-77470907D01*
X162359091Y-77511057D01*
X163288841Y-77755315D01*
X164716192Y-77749182D01*
X165023544Y-77747548D01*
X165296756Y-77745445D01*
X165534733Y-77742892D01*
X165736377Y-77739910D01*
X165900593Y-77736521D01*
X166026282Y-77732745D01*
X166112350Y-77728602D01*
X166157699Y-77724113D01*
X166164641Y-77721884D01*
X166169197Y-77689755D01*
X166155661Y-77625408D01*
X166126190Y-77533800D01*
X166082941Y-77419889D01*
X166028069Y-77288633D01*
X165963731Y-77144990D01*
X165892084Y-76993919D01*
X165815284Y-76840378D01*
X165735487Y-76689324D01*
X165654850Y-76545715D01*
X165647965Y-76533908D01*
X165540003Y-76356893D01*
X165414006Y-76162695D01*
X165279098Y-75964674D01*
X165144404Y-75776190D01*
X165019047Y-75610604D01*
X165007083Y-75595450D01*
X164923868Y-75496462D01*
X164815273Y-75376221D01*
X164687546Y-75240914D01*
X164546931Y-75096725D01*
X164399677Y-74949838D01*
X164252028Y-74806440D01*
X164110232Y-74672713D01*
X163980534Y-74554844D01*
X163869181Y-74459017D01*
X163817300Y-74417391D01*
X163344562Y-74076525D01*
X162860508Y-73776340D01*
X162364335Y-73516509D01*
X161855238Y-73296707D01*
X161332413Y-73116605D01*
X160795054Y-72975879D01*
X160242358Y-72874200D01*
X159914627Y-72833008D01*
X159754559Y-72819856D01*
X159564509Y-72810150D01*
X159355524Y-72803971D01*
X159138647Y-72801401D01*
X158924924Y-72802522D01*
X158725400Y-72807414D01*
X158551119Y-72816160D01*
X158472717Y-72822389D01*
X157936843Y-72892934D01*
X157402457Y-73003631D01*
X156874777Y-73152768D01*
X156359021Y-73338633D01*
X155860406Y-73559515D01*
X155384152Y-73813700D01*
X155300655Y-73863189D01*
X154827832Y-74172030D01*
X154381951Y-74512398D01*
X153964519Y-74882701D01*
X153577043Y-75281345D01*
X153221031Y-75706740D01*
X152897990Y-76157292D01*
X152609427Y-76631409D01*
X152514829Y-76806490D01*
X152445071Y-76943616D01*
X152375835Y-77086437D01*
X152310121Y-77228121D01*
X152250929Y-77361834D01*
X152201258Y-77480742D01*
X152164108Y-77578012D01*
X152142478Y-77646811D01*
X152139250Y-77662146D01*
X152135394Y-77708119D01*
X151752741Y-77708119D01*
X151880810Y-77356302D01*
X152111198Y-76842358D01*
X152376612Y-76348787D01*
X152675634Y-75877112D01*
X153006849Y-75428858D01*
X153368841Y-75005549D01*
X153760192Y-74608708D01*
X154179488Y-74239860D01*
X154625311Y-73900529D01*
X155096245Y-73592238D01*
X155590874Y-73316512D01*
X156107782Y-73074874D01*
X156645552Y-72868849D01*
X156735486Y-72838616D01*
X157086884Y-72730023D01*
X157423546Y-72641866D01*
X157753977Y-72572957D01*
X158086684Y-72522109D01*
X158430171Y-72488135D01*
X158792944Y-72469848D01*
X159183509Y-72466059D01*
X159382884Y-72469032D01*
X159625111Y-72475798D01*
X159834565Y-72485316D01*
X160020766Y-72498582D01*
X160193238Y-72516593D01*
X160361504Y-72540345D01*
X160535085Y-72570833D01*
X160723505Y-72609054D01*
X160725553Y-72609491D01*
X161292195Y-72751741D01*
X161845424Y-72933482D01*
X162383022Y-73153668D01*
X162902771Y-73411257D01*
X163402456Y-73705205D01*
X163879859Y-74034467D01*
X164081884Y-74189941D01*
X164207362Y-74295195D01*
X164352618Y-74426105D01*
X164510600Y-74575583D01*
X164674258Y-74736537D01*
X164836540Y-74901881D01*
X164990395Y-75064523D01*
X165128770Y-75217374D01*
X165244615Y-75353346D01*
X165268511Y-75382967D01*
X165617315Y-75853489D01*
X165927653Y-76340230D01*
X166199041Y-76842293D01*
X166430991Y-77358780D01*
X166619843Y-77878911D01*
X166710163Y-78178083D01*
X166786715Y-78474122D01*
X166850660Y-78774180D01*
X166903161Y-79085408D01*
X166945381Y-79414958D01*
X166978482Y-79769983D01*
X167003627Y-80157632D01*
X167009559Y-80276371D01*
X167017488Y-80427084D01*
X167026078Y-80539958D01*
X167036655Y-80619485D01*
X167050545Y-80670153D01*
X167069073Y-80696454D01*
X167093566Y-80702876D01*
X167125349Y-80693910D01*
X167131998Y-80690985D01*
X167177477Y-80652966D01*
X167199183Y-80612796D01*
X167203584Y-80576058D01*
X167207245Y-80504012D01*
X167209996Y-80403680D01*
X167211663Y-80282082D01*
X167212077Y-80146240D01*
X167211871Y-80092550D01*
X167188372Y-79541397D01*
X167124063Y-78996734D01*
X167018652Y-78457357D01*
X166871846Y-77922063D01*
X166683354Y-77389647D01*
X166452881Y-76858907D01*
X166399448Y-76748217D01*
X166146147Y-76269614D01*
X165870339Y-75821629D01*
X165567319Y-75397768D01*
X165232381Y-74991538D01*
X164860821Y-74596443D01*
X164788203Y-74524553D01*
X164356273Y-74130786D01*
X163899808Y-73771257D01*
X163420248Y-73446806D01*
X162919034Y-73158271D01*
X162397607Y-72906491D01*
X161857407Y-72692305D01*
X161377375Y-72538369D01*
X160940714Y-72425167D01*
X160510756Y-72338994D01*
X160079001Y-72278933D01*
X159636951Y-72244062D01*
X159176106Y-72233461D01*
X158687968Y-72246213D01*
X158680988Y-72246548D01*
X158119019Y-72294517D01*
X157566314Y-72382730D01*
X157024592Y-72509777D01*
X156495570Y-72674245D01*
X155980966Y-72874725D01*
X155482500Y-73109806D01*
X155001888Y-73378075D01*
X154540850Y-73678123D01*
X154101104Y-74008538D01*
X153684367Y-74367910D01*
X153292358Y-74754826D01*
X152926796Y-75167876D01*
X152589397Y-75605650D01*
X152281882Y-76066736D01*
X152005967Y-76549723D01*
X151763371Y-77053200D01*
X151555812Y-77575755D01*
X151385009Y-78115979D01*
X151343495Y-78272217D01*
X151275865Y-78548937D01*
X151221943Y-78797715D01*
X151180148Y-79030086D01*
X151148900Y-79257585D01*
X151126618Y-79491745D01*
X151111720Y-79744102D01*
X151102627Y-80026189D01*
X151102535Y-80030324D01*
X151098925Y-80210129D01*
X151097351Y-80352401D01*
X150515004Y-80352401D01*
X150514926Y-80332094D01*
X150514849Y-80272467D01*
X150514749Y-80051626D01*
X150515291Y-79866504D01*
X150517049Y-79710488D01*
X150520594Y-79576963D01*
X150526499Y-79459317D01*
X150535338Y-79350934D01*
X150547683Y-79245201D01*
X150564107Y-79135504D01*
X150585183Y-79015230D01*
X150611483Y-78877764D01*
X150643579Y-78716492D01*
X150654159Y-78663800D01*
X150795883Y-78062102D01*
X150975254Y-77478626D01*
X151191436Y-76914560D01*
X151443588Y-76371091D01*
X151730872Y-75849405D01*
X152052449Y-75350689D01*
X152407481Y-74876131D01*
X152795127Y-74426916D01*
X153214549Y-74004231D01*
X153664909Y-73609264D01*
X154145366Y-73243202D01*
X154655084Y-72907230D01*
X154773769Y-72835874D01*
X155300884Y-72547681D01*
X155839021Y-72299948D01*
X156390831Y-72091667D01*
X156958967Y-71921830D01*
X157506558Y-71797059D01*
X157691178Y-71761077D01*
X157846988Y-71731364D01*
X157980728Y-71707323D01*
X158099136Y-71688354D01*
X158208951Y-71673860D01*
X158316913Y-71663242D01*
X158429759Y-71655903D01*
X158554228Y-71651244D01*
X158697059Y-71648667D01*
X158864992Y-71647575D01*
X159064764Y-71647367D01*
X159192384Y-71647415D01*
G36*
X155277938Y-81634861D02*
G01*
X155305580Y-81646171D01*
X155324606Y-81679499D01*
X155340778Y-81751042D01*
X155353690Y-81856752D01*
X155362940Y-81992580D01*
X155368123Y-82154480D01*
X155369114Y-82283300D01*
X155367244Y-82460558D01*
X155360953Y-82599706D01*
X155348380Y-82704891D01*
X155327664Y-82780257D01*
X155296944Y-82829952D01*
X155254359Y-82858122D01*
X155198049Y-82868911D01*
X155126152Y-82866467D01*
X155108213Y-82864583D01*
X155039908Y-82856137D01*
X154991253Y-82848828D01*
X154974405Y-82844844D01*
X154971192Y-82823056D01*
X154966143Y-82766362D01*
X154959828Y-82682122D01*
X154952814Y-82577696D01*
X154948836Y-82513849D01*
X154937842Y-82354110D01*
X154925147Y-82231785D01*
X154908420Y-82141960D01*
X154885327Y-82079723D01*
X154853539Y-82040160D01*
X154810724Y-82018355D01*
X154754548Y-82009396D01*
X154708872Y-82008134D01*
X154614661Y-82008134D01*
X154617522Y-82214509D01*
X154617350Y-82318861D01*
X154612063Y-82394552D01*
X154599629Y-82455142D01*
X154578014Y-82514191D01*
X154569809Y-82532806D01*
X154497265Y-82649513D01*
X154397298Y-82749213D01*
X154281260Y-82821742D01*
X154221867Y-82844315D01*
X154108422Y-82865971D01*
X153975144Y-82873319D01*
X153841373Y-82866418D01*
X153726445Y-82845328D01*
X153717766Y-82842760D01*
X153630422Y-82804740D01*
X153556899Y-82752286D01*
X153506362Y-82693572D01*
X153487967Y-82637732D01*
X153501133Y-82591676D01*
X153533213Y-82539368D01*
X153573077Y-82495341D01*
X153609598Y-82474125D01*
X153613512Y-82473800D01*
X153643482Y-82480026D01*
X153700973Y-82496333D01*
X153772071Y-82518717D01*
X153901464Y-82548315D01*
X154014501Y-82548361D01*
X154105237Y-82519264D01*
X154141036Y-82493310D01*
X154171525Y-82461330D01*
X154182983Y-82436800D01*
X154171642Y-82418535D01*
X154133737Y-82405350D01*
X154065501Y-82396057D01*
X153963168Y-82389471D01*
X153822970Y-82384408D01*
X153792339Y-82383536D01*
X153656726Y-82377875D01*
X153558101Y-82367524D01*
X153491155Y-82349494D01*
X153450576Y-82320791D01*
X153431053Y-82278423D01*
X153427276Y-82219400D01*
X153429931Y-82179367D01*
X153459858Y-82030647D01*
X153462328Y-82024981D01*
X153855500Y-82024981D01*
X153863111Y-82065270D01*
X153909935Y-82093116D01*
X153922142Y-82096324D01*
X153974576Y-82102205D01*
X154040835Y-82102138D01*
X154104898Y-82097070D01*
X154150743Y-82087947D01*
X154161829Y-82082160D01*
X154163587Y-82054361D01*
X154138310Y-82014980D01*
X154093962Y-81976250D01*
X154092032Y-81974971D01*
X154013467Y-81943268D01*
X153938002Y-81948668D01*
X153888648Y-81977727D01*
X153855500Y-82024981D01*
X153462328Y-82024981D01*
X153518522Y-81896113D01*
X153600997Y-81782757D01*
X153702358Y-81697573D01*
X153801378Y-81652026D01*
X153930497Y-81629215D01*
X154069305Y-81631296D01*
X154205189Y-81656121D01*
X154325529Y-81701543D01*
X154406518Y-81755042D01*
X154463856Y-81800462D01*
X154500345Y-81813518D01*
X154522804Y-81793885D01*
X154536479Y-81748842D01*
X154560624Y-81676944D01*
X154598779Y-81637053D01*
X154656244Y-81627623D01*
X154738317Y-81647108D01*
X154800828Y-81671712D01*
X154904454Y-81716291D01*
X154976584Y-81671712D01*
X155040764Y-81645762D01*
X155123185Y-81630131D01*
X155207644Y-81626078D01*
X155277938Y-81634861D01*
X155277938Y-81634861D01*
G37*
X155277938Y-81634861D02*
X155305580Y-81646171D01*
X155324606Y-81679499D01*
X155340778Y-81751042D01*
X155353690Y-81856752D01*
X155362940Y-81992580D01*
X155368123Y-82154480D01*
X155369114Y-82283300D01*
X155367244Y-82460558D01*
X155360953Y-82599706D01*
X155348380Y-82704891D01*
X155327664Y-82780257D01*
X155296944Y-82829952D01*
X155254359Y-82858122D01*
X155198049Y-82868911D01*
X155126152Y-82866467D01*
X155108213Y-82864583D01*
X155039908Y-82856137D01*
X154991253Y-82848828D01*
X154974405Y-82844844D01*
X154971192Y-82823056D01*
X154966143Y-82766362D01*
X154959828Y-82682122D01*
X154952814Y-82577696D01*
X154948836Y-82513849D01*
X154937842Y-82354110D01*
X154925147Y-82231785D01*
X154908420Y-82141960D01*
X154885327Y-82079723D01*
X154853539Y-82040160D01*
X154810724Y-82018355D01*
X154754548Y-82009396D01*
X154708872Y-82008134D01*
X154614661Y-82008134D01*
X154617522Y-82214509D01*
X154617350Y-82318861D01*
X154612063Y-82394552D01*
X154599629Y-82455142D01*
X154578014Y-82514191D01*
X154569809Y-82532806D01*
X154497265Y-82649513D01*
X154397298Y-82749213D01*
X154281260Y-82821742D01*
X154221867Y-82844315D01*
X154108422Y-82865971D01*
X153975144Y-82873319D01*
X153841373Y-82866418D01*
X153726445Y-82845328D01*
X153717766Y-82842760D01*
X153630422Y-82804740D01*
X153556899Y-82752286D01*
X153506362Y-82693572D01*
X153487967Y-82637732D01*
X153501133Y-82591676D01*
X153533213Y-82539368D01*
X153573077Y-82495341D01*
X153609598Y-82474125D01*
X153613512Y-82473800D01*
X153643482Y-82480026D01*
X153700973Y-82496333D01*
X153772071Y-82518717D01*
X153901464Y-82548315D01*
X154014501Y-82548361D01*
X154105237Y-82519264D01*
X154141036Y-82493310D01*
X154171525Y-82461330D01*
X154182983Y-82436800D01*
X154171642Y-82418535D01*
X154133737Y-82405350D01*
X154065501Y-82396057D01*
X153963168Y-82389471D01*
X153822970Y-82384408D01*
X153792339Y-82383536D01*
X153656726Y-82377875D01*
X153558101Y-82367524D01*
X153491155Y-82349494D01*
X153450576Y-82320791D01*
X153431053Y-82278423D01*
X153427276Y-82219400D01*
X153429931Y-82179367D01*
X153459858Y-82030647D01*
X153462328Y-82024981D01*
X153855500Y-82024981D01*
X153863111Y-82065270D01*
X153909935Y-82093116D01*
X153922142Y-82096324D01*
X153974576Y-82102205D01*
X154040835Y-82102138D01*
X154104898Y-82097070D01*
X154150743Y-82087947D01*
X154161829Y-82082160D01*
X154163587Y-82054361D01*
X154138310Y-82014980D01*
X154093962Y-81976250D01*
X154092032Y-81974971D01*
X154013467Y-81943268D01*
X153938002Y-81948668D01*
X153888648Y-81977727D01*
X153855500Y-82024981D01*
X153462328Y-82024981D01*
X153518522Y-81896113D01*
X153600997Y-81782757D01*
X153702358Y-81697573D01*
X153801378Y-81652026D01*
X153930497Y-81629215D01*
X154069305Y-81631296D01*
X154205189Y-81656121D01*
X154325529Y-81701543D01*
X154406518Y-81755042D01*
X154463856Y-81800462D01*
X154500345Y-81813518D01*
X154522804Y-81793885D01*
X154536479Y-81748842D01*
X154560624Y-81676944D01*
X154598779Y-81637053D01*
X154656244Y-81627623D01*
X154738317Y-81647108D01*
X154800828Y-81671712D01*
X154904454Y-81716291D01*
X154976584Y-81671712D01*
X155040764Y-81645762D01*
X155123185Y-81630131D01*
X155207644Y-81626078D01*
X155277938Y-81634861D01*
G36*
X155723738Y-81632585D02*
G01*
X155796559Y-81641071D01*
X155853300Y-81654070D01*
X155879637Y-81669203D01*
X155895426Y-81718044D01*
X155907595Y-81805330D01*
X155915950Y-81927309D01*
X155920294Y-82080231D01*
X155920434Y-82260346D01*
X155917855Y-82403440D01*
X155913549Y-82548408D01*
X155908551Y-82656508D01*
X155902321Y-82733203D01*
X155894318Y-82783960D01*
X155884001Y-82814243D01*
X155876129Y-82825209D01*
X155830187Y-82849083D01*
X155758782Y-82864237D01*
X155678125Y-82869394D01*
X155604428Y-82863274D01*
X155562409Y-82849959D01*
X155538119Y-82834080D01*
X155519286Y-82811954D01*
X155505192Y-82778414D01*
X155495116Y-82728289D01*
X155488341Y-82656411D01*
X155484147Y-82557611D01*
X155481815Y-82426719D01*
X155480643Y-82262134D01*
X155481010Y-82078797D01*
X155484271Y-81933642D01*
X155490850Y-81822585D01*
X155501173Y-81741547D01*
X155515664Y-81686445D01*
X155534747Y-81653201D01*
X155544894Y-81644318D01*
X155584296Y-81633197D01*
X155648447Y-81629623D01*
X155723738Y-81632585D01*
X155723738Y-81632585D01*
G37*
X155723738Y-81632585D02*
X155796559Y-81641071D01*
X155853300Y-81654070D01*
X155879637Y-81669203D01*
X155895426Y-81718044D01*
X155907595Y-81805330D01*
X155915950Y-81927309D01*
X155920294Y-82080231D01*
X155920434Y-82260346D01*
X155917855Y-82403440D01*
X155913549Y-82548408D01*
X155908551Y-82656508D01*
X155902321Y-82733203D01*
X155894318Y-82783960D01*
X155884001Y-82814243D01*
X155876129Y-82825209D01*
X155830187Y-82849083D01*
X155758782Y-82864237D01*
X155678125Y-82869394D01*
X155604428Y-82863274D01*
X155562409Y-82849959D01*
X155538119Y-82834080D01*
X155519286Y-82811954D01*
X155505192Y-82778414D01*
X155495116Y-82728289D01*
X155488341Y-82656411D01*
X155484147Y-82557611D01*
X155481815Y-82426719D01*
X155480643Y-82262134D01*
X155481010Y-82078797D01*
X155484271Y-81933642D01*
X155490850Y-81822585D01*
X155501173Y-81741547D01*
X155515664Y-81686445D01*
X155534747Y-81653201D01*
X155544894Y-81644318D01*
X155584296Y-81633197D01*
X155648447Y-81629623D01*
X155723738Y-81632585D01*
G36*
X156780563Y-81645450D02*
G01*
X156886244Y-81678987D01*
X156988730Y-81733663D01*
X156991397Y-81735349D01*
X157060320Y-81792681D01*
X157087817Y-81853120D01*
X157074316Y-81920138D01*
X157023160Y-81993906D01*
X156960020Y-82065819D01*
X156788793Y-82005226D01*
X156673453Y-81967678D01*
X156591071Y-81949149D01*
X156536994Y-81949223D01*
X156506571Y-81967485D01*
X156500113Y-81979444D01*
X156504015Y-82018870D01*
X156541028Y-82050979D01*
X156601944Y-82069453D01*
X156634468Y-82071634D01*
X156737838Y-82087010D01*
X156849299Y-82128594D01*
X156957693Y-82189563D01*
X157051862Y-82263097D01*
X157120649Y-82342374D01*
X157141971Y-82381877D01*
X157159384Y-82445541D01*
X157169727Y-82525836D01*
X157170967Y-82560277D01*
X157167478Y-82629312D01*
X157151455Y-82677667D01*
X157114566Y-82725050D01*
X157091115Y-82749133D01*
X156984711Y-82827530D01*
X156863630Y-82867768D01*
X156733835Y-82868648D01*
X156631217Y-82841564D01*
X156545653Y-82811115D01*
X156487041Y-82798042D01*
X156444237Y-82801267D01*
X156406096Y-82819711D01*
X156406014Y-82819764D01*
X156345528Y-82844270D01*
X156261942Y-82860758D01*
X156174103Y-82866933D01*
X156100856Y-82860501D01*
X156091467Y-82858064D01*
X156038550Y-82842358D01*
X156032481Y-82525787D01*
X156031765Y-82395855D01*
X156031940Y-82385853D01*
X156451300Y-82385853D01*
X156470960Y-82453818D01*
X156524422Y-82506482D01*
X156557134Y-82522284D01*
X156618844Y-82534094D01*
X156683735Y-82531453D01*
X156723258Y-82518565D01*
X156744760Y-82486401D01*
X156734274Y-82445061D01*
X156698981Y-82401435D01*
X156646058Y-82362413D01*
X156582684Y-82334886D01*
X156522253Y-82325634D01*
X156473792Y-82329695D01*
X156454476Y-82349208D01*
X156451300Y-82385853D01*
X156031940Y-82385853D01*
X156034088Y-82263627D01*
X156039017Y-82143008D01*
X156046120Y-82047903D01*
X156047826Y-82032657D01*
X156071626Y-81896967D01*
X156109255Y-81795083D01*
X156166146Y-81722288D01*
X156247731Y-81673863D01*
X156359444Y-81645089D01*
X156506717Y-81631248D01*
X156510207Y-81631085D01*
X156659335Y-81630375D01*
X156780563Y-81645450D01*
X156780563Y-81645450D01*
G37*
X156780563Y-81645450D02*
X156886244Y-81678987D01*
X156988730Y-81733663D01*
X156991397Y-81735349D01*
X157060320Y-81792681D01*
X157087817Y-81853120D01*
X157074316Y-81920138D01*
X157023160Y-81993906D01*
X156960020Y-82065819D01*
X156788793Y-82005226D01*
X156673453Y-81967678D01*
X156591071Y-81949149D01*
X156536994Y-81949223D01*
X156506571Y-81967485D01*
X156500113Y-81979444D01*
X156504015Y-82018870D01*
X156541028Y-82050979D01*
X156601944Y-82069453D01*
X156634468Y-82071634D01*
X156737838Y-82087010D01*
X156849299Y-82128594D01*
X156957693Y-82189563D01*
X157051862Y-82263097D01*
X157120649Y-82342374D01*
X157141971Y-82381877D01*
X157159384Y-82445541D01*
X157169727Y-82525836D01*
X157170967Y-82560277D01*
X157167478Y-82629312D01*
X157151455Y-82677667D01*
X157114566Y-82725050D01*
X157091115Y-82749133D01*
X156984711Y-82827530D01*
X156863630Y-82867768D01*
X156733835Y-82868648D01*
X156631217Y-82841564D01*
X156545653Y-82811115D01*
X156487041Y-82798042D01*
X156444237Y-82801267D01*
X156406096Y-82819711D01*
X156406014Y-82819764D01*
X156345528Y-82844270D01*
X156261942Y-82860758D01*
X156174103Y-82866933D01*
X156100856Y-82860501D01*
X156091467Y-82858064D01*
X156038550Y-82842358D01*
X156032481Y-82525787D01*
X156031765Y-82395855D01*
X156031940Y-82385853D01*
X156451300Y-82385853D01*
X156470960Y-82453818D01*
X156524422Y-82506482D01*
X156557134Y-82522284D01*
X156618844Y-82534094D01*
X156683735Y-82531453D01*
X156723258Y-82518565D01*
X156744760Y-82486401D01*
X156734274Y-82445061D01*
X156698981Y-82401435D01*
X156646058Y-82362413D01*
X156582684Y-82334886D01*
X156522253Y-82325634D01*
X156473792Y-82329695D01*
X156454476Y-82349208D01*
X156451300Y-82385853D01*
X156031940Y-82385853D01*
X156034088Y-82263627D01*
X156039017Y-82143008D01*
X156046120Y-82047903D01*
X156047826Y-82032657D01*
X156071626Y-81896967D01*
X156109255Y-81795083D01*
X156166146Y-81722288D01*
X156247731Y-81673863D01*
X156359444Y-81645089D01*
X156506717Y-81631248D01*
X156510207Y-81631085D01*
X156659335Y-81630375D01*
X156780563Y-81645450D01*
G36*
X158102679Y-81230259D02*
G01*
X158111091Y-81273534D01*
X158118879Y-81352484D01*
X158125883Y-81460452D01*
X158131943Y-81590783D01*
X158136898Y-81736819D01*
X158140589Y-81891906D01*
X158142854Y-82049385D01*
X158143534Y-82202603D01*
X158142469Y-82344901D01*
X158139499Y-82469624D01*
X158134814Y-82565058D01*
X158126078Y-82661340D01*
X158114561Y-82744248D01*
X158101971Y-82803106D01*
X158093328Y-82824426D01*
X158056277Y-82846937D01*
X157991623Y-82862762D01*
X157913832Y-82869949D01*
X157837368Y-82866543D01*
X157812796Y-82862313D01*
X157765028Y-82842124D01*
X157743782Y-82824635D01*
X157728449Y-82787223D01*
X157713152Y-82717632D01*
X157699269Y-82625995D01*
X157688173Y-82522447D01*
X157681243Y-82417119D01*
X157679620Y-82352092D01*
X157678967Y-82219800D01*
X157525509Y-82219682D01*
X157388447Y-82213936D01*
X157288420Y-82195602D01*
X157221475Y-82162676D01*
X157183657Y-82113151D01*
X157171012Y-82045024D01*
X157170967Y-82039884D01*
X157181457Y-81971693D01*
X157215687Y-81921678D01*
X157277798Y-81887807D01*
X157371929Y-81868044D01*
X157502220Y-81860358D01*
X157537019Y-81860085D01*
X157701988Y-81859967D01*
X157695769Y-81706509D01*
X157689550Y-81553050D01*
X157367455Y-81542467D01*
X157231550Y-81537163D01*
X157131917Y-81529880D01*
X157062499Y-81518183D01*
X157017237Y-81499633D01*
X156990072Y-81471794D01*
X156974947Y-81432227D01*
X156966139Y-81381010D01*
X156965480Y-81310131D01*
X156989672Y-81256086D01*
X156996468Y-81247257D01*
X157022727Y-81222998D01*
X157060941Y-81203815D01*
X157115827Y-81189129D01*
X157192103Y-81178361D01*
X157294486Y-81170935D01*
X157427693Y-81166272D01*
X157596441Y-81163795D01*
X157682188Y-81163253D01*
X158076992Y-81161467D01*
X158102679Y-81230259D01*
X158102679Y-81230259D01*
G37*
X158102679Y-81230259D02*
X158111091Y-81273534D01*
X158118879Y-81352484D01*
X158125883Y-81460452D01*
X158131943Y-81590783D01*
X158136898Y-81736819D01*
X158140589Y-81891906D01*
X158142854Y-82049385D01*
X158143534Y-82202603D01*
X158142469Y-82344901D01*
X158139499Y-82469624D01*
X158134814Y-82565058D01*
X158126078Y-82661340D01*
X158114561Y-82744248D01*
X158101971Y-82803106D01*
X158093328Y-82824426D01*
X158056277Y-82846937D01*
X157991623Y-82862762D01*
X157913832Y-82869949D01*
X157837368Y-82866543D01*
X157812796Y-82862313D01*
X157765028Y-82842124D01*
X157743782Y-82824635D01*
X157728449Y-82787223D01*
X157713152Y-82717632D01*
X157699269Y-82625995D01*
X157688173Y-82522447D01*
X157681243Y-82417119D01*
X157679620Y-82352092D01*
X157678967Y-82219800D01*
X157525509Y-82219682D01*
X157388447Y-82213936D01*
X157288420Y-82195602D01*
X157221475Y-82162676D01*
X157183657Y-82113151D01*
X157171012Y-82045024D01*
X157170967Y-82039884D01*
X157181457Y-81971693D01*
X157215687Y-81921678D01*
X157277798Y-81887807D01*
X157371929Y-81868044D01*
X157502220Y-81860358D01*
X157537019Y-81860085D01*
X157701988Y-81859967D01*
X157695769Y-81706509D01*
X157689550Y-81553050D01*
X157367455Y-81542467D01*
X157231550Y-81537163D01*
X157131917Y-81529880D01*
X157062499Y-81518183D01*
X157017237Y-81499633D01*
X156990072Y-81471794D01*
X156974947Y-81432227D01*
X156966139Y-81381010D01*
X156965480Y-81310131D01*
X156989672Y-81256086D01*
X156996468Y-81247257D01*
X157022727Y-81222998D01*
X157060941Y-81203815D01*
X157115827Y-81189129D01*
X157192103Y-81178361D01*
X157294486Y-81170935D01*
X157427693Y-81166272D01*
X157596441Y-81163795D01*
X157682188Y-81163253D01*
X158076992Y-81161467D01*
X158102679Y-81230259D01*
G36*
X159502049Y-81629480D02*
G01*
X159579005Y-81650179D01*
X159608080Y-81667559D01*
X159624600Y-81682098D01*
X159637107Y-81699230D01*
X159646265Y-81724727D01*
X159652742Y-81764363D01*
X159657202Y-81823909D01*
X159660313Y-81909140D01*
X159662739Y-82025828D01*
X159664845Y-82159684D01*
X159666264Y-82301578D01*
X159666292Y-82436179D01*
X159665028Y-82555185D01*
X159662571Y-82650296D01*
X159659023Y-82713212D01*
X159658105Y-82721914D01*
X159648167Y-82787103D01*
X159633027Y-82822982D01*
X159603785Y-82842409D01*
X159566643Y-82854087D01*
X159452028Y-82872125D01*
X159336796Y-82861230D01*
X159302495Y-82850722D01*
X159276963Y-82830479D01*
X159258498Y-82794503D01*
X159245399Y-82736793D01*
X159235965Y-82651352D01*
X159228494Y-82532180D01*
X159225437Y-82468529D01*
X159217992Y-82323669D01*
X159208562Y-82214968D01*
X159193942Y-82136267D01*
X159170931Y-82081409D01*
X159136326Y-82044237D01*
X159086924Y-82018594D01*
X159019521Y-81998320D01*
X158975290Y-81987620D01*
X158910350Y-81968713D01*
X158870192Y-81942953D01*
X158849812Y-81901174D01*
X158844203Y-81834207D01*
X158847175Y-81753002D01*
X158853717Y-81637717D01*
X158932520Y-81631182D01*
X159010860Y-81637377D01*
X159098355Y-81663341D01*
X159109363Y-81668014D01*
X159168036Y-81692845D01*
X159203366Y-81700656D01*
X159230717Y-81691573D01*
X159260957Y-81669258D01*
X159326077Y-81639102D01*
X159412090Y-81625815D01*
X159502049Y-81629480D01*
X159502049Y-81629480D01*
G37*
X159502049Y-81629480D02*
X159579005Y-81650179D01*
X159608080Y-81667559D01*
X159624600Y-81682098D01*
X159637107Y-81699230D01*
X159646265Y-81724727D01*
X159652742Y-81764363D01*
X159657202Y-81823909D01*
X159660313Y-81909140D01*
X159662739Y-82025828D01*
X159664845Y-82159684D01*
X159666264Y-82301578D01*
X159666292Y-82436179D01*
X159665028Y-82555185D01*
X159662571Y-82650296D01*
X159659023Y-82713212D01*
X159658105Y-82721914D01*
X159648167Y-82787103D01*
X159633027Y-82822982D01*
X159603785Y-82842409D01*
X159566643Y-82854087D01*
X159452028Y-82872125D01*
X159336796Y-82861230D01*
X159302495Y-82850722D01*
X159276963Y-82830479D01*
X159258498Y-82794503D01*
X159245399Y-82736793D01*
X159235965Y-82651352D01*
X159228494Y-82532180D01*
X159225437Y-82468529D01*
X159217992Y-82323669D01*
X159208562Y-82214968D01*
X159193942Y-82136267D01*
X159170931Y-82081409D01*
X159136326Y-82044237D01*
X159086924Y-82018594D01*
X159019521Y-81998320D01*
X158975290Y-81987620D01*
X158910350Y-81968713D01*
X158870192Y-81942953D01*
X158849812Y-81901174D01*
X158844203Y-81834207D01*
X158847175Y-81753002D01*
X158853717Y-81637717D01*
X158932520Y-81631182D01*
X159010860Y-81637377D01*
X159098355Y-81663341D01*
X159109363Y-81668014D01*
X159168036Y-81692845D01*
X159203366Y-81700656D01*
X159230717Y-81691573D01*
X159260957Y-81669258D01*
X159326077Y-81639102D01*
X159412090Y-81625815D01*
X159502049Y-81629480D01*
G36*
X160426073Y-81649789D02*
G01*
X160519764Y-81663204D01*
X160593751Y-81686852D01*
X160655503Y-81722702D01*
X160712490Y-81772725D01*
X160739438Y-81801343D01*
X160830639Y-81926123D01*
X160884131Y-82060544D01*
X160903626Y-82214290D01*
X160903845Y-82230384D01*
X160887522Y-82402011D01*
X160838160Y-82553415D01*
X160757891Y-82680804D01*
X160648844Y-82780387D01*
X160569394Y-82825724D01*
X160461804Y-82859342D01*
X160330478Y-82875516D01*
X160190370Y-82873982D01*
X160056434Y-82854475D01*
X159990698Y-82835949D01*
X159882254Y-82786834D01*
X159810747Y-82728555D01*
X159777551Y-82663671D01*
X159784040Y-82594741D01*
X159826373Y-82529808D01*
X159860911Y-82496015D01*
X159893052Y-82479420D01*
X159933955Y-82479473D01*
X159994780Y-82495622D01*
X160060950Y-82518235D01*
X160165946Y-82547274D01*
X160255111Y-82552512D01*
X160281092Y-82549853D01*
X160362569Y-82531305D01*
X160424211Y-82503556D01*
X160461886Y-82471576D01*
X160471462Y-82440338D01*
X160448805Y-82414813D01*
X160404175Y-82401767D01*
X160356929Y-82396966D01*
X160278067Y-82391469D01*
X160178285Y-82385932D01*
X160068278Y-82381009D01*
X160060217Y-82380695D01*
X159946661Y-82375800D01*
X159867618Y-82370434D01*
X159815283Y-82363128D01*
X159781846Y-82352410D01*
X159759500Y-82336811D01*
X159745679Y-82321465D01*
X159719950Y-82258754D01*
X159718584Y-82172522D01*
X159738712Y-82071657D01*
X159754646Y-82027822D01*
X160139002Y-82027822D01*
X160140151Y-82070435D01*
X160173755Y-82097895D01*
X160181925Y-82100077D01*
X160227916Y-82104099D01*
X160291183Y-82103112D01*
X160355992Y-82098208D01*
X160406613Y-82090480D01*
X160426211Y-82083111D01*
X160428773Y-82057857D01*
X160422270Y-82020025D01*
X160391125Y-81972674D01*
X160335025Y-81945760D01*
X160267126Y-81941297D01*
X160200588Y-81961297D01*
X160171342Y-81981631D01*
X160139002Y-82027822D01*
X159754646Y-82027822D01*
X159777465Y-81965050D01*
X159831974Y-81861589D01*
X159899368Y-81770164D01*
X159935611Y-81733020D01*
X159992724Y-81684125D01*
X160039954Y-81658373D01*
X160096347Y-81648002D01*
X160149702Y-81645773D01*
X160305209Y-81644635D01*
X160426073Y-81649789D01*
X160426073Y-81649789D01*
G37*
X160426073Y-81649789D02*
X160519764Y-81663204D01*
X160593751Y-81686852D01*
X160655503Y-81722702D01*
X160712490Y-81772725D01*
X160739438Y-81801343D01*
X160830639Y-81926123D01*
X160884131Y-82060544D01*
X160903626Y-82214290D01*
X160903845Y-82230384D01*
X160887522Y-82402011D01*
X160838160Y-82553415D01*
X160757891Y-82680804D01*
X160648844Y-82780387D01*
X160569394Y-82825724D01*
X160461804Y-82859342D01*
X160330478Y-82875516D01*
X160190370Y-82873982D01*
X160056434Y-82854475D01*
X159990698Y-82835949D01*
X159882254Y-82786834D01*
X159810747Y-82728555D01*
X159777551Y-82663671D01*
X159784040Y-82594741D01*
X159826373Y-82529808D01*
X159860911Y-82496015D01*
X159893052Y-82479420D01*
X159933955Y-82479473D01*
X159994780Y-82495622D01*
X160060950Y-82518235D01*
X160165946Y-82547274D01*
X160255111Y-82552512D01*
X160281092Y-82549853D01*
X160362569Y-82531305D01*
X160424211Y-82503556D01*
X160461886Y-82471576D01*
X160471462Y-82440338D01*
X160448805Y-82414813D01*
X160404175Y-82401767D01*
X160356929Y-82396966D01*
X160278067Y-82391469D01*
X160178285Y-82385932D01*
X160068278Y-82381009D01*
X160060217Y-82380695D01*
X159946661Y-82375800D01*
X159867618Y-82370434D01*
X159815283Y-82363128D01*
X159781846Y-82352410D01*
X159759500Y-82336811D01*
X159745679Y-82321465D01*
X159719950Y-82258754D01*
X159718584Y-82172522D01*
X159738712Y-82071657D01*
X159754646Y-82027822D01*
X160139002Y-82027822D01*
X160140151Y-82070435D01*
X160173755Y-82097895D01*
X160181925Y-82100077D01*
X160227916Y-82104099D01*
X160291183Y-82103112D01*
X160355992Y-82098208D01*
X160406613Y-82090480D01*
X160426211Y-82083111D01*
X160428773Y-82057857D01*
X160422270Y-82020025D01*
X160391125Y-81972674D01*
X160335025Y-81945760D01*
X160267126Y-81941297D01*
X160200588Y-81961297D01*
X160171342Y-81981631D01*
X160139002Y-82027822D01*
X159754646Y-82027822D01*
X159777465Y-81965050D01*
X159831974Y-81861589D01*
X159899368Y-81770164D01*
X159935611Y-81733020D01*
X159992724Y-81684125D01*
X160039954Y-81658373D01*
X160096347Y-81648002D01*
X160149702Y-81645773D01*
X160305209Y-81644635D01*
X160426073Y-81649789D01*
G36*
X161851750Y-81172936D02*
G01*
X161923340Y-81189342D01*
X161952019Y-81202185D01*
X161965777Y-81231433D01*
X161977804Y-81297484D01*
X161987981Y-81394837D01*
X161996192Y-81517992D01*
X162002320Y-81661450D01*
X162006247Y-81819709D01*
X162007856Y-81987270D01*
X162007030Y-82158633D01*
X162003651Y-82328297D01*
X161997603Y-82490763D01*
X161988768Y-82640530D01*
X161983969Y-82700969D01*
X161972511Y-82832888D01*
X161885702Y-82856263D01*
X161805961Y-82868167D01*
X161720738Y-82867529D01*
X161706309Y-82865754D01*
X161653048Y-82854293D01*
X161616482Y-82833472D01*
X161591210Y-82795111D01*
X161571834Y-82731028D01*
X161553038Y-82633530D01*
X161534623Y-82547061D01*
X161513386Y-82496068D01*
X161486102Y-82480997D01*
X161449545Y-82502292D01*
X161400491Y-82560400D01*
X161335714Y-82655765D01*
X161330217Y-82664300D01*
X161283845Y-82733614D01*
X161242633Y-82790194D01*
X161214529Y-82823209D01*
X161211938Y-82825457D01*
X161170077Y-82842385D01*
X161101592Y-82855341D01*
X161022119Y-82862802D01*
X160947296Y-82863243D01*
X160896300Y-82856223D01*
X160865964Y-82842041D01*
X160851564Y-82817464D01*
X160854226Y-82777083D01*
X160875077Y-82715489D01*
X160915240Y-82627273D01*
X160964294Y-82529485D01*
X161014567Y-82431387D01*
X161063351Y-82336136D01*
X161104077Y-82256560D01*
X161124605Y-82216403D01*
X161147631Y-82169490D01*
X161159350Y-82132142D01*
X161156932Y-82096514D01*
X161137545Y-82054762D01*
X161098361Y-81999043D01*
X161036549Y-81921512D01*
X161003628Y-81881134D01*
X160948472Y-81809803D01*
X160906320Y-81748120D01*
X160882850Y-81704792D01*
X160880023Y-81691562D01*
X160906586Y-81660260D01*
X160972628Y-81639789D01*
X161078857Y-81629951D01*
X161104931Y-81629243D01*
X161156865Y-81629250D01*
X161196292Y-81635055D01*
X161232693Y-81651906D01*
X161275549Y-81685054D01*
X161334343Y-81739748D01*
X161374290Y-81778377D01*
X161455038Y-81853136D01*
X161509203Y-81895032D01*
X161536837Y-81904105D01*
X161540084Y-81900085D01*
X161544202Y-81868872D01*
X161548589Y-81804108D01*
X161552778Y-81714572D01*
X161556302Y-81609039D01*
X161556977Y-81583103D01*
X161562427Y-81443610D01*
X161572296Y-81340460D01*
X161588650Y-81267729D01*
X161613556Y-81219491D01*
X161649082Y-81189822D01*
X161697296Y-81172798D01*
X161700376Y-81172107D01*
X161770572Y-81166371D01*
X161851750Y-81172936D01*
X161851750Y-81172936D01*
G37*
X161851750Y-81172936D02*
X161923340Y-81189342D01*
X161952019Y-81202185D01*
X161965777Y-81231433D01*
X161977804Y-81297484D01*
X161987981Y-81394837D01*
X161996192Y-81517992D01*
X162002320Y-81661450D01*
X162006247Y-81819709D01*
X162007856Y-81987270D01*
X162007030Y-82158633D01*
X162003651Y-82328297D01*
X161997603Y-82490763D01*
X161988768Y-82640530D01*
X161983969Y-82700969D01*
X161972511Y-82832888D01*
X161885702Y-82856263D01*
X161805961Y-82868167D01*
X161720738Y-82867529D01*
X161706309Y-82865754D01*
X161653048Y-82854293D01*
X161616482Y-82833472D01*
X161591210Y-82795111D01*
X161571834Y-82731028D01*
X161553038Y-82633530D01*
X161534623Y-82547061D01*
X161513386Y-82496068D01*
X161486102Y-82480997D01*
X161449545Y-82502292D01*
X161400491Y-82560400D01*
X161335714Y-82655765D01*
X161330217Y-82664300D01*
X161283845Y-82733614D01*
X161242633Y-82790194D01*
X161214529Y-82823209D01*
X161211938Y-82825457D01*
X161170077Y-82842385D01*
X161101592Y-82855341D01*
X161022119Y-82862802D01*
X160947296Y-82863243D01*
X160896300Y-82856223D01*
X160865964Y-82842041D01*
X160851564Y-82817464D01*
X160854226Y-82777083D01*
X160875077Y-82715489D01*
X160915240Y-82627273D01*
X160964294Y-82529485D01*
X161014567Y-82431387D01*
X161063351Y-82336136D01*
X161104077Y-82256560D01*
X161124605Y-82216403D01*
X161147631Y-82169490D01*
X161159350Y-82132142D01*
X161156932Y-82096514D01*
X161137545Y-82054762D01*
X161098361Y-81999043D01*
X161036549Y-81921512D01*
X161003628Y-81881134D01*
X160948472Y-81809803D01*
X160906320Y-81748120D01*
X160882850Y-81704792D01*
X160880023Y-81691562D01*
X160906586Y-81660260D01*
X160972628Y-81639789D01*
X161078857Y-81629951D01*
X161104931Y-81629243D01*
X161156865Y-81629250D01*
X161196292Y-81635055D01*
X161232693Y-81651906D01*
X161275549Y-81685054D01*
X161334343Y-81739748D01*
X161374290Y-81778377D01*
X161455038Y-81853136D01*
X161509203Y-81895032D01*
X161536837Y-81904105D01*
X161540084Y-81900085D01*
X161544202Y-81868872D01*
X161548589Y-81804108D01*
X161552778Y-81714572D01*
X161556302Y-81609039D01*
X161556977Y-81583103D01*
X161562427Y-81443610D01*
X161572296Y-81340460D01*
X161588650Y-81267729D01*
X161613556Y-81219491D01*
X161649082Y-81189822D01*
X161697296Y-81172798D01*
X161700376Y-81172107D01*
X161770572Y-81166371D01*
X161851750Y-81172936D01*
G36*
X162596410Y-81631708D02*
G01*
X162782950Y-81647753D01*
X162938093Y-81679939D01*
X163058859Y-81727432D01*
X163135949Y-81782828D01*
X163167023Y-81818115D01*
X163173999Y-81848783D01*
X163159659Y-81894194D01*
X163153936Y-81908045D01*
X163118683Y-81968155D01*
X163074405Y-82014832D01*
X163069210Y-82018484D01*
X163040682Y-82034618D01*
X163011622Y-82040736D01*
X162971420Y-82035919D01*
X162909464Y-82019246D01*
X162844099Y-81998963D01*
X162743147Y-81968363D01*
X162672972Y-81951419D01*
X162624568Y-81947318D01*
X162588929Y-81955245D01*
X162558723Y-81973153D01*
X162538822Y-81990963D01*
X162536954Y-82006305D01*
X162558061Y-82021858D01*
X162607087Y-82040303D01*
X162688976Y-82064321D01*
X162764792Y-82084894D01*
X162921842Y-82133755D01*
X163041820Y-82188217D01*
X163129961Y-82252468D01*
X163191503Y-82330697D01*
X163231683Y-82427094D01*
X163241789Y-82466436D01*
X163246609Y-82576386D01*
X163215102Y-82679001D01*
X163153273Y-82767048D01*
X163067127Y-82833291D01*
X162962671Y-82870496D01*
X162901843Y-82875967D01*
X162840826Y-82870021D01*
X162761982Y-82854826D01*
X162715955Y-82843066D01*
X162621226Y-82816607D01*
X162558354Y-82801204D01*
X162518585Y-82795957D01*
X162493163Y-82799969D01*
X162473335Y-82812341D01*
X162467183Y-82817535D01*
X162397951Y-82850976D01*
X162293345Y-82861833D01*
X162198050Y-82855921D01*
X162092217Y-82844217D01*
X162094520Y-82440416D01*
X162094869Y-82409675D01*
X162536717Y-82409675D01*
X162544985Y-82467511D01*
X162575706Y-82502065D01*
X162589634Y-82509905D01*
X162677716Y-82535101D01*
X162761227Y-82523253D01*
X162796590Y-82504350D01*
X162831493Y-82473407D01*
X162843634Y-82451790D01*
X162825588Y-82429695D01*
X162779900Y-82400615D01*
X162719243Y-82370477D01*
X162656290Y-82345209D01*
X162603714Y-82330739D01*
X162582593Y-82329682D01*
X162550591Y-82342925D01*
X162537999Y-82378507D01*
X162536717Y-82409675D01*
X162094869Y-82409675D01*
X162096512Y-82265349D01*
X162101160Y-82126538D01*
X162109808Y-82017926D01*
X162123802Y-81933458D01*
X162144488Y-81867075D01*
X162173211Y-81812720D01*
X162211318Y-81764338D01*
X162254278Y-81721335D01*
X162359770Y-81622659D01*
X162596410Y-81631708D01*
X162596410Y-81631708D01*
G37*
X162596410Y-81631708D02*
X162782950Y-81647753D01*
X162938093Y-81679939D01*
X163058859Y-81727432D01*
X163135949Y-81782828D01*
X163167023Y-81818115D01*
X163173999Y-81848783D01*
X163159659Y-81894194D01*
X163153936Y-81908045D01*
X163118683Y-81968155D01*
X163074405Y-82014832D01*
X163069210Y-82018484D01*
X163040682Y-82034618D01*
X163011622Y-82040736D01*
X162971420Y-82035919D01*
X162909464Y-82019246D01*
X162844099Y-81998963D01*
X162743147Y-81968363D01*
X162672972Y-81951419D01*
X162624568Y-81947318D01*
X162588929Y-81955245D01*
X162558723Y-81973153D01*
X162538822Y-81990963D01*
X162536954Y-82006305D01*
X162558061Y-82021858D01*
X162607087Y-82040303D01*
X162688976Y-82064321D01*
X162764792Y-82084894D01*
X162921842Y-82133755D01*
X163041820Y-82188217D01*
X163129961Y-82252468D01*
X163191503Y-82330697D01*
X163231683Y-82427094D01*
X163241789Y-82466436D01*
X163246609Y-82576386D01*
X163215102Y-82679001D01*
X163153273Y-82767048D01*
X163067127Y-82833291D01*
X162962671Y-82870496D01*
X162901843Y-82875967D01*
X162840826Y-82870021D01*
X162761982Y-82854826D01*
X162715955Y-82843066D01*
X162621226Y-82816607D01*
X162558354Y-82801204D01*
X162518585Y-82795957D01*
X162493163Y-82799969D01*
X162473335Y-82812341D01*
X162467183Y-82817535D01*
X162397951Y-82850976D01*
X162293345Y-82861833D01*
X162198050Y-82855921D01*
X162092217Y-82844217D01*
X162094520Y-82440416D01*
X162094869Y-82409675D01*
X162536717Y-82409675D01*
X162544985Y-82467511D01*
X162575706Y-82502065D01*
X162589634Y-82509905D01*
X162677716Y-82535101D01*
X162761227Y-82523253D01*
X162796590Y-82504350D01*
X162831493Y-82473407D01*
X162843634Y-82451790D01*
X162825588Y-82429695D01*
X162779900Y-82400615D01*
X162719243Y-82370477D01*
X162656290Y-82345209D01*
X162603714Y-82330739D01*
X162582593Y-82329682D01*
X162550591Y-82342925D01*
X162537999Y-82378507D01*
X162536717Y-82409675D01*
X162094869Y-82409675D01*
X162096512Y-82265349D01*
X162101160Y-82126538D01*
X162109808Y-82017926D01*
X162123802Y-81933458D01*
X162144488Y-81867075D01*
X162173211Y-81812720D01*
X162211318Y-81764338D01*
X162254278Y-81721335D01*
X162359770Y-81622659D01*
X162596410Y-81631708D01*
G36*
X164858909Y-81166831D02*
G01*
X164934777Y-81174572D01*
X164988907Y-81187842D01*
X165004220Y-81196920D01*
X165023582Y-81231354D01*
X165042586Y-81287652D01*
X165046107Y-81301754D01*
X165050952Y-81344320D01*
X165055036Y-81422628D01*
X165058348Y-81530093D01*
X165060877Y-81660130D01*
X165062610Y-81806154D01*
X165063537Y-81961581D01*
X165063645Y-82119825D01*
X165062922Y-82274301D01*
X165061356Y-82418425D01*
X165058937Y-82545611D01*
X165055652Y-82649275D01*
X165051490Y-82722832D01*
X165048690Y-82748967D01*
X165034384Y-82844217D01*
X164873518Y-82850342D01*
X164712653Y-82856467D01*
X164698893Y-82693690D01*
X164691490Y-82586463D01*
X164685937Y-82469616D01*
X164683646Y-82380648D01*
X164680519Y-82299094D01*
X164673753Y-82229869D01*
X164664838Y-82188050D01*
X164652531Y-82167688D01*
X164638596Y-82175087D01*
X164617516Y-82215218D01*
X164606100Y-82240967D01*
X164582222Y-82300680D01*
X164549990Y-82387779D01*
X164514086Y-82489375D01*
X164486988Y-82569050D01*
X164454872Y-82663448D01*
X164426345Y-82743917D01*
X164404693Y-82801403D01*
X164393755Y-82826074D01*
X164363873Y-82840870D01*
X164302022Y-82851905D01*
X164218484Y-82858052D01*
X164123541Y-82858182D01*
X164107171Y-82857532D01*
X164079070Y-82851474D01*
X164052893Y-82832895D01*
X164026168Y-82797062D01*
X163996422Y-82739242D01*
X163961183Y-82654703D01*
X163917978Y-82538713D01*
X163870759Y-82405009D01*
X163838051Y-82314804D01*
X163809004Y-82241513D01*
X163786954Y-82193125D01*
X163775773Y-82177467D01*
X163769495Y-82197396D01*
X163762759Y-82252259D01*
X163756215Y-82334673D01*
X163750512Y-82437254D01*
X163748361Y-82488891D01*
X163743372Y-82610742D01*
X163738224Y-82697453D01*
X163731717Y-82756201D01*
X163722650Y-82794166D01*
X163709824Y-82818527D01*
X163692039Y-82836464D01*
X163689990Y-82838141D01*
X163629330Y-82866715D01*
X163550610Y-82877853D01*
X163470122Y-82871913D01*
X163404159Y-82849250D01*
X163381372Y-82831383D01*
X163370827Y-82817729D01*
X163362295Y-82799610D01*
X163355564Y-82772739D01*
X163350423Y-82732829D01*
X163346658Y-82675593D01*
X163344057Y-82596742D01*
X163342409Y-82491990D01*
X163341500Y-82357049D01*
X163341118Y-82187632D01*
X163341050Y-82017208D01*
X163341190Y-81815026D01*
X163341736Y-81650965D01*
X163342882Y-81520814D01*
X163344818Y-81420360D01*
X163347738Y-81345392D01*
X163351832Y-81291699D01*
X163357292Y-81255068D01*
X163364311Y-81231289D01*
X163373081Y-81216149D01*
X163377791Y-81210890D01*
X163418248Y-81192125D01*
X163488344Y-81179025D01*
X163575733Y-81171843D01*
X163668067Y-81170830D01*
X163753001Y-81176239D01*
X163818187Y-81188322D01*
X163845995Y-81201324D01*
X163866091Y-81232528D01*
X163893867Y-81295060D01*
X163925488Y-81379511D01*
X163953887Y-81465908D01*
X163992044Y-81589859D01*
X164035976Y-81732856D01*
X164079099Y-81873458D01*
X164102512Y-81949925D01*
X164132892Y-82045076D01*
X164160332Y-82123415D01*
X164181931Y-82177166D01*
X164194789Y-82198549D01*
X164195250Y-82198634D01*
X164206366Y-82179408D01*
X164227883Y-82125701D01*
X164257666Y-82043465D01*
X164293580Y-81938651D01*
X164333489Y-81817212D01*
X164345232Y-81780592D01*
X164398890Y-81613833D01*
X164442587Y-81482896D01*
X164478592Y-81383075D01*
X164509175Y-81309663D01*
X164536604Y-81257954D01*
X164563149Y-81223243D01*
X164591079Y-81200823D01*
X164622664Y-81185988D01*
X164633821Y-81182104D01*
X164695135Y-81170065D01*
X164774596Y-81165152D01*
X164858909Y-81166831D01*
X164858909Y-81166831D01*
G37*
X164858909Y-81166831D02*
X164934777Y-81174572D01*
X164988907Y-81187842D01*
X165004220Y-81196920D01*
X165023582Y-81231354D01*
X165042586Y-81287652D01*
X165046107Y-81301754D01*
X165050952Y-81344320D01*
X165055036Y-81422628D01*
X165058348Y-81530093D01*
X165060877Y-81660130D01*
X165062610Y-81806154D01*
X165063537Y-81961581D01*
X165063645Y-82119825D01*
X165062922Y-82274301D01*
X165061356Y-82418425D01*
X165058937Y-82545611D01*
X165055652Y-82649275D01*
X165051490Y-82722832D01*
X165048690Y-82748967D01*
X165034384Y-82844217D01*
X164873518Y-82850342D01*
X164712653Y-82856467D01*
X164698893Y-82693690D01*
X164691490Y-82586463D01*
X164685937Y-82469616D01*
X164683646Y-82380648D01*
X164680519Y-82299094D01*
X164673753Y-82229869D01*
X164664838Y-82188050D01*
X164652531Y-82167688D01*
X164638596Y-82175087D01*
X164617516Y-82215218D01*
X164606100Y-82240967D01*
X164582222Y-82300680D01*
X164549990Y-82387779D01*
X164514086Y-82489375D01*
X164486988Y-82569050D01*
X164454872Y-82663448D01*
X164426345Y-82743917D01*
X164404693Y-82801403D01*
X164393755Y-82826074D01*
X164363873Y-82840870D01*
X164302022Y-82851905D01*
X164218484Y-82858052D01*
X164123541Y-82858182D01*
X164107171Y-82857532D01*
X164079070Y-82851474D01*
X164052893Y-82832895D01*
X164026168Y-82797062D01*
X163996422Y-82739242D01*
X163961183Y-82654703D01*
X163917978Y-82538713D01*
X163870759Y-82405009D01*
X163838051Y-82314804D01*
X163809004Y-82241513D01*
X163786954Y-82193125D01*
X163775773Y-82177467D01*
X163769495Y-82197396D01*
X163762759Y-82252259D01*
X163756215Y-82334673D01*
X163750512Y-82437254D01*
X163748361Y-82488891D01*
X163743372Y-82610742D01*
X163738224Y-82697453D01*
X163731717Y-82756201D01*
X163722650Y-82794166D01*
X163709824Y-82818527D01*
X163692039Y-82836464D01*
X163689990Y-82838141D01*
X163629330Y-82866715D01*
X163550610Y-82877853D01*
X163470122Y-82871913D01*
X163404159Y-82849250D01*
X163381372Y-82831383D01*
X163370827Y-82817729D01*
X163362295Y-82799610D01*
X163355564Y-82772739D01*
X163350423Y-82732829D01*
X163346658Y-82675593D01*
X163344057Y-82596742D01*
X163342409Y-82491990D01*
X163341500Y-82357049D01*
X163341118Y-82187632D01*
X163341050Y-82017208D01*
X163341190Y-81815026D01*
X163341736Y-81650965D01*
X163342882Y-81520814D01*
X163344818Y-81420360D01*
X163347738Y-81345392D01*
X163351832Y-81291699D01*
X163357292Y-81255068D01*
X163364311Y-81231289D01*
X163373081Y-81216149D01*
X163377791Y-81210890D01*
X163418248Y-81192125D01*
X163488344Y-81179025D01*
X163575733Y-81171843D01*
X163668067Y-81170830D01*
X163753001Y-81176239D01*
X163818187Y-81188322D01*
X163845995Y-81201324D01*
X163866091Y-81232528D01*
X163893867Y-81295060D01*
X163925488Y-81379511D01*
X163953887Y-81465908D01*
X163992044Y-81589859D01*
X164035976Y-81732856D01*
X164079099Y-81873458D01*
X164102512Y-81949925D01*
X164132892Y-82045076D01*
X164160332Y-82123415D01*
X164181931Y-82177166D01*
X164194789Y-82198549D01*
X164195250Y-82198634D01*
X164206366Y-82179408D01*
X164227883Y-82125701D01*
X164257666Y-82043465D01*
X164293580Y-81938651D01*
X164333489Y-81817212D01*
X164345232Y-81780592D01*
X164398890Y-81613833D01*
X164442587Y-81482896D01*
X164478592Y-81383075D01*
X164509175Y-81309663D01*
X164536604Y-81257954D01*
X164563149Y-81223243D01*
X164591079Y-81200823D01*
X164622664Y-81185988D01*
X164633821Y-81182104D01*
X164695135Y-81170065D01*
X164774596Y-81165152D01*
X164858909Y-81166831D01*
G36*
X155802046Y-81184451D02*
G01*
X155870225Y-81230975D01*
X155912232Y-81301821D01*
X155922134Y-81366367D01*
X155905119Y-81448818D01*
X155854622Y-81505811D01*
X155771460Y-81536697D01*
X155699884Y-81542467D01*
X155623997Y-81538789D01*
X155573996Y-81524491D01*
X155533819Y-81494671D01*
X155529588Y-81490512D01*
X155484890Y-81420288D01*
X155476552Y-81343797D01*
X155501789Y-81270894D01*
X155557819Y-81211438D01*
X155616662Y-81182157D01*
X155715067Y-81166696D01*
X155802046Y-81184451D01*
X155802046Y-81184451D01*
G37*
X155802046Y-81184451D02*
X155870225Y-81230975D01*
X155912232Y-81301821D01*
X155922134Y-81366367D01*
X155905119Y-81448818D01*
X155854622Y-81505811D01*
X155771460Y-81536697D01*
X155699884Y-81542467D01*
X155623997Y-81538789D01*
X155573996Y-81524491D01*
X155533819Y-81494671D01*
X155529588Y-81490512D01*
X155484890Y-81420288D01*
X155476552Y-81343797D01*
X155501789Y-81270894D01*
X155557819Y-81211438D01*
X155616662Y-81182157D01*
X155715067Y-81166696D01*
X155802046Y-81184451D01*
G36*
X153491967Y-81221197D02*
G01*
X153550324Y-81265277D01*
X153587321Y-81323873D01*
X153593800Y-81359243D01*
X153574889Y-81427694D01*
X153525513Y-81480280D01*
X153456707Y-81509495D01*
X153379507Y-81507828D01*
X153376554Y-81507055D01*
X153338498Y-81479065D01*
X153303236Y-81425861D01*
X153280262Y-81364031D01*
X153276300Y-81331851D01*
X153295283Y-81274858D01*
X153343496Y-81228816D01*
X153407837Y-81204974D01*
X153425429Y-81203800D01*
X153491967Y-81221197D01*
X153491967Y-81221197D01*
G37*
X153491967Y-81221197D02*
X153550324Y-81265277D01*
X153587321Y-81323873D01*
X153593800Y-81359243D01*
X153574889Y-81427694D01*
X153525513Y-81480280D01*
X153456707Y-81509495D01*
X153379507Y-81507828D01*
X153376554Y-81507055D01*
X153338498Y-81479065D01*
X153303236Y-81425861D01*
X153280262Y-81364031D01*
X153276300Y-81331851D01*
X153295283Y-81274858D01*
X153343496Y-81228816D01*
X153407837Y-81204974D01*
X153425429Y-81203800D01*
X153491967Y-81221197D01*
G36*
X156388234Y-79147480D02*
G01*
X156460462Y-79200467D01*
X156509081Y-79286851D01*
X156532966Y-79405055D01*
X156535344Y-79468134D01*
X156523306Y-79610902D01*
X156488099Y-79718805D01*
X156429128Y-79792791D01*
X156345794Y-79833807D01*
X156300333Y-79841746D01*
X156225431Y-79841127D01*
X156162726Y-79826962D01*
X156154967Y-79823384D01*
X156094682Y-79770180D01*
X156049111Y-79687298D01*
X156020386Y-79585484D01*
X156010640Y-79475481D01*
X156022006Y-79368033D01*
X156048842Y-79288818D01*
X156109900Y-79199187D01*
X156189779Y-79146790D01*
X156291789Y-79129471D01*
X156293523Y-79129467D01*
X156388234Y-79147480D01*
X156388234Y-79147480D01*
G37*
X156388234Y-79147480D02*
X156460462Y-79200467D01*
X156509081Y-79286851D01*
X156532966Y-79405055D01*
X156535344Y-79468134D01*
X156523306Y-79610902D01*
X156488099Y-79718805D01*
X156429128Y-79792791D01*
X156345794Y-79833807D01*
X156300333Y-79841746D01*
X156225431Y-79841127D01*
X156162726Y-79826962D01*
X156154967Y-79823384D01*
X156094682Y-79770180D01*
X156049111Y-79687298D01*
X156020386Y-79585484D01*
X156010640Y-79475481D01*
X156022006Y-79368033D01*
X156048842Y-79288818D01*
X156109900Y-79199187D01*
X156189779Y-79146790D01*
X156291789Y-79129471D01*
X156293523Y-79129467D01*
X156388234Y-79147480D01*
G36*
X160957208Y-79509663D02*
G01*
X161038476Y-79543589D01*
X161108374Y-79588053D01*
X161156181Y-79638696D01*
X161171467Y-79685118D01*
X161155403Y-79729100D01*
X161116025Y-79779472D01*
X161066548Y-79823008D01*
X161020191Y-79846482D01*
X161009053Y-79847642D01*
X160965061Y-79839714D01*
X160903435Y-79821835D01*
X160885717Y-79815718D01*
X160822420Y-79785588D01*
X160771910Y-79749146D01*
X160764009Y-79740781D01*
X160738668Y-79688218D01*
X160727982Y-79620489D01*
X160732896Y-79555921D01*
X160752367Y-79514700D01*
X160803434Y-79490860D01*
X160875287Y-79490633D01*
X160957208Y-79509663D01*
X160957208Y-79509663D01*
G37*
X160957208Y-79509663D02*
X161038476Y-79543589D01*
X161108374Y-79588053D01*
X161156181Y-79638696D01*
X161171467Y-79685118D01*
X161155403Y-79729100D01*
X161116025Y-79779472D01*
X161066548Y-79823008D01*
X161020191Y-79846482D01*
X161009053Y-79847642D01*
X160965061Y-79839714D01*
X160903435Y-79821835D01*
X160885717Y-79815718D01*
X160822420Y-79785588D01*
X160771910Y-79749146D01*
X160764009Y-79740781D01*
X160738668Y-79688218D01*
X160727982Y-79620489D01*
X160732896Y-79555921D01*
X160752367Y-79514700D01*
X160803434Y-79490860D01*
X160875287Y-79490633D01*
X160957208Y-79509663D01*
%LPC*%
D13*
G36*
X151187399Y-139308171D02*
G01*
X151182199Y-139273721D01*
X151180499Y-139234101D01*
X151059920Y-139023949D01*
X150896278Y-138851694D01*
X150872168Y-138827574D01*
X150853218Y-138801734D01*
X150830828Y-138781064D01*
X150799818Y-138767284D01*
X150696466Y-138675984D01*
X150570720Y-138596744D01*
X150439806Y-138519234D01*
X150319228Y-138433104D01*
X150289948Y-138441704D01*
X150265828Y-138440004D01*
X150226208Y-138486514D01*
X150174528Y-138512354D01*
X150124578Y-138543364D01*
X150088408Y-138591594D01*
X150100468Y-138600194D01*
X150095268Y-138619144D01*
X150091868Y-138638094D01*
X150107368Y-138646694D01*
X150095308Y-138658754D01*
X150083248Y-138670814D01*
X150088448Y-138688034D01*
X150088448Y-138706984D01*
X150181468Y-138760384D01*
X150288266Y-138812064D01*
X150401954Y-138872354D01*
X150515642Y-138944704D01*
X150631053Y-139036004D01*
X150741296Y-139142803D01*
X150841206Y-139258214D01*
X150920446Y-139373625D01*
X150911846Y-139389125D01*
X150901516Y-139404625D01*
X150779215Y-139404625D01*
X150665527Y-139411525D01*
X150656927Y-139397745D01*
X150646587Y-139385685D01*
X150427823Y-139347785D01*
X150221117Y-139292665D01*
X150276237Y-139273715D01*
X150276237Y-139256485D01*
X150257287Y-139239265D01*
X150303797Y-139197925D01*
X150324467Y-139130745D01*
X150312407Y-139106634D01*
X150324467Y-139084244D01*
X150334807Y-139084244D01*
X150338207Y-139091144D01*
X150341607Y-139098044D01*
X150350207Y-139098044D01*
X150341607Y-139067034D01*
X150331267Y-139037754D01*
X150188296Y-138943014D01*
X150133176Y-138979184D01*
X150064276Y-139017084D01*
X149990206Y-139056704D01*
X149919586Y-139094604D01*
X149866186Y-139129055D01*
X149823126Y-139170395D01*
X149781786Y-139211735D01*
X149731836Y-139246184D01*
X149728436Y-139290975D01*
X149725036Y-139332315D01*
X149804276Y-139432225D01*
X149909351Y-139501125D01*
X150031652Y-139551075D01*
X150166011Y-139588975D01*
X150305537Y-139626875D01*
X150441618Y-139671665D01*
X150491568Y-139673365D01*
X150531188Y-139678565D01*
X150569088Y-139685465D01*
X150610428Y-139690665D01*
X150622488Y-139694065D01*
X150629388Y-139702665D01*
X150691398Y-139707865D01*
X150737908Y-139707865D01*
X150787858Y-139714765D01*
X150836088Y-139719965D01*
X151078967Y-139609722D01*
X151175427Y-139325501D01*
X151178827Y-139315171D01*
X151187427Y-139308271D01*
X151187399Y-139308171D01*
X151187399Y-139308171D01*
G37*
G36*
X149652264Y-139576543D02*
G01*
X149228693Y-138966905D01*
X149257973Y-139046145D01*
X149106389Y-139006525D01*
X148956527Y-138944515D01*
X149001317Y-138842885D01*
X149077107Y-138789485D01*
X149077113Y-138789485D01*
X149127063Y-138849775D01*
X149182183Y-138904895D01*
X149228693Y-138966905D01*
X149652264Y-139576543D01*
X149667764Y-139564483D01*
X149683264Y-139535203D01*
X149664314Y-139535203D01*
X149671214Y-139466303D01*
X149655714Y-139404293D01*
X149641934Y-139345723D01*
X149647134Y-139285433D01*
X149635074Y-139282033D01*
X149628174Y-139257913D01*
X149626474Y-139226903D01*
X149628174Y-139199343D01*
X149593724Y-139089099D01*
X149569604Y-138977134D01*
X149547214Y-138868613D01*
X149512764Y-138768703D01*
X149462814Y-138775603D01*
X149426644Y-138797993D01*
X149331904Y-138698083D01*
X149249224Y-138584395D01*
X149152764Y-138484485D01*
X149020127Y-138432805D01*
X148927107Y-138496535D01*
X148842697Y-138579215D01*
X148816857Y-138598165D01*
X148789297Y-138615395D01*
X148789297Y-138641235D01*
X148749677Y-138694635D01*
X148720397Y-138758365D01*
X148694557Y-138825545D01*
X148666997Y-138889275D01*
X148670397Y-138908225D01*
X148666997Y-138923725D01*
X148661797Y-138940945D01*
X148660097Y-138963335D01*
X148720387Y-139111474D01*
X148847856Y-139202775D01*
X149006330Y-139263065D01*
X149159637Y-139316465D01*
X149152737Y-139323365D01*
X149147537Y-139333695D01*
X149068297Y-139383645D01*
X149014897Y-139416375D01*
X148959777Y-139437045D01*
X148875367Y-139457715D01*
X148792687Y-139478385D01*
X148737567Y-139490445D01*
X148685887Y-139497345D01*
X148611817Y-139505945D01*
X148580807Y-139550735D01*
X148563577Y-139602415D01*
X148561877Y-139652365D01*
X148575657Y-139688535D01*
X148567057Y-139695435D01*
X148549837Y-139695435D01*
X148570507Y-139716105D01*
X148587737Y-139740225D01*
X148608407Y-139762615D01*
X148635967Y-139774675D01*
X148794442Y-139776375D01*
X149040766Y-139697135D01*
X149161344Y-139647185D01*
X149242304Y-139604125D01*
X149306034Y-139557615D01*
X149373214Y-139497325D01*
X149380114Y-139504225D01*
X149385314Y-139511125D01*
X149412874Y-139623089D01*
X149464554Y-139710940D01*
X149502454Y-139716140D01*
X149524844Y-139735090D01*
X149550684Y-139733390D01*
X149566184Y-139724790D01*
X149581684Y-139714450D01*
X149609244Y-139711050D01*
X149619584Y-139681770D01*
X149647144Y-139667990D01*
X149643744Y-139642150D01*
X149648944Y-139621479D01*
X149655844Y-139600810D01*
X149652444Y-139576690D01*
X149652264Y-139576543D01*
X149652264Y-139576543D01*
G37*
G36*
X147598986Y-138754887D02*
G01*
X147598986Y-138773837D01*
X147600686Y-138784167D01*
X147600686Y-138796227D01*
X147597286Y-138813457D01*
X147681696Y-138894417D01*
X147783326Y-138925427D01*
X147897014Y-138944377D01*
X148010702Y-138989167D01*
X148052042Y-138989167D01*
X148103722Y-138994367D01*
X148129562Y-139009867D01*
X148160572Y-139018467D01*
X148155372Y-139051198D01*
X148150172Y-139077037D01*
X148017535Y-139075337D01*
X147872841Y-139066737D01*
X147874541Y-139078797D01*
X147876241Y-139087397D01*
X147852121Y-139109787D01*
X147828001Y-139133908D01*
X147803881Y-139154578D01*
X147772871Y-139159778D01*
X147764271Y-139190788D01*
X147767671Y-139223518D01*
X147822791Y-139263138D01*
X147881361Y-139297588D01*
X147945091Y-139323428D01*
X148019161Y-139330328D01*
X148032941Y-139330328D01*
X148043281Y-139325128D01*
X148082901Y-139330328D01*
X148120801Y-139335528D01*
X148167311Y-139328628D01*
X148213821Y-139321728D01*
X148263771Y-139399238D01*
X148303391Y-139487088D01*
X148206931Y-139493988D01*
X148132861Y-139488788D01*
X148062241Y-139480188D01*
X147970941Y-139476788D01*
X147889981Y-139452668D01*
X147802131Y-139431998D01*
X147778011Y-139450948D01*
X147759061Y-139475068D01*
X147738391Y-139494018D01*
X147712551Y-139500918D01*
X147703951Y-139518148D01*
X147698751Y-139535368D01*
X147693551Y-139550868D01*
X147678051Y-139554268D01*
X147738341Y-139642118D01*
X147814131Y-139686908D01*
X147910591Y-139711018D01*
X148026002Y-139731688D01*
X148051842Y-139729988D01*
X148075962Y-139726588D01*
X148170702Y-139742088D01*
X148282668Y-139747288D01*
X148391188Y-139731788D01*
X148475588Y-139686998D01*
X148494538Y-139659438D01*
X148516928Y-139633598D01*
X148523828Y-139583648D01*
X148534158Y-139526808D01*
X148542758Y-139466518D01*
X148539358Y-139413118D01*
X148518688Y-139366608D01*
X148506628Y-139321818D01*
X148496288Y-139313218D01*
X148482508Y-139306318D01*
X148460118Y-139247748D01*
X148435998Y-139194348D01*
X148410158Y-139142668D01*
X148384318Y-139082377D01*
X148420488Y-139034147D01*
X148435988Y-138980747D01*
X148444588Y-138925627D01*
X148456648Y-138867057D01*
X148415308Y-138825717D01*
X148360188Y-138798157D01*
X148296448Y-138780927D01*
X148224098Y-138765427D01*
X148101797Y-138730977D01*
X147994999Y-138712027D01*
X147884756Y-138696527D01*
X147755565Y-138675857D01*
X147726285Y-138691357D01*
X147710785Y-138682757D01*
X147702185Y-138672427D01*
X147659125Y-138722377D01*
X147598835Y-138755107D01*
X147598986Y-138754887D01*
X147598986Y-138754887D01*
G37*
G36*
X147089112Y-139273375D02*
G01*
X147109782Y-139299215D01*
X147127012Y-139328495D01*
X147145962Y-139364665D01*
X147171802Y-139395675D01*
X147189032Y-139437015D01*
X147216592Y-139469745D01*
X147297552Y-139619607D01*
X147307892Y-139650617D01*
X147323392Y-139678177D01*
X147330292Y-139690237D01*
X147335492Y-139698837D01*
X147338892Y-139716067D01*
X147357842Y-139740187D01*
X147376792Y-139759137D01*
X147388852Y-139772917D01*
X147414692Y-139783247D01*
X147567998Y-139648889D01*
X147566298Y-139631659D01*
X147561098Y-139614439D01*
X147554198Y-139593769D01*
X147538698Y-139545539D01*
X147509418Y-139502479D01*
X147493918Y-139464579D01*
X147452578Y-139383619D01*
X147414678Y-139318159D01*
X147392288Y-139280259D01*
X147433628Y-139230309D01*
X147473248Y-139147629D01*
X147497368Y-139077008D01*
X147502568Y-139039108D01*
X147509468Y-139006378D01*
X147518068Y-138968478D01*
X147521468Y-138928858D01*
X147531798Y-138904738D01*
X147528398Y-138887508D01*
X147526698Y-138856498D01*
X147535298Y-138815158D01*
X147543898Y-138777258D01*
X147545598Y-138735918D01*
X147535258Y-138698018D01*
X147502528Y-138665288D01*
X147473248Y-138663588D01*
X147443968Y-138680818D01*
X147414688Y-138696318D01*
X147378518Y-138713548D01*
X147342348Y-138735938D01*
X147330288Y-138760058D01*
X147307898Y-138779008D01*
X147307898Y-138797958D01*
X147306198Y-138816908D01*
X147299298Y-138844468D01*
X147292398Y-138865139D01*
X147287198Y-138911648D01*
X147276868Y-138951268D01*
X147266538Y-138990888D01*
X147264838Y-139035678D01*
X147247608Y-139023618D01*
X147240708Y-139018418D01*
X147233808Y-139013218D01*
X147132178Y-138875414D01*
X147135578Y-138858184D01*
X147099408Y-138823734D01*
X147073568Y-138797894D01*
X147051178Y-138772054D01*
X147032228Y-138758274D01*
X146875476Y-138651476D01*
X146851356Y-138648076D01*
X146844456Y-138670466D01*
X146816896Y-138704916D01*
X146770386Y-138734196D01*
X146754886Y-138744536D01*
X146746286Y-138770376D01*
X146747986Y-138785876D01*
X146741086Y-138803106D01*
X146775536Y-138863396D01*
X146813436Y-138897846D01*
X146842716Y-138923686D01*
X146861666Y-138951246D01*
X146873726Y-138965026D01*
X146920236Y-139020146D01*
X146925436Y-139040816D01*
X146946106Y-139040816D01*
X146954706Y-139047716D01*
X146971936Y-139076996D01*
X146989156Y-139099386D01*
X146997756Y-139107987D01*
X147002956Y-139121767D01*
X147008156Y-139135547D01*
X147035716Y-139169997D01*
X147047776Y-139194117D01*
X147061556Y-139221677D01*
X147080506Y-139247517D01*
X147089112Y-139273375D01*
X147089112Y-139273375D01*
G37*
G36*
X146580960Y-139411179D02*
G01*
X146603350Y-139430129D01*
X146617130Y-139459409D01*
X146629190Y-139488689D01*
X146646420Y-139500749D01*
X146656750Y-139524869D01*
X146670530Y-139547259D01*
X146680860Y-139571379D01*
X146677460Y-139600659D01*
X146694680Y-139629939D01*
X146703280Y-139666109D01*
X146717060Y-139695389D01*
X146754960Y-139705729D01*
X146756660Y-139714329D01*
X146751460Y-139726389D01*
X146780740Y-139728089D01*
X146803130Y-139736689D01*
X146858250Y-139700519D01*
X146896150Y-139643679D01*
X146925430Y-139578219D01*
X146949550Y-139521379D01*
X146947850Y-139485209D01*
X146959910Y-139454199D01*
X146938570Y-139409039D01*
X146916740Y-139363119D01*
X146894430Y-139316449D01*
X146871630Y-139269029D01*
X146848350Y-139220849D01*
X146824580Y-139171919D01*
X146800330Y-139122229D01*
X146775590Y-139071788D01*
X146750770Y-139021048D01*
X146726280Y-138970478D01*
X146702110Y-138920068D01*
X146678260Y-138869818D01*
X146654740Y-138819728D01*
X146631540Y-138769798D01*
X146608660Y-138720028D01*
X146586110Y-138670428D01*
X146508600Y-138706598D01*
X146437980Y-138751388D01*
X146382860Y-138811678D01*
X146353580Y-138885748D01*
X146362180Y-138894348D01*
X146369080Y-138896048D01*
X146362180Y-138908108D01*
X146362180Y-138915008D01*
X146362180Y-138925348D01*
X146356980Y-138940848D01*
X146367310Y-138942548D01*
X146377650Y-138942548D01*
X146374250Y-138973558D01*
X146381150Y-138995948D01*
X146389750Y-139016618D01*
X146388050Y-139044178D01*
X146396650Y-139047578D01*
X146400050Y-139052779D01*
X146405250Y-139057978D01*
X146412150Y-139057978D01*
X146408750Y-139133769D01*
X146412150Y-139211279D01*
X146410450Y-139292239D01*
X146398390Y-139378369D01*
X146300210Y-139285349D01*
X146239920Y-139157880D01*
X146203750Y-139006295D01*
X146177910Y-138840930D01*
X146153790Y-138803030D01*
X146138290Y-138756520D01*
X146124510Y-138706570D01*
X146107280Y-138660060D01*
X146064220Y-138677290D01*
X146029770Y-138704850D01*
X145997040Y-138732410D01*
X145953980Y-138747910D01*
X145916080Y-138804750D01*
X145893690Y-138863320D01*
X145907470Y-138894330D01*
X145916070Y-138928780D01*
X145929850Y-138961510D01*
X145953970Y-138985630D01*
X145967750Y-139068310D01*
X145983250Y-139140661D01*
X145995310Y-139216451D01*
X145998710Y-139300851D01*
X146027990Y-139385251D01*
X146052110Y-139466211D01*
X146095170Y-139519611D01*
X146127900Y-139581621D01*
X146136500Y-139585021D01*
X146148560Y-139579821D01*
X146148560Y-139590161D01*
X146153760Y-139597061D01*
X146157160Y-139603961D01*
X146153760Y-139617741D01*
X146196820Y-139647021D01*
X146238160Y-139681471D01*
X146289840Y-139702141D01*
X146367350Y-139690081D01*
X146493096Y-139571225D01*
X146580946Y-139411028D01*
X146580960Y-139411179D01*
X146580960Y-139411179D01*
G37*
G36*
X145027222Y-139579989D02*
G01*
X145525038Y-139281988D01*
X145432018Y-139275088D01*
X145337278Y-139259588D01*
X145363118Y-139152790D01*
X145392398Y-139040823D01*
X145402728Y-139058053D01*
X145469908Y-139139014D01*
X145523308Y-139223424D01*
X145543978Y-139254434D01*
X145562928Y-139285444D01*
X145543978Y-139283744D01*
X145525028Y-139282044D01*
X145525038Y-139281988D01*
X145027222Y-139579989D01*
X145058232Y-139640279D01*
X145104742Y-139693679D01*
X145163312Y-139731579D01*
X145232212Y-139748809D01*
X145263222Y-139736749D01*
X145278722Y-139726419D01*
X145289062Y-139721219D01*
X145295962Y-139716019D01*
X145316632Y-139707419D01*
X145309732Y-139685029D01*
X145311432Y-139664359D01*
X145332102Y-139641969D01*
X145342442Y-139631629D01*
X145351042Y-139621298D01*
X145380322Y-139588569D01*
X145333812Y-139576509D01*
X145276962Y-139545499D01*
X145264902Y-139481759D01*
X145323472Y-139480059D01*
X145369982Y-139492119D01*
X145433712Y-139507619D01*
X145502612Y-139512819D01*
X145528452Y-139512819D01*
X145554292Y-139509419D01*
X145571512Y-139506019D01*
X145578412Y-139485349D01*
X145585312Y-139478449D01*
X145604262Y-139456059D01*
X145607662Y-139418159D01*
X145617992Y-139387149D01*
X145633492Y-139430209D01*
X145640392Y-139447439D01*
X145657622Y-139450839D01*
X145662822Y-139459439D01*
X145664522Y-139468039D01*
X145673122Y-139497319D01*
X145680022Y-139504219D01*
X145686922Y-139509419D01*
X145695522Y-139540429D01*
X145705862Y-139569709D01*
X145721362Y-139614499D01*
X145724762Y-139655839D01*
X145731662Y-139674789D01*
X145750612Y-139692019D01*
X145771282Y-139702349D01*
X145781622Y-139709249D01*
X145790222Y-139712649D01*
X145795422Y-139731599D01*
X145816092Y-139734999D01*
X145843652Y-139740199D01*
X145860882Y-139741899D01*
X145878112Y-139740199D01*
X145907392Y-139716079D01*
X145931512Y-139697129D01*
X145948732Y-139666119D01*
X145952132Y-139647169D01*
X145955532Y-139629939D01*
X145960732Y-139619609D01*
X145983122Y-139598939D01*
X145964172Y-139583439D01*
X145962472Y-139554159D01*
X145890122Y-139385350D01*
X145809162Y-139219985D01*
X145783322Y-139164865D01*
X145755762Y-139109744D01*
X145757462Y-139097684D01*
X145754062Y-139082184D01*
X145723052Y-139030504D01*
X145698932Y-138982274D01*
X145671372Y-138925434D01*
X145633472Y-138868594D01*
X145605912Y-138856535D01*
X145593852Y-138853134D01*
X145578352Y-138849734D01*
X145552512Y-138853134D01*
X145468112Y-138791124D01*
X145394042Y-138692934D01*
X145376812Y-138668824D01*
X145354422Y-138682604D01*
X145330302Y-138692934D01*
X145297572Y-138701534D01*
X145239002Y-138717034D01*
X145194212Y-138742874D01*
X145182152Y-138784214D01*
X145176952Y-138811774D01*
X145168352Y-138870344D01*
X145161452Y-138935804D01*
X145147672Y-138994374D01*
X145135612Y-139051214D01*
X145118392Y-139132175D01*
X145096002Y-139204525D01*
X145078772Y-139206225D01*
X145061552Y-139201025D01*
X145039162Y-139197625D01*
X145020212Y-139195925D01*
X145013312Y-139213155D01*
X144996082Y-139230385D01*
X144963352Y-139240725D01*
X144944402Y-139256225D01*
X144930622Y-139266565D01*
X144904782Y-139276895D01*
X144918562Y-139302735D01*
X144968512Y-139363025D01*
X145039132Y-139409535D01*
X145037432Y-139430205D01*
X145032232Y-139449155D01*
X145023632Y-139509445D01*
X145023632Y-139573175D01*
X145027222Y-139579989D01*
X145027222Y-139579989D01*
G37*
G36*
X143690524Y-139414624D02*
G01*
X143799045Y-139530035D01*
X143947184Y-139597215D01*
X144117716Y-139643725D01*
X144288249Y-139697125D01*
X144331309Y-139698825D01*
X144365759Y-139704025D01*
X144396769Y-139709225D01*
X144431219Y-139712625D01*
X144439819Y-139716025D01*
X144445019Y-139722925D01*
X144498419Y-139728125D01*
X144536319Y-139728125D01*
X144579379Y-139733325D01*
X144617279Y-139738525D01*
X144820540Y-139647225D01*
X144901500Y-139409513D01*
X144904900Y-139399183D01*
X144911800Y-139393983D01*
X144908400Y-139364703D01*
X144906700Y-139333693D01*
X144805070Y-139157993D01*
X144668989Y-139013298D01*
X144648319Y-138992628D01*
X144632819Y-138971958D01*
X144613869Y-138954728D01*
X144588029Y-138942668D01*
X144501899Y-138866878D01*
X144396824Y-138801418D01*
X144288304Y-138737688D01*
X144188394Y-138665338D01*
X144160834Y-138670538D01*
X144141884Y-138670538D01*
X144109154Y-138706708D01*
X144066094Y-138729098D01*
X144024754Y-138754938D01*
X143995474Y-138796278D01*
X144005814Y-138804878D01*
X144000614Y-138820378D01*
X143998914Y-138835878D01*
X144010974Y-138842778D01*
X144000644Y-138853118D01*
X143990304Y-138861718D01*
X143995504Y-138875498D01*
X143995504Y-138892728D01*
X144073024Y-138935788D01*
X144160874Y-138980578D01*
X144255614Y-139030528D01*
X144350354Y-139090818D01*
X144445094Y-139168339D01*
X144538114Y-139256189D01*
X144622524Y-139352649D01*
X144689704Y-139449109D01*
X144682804Y-139462889D01*
X144674204Y-139474949D01*
X144572574Y-139474949D01*
X144476114Y-139480149D01*
X144469214Y-139469809D01*
X144460614Y-139459469D01*
X144278024Y-139428459D01*
X144105769Y-139381949D01*
X144131609Y-139373349D01*
X144152279Y-139364749D01*
X144152279Y-139350969D01*
X144135049Y-139337189D01*
X144174669Y-139302739D01*
X144191899Y-139247619D01*
X144181569Y-139226949D01*
X144191899Y-139207999D01*
X144200499Y-139207999D01*
X144203899Y-139213199D01*
X144205599Y-139220099D01*
X144214199Y-139218399D01*
X144207299Y-139192559D01*
X144196959Y-139168449D01*
X144078104Y-139089208D01*
X144031594Y-139120219D01*
X143974754Y-139152949D01*
X143912744Y-139185679D01*
X143852454Y-139216689D01*
X143809394Y-139244249D01*
X143773224Y-139280419D01*
X143738774Y-139314869D01*
X143695714Y-139344149D01*
X143694014Y-139380319D01*
X143690614Y-139414769D01*
X143690524Y-139414624D01*
X143690524Y-139414624D01*
G37*
G36*
X142762223Y-139568296D02*
G01*
X143256439Y-139263481D01*
X143163419Y-139256581D01*
X143068679Y-139241080D01*
X143094519Y-139134283D01*
X143123799Y-139022316D01*
X143134139Y-139039546D01*
X143201319Y-139120507D01*
X143254719Y-139204917D01*
X143275389Y-139235927D01*
X143294339Y-139266937D01*
X143275389Y-139265237D01*
X143256439Y-139263537D01*
X143256439Y-139263481D01*
X142762223Y-139568296D01*
X142793233Y-139628586D01*
X142839743Y-139681986D01*
X142898313Y-139719886D01*
X142967213Y-139737116D01*
X142998223Y-139725056D01*
X143013723Y-139714726D01*
X143024063Y-139709526D01*
X143030963Y-139704326D01*
X143051633Y-139695726D01*
X143044733Y-139673336D01*
X143046433Y-139652666D01*
X143067103Y-139630276D01*
X143077443Y-139619935D01*
X143086043Y-139609606D01*
X143115323Y-139576876D01*
X143068813Y-139564816D01*
X143011963Y-139533806D01*
X142999903Y-139470066D01*
X143058473Y-139468366D01*
X143104983Y-139480426D01*
X143168713Y-139495926D01*
X143237613Y-139501126D01*
X143263453Y-139501126D01*
X143289293Y-139497726D01*
X143306513Y-139494326D01*
X143313413Y-139473656D01*
X143320313Y-139466756D01*
X143339263Y-139444366D01*
X143342663Y-139406466D01*
X143352993Y-139375455D01*
X143368493Y-139418516D01*
X143375393Y-139435746D01*
X143392623Y-139439146D01*
X143397823Y-139447746D01*
X143399523Y-139456346D01*
X143408123Y-139485626D01*
X143415023Y-139492526D01*
X143421923Y-139497726D01*
X143430523Y-139528736D01*
X143440863Y-139558016D01*
X143456363Y-139602806D01*
X143459763Y-139644146D01*
X143466663Y-139663096D01*
X143485613Y-139680326D01*
X143506283Y-139690656D01*
X143516623Y-139697556D01*
X143525223Y-139700956D01*
X143530423Y-139719906D01*
X143551093Y-139723306D01*
X143578653Y-139728506D01*
X143595883Y-139730206D01*
X143613113Y-139728506D01*
X143642393Y-139704386D01*
X143666513Y-139685436D01*
X143683733Y-139654426D01*
X143687133Y-139635475D01*
X143690533Y-139618246D01*
X143695733Y-139607916D01*
X143718123Y-139587246D01*
X143699173Y-139571746D01*
X143697473Y-139542466D01*
X143625123Y-139373657D01*
X143544163Y-139208292D01*
X143518323Y-139153172D01*
X143490763Y-139098051D01*
X143492463Y-139085991D01*
X143489063Y-139070491D01*
X143458053Y-139018811D01*
X143433933Y-138970581D01*
X143406373Y-138913741D01*
X143368473Y-138856902D01*
X143340913Y-138844841D01*
X143328853Y-138841441D01*
X143313353Y-138838041D01*
X143287513Y-138841441D01*
X143203113Y-138779431D01*
X143129043Y-138681241D01*
X143111813Y-138657131D01*
X143089423Y-138670911D01*
X143065303Y-138681241D01*
X143032573Y-138689841D01*
X142974003Y-138705341D01*
X142929213Y-138731181D01*
X142917153Y-138772521D01*
X142911953Y-138800081D01*
X142903353Y-138858651D01*
X142896453Y-138924111D01*
X142882673Y-138982681D01*
X142870613Y-139039521D01*
X142853383Y-139120482D01*
X142830993Y-139192832D01*
X142813763Y-139194532D01*
X142796543Y-139189332D01*
X142774153Y-139185932D01*
X142755203Y-139184232D01*
X142748303Y-139201462D01*
X142731073Y-139218692D01*
X142698343Y-139229032D01*
X142679393Y-139244532D01*
X142665613Y-139254872D01*
X142639773Y-139265202D01*
X142653553Y-139291042D01*
X142703503Y-139351332D01*
X142774123Y-139397842D01*
X142772423Y-139418512D01*
X142767223Y-139437462D01*
X142758623Y-139497752D01*
X142758623Y-139561482D01*
X142762223Y-139568296D01*
X142762223Y-139568296D01*
G37*
D14*
X136702800Y-77749400D03*
D15*
X145923000Y-85725000D03*
D16*
X143383000Y-85725000D03*
D15*
X130987800Y-85725000D03*
D16*
X128447800Y-85725000D03*
D17*
X137388600Y-105714800D03*
D18*
X124438600Y-105714800D03*
X150338600Y-105714800D03*
M02*
