G04 #@! TF.GenerationSoftware,KiCad,Pcbnew,5.1.4-e60b266~84~ubuntu18.04.1*
<<<<<<< HEAD
G04 #@! TF.CreationDate,2019-09-14T19:56:36-06:00*
=======
G04 #@! TF.CreationDate,2019-09-25T11:08:30-06:00*
>>>>>>> master
G04 #@! TF.ProjectId,001,3030312e-6b69-4636-9164-5f7063625858,1*
G04 #@! TF.SameCoordinates,Original*
G04 #@! TF.FileFunction,Legend,Bot*
G04 #@! TF.FilePolarity,Positive*
%FSLAX46Y46*%
G04 Gerber Fmt 4.6, Leading zero omitted, Abs format (unit mm)*
<<<<<<< HEAD
G04 Created by KiCad (PCBNEW 5.1.4-e60b266~84~ubuntu18.04.1) date 2019-09-14 19:56:36*
%MOMM*%
%LPD*%
G04 APERTURE LIST*
%ADD10C,0.190500*%
%ADD11C,0.010000*%
%ADD12C,0.152400*%
%ADD13R,3.960000X3.960000*%
%ADD14R,2.540000X3.170000*%
%ADD15C,1.150000*%
%ADD16C,5.000000*%
G04 APERTURE END LIST*
D10*
X158075085Y-91321164D02*
X158075085Y-90559164D01*
X157893657Y-90559164D01*
X157784800Y-90595450D01*
X157712228Y-90668021D01*
X157675942Y-90740592D01*
X157639657Y-90885735D01*
X157639657Y-90994592D01*
X157675942Y-91139735D01*
X157712228Y-91212307D01*
X157784800Y-91284878D01*
X157893657Y-91321164D01*
X158075085Y-91321164D01*
X157022800Y-91284878D02*
X157095371Y-91321164D01*
X157240514Y-91321164D01*
X157313085Y-91284878D01*
X157349371Y-91212307D01*
X157349371Y-90922021D01*
X157313085Y-90849450D01*
X157240514Y-90813164D01*
X157095371Y-90813164D01*
X157022800Y-90849450D01*
X156986514Y-90922021D01*
X156986514Y-90994592D01*
X157349371Y-91067164D01*
X156732514Y-90813164D02*
X156551085Y-91321164D01*
X156369657Y-90813164D01*
X155789085Y-91284878D02*
X155861657Y-91321164D01*
X156006800Y-91321164D01*
X156079371Y-91284878D01*
X156115657Y-91212307D01*
X156115657Y-90922021D01*
X156079371Y-90849450D01*
X156006800Y-90813164D01*
X155861657Y-90813164D01*
X155789085Y-90849450D01*
X155752800Y-90922021D01*
X155752800Y-90994592D01*
X156115657Y-91067164D01*
X155317371Y-91321164D02*
X155389942Y-91284878D01*
X155426228Y-91212307D01*
X155426228Y-90559164D01*
X154918228Y-91321164D02*
X154990800Y-91284878D01*
X155027085Y-91248592D01*
X155063371Y-91176021D01*
X155063371Y-90958307D01*
X155027085Y-90885735D01*
X154990800Y-90849450D01*
X154918228Y-90813164D01*
X154809371Y-90813164D01*
X154736800Y-90849450D01*
X154700514Y-90885735D01*
X154664228Y-90958307D01*
X154664228Y-91176021D01*
X154700514Y-91248592D01*
X154736800Y-91284878D01*
X154809371Y-91321164D01*
X154918228Y-91321164D01*
X154337657Y-90813164D02*
X154337657Y-91575164D01*
X154337657Y-90849450D02*
X154265085Y-90813164D01*
X154119942Y-90813164D01*
X154047371Y-90849450D01*
X154011085Y-90885735D01*
X153974800Y-90958307D01*
X153974800Y-91176021D01*
X154011085Y-91248592D01*
X154047371Y-91284878D01*
X154119942Y-91321164D01*
X154265085Y-91321164D01*
X154337657Y-91284878D01*
X153357942Y-91284878D02*
X153430514Y-91321164D01*
X153575657Y-91321164D01*
X153648228Y-91284878D01*
X153684514Y-91212307D01*
X153684514Y-90922021D01*
X153648228Y-90849450D01*
X153575657Y-90813164D01*
X153430514Y-90813164D01*
X153357942Y-90849450D01*
X153321657Y-90922021D01*
X153321657Y-90994592D01*
X153684514Y-91067164D01*
X152668514Y-91321164D02*
X152668514Y-90559164D01*
X152668514Y-91284878D02*
X152741085Y-91321164D01*
X152886228Y-91321164D01*
X152958800Y-91284878D01*
X152995085Y-91248592D01*
X153031371Y-91176021D01*
X153031371Y-90958307D01*
X152995085Y-90885735D01*
X152958800Y-90849450D01*
X152886228Y-90813164D01*
X152741085Y-90813164D01*
X152668514Y-90849450D01*
X155825371Y-92654664D02*
X155825371Y-91892664D01*
X155825371Y-92182950D02*
X155752800Y-92146664D01*
X155607657Y-92146664D01*
X155535085Y-92182950D01*
X155498800Y-92219235D01*
X155462514Y-92291807D01*
X155462514Y-92509521D01*
X155498800Y-92582092D01*
X155535085Y-92618378D01*
X155607657Y-92654664D01*
X155752800Y-92654664D01*
X155825371Y-92618378D01*
X155208514Y-92146664D02*
X155027085Y-92654664D01*
X154845657Y-92146664D02*
X155027085Y-92654664D01*
X155099657Y-92836092D01*
X155135942Y-92872378D01*
X155208514Y-92908664D01*
%LPC*%
D11*
=======
G04 Created by KiCad (PCBNEW 5.1.4-e60b266~84~ubuntu18.04.1) date 2019-09-25 11:08:30*
%MOMM*%
%LPD*%
G04 APERTURE LIST*
%ADD10C,0.300000*%
%ADD11C,0.190500*%
%ADD12C,0.010000*%
%ADD13C,0.152400*%
%ADD14R,1.800000X1.800000*%
%ADD15C,1.800000*%
%ADD16C,5.000000*%
%ADD17C,4.101600*%
%ADD18C,1.501600*%
G04 APERTURE END LIST*
D10*
X157784142Y-90458857D02*
X157155571Y-89658857D01*
X157784142Y-89658857D02*
X157155571Y-90458857D01*
X156698428Y-90458857D02*
X156698428Y-89658857D01*
X156698428Y-89258857D02*
X156755571Y-89316000D01*
X156698428Y-89373142D01*
X156641285Y-89316000D01*
X156698428Y-89258857D01*
X156698428Y-89373142D01*
X156127000Y-90458857D02*
X156127000Y-89658857D01*
X156127000Y-89887428D02*
X156069857Y-89773142D01*
X156012714Y-89716000D01*
X155898428Y-89658857D01*
X155784142Y-89658857D01*
X154869857Y-90401714D02*
X154984142Y-90458857D01*
X155212714Y-90458857D01*
X155327000Y-90401714D01*
X155384142Y-90344571D01*
X155441285Y-90230285D01*
X155441285Y-89887428D01*
X155384142Y-89773142D01*
X155327000Y-89716000D01*
X155212714Y-89658857D01*
X154984142Y-89658857D01*
X154869857Y-89716000D01*
X153841285Y-89658857D02*
X153841285Y-90458857D01*
X154355571Y-89658857D02*
X154355571Y-90287428D01*
X154298428Y-90401714D01*
X154184142Y-90458857D01*
X154012714Y-90458857D01*
X153898428Y-90401714D01*
X153841285Y-90344571D01*
X153269857Y-90458857D02*
X153269857Y-89658857D01*
X153269857Y-89258857D02*
X153327000Y-89316000D01*
X153269857Y-89373142D01*
X153212714Y-89316000D01*
X153269857Y-89258857D01*
X153269857Y-89373142D01*
X152869857Y-89658857D02*
X152412714Y-89658857D01*
X152698428Y-89258857D02*
X152698428Y-90287428D01*
X152641285Y-90401714D01*
X152527000Y-90458857D01*
X152412714Y-90458857D01*
X151841285Y-90458857D02*
X151955571Y-90401714D01*
X152012714Y-90344571D01*
X152069857Y-90230285D01*
X152069857Y-89887428D01*
X152012714Y-89773142D01*
X151955571Y-89716000D01*
X151841285Y-89658857D01*
X151669857Y-89658857D01*
X151555571Y-89716000D01*
X151498428Y-89773142D01*
X151441285Y-89887428D01*
X151441285Y-90230285D01*
X151498428Y-90344571D01*
X151555571Y-90401714D01*
X151669857Y-90458857D01*
X151841285Y-90458857D01*
X150984142Y-90401714D02*
X150869857Y-90458857D01*
X150641285Y-90458857D01*
X150527000Y-90401714D01*
X150469857Y-90287428D01*
X150469857Y-90230285D01*
X150527000Y-90116000D01*
X150641285Y-90058857D01*
X150812714Y-90058857D01*
X150927000Y-90001714D01*
X150984142Y-89887428D01*
X150984142Y-89830285D01*
X150927000Y-89716000D01*
X150812714Y-89658857D01*
X150641285Y-89658857D01*
X150527000Y-89716000D01*
X149955571Y-90344571D02*
X149898428Y-90401714D01*
X149955571Y-90458857D01*
X150012714Y-90401714D01*
X149955571Y-90344571D01*
X149955571Y-90458857D01*
X149384142Y-90458857D02*
X149384142Y-89658857D01*
X149384142Y-89773142D02*
X149327000Y-89716000D01*
X149212714Y-89658857D01*
X149041285Y-89658857D01*
X148927000Y-89716000D01*
X148869857Y-89830285D01*
X148869857Y-90458857D01*
X148869857Y-89830285D02*
X148812714Y-89716000D01*
X148698428Y-89658857D01*
X148527000Y-89658857D01*
X148412714Y-89716000D01*
X148355571Y-89830285D01*
X148355571Y-90458857D01*
X147898428Y-90458857D02*
X147269857Y-89658857D01*
X147898428Y-89658857D02*
X147269857Y-90458857D01*
D11*
X146340285Y-121064564D02*
X146340285Y-120302564D01*
X146158857Y-120302564D01*
X146050000Y-120338850D01*
X145977428Y-120411421D01*
X145941142Y-120483992D01*
X145904857Y-120629135D01*
X145904857Y-120737992D01*
X145941142Y-120883135D01*
X145977428Y-120955707D01*
X146050000Y-121028278D01*
X146158857Y-121064564D01*
X146340285Y-121064564D01*
X145288000Y-121028278D02*
X145360571Y-121064564D01*
X145505714Y-121064564D01*
X145578285Y-121028278D01*
X145614571Y-120955707D01*
X145614571Y-120665421D01*
X145578285Y-120592850D01*
X145505714Y-120556564D01*
X145360571Y-120556564D01*
X145288000Y-120592850D01*
X145251714Y-120665421D01*
X145251714Y-120737992D01*
X145614571Y-120810564D01*
X144997714Y-120556564D02*
X144816285Y-121064564D01*
X144634857Y-120556564D01*
X144054285Y-121028278D02*
X144126857Y-121064564D01*
X144272000Y-121064564D01*
X144344571Y-121028278D01*
X144380857Y-120955707D01*
X144380857Y-120665421D01*
X144344571Y-120592850D01*
X144272000Y-120556564D01*
X144126857Y-120556564D01*
X144054285Y-120592850D01*
X144018000Y-120665421D01*
X144018000Y-120737992D01*
X144380857Y-120810564D01*
X143582571Y-121064564D02*
X143655142Y-121028278D01*
X143691428Y-120955707D01*
X143691428Y-120302564D01*
X143183428Y-121064564D02*
X143256000Y-121028278D01*
X143292285Y-120991992D01*
X143328571Y-120919421D01*
X143328571Y-120701707D01*
X143292285Y-120629135D01*
X143256000Y-120592850D01*
X143183428Y-120556564D01*
X143074571Y-120556564D01*
X143002000Y-120592850D01*
X142965714Y-120629135D01*
X142929428Y-120701707D01*
X142929428Y-120919421D01*
X142965714Y-120991992D01*
X143002000Y-121028278D01*
X143074571Y-121064564D01*
X143183428Y-121064564D01*
X142602857Y-120556564D02*
X142602857Y-121318564D01*
X142602857Y-120592850D02*
X142530285Y-120556564D01*
X142385142Y-120556564D01*
X142312571Y-120592850D01*
X142276285Y-120629135D01*
X142240000Y-120701707D01*
X142240000Y-120919421D01*
X142276285Y-120991992D01*
X142312571Y-121028278D01*
X142385142Y-121064564D01*
X142530285Y-121064564D01*
X142602857Y-121028278D01*
X141623142Y-121028278D02*
X141695714Y-121064564D01*
X141840857Y-121064564D01*
X141913428Y-121028278D01*
X141949714Y-120955707D01*
X141949714Y-120665421D01*
X141913428Y-120592850D01*
X141840857Y-120556564D01*
X141695714Y-120556564D01*
X141623142Y-120592850D01*
X141586857Y-120665421D01*
X141586857Y-120737992D01*
X141949714Y-120810564D01*
X140933714Y-121064564D02*
X140933714Y-120302564D01*
X140933714Y-121028278D02*
X141006285Y-121064564D01*
X141151428Y-121064564D01*
X141224000Y-121028278D01*
X141260285Y-120991992D01*
X141296571Y-120919421D01*
X141296571Y-120701707D01*
X141260285Y-120629135D01*
X141224000Y-120592850D01*
X141151428Y-120556564D01*
X141006285Y-120556564D01*
X140933714Y-120592850D01*
X144090571Y-122398064D02*
X144090571Y-121636064D01*
X144090571Y-121926350D02*
X144018000Y-121890064D01*
X143872857Y-121890064D01*
X143800285Y-121926350D01*
X143764000Y-121962635D01*
X143727714Y-122035207D01*
X143727714Y-122252921D01*
X143764000Y-122325492D01*
X143800285Y-122361778D01*
X143872857Y-122398064D01*
X144018000Y-122398064D01*
X144090571Y-122361778D01*
X143473714Y-121890064D02*
X143292285Y-122398064D01*
X143110857Y-121890064D02*
X143292285Y-122398064D01*
X143364857Y-122579492D01*
X143401142Y-122615778D01*
X143473714Y-122652064D01*
D12*
G36*
X121138950Y-100412550D02*
G01*
X121163529Y-100708883D01*
X121175415Y-100850843D01*
X121183766Y-100956044D01*
X121187977Y-101029956D01*
X121187441Y-101078052D01*
X121181552Y-101105805D01*
X121169703Y-101118685D01*
X121151287Y-101122165D01*
X121125699Y-101121718D01*
X121117783Y-101121633D01*
X121043700Y-101121633D01*
X121041607Y-100978758D01*
X121038206Y-100881598D01*
X121031622Y-100780514D01*
X121025732Y-100719467D01*
X121011950Y-100603050D01*
X120937744Y-100857050D01*
X120863537Y-101111050D01*
X120700447Y-101111050D01*
X120612782Y-100878217D01*
X120525117Y-100645383D01*
X120513147Y-101121633D01*
X120366367Y-101121633D01*
X120366270Y-100999925D01*
X120364954Y-100926670D01*
X120361481Y-100826420D01*
X120356438Y-100714425D01*
X120352453Y-100640092D01*
X120338732Y-100401967D01*
X120574100Y-100401967D01*
X120664596Y-100634800D01*
X120701075Y-100725582D01*
X120733177Y-100799809D01*
X120757392Y-100849739D01*
X120770102Y-100867633D01*
X120785256Y-100849587D01*
X120799031Y-100809425D01*
X120811540Y-100762323D01*
X120832510Y-100688472D01*
X120858019Y-100601607D01*
X120865832Y-100575520D01*
X120918714Y-100399824D01*
X121138950Y-100412550D01*
X121138950Y-100412550D01*
G37*
X121138950Y-100412550D02*
X121163529Y-100708883D01*
X121175415Y-100850843D01*
X121183766Y-100956044D01*
X121187977Y-101029956D01*
X121187441Y-101078052D01*
X121181552Y-101105805D01*
X121169703Y-101118685D01*
X121151287Y-101122165D01*
X121125699Y-101121718D01*
X121117783Y-101121633D01*
X121043700Y-101121633D01*
X121041607Y-100978758D01*
X121038206Y-100881598D01*
X121031622Y-100780514D01*
X121025732Y-100719467D01*
X121011950Y-100603050D01*
X120937744Y-100857050D01*
X120863537Y-101111050D01*
X120700447Y-101111050D01*
X120612782Y-100878217D01*
X120525117Y-100645383D01*
X120513147Y-101121633D01*
X120366367Y-101121633D01*
X120366270Y-100999925D01*
X120364954Y-100926670D01*
X120361481Y-100826420D01*
X120356438Y-100714425D01*
X120352453Y-100640092D01*
X120338732Y-100401967D01*
X120574100Y-100401967D01*
X120664596Y-100634800D01*
X120701075Y-100725582D01*
X120733177Y-100799809D01*
X120757392Y-100849739D01*
X120770102Y-100867633D01*
X120785256Y-100849587D01*
X120799031Y-100809425D01*
X120811540Y-100762323D01*
X120832510Y-100688472D01*
X120858019Y-100601607D01*
X120865832Y-100575520D01*
X120918714Y-100399824D01*
X121138950Y-100412550D01*
G36*
X120184277Y-100523675D02*
G01*
X120139994Y-100592640D01*
X120101037Y-100652396D01*
X120077794Y-100687135D01*
X120055296Y-100724677D01*
X120048867Y-100742475D01*
X120061045Y-100763819D01*
X120093977Y-100810911D01*
X120142252Y-100876214D01*
X120186006Y-100933556D01*
X120323145Y-101111050D01*
X120233800Y-101117809D01*
X120188639Y-101119644D01*
X120153841Y-101113200D01*
X120121237Y-101092596D01*
X120082656Y-101051949D01*
X120029928Y-100985378D01*
X120005619Y-100953551D01*
X119951788Y-100882881D01*
X119879438Y-101002257D01*
X119839538Y-101066058D01*
X119809473Y-101101765D01*
X119777209Y-101117532D01*
X119730716Y-101121514D01*
X119703293Y-101121633D01*
X119599498Y-101121633D01*
X119637703Y-101063425D01*
X119668401Y-101015854D01*
X119712029Y-100947288D01*
X119758726Y-100873231D01*
X119841545Y-100741245D01*
X119730352Y-100598064D01*
X119677006Y-100529374D01*
X119632162Y-100471639D01*
X119603316Y-100434509D01*
X119598588Y-100428425D01*
X119595295Y-100411731D01*
X119623223Y-100403665D01*
X119672115Y-100401967D01*
X119725625Y-100404651D01*
X119764631Y-100417870D01*
X119802244Y-100449373D01*
X119851578Y-100506907D01*
X119853319Y-100509046D01*
X119940424Y-100616125D01*
X119971945Y-100567254D01*
X120005251Y-100509315D01*
X120029563Y-100460175D01*
X120050348Y-100424689D01*
X120080229Y-100407492D01*
X120133391Y-100402194D01*
X120158748Y-100401967D01*
X120261834Y-100401967D01*
X120184277Y-100523675D01*
X120184277Y-100523675D01*
G37*
X120184277Y-100523675D02*
X120139994Y-100592640D01*
X120101037Y-100652396D01*
X120077794Y-100687135D01*
X120055296Y-100724677D01*
X120048867Y-100742475D01*
X120061045Y-100763819D01*
X120093977Y-100810911D01*
X120142252Y-100876214D01*
X120186006Y-100933556D01*
X120323145Y-101111050D01*
X120233800Y-101117809D01*
X120188639Y-101119644D01*
X120153841Y-101113200D01*
X120121237Y-101092596D01*
X120082656Y-101051949D01*
X120029928Y-100985378D01*
X120005619Y-100953551D01*
X119951788Y-100882881D01*
X119879438Y-101002257D01*
X119839538Y-101066058D01*
X119809473Y-101101765D01*
X119777209Y-101117532D01*
X119730716Y-101121514D01*
X119703293Y-101121633D01*
X119599498Y-101121633D01*
X119637703Y-101063425D01*
X119668401Y-101015854D01*
X119712029Y-100947288D01*
X119758726Y-100873231D01*
X119841545Y-100741245D01*
X119730352Y-100598064D01*
X119677006Y-100529374D01*
X119632162Y-100471639D01*
X119603316Y-100434509D01*
X119598588Y-100428425D01*
X119595295Y-100411731D01*
X119623223Y-100403665D01*
X119672115Y-100401967D01*
X119725625Y-100404651D01*
X119764631Y-100417870D01*
X119802244Y-100449373D01*
X119851578Y-100506907D01*
X119853319Y-100509046D01*
X119940424Y-100616125D01*
X119971945Y-100567254D01*
X120005251Y-100509315D01*
X120029563Y-100460175D01*
X120050348Y-100424689D01*
X120080229Y-100407492D01*
X120133391Y-100402194D01*
X120158748Y-100401967D01*
X120261834Y-100401967D01*
X120184277Y-100523675D01*
G36*
X127854522Y-100820008D02*
G01*
X127848783Y-101238050D01*
X127271992Y-101243682D01*
X126695200Y-101249314D01*
X126695200Y-101354467D01*
X127859367Y-101354467D01*
X127859367Y-101708761D01*
X127779992Y-101721881D01*
X127739787Y-101724926D01*
X127663825Y-101727409D01*
X127558679Y-101729338D01*
X127430922Y-101730719D01*
X127287125Y-101731561D01*
X127133862Y-101731870D01*
X126977705Y-101731653D01*
X126825228Y-101730918D01*
X126683001Y-101729672D01*
X126557599Y-101727923D01*
X126455593Y-101725677D01*
X126383557Y-101722942D01*
X126351242Y-101720306D01*
X126293033Y-101711488D01*
X126293033Y-100895139D01*
X126486785Y-100881386D01*
X126575115Y-100876717D01*
X126693608Y-100872727D01*
X126830098Y-100869709D01*
X126972415Y-100867956D01*
X127058285Y-100867633D01*
X127193092Y-100867424D01*
X127291335Y-100866368D01*
X127358785Y-100863824D01*
X127401210Y-100859152D01*
X127424380Y-100851709D01*
X127434065Y-100840854D01*
X127436033Y-100825947D01*
X127436033Y-100825646D01*
X127434547Y-100813074D01*
X127426943Y-100803231D01*
X127408504Y-100795719D01*
X127374512Y-100790142D01*
X127320249Y-100786103D01*
X127240997Y-100783205D01*
X127132038Y-100781052D01*
X126988654Y-100779245D01*
X126869825Y-100778021D01*
X126303617Y-100772383D01*
X126291385Y-100401967D01*
X127860261Y-100401967D01*
X127854522Y-100820008D01*
X127854522Y-100820008D01*
G37*
X127854522Y-100820008D02*
X127848783Y-101238050D01*
X127271992Y-101243682D01*
X126695200Y-101249314D01*
X126695200Y-101354467D01*
X127859367Y-101354467D01*
X127859367Y-101708761D01*
X127779992Y-101721881D01*
X127739787Y-101724926D01*
X127663825Y-101727409D01*
X127558679Y-101729338D01*
X127430922Y-101730719D01*
X127287125Y-101731561D01*
X127133862Y-101731870D01*
X126977705Y-101731653D01*
X126825228Y-101730918D01*
X126683001Y-101729672D01*
X126557599Y-101727923D01*
X126455593Y-101725677D01*
X126383557Y-101722942D01*
X126351242Y-101720306D01*
X126293033Y-101711488D01*
X126293033Y-100895139D01*
X126486785Y-100881386D01*
X126575115Y-100876717D01*
X126693608Y-100872727D01*
X126830098Y-100869709D01*
X126972415Y-100867956D01*
X127058285Y-100867633D01*
X127193092Y-100867424D01*
X127291335Y-100866368D01*
X127358785Y-100863824D01*
X127401210Y-100859152D01*
X127424380Y-100851709D01*
X127434065Y-100840854D01*
X127436033Y-100825947D01*
X127436033Y-100825646D01*
X127434547Y-100813074D01*
X127426943Y-100803231D01*
X127408504Y-100795719D01*
X127374512Y-100790142D01*
X127320249Y-100786103D01*
X127240997Y-100783205D01*
X127132038Y-100781052D01*
X126988654Y-100779245D01*
X126869825Y-100778021D01*
X126303617Y-100772383D01*
X126291385Y-100401967D01*
X127860261Y-100401967D01*
X127854522Y-100820008D01*
G36*
X126229533Y-100782967D02*
G01*
X125679200Y-100782967D01*
X125679200Y-101225955D01*
X125679141Y-101385788D01*
X125677545Y-101508227D01*
X125672288Y-101598207D01*
X125661242Y-101660662D01*
X125642282Y-101700527D01*
X125613280Y-101722738D01*
X125572112Y-101732228D01*
X125516650Y-101733933D01*
X125460730Y-101733011D01*
X125379821Y-101730481D01*
X125312248Y-101726178D01*
X125272314Y-101721021D01*
X125271742Y-101720876D01*
X125259589Y-101714638D01*
X125250410Y-101699617D01*
X125243795Y-101670547D01*
X125239330Y-101622164D01*
X125236605Y-101549203D01*
X125235208Y-101446401D01*
X125234728Y-101308492D01*
X125234700Y-101247081D01*
X125234700Y-100782967D01*
X124663200Y-100782967D01*
X124663200Y-100401967D01*
X126229533Y-100401967D01*
X126229533Y-100782967D01*
X126229533Y-100782967D01*
G37*
X126229533Y-100782967D02*
X125679200Y-100782967D01*
X125679200Y-101225955D01*
X125679141Y-101385788D01*
X125677545Y-101508227D01*
X125672288Y-101598207D01*
X125661242Y-101660662D01*
X125642282Y-101700527D01*
X125613280Y-101722738D01*
X125572112Y-101732228D01*
X125516650Y-101733933D01*
X125460730Y-101733011D01*
X125379821Y-101730481D01*
X125312248Y-101726178D01*
X125272314Y-101721021D01*
X125271742Y-101720876D01*
X125259589Y-101714638D01*
X125250410Y-101699617D01*
X125243795Y-101670547D01*
X125239330Y-101622164D01*
X125236605Y-101549203D01*
X125235208Y-101446401D01*
X125234728Y-101308492D01*
X125234700Y-101247081D01*
X125234700Y-100782967D01*
X124663200Y-100782967D01*
X124663200Y-100401967D01*
X126229533Y-100401967D01*
X126229533Y-100782967D01*
G36*
X124620867Y-101712382D02*
G01*
X124552075Y-101725211D01*
X124492119Y-101731233D01*
X124411485Y-101733008D01*
X124356283Y-101731462D01*
X124229283Y-101724883D01*
X124210535Y-101486758D01*
X124191786Y-101248633D01*
X123458086Y-101248633D01*
X123452101Y-101486758D01*
X123446117Y-101724883D01*
X123265197Y-101730936D01*
X123181374Y-101732053D01*
X123114342Y-101729793D01*
X123074862Y-101724644D01*
X123069406Y-101722117D01*
X123065720Y-101698014D01*
X123062367Y-101636838D01*
X123059463Y-101543847D01*
X123057127Y-101424303D01*
X123055474Y-101283464D01*
X123054623Y-101126590D01*
X123054533Y-101054605D01*
X123054533Y-100825300D01*
X123456700Y-100825300D01*
X123458504Y-100840350D01*
X123467750Y-100851334D01*
X123490183Y-100858893D01*
X123531551Y-100863663D01*
X123597601Y-100866284D01*
X123694082Y-100867394D01*
X123826739Y-100867633D01*
X123837700Y-100867633D01*
X123973148Y-100867433D01*
X124072011Y-100866405D01*
X124140035Y-100863913D01*
X124182969Y-100859316D01*
X124206558Y-100851977D01*
X124216551Y-100841257D01*
X124218695Y-100826518D01*
X124218700Y-100825300D01*
X124216895Y-100810250D01*
X124207650Y-100799265D01*
X124185217Y-100791707D01*
X124143849Y-100786937D01*
X124077798Y-100784316D01*
X123981318Y-100783205D01*
X123848661Y-100782967D01*
X123837700Y-100782967D01*
X123702251Y-100783167D01*
X123603389Y-100784194D01*
X123535364Y-100786687D01*
X123492431Y-100791283D01*
X123468841Y-100798622D01*
X123458848Y-100809342D01*
X123456704Y-100824082D01*
X123456700Y-100825300D01*
X123054533Y-100825300D01*
X123054533Y-100401967D01*
X124620867Y-100401967D01*
X124620867Y-101712382D01*
X124620867Y-101712382D01*
G37*
X124620867Y-101712382D02*
X124552075Y-101725211D01*
X124492119Y-101731233D01*
X124411485Y-101733008D01*
X124356283Y-101731462D01*
X124229283Y-101724883D01*
X124210535Y-101486758D01*
X124191786Y-101248633D01*
X123458086Y-101248633D01*
X123452101Y-101486758D01*
X123446117Y-101724883D01*
X123265197Y-101730936D01*
X123181374Y-101732053D01*
X123114342Y-101729793D01*
X123074862Y-101724644D01*
X123069406Y-101722117D01*
X123065720Y-101698014D01*
X123062367Y-101636838D01*
X123059463Y-101543847D01*
X123057127Y-101424303D01*
X123055474Y-101283464D01*
X123054623Y-101126590D01*
X123054533Y-101054605D01*
X123054533Y-100825300D01*
X123456700Y-100825300D01*
X123458504Y-100840350D01*
X123467750Y-100851334D01*
X123490183Y-100858893D01*
X123531551Y-100863663D01*
X123597601Y-100866284D01*
X123694082Y-100867394D01*
X123826739Y-100867633D01*
X123837700Y-100867633D01*
X123973148Y-100867433D01*
X124072011Y-100866405D01*
X124140035Y-100863913D01*
X124182969Y-100859316D01*
X124206558Y-100851977D01*
X124216551Y-100841257D01*
X124218695Y-100826518D01*
X124218700Y-100825300D01*
X124216895Y-100810250D01*
X124207650Y-100799265D01*
X124185217Y-100791707D01*
X124143849Y-100786937D01*
X124077798Y-100784316D01*
X123981318Y-100783205D01*
X123848661Y-100782967D01*
X123837700Y-100782967D01*
X123702251Y-100783167D01*
X123603389Y-100784194D01*
X123535364Y-100786687D01*
X123492431Y-100791283D01*
X123468841Y-100798622D01*
X123458848Y-100809342D01*
X123456704Y-100824082D01*
X123456700Y-100825300D01*
X123054533Y-100825300D01*
X123054533Y-100401967D01*
X124620867Y-100401967D01*
X124620867Y-101712382D01*
G36*
X123023547Y-100606015D02*
G01*
X123027852Y-100692399D01*
X123030658Y-100810454D01*
X123031876Y-100949540D01*
X123031414Y-101099018D01*
X123029183Y-101248249D01*
X123029063Y-101253724D01*
X123025073Y-101408496D01*
X123020592Y-101525745D01*
X123015204Y-101610281D01*
X123008495Y-101666914D01*
X123000051Y-101700456D01*
X122989458Y-101715716D01*
X122989262Y-101715842D01*
X122951129Y-101726230D01*
X122885361Y-101732560D01*
X122806488Y-101734555D01*
X122729038Y-101731940D01*
X122667541Y-101724441D01*
X122657658Y-101722125D01*
X122635882Y-101713853D01*
X122622003Y-101697637D01*
X122614251Y-101665223D01*
X122610854Y-101608358D01*
X122610042Y-101518788D01*
X122610033Y-101500164D01*
X122608162Y-101410895D01*
X122603104Y-101340933D01*
X122595688Y-101299026D01*
X122590170Y-101290967D01*
X122566770Y-101301425D01*
X122512953Y-101330615D01*
X122434463Y-101375258D01*
X122337046Y-101432075D01*
X122226446Y-101497789D01*
X122200744Y-101513217D01*
X121831181Y-101735467D01*
X121664982Y-101735142D01*
X121582422Y-101732836D01*
X121514747Y-101727027D01*
X121474458Y-101718875D01*
X121470860Y-101717113D01*
X121452093Y-101682123D01*
X121449693Y-101617761D01*
X121453966Y-101583258D01*
X121464270Y-101555399D01*
X121486689Y-101528577D01*
X121527306Y-101497183D01*
X121592204Y-101455610D01*
X121687466Y-101398250D01*
X121688447Y-101397665D01*
X121920444Y-101259217D01*
X121682710Y-101253227D01*
X121444976Y-101247238D01*
X121450738Y-100828069D01*
X121869200Y-100828069D01*
X121871649Y-100842328D01*
X121882864Y-100852684D01*
X121908646Y-100859759D01*
X121954796Y-100864171D01*
X122027116Y-100866540D01*
X122131406Y-100867485D01*
X122239617Y-100867633D01*
X122373099Y-100867374D01*
X122470053Y-100866182D01*
X122536280Y-100863435D01*
X122577584Y-100858513D01*
X122599766Y-100850792D01*
X122608631Y-100839651D01*
X122610033Y-100827946D01*
X122601690Y-100802790D01*
X122573329Y-100784565D01*
X122519951Y-100772349D01*
X122436558Y-100765220D01*
X122318150Y-100762255D01*
X122252846Y-100762033D01*
X122110419Y-100763770D01*
X122005642Y-100769170D01*
X121933928Y-100779023D01*
X121890692Y-100794119D01*
X121871347Y-100815245D01*
X121869200Y-100828069D01*
X121450738Y-100828069D01*
X121456450Y-100412550D01*
X122232330Y-100406999D01*
X123008210Y-100401449D01*
X123023547Y-100606015D01*
X123023547Y-100606015D01*
G37*
X123023547Y-100606015D02*
X123027852Y-100692399D01*
X123030658Y-100810454D01*
X123031876Y-100949540D01*
X123031414Y-101099018D01*
X123029183Y-101248249D01*
X123029063Y-101253724D01*
X123025073Y-101408496D01*
X123020592Y-101525745D01*
X123015204Y-101610281D01*
X123008495Y-101666914D01*
X123000051Y-101700456D01*
X122989458Y-101715716D01*
X122989262Y-101715842D01*
X122951129Y-101726230D01*
X122885361Y-101732560D01*
X122806488Y-101734555D01*
X122729038Y-101731940D01*
X122667541Y-101724441D01*
X122657658Y-101722125D01*
X122635882Y-101713853D01*
X122622003Y-101697637D01*
X122614251Y-101665223D01*
X122610854Y-101608358D01*
X122610042Y-101518788D01*
X122610033Y-101500164D01*
X122608162Y-101410895D01*
X122603104Y-101340933D01*
X122595688Y-101299026D01*
X122590170Y-101290967D01*
X122566770Y-101301425D01*
X122512953Y-101330615D01*
X122434463Y-101375258D01*
X122337046Y-101432075D01*
X122226446Y-101497789D01*
X122200744Y-101513217D01*
X121831181Y-101735467D01*
X121664982Y-101735142D01*
X121582422Y-101732836D01*
X121514747Y-101727027D01*
X121474458Y-101718875D01*
X121470860Y-101717113D01*
X121452093Y-101682123D01*
X121449693Y-101617761D01*
X121453966Y-101583258D01*
X121464270Y-101555399D01*
X121486689Y-101528577D01*
X121527306Y-101497183D01*
X121592204Y-101455610D01*
X121687466Y-101398250D01*
X121688447Y-101397665D01*
X121920444Y-101259217D01*
X121682710Y-101253227D01*
X121444976Y-101247238D01*
X121450738Y-100828069D01*
X121869200Y-100828069D01*
X121871649Y-100842328D01*
X121882864Y-100852684D01*
X121908646Y-100859759D01*
X121954796Y-100864171D01*
X122027116Y-100866540D01*
X122131406Y-100867485D01*
X122239617Y-100867633D01*
X122373099Y-100867374D01*
X122470053Y-100866182D01*
X122536280Y-100863435D01*
X122577584Y-100858513D01*
X122599766Y-100850792D01*
X122608631Y-100839651D01*
X122610033Y-100827946D01*
X122601690Y-100802790D01*
X122573329Y-100784565D01*
X122519951Y-100772349D01*
X122436558Y-100765220D01*
X122318150Y-100762255D01*
X122252846Y-100762033D01*
X122110419Y-100763770D01*
X122005642Y-100769170D01*
X121933928Y-100779023D01*
X121890692Y-100794119D01*
X121871347Y-100815245D01*
X121869200Y-100828069D01*
X121450738Y-100828069D01*
X121456450Y-100412550D01*
X122232330Y-100406999D01*
X123008210Y-100401449D01*
X123023547Y-100606015D01*
G36*
X122536052Y-101994161D02*
G01*
X122565541Y-102005888D01*
X122567700Y-102010633D01*
X122548922Y-102023888D01*
X122502012Y-102031260D01*
X122483033Y-102031800D01*
X122430015Y-102027105D01*
X122400525Y-102015378D01*
X122398367Y-102010633D01*
X122417145Y-101997379D01*
X122464054Y-101990006D01*
X122483033Y-101989467D01*
X122536052Y-101994161D01*
X122536052Y-101994161D01*
G37*
X122536052Y-101994161D02*
X122565541Y-102005888D01*
X122567700Y-102010633D01*
X122548922Y-102023888D01*
X122502012Y-102031260D01*
X122483033Y-102031800D01*
X122430015Y-102027105D01*
X122400525Y-102015378D01*
X122398367Y-102010633D01*
X122417145Y-101997379D01*
X122464054Y-101990006D01*
X122483033Y-101989467D01*
X122536052Y-101994161D01*
G36*
X122374072Y-102078432D02*
G01*
X122362303Y-102097497D01*
X122335778Y-102107916D01*
X122326327Y-102098607D01*
X122328198Y-102069936D01*
X122335929Y-102062893D01*
X122365979Y-102057956D01*
X122374072Y-102078432D01*
X122374072Y-102078432D01*
G37*
X122374072Y-102078432D02*
X122362303Y-102097497D01*
X122335778Y-102107916D01*
X122326327Y-102098607D01*
X122328198Y-102069936D01*
X122335929Y-102062893D01*
X122365979Y-102057956D01*
X122374072Y-102078432D01*
G36*
X123481422Y-102002842D02*
G01*
X123482858Y-102005342D01*
X123486053Y-102034012D01*
X123482505Y-102079190D01*
X123474647Y-102126548D01*
X123464917Y-102161758D01*
X123455749Y-102170494D01*
X123454971Y-102169383D01*
X123443861Y-102132071D01*
X123439014Y-102079815D01*
X123440446Y-102028720D01*
X123448174Y-101994890D01*
X123454788Y-101989467D01*
X123481422Y-102002842D01*
X123481422Y-102002842D01*
G37*
X123481422Y-102002842D02*
X123482858Y-102005342D01*
X123486053Y-102034012D01*
X123482505Y-102079190D01*
X123474647Y-102126548D01*
X123464917Y-102161758D01*
X123455749Y-102170494D01*
X123454971Y-102169383D01*
X123443861Y-102132071D01*
X123439014Y-102079815D01*
X123440446Y-102028720D01*
X123448174Y-101994890D01*
X123454788Y-101989467D01*
X123481422Y-102002842D01*
G36*
X122952588Y-101993671D02*
G01*
X122986663Y-102004307D01*
X122991033Y-102010633D01*
X122973889Y-102029412D01*
X122959283Y-102031800D01*
X122931682Y-102050282D01*
X122923398Y-102102907D01*
X122925587Y-102130745D01*
X122913239Y-102163925D01*
X122906928Y-102169036D01*
X122891883Y-102160603D01*
X122885320Y-102116413D01*
X122885200Y-102107132D01*
X122880634Y-102055550D01*
X122862726Y-102034475D01*
X122842867Y-102031800D01*
X122808471Y-102022936D01*
X122800533Y-102010633D01*
X122819452Y-101998010D01*
X122867318Y-101990438D01*
X122895783Y-101989467D01*
X122952588Y-101993671D01*
X122952588Y-101993671D01*
G37*
X122952588Y-101993671D02*
X122986663Y-102004307D01*
X122991033Y-102010633D01*
X122973889Y-102029412D01*
X122959283Y-102031800D01*
X122931682Y-102050282D01*
X122923398Y-102102907D01*
X122925587Y-102130745D01*
X122913239Y-102163925D01*
X122906928Y-102169036D01*
X122891883Y-102160603D01*
X122885320Y-102116413D01*
X122885200Y-102107132D01*
X122880634Y-102055550D01*
X122862726Y-102034475D01*
X122842867Y-102031800D01*
X122808471Y-102022936D01*
X122800533Y-102010633D01*
X122819452Y-101998010D01*
X122867318Y-101990438D01*
X122895783Y-101989467D01*
X122952588Y-101993671D01*
G36*
X122625274Y-102071365D02*
G01*
X122631198Y-102115693D01*
X122631200Y-102116467D01*
X122627054Y-102162489D01*
X122617132Y-102182913D01*
X122607620Y-102174675D01*
X122599532Y-102138011D01*
X122598777Y-102093265D01*
X122604772Y-102059710D01*
X122611301Y-102052967D01*
X122625274Y-102071365D01*
X122625274Y-102071365D01*
G37*
X122625274Y-102071365D02*
X122631198Y-102115693D01*
X122631200Y-102116467D01*
X122627054Y-102162489D01*
X122617132Y-102182913D01*
X122607620Y-102174675D01*
X122599532Y-102138011D01*
X122598777Y-102093265D01*
X122604772Y-102059710D01*
X122611301Y-102052967D01*
X122625274Y-102071365D01*
G36*
X122199055Y-102008384D02*
G01*
X122206865Y-102056247D01*
X122207867Y-102084717D01*
X122205117Y-102152387D01*
X122196621Y-102179158D01*
X122182010Y-102166121D01*
X122180928Y-102164092D01*
X122171502Y-102126686D01*
X122168618Y-102074790D01*
X122171795Y-102024844D01*
X122180552Y-101993289D01*
X122186037Y-101989467D01*
X122199055Y-102008384D01*
X122199055Y-102008384D01*
G37*
X122199055Y-102008384D02*
X122206865Y-102056247D01*
X122207867Y-102084717D01*
X122205117Y-102152387D01*
X122196621Y-102179158D01*
X122182010Y-102166121D01*
X122180928Y-102164092D01*
X122171502Y-102126686D01*
X122168618Y-102074790D01*
X122171795Y-102024844D01*
X122180552Y-101993289D01*
X122186037Y-101989467D01*
X122199055Y-102008384D01*
G36*
X121937160Y-102007661D02*
G01*
X121944852Y-102051524D01*
X121944849Y-102104975D01*
X121936811Y-102151934D01*
X121926009Y-102172546D01*
X121910590Y-102179883D01*
X121909749Y-102178203D01*
X121900788Y-102108998D01*
X121900967Y-102046241D01*
X121909465Y-102002447D01*
X121922117Y-101989467D01*
X121937160Y-102007661D01*
X121937160Y-102007661D01*
G37*
X121937160Y-102007661D02*
X121944852Y-102051524D01*
X121944849Y-102104975D01*
X121936811Y-102151934D01*
X121926009Y-102172546D01*
X121910590Y-102179883D01*
X121909749Y-102178203D01*
X121900788Y-102108998D01*
X121900967Y-102046241D01*
X121909465Y-102002447D01*
X121922117Y-101989467D01*
X121937160Y-102007661D01*
G36*
X121720225Y-101991942D02*
G01*
X121779153Y-101998700D01*
X121805135Y-102008740D01*
X121805700Y-102010633D01*
X121787093Y-102024624D01*
X121741339Y-102031617D01*
X121731617Y-102031800D01*
X121681819Y-102035378D01*
X121661395Y-102053290D01*
X121657533Y-102094051D01*
X121651008Y-102142933D01*
X121636367Y-102169383D01*
X121621963Y-102160441D01*
X121615356Y-102117319D01*
X121615200Y-102107132D01*
X121612073Y-102056928D01*
X121594242Y-102036119D01*
X121549032Y-102031819D01*
X121541117Y-102031800D01*
X121492150Y-102026483D01*
X121467673Y-102013411D01*
X121467033Y-102010633D01*
X121486837Y-102000151D01*
X121540905Y-101992785D01*
X121621218Y-101989537D01*
X121636367Y-101989467D01*
X121720225Y-101991942D01*
X121720225Y-101991942D01*
G37*
X121720225Y-101991942D02*
X121779153Y-101998700D01*
X121805135Y-102008740D01*
X121805700Y-102010633D01*
X121787093Y-102024624D01*
X121741339Y-102031617D01*
X121731617Y-102031800D01*
X121681819Y-102035378D01*
X121661395Y-102053290D01*
X121657533Y-102094051D01*
X121651008Y-102142933D01*
X121636367Y-102169383D01*
X121621963Y-102160441D01*
X121615356Y-102117319D01*
X121615200Y-102107132D01*
X121612073Y-102056928D01*
X121594242Y-102036119D01*
X121549032Y-102031819D01*
X121541117Y-102031800D01*
X121492150Y-102026483D01*
X121467673Y-102013411D01*
X121467033Y-102010633D01*
X121486837Y-102000151D01*
X121540905Y-101992785D01*
X121621218Y-101989537D01*
X121636367Y-101989467D01*
X121720225Y-101991942D01*
G36*
X126187200Y-102243467D02*
G01*
X123647200Y-102243467D01*
X123647200Y-102116467D01*
X124802765Y-102116467D01*
X125053093Y-102116434D01*
X125264427Y-102116256D01*
X125440105Y-102115810D01*
X125583468Y-102114977D01*
X125697854Y-102113634D01*
X125786601Y-102111661D01*
X125853050Y-102108936D01*
X125900539Y-102105338D01*
X125932408Y-102100747D01*
X125951995Y-102095040D01*
X125962640Y-102088097D01*
X125967681Y-102079796D01*
X125969400Y-102074133D01*
X125983662Y-102047982D01*
X126016192Y-102035296D01*
X126078523Y-102031810D01*
X126083835Y-102031800D01*
X126187200Y-102031800D01*
X126187200Y-102243467D01*
X126187200Y-102243467D01*
G37*
X126187200Y-102243467D02*
X123647200Y-102243467D01*
X123647200Y-102116467D01*
X124802765Y-102116467D01*
X125053093Y-102116434D01*
X125264427Y-102116256D01*
X125440105Y-102115810D01*
X125583468Y-102114977D01*
X125697854Y-102113634D01*
X125786601Y-102111661D01*
X125853050Y-102108936D01*
X125900539Y-102105338D01*
X125932408Y-102100747D01*
X125951995Y-102095040D01*
X125962640Y-102088097D01*
X125967681Y-102079796D01*
X125969400Y-102074133D01*
X125983662Y-102047982D01*
X126016192Y-102035296D01*
X126078523Y-102031810D01*
X126083835Y-102031800D01*
X126187200Y-102031800D01*
X126187200Y-102243467D01*
G36*
X123477005Y-102216498D02*
G01*
X123477867Y-102222300D01*
X123470645Y-102242916D01*
X123468532Y-102243467D01*
X123450461Y-102228634D01*
X123446117Y-102222300D01*
X123447795Y-102202795D01*
X123455451Y-102201133D01*
X123477005Y-102216498D01*
X123477005Y-102216498D01*
G37*
X123477005Y-102216498D02*
X123477867Y-102222300D01*
X123470645Y-102242916D01*
X123468532Y-102243467D01*
X123450461Y-102228634D01*
X123446117Y-102222300D01*
X123447795Y-102202795D01*
X123455451Y-102201133D01*
X123477005Y-102216498D01*
G36*
X122920257Y-102214101D02*
G01*
X122916950Y-102222300D01*
X122897929Y-102242492D01*
X122894534Y-102243467D01*
X122885443Y-102227090D01*
X122885200Y-102222300D01*
X122901472Y-102201947D01*
X122907616Y-102201133D01*
X122920257Y-102214101D01*
X122920257Y-102214101D01*
G37*
X122920257Y-102214101D02*
X122916950Y-102222300D01*
X122897929Y-102242492D01*
X122894534Y-102243467D01*
X122885443Y-102227090D01*
X122885200Y-102222300D01*
X122901472Y-102201947D01*
X122907616Y-102201133D01*
X122920257Y-102214101D01*
G36*
X122630338Y-102216498D02*
G01*
X122631200Y-102222300D01*
X122623978Y-102242916D01*
X122621866Y-102243467D01*
X122603794Y-102228634D01*
X122599450Y-102222300D01*
X122601128Y-102202795D01*
X122608784Y-102201133D01*
X122630338Y-102216498D01*
X122630338Y-102216498D01*
G37*
X122630338Y-102216498D02*
X122631200Y-102222300D01*
X122623978Y-102242916D01*
X122621866Y-102243467D01*
X122603794Y-102228634D01*
X122599450Y-102222300D01*
X122601128Y-102202795D01*
X122608784Y-102201133D01*
X122630338Y-102216498D01*
G36*
X122503585Y-102217240D02*
G01*
X122504200Y-102222300D01*
X122488093Y-102242851D01*
X122483033Y-102243467D01*
X122462482Y-102227359D01*
X122461867Y-102222300D01*
X122477974Y-102201748D01*
X122483033Y-102201133D01*
X122503585Y-102217240D01*
X122503585Y-102217240D01*
G37*
X122503585Y-102217240D02*
X122504200Y-102222300D01*
X122488093Y-102242851D01*
X122483033Y-102243467D01*
X122462482Y-102227359D01*
X122461867Y-102222300D01*
X122477974Y-102201748D01*
X122483033Y-102201133D01*
X122503585Y-102217240D01*
G36*
X122433424Y-102214101D02*
G01*
X122430117Y-102222300D01*
X122411096Y-102242492D01*
X122407701Y-102243467D01*
X122398609Y-102227090D01*
X122398367Y-102222300D01*
X122414638Y-102201947D01*
X122420782Y-102201133D01*
X122433424Y-102214101D01*
X122433424Y-102214101D01*
G37*
X122433424Y-102214101D02*
X122430117Y-102222300D01*
X122411096Y-102242492D01*
X122407701Y-102243467D01*
X122398609Y-102227090D01*
X122398367Y-102222300D01*
X122414638Y-102201947D01*
X122420782Y-102201133D01*
X122433424Y-102214101D01*
G36*
X122368312Y-102211089D02*
G01*
X122366617Y-102222300D01*
X122348511Y-102242470D01*
X122345450Y-102243467D01*
X122328621Y-102228704D01*
X122324283Y-102222300D01*
X122329310Y-102204368D01*
X122345450Y-102201133D01*
X122368312Y-102211089D01*
X122368312Y-102211089D01*
G37*
X122368312Y-102211089D02*
X122366617Y-102222300D01*
X122348511Y-102242470D01*
X122345450Y-102243467D01*
X122328621Y-102228704D01*
X122324283Y-102222300D01*
X122329310Y-102204368D01*
X122345450Y-102201133D01*
X122368312Y-102211089D01*
G36*
X122207005Y-102216498D02*
G01*
X122207867Y-102222300D01*
X122200645Y-102242916D01*
X122198532Y-102243467D01*
X122180461Y-102228634D01*
X122176117Y-102222300D01*
X122177795Y-102202795D01*
X122185451Y-102201133D01*
X122207005Y-102216498D01*
X122207005Y-102216498D01*
G37*
X122207005Y-102216498D02*
X122207867Y-102222300D01*
X122200645Y-102242916D01*
X122198532Y-102243467D01*
X122180461Y-102228634D01*
X122176117Y-102222300D01*
X122177795Y-102202795D01*
X122185451Y-102201133D01*
X122207005Y-102216498D01*
G36*
X122143751Y-102217240D02*
G01*
X122144367Y-102222300D01*
X122128259Y-102242851D01*
X122123200Y-102243467D01*
X122102648Y-102227359D01*
X122102033Y-102222300D01*
X122118140Y-102201748D01*
X122123200Y-102201133D01*
X122143751Y-102217240D01*
X122143751Y-102217240D01*
G37*
X122143751Y-102217240D02*
X122144367Y-102222300D01*
X122128259Y-102242851D01*
X122123200Y-102243467D01*
X122102648Y-102227359D01*
X122102033Y-102222300D01*
X122118140Y-102201748D01*
X122123200Y-102201133D01*
X122143751Y-102217240D01*
G36*
X122073591Y-102214101D02*
G01*
X122070283Y-102222300D01*
X122051263Y-102242492D01*
X122047867Y-102243467D01*
X122038776Y-102227090D01*
X122038533Y-102222300D01*
X122054805Y-102201947D01*
X122060949Y-102201133D01*
X122073591Y-102214101D01*
X122073591Y-102214101D01*
G37*
X122073591Y-102214101D02*
X122070283Y-102222300D01*
X122051263Y-102242492D01*
X122047867Y-102243467D01*
X122038776Y-102227090D01*
X122038533Y-102222300D01*
X122054805Y-102201947D01*
X122060949Y-102201133D01*
X122073591Y-102214101D01*
G36*
X122010091Y-102214101D02*
G01*
X122006783Y-102222300D01*
X121987763Y-102242492D01*
X121984367Y-102243467D01*
X121975276Y-102227090D01*
X121975033Y-102222300D01*
X121991305Y-102201947D01*
X121997449Y-102201133D01*
X122010091Y-102214101D01*
X122010091Y-102214101D01*
G37*
X122010091Y-102214101D02*
X122006783Y-102222300D01*
X121987763Y-102242492D01*
X121984367Y-102243467D01*
X121975276Y-102227090D01*
X121975033Y-102222300D01*
X121991305Y-102201947D01*
X121997449Y-102201133D01*
X122010091Y-102214101D01*
G36*
X121944978Y-102211089D02*
G01*
X121943283Y-102222300D01*
X121925178Y-102242470D01*
X121922117Y-102243467D01*
X121905288Y-102228704D01*
X121900950Y-102222300D01*
X121905976Y-102204368D01*
X121922117Y-102201133D01*
X121944978Y-102211089D01*
X121944978Y-102211089D01*
G37*
X121944978Y-102211089D02*
X121943283Y-102222300D01*
X121925178Y-102242470D01*
X121922117Y-102243467D01*
X121905288Y-102228704D01*
X121900950Y-102222300D01*
X121905976Y-102204368D01*
X121922117Y-102201133D01*
X121944978Y-102211089D01*
G36*
X121656918Y-102217240D02*
G01*
X121657533Y-102222300D01*
X121641426Y-102242851D01*
X121636367Y-102243467D01*
X121615815Y-102227359D01*
X121615200Y-102222300D01*
X121631307Y-102201748D01*
X121636367Y-102201133D01*
X121656918Y-102217240D01*
X121656918Y-102217240D01*
G37*
X121656918Y-102217240D02*
X121657533Y-102222300D01*
X121641426Y-102242851D01*
X121636367Y-102243467D01*
X121615815Y-102227359D01*
X121615200Y-102222300D01*
X121631307Y-102201748D01*
X121636367Y-102201133D01*
X121656918Y-102217240D01*
G36*
X121346832Y-102117298D02*
G01*
X121384776Y-102123119D01*
X121400342Y-102138917D01*
X121403509Y-102169683D01*
X121403533Y-102179967D01*
X121401870Y-102215116D01*
X121390229Y-102234088D01*
X121358632Y-102241871D01*
X121297101Y-102243455D01*
X121276533Y-102243467D01*
X121206234Y-102242635D01*
X121168291Y-102236814D01*
X121152724Y-102221016D01*
X121149557Y-102190250D01*
X121149533Y-102179967D01*
X121151196Y-102144817D01*
X121162837Y-102125845D01*
X121194434Y-102118062D01*
X121255966Y-102116478D01*
X121276533Y-102116467D01*
X121346832Y-102117298D01*
X121346832Y-102117298D01*
G37*
X121346832Y-102117298D02*
X121384776Y-102123119D01*
X121400342Y-102138917D01*
X121403509Y-102169683D01*
X121403533Y-102179967D01*
X121401870Y-102215116D01*
X121390229Y-102234088D01*
X121358632Y-102241871D01*
X121297101Y-102243455D01*
X121276533Y-102243467D01*
X121206234Y-102242635D01*
X121168291Y-102236814D01*
X121152724Y-102221016D01*
X121149557Y-102190250D01*
X121149533Y-102179967D01*
X121151196Y-102144817D01*
X121162837Y-102125845D01*
X121194434Y-102118062D01*
X121255966Y-102116478D01*
X121276533Y-102116467D01*
X121346832Y-102117298D01*
G36*
X123477005Y-102279998D02*
G01*
X123477867Y-102285800D01*
X123470645Y-102306416D01*
X123468532Y-102306967D01*
X123450461Y-102292134D01*
X123446117Y-102285800D01*
X123447795Y-102266295D01*
X123455451Y-102264633D01*
X123477005Y-102279998D01*
X123477005Y-102279998D01*
G37*
X123477005Y-102279998D02*
X123477867Y-102285800D01*
X123470645Y-102306416D01*
X123468532Y-102306967D01*
X123450461Y-102292134D01*
X123446117Y-102285800D01*
X123447795Y-102266295D01*
X123455451Y-102264633D01*
X123477005Y-102279998D01*
G36*
X122920257Y-102277601D02*
G01*
X122916950Y-102285800D01*
X122897929Y-102305992D01*
X122894534Y-102306967D01*
X122885443Y-102290590D01*
X122885200Y-102285800D01*
X122901472Y-102265447D01*
X122907616Y-102264633D01*
X122920257Y-102277601D01*
X122920257Y-102277601D01*
G37*
X122920257Y-102277601D02*
X122916950Y-102285800D01*
X122897929Y-102305992D01*
X122894534Y-102306967D01*
X122885443Y-102290590D01*
X122885200Y-102285800D01*
X122901472Y-102265447D01*
X122907616Y-102264633D01*
X122920257Y-102277601D01*
G36*
X122630338Y-102279998D02*
G01*
X122631200Y-102285800D01*
X122623978Y-102306416D01*
X122621866Y-102306967D01*
X122603794Y-102292134D01*
X122599450Y-102285800D01*
X122601128Y-102266295D01*
X122608784Y-102264633D01*
X122630338Y-102279998D01*
X122630338Y-102279998D01*
G37*
X122630338Y-102279998D02*
X122631200Y-102285800D01*
X122623978Y-102306416D01*
X122621866Y-102306967D01*
X122603794Y-102292134D01*
X122599450Y-102285800D01*
X122601128Y-102266295D01*
X122608784Y-102264633D01*
X122630338Y-102279998D01*
G36*
X122369924Y-102277601D02*
G01*
X122366617Y-102285800D01*
X122347596Y-102305992D01*
X122344201Y-102306967D01*
X122335109Y-102290590D01*
X122334867Y-102285800D01*
X122351138Y-102265447D01*
X122357282Y-102264633D01*
X122369924Y-102277601D01*
X122369924Y-102277601D01*
G37*
X122369924Y-102277601D02*
X122366617Y-102285800D01*
X122347596Y-102305992D01*
X122344201Y-102306967D01*
X122335109Y-102290590D01*
X122334867Y-102285800D01*
X122351138Y-102265447D01*
X122357282Y-102264633D01*
X122369924Y-102277601D01*
G36*
X122207005Y-102279998D02*
G01*
X122207867Y-102285800D01*
X122200645Y-102306416D01*
X122198532Y-102306967D01*
X122180461Y-102292134D01*
X122176117Y-102285800D01*
X122177795Y-102266295D01*
X122185451Y-102264633D01*
X122207005Y-102279998D01*
X122207005Y-102279998D01*
G37*
X122207005Y-102279998D02*
X122207867Y-102285800D01*
X122200645Y-102306416D01*
X122198532Y-102306967D01*
X122180461Y-102292134D01*
X122176117Y-102285800D01*
X122177795Y-102266295D01*
X122185451Y-102264633D01*
X122207005Y-102279998D01*
G36*
X121944978Y-102274589D02*
G01*
X121943283Y-102285800D01*
X121925178Y-102305970D01*
X121922117Y-102306967D01*
X121905288Y-102292204D01*
X121900950Y-102285800D01*
X121905976Y-102267868D01*
X121922117Y-102264633D01*
X121944978Y-102274589D01*
X121944978Y-102274589D01*
G37*
X121944978Y-102274589D02*
X121943283Y-102285800D01*
X121925178Y-102305970D01*
X121922117Y-102306967D01*
X121905288Y-102292204D01*
X121900950Y-102285800D01*
X121905976Y-102267868D01*
X121922117Y-102264633D01*
X121944978Y-102274589D01*
G36*
X121656918Y-102280740D02*
G01*
X121657533Y-102285800D01*
X121641426Y-102306351D01*
X121636367Y-102306967D01*
X121615815Y-102290859D01*
X121615200Y-102285800D01*
X121631307Y-102265248D01*
X121636367Y-102264633D01*
X121656918Y-102280740D01*
X121656918Y-102280740D01*
G37*
X121656918Y-102280740D02*
X121657533Y-102285800D01*
X121641426Y-102306351D01*
X121636367Y-102306967D01*
X121615815Y-102290859D01*
X121615200Y-102285800D01*
X121631307Y-102265248D01*
X121636367Y-102264633D01*
X121656918Y-102280740D01*
G36*
X123477251Y-102344240D02*
G01*
X123477867Y-102349300D01*
X123461759Y-102369851D01*
X123456700Y-102370467D01*
X123436148Y-102354359D01*
X123435533Y-102349300D01*
X123451640Y-102328748D01*
X123456700Y-102328133D01*
X123477251Y-102344240D01*
X123477251Y-102344240D01*
G37*
X123477251Y-102344240D02*
X123477867Y-102349300D01*
X123461759Y-102369851D01*
X123456700Y-102370467D01*
X123436148Y-102354359D01*
X123435533Y-102349300D01*
X123451640Y-102328748D01*
X123456700Y-102328133D01*
X123477251Y-102344240D01*
G36*
X122926918Y-102344240D02*
G01*
X122927533Y-102349300D01*
X122911426Y-102369851D01*
X122906367Y-102370467D01*
X122885815Y-102354359D01*
X122885200Y-102349300D01*
X122901307Y-102328748D01*
X122906367Y-102328133D01*
X122926918Y-102344240D01*
X122926918Y-102344240D01*
G37*
X122926918Y-102344240D02*
X122927533Y-102349300D01*
X122911426Y-102369851D01*
X122906367Y-102370467D01*
X122885815Y-102354359D01*
X122885200Y-102349300D01*
X122901307Y-102328748D01*
X122906367Y-102328133D01*
X122926918Y-102344240D01*
G36*
X122630338Y-102343498D02*
G01*
X122631200Y-102349300D01*
X122623978Y-102369916D01*
X122621866Y-102370467D01*
X122603794Y-102355634D01*
X122599450Y-102349300D01*
X122601128Y-102329795D01*
X122608784Y-102328133D01*
X122630338Y-102343498D01*
X122630338Y-102343498D01*
G37*
X122630338Y-102343498D02*
X122631200Y-102349300D01*
X122623978Y-102369916D01*
X122621866Y-102370467D01*
X122603794Y-102355634D01*
X122599450Y-102349300D01*
X122601128Y-102329795D01*
X122608784Y-102328133D01*
X122630338Y-102343498D01*
G36*
X122348978Y-102335189D02*
G01*
X122351511Y-102360309D01*
X122348978Y-102363411D01*
X122336394Y-102360505D01*
X122334867Y-102349300D01*
X122342611Y-102331877D01*
X122348978Y-102335189D01*
X122348978Y-102335189D01*
G37*
X122348978Y-102335189D02*
X122351511Y-102360309D01*
X122348978Y-102363411D01*
X122336394Y-102360505D01*
X122334867Y-102349300D01*
X122342611Y-102331877D01*
X122348978Y-102335189D01*
G36*
X122207251Y-102344240D02*
G01*
X122207867Y-102349300D01*
X122191759Y-102369851D01*
X122186700Y-102370467D01*
X122166148Y-102354359D01*
X122165533Y-102349300D01*
X122181640Y-102328748D01*
X122186700Y-102328133D01*
X122207251Y-102344240D01*
X122207251Y-102344240D01*
G37*
X122207251Y-102344240D02*
X122207867Y-102349300D01*
X122191759Y-102369851D01*
X122186700Y-102370467D01*
X122166148Y-102354359D01*
X122165533Y-102349300D01*
X122181640Y-102328748D01*
X122186700Y-102328133D01*
X122207251Y-102344240D01*
G36*
X121925644Y-102335189D02*
G01*
X121928178Y-102360309D01*
X121925644Y-102363411D01*
X121913061Y-102360505D01*
X121911533Y-102349300D01*
X121919278Y-102331877D01*
X121925644Y-102335189D01*
X121925644Y-102335189D01*
G37*
X121925644Y-102335189D02*
X121928178Y-102360309D01*
X121925644Y-102363411D01*
X121913061Y-102360505D01*
X121911533Y-102349300D01*
X121919278Y-102331877D01*
X121925644Y-102335189D01*
G36*
X121656918Y-102344240D02*
G01*
X121657533Y-102349300D01*
X121641426Y-102369851D01*
X121636367Y-102370467D01*
X121615815Y-102354359D01*
X121615200Y-102349300D01*
X121631307Y-102328748D01*
X121636367Y-102328133D01*
X121656918Y-102344240D01*
X121656918Y-102344240D01*
G37*
X121656918Y-102344240D02*
X121657533Y-102349300D01*
X121641426Y-102369851D01*
X121636367Y-102370467D01*
X121615815Y-102354359D01*
X121615200Y-102349300D01*
X121631307Y-102328748D01*
X121636367Y-102328133D01*
X121656918Y-102344240D01*
G36*
X123477624Y-102408010D02*
G01*
X123477867Y-102412800D01*
X123461595Y-102433153D01*
X123455451Y-102433967D01*
X123442809Y-102420999D01*
X123446117Y-102412800D01*
X123465137Y-102392607D01*
X123468532Y-102391633D01*
X123477624Y-102408010D01*
X123477624Y-102408010D01*
G37*
X123477624Y-102408010D02*
X123477867Y-102412800D01*
X123461595Y-102433153D01*
X123455451Y-102433967D01*
X123442809Y-102420999D01*
X123446117Y-102412800D01*
X123465137Y-102392607D01*
X123468532Y-102391633D01*
X123477624Y-102408010D01*
G36*
X123414124Y-102408010D02*
G01*
X123414367Y-102412800D01*
X123398095Y-102433153D01*
X123391951Y-102433967D01*
X123379309Y-102420999D01*
X123382617Y-102412800D01*
X123401637Y-102392607D01*
X123405032Y-102391633D01*
X123414124Y-102408010D01*
X123414124Y-102408010D01*
G37*
X123414124Y-102408010D02*
X123414367Y-102412800D01*
X123398095Y-102433153D01*
X123391951Y-102433967D01*
X123379309Y-102420999D01*
X123382617Y-102412800D01*
X123401637Y-102392607D01*
X123405032Y-102391633D01*
X123414124Y-102408010D01*
G36*
X123350251Y-102407740D02*
G01*
X123350867Y-102412800D01*
X123334759Y-102433351D01*
X123329700Y-102433967D01*
X123309148Y-102417859D01*
X123308533Y-102412800D01*
X123324640Y-102392248D01*
X123329700Y-102391633D01*
X123350251Y-102407740D01*
X123350251Y-102407740D01*
G37*
X123350251Y-102407740D02*
X123350867Y-102412800D01*
X123334759Y-102433351D01*
X123329700Y-102433967D01*
X123309148Y-102417859D01*
X123308533Y-102412800D01*
X123324640Y-102392248D01*
X123329700Y-102391633D01*
X123350251Y-102407740D01*
G36*
X123266200Y-102402217D02*
G01*
X123286392Y-102421237D01*
X123287367Y-102424632D01*
X123270990Y-102433724D01*
X123266200Y-102433967D01*
X123245847Y-102417695D01*
X123245033Y-102411551D01*
X123258001Y-102398909D01*
X123266200Y-102402217D01*
X123266200Y-102402217D01*
G37*
X123266200Y-102402217D02*
X123286392Y-102421237D01*
X123287367Y-102424632D01*
X123270990Y-102433724D01*
X123266200Y-102433967D01*
X123245847Y-102417695D01*
X123245033Y-102411551D01*
X123258001Y-102398909D01*
X123266200Y-102402217D01*
G36*
X123195644Y-102398689D02*
G01*
X123198178Y-102423809D01*
X123195644Y-102426911D01*
X123183061Y-102424005D01*
X123181533Y-102412800D01*
X123189278Y-102395377D01*
X123195644Y-102398689D01*
X123195644Y-102398689D01*
G37*
X123195644Y-102398689D02*
X123198178Y-102423809D01*
X123195644Y-102426911D01*
X123183061Y-102424005D01*
X123181533Y-102412800D01*
X123189278Y-102395377D01*
X123195644Y-102398689D01*
G36*
X122990418Y-102407740D02*
G01*
X122991033Y-102412800D01*
X122974926Y-102433351D01*
X122969867Y-102433967D01*
X122949315Y-102417859D01*
X122948700Y-102412800D01*
X122964807Y-102392248D01*
X122969867Y-102391633D01*
X122990418Y-102407740D01*
X122990418Y-102407740D01*
G37*
X122990418Y-102407740D02*
X122991033Y-102412800D01*
X122974926Y-102433351D01*
X122969867Y-102433967D01*
X122949315Y-102417859D01*
X122948700Y-102412800D01*
X122964807Y-102392248D01*
X122969867Y-102391633D01*
X122990418Y-102407740D01*
G36*
X122906367Y-102402217D02*
G01*
X122926559Y-102421237D01*
X122927533Y-102424632D01*
X122911157Y-102433724D01*
X122906367Y-102433967D01*
X122886013Y-102417695D01*
X122885200Y-102411551D01*
X122898167Y-102398909D01*
X122906367Y-102402217D01*
X122906367Y-102402217D01*
G37*
X122906367Y-102402217D02*
X122926559Y-102421237D01*
X122927533Y-102424632D01*
X122911157Y-102433724D01*
X122906367Y-102433967D01*
X122886013Y-102417695D01*
X122885200Y-102411551D01*
X122898167Y-102398909D01*
X122906367Y-102402217D01*
G36*
X122835811Y-102398689D02*
G01*
X122838344Y-102423809D01*
X122835811Y-102426911D01*
X122823227Y-102424005D01*
X122821700Y-102412800D01*
X122829444Y-102395377D01*
X122835811Y-102398689D01*
X122835811Y-102398689D01*
G37*
X122835811Y-102398689D02*
X122838344Y-102423809D01*
X122835811Y-102426911D01*
X122823227Y-102424005D01*
X122821700Y-102412800D01*
X122829444Y-102395377D01*
X122835811Y-102398689D01*
G36*
X122567457Y-102408010D02*
G01*
X122567700Y-102412800D01*
X122551428Y-102433153D01*
X122545284Y-102433967D01*
X122532642Y-102420999D01*
X122535950Y-102412800D01*
X122554970Y-102392607D01*
X122558366Y-102391633D01*
X122567457Y-102408010D01*
X122567457Y-102408010D01*
G37*
X122567457Y-102408010D02*
X122567700Y-102412800D01*
X122551428Y-102433153D01*
X122545284Y-102433967D01*
X122532642Y-102420999D01*
X122535950Y-102412800D01*
X122554970Y-102392607D01*
X122558366Y-102391633D01*
X122567457Y-102408010D01*
G36*
X122503585Y-102407740D02*
G01*
X122504200Y-102412800D01*
X122488093Y-102433351D01*
X122483033Y-102433967D01*
X122462482Y-102417859D01*
X122461867Y-102412800D01*
X122477974Y-102392248D01*
X122483033Y-102391633D01*
X122503585Y-102407740D01*
X122503585Y-102407740D01*
G37*
X122503585Y-102407740D02*
X122504200Y-102412800D01*
X122488093Y-102433351D01*
X122483033Y-102433967D01*
X122462482Y-102417859D01*
X122461867Y-102412800D01*
X122477974Y-102392248D01*
X122483033Y-102391633D01*
X122503585Y-102407740D01*
G36*
X122419533Y-102402217D02*
G01*
X122439726Y-102421237D01*
X122440700Y-102424632D01*
X122424323Y-102433724D01*
X122419533Y-102433967D01*
X122399180Y-102417695D01*
X122398367Y-102411551D01*
X122411334Y-102398909D01*
X122419533Y-102402217D01*
X122419533Y-102402217D01*
G37*
X122419533Y-102402217D02*
X122439726Y-102421237D01*
X122440700Y-102424632D01*
X122424323Y-102433724D01*
X122419533Y-102433967D01*
X122399180Y-102417695D01*
X122398367Y-102411551D01*
X122411334Y-102398909D01*
X122419533Y-102402217D01*
G36*
X122348978Y-102398689D02*
G01*
X122351511Y-102423809D01*
X122348978Y-102426911D01*
X122336394Y-102424005D01*
X122334867Y-102412800D01*
X122342611Y-102395377D01*
X122348978Y-102398689D01*
X122348978Y-102398689D01*
G37*
X122348978Y-102398689D02*
X122351511Y-102423809D01*
X122348978Y-102426911D01*
X122336394Y-102424005D01*
X122334867Y-102412800D01*
X122342611Y-102395377D01*
X122348978Y-102398689D01*
G36*
X122207624Y-102408010D02*
G01*
X122207867Y-102412800D01*
X122191595Y-102433153D01*
X122185451Y-102433967D01*
X122172809Y-102420999D01*
X122176117Y-102412800D01*
X122195137Y-102392607D01*
X122198532Y-102391633D01*
X122207624Y-102408010D01*
X122207624Y-102408010D01*
G37*
X122207624Y-102408010D02*
X122207867Y-102412800D01*
X122191595Y-102433153D01*
X122185451Y-102433967D01*
X122172809Y-102420999D01*
X122176117Y-102412800D01*
X122195137Y-102392607D01*
X122198532Y-102391633D01*
X122207624Y-102408010D01*
G36*
X121925644Y-102398689D02*
G01*
X121928178Y-102423809D01*
X121925644Y-102426911D01*
X121913061Y-102424005D01*
X121911533Y-102412800D01*
X121919278Y-102395377D01*
X121925644Y-102398689D01*
X121925644Y-102398689D01*
G37*
X121925644Y-102398689D02*
X121928178Y-102423809D01*
X121925644Y-102426911D01*
X121913061Y-102424005D01*
X121911533Y-102412800D01*
X121919278Y-102395377D01*
X121925644Y-102398689D01*
G36*
X121656918Y-102407740D02*
G01*
X121657533Y-102412800D01*
X121641426Y-102433351D01*
X121636367Y-102433967D01*
X121615815Y-102417859D01*
X121615200Y-102412800D01*
X121631307Y-102392248D01*
X121636367Y-102391633D01*
X121656918Y-102407740D01*
X121656918Y-102407740D01*
G37*
X121656918Y-102407740D02*
X121657533Y-102412800D01*
X121641426Y-102433351D01*
X121636367Y-102433967D01*
X121615815Y-102417859D01*
X121615200Y-102412800D01*
X121631307Y-102392248D01*
X121636367Y-102391633D01*
X121656918Y-102407740D01*
G36*
X121171074Y-101503953D02*
G01*
X121212586Y-101509830D01*
X121230507Y-101523142D01*
X121234200Y-101544967D01*
X121227968Y-101571421D01*
X121202089Y-101583931D01*
X121145792Y-101587284D01*
X121138950Y-101587300D01*
X121043700Y-101587300D01*
X121043700Y-102772633D01*
X121129031Y-102772633D01*
X121196956Y-102780942D01*
X121226896Y-102805296D01*
X121232914Y-102838757D01*
X121229850Y-102847538D01*
X121201702Y-102856780D01*
X121147597Y-102864253D01*
X121083907Y-102868714D01*
X121027004Y-102868921D01*
X120997376Y-102865189D01*
X120965978Y-102837928D01*
X120955043Y-102808373D01*
X120951724Y-102793258D01*
X120943113Y-102781704D01*
X120923929Y-102773074D01*
X120888888Y-102766731D01*
X120832708Y-102762040D01*
X120750105Y-102758363D01*
X120635798Y-102755064D01*
X120484502Y-102751506D01*
X120482783Y-102751467D01*
X120296168Y-102746001D01*
X120151552Y-102739032D01*
X120048627Y-102730537D01*
X119987087Y-102720495D01*
X119971653Y-102714837D01*
X119910773Y-102666846D01*
X119844551Y-102594940D01*
X119784723Y-102513901D01*
X119743026Y-102438514D01*
X119735092Y-102416888D01*
X119710368Y-102268924D01*
X119713119Y-102235378D01*
X119794893Y-102235378D01*
X119814964Y-102361815D01*
X119870928Y-102482018D01*
X119960952Y-102587425D01*
X120048988Y-102666800D01*
X120959033Y-102666800D01*
X120959033Y-102528905D01*
X120957804Y-102453755D01*
X120950880Y-102408245D01*
X120933411Y-102379693D01*
X120900545Y-102355415D01*
X120890242Y-102349068D01*
X120844633Y-102327157D01*
X120788593Y-102314155D01*
X120710422Y-102308135D01*
X120634719Y-102307046D01*
X120538705Y-102308594D01*
X120471361Y-102315125D01*
X120419089Y-102329317D01*
X120368289Y-102353852D01*
X120353160Y-102362539D01*
X120258333Y-102418112D01*
X120207545Y-102370400D01*
X120156758Y-102322688D01*
X120149291Y-102468285D01*
X120145706Y-102535327D01*
X120143257Y-102566885D01*
X120141446Y-102561262D01*
X120139775Y-102516759D01*
X120137746Y-102431677D01*
X120137679Y-102428675D01*
X120137645Y-102346095D01*
X120141072Y-102282481D01*
X120147287Y-102247399D01*
X120150719Y-102243467D01*
X120173332Y-102258928D01*
X120207362Y-102297132D01*
X120215122Y-102307330D01*
X120262338Y-102371193D01*
X120351394Y-102321080D01*
X120394371Y-102298673D01*
X120433927Y-102284992D01*
X120480960Y-102278777D01*
X120546368Y-102278767D01*
X120641050Y-102283700D01*
X120662700Y-102285057D01*
X120759014Y-102292516D01*
X120842238Y-102301442D01*
X120901539Y-102310535D01*
X120922929Y-102316265D01*
X120941752Y-102321467D01*
X120952503Y-102310918D01*
X120956794Y-102277027D01*
X120956237Y-102212196D01*
X120954679Y-102166716D01*
X120948450Y-102000050D01*
X120588617Y-101994805D01*
X120467854Y-101994144D01*
X120360775Y-101995624D01*
X120275020Y-101998978D01*
X120218231Y-102003935D01*
X120199268Y-102008527D01*
X120184149Y-102027004D01*
X120190885Y-102057468D01*
X120216951Y-102103862D01*
X120254694Y-102152139D01*
X120284440Y-102166562D01*
X120301047Y-102145819D01*
X120302867Y-102125801D01*
X120314701Y-102098444D01*
X120324033Y-102095300D01*
X120343136Y-102110637D01*
X120339400Y-102147810D01*
X120318183Y-102187656D01*
X120283105Y-102212533D01*
X120258855Y-102212205D01*
X120219532Y-102179846D01*
X120183005Y-102123122D01*
X120159022Y-102059430D01*
X120154700Y-102026348D01*
X120157310Y-101999954D01*
X120170984Y-101983337D01*
X120204493Y-101972950D01*
X120266605Y-101965245D01*
X120316643Y-101960822D01*
X120408846Y-101954982D01*
X120525416Y-101950383D01*
X120648392Y-101947637D01*
X120718810Y-101947133D01*
X120959033Y-101947133D01*
X120959033Y-101820133D01*
X120029173Y-101820133D01*
X119951030Y-101888743D01*
X119862827Y-101991835D01*
X119810814Y-102109715D01*
X119794893Y-102235378D01*
X119713119Y-102235378D01*
X119722322Y-102123198D01*
X119768551Y-101987749D01*
X119846650Y-101870614D01*
X119918220Y-101804404D01*
X120009824Y-101735467D01*
X120959033Y-101735467D01*
X120959033Y-101502633D01*
X121096617Y-101502633D01*
X121171074Y-101503953D01*
X121171074Y-101503953D01*
G37*
X121171074Y-101503953D02*
X121212586Y-101509830D01*
X121230507Y-101523142D01*
X121234200Y-101544967D01*
X121227968Y-101571421D01*
X121202089Y-101583931D01*
X121145792Y-101587284D01*
X121138950Y-101587300D01*
X121043700Y-101587300D01*
X121043700Y-102772633D01*
X121129031Y-102772633D01*
X121196956Y-102780942D01*
X121226896Y-102805296D01*
X121232914Y-102838757D01*
X121229850Y-102847538D01*
X121201702Y-102856780D01*
X121147597Y-102864253D01*
X121083907Y-102868714D01*
X121027004Y-102868921D01*
X120997376Y-102865189D01*
X120965978Y-102837928D01*
X120955043Y-102808373D01*
X120951724Y-102793258D01*
X120943113Y-102781704D01*
X120923929Y-102773074D01*
X120888888Y-102766731D01*
X120832708Y-102762040D01*
X120750105Y-102758363D01*
X120635798Y-102755064D01*
X120484502Y-102751506D01*
X120482783Y-102751467D01*
X120296168Y-102746001D01*
X120151552Y-102739032D01*
X120048627Y-102730537D01*
X119987087Y-102720495D01*
X119971653Y-102714837D01*
X119910773Y-102666846D01*
X119844551Y-102594940D01*
X119784723Y-102513901D01*
X119743026Y-102438514D01*
X119735092Y-102416888D01*
X119710368Y-102268924D01*
X119713119Y-102235378D01*
X119794893Y-102235378D01*
X119814964Y-102361815D01*
X119870928Y-102482018D01*
X119960952Y-102587425D01*
X120048988Y-102666800D01*
X120959033Y-102666800D01*
X120959033Y-102528905D01*
X120957804Y-102453755D01*
X120950880Y-102408245D01*
X120933411Y-102379693D01*
X120900545Y-102355415D01*
X120890242Y-102349068D01*
X120844633Y-102327157D01*
X120788593Y-102314155D01*
X120710422Y-102308135D01*
X120634719Y-102307046D01*
X120538705Y-102308594D01*
X120471361Y-102315125D01*
X120419089Y-102329317D01*
X120368289Y-102353852D01*
X120353160Y-102362539D01*
X120258333Y-102418112D01*
X120207545Y-102370400D01*
X120156758Y-102322688D01*
X120149291Y-102468285D01*
X120145706Y-102535327D01*
X120143257Y-102566885D01*
X120141446Y-102561262D01*
X120139775Y-102516759D01*
X120137746Y-102431677D01*
X120137679Y-102428675D01*
X120137645Y-102346095D01*
X120141072Y-102282481D01*
X120147287Y-102247399D01*
X120150719Y-102243467D01*
X120173332Y-102258928D01*
X120207362Y-102297132D01*
X120215122Y-102307330D01*
X120262338Y-102371193D01*
X120351394Y-102321080D01*
X120394371Y-102298673D01*
X120433927Y-102284992D01*
X120480960Y-102278777D01*
X120546368Y-102278767D01*
X120641050Y-102283700D01*
X120662700Y-102285057D01*
X120759014Y-102292516D01*
X120842238Y-102301442D01*
X120901539Y-102310535D01*
X120922929Y-102316265D01*
X120941752Y-102321467D01*
X120952503Y-102310918D01*
X120956794Y-102277027D01*
X120956237Y-102212196D01*
X120954679Y-102166716D01*
X120948450Y-102000050D01*
X120588617Y-101994805D01*
X120467854Y-101994144D01*
X120360775Y-101995624D01*
X120275020Y-101998978D01*
X120218231Y-102003935D01*
X120199268Y-102008527D01*
X120184149Y-102027004D01*
X120190885Y-102057468D01*
X120216951Y-102103862D01*
X120254694Y-102152139D01*
X120284440Y-102166562D01*
X120301047Y-102145819D01*
X120302867Y-102125801D01*
X120314701Y-102098444D01*
X120324033Y-102095300D01*
X120343136Y-102110637D01*
X120339400Y-102147810D01*
X120318183Y-102187656D01*
X120283105Y-102212533D01*
X120258855Y-102212205D01*
X120219532Y-102179846D01*
X120183005Y-102123122D01*
X120159022Y-102059430D01*
X120154700Y-102026348D01*
X120157310Y-101999954D01*
X120170984Y-101983337D01*
X120204493Y-101972950D01*
X120266605Y-101965245D01*
X120316643Y-101960822D01*
X120408846Y-101954982D01*
X120525416Y-101950383D01*
X120648392Y-101947637D01*
X120718810Y-101947133D01*
X120959033Y-101947133D01*
X120959033Y-101820133D01*
X120029173Y-101820133D01*
X119951030Y-101888743D01*
X119862827Y-101991835D01*
X119810814Y-102109715D01*
X119794893Y-102235378D01*
X119713119Y-102235378D01*
X119722322Y-102123198D01*
X119768551Y-101987749D01*
X119846650Y-101870614D01*
X119918220Y-101804404D01*
X120009824Y-101735467D01*
X120959033Y-101735467D01*
X120959033Y-101502633D01*
X121096617Y-101502633D01*
X121171074Y-101503953D01*
>>>>>>> master
G36*
X138195763Y-51806599D02*
G01*
X138197958Y-51808405D01*
X138218602Y-51830033D01*
X138235998Y-51860602D01*
X138251074Y-51905056D01*
X138264757Y-51968340D01*
X138277977Y-52055396D01*
X138291661Y-52171170D01*
X138306737Y-52320606D01*
X138319198Y-52454259D01*
X138332810Y-52597209D01*
X138350927Y-52777462D01*
X138373374Y-52993534D01*
X138399977Y-53243942D01*
X138430561Y-53527202D01*
X138464952Y-53841829D01*
X138502975Y-54186340D01*
X138544456Y-54559250D01*
X138589221Y-54959077D01*
X138637095Y-55384335D01*
X138687904Y-55833541D01*
X138741473Y-56305212D01*
X138797628Y-56797862D01*
X138856194Y-57310008D01*
X138916996Y-57840167D01*
X138979862Y-58386854D01*
X139044615Y-58948586D01*
X139111082Y-59523878D01*
X139179088Y-60111246D01*
X139248458Y-60709207D01*
X139319019Y-61316276D01*
X139390595Y-61930970D01*
X139463013Y-62551805D01*
X139536098Y-63177297D01*
X139609675Y-63805962D01*
X139683570Y-64436315D01*
X139757608Y-65066874D01*
X139831616Y-65696154D01*
X139905418Y-66322670D01*
X139978840Y-66944940D01*
X140051708Y-67561480D01*
X140123847Y-68170804D01*
X140195083Y-68771431D01*
X140265242Y-69361874D01*
X140334148Y-69940651D01*
X140401628Y-70506278D01*
X140467507Y-71057270D01*
X140531610Y-71592144D01*
X140593764Y-72109416D01*
X140653793Y-72607602D01*
X140711524Y-73085218D01*
X140766781Y-73540780D01*
X140819391Y-73972803D01*
X140869178Y-74379805D01*
X140915969Y-74760301D01*
X140959589Y-75112808D01*
X140999864Y-75435841D01*
X141036619Y-75727916D01*
X141069679Y-75987549D01*
X141098871Y-76213258D01*
X141124019Y-76403556D01*
X141144949Y-76556962D01*
X141161488Y-76671990D01*
X141173460Y-76747157D01*
X141177534Y-76768644D01*
X141187916Y-76798234D01*
X141210140Y-76821048D01*
X141252792Y-76842180D01*
X141324459Y-76866723D01*
X141362779Y-76878516D01*
X141501397Y-76919070D01*
X141679464Y-76968703D01*
X141895182Y-77026958D01*
X142146754Y-77093380D01*
X142432384Y-77167515D01*
X142750272Y-77248907D01*
X143098623Y-77337100D01*
X143475639Y-77431640D01*
X143879522Y-77532070D01*
X144308476Y-77637937D01*
X144760703Y-77748784D01*
X145234406Y-77864156D01*
X145673986Y-77970607D01*
X146087358Y-78070642D01*
X146483714Y-78166938D01*
X146861198Y-78259031D01*
X147217954Y-78346457D01*
X147552125Y-78428751D01*
X147861855Y-78505449D01*
X148145288Y-78576086D01*
X148400567Y-78640198D01*
X148625835Y-78697321D01*
X148819237Y-78746991D01*
X148978917Y-78788742D01*
X149103017Y-78822111D01*
X149189681Y-78846633D01*
X149237054Y-78861844D01*
X149237610Y-78862059D01*
X149324187Y-78902546D01*
X149375077Y-78945636D01*
X149396733Y-78997971D01*
X149398646Y-79027763D01*
X149396270Y-79061184D01*
X149387490Y-79090725D01*
X149368484Y-79118452D01*
X149335428Y-79146431D01*
X149284502Y-79176725D01*
X149211881Y-79211400D01*
X149113745Y-79252522D01*
X148986270Y-79302156D01*
X148825634Y-79362366D01*
X148679547Y-79416276D01*
X148478137Y-79489848D01*
X148258582Y-79569049D01*
X148018137Y-79654841D01*
X147754060Y-79748187D01*
X147463608Y-79850048D01*
X147144036Y-79961386D01*
X146792602Y-80083163D01*
X146406562Y-80216342D01*
X145983173Y-80361884D01*
X145970320Y-80366295D01*
X145480467Y-80534914D01*
X145019171Y-80694716D01*
X144587302Y-80845383D01*
X144185728Y-80986596D01*
X143815319Y-81118035D01*
X143476943Y-81239383D01*
X143171471Y-81350318D01*
X142899770Y-81450523D01*
X142662710Y-81539678D01*
X142461160Y-81617465D01*
X142295989Y-81683563D01*
X142168067Y-81737655D01*
X142078262Y-81779420D01*
X142027444Y-81808541D01*
X142017445Y-81817541D01*
X142004099Y-81858495D01*
X141995535Y-81937049D01*
X141991726Y-82048745D01*
X141992642Y-82189125D01*
X141998254Y-82353730D01*
X142008533Y-82538102D01*
X142023401Y-82737191D01*
X142034897Y-82871765D01*
X142046340Y-82998620D01*
X142058331Y-83123022D01*
X142071474Y-83250237D01*
X142086371Y-83385531D01*
X142103626Y-83534168D01*
X142123841Y-83701415D01*
X142147620Y-83892538D01*
X142175564Y-84112801D01*
X142208279Y-84367470D01*
X142224110Y-84490009D01*
X142271492Y-84859953D01*
X142312918Y-85191514D01*
X142348778Y-85488164D01*
X142379461Y-85753374D01*
X142405355Y-85990617D01*
X142426849Y-86203364D01*
X142444331Y-86395087D01*
X142458191Y-86569259D01*
X142460460Y-86600832D01*
X142469573Y-86735756D01*
X142474966Y-86835632D01*
X142476494Y-86907595D01*
X142474012Y-86958780D01*
X142467375Y-86996323D01*
X142456438Y-87027357D01*
X142451590Y-87037954D01*
X142418726Y-87089414D01*
X142373206Y-87115622D01*
X142332575Y-87124765D01*
X142267850Y-87128892D01*
X142215565Y-87120842D01*
X142208160Y-87117623D01*
X142165506Y-87085882D01*
X142097800Y-87023640D01*
X142006962Y-86933021D01*
X141894913Y-86816152D01*
X141763573Y-86675159D01*
X141614862Y-86512165D01*
X141450703Y-86329299D01*
X141273014Y-86128684D01*
X141083718Y-85912448D01*
X140884733Y-85682714D01*
X140677982Y-85441610D01*
X140465384Y-85191261D01*
X140433480Y-85153483D01*
X140215236Y-84894925D01*
X140021906Y-84666030D01*
X139851153Y-84464068D01*
X139700643Y-84286303D01*
X139568037Y-84130004D01*
X139451001Y-83992439D01*
X139347199Y-83870873D01*
X139254293Y-83762575D01*
X139169948Y-83664812D01*
X139091828Y-83574851D01*
X139017597Y-83489959D01*
X138944917Y-83407404D01*
X138871455Y-83324452D01*
X138830270Y-83278120D01*
X138712793Y-83147499D01*
X138589277Y-83012661D01*
X138463228Y-82877209D01*
X138338151Y-82744750D01*
X138217553Y-82618888D01*
X138104938Y-82503229D01*
X138003812Y-82401377D01*
X137917683Y-82316938D01*
X137850054Y-82253516D01*
X137804432Y-82214718D01*
X137785548Y-82203792D01*
X137765530Y-82219833D01*
X137724019Y-82264504D01*
X137665267Y-82332828D01*
X137593524Y-82419829D01*
X137513043Y-82520531D01*
X137491505Y-82547967D01*
X137408228Y-82653782D01*
X137331771Y-82749695D01*
X137266671Y-82830113D01*
X137217467Y-82889441D01*
X137188695Y-82922084D01*
X137185656Y-82925041D01*
X137169101Y-82944801D01*
X137128637Y-82995276D01*
X137066364Y-83073779D01*
X136984381Y-83177623D01*
X136884789Y-83304123D01*
X136769687Y-83450591D01*
X136641175Y-83614342D01*
X136501353Y-83792688D01*
X136352320Y-83982943D01*
X136196177Y-84182421D01*
X136035024Y-84388434D01*
X135870960Y-84598297D01*
X135706084Y-84809323D01*
X135542498Y-85018825D01*
X135382300Y-85224117D01*
X135227591Y-85422512D01*
X135080471Y-85611324D01*
X134943038Y-85787866D01*
X134817394Y-85949452D01*
X134705637Y-86093395D01*
X134609869Y-86217008D01*
X134532187Y-86317605D01*
X134474693Y-86392500D01*
X134448666Y-86426759D01*
X134308466Y-86611750D01*
X134191437Y-86763931D01*
X134096225Y-86884997D01*
X134021473Y-86976641D01*
X133965827Y-87040558D01*
X133927931Y-87078443D01*
X133926187Y-87079929D01*
X133844350Y-87125591D01*
X133758559Y-87133017D01*
X133677998Y-87101740D01*
X133666290Y-87093178D01*
X133617865Y-87038769D01*
X133581505Y-86959337D01*
X133556725Y-86851687D01*
X133543042Y-86712627D01*
X133539975Y-86538962D01*
X133547040Y-86327499D01*
X133547948Y-86310342D01*
X133559285Y-86119980D01*
X133573529Y-85916060D01*
X133590989Y-85695385D01*
X133611974Y-85454763D01*
X133636795Y-85190996D01*
X133665759Y-84900891D01*
X133699177Y-84581252D01*
X133737357Y-84228884D01*
X133780609Y-83840593D01*
X133823480Y-83463426D01*
X133860176Y-83133363D01*
X133889937Y-82844194D01*
X133912838Y-82595061D01*
X133928957Y-82385109D01*
X133938369Y-82213482D01*
X133940111Y-82161676D01*
X133943332Y-82011831D01*
X133942926Y-81898136D01*
X133937459Y-81814463D01*
X133925495Y-81754686D01*
X133905599Y-81712677D01*
X133876334Y-81682309D01*
X133836267Y-81657455D01*
X133820066Y-81649240D01*
X133792054Y-81638619D01*
X133726234Y-81615474D01*
X133624978Y-81580596D01*
X133490662Y-81534779D01*
X133325660Y-81478816D01*
X133132347Y-81413501D01*
X132913096Y-81339625D01*
X132670283Y-81257983D01*
X132406281Y-81169368D01*
X132123466Y-81074571D01*
X131824212Y-80974387D01*
X131510893Y-80869608D01*
X131185883Y-80761028D01*
X130851558Y-80649439D01*
X130510291Y-80535634D01*
X130164457Y-80420407D01*
X129816431Y-80304551D01*
X129468587Y-80188859D01*
X129123299Y-80074123D01*
X128782942Y-79961136D01*
X128449890Y-79850693D01*
X128126518Y-79743585D01*
X127815200Y-79640607D01*
X127518311Y-79542550D01*
X127238225Y-79450208D01*
X127079332Y-79397910D01*
X126875944Y-79330785D01*
X126685821Y-79267593D01*
X126512548Y-79209554D01*
X126359709Y-79157892D01*
X126230888Y-79113829D01*
X126129669Y-79078586D01*
X126059637Y-79053386D01*
X126024375Y-79039451D01*
X126020999Y-79037053D01*
X126043717Y-79031275D01*
X126105075Y-79015804D01*
X126202649Y-78991250D01*
X126334017Y-78958220D01*
X126496758Y-78917324D01*
X126688449Y-78869170D01*
X126906668Y-78814365D01*
X127148992Y-78753518D01*
X127413000Y-78687238D01*
X127696269Y-78616133D01*
X127996378Y-78540810D01*
X128310903Y-78461879D01*
X128637422Y-78379948D01*
X128740653Y-78354047D01*
X129208706Y-78236564D01*
X129638204Y-78128645D01*
X130031673Y-78029632D01*
X130391638Y-77938872D01*
X130720625Y-77855707D01*
X131021160Y-77779483D01*
X131295770Y-77709543D01*
X131546980Y-77645232D01*
X131777316Y-77585895D01*
X131989304Y-77530875D01*
X132185471Y-77479517D01*
X132368341Y-77431166D01*
X132540442Y-77385165D01*
X132704298Y-77340860D01*
X132862436Y-77297593D01*
X133017383Y-77254711D01*
X133171663Y-77211556D01*
X133327803Y-77167474D01*
X133488329Y-77121808D01*
X133492570Y-77120598D01*
X133715671Y-77056127D01*
X133916580Y-76996473D01*
X134092337Y-76942589D01*
X134239981Y-76895429D01*
X134356551Y-76855946D01*
X134439087Y-76825092D01*
X134484629Y-76803822D01*
X134490983Y-76799119D01*
X134502435Y-76769553D01*
X134519038Y-76698808D01*
X134540675Y-76587707D01*
X134567232Y-76437076D01*
X134598594Y-76247740D01*
X134634644Y-76020523D01*
X134675270Y-75756250D01*
X134720354Y-75455747D01*
X134769782Y-75119837D01*
X134823439Y-74749347D01*
X134881210Y-74345099D01*
X134942980Y-73907921D01*
X135008632Y-73438635D01*
X135078053Y-72938068D01*
X135151127Y-72407043D01*
X135227739Y-71846386D01*
X135307774Y-71256921D01*
X135391117Y-70639474D01*
X135477651Y-69994869D01*
X135567264Y-69323931D01*
X135659838Y-68627484D01*
X135755260Y-67906354D01*
X135853413Y-67161366D01*
X135954184Y-66393344D01*
X136057455Y-65603113D01*
X136106294Y-65228342D01*
X136156537Y-64842493D01*
X136210306Y-64429632D01*
X136266758Y-63996235D01*
X136325048Y-63548779D01*
X136384334Y-63093742D01*
X136443769Y-62637601D01*
X136502512Y-62186833D01*
X136559716Y-61747915D01*
X136614540Y-61327324D01*
X136666138Y-60931537D01*
X136713666Y-60567032D01*
X136742046Y-60349426D01*
X136783418Y-60032068D01*
X136824322Y-59718007D01*
X136864291Y-59410839D01*
X136902860Y-59114157D01*
X136939562Y-58831558D01*
X136973931Y-58566637D01*
X137005500Y-58322988D01*
X137033804Y-58104208D01*
X137058376Y-57913892D01*
X137078751Y-57755634D01*
X137094461Y-57633030D01*
X137102982Y-57566009D01*
X137147530Y-57216256D01*
X137194323Y-56853991D01*
X137242848Y-56482919D01*
X137292593Y-56106746D01*
X137343047Y-55729175D01*
X137393697Y-55353911D01*
X137444031Y-54984658D01*
X137493538Y-54625122D01*
X137541705Y-54279007D01*
X137588020Y-53950017D01*
X137631972Y-53641857D01*
X137673048Y-53358231D01*
X137710736Y-53102845D01*
X137744525Y-52879403D01*
X137773902Y-52691609D01*
X137791915Y-52581259D01*
X137826143Y-52379810D01*
X137855654Y-52216160D01*
X137881899Y-52086224D01*
X137906326Y-51985920D01*
X137930384Y-51911162D01*
X137955523Y-51857869D01*
X137983192Y-51821955D01*
X138014840Y-51799338D01*
X138051916Y-51785933D01*
X138075956Y-51780863D01*
X138142697Y-51779325D01*
X138195763Y-51806599D01*
X138195763Y-51806599D01*
G37*
X138195763Y-51806599D02*
X138197958Y-51808405D01*
X138218602Y-51830033D01*
X138235998Y-51860602D01*
X138251074Y-51905056D01*
X138264757Y-51968340D01*
X138277977Y-52055396D01*
X138291661Y-52171170D01*
X138306737Y-52320606D01*
X138319198Y-52454259D01*
X138332810Y-52597209D01*
X138350927Y-52777462D01*
X138373374Y-52993534D01*
X138399977Y-53243942D01*
X138430561Y-53527202D01*
X138464952Y-53841829D01*
X138502975Y-54186340D01*
X138544456Y-54559250D01*
X138589221Y-54959077D01*
X138637095Y-55384335D01*
X138687904Y-55833541D01*
X138741473Y-56305212D01*
X138797628Y-56797862D01*
X138856194Y-57310008D01*
X138916996Y-57840167D01*
X138979862Y-58386854D01*
X139044615Y-58948586D01*
X139111082Y-59523878D01*
X139179088Y-60111246D01*
X139248458Y-60709207D01*
X139319019Y-61316276D01*
X139390595Y-61930970D01*
X139463013Y-62551805D01*
X139536098Y-63177297D01*
X139609675Y-63805962D01*
X139683570Y-64436315D01*
X139757608Y-65066874D01*
X139831616Y-65696154D01*
X139905418Y-66322670D01*
X139978840Y-66944940D01*
X140051708Y-67561480D01*
X140123847Y-68170804D01*
X140195083Y-68771431D01*
X140265242Y-69361874D01*
X140334148Y-69940651D01*
X140401628Y-70506278D01*
X140467507Y-71057270D01*
X140531610Y-71592144D01*
X140593764Y-72109416D01*
X140653793Y-72607602D01*
X140711524Y-73085218D01*
X140766781Y-73540780D01*
X140819391Y-73972803D01*
X140869178Y-74379805D01*
X140915969Y-74760301D01*
X140959589Y-75112808D01*
X140999864Y-75435841D01*
X141036619Y-75727916D01*
X141069679Y-75987549D01*
X141098871Y-76213258D01*
X141124019Y-76403556D01*
X141144949Y-76556962D01*
X141161488Y-76671990D01*
X141173460Y-76747157D01*
X141177534Y-76768644D01*
X141187916Y-76798234D01*
X141210140Y-76821048D01*
X141252792Y-76842180D01*
X141324459Y-76866723D01*
X141362779Y-76878516D01*
X141501397Y-76919070D01*
X141679464Y-76968703D01*
X141895182Y-77026958D01*
X142146754Y-77093380D01*
X142432384Y-77167515D01*
X142750272Y-77248907D01*
X143098623Y-77337100D01*
X143475639Y-77431640D01*
X143879522Y-77532070D01*
X144308476Y-77637937D01*
X144760703Y-77748784D01*
X145234406Y-77864156D01*
X145673986Y-77970607D01*
X146087358Y-78070642D01*
X146483714Y-78166938D01*
X146861198Y-78259031D01*
X147217954Y-78346457D01*
X147552125Y-78428751D01*
X147861855Y-78505449D01*
X148145288Y-78576086D01*
X148400567Y-78640198D01*
X148625835Y-78697321D01*
X148819237Y-78746991D01*
X148978917Y-78788742D01*
X149103017Y-78822111D01*
X149189681Y-78846633D01*
X149237054Y-78861844D01*
X149237610Y-78862059D01*
X149324187Y-78902546D01*
X149375077Y-78945636D01*
X149396733Y-78997971D01*
X149398646Y-79027763D01*
X149396270Y-79061184D01*
X149387490Y-79090725D01*
X149368484Y-79118452D01*
X149335428Y-79146431D01*
X149284502Y-79176725D01*
X149211881Y-79211400D01*
X149113745Y-79252522D01*
X148986270Y-79302156D01*
X148825634Y-79362366D01*
X148679547Y-79416276D01*
X148478137Y-79489848D01*
X148258582Y-79569049D01*
X148018137Y-79654841D01*
X147754060Y-79748187D01*
X147463608Y-79850048D01*
X147144036Y-79961386D01*
X146792602Y-80083163D01*
X146406562Y-80216342D01*
X145983173Y-80361884D01*
X145970320Y-80366295D01*
X145480467Y-80534914D01*
X145019171Y-80694716D01*
X144587302Y-80845383D01*
X144185728Y-80986596D01*
X143815319Y-81118035D01*
X143476943Y-81239383D01*
X143171471Y-81350318D01*
X142899770Y-81450523D01*
X142662710Y-81539678D01*
X142461160Y-81617465D01*
X142295989Y-81683563D01*
X142168067Y-81737655D01*
X142078262Y-81779420D01*
X142027444Y-81808541D01*
X142017445Y-81817541D01*
X142004099Y-81858495D01*
X141995535Y-81937049D01*
X141991726Y-82048745D01*
X141992642Y-82189125D01*
X141998254Y-82353730D01*
X142008533Y-82538102D01*
X142023401Y-82737191D01*
X142034897Y-82871765D01*
X142046340Y-82998620D01*
X142058331Y-83123022D01*
X142071474Y-83250237D01*
X142086371Y-83385531D01*
X142103626Y-83534168D01*
X142123841Y-83701415D01*
X142147620Y-83892538D01*
X142175564Y-84112801D01*
X142208279Y-84367470D01*
X142224110Y-84490009D01*
X142271492Y-84859953D01*
X142312918Y-85191514D01*
X142348778Y-85488164D01*
X142379461Y-85753374D01*
X142405355Y-85990617D01*
X142426849Y-86203364D01*
X142444331Y-86395087D01*
X142458191Y-86569259D01*
X142460460Y-86600832D01*
X142469573Y-86735756D01*
X142474966Y-86835632D01*
X142476494Y-86907595D01*
X142474012Y-86958780D01*
X142467375Y-86996323D01*
X142456438Y-87027357D01*
X142451590Y-87037954D01*
X142418726Y-87089414D01*
X142373206Y-87115622D01*
X142332575Y-87124765D01*
X142267850Y-87128892D01*
X142215565Y-87120842D01*
X142208160Y-87117623D01*
X142165506Y-87085882D01*
X142097800Y-87023640D01*
X142006962Y-86933021D01*
X141894913Y-86816152D01*
X141763573Y-86675159D01*
X141614862Y-86512165D01*
X141450703Y-86329299D01*
X141273014Y-86128684D01*
X141083718Y-85912448D01*
X140884733Y-85682714D01*
X140677982Y-85441610D01*
X140465384Y-85191261D01*
X140433480Y-85153483D01*
X140215236Y-84894925D01*
X140021906Y-84666030D01*
X139851153Y-84464068D01*
X139700643Y-84286303D01*
X139568037Y-84130004D01*
X139451001Y-83992439D01*
X139347199Y-83870873D01*
X139254293Y-83762575D01*
X139169948Y-83664812D01*
X139091828Y-83574851D01*
X139017597Y-83489959D01*
X138944917Y-83407404D01*
X138871455Y-83324452D01*
X138830270Y-83278120D01*
X138712793Y-83147499D01*
X138589277Y-83012661D01*
X138463228Y-82877209D01*
X138338151Y-82744750D01*
X138217553Y-82618888D01*
X138104938Y-82503229D01*
X138003812Y-82401377D01*
X137917683Y-82316938D01*
X137850054Y-82253516D01*
X137804432Y-82214718D01*
X137785548Y-82203792D01*
X137765530Y-82219833D01*
X137724019Y-82264504D01*
X137665267Y-82332828D01*
X137593524Y-82419829D01*
X137513043Y-82520531D01*
X137491505Y-82547967D01*
X137408228Y-82653782D01*
X137331771Y-82749695D01*
X137266671Y-82830113D01*
X137217467Y-82889441D01*
X137188695Y-82922084D01*
X137185656Y-82925041D01*
X137169101Y-82944801D01*
X137128637Y-82995276D01*
X137066364Y-83073779D01*
X136984381Y-83177623D01*
X136884789Y-83304123D01*
X136769687Y-83450591D01*
X136641175Y-83614342D01*
X136501353Y-83792688D01*
X136352320Y-83982943D01*
X136196177Y-84182421D01*
X136035024Y-84388434D01*
X135870960Y-84598297D01*
X135706084Y-84809323D01*
X135542498Y-85018825D01*
X135382300Y-85224117D01*
X135227591Y-85422512D01*
X135080471Y-85611324D01*
X134943038Y-85787866D01*
X134817394Y-85949452D01*
X134705637Y-86093395D01*
X134609869Y-86217008D01*
X134532187Y-86317605D01*
X134474693Y-86392500D01*
X134448666Y-86426759D01*
X134308466Y-86611750D01*
X134191437Y-86763931D01*
X134096225Y-86884997D01*
X134021473Y-86976641D01*
X133965827Y-87040558D01*
X133927931Y-87078443D01*
X133926187Y-87079929D01*
X133844350Y-87125591D01*
X133758559Y-87133017D01*
X133677998Y-87101740D01*
X133666290Y-87093178D01*
X133617865Y-87038769D01*
X133581505Y-86959337D01*
X133556725Y-86851687D01*
X133543042Y-86712627D01*
X133539975Y-86538962D01*
X133547040Y-86327499D01*
X133547948Y-86310342D01*
X133559285Y-86119980D01*
X133573529Y-85916060D01*
X133590989Y-85695385D01*
X133611974Y-85454763D01*
X133636795Y-85190996D01*
X133665759Y-84900891D01*
X133699177Y-84581252D01*
X133737357Y-84228884D01*
X133780609Y-83840593D01*
X133823480Y-83463426D01*
X133860176Y-83133363D01*
X133889937Y-82844194D01*
X133912838Y-82595061D01*
X133928957Y-82385109D01*
X133938369Y-82213482D01*
X133940111Y-82161676D01*
X133943332Y-82011831D01*
X133942926Y-81898136D01*
X133937459Y-81814463D01*
X133925495Y-81754686D01*
X133905599Y-81712677D01*
X133876334Y-81682309D01*
X133836267Y-81657455D01*
X133820066Y-81649240D01*
X133792054Y-81638619D01*
X133726234Y-81615474D01*
X133624978Y-81580596D01*
X133490662Y-81534779D01*
X133325660Y-81478816D01*
X133132347Y-81413501D01*
X132913096Y-81339625D01*
X132670283Y-81257983D01*
X132406281Y-81169368D01*
X132123466Y-81074571D01*
X131824212Y-80974387D01*
X131510893Y-80869608D01*
X131185883Y-80761028D01*
X130851558Y-80649439D01*
X130510291Y-80535634D01*
X130164457Y-80420407D01*
X129816431Y-80304551D01*
X129468587Y-80188859D01*
X129123299Y-80074123D01*
X128782942Y-79961136D01*
X128449890Y-79850693D01*
X128126518Y-79743585D01*
X127815200Y-79640607D01*
X127518311Y-79542550D01*
X127238225Y-79450208D01*
X127079332Y-79397910D01*
X126875944Y-79330785D01*
X126685821Y-79267593D01*
X126512548Y-79209554D01*
X126359709Y-79157892D01*
X126230888Y-79113829D01*
X126129669Y-79078586D01*
X126059637Y-79053386D01*
X126024375Y-79039451D01*
X126020999Y-79037053D01*
X126043717Y-79031275D01*
X126105075Y-79015804D01*
X126202649Y-78991250D01*
X126334017Y-78958220D01*
X126496758Y-78917324D01*
X126688449Y-78869170D01*
X126906668Y-78814365D01*
X127148992Y-78753518D01*
X127413000Y-78687238D01*
X127696269Y-78616133D01*
X127996378Y-78540810D01*
X128310903Y-78461879D01*
X128637422Y-78379948D01*
X128740653Y-78354047D01*
X129208706Y-78236564D01*
X129638204Y-78128645D01*
X130031673Y-78029632D01*
X130391638Y-77938872D01*
X130720625Y-77855707D01*
X131021160Y-77779483D01*
X131295770Y-77709543D01*
X131546980Y-77645232D01*
X131777316Y-77585895D01*
X131989304Y-77530875D01*
X132185471Y-77479517D01*
X132368341Y-77431166D01*
X132540442Y-77385165D01*
X132704298Y-77340860D01*
X132862436Y-77297593D01*
X133017383Y-77254711D01*
X133171663Y-77211556D01*
X133327803Y-77167474D01*
X133488329Y-77121808D01*
X133492570Y-77120598D01*
X133715671Y-77056127D01*
X133916580Y-76996473D01*
X134092337Y-76942589D01*
X134239981Y-76895429D01*
X134356551Y-76855946D01*
X134439087Y-76825092D01*
X134484629Y-76803822D01*
X134490983Y-76799119D01*
X134502435Y-76769553D01*
X134519038Y-76698808D01*
X134540675Y-76587707D01*
X134567232Y-76437076D01*
X134598594Y-76247740D01*
X134634644Y-76020523D01*
X134675270Y-75756250D01*
X134720354Y-75455747D01*
X134769782Y-75119837D01*
X134823439Y-74749347D01*
X134881210Y-74345099D01*
X134942980Y-73907921D01*
X135008632Y-73438635D01*
X135078053Y-72938068D01*
X135151127Y-72407043D01*
X135227739Y-71846386D01*
X135307774Y-71256921D01*
X135391117Y-70639474D01*
X135477651Y-69994869D01*
X135567264Y-69323931D01*
X135659838Y-68627484D01*
X135755260Y-67906354D01*
X135853413Y-67161366D01*
X135954184Y-66393344D01*
X136057455Y-65603113D01*
X136106294Y-65228342D01*
X136156537Y-64842493D01*
X136210306Y-64429632D01*
X136266758Y-63996235D01*
X136325048Y-63548779D01*
X136384334Y-63093742D01*
X136443769Y-62637601D01*
X136502512Y-62186833D01*
X136559716Y-61747915D01*
X136614540Y-61327324D01*
X136666138Y-60931537D01*
X136713666Y-60567032D01*
X136742046Y-60349426D01*
X136783418Y-60032068D01*
X136824322Y-59718007D01*
X136864291Y-59410839D01*
X136902860Y-59114157D01*
X136939562Y-58831558D01*
X136973931Y-58566637D01*
X137005500Y-58322988D01*
X137033804Y-58104208D01*
X137058376Y-57913892D01*
X137078751Y-57755634D01*
X137094461Y-57633030D01*
X137102982Y-57566009D01*
X137147530Y-57216256D01*
X137194323Y-56853991D01*
X137242848Y-56482919D01*
X137292593Y-56106746D01*
X137343047Y-55729175D01*
X137393697Y-55353911D01*
X137444031Y-54984658D01*
X137493538Y-54625122D01*
X137541705Y-54279007D01*
X137588020Y-53950017D01*
X137631972Y-53641857D01*
X137673048Y-53358231D01*
X137710736Y-53102845D01*
X137744525Y-52879403D01*
X137773902Y-52691609D01*
X137791915Y-52581259D01*
X137826143Y-52379810D01*
X137855654Y-52216160D01*
X137881899Y-52086224D01*
X137906326Y-51985920D01*
X137930384Y-51911162D01*
X137955523Y-51857869D01*
X137983192Y-51821955D01*
X138014840Y-51799338D01*
X138051916Y-51785933D01*
X138075956Y-51780863D01*
X138142697Y-51779325D01*
X138195763Y-51806599D01*
D12*
G36*
X151068023Y-94305496D02*
G01*
X151562239Y-94000681D01*
X151469219Y-93993781D01*
X151374479Y-93978280D01*
X151400319Y-93871483D01*
X151429599Y-93759516D01*
X151439939Y-93776746D01*
X151507119Y-93857707D01*
X151560519Y-93942117D01*
X151581189Y-93973127D01*
X151600139Y-94004137D01*
X151581189Y-94002437D01*
X151562239Y-94000737D01*
X151562239Y-94000681D01*
X151068023Y-94305496D01*
X151099033Y-94365786D01*
X151145543Y-94419186D01*
X151204113Y-94457086D01*
X151273013Y-94474316D01*
X151304023Y-94462256D01*
X151319523Y-94451926D01*
X151329863Y-94446726D01*
X151336763Y-94441526D01*
X151357433Y-94432926D01*
X151350533Y-94410536D01*
X151352233Y-94389866D01*
X151372903Y-94367476D01*
X151383243Y-94357135D01*
X151391843Y-94346806D01*
X151421123Y-94314076D01*
X151374613Y-94302016D01*
X151317763Y-94271006D01*
X151305703Y-94207266D01*
X151364273Y-94205566D01*
X151410783Y-94217626D01*
X151474513Y-94233126D01*
X151543413Y-94238326D01*
X151569253Y-94238326D01*
X151595093Y-94234926D01*
X151612313Y-94231526D01*
X151619213Y-94210856D01*
X151626113Y-94203956D01*
X151645063Y-94181566D01*
X151648463Y-94143666D01*
X151658793Y-94112655D01*
X151674293Y-94155716D01*
X151681193Y-94172946D01*
X151698423Y-94176346D01*
X151703623Y-94184946D01*
X151705323Y-94193546D01*
X151713923Y-94222826D01*
X151720823Y-94229726D01*
X151727723Y-94234926D01*
X151736323Y-94265936D01*
X151746663Y-94295216D01*
X151762163Y-94340006D01*
X151765563Y-94381346D01*
X151772463Y-94400296D01*
X151791413Y-94417526D01*
X151812083Y-94427856D01*
X151822423Y-94434756D01*
X151831023Y-94438156D01*
X151836223Y-94457106D01*
X151856893Y-94460506D01*
X151884453Y-94465706D01*
X151901683Y-94467406D01*
X151918913Y-94465706D01*
X151948193Y-94441586D01*
X151972313Y-94422636D01*
X151989533Y-94391626D01*
X151992933Y-94372675D01*
X151996333Y-94355446D01*
X152001533Y-94345116D01*
X152023923Y-94324446D01*
X152004973Y-94308946D01*
X152003273Y-94279666D01*
X151930923Y-94110857D01*
X151849963Y-93945492D01*
X151824123Y-93890372D01*
X151796563Y-93835251D01*
X151798263Y-93823191D01*
X151794863Y-93807691D01*
X151763853Y-93756011D01*
X151739733Y-93707781D01*
X151712173Y-93650941D01*
X151674273Y-93594102D01*
X151646713Y-93582041D01*
X151634653Y-93578641D01*
X151619153Y-93575241D01*
X151593313Y-93578641D01*
X151508913Y-93516631D01*
X151434843Y-93418441D01*
X151417613Y-93394331D01*
X151395223Y-93408111D01*
X151371103Y-93418441D01*
X151338373Y-93427041D01*
X151279803Y-93442541D01*
X151235013Y-93468381D01*
X151222953Y-93509721D01*
X151217753Y-93537281D01*
X151209153Y-93595851D01*
X151202253Y-93661311D01*
X151188473Y-93719881D01*
X151176413Y-93776721D01*
X151159183Y-93857682D01*
X151136793Y-93930032D01*
X151119563Y-93931732D01*
X151102343Y-93926532D01*
X151079953Y-93923132D01*
X151061003Y-93921432D01*
X151054103Y-93938662D01*
X151036873Y-93955892D01*
X151004143Y-93966232D01*
X150985193Y-93981732D01*
X150971413Y-93992072D01*
X150945573Y-94002402D01*
X150959353Y-94028242D01*
X151009303Y-94088532D01*
X151079923Y-94135042D01*
X151078223Y-94155712D01*
X151073023Y-94174662D01*
X151064423Y-94234952D01*
X151064423Y-94298682D01*
X151068023Y-94305496D01*
X151068023Y-94305496D01*
G37*
G36*
X151996324Y-94151824D02*
G01*
X152104845Y-94267235D01*
X152252984Y-94334415D01*
X152423516Y-94380925D01*
X152594049Y-94434325D01*
X152637109Y-94436025D01*
X152671559Y-94441225D01*
X152702569Y-94446425D01*
X152737019Y-94449825D01*
X152745619Y-94453225D01*
X152750819Y-94460125D01*
X152804219Y-94465325D01*
X152842119Y-94465325D01*
X152885179Y-94470525D01*
X152923079Y-94475725D01*
X153126340Y-94384425D01*
X153207300Y-94146713D01*
X153210700Y-94136383D01*
X153217600Y-94131183D01*
X153214200Y-94101903D01*
X153212500Y-94070893D01*
X153110870Y-93895193D01*
X152974789Y-93750498D01*
X152954119Y-93729828D01*
X152938619Y-93709158D01*
X152919669Y-93691928D01*
X152893829Y-93679868D01*
X152807699Y-93604078D01*
X152702624Y-93538618D01*
X152594104Y-93474888D01*
X152494194Y-93402538D01*
X152466634Y-93407738D01*
X152447684Y-93407738D01*
X152414954Y-93443908D01*
X152371894Y-93466298D01*
X152330554Y-93492138D01*
X152301274Y-93533478D01*
X152311614Y-93542078D01*
X152306414Y-93557578D01*
X152304714Y-93573078D01*
X152316774Y-93579978D01*
X152306444Y-93590318D01*
X152296104Y-93598918D01*
X152301304Y-93612698D01*
X152301304Y-93629928D01*
X152378824Y-93672988D01*
X152466674Y-93717778D01*
X152561414Y-93767728D01*
X152656154Y-93828018D01*
X152750894Y-93905539D01*
X152843914Y-93993389D01*
X152928324Y-94089849D01*
X152995504Y-94186309D01*
X152988604Y-94200089D01*
X152980004Y-94212149D01*
X152878374Y-94212149D01*
X152781914Y-94217349D01*
X152775014Y-94207009D01*
X152766414Y-94196669D01*
X152583824Y-94165659D01*
X152411569Y-94119149D01*
X152437409Y-94110549D01*
X152458079Y-94101949D01*
X152458079Y-94088169D01*
X152440849Y-94074389D01*
X152480469Y-94039939D01*
X152497699Y-93984819D01*
X152487369Y-93964149D01*
X152497699Y-93945199D01*
X152506299Y-93945199D01*
X152509699Y-93950399D01*
X152511399Y-93957299D01*
X152519999Y-93955599D01*
X152513099Y-93929759D01*
X152502759Y-93905649D01*
X152383904Y-93826408D01*
X152337394Y-93857419D01*
X152280554Y-93890149D01*
X152218544Y-93922879D01*
X152158254Y-93953889D01*
X152115194Y-93981449D01*
X152079024Y-94017619D01*
X152044574Y-94052069D01*
X152001514Y-94081349D01*
X151999814Y-94117519D01*
X151996414Y-94151969D01*
X151996324Y-94151824D01*
X151996324Y-94151824D01*
G37*
G36*
X153333022Y-94317189D02*
G01*
X153830838Y-94019188D01*
X153737818Y-94012288D01*
X153643078Y-93996788D01*
X153668918Y-93889990D01*
X153698198Y-93778023D01*
X153708528Y-93795253D01*
X153775708Y-93876214D01*
X153829108Y-93960624D01*
X153849778Y-93991634D01*
X153868728Y-94022644D01*
X153849778Y-94020944D01*
X153830828Y-94019244D01*
X153830838Y-94019188D01*
X153333022Y-94317189D01*
X153364032Y-94377479D01*
X153410542Y-94430879D01*
X153469112Y-94468779D01*
X153538012Y-94486009D01*
X153569022Y-94473949D01*
X153584522Y-94463619D01*
X153594862Y-94458419D01*
X153601762Y-94453219D01*
X153622432Y-94444619D01*
X153615532Y-94422229D01*
X153617232Y-94401559D01*
X153637902Y-94379169D01*
X153648242Y-94368829D01*
X153656842Y-94358498D01*
X153686122Y-94325769D01*
X153639612Y-94313709D01*
X153582762Y-94282699D01*
X153570702Y-94218959D01*
X153629272Y-94217259D01*
X153675782Y-94229319D01*
X153739512Y-94244819D01*
X153808412Y-94250019D01*
X153834252Y-94250019D01*
X153860092Y-94246619D01*
X153877312Y-94243219D01*
X153884212Y-94222549D01*
X153891112Y-94215649D01*
X153910062Y-94193259D01*
X153913462Y-94155359D01*
X153923792Y-94124349D01*
X153939292Y-94167409D01*
X153946192Y-94184639D01*
X153963422Y-94188039D01*
X153968622Y-94196639D01*
X153970322Y-94205239D01*
X153978922Y-94234519D01*
X153985822Y-94241419D01*
X153992722Y-94246619D01*
X154001322Y-94277629D01*
X154011662Y-94306909D01*
X154027162Y-94351699D01*
X154030562Y-94393039D01*
X154037462Y-94411989D01*
X154056412Y-94429219D01*
X154077082Y-94439549D01*
X154087422Y-94446449D01*
X154096022Y-94449849D01*
X154101222Y-94468799D01*
X154121892Y-94472199D01*
X154149452Y-94477399D01*
X154166682Y-94479099D01*
X154183912Y-94477399D01*
X154213192Y-94453279D01*
X154237312Y-94434329D01*
X154254532Y-94403319D01*
X154257932Y-94384369D01*
X154261332Y-94367139D01*
X154266532Y-94356809D01*
X154288922Y-94336139D01*
X154269972Y-94320639D01*
X154268272Y-94291359D01*
X154195922Y-94122550D01*
X154114962Y-93957185D01*
X154089122Y-93902065D01*
X154061562Y-93846944D01*
X154063262Y-93834884D01*
X154059862Y-93819384D01*
X154028852Y-93767704D01*
X154004732Y-93719474D01*
X153977172Y-93662634D01*
X153939272Y-93605794D01*
X153911712Y-93593735D01*
X153899652Y-93590334D01*
X153884152Y-93586934D01*
X153858312Y-93590334D01*
X153773912Y-93528324D01*
X153699842Y-93430134D01*
X153682612Y-93406024D01*
X153660222Y-93419804D01*
X153636102Y-93430134D01*
X153603372Y-93438734D01*
X153544802Y-93454234D01*
X153500012Y-93480074D01*
X153487952Y-93521414D01*
X153482752Y-93548974D01*
X153474152Y-93607544D01*
X153467252Y-93673004D01*
X153453472Y-93731574D01*
X153441412Y-93788414D01*
X153424192Y-93869375D01*
X153401802Y-93941725D01*
X153384572Y-93943425D01*
X153367352Y-93938225D01*
X153344962Y-93934825D01*
X153326012Y-93933125D01*
X153319112Y-93950355D01*
X153301882Y-93967585D01*
X153269152Y-93977925D01*
X153250202Y-93993425D01*
X153236422Y-94003765D01*
X153210582Y-94014095D01*
X153224362Y-94039935D01*
X153274312Y-94100225D01*
X153344932Y-94146735D01*
X153343232Y-94167405D01*
X153338032Y-94186355D01*
X153329432Y-94246645D01*
X153329432Y-94310375D01*
X153333022Y-94317189D01*
X153333022Y-94317189D01*
G37*
G36*
X154886760Y-94148379D02*
G01*
X154909150Y-94167329D01*
X154922930Y-94196609D01*
X154934990Y-94225889D01*
X154952220Y-94237949D01*
X154962550Y-94262069D01*
X154976330Y-94284459D01*
X154986660Y-94308579D01*
X154983260Y-94337859D01*
X155000480Y-94367139D01*
X155009080Y-94403309D01*
X155022860Y-94432589D01*
X155060760Y-94442929D01*
X155062460Y-94451529D01*
X155057260Y-94463589D01*
X155086540Y-94465289D01*
X155108930Y-94473889D01*
X155164050Y-94437719D01*
X155201950Y-94380879D01*
X155231230Y-94315419D01*
X155255350Y-94258579D01*
X155253650Y-94222409D01*
X155265710Y-94191399D01*
X155244370Y-94146239D01*
X155222540Y-94100319D01*
X155200230Y-94053649D01*
X155177430Y-94006229D01*
X155154150Y-93958049D01*
X155130380Y-93909119D01*
X155106130Y-93859429D01*
X155081390Y-93808988D01*
X155056570Y-93758248D01*
X155032080Y-93707678D01*
X155007910Y-93657268D01*
X154984060Y-93607018D01*
X154960540Y-93556928D01*
X154937340Y-93506998D01*
X154914460Y-93457228D01*
X154891910Y-93407628D01*
X154814400Y-93443798D01*
X154743780Y-93488588D01*
X154688660Y-93548878D01*
X154659380Y-93622948D01*
X154667980Y-93631548D01*
X154674880Y-93633248D01*
X154667980Y-93645308D01*
X154667980Y-93652208D01*
X154667980Y-93662548D01*
X154662780Y-93678048D01*
X154673110Y-93679748D01*
X154683450Y-93679748D01*
X154680050Y-93710758D01*
X154686950Y-93733148D01*
X154695550Y-93753818D01*
X154693850Y-93781378D01*
X154702450Y-93784778D01*
X154705850Y-93789979D01*
X154711050Y-93795178D01*
X154717950Y-93795178D01*
X154714550Y-93870969D01*
X154717950Y-93948479D01*
X154716250Y-94029439D01*
X154704190Y-94115569D01*
X154606010Y-94022549D01*
X154545720Y-93895080D01*
X154509550Y-93743495D01*
X154483710Y-93578130D01*
X154459590Y-93540230D01*
X154444090Y-93493720D01*
X154430310Y-93443770D01*
X154413080Y-93397260D01*
X154370020Y-93414490D01*
X154335570Y-93442050D01*
X154302840Y-93469610D01*
X154259780Y-93485110D01*
X154221880Y-93541950D01*
X154199490Y-93600520D01*
X154213270Y-93631530D01*
X154221870Y-93665980D01*
X154235650Y-93698710D01*
X154259770Y-93722830D01*
X154273550Y-93805510D01*
X154289050Y-93877861D01*
X154301110Y-93953651D01*
X154304510Y-94038051D01*
X154333790Y-94122451D01*
X154357910Y-94203411D01*
X154400970Y-94256811D01*
X154433700Y-94318821D01*
X154442300Y-94322221D01*
X154454360Y-94317021D01*
X154454360Y-94327361D01*
X154459560Y-94334261D01*
X154462960Y-94341161D01*
X154459560Y-94354941D01*
X154502620Y-94384221D01*
X154543960Y-94418671D01*
X154595640Y-94439341D01*
X154673150Y-94427281D01*
X154798896Y-94308425D01*
X154886746Y-94148228D01*
X154886760Y-94148379D01*
X154886760Y-94148379D01*
G37*
G36*
X155394912Y-94010575D02*
G01*
X155415582Y-94036415D01*
X155432812Y-94065695D01*
X155451762Y-94101865D01*
X155477602Y-94132875D01*
X155494832Y-94174215D01*
X155522392Y-94206945D01*
X155603352Y-94356807D01*
X155613692Y-94387817D01*
X155629192Y-94415377D01*
X155636092Y-94427437D01*
X155641292Y-94436037D01*
X155644692Y-94453267D01*
X155663642Y-94477387D01*
X155682592Y-94496337D01*
X155694652Y-94510117D01*
X155720492Y-94520447D01*
X155873798Y-94386089D01*
X155872098Y-94368859D01*
X155866898Y-94351639D01*
X155859998Y-94330969D01*
X155844498Y-94282739D01*
X155815218Y-94239679D01*
X155799718Y-94201779D01*
X155758378Y-94120819D01*
X155720478Y-94055359D01*
X155698088Y-94017459D01*
X155739428Y-93967509D01*
X155779048Y-93884829D01*
X155803168Y-93814208D01*
X155808368Y-93776308D01*
X155815268Y-93743578D01*
X155823868Y-93705678D01*
X155827268Y-93666058D01*
X155837598Y-93641938D01*
X155834198Y-93624708D01*
X155832498Y-93593698D01*
X155841098Y-93552358D01*
X155849698Y-93514458D01*
X155851398Y-93473118D01*
X155841058Y-93435218D01*
X155808328Y-93402488D01*
X155779048Y-93400788D01*
X155749768Y-93418018D01*
X155720488Y-93433518D01*
X155684318Y-93450748D01*
X155648148Y-93473138D01*
X155636088Y-93497258D01*
X155613698Y-93516208D01*
X155613698Y-93535158D01*
X155611998Y-93554108D01*
X155605098Y-93581668D01*
X155598198Y-93602339D01*
X155592998Y-93648848D01*
X155582668Y-93688468D01*
X155572338Y-93728088D01*
X155570638Y-93772878D01*
X155553408Y-93760818D01*
X155546508Y-93755618D01*
X155539608Y-93750418D01*
X155437978Y-93612614D01*
X155441378Y-93595384D01*
X155405208Y-93560934D01*
X155379368Y-93535094D01*
X155356978Y-93509254D01*
X155338028Y-93495474D01*
X155181276Y-93388676D01*
X155157156Y-93385276D01*
X155150256Y-93407666D01*
X155122696Y-93442116D01*
X155076186Y-93471396D01*
X155060686Y-93481736D01*
X155052086Y-93507576D01*
X155053786Y-93523076D01*
X155046886Y-93540306D01*
X155081336Y-93600596D01*
X155119236Y-93635046D01*
X155148516Y-93660886D01*
X155167466Y-93688446D01*
X155179526Y-93702226D01*
X155226036Y-93757346D01*
X155231236Y-93778016D01*
X155251906Y-93778016D01*
X155260506Y-93784916D01*
X155277736Y-93814196D01*
X155294956Y-93836586D01*
X155303556Y-93845187D01*
X155308756Y-93858967D01*
X155313956Y-93872747D01*
X155341516Y-93907197D01*
X155353576Y-93931317D01*
X155367356Y-93958877D01*
X155386306Y-93984717D01*
X155394912Y-94010575D01*
X155394912Y-94010575D01*
G37*
G36*
X155904786Y-93492087D02*
G01*
X155904786Y-93511037D01*
X155906486Y-93521367D01*
X155906486Y-93533427D01*
X155903086Y-93550657D01*
X155987496Y-93631617D01*
X156089126Y-93662627D01*
X156202814Y-93681577D01*
X156316502Y-93726367D01*
X156357842Y-93726367D01*
X156409522Y-93731567D01*
X156435362Y-93747067D01*
X156466372Y-93755667D01*
X156461172Y-93788398D01*
X156455972Y-93814237D01*
X156323335Y-93812537D01*
X156178641Y-93803937D01*
X156180341Y-93815997D01*
X156182041Y-93824597D01*
X156157921Y-93846987D01*
X156133801Y-93871108D01*
X156109681Y-93891778D01*
X156078671Y-93896978D01*
X156070071Y-93927988D01*
X156073471Y-93960718D01*
X156128591Y-94000338D01*
X156187161Y-94034788D01*
X156250891Y-94060628D01*
X156324961Y-94067528D01*
X156338741Y-94067528D01*
X156349081Y-94062328D01*
X156388701Y-94067528D01*
X156426601Y-94072728D01*
X156473111Y-94065828D01*
X156519621Y-94058928D01*
X156569571Y-94136438D01*
X156609191Y-94224288D01*
X156512731Y-94231188D01*
X156438661Y-94225988D01*
X156368041Y-94217388D01*
X156276741Y-94213988D01*
X156195781Y-94189868D01*
X156107931Y-94169198D01*
X156083811Y-94188148D01*
X156064861Y-94212268D01*
X156044191Y-94231218D01*
X156018351Y-94238118D01*
X156009751Y-94255348D01*
X156004551Y-94272568D01*
X155999351Y-94288068D01*
X155983851Y-94291468D01*
X156044141Y-94379318D01*
X156119931Y-94424108D01*
X156216391Y-94448218D01*
X156331802Y-94468888D01*
X156357642Y-94467188D01*
X156381762Y-94463788D01*
X156476502Y-94479288D01*
X156588468Y-94484488D01*
X156696988Y-94468988D01*
X156781388Y-94424198D01*
X156800338Y-94396638D01*
X156822728Y-94370798D01*
X156829628Y-94320848D01*
X156839958Y-94264008D01*
X156848558Y-94203718D01*
X156845158Y-94150318D01*
X156824488Y-94103808D01*
X156812428Y-94059018D01*
X156802088Y-94050418D01*
X156788308Y-94043518D01*
X156765918Y-93984948D01*
X156741798Y-93931548D01*
X156715958Y-93879868D01*
X156690118Y-93819577D01*
X156726288Y-93771347D01*
X156741788Y-93717947D01*
X156750388Y-93662827D01*
X156762448Y-93604257D01*
X156721108Y-93562917D01*
X156665988Y-93535357D01*
X156602248Y-93518127D01*
X156529898Y-93502627D01*
X156407597Y-93468177D01*
X156300799Y-93449227D01*
X156190556Y-93433727D01*
X156061365Y-93413057D01*
X156032085Y-93428557D01*
X156016585Y-93419957D01*
X156007985Y-93409627D01*
X155964925Y-93459577D01*
X155904635Y-93492307D01*
X155904786Y-93492087D01*
X155904786Y-93492087D01*
G37*
G36*
X157958064Y-94313743D02*
G01*
X157534493Y-93704105D01*
X157563773Y-93783345D01*
X157412189Y-93743725D01*
X157262327Y-93681715D01*
X157307117Y-93580085D01*
X157382907Y-93526685D01*
X157382913Y-93526685D01*
X157432863Y-93586975D01*
X157487983Y-93642095D01*
X157534493Y-93704105D01*
X157958064Y-94313743D01*
X157973564Y-94301683D01*
X157989064Y-94272403D01*
X157970114Y-94272403D01*
X157977014Y-94203503D01*
X157961514Y-94141493D01*
X157947734Y-94082923D01*
X157952934Y-94022633D01*
X157940874Y-94019233D01*
X157933974Y-93995113D01*
X157932274Y-93964103D01*
X157933974Y-93936543D01*
X157899524Y-93826299D01*
X157875404Y-93714334D01*
X157853014Y-93605813D01*
X157818564Y-93505903D01*
X157768614Y-93512803D01*
X157732444Y-93535193D01*
X157637704Y-93435283D01*
X157555024Y-93321595D01*
X157458564Y-93221685D01*
X157325927Y-93170005D01*
X157232907Y-93233735D01*
X157148497Y-93316415D01*
X157122657Y-93335365D01*
X157095097Y-93352595D01*
X157095097Y-93378435D01*
X157055477Y-93431835D01*
X157026197Y-93495565D01*
X157000357Y-93562745D01*
X156972797Y-93626475D01*
X156976197Y-93645425D01*
X156972797Y-93660925D01*
X156967597Y-93678145D01*
X156965897Y-93700535D01*
X157026187Y-93848674D01*
X157153656Y-93939975D01*
X157312130Y-94000265D01*
X157465437Y-94053665D01*
X157458537Y-94060565D01*
X157453337Y-94070895D01*
X157374097Y-94120845D01*
X157320697Y-94153575D01*
X157265577Y-94174245D01*
X157181167Y-94194915D01*
X157098487Y-94215585D01*
X157043367Y-94227645D01*
X156991687Y-94234545D01*
X156917617Y-94243145D01*
X156886607Y-94287935D01*
X156869377Y-94339615D01*
X156867677Y-94389565D01*
X156881457Y-94425735D01*
X156872857Y-94432635D01*
X156855637Y-94432635D01*
X156876307Y-94453305D01*
X156893537Y-94477425D01*
X156914207Y-94499815D01*
X156941767Y-94511875D01*
X157100242Y-94513575D01*
X157346566Y-94434335D01*
X157467144Y-94384385D01*
X157548104Y-94341325D01*
X157611834Y-94294815D01*
X157679014Y-94234525D01*
X157685914Y-94241425D01*
X157691114Y-94248325D01*
X157718674Y-94360289D01*
X157770354Y-94448140D01*
X157808254Y-94453340D01*
X157830644Y-94472290D01*
X157856484Y-94470590D01*
X157871984Y-94461990D01*
X157887484Y-94451650D01*
X157915044Y-94448250D01*
X157925384Y-94418970D01*
X157952944Y-94405190D01*
X157949544Y-94379350D01*
X157954744Y-94358679D01*
X157961644Y-94338010D01*
X157958244Y-94313890D01*
X157958064Y-94313743D01*
X157958064Y-94313743D01*
G37*
G36*
X159493199Y-94045371D02*
G01*
X159487999Y-94010921D01*
X159486299Y-93971301D01*
X159365720Y-93761149D01*
X159202078Y-93588894D01*
X159177968Y-93564774D01*
X159159018Y-93538934D01*
X159136628Y-93518264D01*
X159105618Y-93504484D01*
X159002266Y-93413184D01*
X158876520Y-93333944D01*
X158745606Y-93256434D01*
X158625028Y-93170304D01*
X158595748Y-93178904D01*
X158571628Y-93177204D01*
X158532008Y-93223714D01*
X158480328Y-93249554D01*
X158430378Y-93280564D01*
X158394208Y-93328794D01*
X158406268Y-93337394D01*
X158401068Y-93356344D01*
X158397668Y-93375294D01*
X158413168Y-93383894D01*
X158401108Y-93395954D01*
X158389048Y-93408014D01*
X158394248Y-93425234D01*
X158394248Y-93444184D01*
X158487268Y-93497584D01*
X158594066Y-93549264D01*
X158707754Y-93609554D01*
X158821442Y-93681904D01*
X158936853Y-93773204D01*
X159047096Y-93880003D01*
X159147006Y-93995414D01*
X159226246Y-94110825D01*
X159217646Y-94126325D01*
X159207316Y-94141825D01*
X159085015Y-94141825D01*
X158971327Y-94148725D01*
X158962727Y-94134945D01*
X158952387Y-94122885D01*
X158733623Y-94084985D01*
X158526917Y-94029865D01*
X158582037Y-94010915D01*
X158582037Y-93993685D01*
X158563087Y-93976465D01*
X158609597Y-93935125D01*
X158630267Y-93867945D01*
X158618207Y-93843834D01*
X158630267Y-93821444D01*
X158640607Y-93821444D01*
X158644007Y-93828344D01*
X158647407Y-93835244D01*
X158656007Y-93835244D01*
X158647407Y-93804234D01*
X158637067Y-93774954D01*
X158494096Y-93680214D01*
X158438976Y-93716384D01*
X158370076Y-93754284D01*
X158296006Y-93793904D01*
X158225386Y-93831804D01*
X158171986Y-93866255D01*
X158128926Y-93907595D01*
X158087586Y-93948935D01*
X158037636Y-93983384D01*
X158034236Y-94028175D01*
X158030836Y-94069515D01*
X158110076Y-94169425D01*
X158215151Y-94238325D01*
X158337452Y-94288275D01*
X158471811Y-94326175D01*
X158611337Y-94364075D01*
X158747418Y-94408865D01*
X158797368Y-94410565D01*
X158836988Y-94415765D01*
X158874888Y-94422665D01*
X158916228Y-94427865D01*
X158928288Y-94431265D01*
X158935188Y-94439865D01*
X158997198Y-94445065D01*
X159043708Y-94445065D01*
X159093658Y-94451965D01*
X159141888Y-94457165D01*
X159384767Y-94346922D01*
X159481227Y-94062701D01*
X159484627Y-94052371D01*
X159493227Y-94045471D01*
X159493199Y-94045371D01*
X159493199Y-94045371D01*
G37*
<<<<<<< HEAD
D13*
X124561600Y-98526600D03*
D14*
X116941600Y-98526600D03*
X132181600Y-98526600D03*
D12*
=======
X129767263Y-83144026D02*
X129769411Y-83317230D01*
X129771368Y-83519299D01*
X129773137Y-83747635D01*
X129774719Y-83999635D01*
X129776117Y-84272699D01*
X129777332Y-84564226D01*
X129778368Y-84871615D01*
X129779225Y-85192265D01*
X129779907Y-85523574D01*
X129780414Y-85862942D01*
X129780750Y-86207769D01*
X129780917Y-86555452D01*
X129780916Y-86903391D01*
X129780750Y-87248984D01*
X129780420Y-87589632D01*
X129779930Y-87922733D01*
X129779280Y-88245685D01*
X129778474Y-88555889D01*
X129777513Y-88850743D01*
X129776399Y-89127645D01*
X129775135Y-89383996D01*
X129773722Y-89617194D01*
X129772163Y-89824637D01*
X129770460Y-90003726D01*
X129768615Y-90151859D01*
X129766630Y-90266435D01*
X129764507Y-90344853D01*
X129762249Y-90384512D01*
X129761369Y-90388858D01*
X129752275Y-90394446D01*
X129731597Y-90399727D01*
X129698339Y-90404705D01*
X129651506Y-90409385D01*
X129590101Y-90413772D01*
X129513130Y-90417869D01*
X129419596Y-90421681D01*
X129308504Y-90425213D01*
X129178858Y-90428469D01*
X129029663Y-90431454D01*
X128859923Y-90434172D01*
X128668641Y-90436628D01*
X128454824Y-90438825D01*
X128217474Y-90440770D01*
X127955597Y-90442465D01*
X127668196Y-90443916D01*
X127354276Y-90445127D01*
X127012842Y-90446102D01*
X126642896Y-90446846D01*
X126243445Y-90447364D01*
X125813492Y-90447659D01*
X125352042Y-90447737D01*
X124858098Y-90447602D01*
X124330666Y-90447258D01*
X123768750Y-90446710D01*
X123171353Y-90445963D01*
X122537480Y-90445020D01*
X121866137Y-90443886D01*
X121156326Y-90442566D01*
X120407052Y-90441064D01*
X119617320Y-90439385D01*
X118885758Y-90437759D01*
X116467467Y-90432287D01*
X116467467Y-90140595D01*
X116869633Y-90140595D01*
X122928592Y-90127569D01*
X123434445Y-90126428D01*
X123930352Y-90125206D01*
X124414571Y-90123910D01*
X124885360Y-90122548D01*
X125340977Y-90121128D01*
X125779679Y-90119659D01*
X126199727Y-90118147D01*
X126599376Y-90116602D01*
X126976886Y-90115032D01*
X127330514Y-90113443D01*
X127658520Y-90111845D01*
X127959160Y-90110246D01*
X128230693Y-90108652D01*
X128471377Y-90107073D01*
X128679470Y-90105516D01*
X128853230Y-90103990D01*
X128990916Y-90102502D01*
X129090786Y-90101060D01*
X129151097Y-90099673D01*
X129167467Y-90098879D01*
X129347383Y-90083217D01*
X129352733Y-86289092D01*
X129358082Y-82494967D01*
X116897799Y-82494967D01*
X116883725Y-85114342D01*
X116881860Y-85472082D01*
X116880067Y-85836637D01*
X116878363Y-86203637D01*
X116876762Y-86568713D01*
X116875283Y-86927494D01*
X116873939Y-87275612D01*
X116872749Y-87608696D01*
X116871727Y-87922379D01*
X116870891Y-88212289D01*
X116870255Y-88474058D01*
X116869836Y-88703315D01*
X116869651Y-88895693D01*
X116869643Y-88937156D01*
X116869633Y-90140595D01*
X116467467Y-90140595D01*
X116467467Y-82156300D01*
X129753227Y-82156300D01*
X129767263Y-83144026D01*
%LPC*%
G36*
X151104201Y-82486220D02*
G01*
X151232718Y-82532549D01*
X151347497Y-82609712D01*
X151442009Y-82716304D01*
X151504182Y-82835812D01*
X151530092Y-82948746D01*
X151532519Y-83076415D01*
X151512434Y-83200427D01*
X151480463Y-83285307D01*
X151436518Y-83369619D01*
X151753899Y-83873771D01*
X151849939Y-84025463D01*
X151926420Y-84144054D01*
X151985621Y-84232706D01*
X152029822Y-84294585D01*
X152061302Y-84332855D01*
X152082339Y-84350678D01*
X152095214Y-84351221D01*
X152096787Y-84349787D01*
X152113113Y-84326173D01*
X152149129Y-84270438D01*
X152202361Y-84186525D01*
X152270334Y-84078379D01*
X152350572Y-83949944D01*
X152440599Y-83805166D01*
X152537941Y-83647987D01*
X152582692Y-83575525D01*
X153043090Y-82829400D01*
X154057162Y-82829400D01*
X154259830Y-82829619D01*
X154448997Y-82830248D01*
X154620568Y-82831242D01*
X154770450Y-82832557D01*
X154894547Y-82834151D01*
X154988767Y-82835979D01*
X155049014Y-82837996D01*
X155071196Y-82840160D01*
X155071233Y-82840254D01*
X155059697Y-82859078D01*
X155026259Y-82910378D01*
X154972675Y-82991526D01*
X154900700Y-83099892D01*
X154812090Y-83232847D01*
X154708600Y-83387761D01*
X154591987Y-83562005D01*
X154464004Y-83752950D01*
X154326409Y-83957966D01*
X154180957Y-84174424D01*
X154108700Y-84281861D01*
X153146167Y-85712612D01*
X153280774Y-85906131D01*
X153320059Y-85962815D01*
X153380306Y-86050018D01*
X153458505Y-86163371D01*
X153551643Y-86298503D01*
X153656709Y-86451042D01*
X153770693Y-86616619D01*
X153890581Y-86790862D01*
X154012045Y-86967483D01*
X154608710Y-87835317D01*
X154771222Y-87847933D01*
X154896329Y-87864284D01*
X154993918Y-87895017D01*
X155077957Y-87946082D01*
X155147427Y-88008171D01*
X155234414Y-88117401D01*
X155285032Y-88238440D01*
X155302994Y-88380539D01*
X155303137Y-88396233D01*
X155283786Y-88552170D01*
X155227586Y-88691096D01*
X155137317Y-88808344D01*
X155015759Y-88899245D01*
X154997772Y-88908900D01*
X154904220Y-88941269D01*
X154790107Y-88958272D01*
X154674865Y-88958419D01*
X154580006Y-88940922D01*
X154442880Y-88874681D01*
X154332481Y-88779437D01*
X154251747Y-88661204D01*
X154203615Y-88525994D01*
X154191023Y-88379821D01*
X154193260Y-88366758D01*
X154504200Y-88366758D01*
X154508750Y-88462092D01*
X154531749Y-88523748D01*
X154590041Y-88594534D01*
X154670099Y-88637113D01*
X154760184Y-88649155D01*
X154848559Y-88628329D01*
X154898863Y-88596624D01*
X154963879Y-88519824D01*
X154993713Y-88435406D01*
X154992079Y-88350695D01*
X154962690Y-88273016D01*
X154909259Y-88209693D01*
X154835499Y-88168050D01*
X154745123Y-88155412D01*
X154680498Y-88165867D01*
X154593912Y-88209412D01*
X154533867Y-88279453D01*
X154504200Y-88366758D01*
X154193260Y-88366758D01*
X154216909Y-88228699D01*
X154222932Y-88209952D01*
X154243852Y-88138226D01*
X154254519Y-88080777D01*
X154252909Y-88051202D01*
X154238592Y-88029808D01*
X154202311Y-87976497D01*
X154146092Y-87894227D01*
X154071966Y-87785958D01*
X153981961Y-87654649D01*
X153878105Y-87503260D01*
X153762429Y-87334750D01*
X153636959Y-87152078D01*
X153503726Y-86958203D01*
X153446634Y-86875155D01*
X153306346Y-86670433D01*
X153175250Y-86477806D01*
X153055158Y-86300012D01*
X152947879Y-86139789D01*
X152855225Y-85999876D01*
X152779005Y-85883011D01*
X152721029Y-85791933D01*
X152683108Y-85729382D01*
X152667053Y-85698094D01*
X152666710Y-85695339D01*
X152680158Y-85673257D01*
X152715334Y-85619028D01*
X152770280Y-85535590D01*
X152843036Y-85425883D01*
X152931644Y-85292845D01*
X153034145Y-85139414D01*
X153148579Y-84968529D01*
X153272988Y-84783129D01*
X153405412Y-84586153D01*
X153482982Y-84470932D01*
X153618691Y-84269289D01*
X153747214Y-84078006D01*
X153866628Y-83899963D01*
X153975011Y-83738043D01*
X154070438Y-83595128D01*
X154150988Y-83474100D01*
X154214738Y-83377842D01*
X154259764Y-83309235D01*
X154284144Y-83271162D01*
X154288067Y-83264205D01*
X154267859Y-83261060D01*
X154211074Y-83258320D01*
X154123466Y-83256103D01*
X154010788Y-83254527D01*
X153878795Y-83253710D01*
X153774775Y-83253660D01*
X153261483Y-83254586D01*
X152680030Y-84197208D01*
X152568304Y-84378092D01*
X152463148Y-84547876D01*
X152366672Y-84703185D01*
X152280987Y-84840641D01*
X152208204Y-84956870D01*
X152150435Y-85048495D01*
X152109789Y-85112139D01*
X152088378Y-85144426D01*
X152085689Y-85147795D01*
X152072099Y-85132152D01*
X152038430Y-85084194D01*
X151987029Y-85007513D01*
X151920238Y-84905702D01*
X151840403Y-84782353D01*
X151749868Y-84641058D01*
X151650977Y-84485410D01*
X151580393Y-84373580D01*
X151087984Y-83591400D01*
X150968233Y-83591193D01*
X150823339Y-83572316D01*
X150696877Y-83520077D01*
X150591184Y-83440264D01*
X150508597Y-83338669D01*
X150451451Y-83221084D01*
X150422085Y-83093297D01*
X150422154Y-83081085D01*
X150734658Y-83081085D01*
X150745964Y-83129165D01*
X150776951Y-83175687D01*
X150784461Y-83184753D01*
X150846817Y-83238619D01*
X150920449Y-83273395D01*
X150989694Y-83282441D01*
X151007233Y-83279156D01*
X151050387Y-83265022D01*
X151096160Y-83248609D01*
X151165394Y-83202034D01*
X151211064Y-83129561D01*
X151228572Y-83043138D01*
X151213321Y-82954714D01*
X151211240Y-82949549D01*
X151156359Y-82864538D01*
X151080504Y-82808961D01*
X150992847Y-82785198D01*
X150902558Y-82795630D01*
X150818809Y-82842636D01*
X150814348Y-82846532D01*
X150769501Y-82896233D01*
X150746256Y-82953623D01*
X150737653Y-83011535D01*
X150734658Y-83081085D01*
X150422154Y-83081085D01*
X150422833Y-82961100D01*
X150456032Y-82830284D01*
X150524020Y-82706639D01*
X150583383Y-82637401D01*
X150701538Y-82546317D01*
X150832080Y-82491697D01*
X150968478Y-82472134D01*
X151104201Y-82486220D01*
X151104201Y-82486220D01*
G37*
X151104201Y-82486220D02*
X151232718Y-82532549D01*
X151347497Y-82609712D01*
X151442009Y-82716304D01*
X151504182Y-82835812D01*
X151530092Y-82948746D01*
X151532519Y-83076415D01*
X151512434Y-83200427D01*
X151480463Y-83285307D01*
X151436518Y-83369619D01*
X151753899Y-83873771D01*
X151849939Y-84025463D01*
X151926420Y-84144054D01*
X151985621Y-84232706D01*
X152029822Y-84294585D01*
X152061302Y-84332855D01*
X152082339Y-84350678D01*
X152095214Y-84351221D01*
X152096787Y-84349787D01*
X152113113Y-84326173D01*
X152149129Y-84270438D01*
X152202361Y-84186525D01*
X152270334Y-84078379D01*
X152350572Y-83949944D01*
X152440599Y-83805166D01*
X152537941Y-83647987D01*
X152582692Y-83575525D01*
X153043090Y-82829400D01*
X154057162Y-82829400D01*
X154259830Y-82829619D01*
X154448997Y-82830248D01*
X154620568Y-82831242D01*
X154770450Y-82832557D01*
X154894547Y-82834151D01*
X154988767Y-82835979D01*
X155049014Y-82837996D01*
X155071196Y-82840160D01*
X155071233Y-82840254D01*
X155059697Y-82859078D01*
X155026259Y-82910378D01*
X154972675Y-82991526D01*
X154900700Y-83099892D01*
X154812090Y-83232847D01*
X154708600Y-83387761D01*
X154591987Y-83562005D01*
X154464004Y-83752950D01*
X154326409Y-83957966D01*
X154180957Y-84174424D01*
X154108700Y-84281861D01*
X153146167Y-85712612D01*
X153280774Y-85906131D01*
X153320059Y-85962815D01*
X153380306Y-86050018D01*
X153458505Y-86163371D01*
X153551643Y-86298503D01*
X153656709Y-86451042D01*
X153770693Y-86616619D01*
X153890581Y-86790862D01*
X154012045Y-86967483D01*
X154608710Y-87835317D01*
X154771222Y-87847933D01*
X154896329Y-87864284D01*
X154993918Y-87895017D01*
X155077957Y-87946082D01*
X155147427Y-88008171D01*
X155234414Y-88117401D01*
X155285032Y-88238440D01*
X155302994Y-88380539D01*
X155303137Y-88396233D01*
X155283786Y-88552170D01*
X155227586Y-88691096D01*
X155137317Y-88808344D01*
X155015759Y-88899245D01*
X154997772Y-88908900D01*
X154904220Y-88941269D01*
X154790107Y-88958272D01*
X154674865Y-88958419D01*
X154580006Y-88940922D01*
X154442880Y-88874681D01*
X154332481Y-88779437D01*
X154251747Y-88661204D01*
X154203615Y-88525994D01*
X154191023Y-88379821D01*
X154193260Y-88366758D01*
X154504200Y-88366758D01*
X154508750Y-88462092D01*
X154531749Y-88523748D01*
X154590041Y-88594534D01*
X154670099Y-88637113D01*
X154760184Y-88649155D01*
X154848559Y-88628329D01*
X154898863Y-88596624D01*
X154963879Y-88519824D01*
X154993713Y-88435406D01*
X154992079Y-88350695D01*
X154962690Y-88273016D01*
X154909259Y-88209693D01*
X154835499Y-88168050D01*
X154745123Y-88155412D01*
X154680498Y-88165867D01*
X154593912Y-88209412D01*
X154533867Y-88279453D01*
X154504200Y-88366758D01*
X154193260Y-88366758D01*
X154216909Y-88228699D01*
X154222932Y-88209952D01*
X154243852Y-88138226D01*
X154254519Y-88080777D01*
X154252909Y-88051202D01*
X154238592Y-88029808D01*
X154202311Y-87976497D01*
X154146092Y-87894227D01*
X154071966Y-87785958D01*
X153981961Y-87654649D01*
X153878105Y-87503260D01*
X153762429Y-87334750D01*
X153636959Y-87152078D01*
X153503726Y-86958203D01*
X153446634Y-86875155D01*
X153306346Y-86670433D01*
X153175250Y-86477806D01*
X153055158Y-86300012D01*
X152947879Y-86139789D01*
X152855225Y-85999876D01*
X152779005Y-85883011D01*
X152721029Y-85791933D01*
X152683108Y-85729382D01*
X152667053Y-85698094D01*
X152666710Y-85695339D01*
X152680158Y-85673257D01*
X152715334Y-85619028D01*
X152770280Y-85535590D01*
X152843036Y-85425883D01*
X152931644Y-85292845D01*
X153034145Y-85139414D01*
X153148579Y-84968529D01*
X153272988Y-84783129D01*
X153405412Y-84586153D01*
X153482982Y-84470932D01*
X153618691Y-84269289D01*
X153747214Y-84078006D01*
X153866628Y-83899963D01*
X153975011Y-83738043D01*
X154070438Y-83595128D01*
X154150988Y-83474100D01*
X154214738Y-83377842D01*
X154259764Y-83309235D01*
X154284144Y-83271162D01*
X154288067Y-83264205D01*
X154267859Y-83261060D01*
X154211074Y-83258320D01*
X154123466Y-83256103D01*
X154010788Y-83254527D01*
X153878795Y-83253710D01*
X153774775Y-83253660D01*
X153261483Y-83254586D01*
X152680030Y-84197208D01*
X152568304Y-84378092D01*
X152463148Y-84547876D01*
X152366672Y-84703185D01*
X152280987Y-84840641D01*
X152208204Y-84956870D01*
X152150435Y-85048495D01*
X152109789Y-85112139D01*
X152088378Y-85144426D01*
X152085689Y-85147795D01*
X152072099Y-85132152D01*
X152038430Y-85084194D01*
X151987029Y-85007513D01*
X151920238Y-84905702D01*
X151840403Y-84782353D01*
X151749868Y-84641058D01*
X151650977Y-84485410D01*
X151580393Y-84373580D01*
X151087984Y-83591400D01*
X150968233Y-83591193D01*
X150823339Y-83572316D01*
X150696877Y-83520077D01*
X150591184Y-83440264D01*
X150508597Y-83338669D01*
X150451451Y-83221084D01*
X150422085Y-83093297D01*
X150422154Y-83081085D01*
X150734658Y-83081085D01*
X150745964Y-83129165D01*
X150776951Y-83175687D01*
X150784461Y-83184753D01*
X150846817Y-83238619D01*
X150920449Y-83273395D01*
X150989694Y-83282441D01*
X151007233Y-83279156D01*
X151050387Y-83265022D01*
X151096160Y-83248609D01*
X151165394Y-83202034D01*
X151211064Y-83129561D01*
X151228572Y-83043138D01*
X151213321Y-82954714D01*
X151211240Y-82949549D01*
X151156359Y-82864538D01*
X151080504Y-82808961D01*
X150992847Y-82785198D01*
X150902558Y-82795630D01*
X150818809Y-82842636D01*
X150814348Y-82846532D01*
X150769501Y-82896233D01*
X150746256Y-82953623D01*
X150737653Y-83011535D01*
X150734658Y-83081085D01*
X150422154Y-83081085D01*
X150422833Y-82961100D01*
X150456032Y-82830284D01*
X150524020Y-82706639D01*
X150583383Y-82637401D01*
X150701538Y-82546317D01*
X150832080Y-82491697D01*
X150968478Y-82472134D01*
X151104201Y-82486220D01*
G36*
X149613695Y-82497401D02*
G01*
X149744544Y-82556021D01*
X149859153Y-82649435D01*
X149943629Y-82762166D01*
X149974187Y-82820115D01*
X149991839Y-82874535D01*
X149999932Y-82940866D01*
X150001817Y-83030483D01*
X149997184Y-83144548D01*
X149982120Y-83228329D01*
X149963044Y-83277756D01*
X149924272Y-83355696D01*
X150712697Y-84492438D01*
X150848401Y-84688477D01*
X150976717Y-84874586D01*
X151095638Y-85047804D01*
X151203155Y-85205173D01*
X151297262Y-85343731D01*
X151375949Y-85460519D01*
X151437209Y-85552575D01*
X151479034Y-85616941D01*
X151499417Y-85650655D01*
X151501122Y-85654802D01*
X151489805Y-85676395D01*
X151457109Y-85730422D01*
X151404914Y-85813951D01*
X151335102Y-85924046D01*
X151249555Y-86057773D01*
X151150153Y-86212197D01*
X151038777Y-86384384D01*
X150917310Y-86571400D01*
X150787632Y-86770309D01*
X150704364Y-86897659D01*
X150570219Y-87102803D01*
X150442782Y-87298085D01*
X150323974Y-87480539D01*
X150215715Y-87647196D01*
X150119923Y-87795092D01*
X150038518Y-87921258D01*
X149973419Y-88022730D01*
X149926547Y-88096540D01*
X149899820Y-88139721D01*
X149894239Y-88149730D01*
X149893081Y-88160929D01*
X149902564Y-88169452D01*
X149927552Y-88175658D01*
X149972906Y-88179908D01*
X150043491Y-88182560D01*
X150144170Y-88183976D01*
X150279806Y-88184514D01*
X150365147Y-88184567D01*
X150849422Y-88184567D01*
X151445940Y-87226775D01*
X151560181Y-87043470D01*
X151668300Y-86870232D01*
X151768116Y-86710538D01*
X151857448Y-86567865D01*
X151934116Y-86445692D01*
X151995938Y-86347495D01*
X152040733Y-86276752D01*
X152066322Y-86236941D01*
X152070952Y-86230097D01*
X152079320Y-86223608D01*
X152091173Y-86225911D01*
X152108495Y-86239826D01*
X152133269Y-86268174D01*
X152167479Y-86313776D01*
X152213107Y-86379453D01*
X152272137Y-86468026D01*
X152346553Y-86582315D01*
X152438337Y-86725142D01*
X152549474Y-86899328D01*
X152625311Y-87018555D01*
X153151174Y-87845900D01*
X153269829Y-87846365D01*
X153417199Y-87866707D01*
X153549211Y-87923301D01*
X153660643Y-88011294D01*
X153746277Y-88125836D01*
X153800895Y-88262078D01*
X153816839Y-88354730D01*
X153810996Y-88502768D01*
X153769201Y-88637325D01*
X153696786Y-88754288D01*
X153599083Y-88849541D01*
X153481423Y-88918972D01*
X153349139Y-88958466D01*
X153207562Y-88963909D01*
X153067263Y-88933072D01*
X152956796Y-88875087D01*
X152854335Y-88787412D01*
X152772899Y-88682392D01*
X152743670Y-88626165D01*
X152709529Y-88502770D01*
X152705513Y-88418465D01*
X153018067Y-88418465D01*
X153024350Y-88481359D01*
X153049106Y-88531887D01*
X153092676Y-88580909D01*
X153140292Y-88624887D01*
X153179825Y-88645273D01*
X153230226Y-88648672D01*
X153276627Y-88645012D01*
X153352189Y-88632377D01*
X153404700Y-88606633D01*
X153445434Y-88567952D01*
X153493084Y-88486016D01*
X153506730Y-88393316D01*
X153485790Y-88303097D01*
X153459013Y-88258939D01*
X153399916Y-88204708D01*
X153326933Y-88166033D01*
X153255698Y-88149915D01*
X153222888Y-88153214D01*
X153121873Y-88195787D01*
X153056492Y-88259386D01*
X153023570Y-88348120D01*
X153018067Y-88418465D01*
X152705513Y-88418465D01*
X152703076Y-88367337D01*
X152723871Y-88236330D01*
X152756391Y-88152203D01*
X152800844Y-88066922D01*
X152459664Y-87529763D01*
X152373542Y-87395019D01*
X152294213Y-87272520D01*
X152224613Y-87166672D01*
X152167675Y-87081878D01*
X152126335Y-87022544D01*
X152103529Y-86993075D01*
X152100429Y-86990626D01*
X152085855Y-87007614D01*
X152051356Y-87057019D01*
X151999259Y-87135247D01*
X151931890Y-87238702D01*
X151851577Y-87363790D01*
X151760646Y-87506915D01*
X151661425Y-87664482D01*
X151581091Y-87792983D01*
X151079808Y-88597317D01*
X150163310Y-88588985D01*
X149968173Y-88586933D01*
X149784426Y-88584467D01*
X149616766Y-88581691D01*
X149469887Y-88578704D01*
X149348487Y-88575609D01*
X149257261Y-88572508D01*
X149200906Y-88569503D01*
X149185929Y-88567818D01*
X149125045Y-88554983D01*
X150066139Y-87116488D01*
X150211712Y-86893764D01*
X150350398Y-86681164D01*
X150480472Y-86481360D01*
X150600205Y-86297023D01*
X150707873Y-86130825D01*
X150801749Y-85985437D01*
X150880105Y-85863529D01*
X150941216Y-85767774D01*
X150983355Y-85700842D01*
X151004796Y-85665404D01*
X151007233Y-85660412D01*
X150995499Y-85640292D01*
X150961707Y-85588520D01*
X150907968Y-85508196D01*
X150836395Y-85402422D01*
X150749100Y-85274300D01*
X150648197Y-85126931D01*
X150535797Y-84963417D01*
X150414014Y-84786859D01*
X150298219Y-84619493D01*
X149589204Y-83596155D01*
X149454706Y-83595380D01*
X149324031Y-83583926D01*
X149215509Y-83547269D01*
X149113572Y-83479425D01*
X149081871Y-83452025D01*
X148981936Y-83337752D01*
X148920354Y-83208091D01*
X148896128Y-83082570D01*
X148897637Y-83042331D01*
X149207517Y-83042331D01*
X149223428Y-83129560D01*
X149268822Y-83206083D01*
X149339259Y-83259659D01*
X149414135Y-83288593D01*
X149479376Y-83290108D01*
X149553670Y-83266204D01*
X149633013Y-83212218D01*
X149680593Y-83131165D01*
X149694900Y-83035938D01*
X149679075Y-82936613D01*
X149629924Y-82862029D01*
X149567666Y-82818696D01*
X149469967Y-82789326D01*
X149372780Y-82802255D01*
X149337159Y-82817735D01*
X149264334Y-82876286D01*
X149221136Y-82954529D01*
X149207517Y-83042331D01*
X148897637Y-83042331D01*
X148901883Y-82929171D01*
X148946490Y-82790041D01*
X149027679Y-82669405D01*
X149143177Y-82571488D01*
X149183905Y-82547323D01*
X149327358Y-82491350D01*
X149472627Y-82475277D01*
X149613695Y-82497401D01*
X149613695Y-82497401D01*
G37*
X149613695Y-82497401D02*
X149744544Y-82556021D01*
X149859153Y-82649435D01*
X149943629Y-82762166D01*
X149974187Y-82820115D01*
X149991839Y-82874535D01*
X149999932Y-82940866D01*
X150001817Y-83030483D01*
X149997184Y-83144548D01*
X149982120Y-83228329D01*
X149963044Y-83277756D01*
X149924272Y-83355696D01*
X150712697Y-84492438D01*
X150848401Y-84688477D01*
X150976717Y-84874586D01*
X151095638Y-85047804D01*
X151203155Y-85205173D01*
X151297262Y-85343731D01*
X151375949Y-85460519D01*
X151437209Y-85552575D01*
X151479034Y-85616941D01*
X151499417Y-85650655D01*
X151501122Y-85654802D01*
X151489805Y-85676395D01*
X151457109Y-85730422D01*
X151404914Y-85813951D01*
X151335102Y-85924046D01*
X151249555Y-86057773D01*
X151150153Y-86212197D01*
X151038777Y-86384384D01*
X150917310Y-86571400D01*
X150787632Y-86770309D01*
X150704364Y-86897659D01*
X150570219Y-87102803D01*
X150442782Y-87298085D01*
X150323974Y-87480539D01*
X150215715Y-87647196D01*
X150119923Y-87795092D01*
X150038518Y-87921258D01*
X149973419Y-88022730D01*
X149926547Y-88096540D01*
X149899820Y-88139721D01*
X149894239Y-88149730D01*
X149893081Y-88160929D01*
X149902564Y-88169452D01*
X149927552Y-88175658D01*
X149972906Y-88179908D01*
X150043491Y-88182560D01*
X150144170Y-88183976D01*
X150279806Y-88184514D01*
X150365147Y-88184567D01*
X150849422Y-88184567D01*
X151445940Y-87226775D01*
X151560181Y-87043470D01*
X151668300Y-86870232D01*
X151768116Y-86710538D01*
X151857448Y-86567865D01*
X151934116Y-86445692D01*
X151995938Y-86347495D01*
X152040733Y-86276752D01*
X152066322Y-86236941D01*
X152070952Y-86230097D01*
X152079320Y-86223608D01*
X152091173Y-86225911D01*
X152108495Y-86239826D01*
X152133269Y-86268174D01*
X152167479Y-86313776D01*
X152213107Y-86379453D01*
X152272137Y-86468026D01*
X152346553Y-86582315D01*
X152438337Y-86725142D01*
X152549474Y-86899328D01*
X152625311Y-87018555D01*
X153151174Y-87845900D01*
X153269829Y-87846365D01*
X153417199Y-87866707D01*
X153549211Y-87923301D01*
X153660643Y-88011294D01*
X153746277Y-88125836D01*
X153800895Y-88262078D01*
X153816839Y-88354730D01*
X153810996Y-88502768D01*
X153769201Y-88637325D01*
X153696786Y-88754288D01*
X153599083Y-88849541D01*
X153481423Y-88918972D01*
X153349139Y-88958466D01*
X153207562Y-88963909D01*
X153067263Y-88933072D01*
X152956796Y-88875087D01*
X152854335Y-88787412D01*
X152772899Y-88682392D01*
X152743670Y-88626165D01*
X152709529Y-88502770D01*
X152705513Y-88418465D01*
X153018067Y-88418465D01*
X153024350Y-88481359D01*
X153049106Y-88531887D01*
X153092676Y-88580909D01*
X153140292Y-88624887D01*
X153179825Y-88645273D01*
X153230226Y-88648672D01*
X153276627Y-88645012D01*
X153352189Y-88632377D01*
X153404700Y-88606633D01*
X153445434Y-88567952D01*
X153493084Y-88486016D01*
X153506730Y-88393316D01*
X153485790Y-88303097D01*
X153459013Y-88258939D01*
X153399916Y-88204708D01*
X153326933Y-88166033D01*
X153255698Y-88149915D01*
X153222888Y-88153214D01*
X153121873Y-88195787D01*
X153056492Y-88259386D01*
X153023570Y-88348120D01*
X153018067Y-88418465D01*
X152705513Y-88418465D01*
X152703076Y-88367337D01*
X152723871Y-88236330D01*
X152756391Y-88152203D01*
X152800844Y-88066922D01*
X152459664Y-87529763D01*
X152373542Y-87395019D01*
X152294213Y-87272520D01*
X152224613Y-87166672D01*
X152167675Y-87081878D01*
X152126335Y-87022544D01*
X152103529Y-86993075D01*
X152100429Y-86990626D01*
X152085855Y-87007614D01*
X152051356Y-87057019D01*
X151999259Y-87135247D01*
X151931890Y-87238702D01*
X151851577Y-87363790D01*
X151760646Y-87506915D01*
X151661425Y-87664482D01*
X151581091Y-87792983D01*
X151079808Y-88597317D01*
X150163310Y-88588985D01*
X149968173Y-88586933D01*
X149784426Y-88584467D01*
X149616766Y-88581691D01*
X149469887Y-88578704D01*
X149348487Y-88575609D01*
X149257261Y-88572508D01*
X149200906Y-88569503D01*
X149185929Y-88567818D01*
X149125045Y-88554983D01*
X150066139Y-87116488D01*
X150211712Y-86893764D01*
X150350398Y-86681164D01*
X150480472Y-86481360D01*
X150600205Y-86297023D01*
X150707873Y-86130825D01*
X150801749Y-85985437D01*
X150880105Y-85863529D01*
X150941216Y-85767774D01*
X150983355Y-85700842D01*
X151004796Y-85665404D01*
X151007233Y-85660412D01*
X150995499Y-85640292D01*
X150961707Y-85588520D01*
X150907968Y-85508196D01*
X150836395Y-85402422D01*
X150749100Y-85274300D01*
X150648197Y-85126931D01*
X150535797Y-84963417D01*
X150414014Y-84786859D01*
X150298219Y-84619493D01*
X149589204Y-83596155D01*
X149454706Y-83595380D01*
X149324031Y-83583926D01*
X149215509Y-83547269D01*
X149113572Y-83479425D01*
X149081871Y-83452025D01*
X148981936Y-83337752D01*
X148920354Y-83208091D01*
X148896128Y-83082570D01*
X148897637Y-83042331D01*
X149207517Y-83042331D01*
X149223428Y-83129560D01*
X149268822Y-83206083D01*
X149339259Y-83259659D01*
X149414135Y-83288593D01*
X149479376Y-83290108D01*
X149553670Y-83266204D01*
X149633013Y-83212218D01*
X149680593Y-83131165D01*
X149694900Y-83035938D01*
X149679075Y-82936613D01*
X149629924Y-82862029D01*
X149567666Y-82818696D01*
X149469967Y-82789326D01*
X149372780Y-82802255D01*
X149337159Y-82817735D01*
X149264334Y-82876286D01*
X149221136Y-82954529D01*
X149207517Y-83042331D01*
X148897637Y-83042331D01*
X148901883Y-82929171D01*
X148946490Y-82790041D01*
X149027679Y-82669405D01*
X149143177Y-82571488D01*
X149183905Y-82547323D01*
X149327358Y-82491350D01*
X149472627Y-82475277D01*
X149613695Y-82497401D01*
D13*
>>>>>>> master
G36*
X139372705Y-61429604D02*
G01*
X139396973Y-61433204D01*
X139420772Y-61439165D01*
X139443871Y-61447430D01*
X139466050Y-61457920D01*
X139487093Y-61470532D01*
X139506799Y-61485147D01*
X139524977Y-61501623D01*
X139541453Y-61519801D01*
X139556068Y-61539507D01*
X139568680Y-61560550D01*
X139579170Y-61582729D01*
X139587435Y-61605828D01*
X139593396Y-61629627D01*
X139596996Y-61653895D01*
X139598200Y-61678399D01*
X139598200Y-62578401D01*
X139596996Y-62602905D01*
X139593396Y-62627173D01*
X139587435Y-62650972D01*
X139579170Y-62674071D01*
X139568680Y-62696250D01*
X139556068Y-62717293D01*
X139541453Y-62736999D01*
X139524977Y-62755177D01*
X139506799Y-62771653D01*
X139487093Y-62786268D01*
X139466050Y-62798880D01*
X139443871Y-62809370D01*
X139420772Y-62817635D01*
X139396973Y-62823596D01*
X139372705Y-62827196D01*
X139348201Y-62828400D01*
X138698199Y-62828400D01*
X138673695Y-62827196D01*
X138649427Y-62823596D01*
X138625628Y-62817635D01*
X138602529Y-62809370D01*
X138580350Y-62798880D01*
X138559307Y-62786268D01*
X138539601Y-62771653D01*
X138521423Y-62755177D01*
X138504947Y-62736999D01*
X138490332Y-62717293D01*
X138477720Y-62696250D01*
X138467230Y-62674071D01*
X138458965Y-62650972D01*
X138453004Y-62627173D01*
X138449404Y-62602905D01*
X138448200Y-62578401D01*
X138448200Y-61678399D01*
X138449404Y-61653895D01*
X138453004Y-61629627D01*
X138458965Y-61605828D01*
X138467230Y-61582729D01*
X138477720Y-61560550D01*
X138490332Y-61539507D01*
X138504947Y-61519801D01*
X138521423Y-61501623D01*
X138539601Y-61485147D01*
X138559307Y-61470532D01*
X138580350Y-61457920D01*
X138602529Y-61447430D01*
X138625628Y-61439165D01*
X138649427Y-61433204D01*
X138673695Y-61429604D01*
X138698199Y-61428400D01*
X139348201Y-61428400D01*
X139372705Y-61429604D01*
X139372705Y-61429604D01*
G37*
D15*
X139023200Y-62128400D03*
D12*
G36*
X137322705Y-61429604D02*
G01*
X137346973Y-61433204D01*
X137370772Y-61439165D01*
X137393871Y-61447430D01*
X137416050Y-61457920D01*
X137437093Y-61470532D01*
X137456799Y-61485147D01*
X137474977Y-61501623D01*
X137491453Y-61519801D01*
X137506068Y-61539507D01*
X137518680Y-61560550D01*
X137529170Y-61582729D01*
X137537435Y-61605828D01*
X137543396Y-61629627D01*
X137546996Y-61653895D01*
X137548200Y-61678399D01*
X137548200Y-62578401D01*
X137546996Y-62602905D01*
X137543396Y-62627173D01*
X137537435Y-62650972D01*
X137529170Y-62674071D01*
X137518680Y-62696250D01*
X137506068Y-62717293D01*
X137491453Y-62736999D01*
X137474977Y-62755177D01*
X137456799Y-62771653D01*
X137437093Y-62786268D01*
X137416050Y-62798880D01*
X137393871Y-62809370D01*
X137370772Y-62817635D01*
X137346973Y-62823596D01*
X137322705Y-62827196D01*
X137298201Y-62828400D01*
X136648199Y-62828400D01*
X136623695Y-62827196D01*
X136599427Y-62823596D01*
X136575628Y-62817635D01*
X136552529Y-62809370D01*
X136530350Y-62798880D01*
X136509307Y-62786268D01*
X136489601Y-62771653D01*
X136471423Y-62755177D01*
X136454947Y-62736999D01*
X136440332Y-62717293D01*
X136427720Y-62696250D01*
X136417230Y-62674071D01*
X136408965Y-62650972D01*
X136403004Y-62627173D01*
X136399404Y-62602905D01*
X136398200Y-62578401D01*
X136398200Y-61678399D01*
X136399404Y-61653895D01*
X136403004Y-61629627D01*
X136408965Y-61605828D01*
X136417230Y-61582729D01*
X136427720Y-61560550D01*
X136440332Y-61539507D01*
X136454947Y-61519801D01*
X136471423Y-61501623D01*
X136489601Y-61485147D01*
X136509307Y-61470532D01*
X136530350Y-61457920D01*
X136552529Y-61447430D01*
X136575628Y-61439165D01*
X136599427Y-61433204D01*
X136623695Y-61429604D01*
X136648199Y-61428400D01*
X137298201Y-61428400D01*
X137322705Y-61429604D01*
X137322705Y-61429604D01*
G37*
D15*
X136973200Y-62128400D03*
D12*
G36*
X137525905Y-77965004D02*
G01*
X137550173Y-77968604D01*
X137573972Y-77974565D01*
X137597071Y-77982830D01*
X137619250Y-77993320D01*
X137640293Y-78005932D01*
X137659999Y-78020547D01*
X137678177Y-78037023D01*
X137694653Y-78055201D01*
X137709268Y-78074907D01*
X137721880Y-78095950D01*
X137732370Y-78118129D01*
X137740635Y-78141228D01*
X137746596Y-78165027D01*
X137750196Y-78189295D01*
X137751400Y-78213799D01*
X137751400Y-79113801D01*
X137750196Y-79138305D01*
X137746596Y-79162573D01*
X137740635Y-79186372D01*
X137732370Y-79209471D01*
X137721880Y-79231650D01*
X137709268Y-79252693D01*
X137694653Y-79272399D01*
X137678177Y-79290577D01*
X137659999Y-79307053D01*
X137640293Y-79321668D01*
X137619250Y-79334280D01*
X137597071Y-79344770D01*
X137573972Y-79353035D01*
X137550173Y-79358996D01*
X137525905Y-79362596D01*
X137501401Y-79363800D01*
X136851399Y-79363800D01*
X136826895Y-79362596D01*
X136802627Y-79358996D01*
X136778828Y-79353035D01*
X136755729Y-79344770D01*
X136733550Y-79334280D01*
X136712507Y-79321668D01*
X136692801Y-79307053D01*
X136674623Y-79290577D01*
X136658147Y-79272399D01*
X136643532Y-79252693D01*
X136630920Y-79231650D01*
X136620430Y-79209471D01*
X136612165Y-79186372D01*
X136606204Y-79162573D01*
X136602604Y-79138305D01*
X136601400Y-79113801D01*
X136601400Y-78213799D01*
X136602604Y-78189295D01*
X136606204Y-78165027D01*
X136612165Y-78141228D01*
X136620430Y-78118129D01*
X136630920Y-78095950D01*
X136643532Y-78074907D01*
X136658147Y-78055201D01*
X136674623Y-78037023D01*
X136692801Y-78020547D01*
X136712507Y-78005932D01*
X136733550Y-77993320D01*
X136755729Y-77982830D01*
X136778828Y-77974565D01*
X136802627Y-77968604D01*
X136826895Y-77965004D01*
X136851399Y-77963800D01*
X137501401Y-77963800D01*
X137525905Y-77965004D01*
X137525905Y-77965004D01*
G37*
D15*
X137176400Y-78663800D03*
D12*
G36*
X139575905Y-77965004D02*
G01*
X139600173Y-77968604D01*
X139623972Y-77974565D01*
X139647071Y-77982830D01*
X139669250Y-77993320D01*
X139690293Y-78005932D01*
X139709999Y-78020547D01*
X139728177Y-78037023D01*
X139744653Y-78055201D01*
X139759268Y-78074907D01*
X139771880Y-78095950D01*
X139782370Y-78118129D01*
X139790635Y-78141228D01*
X139796596Y-78165027D01*
X139800196Y-78189295D01*
X139801400Y-78213799D01*
X139801400Y-79113801D01*
X139800196Y-79138305D01*
X139796596Y-79162573D01*
X139790635Y-79186372D01*
X139782370Y-79209471D01*
X139771880Y-79231650D01*
X139759268Y-79252693D01*
X139744653Y-79272399D01*
X139728177Y-79290577D01*
X139709999Y-79307053D01*
X139690293Y-79321668D01*
X139669250Y-79334280D01*
X139647071Y-79344770D01*
X139623972Y-79353035D01*
X139600173Y-79358996D01*
X139575905Y-79362596D01*
X139551401Y-79363800D01*
X138901399Y-79363800D01*
X138876895Y-79362596D01*
X138852627Y-79358996D01*
X138828828Y-79353035D01*
X138805729Y-79344770D01*
X138783550Y-79334280D01*
X138762507Y-79321668D01*
X138742801Y-79307053D01*
X138724623Y-79290577D01*
X138708147Y-79272399D01*
X138693532Y-79252693D01*
X138680920Y-79231650D01*
X138670430Y-79209471D01*
X138662165Y-79186372D01*
X138656204Y-79162573D01*
X138652604Y-79138305D01*
X138651400Y-79113801D01*
X138651400Y-78213799D01*
X138652604Y-78189295D01*
X138656204Y-78165027D01*
X138662165Y-78141228D01*
X138670430Y-78118129D01*
X138680920Y-78095950D01*
X138693532Y-78074907D01*
X138708147Y-78055201D01*
X138724623Y-78037023D01*
X138742801Y-78020547D01*
X138762507Y-78005932D01*
X138783550Y-77993320D01*
X138805729Y-77982830D01*
X138828828Y-77974565D01*
X138852627Y-77968604D01*
X138876895Y-77965004D01*
X138901399Y-77963800D01*
X139551401Y-77963800D01*
X139575905Y-77965004D01*
X139575905Y-77965004D01*
G37*
<<<<<<< HEAD
D15*
X139226400Y-78663800D03*
D16*
X138074400Y-48488600D03*
=======
D14*
X131445000Y-90170000D03*
D15*
X133985000Y-90170000D03*
X143510000Y-90170000D03*
D14*
X140970000Y-90170000D03*
D16*
X137160000Y-81915000D03*
D17*
X137438600Y-101904800D03*
D18*
X131038600Y-101904800D03*
X143838600Y-101904800D03*
>>>>>>> master
M02*
