<?xml version="1.0" encoding="utf-8"?>
<!-- Svg Vector Icons : http://www.onlinewebfonts.com/icon -->
<!DOCTYPE svg PUBLIC "-//W3C//DTD SVG 1.1//EN" "http://www.w3.org/Graphics/SVG/1.1/DTD/svg11.dtd">
<svg version="1.1" xmlns="http://www.w3.org/2000/svg" xmlns:xlink="http://www.w3.org/1999/xlink" x="0px" y="0px" viewBox="0 0 1000 1000" enable-background="new 0 0 1000 1000" xml:space="preserve">
<metadata> Svg Vector Icons : http://www.onlinewebfonts.com/icon </metadata>
<g><g transform="translate(0.000000,511.000000) scale(0.100000,-0.100000)"><path d="M8906.6,5020.6c-528.8-79.7-1246.1-495.7-1827.4-1057.6c-196.3-192.5-280-256.6-437.4-346c-108.8-58.3-262.4-157.5-344.1-217.7c-264.4-192.5-493.8-554-583.2-921.5l-42.8-173l-167.2-40.8c-299.4-73.9-624-256.6-843.7-478.2c-204.1-204.1-381-528.8-451-832l-35-145.8l-165.2-40.8c-314.9-77.8-696-299.4-882.6-515.2c-202.2-235.2-346-511.3-412.1-795.1l-35-147.8l-134.2-29.2c-386.9-87.5-732.9-305.2-1032.3-653.2c-89.4-103-246.9-384.9-246.9-439.4c0-15.5-60.3-95.2-132.2-176.9C603.6-2594.2,253.7-3187.1,137-3680.9c-58.3-244.9-46.7-517.1,27.2-662.9c112.8-217.7,342.2-363.5,684.3-433.5c165.2-35,239.1-38.9,495.7-31.1c169.1,5.8,365.5,25.3,447.1,42.8c379.1,83.6,748.5,239.1,1045.9,441.3c208,140,6345.4,6271.5,6497,6489.2c363.5,526.8,567.7,1160.6,565.7,1769.1c0,692.1-246.9,1059.5-732.9,1096.4C9093.2,5034.2,8976.6,5030.3,8906.6,5020.6z M9334.3,4645.4C9627.8,4451,9678.4,3757,9449,3103.8c-75.8-215.8-204.1-470.4-330.5-662.9c-79.7-118.6-738.7-789.3-3242.7-3291.3c-3291.3-3293.2-3231-3234.9-3569.3-3404C1562-4629.6,601.7-4571.3,438.4-4141.6c-40.8,108.9-29.2,332.4,31.1,513.2c62.2,188.6,217.7,487.9,379.1,729c155.5,233.3,390.8,534.6,418,534.6c9.7,0,27.2-29.2,38.9-66.1c77.8-239.1,480.2-653.2,633.8-653.2c91.4,0,163.3,71.9,163.3,161.4c0,79.7-17.5,101.1-175,225.5c-231.3,182.7-388.8,419.9-388.8,587.1c0,31.1,21.4,89.4,48.6,130.3c25.3,38.9,66.1,120.5,87.5,180.8c89.4,231.3,334.4,488,606.5,629.9c105,56.4,381,145.8,445.2,145.8c7.8,0,36.9-48.6,64.2-108.9c99.1-217.7,291.6-418,538.5-559.9c114.7-64.2,163.3-64.2,233.3,5.8c103,103,73.9,198.3-95.3,305.2C3144.5-1177,2994.8-922.3,3037.5-654c42.8,270.2,188.6,521,441.3,762.1c173,165.2,392.7,287.7,602.7,334.4c134.1,31.1,128.3,35,149.7-93.3c36.9-225.5,200.2-491.8,392.7-643.5c132.2-103,225.5-116.6,291.6-42.8c95.3,103,73.9,184.7-77.8,303.3c-349.9,270.2-423.8,742.6-188.6,1217c134.1,268.3,383,521,649.3,655.1c126.4,64.2,400.5,140,419.9,118.6c7.8-9.7,23.3-62.2,35-120.5c52.5-237.2,237.2-517.1,423.8-639.6c122.5-83.6,200.3-81.7,270.2,0c66.1,77.8,54.4,159.4-33.1,235.2c-175,149.7-254.7,243-307.2,351.9c-136.1,287.7-112.7,629.9,68,954.5c68,122.5,237.2,330.5,322.7,396.6c64.2,50.5,373.3,235.2,392.7,235.2c7.8,0,13.6-33.1,13.6-73.9c0-114.7,54.4-295.5,122.5-408.3c73.9-124.4,287.7-330.5,390.8-381c134.1-64.2,250.8,7.8,241.1,149.7c-5.8,70-17.5,89.4-93.3,145.8c-351.9,260.5-429.6,472.4-285.8,771.8c143.9,299.4,585.2,678.5,1082.8,931.2C8801.6,4729,9136,4775.7,9334.3,4645.4z"/></g></g>
</svg>