<?xml version="1.0" encoding="UTF-8" standalone="no"?>
<!-- Generator: Adobe Illustrator 22.0.1, SVG Export Plug-In . SVG Version: 6.00 Build 0)  -->

<svg
   xmlns:dc="http://purl.org/dc/elements/1.1/"
   xmlns:cc="http://creativecommons.org/ns#"
   xmlns:rdf="http://www.w3.org/1999/02/22-rdf-syntax-ns#"
   xmlns:svg="http://www.w3.org/2000/svg"
   xmlns="http://www.w3.org/2000/svg"
   xmlns:sodipodi="http://sodipodi.sourceforge.net/DTD/sodipodi-0.dtd"
   xmlns:inkscape="http://www.inkscape.org/namespaces/inkscape"
   version="1.1"
   id="Layer_1"
   x="0px"
   y="0px"
   viewBox="0 0 50.0 50.0"
   style="enable-background:new 0 0 2592 1728;"
   xml:space="preserve"
   sodipodi:docname="MakerFair.svg"
   width="50.0mm"
   height="50.0mm"
   inkscape:version="0.92.3 (2405546, 2018-03-11)"><sodipodi:namedview
   pagecolor="#ffffff"
   bordercolor="#666666"
   borderopacity="1"
   objecttolerance="10"
   gridtolerance="10"
   guidetolerance="10"
   inkscape:pageopacity="0"
   inkscape:pageshadow="2"
   inkscape:window-width="1863"
   inkscape:window-height="1025"
   id="namedview103"
   showgrid="true"
   inkscape:zoom="4"
   inkscape:cx="65.3611"
   inkscape:cy="100.30417"
   inkscape:window-x="57"
   inkscape:window-y="27"
   inkscape:window-maximized="1"
   inkscape:current-layer="g1020"
   borderlayer="true"
   inkscape:document-units="mm"
   inkscape:snap-bbox="true"
   inkscape:snap-global="false"><inkscape:grid
     spacingx="2.54"
     spacingy="2.54"
     empspacing="1"
     type="xygrid"
     units="mm"
     id="grid964" /><inkscape:grid
     id="grid1100"
     units="mm"
     type="xygrid"
     empspacing="1"
     spacingy="2.54"
     spacingx="2.54" /></sodipodi:namedview><metadata
   id="metadata107"><rdf:RDF><cc:Work
       rdf:about=""><dc:format>image/svg+xml</dc:format><dc:type
         rdf:resource="http://purl.org/dc/dcmitype/StillImage" /><dc:title></dc:title></cc:Work></rdf:RDF></metadata><defs
   id="defs105">
	
	
	
	
	
	
	
	
	
	
	
	
	
	
	
	

		
		
	
			
			
			
			
			
			
			
				
			
				
			
			
			
			
			
			
			
			
		</defs>
<style
   type="text/css"
   id="style2">
	.st0{fill:#EA2327;}
	.st1{fill:#009FDB;}
	.st2{fill:#FBB040;}
	.st3{fill:none;stroke:#FBB040;stroke-width:3.23;stroke-linecap:round;stroke-linejoin:round;stroke-dasharray:0,6.389;}
	.st4{fill:#00AEEF;}
	.st5{fill:#FFFFFF;}
	.st6{fill:#ED1D24;}
	.st7{fill:none;}
	.st8{fill:#FF0000;stroke:#FF0000;stroke-width:0.25;stroke-miterlimit:10;}
	.st9{fill:#4D4D4D;}
</style>

<g
   inkscape:label="[fixed] BG"
   inkscape:groupmode="layer"
   sodipodi:insensitive="true"
   id="g1018"><rect
     x="0"
     y="0"
     width="43.466999054"
     height="45.2630004883"
     style="stroke:none;fill-opacity:1;fill:#FFFFFF"
     id="rect1016" /></g><g
   inkscape:groupmode="layer"
   id="layer1"
   inkscape:label="Base"
   style="display:none"><path
     style="fill:#ea2327;stroke-width:0.05875544"
     inkscape:connector-curvature="0"
     id="path4"
     d="m -41.168523,44.754955 -2.926022,2.126959 1.122233,3.431313 c 0,0 0.094,0.217394 -0.06463,0.329025 -0.158641,0.117514 -0.334906,-0.04113 -0.334906,-0.04113 l -2.926022,-2.121063 -2.920146,2.121063 c 0,0 -0.17039,0.158645 -0.334905,0.04113 -0.158647,-0.117512 -0.06463,-0.329025 -0.06463,-0.329025 l 1.122239,-3.443077 -2.926027,-2.121063 c 0,0 -0.199773,-0.117514 -0.135146,-0.305526 0.05875,-0.193895 0.287911,-0.164513 0.287911,-0.164513 h 3.613458 l 1.116351,-3.437194 c 0,0 0.0529,-0.229145 0.252649,-0.229145 0.199772,0 0.246773,0.229145 0.246773,0.229145 l 1.116357,3.437194 3.613453,-0.0059 c 0,0 0.229147,-0.0235 0.29378,0.170394 0.0529,0.193895 -0.152765,0.311394 -0.152765,0.311394 z"
     class="st0" /><polygon
     style="fill:#009fdb"
     id="polygon6"
     points="854.8,1047 829.8,992 878.9,992 "
     class="st1"
     transform="matrix(0.05875544,0,0,0.05875544,-123.39676,-15.146205)" /><path
     style="fill:#009fdb;stroke-width:0.05875544"
     inkscape:connector-curvature="0"
     id="path8"
     d="m -73.172615,46.37073 v 0 0 c 0,0 0,0 0,0 z m 0,0 z m 0,0 z"
     class="st1" /><polygon
     style="fill:#fbb040"
     id="polygon10"
     points="903.8,1046.7 878.9,992 927.7,992 "
     class="st2"
     transform="matrix(0.05875544,0,0,0.05875544,-123.39676,-15.146205)" /><polygon
     style="fill:#fbb040"
     id="polygon12"
     points="1001.7,1047.1 976.9,992.5 1025.7,992.5 "
     class="st2"
     transform="matrix(0.05875544,0,0,0.05875544,-123.39676,-15.146205)" /><polygon
     style="fill:#fbb040"
     id="polygon14"
     points="1099.7,1047 1074.8,992.3 1123.6,992.3 "
     class="st2"
     transform="matrix(0.05875544,0,0,0.05875544,-123.39676,-15.146205)" /><polygon
     style="fill:#009fdb"
     id="polygon16"
     points="854.8,1047 829.8,992 878.9,992 "
     class="st1"
     transform="matrix(0.05875544,0,0,0.05875544,-123.39676,-15.146205)" /><polygon
     style="fill:#009fdb"
     id="polygon18"
     points="952.7,1047.3 927.7,992.3 976.9,992.3 "
     class="st1"
     transform="matrix(0.05875544,0,0,0.05875544,-123.39676,-15.146205)" /><polygon
     style="fill:#009fdb"
     id="polygon20"
     points="1050.7,1047.3 1025.7,992.3 1074.8,992.3 "
     class="st1"
     transform="matrix(0.05875544,0,0,0.05875544,-123.39676,-15.146205)" /><polygon
     style="fill:#fbb040"
     id="polygon22"
     points="805.5,1047.3 780.3,992 829.8,992 "
     class="st2"
     transform="matrix(0.05875544,0,0,0.05875544,-123.39676,-15.146205)" /><polygon
     style="fill:#009fdb"
     id="polygon24"
     points="755.9,1047.6 730.7,992 780.3,992 "
     class="st1"
     transform="matrix(0.05875544,0,0,0.05875544,-123.39676,-15.146205)" /><line
     style="fill:none;stroke:#fbb040;stroke-width:0.18978007;stroke-linecap:round;stroke-linejoin:round;stroke-dasharray:0, 0.37538848"
     id="line26"
     y2="33.567932"
     x2="-43.019314"
     y1="33.573803"
     x1="-79.700325"
     class="st3" /><g
     id="g34"
     transform="matrix(0.05875544,0,0,0.05875544,-123.39676,-15.146205)">
		<polygon
   style="fill:#00aeef"
   id="polygon28"
   points="696.7,607.5 696.7,783.5 1469.5,783.5 1469.5,607.5 1461.8,607.5 "
   class="st4" />
		<rect
   style="fill:#ffffff"
   id="rect30"
   height="144.89999"
   width="741.70001"
   class="st5"
   y="623.09998"
   x="712.29999" />
		<path
   style="fill:#ed1d24"
   inkscape:connector-curvature="0"
   id="path32"
   d="m 1428.1,710.4 c 0,-30.3 -16.9,-37.2 -30.7,-37.2 -13.8,0 -33.6,8.9 -33.6,34.8 0,25.8 16.7,34.7 34.1,34.7 11.6,0 21.3,-3.4 29,-10 l -7.8,-12 c -4.5,4.1 -11.9,8 -19.8,8 -8.4,0 -14.5,-4.3 -15.5,-15.3 h 44.2 v -3 z m -43.9,-8.9 c 1.5,-9.8 6.9,-13.9 13.2,-13.9 7.5,0 11.8,4.5 12.8,13.9 z m -24.1,-28.3 c -12.5,0 -18.9,6.9 -22.5,12.5 h -0.1 v -11.1 h -20.2 v 66.7 h 20.2 v -41.5 c 3.8,-4.9 9.8,-9.1 17.8,-9.1 1.3,0 4.5,0.3 5.3,0.4 l 0.3,-17.9 z m -76.7,1.3 v 66.7 h 20 v -66.7 z m -0.1,-25.3 v 16.2 h 20.3 v -16.2 z m -13,75.8 v -25.7 c 0,-17.2 -7.5,-26.2 -25.8,-26.2 -16.7,0 -26.7,5.9 -33.3,11.9 l 8.5,11.5 c 6.1,-4.8 13.4,-8.3 21.9,-8.3 6.5,0 9,3.1 9,8 v 1.6 c -29.3,2.4 -42.3,10.9 -42.3,26.3 0,11.4 8.8,18 19,18 9.9,0 17.2,-3.9 23.3,-10.8 0,3.8 0.6,7 1.5,9.8 h 20 c -1.3,-3.2 -1.8,-8.1 -1.8,-16.1 z m -19.7,-3.6 c -3.4,3.4 -8.3,5.8 -15.3,5.8 -4.4,0 -7.4,-2.1 -7.4,-6.4 0,-6.1 6.8,-10.1 22.7,-11.8 z m -39.2,-55.8 v -17 h -61.2 v 92.7 h 20.4 v -36.9 h 29 v -16.2 h -29 v -22.5 h 40.8 z m -106.9,7.6 c -12.5,0 -18.9,6.9 -22.5,12.5 h -0.1 v -11.1 h -20.2 v 66.7 h 20.2 v -41.5 c 3.8,-4.9 9.8,-9.1 17.8,-9.1 1.3,0 4.5,0.3 5.3,0.4 l 0.3,-17.9 z m -54.5,37.2 c 0,-30.3 -16.9,-37.2 -30.7,-37.2 -13.8,0 -33.6,8.9 -33.6,34.8 0,25.8 16.7,34.7 34,34.7 11.7,0 21.3,-3.4 29.1,-10 l -7.8,-12 c -4.5,4.1 -11.9,8 -19.8,8 -8.4,0 -14.5,-4.3 -15.5,-15.3 h 44.2 v -3 z m -43.9,-8.9 c 1.5,-9.8 6.9,-13.9 13.1,-13.9 7.5,0 11.8,4.5 12.8,13.9 z m -43.4,-2 21.8,-24.9 H 962.8 L 942,699.5 v -50.8 h -20.2 v 92.7 H 942 v -18 l 8.1,-9.1 14.8,27.2 h 20.8 z M 907.2,725 v -25.7 c 0,-17.2 -7.5,-26.2 -25.8,-26.2 -16.6,0 -26.7,5.9 -33.3,11.9 l 8.5,11.5 c 6.1,-4.8 13.4,-8.3 21.9,-8.3 6.5,0 9,3.1 9,8 v 1.6 c -29.3,2.4 -42.3,10.9 -42.3,26.3 0,11.4 8.8,18 19,18 9.9,0 17.1,-3.9 23.3,-10.8 0,3.8 0.6,7 1.5,9.8 h 20 c -1.3,-3.2 -1.8,-8.1 -1.8,-16.1 z m -19.6,-3.6 c -3.4,3.4 -8.3,5.8 -15.3,5.8 -4.4,0 -7.4,-2.1 -7.4,-6.4 0,-6.1 6.8,-10.1 22.7,-11.8 z m -82.7,-72.8 -19.3,68.1 h -0.3 l -20.7,-68.1 h -26.9 v 92.7 H 756 V 677 h 0.3 c 2,10.6 3.3,14.6 5.4,21.7 l 13.8,42.6 h 18 l 13.9,-42.6 c 2,-6.8 3.8,-12.6 5.1,-20.6 h 0.3 v 63.2 h 19.7 v -92.7 z"
   class="st6" />
	</g><polyline
     style="fill:none"
     id="polyline36"
     points="729.8,992 779.5,992 779.8,992 829.2,992 829.8,992 878.9,992 879.8,992 928.6,992  "
     class="st7"
     transform="matrix(0.05875544,0,0,0.05875544,-123.39676,-15.146205)" /><g
     id="g54"
     transform="matrix(0.05875544,0,0,0.05875544,-123.39676,-15.146205)">
		<polygon
   style="fill:#ed1d24"
   id="polygon38"
   points="1364.7,904.2 1371.2,884.2 1354.2,896.6 1337.1,884.2 1343.6,904.2 1326.6,916.6 1347.6,916.6 1354.2,936.6 1360.7,916.6 1381.7,916.6 "
   class="st6" />
		<polygon
   style="fill:#fbb040"
   id="polygon40"
   points="1280.2,904.2 1286.7,884.2 1269.7,896.6 1252.6,884.2 1259.1,904.2 1242.1,916.6 1263.2,916.6 1269.7,936.6 1276.2,916.6 1297.3,916.6 "
   class="st2" />
		<polygon
   style="fill:#ed1d24"
   id="polygon42"
   points="1195.7,904.2 1202.2,884.2 1185.2,896.6 1168.1,884.2 1174.6,904.2 1157.6,916.6 1178.7,916.6 1185.2,936.6 1191.7,916.6 1212.8,916.6 "
   class="st6" />
		<polygon
   style="fill:#fbb040"
   id="polygon44"
   points="1111.2,904.2 1117.7,884.2 1100.7,896.6 1083.6,884.2 1090.1,904.2 1073.1,916.6 1094.2,916.6 1100.7,936.6 1107.2,916.6 1128.3,916.6 "
   class="st2" />
		<polygon
   style="fill:#ed1d24"
   id="polygon46"
   points="1026.7,904.2 1033.2,884.2 1016.2,896.6 999.1,884.2 1005.6,904.2 988.6,916.6 1009.7,916.6 1016.2,936.6 1022.7,916.6 1043.8,916.6 "
   class="st6" />
		<polygon
   style="fill:#fbb040"
   id="polygon48"
   points="942.2,904.2 948.7,884.2 931.7,896.6 914.6,884.2 921.1,904.2 904.1,916.6 925.2,916.6 931.7,936.6 938.2,916.6 959.3,916.6 "
   class="st2" />
		<polygon
   style="fill:#ed1d24"
   id="polygon50"
   points="857.7,904.2 864.2,884.2 847.2,896.6 830.1,884.2 836.7,904.2 819.6,916.6 840.7,916.6 847.2,936.6 853.7,916.6 874.8,916.6 "
   class="st6" />
		<polygon
   style="fill:#fbb040"
   id="polygon52"
   points="773.2,904.2 779.7,884.2 762.7,896.6 745.6,884.2 752.2,904.2 735.1,916.6 756.2,916.6 762.7,936.6 769.2,916.6 790.3,916.6 "
   class="st2" />
	</g><g
     id="g90"
     transform="matrix(0.05875544,0,0,0.05875544,-139.68659,-51.82047)">
			<path
   class="st8"
   d="m 1583.2,1001.4 -0.1,45.7 c -64.2,-0.1 -73.3,-45.8 -73.3,-45.8 z"
   id="path56"
   inkscape:connector-curvature="0"
   style="fill:#ff0000;stroke:#ff0000;stroke-width:0.25;stroke-miterlimit:10" />
			<path
   class="st8"
   d="m 1568,898 v 21.2 h 6.5 l 8.8,76 -73.4,-0.1 9,-76 h 6.5 v -21.2 h -6.8 -14.7 c 0,0 0,-0.6 0,-21 0,-20.4 19.7,-65.9 67.9,-65.9 6.3,0 14.2,0 14.2,0 l -0.1,87 z"
   id="path58"
   inkscape:connector-curvature="0"
   style="fill:#ff0000;stroke:#ff0000;stroke-width:0.25;stroke-miterlimit:10" />
			<polygon
   class="st8"
   points="1603.8,1001.4 1675.9,1001.5 1680.6,1068.1 1591.8,1068 "
   id="polygon60"
   style="fill:#ff0000;stroke:#ff0000;stroke-width:0.25;stroke-miterlimit:10" />
			<polygon
   class="st8"
   points="1572,1086 1588.6,1073.4 1686.1,1073.5 1686.1,1099.4 1572,1099.2 "
   id="polygon62"
   style="fill:#ff0000;stroke:#ff0000;stroke-width:0.25;stroke-miterlimit:10" />
			<path
   class="st8"
   d="m 1806.4,872 -0.1,45.1 c 0,15.7 -12.8,28.5 -28.6,28.5 l -43.6,-0.1 -69.7,-0.1 -43.6,-0.1 c -15.8,0 -28.5,-12.8 -28.5,-28.6 l 0.1,-45.1 50.1,0.1 c 2.8,28.9 27.2,51.5 56.8,51.6 29.7,0 54.1,-22.5 57,-51.4 z"
   id="path64"
   inkscape:connector-curvature="0"
   style="fill:#ff0000;stroke:#ff0000;stroke-width:0.25;stroke-miterlimit:10" />
			<path
   class="st8"
   d="m 1806.5,815.6 -0.1,50.1 -49.7,-0.1 c -0.3,-31.3 -25.7,-56.6 -57.1,-56.7 -31.4,0 -56.9,25.2 -57.3,56.5 l -49.9,-0.1 0.1,-50.1 c 0,-15.7 12.8,-28.5 28.6,-28.5 L 1778,787 c 15.8,0.1 28.5,12.9 28.5,28.6 z"
   id="path66"
   inkscape:connector-curvature="0"
   style="fill:#ff0000;stroke:#ff0000;stroke-width:0.25;stroke-miterlimit:10" />
			
				<rect
   x="1621.8"
   y="943.20001"
   transform="matrix(0.00164534,-1,1,0.00164534,667.6628,2615.7698)"
   class="st8"
   width="44.099998"
   height="60.700001"
   id="rect68"
   style="fill:#ff0000;stroke:#ff0000;stroke-width:0.25;stroke-miterlimit:10" />
			
				<rect
   x="1732.7"
   y="943.29999"
   transform="matrix(0.00156199,-1,1,0.00156199,778.3669,2726.9326)"
   class="st8"
   width="44.099998"
   height="60.799999"
   id="rect70"
   style="fill:#ff0000;stroke:#ff0000;stroke-width:0.25;stroke-miterlimit:10" />
			<polygon
   class="st8"
   points="1794.8,1001.7 1806.6,1068.3 1717.8,1068.2 1722.7,1001.6 "
   id="polygon72"
   style="fill:#ff0000;stroke:#ff0000;stroke-width:0.25;stroke-miterlimit:10" />
			<polygon
   class="st8"
   points="1712.3,1073.5 1809.7,1073.7 1826.3,1086.4 1826.3,1099.6 1712.2,1099.4 "
   id="polygon74"
   style="fill:#ff0000;stroke:#ff0000;stroke-width:0.25;stroke-miterlimit:10" />
			<g
   id="g78">
				<path
   class="st8"
   d="m 1737.7,865.6 v 6.3 l -0.1,31.7 h -15.8 l 0.1,-31.6 v -6.3 -13 h -0.2 c -0.8,5 -1.9,9 -3.1,13 -0.4,1.2 -0.7,2.4 -1.1,3.6 l -0.9,2.6 -10.4,31.6 h -14.5 l -10.2,-31.7 -0.9,-2.6 c -0.4,-1.3 -0.8,-2.5 -1.1,-3.6 -1.1,-3.8 -2,-7.2 -3.3,-13.8 h -0.2 v 13.8 6.3 l -0.1,31.7 h -14.7 l 0.1,-31.7 v -6.3 -36.7 h 21.7 l 11.1,36.8 1.9,6.3 3.6,11.9 h 0.2 l 3.4,-11.9 1.8,-6.2 10.5,-36.7 h 22.2 z"
   id="path76"
   inkscape:connector-curvature="0"
   style="fill:#ff0000;stroke:#ff0000;stroke-width:0.25;stroke-miterlimit:10" />
			</g>
			<path
   class="st5"
   d="m 1670.6,749.6 c 0,10.5 -8.6,19 -19.1,19 -10.5,0 -19.1,-8.5 -19,-19 0,-10.5 8.6,-19 19.1,-19 10.5,0 19,8.5 19,19 z"
   id="path80"
   inkscape:connector-curvature="0"
   style="fill:#ffffff" />
			<path
   class="st8"
   d="m 1741.8,703.4 c -7.9,-4.3 -16.4,-7.4 -25.6,-9.1 0,0 -0.1,0 -0.1,0 -5.3,-1 -10.8,-1.5 -16.4,-1.5 -48.6,-0.1 -87.9,38.9 -88,87 l 175.8,0.3 c 0.1,-33.1 -18.4,-61.9 -45.7,-76.7 z m -90.3,65.2 c -10.5,0 -19.1,-8.5 -19,-19 0,-10.5 8.6,-19 19.1,-19 10.5,0 19,8.5 19,19.1 0,10.4 -8.6,18.9 -19.1,18.9 z m 96.2,0.2 c -10.5,0 -19,-8.5 -19,-19.1 0,-10.5 8.6,-19 19.1,-19 10.5,0 19,8.6 19,19.1 0,10.5 -8.6,19 -19.1,19 z"
   id="path82"
   inkscape:connector-curvature="0"
   style="fill:#ff0000;stroke:#ff0000;stroke-width:0.25;stroke-miterlimit:10" />
			<path
   class="st5"
   d="m 1766.8,749.8 c 0,10.5 -8.6,19 -19.1,19 -10.5,0 -19,-8.5 -19,-19.1 0,-10.5 8.6,-19 19.1,-19 10.5,0 19,8.5 19,19.1 z"
   id="path84"
   inkscape:connector-curvature="0"
   style="fill:#ffffff" />
			<path
   class="st8"
   d="m 1888.9,1001.8 c 0,0 -0.5,2.6 -2.2,6.5 -5.3,12.6 -22.3,39.1 -71.3,39 l 0.1,-45.7 73,0.1 z"
   id="path86"
   inkscape:connector-curvature="0"
   style="fill:#ff0000;stroke:#ff0000;stroke-width:0.25;stroke-miterlimit:10" />
			<path
   class="st8"
   d="m 1895.3,877.5 c 0,20.5 0,21 0,21 h -1.1 -13.6 -6.8 v 21.2 h 6.5 l 8.8,76 -73.4,-0.1 9,-76 h 6.5 v -21.2 h -17.7 l 0.1,-87 c 0,0 7.9,0 14.2,0 20,0 35,7.9 45.8,18.5 15,15.1 21.7,35.7 21.7,47.6 z"
   id="path88"
   inkscape:connector-curvature="0"
   style="fill:#ff0000;stroke:#ff0000;stroke-width:0.25;stroke-miterlimit:10" />
		</g><g
     id="g96"
     transform="matrix(0.05875544,0,0,0.05875544,-146.45436,-31.955832)">
			<polygon
   class="st9"
   points="1509.4,707.9 1516.2,704 1491.4,703.1 1548.1,692.6 1533.1,700.2 1569.9,699 1557,706.3 1598.1,710.3 1528.9,716.8 1543.7,708.9 "
   id="polygon92"
   style="fill:#4d4d4d" />
			<polygon
   class="st9"
   points="1549.1,634.7 1533.7,615.3 1578.6,651.4 1563,645 1587.9,672.1 1574,667.1 1597.8,700.9 1547.7,652.6 1563.4,658.7 1541.8,632.1 "
   id="polygon94"
   style="fill:#4d4d4d" />
		</g></g><g
   inkscape:label="Edge.Cuts"
   inkscape:groupmode="layer"
   id="g1020"
   style="display:inline"><path
     style="fill:none;fill-opacity:1;stroke:#000000;stroke-width:0.09809994;stroke-miterlimit:10;stroke-opacity:1"
     d="M 102.67773 1.2460938 C 102.51865 1.2369238 102.34933 1.2439443 102.16992 1.2695312 C 99.999546 2.3759614 100.34674 1.7939465 96.158203 5.4882812 C 75.087768 3.9171666 57.368234 11.443619 56.505859 22.373047 C 56.094329 27.589735 59.876705 29.153293 66.230469 29.537109 L 66.230469 39.632812 L 66.351562 39.632812 C 62.207412 45.269422 59.398418 55.565153 59.382812 63.072266 C 59.408892 63.105136 59.20496 63.197178 59.054688 63.302734 C 55.534047 64.829265 53.338291 67.810561 52.429688 71.355469 C 52.393658 71.608029 52.334638 71.856771 52.287109 72.107422 L 44.078125 71.957031 C 25.164459 71.957031 17.435547 89.809497 17.435547 97.814453 L 17.435547 106.05664 L 23.203125 106.05664 L 25.871094 106.05664 L 25.871094 114.375 L 23.320312 114.375 L 19.837891 143.79297 L 19.751953 143.79297 C 19.751953 143.79297 19.799364 143.99137 19.808594 144.03906 L 19.789062 144.19727 L 19.84375 144.19727 C 20.279557 146.29029 24.747826 164.56454 48.513672 164.60156 L 48.554688 144.23633 L 48.591797 144.23633 L 48.554688 143.91406 L 48.554688 143.83203 L 48.544922 143.83203 L 45.138672 114.41406 L 42.587891 114.41406 L 42.587891 106.0957 L 52.138672 106.24414 L 52.123047 113.43359 C 53.148704 118.90745 56.460671 123.13238 60.378906 124.28906 L 60.314453 146.67578 L 56.634766 146.66992 L 51.933594 174.92383 L 50.671875 174.92188 L 44.15625 179.86523 L 44.15625 185.04492 L 88.929688 185.125 L 88.929688 174.96094 L 86.707031 174.95898 L 84.927734 146.70898 L 84.134766 146.70703 L 84.197266 124.70117 L 103.87109 124.72852 L 103.81055 146.74805 L 103.29102 146.74805 L 101.4082 174.96484 L 99.210938 174.96094 L 99.171875 185.125 L 143.94531 185.20312 L 143.94531 180.02344 L 137.42969 175.03906 L 136.18164 175.03711 L 131.58398 146.78711 L 127.66797 146.78125 L 127.73047 124.39844 C 132.66554 121.94263 135.98164 118.00393 136.0957 113.58984 L 136.11133 106.3125 L 145.78906 106.25195 L 145.86719 114.57031 L 143.23828 114.57031 L 139.83594 144.40039 L 139.79688 144.40039 L 139.66797 164.74219 C 158.89556 164.78143 165.56481 154.38369 167.64453 149.43945 C 168.15548 148.19286 168.56811 146.05418 168.57422 144.74414 L 168.58789 144.74414 L 168.57812 144.6543 C 168.57749 144.58791 168.58897 144.49678 168.58594 144.43555 L 168.55273 144.43555 L 165.13477 114.61328 L 162.58398 114.61328 L 162.58398 106.29492 L 165.25195 106.29492 L 170.58789 106.29492 L 171.01953 106.29492 L 170.94141 98.054688 C 170.94141 93.385131 168.31373 85.302186 162.42773 79.376953 C 158.18982 75.217515 152.30287 72.060269 144.45508 72.117188 L 136.07617 72.177734 C 135.85883 71.018284 134.83279 68.278449 133.9707 67.09375 C 132.58463 65.227346 130.63153 63.803861 128.36133 63.078125 C 128.36333 55.531305 126.25979 45.273555 122.11914 39.636719 L 122.2793 39.636719 L 122.2793 33.951172 C 128.80159 34.63151 132.91496 33.740569 133.33203 28.435547 C 134.12339 18.419762 120.48351 9.0083281 101.99414 6.1542969 C 102.07024 6.0381861 102.17718 5.9339426 103.02344 5.6972656 C 105.16328 5.202271 105.06381 1.3875157 102.67773 1.25 L 102.67773 1.2460938 z "
     transform="scale(0.26458333)"
     id="path2091" /><g
     style="fill:none;fill-opacity:1;stroke:#000000;stroke-opacity:1"
     id="g2113"
     transform="matrix(0.10382243,0,0,0.10382243,-151.52563,-65.161577)">
				
			</g><g
     transform="matrix(0.04582651,0,0,0.04582651,14.942276,-5.0893854)"
     id="g6"
     style="fill:none;stroke:#000000;stroke-opacity:1"><g
       id="g4"
       style="fill:none;stroke:#000000;stroke-opacity:1" /></g></g><g
   id="g2197"
   inkscape:groupmode="layer"
   inkscape:label="Edge.Cuts copy"
   style="display:none"><g
     id="g2189"
     transform="matrix(0.10382243,0,0,0.10382243,-151.52563,-65.161577)"
     style="display:inline">
			<path
   class="st8"
   d="m 1583.2,1001.4 -0.1,45.7 c -64.2,-0.1 -73.3,-45.8 -73.3,-45.8 z"
   id="path2155"
   inkscape:connector-curvature="0"
   style="fill:#ff0000;stroke:#ff0000;stroke-width:0.25;stroke-miterlimit:10" />
			<path
   class="st8"
   d="m 1568,898 v 21.2 h 6.5 l 8.8,76 -73.4,-0.1 9,-76 h 6.5 v -21.2 h -6.8 -14.7 c 0,0 0,-0.6 0,-21 0,-20.4 19.7,-65.9 67.9,-65.9 6.3,0 14.2,0 14.2,0 l -0.1,87 z"
   id="path2157"
   inkscape:connector-curvature="0"
   style="fill:#ff0000;stroke:#ff0000;stroke-width:0.25;stroke-miterlimit:10" />
			<polygon
   class="st8"
   points="1603.8,1001.4 1675.9,1001.5 1680.6,1068.1 1591.8,1068 "
   id="polygon2159"
   style="fill:#ff0000;stroke:#ff0000;stroke-width:0.25;stroke-miterlimit:10" />
			<polygon
   class="st8"
   points="1572,1099.2 1572,1086 1588.6,1073.4 1686.1,1073.5 1686.1,1099.4 "
   id="polygon2161"
   style="fill:#ff0000;stroke:#ff0000;stroke-width:0.25;stroke-miterlimit:10" />
			<path
   class="st8"
   d="m 1806.4,872 -0.1,45.1 c 0,15.7 -12.8,28.5 -28.6,28.5 l -43.6,-0.1 -69.7,-0.1 -43.6,-0.1 c -15.8,0 -28.5,-12.8 -28.5,-28.6 l 0.1,-45.1 50.1,0.1 c 2.8,28.9 27.2,51.5 56.8,51.6 29.7,0 54.1,-22.5 57,-51.4 z"
   id="path2163"
   inkscape:connector-curvature="0"
   style="fill:#ff0000;stroke:#ff0000;stroke-width:0.25;stroke-miterlimit:10" />
			<path
   class="st8"
   d="m 1806.5,815.6 -0.1,50.1 -49.7,-0.1 c -0.3,-31.3 -25.7,-56.6 -57.1,-56.7 -31.4,0 -56.9,25.2 -57.3,56.5 l -49.9,-0.1 0.1,-50.1 c 0,-15.7 12.8,-28.5 28.6,-28.5 L 1778,787 c 15.8,0.1 28.5,12.9 28.5,28.6 z"
   id="path2165"
   inkscape:connector-curvature="0"
   style="fill:#ff0000;stroke:#ff0000;stroke-width:0.25;stroke-miterlimit:10" />
			
				<rect
   x="1621.8"
   y="943.20001"
   transform="matrix(0.00164534,-1,1,0.00164534,667.6628,2615.7698)"
   class="st8"
   width="44.099998"
   height="60.700001"
   id="rect2167"
   style="fill:#ff0000;stroke:#ff0000;stroke-width:0.25;stroke-miterlimit:10" />
			
				<rect
   x="1732.7"
   y="943.29999"
   transform="matrix(0.00156199,-1,1,0.00156199,778.3669,2726.9326)"
   class="st8"
   width="44.099998"
   height="60.799999"
   id="rect2169"
   style="fill:#ff0000;stroke:#ff0000;stroke-width:0.25;stroke-miterlimit:10" />
			<polygon
   class="st8"
   points="1794.8,1001.7 1806.6,1068.3 1717.8,1068.2 1722.7,1001.6 "
   id="polygon2171"
   style="fill:#ff0000;stroke:#ff0000;stroke-width:0.25;stroke-miterlimit:10" />
			<polygon
   class="st8"
   points="1712.2,1099.4 1712.3,1073.5 1809.7,1073.7 1826.3,1086.4 1826.3,1099.6 "
   id="polygon2173"
   style="fill:#ff0000;stroke:#ff0000;stroke-width:0.25;stroke-miterlimit:10" />
			<g
   id="g2177">
				<path
   class="st8"
   d="m 1737.7,865.6 v 6.3 l -0.1,31.7 h -15.8 l 0.1,-31.6 v -6.3 -13 h -0.2 c -0.8,5 -1.9,9 -3.1,13 -0.4,1.2 -0.7,2.4 -1.1,3.6 l -0.9,2.6 -10.4,31.6 h -14.5 l -10.2,-31.7 -0.9,-2.6 c -0.4,-1.3 -0.8,-2.5 -1.1,-3.6 -1.1,-3.8 -2,-7.2 -3.3,-13.8 h -0.2 v 13.8 6.3 l -0.1,31.7 h -14.7 l 0.1,-31.7 v -6.3 -36.7 h 21.7 l 11.1,36.8 1.9,6.3 3.6,11.9 h 0.2 l 3.4,-11.9 1.8,-6.2 10.5,-36.7 h 22.2 z"
   id="path2175"
   inkscape:connector-curvature="0"
   style="fill:#ff0000;stroke:#ff0000;stroke-width:0.25;stroke-miterlimit:10" />
			</g>
			<path
   class="st5"
   d="m 1670.6,749.6 c 0,10.5 -8.6,19 -19.1,19 -10.5,0 -19.1,-8.5 -19,-19 0,-10.5 8.6,-19 19.1,-19 10.5,0 19,8.5 19,19 z"
   id="path2179"
   inkscape:connector-curvature="0"
   style="fill:#ffffff" />
			<path
   class="st8"
   d="m 1741.8,703.4 c -7.9,-4.3 -16.4,-7.4 -25.6,-9.1 0,0 -0.1,0 -0.1,0 -5.3,-1 -10.8,-1.5 -16.4,-1.5 -48.6,-0.1 -87.9,38.9 -88,87 l 175.8,0.3 c 0.1,-33.1 -18.4,-61.9 -45.7,-76.7 z m -90.3,65.2 c -10.5,0 -19.1,-8.5 -19,-19 0,-10.5 8.6,-19 19.1,-19 10.5,0 19,8.5 19,19.1 0,10.4 -8.6,18.9 -19.1,18.9 z m 96.2,0.2 c -10.5,0 -19,-8.5 -19,-19.1 0,-10.5 8.6,-19 19.1,-19 10.5,0 19,8.6 19,19.1 0,10.5 -8.6,19 -19.1,19 z"
   id="path2181"
   inkscape:connector-curvature="0"
   style="fill:#ff0000;stroke:#ff0000;stroke-width:0.25;stroke-miterlimit:10" />
			<path
   class="st5"
   d="m 1766.8,749.8 c 0,10.5 -8.6,19 -19.1,19 -10.5,0 -19,-8.5 -19,-19.1 0,-10.5 8.6,-19 19.1,-19 10.5,0 19,8.5 19,19.1 z"
   id="path2183"
   inkscape:connector-curvature="0"
   style="fill:#ffffff" />
			<path
   class="st8"
   d="m 1888.9,1001.8 c 0,0 -0.5,2.6 -2.2,6.5 -5.3,12.6 -22.3,39.1 -71.3,39 l 0.1,-45.7 73,0.1 z"
   id="path2185"
   inkscape:connector-curvature="0"
   style="fill:#ff0000;stroke:#ff0000;stroke-width:0.25;stroke-miterlimit:10" />
			<path
   class="st8"
   d="m 1895.3,877.5 c 0,20.5 0,21 0,21 h -1.1 -13.6 -6.8 v 21.2 h 6.5 l 8.8,76 -73.4,-0.1 9,-76 h 6.5 v -21.2 h -17.7 l 0.1,-87 c 0,0 7.9,0 14.2,0 20,0 35,7.9 45.8,18.5 15,15.1 21.7,35.7 21.7,47.6 z"
   id="path2187"
   inkscape:connector-curvature="0"
   style="fill:#ff0000;stroke:#ff0000;stroke-width:0.25;stroke-miterlimit:10" />
		</g><g
     id="g2195"
     transform="matrix(0.04582651,0,0,0.04582651,14.942276,-5.0893854)"
     style="fill:none"><g
       id="g2193"
       style="fill:none"><path
         sodipodi:nodetypes="ccccccccccc"
         id="path2191"
         d="m 262.809,146.572 c 0.43918,-0.67037 1.05499,-1.27846 5.941,-2.64493 13.17643,-3.04571 11.649,-27.901 -4.925,-25.537 -12.531,6.38807 -10.52414,3.02336 -34.707,24.35293 C 107.466,133.672 5.155,177.126 0.176,240.228 -2.2,270.347 19.644,279.38 56.328,281.596 v 58.288 H 379.93 v -32.829 c 37.657,3.928 61.405,-1.218 63.813,-31.847 4.569,-57.827 -74.184,-112.158 -180.934,-128.636 z"
         inkscape:connector-curvature="0"
         style="fill:none" /></g></g></g><g
   inkscape:label="B.Cu-disabled"
   inkscape:groupmode="layer"
   id="g1022"
   style="display:none"><path
     style="fill:#ff0000;fill-opacity:1;stroke:#000000;stroke-width:0.02456693;stroke-miterlimit:10;stroke-dasharray:none;stroke-opacity:1"
     d="m 59.514946,62.353662 c 0,-1.260765 0.568697,-5.58054 1.039283,-7.894305 0.958499,-4.712725 3.337938,-10.8813 5.325649,-13.806483 0.62854,-0.924977 0.635068,-0.98675 0.635068,-6.009397 0,-3.848698 -0.0755,-5.094965 -0.3125,-5.158223 -0.171875,-0.04588 -1.41293,-0.25588 -2.7579,-0.46668 -3.09929,-0.485757 -4.954758,-1.354827 -5.879849,-2.754025 -0.61556,-0.931032 -0.674751,-1.23161 -0.674751,-3.426452 0,-2.275878 0.05022,-2.506485 0.929318,-4.267317 1.18675,-2.377058 2.554514,-3.948468 5.04231,-5.793056 6.360191,-4.7157941 16.03382,-7.2159864 28.015016,-7.2406041 l 5.486643,-0.011273 1.757525,-1.479398 c 1.550602,-1.3052226 3.934212,-2.7120925 4.594992,-2.7120925 0.12747,0 0.52819,0.2331653 0.89048,0.518145 0.89432,0.7034711 0.93653,2.3837017 0.0801,3.1882765 -0.31823,0.2989682 -0.69048,0.5435785 -0.82721,0.5435785 -0.13674,0 -0.4568,0.152235 -0.71126,0.3383002 -0.41018,0.299929 -0.18166,0.3885853 2.01472,0.781641 5.39925,0.9662303 11.52917,2.987214 15.93147,5.2524804 6.2964,3.239892 10.8827,7.665829 12.44865,12.01337 0.712,1.976732 0.77115,5.340916 0.11629,6.614209 -1.33303,2.591882 -3.12186,3.360795 -7.70654,3.312574 l -2.9375,-0.0309 v 2.979306 c 0,2.97314 0.002,2.982115 0.868,4.336219 2.49127,3.89447 4.50346,11.028525 5.14303,18.234145 0.15653,1.763492 0.24621,3.244167 0.19928,3.29039 -0.0469,0.04622 -0.65702,-0.02018 -1.35577,-0.147533 -1.59498,-0.290722 -66.007138,-0.17246 -66.792044,0.122633 -0.474794,0.178502 -0.5625,0.127432 -0.5625,-0.327535 z"
     id="path2243"
     inkscape:connector-curvature="0"
     transform="scale(0.26458333)" /><path
     style="fill:#ff0000;fill-opacity:1;stroke:#000000;stroke-width:0.02456693;stroke-miterlimit:10;stroke-dasharray:none;stroke-opacity:1"
     d="m 52.5707,83.146857 0.06925,-12.4375 0.784551,-1.655845 c 0.965919,-2.038629 2.259749,-3.508351 4.191708,-4.761552 l 1.476259,-0.957603 h 34.913446 34.913446 l 1.48529,0.890656 c 0.81691,0.48986 1.90319,1.296306 2.41395,1.792101 1.1535,1.119699 2.55143,3.761903 2.91894,5.517048 0.30763,1.469146 0.38233,15.033327 0.11365,20.635667 l -0.16376,3.414528 H 94.094443 52.501454 Z"
     id="path2245"
     inkscape:connector-curvature="0"
     transform="scale(0.26458333)" /><path
     style="fill:#ff0000;fill-opacity:1;stroke:#000000;stroke-width:0.02456693;stroke-miterlimit:10;stroke-dasharray:none;stroke-opacity:1"
     d="m 20.013335,143.89686 c -0.0034,-0.38997 3.280291,-28.21329 3.393006,-28.75 0.103374,-0.49224 0.273679,-0.5625 1.363368,-0.5625 h 1.245237 v -4.375 -4.375 h -4.25 -4.25 v -4.10691 c 0,-6.034189 0.497805,-8.85634 2.286691,-12.963678 2.716657,-6.237528 7.206873,-11.158171 12.712187,-13.930762 4.510377,-2.271519 9.013178,-3.00916 16.063754,-2.631535 l 3.437368,0.184104 v 16.884436 16.884435 l -4.75,-0.12454 -4.75,-0.12454 v 4.33949 4.3395 h 1.25 c 0.82704,0 1.253992,0.10574 1.261797,0.3125 0.0065,0.17187 0.770383,6.80937 1.69754,14.75 l 1.68574,14.4375 H 34.212484 c -7.808646,0 -14.198263,-0.0844 -14.199149,-0.1875 z"
     id="path2247"
     inkscape:connector-curvature="0"
     transform="scale(0.26458333)" /><path
     style="fill:#ff0000;fill-opacity:1;stroke:#000000;stroke-width:0.02456693;stroke-miterlimit:10;stroke-dasharray:none;stroke-opacity:1"
     d="m 42.851509,164.05147 c -4.442788,-0.63871 -9.18397,-2.41598 -12.617215,-4.72967 -2.009111,-1.35396 -5.074826,-4.40553 -6.391919,-6.36244 -1.708656,-2.53869 -3.827429,-7.12736 -3.827429,-8.28914 0,-0.27719 2.467652,-0.33586 14.125,-0.33586 h 14.125 v 10 10 l -1.9375,-0.0309 c -1.065625,-0.017 -2.629797,-0.13038 -3.475937,-0.25203 z"
     id="path2249"
     inkscape:connector-curvature="0"
     transform="scale(0.26458333)" /><path
     style="fill:#ff0000;fill-opacity:1;stroke:#000000;stroke-width:0.02456693;stroke-miterlimit:10;stroke-dasharray:none;stroke-opacity:1"
     d="m 60.514946,135.55165 v -11.03271 l 0.9375,0.15495 c 0.515625,0.0852 5.803125,0.1562 11.75,0.15772 l 10.812499,0.003 v 10.875 10.875 h -11.749999 -11.75 z"
     id="path2251"
     inkscape:connector-curvature="0"
     transform="scale(0.26458333)" /><path
     style="fill:#ff0000;fill-opacity:1;stroke:#000000;stroke-width:0.02456693;stroke-miterlimit:10;stroke-dasharray:none;stroke-opacity:1"
     d="m 104.01495,135.71418 v -10.87017 l 11.75006,-0.0673 11.75007,-0.0673 -7e-5,10.9375 -6e-5,10.9375 h -11.75 -11.75 z"
     id="path2253"
     inkscape:connector-curvature="0"
     transform="scale(0.26458333)" /><path
     style="fill:#ff0000;fill-opacity:1;stroke:#000000;stroke-width:0.02456693;stroke-miterlimit:10;stroke-dasharray:none;stroke-opacity:1"
     d="m 101.60515,173.52186 c 0.0813,-0.72188 0.49248,-6.65625 0.91374,-13.1875 0.42126,-6.53125 0.8228,-12.24063 0.89232,-12.6875 l 0.12639,-0.8125 h 13.98867 c 9.97329,0 13.98868,0.0786 13.98868,0.27391 0,0.29496 4.16519,25.89652 4.39898,27.03859 l 0.14074,0.6875 H 118.756 101.45733 Z"
     id="path2255"
     inkscape:connector-curvature="0"
     transform="scale(0.26458333)" /><path
     style="fill:#ff0000;fill-opacity:1;stroke:#000000;stroke-width:0.02456693;stroke-miterlimit:10;stroke-dasharray:none;stroke-opacity:1"
     d="m 54.293138,161.64686 c 1.20806,-7.25313 2.263521,-13.55313 2.345469,-14 l 0.148995,-0.8125 h 13.967342 13.967341 l 0.153005,1.8125 c 0.234468,2.77752 1.639655,24.57111 1.639655,25.43004 v 0.75746 h -17.20914 -17.20914 z"
     id="path2257"
     inkscape:connector-curvature="0"
     transform="scale(0.26458333)" /><path
     style="fill:#ff0000;fill-opacity:1;stroke:#000000;stroke-width:0.02456693;stroke-miterlimit:10;stroke-dasharray:none;stroke-opacity:1"
     d="m 44.277734,182.39686 0.01279,-2.4375 3.220936,-2.4375 3.220936,-2.4375 h 19.016277 19.016274 v 4.875 4.875 h -22.249999 -22.25 z"
     id="path2259"
     inkscape:connector-curvature="0"
     transform="scale(0.26458333)" /><path
     style="fill:#ff0000;fill-opacity:1;stroke:#000000;stroke-width:0.02456693;stroke-miterlimit:10;stroke-dasharray:none;stroke-opacity:1"
     d="m 99.431612,184.91769 c -0.09167,-0.0917 -0.166667,-2.34167 -0.166667,-5 v -4.83333 h 18.968575 18.96858 l 3.28142,2.5135 3.28143,2.51351 v 2.48649 2.4865 h -22.08334 c -12.14583,0 -22.158331,-0.075 -22.249998,-0.16667 z"
     id="path2261"
     inkscape:connector-curvature="0"
     transform="scale(0.26458333)" /><path
     style="fill:#ff0000;fill-opacity:1;stroke:#000000;stroke-width:0.02456693;stroke-miterlimit:10;stroke-dasharray:none;stroke-opacity:1"
     d="m 139.84931,158.02186 c 0.0905,-3.60938 0.16484,-8.10938 0.16512,-10 l 5.2e-4,-3.4375 h 14.23428 14.23428 l -0.13187,0.9375 c -0.61255,4.3546 -2.4946,7.74739 -6.29463,11.34739 -4.63766,4.39354 -10.46292,6.76335 -18.3387,7.46048 -1.5556,0.13769 -3.09954,0.25131 -3.43099,0.25249 l -0.60262,0.002 z"
     id="path2263"
     inkscape:connector-curvature="0"
     transform="scale(0.26458333)" /><path
     style="fill:#ff0000;fill-opacity:1;stroke:#000000;stroke-width:0.02456693;stroke-miterlimit:10;stroke-dasharray:none;stroke-opacity:1"
     d="m 140.08317,143.27186 c 0.0749,-0.58438 0.84502,-7.22188 1.71137,-14.75 l 1.57517,-13.6875 h 1.32262 1.32262 v -4.375 -4.375 h -4.875 -4.875 V 89.184736 72.285116 l 6.4375,0.118178 c 7.24446,0.132993 8.62447,0.373104 12.4672,2.169205 5.5308,2.585104 9.97052,7.131505 12.82862,13.136858 2.20875,4.640958 2.75671,7.331352 2.76234,13.562503 l 0.004,4.8125 h -4.125 -4.125 v 4.375 4.375 h 1.25 c 0.82682,0 1.25413,0.10579 1.26219,0.3125 0.007,0.17187 0.77121,6.80937 1.69888,14.75 l 1.68669,14.4375 H 154.1795 139.94664 Z"
     id="path2265"
     inkscape:connector-curvature="0"
     transform="scale(0.26458333)" /><path
     style="fill:#ff0000;fill-opacity:1;stroke:#000000;stroke-width:0.02456693;stroke-miterlimit:10;stroke-dasharray:none;stroke-opacity:1"
     d="m 84.264945,124.33436 c 0,-0.16322 -4.197137,-0.25 -12.09141,-0.25 H 60.082124 l -1.766491,-0.88374 c -2.960272,-1.48097 -5.07,-4.25763 -5.786879,-7.61626 -0.213612,-1.00079 -0.245386,-3.87772 -0.116749,-10.57091 l 0.176737,-9.195902 41.525601,0.167777 c 22.839087,0.09228 41.547537,0.183615 41.574337,0.202971 0.0268,0.01936 0.083,4.419514 0.125,9.778124 l 0.0763,9.74294 -0.59933,1.5 c -1.15381,2.88773 -3.04792,4.9856 -5.65876,6.26749 l -1.49191,0.73251 -12.1875,-0.0577 c -7.83792,-0.0371 -12.1875,0.0298 -12.1875,0.1875 0,0.15606 -3.54438,0.24519 -9.750005,0.24519 -6.333332,0 -9.75,-0.0876 -9.75,-0.25 z"
     id="path2267"
     inkscape:connector-curvature="0"
     transform="scale(0.26458333)" /></g><g
   inkscape:label="B.Mask-disabled"
   inkscape:groupmode="layer"
   id="g1024" /><g
   inkscape:label="B.Silk-disabled"
   inkscape:groupmode="layer"
   id="g1026" /><g
   inkscape:label="F.Cu"
   inkscape:groupmode="layer"
   id="g1028" /><g
   inkscape:label="F.Mask-disabled"
   inkscape:groupmode="layer"
   id="g1030" /><g
   inkscape:label="F.Silk-disabled"
   inkscape:groupmode="layer"
   id="g1032" /><g
   inkscape:label="Drill"
   inkscape:groupmode="layer"
   id="g1034" /></svg>