<?xml version="1.0" encoding="UTF-8" standalone="no"?>
<!-- Created with Inkscape (http://www.inkscape.org/) -->

<svg
   xmlns:dc="http://purl.org/dc/elements/1.1/"
   xmlns:cc="http://creativecommons.org/ns#"
   xmlns:rdf="http://www.w3.org/1999/02/22-rdf-syntax-ns#"
   xmlns:svg="http://www.w3.org/2000/svg"
   xmlns="http://www.w3.org/2000/svg"
   xmlns:sodipodi="http://sodipodi.sourceforge.net/DTD/sodipodi-0.dtd"
   xmlns:inkscape="http://www.inkscape.org/namespaces/inkscape"
   version="1.1"
   id="svg2"
   xml:space="preserve"
   width="50.0mm"
   height="50.0mm"
   viewBox="0 0 50.0 50.0"
   sodipodi:docname="Xircuitos_001.svg"
   inkscape:version="0.92.3 (2405546, 2018-03-11)"><sodipodi:namedview
     pagecolor="#ffffff"
     bordercolor="#666666"
     borderopacity="1"
     objecttolerance="10"
     gridtolerance="10"
     guidetolerance="10"
     inkscape:pageopacity="0"
     inkscape:pageshadow="2"
     inkscape:window-width="1438"
     inkscape:window-height="985"
     id="namedview4"
     showgrid="true"
     inkscape:zoom="4.6505869"
     inkscape:cx="17.125466"
     inkscape:cy="90.407415"
     inkscape:window-x="476"
     inkscape:window-y="36"
     inkscape:window-maximized="0"
     inkscape:current-layer="g46"
     borderlayer="true"
     inkscape:document-units="mm"><inkscape:grid
       id="grid22"
       units="mm"
       type="xygrid"
       empspacing="1"
       spacingy="2.54"
       spacingx="2.54" /></sodipodi:namedview><metadata
     id="metadata8"><rdf:RDF><cc:Work
         rdf:about=""><dc:format>image/svg+xml</dc:format><dc:type
           rdf:resource="http://purl.org/dc/dcmitype/StillImage" /><dc:title></dc:title></cc:Work></rdf:RDF></metadata><defs
     id="defs6" /><g
     transform="matrix(1.3333333,0,0,-1.3333333,0,377.33333)"
     inkscape:label="Xircuitos"
     inkscape:groupmode="layer"
     id="g10"
     style="display:none"><g
       transform="matrix(0.00585006,0,0,0.00585006,-23.477474,240.27098)"
       id="g12"><path
         inkscape:connector-curvature="0"
         id="path14"
         style="fill:none;stroke:#163b14;stroke-width:56.69300079;stroke-linecap:butt;stroke-linejoin:miter;stroke-miterlimit:4;stroke-dasharray:none;stroke-opacity:1"
         d="M 2164.02,987.93 H 3880.27 V 2704.18 H 2164.02 Z" /><path
         inkscape:connector-curvature="0"
         id="path16"
         style="fill:#369e2b;fill-opacity:1;fill-rule:evenodd;stroke:none"
         d="m 2791.48,1847.97 -322.69,-469.18 c -9.06,2.15 -18.52,3.28 -28.24,3.28 -33.95,0 -64.69,-13.79 -86.96,-36.02 -22.26,-22.26 -36.01,-53 -36.01,-86.95 0,-33.98 13.75,-64.73 36.01,-86.95 22.27,-22.27 53.01,-36.02 86.96,-36.02 33.94,0 64.68,13.75 86.95,36.02 22.27,22.22 36.02,52.97 36.02,86.95 0,25.63 -7.86,49.45 -21.29,69.14 l 357.07,519.18 -363.56,540.43 h 228.09 l 260.12,-419.96 217.5,345 c 7.57,-1.44 15.39,-2.23 23.39,-2.23 33.95,0 64.69,13.79 86.96,36.02 22.26,22.27 36.01,53.01 36.01,86.95 0,33.95 -13.75,64.69 -36.01,86.96 -22.27,22.26 -53.01,36.01 -86.96,36.01 -33.94,0 -64.68,-13.75 -86.95,-36.01 -22.26,-22.27 -36.01,-53.01 -36.01,-86.96 0,-27.38 8.98,-52.73 24.14,-73.16 l -141.45,-224.38 -211.33,341.18 H 2368.13 Z M 2440.55,1315 c 15.43,0 29.41,-6.29 39.53,-16.37 10.12,-10.11 16.37,-24.1 16.37,-39.53 0,-15.47 -6.25,-29.41 -16.37,-39.53 -10.12,-10.12 -24.1,-16.37 -39.53,-16.37 -15.43,0 -29.42,6.25 -39.53,16.37 -10.12,10.12 -16.37,24.06 -16.37,39.53 0,15.43 6.25,29.42 16.37,39.53 10.11,10.08 24.1,16.37 39.53,16.37 z m 824.29,1062.73 c -15.43,0 -29.41,6.25 -39.53,16.37 -10.11,10.12 -16.36,24.1 -16.36,39.53 0,15.43 6.25,29.42 16.36,39.53 10.12,10.12 24.1,16.37 39.53,16.37 15.43,0 29.42,-6.25 39.54,-16.37 10.11,-10.11 16.36,-24.1 16.36,-39.53 0,-15.43 -6.25,-29.41 -16.36,-39.53 -10.12,-10.12 -24.11,-16.37 -39.54,-16.37 z" /><path
         inkscape:connector-curvature="0"
         id="path18"
         style="fill:#369e2b;fill-opacity:1;fill-rule:evenodd;stroke:none"
         d="m 3020.82,1743.2 -230.94,-363.43 c -7.69,1.48 -15.62,2.3 -23.75,2.3 -33.94,0 -64.68,-13.79 -86.95,-36.02 -22.27,-22.26 -36.02,-53 -36.02,-86.95 0,-33.98 13.75,-64.73 36.02,-86.95 22.27,-22.27 53.01,-36.02 86.95,-36.02 33.95,0 64.69,13.75 86.96,36.02 22.26,22.22 36.01,52.97 36.01,86.95 0,27.19 -8.83,52.35 -23.83,72.74 l 154.81,243.59 225,-361.37 426.95,8.24 -416.6,636.57 314.57,454.06 c 9.18,-2.19 18.75,-3.36 28.63,-3.36 33.95,0 64.69,13.79 86.96,36.02 22.22,22.26 36.01,53 36.01,86.95 0,33.98 -13.79,64.73 -36.01,86.95 -22.27,22.27 -53.01,36.02 -86.96,36.02 -33.94,0 -64.68,-13.75 -86.95,-36.02 -22.27,-22.22 -36.02,-52.97 -36.02,-86.95 0,-25.47 7.74,-49.18 21.06,-68.83 l -348.87,-503.59 361.17,-551.84 -214.84,-4.18 z M 2766.13,1315 c 15.43,0 29.42,-6.29 39.53,-16.37 10.12,-10.11 16.37,-24.1 16.37,-39.53 0,-15.47 -6.25,-29.41 -16.37,-39.53 -10.11,-10.12 -24.1,-16.37 -39.53,-16.37 -15.43,0 -29.41,6.25 -39.53,16.37 -10.12,10.12 -16.37,24.06 -16.37,39.53 0,15.43 6.25,29.42 16.37,39.53 10.12,10.08 24.1,16.37 39.53,16.37 z m 792.97,1078.01 c -10.12,10.11 -16.37,24.1 -16.37,39.53 0,15.47 6.25,29.41 16.37,39.53 10.12,10.12 24.1,16.37 39.53,16.37 15.43,0 29.42,-6.25 39.53,-16.37 10.12,-10.12 16.37,-24.06 16.37,-39.53 0,-15.43 -6.25,-29.42 -16.37,-39.53 -10.11,-10.08 -24.1,-16.37 -39.53,-16.37 -15.43,0 -29.41,6.29 -39.53,16.37 z" /></g></g><g
     id="g32"
     sodipodi:insensitive="true"
     inkscape:groupmode="layer"
     inkscape:label="[fixed] BG"><rect
       id="rect30"
       style="stroke:none;fill-opacity:1;fill:#FFFFFF"
       height="50.0"
       width="50.0"
       y="0"
       x="0" /></g><g
     id="g34"
     inkscape:groupmode="layer"
     inkscape:label="Edge.Cuts" /><g
     id="g36"
     inkscape:groupmode="layer"
     inkscape:label="B.Cu-disabled" /><g
     id="g38"
     inkscape:groupmode="layer"
     inkscape:label="B.Mask-disabled" /><g
     id="g40"
     inkscape:groupmode="layer"
     inkscape:label="B.Silk-disabled" /><g
     id="g42"
     inkscape:groupmode="layer"
     inkscape:label="F.Cu" /><g
     id="g44"
     inkscape:groupmode="layer"
     inkscape:label="F.Mask-disabled" /><g
     id="g46"
     inkscape:groupmode="layer"
     inkscape:label="F.Silk-disabled"><path
       d="M -14.497879,34.084711 H -1.1109916 V 20.697824 H -14.497879 Z"
       style="fill:none;stroke:#000000;stroke-width:0.44220993;stroke-linecap:butt;stroke-linejoin:miter;stroke-miterlimit:4;stroke-dasharray:none;stroke-opacity:1"
       id="path14-3"
       inkscape:connector-curvature="0" /><path
       d="m -9.6036407,27.37633 -2.5170073,3.659642 c -0.07067,-0.01677 -0.144458,-0.02558 -0.220275,-0.02558 -0.264812,0 -0.504587,0.107564 -0.678295,0.280959 -0.173629,0.17363 -0.280881,0.413405 -0.280881,0.678217 0,0.265047 0.107252,0.504899 0.280881,0.678217 0.173708,0.173708 0.413483,0.280959 0.678295,0.280959 0.264735,0 0.504509,-0.107251 0.678217,-0.280959 0.173708,-0.173318 0.280959,-0.41317 0.280959,-0.678217 0,-0.199916 -0.06131,-0.385714 -0.166064,-0.539297 l 2.7851749,-4.049646 -2.8357969,-4.215397 h 1.7791201 l 2.0289568,3.275722 1.6965174,-2.691028 c 0.059047,0.01123 0.1200432,0.01739 0.1824439,0.01739 0.2648127,0 0.5045872,-0.107563 0.6782949,-0.280959 0.1736298,-0.173708 0.2808809,-0.413482 0.2808809,-0.678217 0,-0.264812 -0.1072511,-0.504587 -0.2808809,-0.678295 -0.1737077,-0.173629 -0.4134822,-0.280881 -0.6782949,-0.280881 -0.2647347,0 -0.5045092,0.107252 -0.678217,0.280881 -0.1736297,0.173708 -0.2808808,0.413483 -0.2808808,0.678295 0,0.213567 0.070045,0.411299 0.1882939,0.570654 L -7.78552,25.128971 -9.4339109,22.46774 h -3.4718941 z m -2.7372823,4.157209 c 0.120355,0 0.229401,0.04906 0.308337,0.127687 0.07894,0.07886 0.127688,0.187982 0.127688,0.308337 0,0.120668 -0.04875,0.229401 -0.127688,0.308337 -0.07894,0.07894 -0.187982,0.127688 -0.308337,0.127688 -0.120355,0 -0.229478,-0.04875 -0.308337,-0.127688 -0.07894,-0.07894 -0.127687,-0.187669 -0.127687,-0.308337 0,-0.120355 0.04875,-0.229478 0.127687,-0.308337 0.07886,-0.07862 0.187982,-0.127687 0.308337,-0.127687 z m 6.4295282,-8.289379 c -0.1203552,0 -0.2294004,-0.04875 -0.3083372,-0.127688 -0.078859,-0.07894 -0.1276093,-0.187981 -0.1276093,-0.308337 0,-0.120355 0.04875,-0.229478 0.1276093,-0.308337 0.078937,-0.07894 0.187982,-0.127687 0.3083372,-0.127687 0.1203552,0 0.2294783,0.04875 0.3084152,0.127687 0.078859,0.07886 0.1276093,0.187982 0.1276093,0.308337 0,0.120356 -0.048751,0.229401 -0.1276093,0.308337 -0.078937,0.07894 -0.18806,0.127688 -0.3084152,0.127688 z"
       style="fill:#000000;fill-opacity:1;fill-rule:evenodd;stroke:#000000;stroke-width:0.00780008;stroke-opacity:1"
       id="path16-5"
       inkscape:connector-curvature="0" /><path
       d="m -7.8147703,28.193545 -1.8013505,2.834783 c -0.059983,-0.01154 -0.1218373,-0.01794 -0.1852519,-0.01794 -0.2647343,0 -0.5045093,0.107564 -0.6782173,0.280959 -0.173707,0.17363 -0.280959,0.413405 -0.280959,0.678217 0,0.265047 0.107252,0.504899 0.280959,0.678217 0.173708,0.173708 0.413483,0.280959 0.6782173,0.280959 0.2648127,0 0.5045872,-0.107251 0.6782949,-0.280959 0.1736298,-0.173318 0.2808809,-0.41317 0.2808809,-0.678217 0,-0.212084 -0.068875,-0.408334 -0.1858759,-0.567378 l 1.2075304,-1.900021 1.755018,2.818715 3.3302442,-0.06427 -3.2495134,-4.965297 2.4536712,-3.541704 c 0.071605,0.01708 0.1462515,0.02621 0.2233163,0.02621 0.2648127,0 0.5045872,-0.107563 0.6782949,-0.280959 0.1733178,-0.173629 0.2808809,-0.413404 0.2808809,-0.678217 0,-0.265046 -0.1075631,-0.504899 -0.2808809,-0.678217 -0.1737077,-0.173707 -0.4134822,-0.280958 -0.6782949,-0.280958 -0.2647347,0 -0.5045092,0.107251 -0.678217,0.280958 -0.1737077,0.173318 -0.2809588,0.413171 -0.2809588,0.678217 0,0.198668 0.060373,0.383608 0.1642696,0.53688 l -2.7212139,3.928042 2.8171549,4.304396 -1.6757692,0.03261 z m -1.9866024,3.339994 c 0.1203552,0 0.2294783,0.04906 0.3083372,0.127687 0.078937,0.07886 0.1276873,0.187982 0.1276873,0.308337 0,0.120668 -0.048751,0.229401 -0.1276873,0.308337 -0.078859,0.07894 -0.187982,0.127688 -0.3083372,0.127688 -0.1203552,0 -0.2294003,-0.04875 -0.3083373,-0.127688 -0.07894,-0.07894 -0.127687,-0.187669 -0.127687,-0.308337 0,-0.120355 0.04875,-0.229478 0.127687,-0.308337 0.07894,-0.07862 0.1879821,-0.127687 0.3083373,-0.127687 z m 6.1852294,-8.408564 c -0.078937,-0.07886 -0.1276873,-0.187982 -0.1276873,-0.308338 0,-0.120667 0.04875,-0.2294 0.1276873,-0.308337 0.078937,-0.07894 0.187982,-0.127687 0.3083372,-0.127687 0.1203552,0 0.2294783,0.04875 0.3083372,0.127687 0.078937,0.07894 0.1276873,0.18767 0.1276873,0.308337 0,0.120356 -0.048751,0.229479 -0.1276873,0.308338 -0.078859,0.07862 -0.187982,0.127687 -0.3083372,0.127687 -0.1203552,0 -0.2294004,-0.04906 -0.3083372,-0.127687 z"
       style="fill:#000000;fill-opacity:1;fill-rule:evenodd;stroke:#000000;stroke-width:0.00780008;stroke-opacity:1"
       id="path18-6"
       inkscape:connector-curvature="0" /></g><g
     id="g48"
     inkscape:groupmode="layer"
     inkscape:label="Drill" /></svg>