G04 #@! TF.GenerationSoftware,KiCad,Pcbnew,5.1.4-e60b266~84~ubuntu18.04.1*
G04 #@! TF.CreationDate,2019-10-12T11:31:16-06:00*
G04 #@! TF.ProjectId,001,3030312e-6b69-4636-9164-5f7063625858,1*
G04 #@! TF.SameCoordinates,Original*
G04 #@! TF.FileFunction,Soldermask,Bot*
G04 #@! TF.FilePolarity,Negative*
%FSLAX46Y46*%
G04 Gerber Fmt 4.6, Leading zero omitted, Abs format (unit mm)*
G04 Created by KiCad (PCBNEW 5.1.4-e60b266~84~ubuntu18.04.1) date 2019-10-12 11:31:16*
%MOMM*%
%LPD*%
G04 APERTURE LIST*
%ADD10C,0.152400*%
%ADD11C,0.010000*%
G04 APERTURE END LIST*
D10*
G36*
X148139399Y-123636371D02*
G01*
X148134199Y-123601921D01*
X148132499Y-123562301D01*
X148011920Y-123352149D01*
X147848278Y-123179894D01*
X147824168Y-123155774D01*
X147805218Y-123129934D01*
X147782828Y-123109264D01*
X147751818Y-123095484D01*
X147648466Y-123004184D01*
X147522720Y-122924944D01*
X147391806Y-122847434D01*
X147271228Y-122761304D01*
X147241948Y-122769904D01*
X147217828Y-122768204D01*
X147178208Y-122814714D01*
X147126528Y-122840554D01*
X147076578Y-122871564D01*
X147040408Y-122919794D01*
X147052468Y-122928394D01*
X147047268Y-122947344D01*
X147043868Y-122966294D01*
X147059368Y-122974894D01*
X147047308Y-122986954D01*
X147035248Y-122999014D01*
X147040448Y-123016234D01*
X147040448Y-123035184D01*
X147133468Y-123088584D01*
X147240266Y-123140264D01*
X147353954Y-123200554D01*
X147467642Y-123272904D01*
X147583053Y-123364204D01*
X147693296Y-123471003D01*
X147793206Y-123586414D01*
X147872446Y-123701825D01*
X147863846Y-123717325D01*
X147853516Y-123732825D01*
X147731215Y-123732825D01*
X147617527Y-123739725D01*
X147608927Y-123725945D01*
X147598587Y-123713885D01*
X147379823Y-123675985D01*
X147173117Y-123620865D01*
X147228237Y-123601915D01*
X147228237Y-123584685D01*
X147209287Y-123567465D01*
X147255797Y-123526125D01*
X147276467Y-123458945D01*
X147264407Y-123434834D01*
X147276467Y-123412444D01*
X147286807Y-123412444D01*
X147290207Y-123419344D01*
X147293607Y-123426244D01*
X147302207Y-123426244D01*
X147293607Y-123395234D01*
X147283267Y-123365954D01*
X147140296Y-123271214D01*
X147085176Y-123307384D01*
X147016276Y-123345284D01*
X146942206Y-123384904D01*
X146871586Y-123422804D01*
X146818186Y-123457255D01*
X146775126Y-123498595D01*
X146733786Y-123539935D01*
X146683836Y-123574384D01*
X146680436Y-123619175D01*
X146677036Y-123660515D01*
X146756276Y-123760425D01*
X146861351Y-123829325D01*
X146983652Y-123879275D01*
X147118011Y-123917175D01*
X147257537Y-123955075D01*
X147393618Y-123999865D01*
X147443568Y-124001565D01*
X147483188Y-124006765D01*
X147521088Y-124013665D01*
X147562428Y-124018865D01*
X147574488Y-124022265D01*
X147581388Y-124030865D01*
X147643398Y-124036065D01*
X147689908Y-124036065D01*
X147739858Y-124042965D01*
X147788088Y-124048165D01*
X148030967Y-123937922D01*
X148127427Y-123653701D01*
X148130827Y-123643371D01*
X148139427Y-123636471D01*
X148139399Y-123636371D01*
X148139399Y-123636371D01*
G37*
G36*
X146604264Y-123904743D02*
G01*
X146180693Y-123295105D01*
X146209973Y-123374345D01*
X146058389Y-123334725D01*
X145908527Y-123272715D01*
X145953317Y-123171085D01*
X146029107Y-123117685D01*
X146029113Y-123117685D01*
X146079063Y-123177975D01*
X146134183Y-123233095D01*
X146180693Y-123295105D01*
X146604264Y-123904743D01*
X146619764Y-123892683D01*
X146635264Y-123863403D01*
X146616314Y-123863403D01*
X146623214Y-123794503D01*
X146607714Y-123732493D01*
X146593934Y-123673923D01*
X146599134Y-123613633D01*
X146587074Y-123610233D01*
X146580174Y-123586113D01*
X146578474Y-123555103D01*
X146580174Y-123527543D01*
X146545724Y-123417299D01*
X146521604Y-123305334D01*
X146499214Y-123196813D01*
X146464764Y-123096903D01*
X146414814Y-123103803D01*
X146378644Y-123126193D01*
X146283904Y-123026283D01*
X146201224Y-122912595D01*
X146104764Y-122812685D01*
X145972127Y-122761005D01*
X145879107Y-122824735D01*
X145794697Y-122907415D01*
X145768857Y-122926365D01*
X145741297Y-122943595D01*
X145741297Y-122969435D01*
X145701677Y-123022835D01*
X145672397Y-123086565D01*
X145646557Y-123153745D01*
X145618997Y-123217475D01*
X145622397Y-123236425D01*
X145618997Y-123251925D01*
X145613797Y-123269145D01*
X145612097Y-123291535D01*
X145672387Y-123439674D01*
X145799856Y-123530975D01*
X145958330Y-123591265D01*
X146111637Y-123644665D01*
X146104737Y-123651565D01*
X146099537Y-123661895D01*
X146020297Y-123711845D01*
X145966897Y-123744575D01*
X145911777Y-123765245D01*
X145827367Y-123785915D01*
X145744687Y-123806585D01*
X145689567Y-123818645D01*
X145637887Y-123825545D01*
X145563817Y-123834145D01*
X145532807Y-123878935D01*
X145515577Y-123930615D01*
X145513877Y-123980565D01*
X145527657Y-124016735D01*
X145519057Y-124023635D01*
X145501837Y-124023635D01*
X145522507Y-124044305D01*
X145539737Y-124068425D01*
X145560407Y-124090815D01*
X145587967Y-124102875D01*
X145746442Y-124104575D01*
X145992766Y-124025335D01*
X146113344Y-123975385D01*
X146194304Y-123932325D01*
X146258034Y-123885815D01*
X146325214Y-123825525D01*
X146332114Y-123832425D01*
X146337314Y-123839325D01*
X146364874Y-123951289D01*
X146416554Y-124039140D01*
X146454454Y-124044340D01*
X146476844Y-124063290D01*
X146502684Y-124061590D01*
X146518184Y-124052990D01*
X146533684Y-124042650D01*
X146561244Y-124039250D01*
X146571584Y-124009970D01*
X146599144Y-123996190D01*
X146595744Y-123970350D01*
X146600944Y-123949679D01*
X146607844Y-123929010D01*
X146604444Y-123904890D01*
X146604264Y-123904743D01*
X146604264Y-123904743D01*
G37*
G36*
X144550986Y-123083087D02*
G01*
X144550986Y-123102037D01*
X144552686Y-123112367D01*
X144552686Y-123124427D01*
X144549286Y-123141657D01*
X144633696Y-123222617D01*
X144735326Y-123253627D01*
X144849014Y-123272577D01*
X144962702Y-123317367D01*
X145004042Y-123317367D01*
X145055722Y-123322567D01*
X145081562Y-123338067D01*
X145112572Y-123346667D01*
X145107372Y-123379398D01*
X145102172Y-123405237D01*
X144969535Y-123403537D01*
X144824841Y-123394937D01*
X144826541Y-123406997D01*
X144828241Y-123415597D01*
X144804121Y-123437987D01*
X144780001Y-123462108D01*
X144755881Y-123482778D01*
X144724871Y-123487978D01*
X144716271Y-123518988D01*
X144719671Y-123551718D01*
X144774791Y-123591338D01*
X144833361Y-123625788D01*
X144897091Y-123651628D01*
X144971161Y-123658528D01*
X144984941Y-123658528D01*
X144995281Y-123653328D01*
X145034901Y-123658528D01*
X145072801Y-123663728D01*
X145119311Y-123656828D01*
X145165821Y-123649928D01*
X145215771Y-123727438D01*
X145255391Y-123815288D01*
X145158931Y-123822188D01*
X145084861Y-123816988D01*
X145014241Y-123808388D01*
X144922941Y-123804988D01*
X144841981Y-123780868D01*
X144754131Y-123760198D01*
X144730011Y-123779148D01*
X144711061Y-123803268D01*
X144690391Y-123822218D01*
X144664551Y-123829118D01*
X144655951Y-123846348D01*
X144650751Y-123863568D01*
X144645551Y-123879068D01*
X144630051Y-123882468D01*
X144690341Y-123970318D01*
X144766131Y-124015108D01*
X144862591Y-124039218D01*
X144978002Y-124059888D01*
X145003842Y-124058188D01*
X145027962Y-124054788D01*
X145122702Y-124070288D01*
X145234668Y-124075488D01*
X145343188Y-124059988D01*
X145427588Y-124015198D01*
X145446538Y-123987638D01*
X145468928Y-123961798D01*
X145475828Y-123911848D01*
X145486158Y-123855008D01*
X145494758Y-123794718D01*
X145491358Y-123741318D01*
X145470688Y-123694808D01*
X145458628Y-123650018D01*
X145448288Y-123641418D01*
X145434508Y-123634518D01*
X145412118Y-123575948D01*
X145387998Y-123522548D01*
X145362158Y-123470868D01*
X145336318Y-123410577D01*
X145372488Y-123362347D01*
X145387988Y-123308947D01*
X145396588Y-123253827D01*
X145408648Y-123195257D01*
X145367308Y-123153917D01*
X145312188Y-123126357D01*
X145248448Y-123109127D01*
X145176098Y-123093627D01*
X145053797Y-123059177D01*
X144946999Y-123040227D01*
X144836756Y-123024727D01*
X144707565Y-123004057D01*
X144678285Y-123019557D01*
X144662785Y-123010957D01*
X144654185Y-123000627D01*
X144611125Y-123050577D01*
X144550835Y-123083307D01*
X144550986Y-123083087D01*
X144550986Y-123083087D01*
G37*
G36*
X144041112Y-123601575D02*
G01*
X144061782Y-123627415D01*
X144079012Y-123656695D01*
X144097962Y-123692865D01*
X144123802Y-123723875D01*
X144141032Y-123765215D01*
X144168592Y-123797945D01*
X144249552Y-123947807D01*
X144259892Y-123978817D01*
X144275392Y-124006377D01*
X144282292Y-124018437D01*
X144287492Y-124027037D01*
X144290892Y-124044267D01*
X144309842Y-124068387D01*
X144328792Y-124087337D01*
X144340852Y-124101117D01*
X144366692Y-124111447D01*
X144519998Y-123977089D01*
X144518298Y-123959859D01*
X144513098Y-123942639D01*
X144506198Y-123921969D01*
X144490698Y-123873739D01*
X144461418Y-123830679D01*
X144445918Y-123792779D01*
X144404578Y-123711819D01*
X144366678Y-123646359D01*
X144344288Y-123608459D01*
X144385628Y-123558509D01*
X144425248Y-123475829D01*
X144449368Y-123405208D01*
X144454568Y-123367308D01*
X144461468Y-123334578D01*
X144470068Y-123296678D01*
X144473468Y-123257058D01*
X144483798Y-123232938D01*
X144480398Y-123215708D01*
X144478698Y-123184698D01*
X144487298Y-123143358D01*
X144495898Y-123105458D01*
X144497598Y-123064118D01*
X144487258Y-123026218D01*
X144454528Y-122993488D01*
X144425248Y-122991788D01*
X144395968Y-123009018D01*
X144366688Y-123024518D01*
X144330518Y-123041748D01*
X144294348Y-123064138D01*
X144282288Y-123088258D01*
X144259898Y-123107208D01*
X144259898Y-123126158D01*
X144258198Y-123145108D01*
X144251298Y-123172668D01*
X144244398Y-123193339D01*
X144239198Y-123239848D01*
X144228868Y-123279468D01*
X144218538Y-123319088D01*
X144216838Y-123363878D01*
X144199608Y-123351818D01*
X144192708Y-123346618D01*
X144185808Y-123341418D01*
X144084178Y-123203614D01*
X144087578Y-123186384D01*
X144051408Y-123151934D01*
X144025568Y-123126094D01*
X144003178Y-123100254D01*
X143984228Y-123086474D01*
X143827476Y-122979676D01*
X143803356Y-122976276D01*
X143796456Y-122998666D01*
X143768896Y-123033116D01*
X143722386Y-123062396D01*
X143706886Y-123072736D01*
X143698286Y-123098576D01*
X143699986Y-123114076D01*
X143693086Y-123131306D01*
X143727536Y-123191596D01*
X143765436Y-123226046D01*
X143794716Y-123251886D01*
X143813666Y-123279446D01*
X143825726Y-123293226D01*
X143872236Y-123348346D01*
X143877436Y-123369016D01*
X143898106Y-123369016D01*
X143906706Y-123375916D01*
X143923936Y-123405196D01*
X143941156Y-123427586D01*
X143949756Y-123436187D01*
X143954956Y-123449967D01*
X143960156Y-123463747D01*
X143987716Y-123498197D01*
X143999776Y-123522317D01*
X144013556Y-123549877D01*
X144032506Y-123575717D01*
X144041112Y-123601575D01*
X144041112Y-123601575D01*
G37*
G36*
X143532960Y-123739379D02*
G01*
X143555350Y-123758329D01*
X143569130Y-123787609D01*
X143581190Y-123816889D01*
X143598420Y-123828949D01*
X143608750Y-123853069D01*
X143622530Y-123875459D01*
X143632860Y-123899579D01*
X143629460Y-123928859D01*
X143646680Y-123958139D01*
X143655280Y-123994309D01*
X143669060Y-124023589D01*
X143706960Y-124033929D01*
X143708660Y-124042529D01*
X143703460Y-124054589D01*
X143732740Y-124056289D01*
X143755130Y-124064889D01*
X143810250Y-124028719D01*
X143848150Y-123971879D01*
X143877430Y-123906419D01*
X143901550Y-123849579D01*
X143899850Y-123813409D01*
X143911910Y-123782399D01*
X143890570Y-123737239D01*
X143868740Y-123691319D01*
X143846430Y-123644649D01*
X143823630Y-123597229D01*
X143800350Y-123549049D01*
X143776580Y-123500119D01*
X143752330Y-123450429D01*
X143727590Y-123399988D01*
X143702770Y-123349248D01*
X143678280Y-123298678D01*
X143654110Y-123248268D01*
X143630260Y-123198018D01*
X143606740Y-123147928D01*
X143583540Y-123097998D01*
X143560660Y-123048228D01*
X143538110Y-122998628D01*
X143460600Y-123034798D01*
X143389980Y-123079588D01*
X143334860Y-123139878D01*
X143305580Y-123213948D01*
X143314180Y-123222548D01*
X143321080Y-123224248D01*
X143314180Y-123236308D01*
X143314180Y-123243208D01*
X143314180Y-123253548D01*
X143308980Y-123269048D01*
X143319310Y-123270748D01*
X143329650Y-123270748D01*
X143326250Y-123301758D01*
X143333150Y-123324148D01*
X143341750Y-123344818D01*
X143340050Y-123372378D01*
X143348650Y-123375778D01*
X143352050Y-123380979D01*
X143357250Y-123386178D01*
X143364150Y-123386178D01*
X143360750Y-123461969D01*
X143364150Y-123539479D01*
X143362450Y-123620439D01*
X143350390Y-123706569D01*
X143252210Y-123613549D01*
X143191920Y-123486080D01*
X143155750Y-123334495D01*
X143129910Y-123169130D01*
X143105790Y-123131230D01*
X143090290Y-123084720D01*
X143076510Y-123034770D01*
X143059280Y-122988260D01*
X143016220Y-123005490D01*
X142981770Y-123033050D01*
X142949040Y-123060610D01*
X142905980Y-123076110D01*
X142868080Y-123132950D01*
X142845690Y-123191520D01*
X142859470Y-123222530D01*
X142868070Y-123256980D01*
X142881850Y-123289710D01*
X142905970Y-123313830D01*
X142919750Y-123396510D01*
X142935250Y-123468861D01*
X142947310Y-123544651D01*
X142950710Y-123629051D01*
X142979990Y-123713451D01*
X143004110Y-123794411D01*
X143047170Y-123847811D01*
X143079900Y-123909821D01*
X143088500Y-123913221D01*
X143100560Y-123908021D01*
X143100560Y-123918361D01*
X143105760Y-123925261D01*
X143109160Y-123932161D01*
X143105760Y-123945941D01*
X143148820Y-123975221D01*
X143190160Y-124009671D01*
X143241840Y-124030341D01*
X143319350Y-124018281D01*
X143445096Y-123899425D01*
X143532946Y-123739228D01*
X143532960Y-123739379D01*
X143532960Y-123739379D01*
G37*
G36*
X141979222Y-123908189D02*
G01*
X142477038Y-123610188D01*
X142384018Y-123603288D01*
X142289278Y-123587788D01*
X142315118Y-123480990D01*
X142344398Y-123369023D01*
X142354728Y-123386253D01*
X142421908Y-123467214D01*
X142475308Y-123551624D01*
X142495978Y-123582634D01*
X142514928Y-123613644D01*
X142495978Y-123611944D01*
X142477028Y-123610244D01*
X142477038Y-123610188D01*
X141979222Y-123908189D01*
X142010232Y-123968479D01*
X142056742Y-124021879D01*
X142115312Y-124059779D01*
X142184212Y-124077009D01*
X142215222Y-124064949D01*
X142230722Y-124054619D01*
X142241062Y-124049419D01*
X142247962Y-124044219D01*
X142268632Y-124035619D01*
X142261732Y-124013229D01*
X142263432Y-123992559D01*
X142284102Y-123970169D01*
X142294442Y-123959829D01*
X142303042Y-123949498D01*
X142332322Y-123916769D01*
X142285812Y-123904709D01*
X142228962Y-123873699D01*
X142216902Y-123809959D01*
X142275472Y-123808259D01*
X142321982Y-123820319D01*
X142385712Y-123835819D01*
X142454612Y-123841019D01*
X142480452Y-123841019D01*
X142506292Y-123837619D01*
X142523512Y-123834219D01*
X142530412Y-123813549D01*
X142537312Y-123806649D01*
X142556262Y-123784259D01*
X142559662Y-123746359D01*
X142569992Y-123715349D01*
X142585492Y-123758409D01*
X142592392Y-123775639D01*
X142609622Y-123779039D01*
X142614822Y-123787639D01*
X142616522Y-123796239D01*
X142625122Y-123825519D01*
X142632022Y-123832419D01*
X142638922Y-123837619D01*
X142647522Y-123868629D01*
X142657862Y-123897909D01*
X142673362Y-123942699D01*
X142676762Y-123984039D01*
X142683662Y-124002989D01*
X142702612Y-124020219D01*
X142723282Y-124030549D01*
X142733622Y-124037449D01*
X142742222Y-124040849D01*
X142747422Y-124059799D01*
X142768092Y-124063199D01*
X142795652Y-124068399D01*
X142812882Y-124070099D01*
X142830112Y-124068399D01*
X142859392Y-124044279D01*
X142883512Y-124025329D01*
X142900732Y-123994319D01*
X142904132Y-123975369D01*
X142907532Y-123958139D01*
X142912732Y-123947809D01*
X142935122Y-123927139D01*
X142916172Y-123911639D01*
X142914472Y-123882359D01*
X142842122Y-123713550D01*
X142761162Y-123548185D01*
X142735322Y-123493065D01*
X142707762Y-123437944D01*
X142709462Y-123425884D01*
X142706062Y-123410384D01*
X142675052Y-123358704D01*
X142650932Y-123310474D01*
X142623372Y-123253634D01*
X142585472Y-123196794D01*
X142557912Y-123184735D01*
X142545852Y-123181334D01*
X142530352Y-123177934D01*
X142504512Y-123181334D01*
X142420112Y-123119324D01*
X142346042Y-123021134D01*
X142328812Y-122997024D01*
X142306422Y-123010804D01*
X142282302Y-123021134D01*
X142249572Y-123029734D01*
X142191002Y-123045234D01*
X142146212Y-123071074D01*
X142134152Y-123112414D01*
X142128952Y-123139974D01*
X142120352Y-123198544D01*
X142113452Y-123264004D01*
X142099672Y-123322574D01*
X142087612Y-123379414D01*
X142070392Y-123460375D01*
X142048002Y-123532725D01*
X142030772Y-123534425D01*
X142013552Y-123529225D01*
X141991162Y-123525825D01*
X141972212Y-123524125D01*
X141965312Y-123541355D01*
X141948082Y-123558585D01*
X141915352Y-123568925D01*
X141896402Y-123584425D01*
X141882622Y-123594765D01*
X141856782Y-123605095D01*
X141870562Y-123630935D01*
X141920512Y-123691225D01*
X141991132Y-123737735D01*
X141989432Y-123758405D01*
X141984232Y-123777355D01*
X141975632Y-123837645D01*
X141975632Y-123901375D01*
X141979222Y-123908189D01*
X141979222Y-123908189D01*
G37*
G36*
X140642524Y-123742824D02*
G01*
X140751045Y-123858235D01*
X140899184Y-123925415D01*
X141069716Y-123971925D01*
X141240249Y-124025325D01*
X141283309Y-124027025D01*
X141317759Y-124032225D01*
X141348769Y-124037425D01*
X141383219Y-124040825D01*
X141391819Y-124044225D01*
X141397019Y-124051125D01*
X141450419Y-124056325D01*
X141488319Y-124056325D01*
X141531379Y-124061525D01*
X141569279Y-124066725D01*
X141772540Y-123975425D01*
X141853500Y-123737713D01*
X141856900Y-123727383D01*
X141863800Y-123722183D01*
X141860400Y-123692903D01*
X141858700Y-123661893D01*
X141757070Y-123486193D01*
X141620989Y-123341498D01*
X141600319Y-123320828D01*
X141584819Y-123300158D01*
X141565869Y-123282928D01*
X141540029Y-123270868D01*
X141453899Y-123195078D01*
X141348824Y-123129618D01*
X141240304Y-123065888D01*
X141140394Y-122993538D01*
X141112834Y-122998738D01*
X141093884Y-122998738D01*
X141061154Y-123034908D01*
X141018094Y-123057298D01*
X140976754Y-123083138D01*
X140947474Y-123124478D01*
X140957814Y-123133078D01*
X140952614Y-123148578D01*
X140950914Y-123164078D01*
X140962974Y-123170978D01*
X140952644Y-123181318D01*
X140942304Y-123189918D01*
X140947504Y-123203698D01*
X140947504Y-123220928D01*
X141025024Y-123263988D01*
X141112874Y-123308778D01*
X141207614Y-123358728D01*
X141302354Y-123419018D01*
X141397094Y-123496539D01*
X141490114Y-123584389D01*
X141574524Y-123680849D01*
X141641704Y-123777309D01*
X141634804Y-123791089D01*
X141626204Y-123803149D01*
X141524574Y-123803149D01*
X141428114Y-123808349D01*
X141421214Y-123798009D01*
X141412614Y-123787669D01*
X141230024Y-123756659D01*
X141057769Y-123710149D01*
X141083609Y-123701549D01*
X141104279Y-123692949D01*
X141104279Y-123679169D01*
X141087049Y-123665389D01*
X141126669Y-123630939D01*
X141143899Y-123575819D01*
X141133569Y-123555149D01*
X141143899Y-123536199D01*
X141152499Y-123536199D01*
X141155899Y-123541399D01*
X141157599Y-123548299D01*
X141166199Y-123546599D01*
X141159299Y-123520759D01*
X141148959Y-123496649D01*
X141030104Y-123417408D01*
X140983594Y-123448419D01*
X140926754Y-123481149D01*
X140864744Y-123513879D01*
X140804454Y-123544889D01*
X140761394Y-123572449D01*
X140725224Y-123608619D01*
X140690774Y-123643069D01*
X140647714Y-123672349D01*
X140646014Y-123708519D01*
X140642614Y-123742969D01*
X140642524Y-123742824D01*
X140642524Y-123742824D01*
G37*
G36*
X139714223Y-123896496D02*
G01*
X140208439Y-123591681D01*
X140115419Y-123584781D01*
X140020679Y-123569280D01*
X140046519Y-123462483D01*
X140075799Y-123350516D01*
X140086139Y-123367746D01*
X140153319Y-123448707D01*
X140206719Y-123533117D01*
X140227389Y-123564127D01*
X140246339Y-123595137D01*
X140227389Y-123593437D01*
X140208439Y-123591737D01*
X140208439Y-123591681D01*
X139714223Y-123896496D01*
X139745233Y-123956786D01*
X139791743Y-124010186D01*
X139850313Y-124048086D01*
X139919213Y-124065316D01*
X139950223Y-124053256D01*
X139965723Y-124042926D01*
X139976063Y-124037726D01*
X139982963Y-124032526D01*
X140003633Y-124023926D01*
X139996733Y-124001536D01*
X139998433Y-123980866D01*
X140019103Y-123958476D01*
X140029443Y-123948135D01*
X140038043Y-123937806D01*
X140067323Y-123905076D01*
X140020813Y-123893016D01*
X139963963Y-123862006D01*
X139951903Y-123798266D01*
X140010473Y-123796566D01*
X140056983Y-123808626D01*
X140120713Y-123824126D01*
X140189613Y-123829326D01*
X140215453Y-123829326D01*
X140241293Y-123825926D01*
X140258513Y-123822526D01*
X140265413Y-123801856D01*
X140272313Y-123794956D01*
X140291263Y-123772566D01*
X140294663Y-123734666D01*
X140304993Y-123703655D01*
X140320493Y-123746716D01*
X140327393Y-123763946D01*
X140344623Y-123767346D01*
X140349823Y-123775946D01*
X140351523Y-123784546D01*
X140360123Y-123813826D01*
X140367023Y-123820726D01*
X140373923Y-123825926D01*
X140382523Y-123856936D01*
X140392863Y-123886216D01*
X140408363Y-123931006D01*
X140411763Y-123972346D01*
X140418663Y-123991296D01*
X140437613Y-124008526D01*
X140458283Y-124018856D01*
X140468623Y-124025756D01*
X140477223Y-124029156D01*
X140482423Y-124048106D01*
X140503093Y-124051506D01*
X140530653Y-124056706D01*
X140547883Y-124058406D01*
X140565113Y-124056706D01*
X140594393Y-124032586D01*
X140618513Y-124013636D01*
X140635733Y-123982626D01*
X140639133Y-123963675D01*
X140642533Y-123946446D01*
X140647733Y-123936116D01*
X140670123Y-123915446D01*
X140651173Y-123899946D01*
X140649473Y-123870666D01*
X140577123Y-123701857D01*
X140496163Y-123536492D01*
X140470323Y-123481372D01*
X140442763Y-123426251D01*
X140444463Y-123414191D01*
X140441063Y-123398691D01*
X140410053Y-123347011D01*
X140385933Y-123298781D01*
X140358373Y-123241941D01*
X140320473Y-123185102D01*
X140292913Y-123173041D01*
X140280853Y-123169641D01*
X140265353Y-123166241D01*
X140239513Y-123169641D01*
X140155113Y-123107631D01*
X140081043Y-123009441D01*
X140063813Y-122985331D01*
X140041423Y-122999111D01*
X140017303Y-123009441D01*
X139984573Y-123018041D01*
X139926003Y-123033541D01*
X139881213Y-123059381D01*
X139869153Y-123100721D01*
X139863953Y-123128281D01*
X139855353Y-123186851D01*
X139848453Y-123252311D01*
X139834673Y-123310881D01*
X139822613Y-123367721D01*
X139805383Y-123448682D01*
X139782993Y-123521032D01*
X139765763Y-123522732D01*
X139748543Y-123517532D01*
X139726153Y-123514132D01*
X139707203Y-123512432D01*
X139700303Y-123529662D01*
X139683073Y-123546892D01*
X139650343Y-123557232D01*
X139631393Y-123572732D01*
X139617613Y-123583072D01*
X139591773Y-123593402D01*
X139605553Y-123619242D01*
X139655503Y-123679532D01*
X139726123Y-123726042D01*
X139724423Y-123746712D01*
X139719223Y-123765662D01*
X139710623Y-123825952D01*
X139710623Y-123889682D01*
X139714223Y-123896496D01*
X139714223Y-123896496D01*
G37*
D11*
G36*
X149486695Y-82472001D02*
G01*
X149617544Y-82530621D01*
X149732153Y-82624035D01*
X149816629Y-82736766D01*
X149847187Y-82794715D01*
X149864839Y-82849135D01*
X149872932Y-82915466D01*
X149874817Y-83005083D01*
X149870184Y-83119148D01*
X149855120Y-83202929D01*
X149836044Y-83252356D01*
X149797272Y-83330296D01*
X150585697Y-84467038D01*
X150721401Y-84663077D01*
X150849717Y-84849186D01*
X150968638Y-85022404D01*
X151076155Y-85179773D01*
X151170262Y-85318331D01*
X151248949Y-85435119D01*
X151310209Y-85527175D01*
X151352034Y-85591541D01*
X151372417Y-85625255D01*
X151374122Y-85629402D01*
X151362805Y-85650995D01*
X151330109Y-85705022D01*
X151277914Y-85788551D01*
X151208102Y-85898646D01*
X151122555Y-86032373D01*
X151023153Y-86186797D01*
X150911777Y-86358984D01*
X150790310Y-86546000D01*
X150660632Y-86744909D01*
X150577364Y-86872259D01*
X150443219Y-87077403D01*
X150315782Y-87272685D01*
X150196974Y-87455139D01*
X150088715Y-87621796D01*
X149992923Y-87769692D01*
X149911518Y-87895858D01*
X149846419Y-87997330D01*
X149799547Y-88071140D01*
X149772820Y-88114321D01*
X149767239Y-88124330D01*
X149766081Y-88135529D01*
X149775564Y-88144052D01*
X149800552Y-88150258D01*
X149845906Y-88154508D01*
X149916491Y-88157160D01*
X150017170Y-88158576D01*
X150152806Y-88159114D01*
X150238147Y-88159167D01*
X150722422Y-88159167D01*
X151318940Y-87201375D01*
X151433181Y-87018070D01*
X151541300Y-86844832D01*
X151641116Y-86685138D01*
X151730448Y-86542465D01*
X151807116Y-86420292D01*
X151868938Y-86322095D01*
X151913733Y-86251352D01*
X151939322Y-86211541D01*
X151943952Y-86204697D01*
X151952320Y-86198208D01*
X151964173Y-86200511D01*
X151981495Y-86214426D01*
X152006269Y-86242774D01*
X152040479Y-86288376D01*
X152086107Y-86354053D01*
X152145137Y-86442626D01*
X152219553Y-86556915D01*
X152311337Y-86699742D01*
X152422474Y-86873928D01*
X152498311Y-86993155D01*
X153024174Y-87820500D01*
X153142829Y-87820965D01*
X153290199Y-87841307D01*
X153422211Y-87897901D01*
X153533643Y-87985894D01*
X153619277Y-88100436D01*
X153673895Y-88236678D01*
X153689839Y-88329330D01*
X153683996Y-88477368D01*
X153642201Y-88611925D01*
X153569786Y-88728888D01*
X153472083Y-88824141D01*
X153354423Y-88893572D01*
X153222139Y-88933066D01*
X153080562Y-88938509D01*
X152940263Y-88907672D01*
X152829796Y-88849687D01*
X152727335Y-88762012D01*
X152645899Y-88656992D01*
X152616670Y-88600765D01*
X152582529Y-88477370D01*
X152578513Y-88393065D01*
X152891067Y-88393065D01*
X152897350Y-88455959D01*
X152922106Y-88506487D01*
X152965676Y-88555509D01*
X153013292Y-88599487D01*
X153052825Y-88619873D01*
X153103226Y-88623272D01*
X153149627Y-88619612D01*
X153225189Y-88606977D01*
X153277700Y-88581233D01*
X153318434Y-88542552D01*
X153366084Y-88460616D01*
X153379730Y-88367916D01*
X153358790Y-88277697D01*
X153332013Y-88233539D01*
X153272916Y-88179308D01*
X153199933Y-88140633D01*
X153128698Y-88124515D01*
X153095888Y-88127814D01*
X152994873Y-88170387D01*
X152929492Y-88233986D01*
X152896570Y-88322720D01*
X152891067Y-88393065D01*
X152578513Y-88393065D01*
X152576076Y-88341937D01*
X152596871Y-88210930D01*
X152629391Y-88126803D01*
X152673844Y-88041522D01*
X152332664Y-87504363D01*
X152246542Y-87369619D01*
X152167213Y-87247120D01*
X152097613Y-87141272D01*
X152040675Y-87056478D01*
X151999335Y-86997144D01*
X151976529Y-86967675D01*
X151973429Y-86965226D01*
X151958855Y-86982214D01*
X151924356Y-87031619D01*
X151872259Y-87109847D01*
X151804890Y-87213302D01*
X151724577Y-87338390D01*
X151633646Y-87481515D01*
X151534425Y-87639082D01*
X151454091Y-87767583D01*
X150952808Y-88571917D01*
X150036310Y-88563585D01*
X149841173Y-88561533D01*
X149657426Y-88559067D01*
X149489766Y-88556291D01*
X149342887Y-88553304D01*
X149221487Y-88550209D01*
X149130261Y-88547108D01*
X149073906Y-88544103D01*
X149058929Y-88542418D01*
X148998045Y-88529583D01*
X149939139Y-87091088D01*
X150084712Y-86868364D01*
X150223398Y-86655764D01*
X150353472Y-86455960D01*
X150473205Y-86271623D01*
X150580873Y-86105425D01*
X150674749Y-85960037D01*
X150753105Y-85838129D01*
X150814216Y-85742374D01*
X150856355Y-85675442D01*
X150877796Y-85640004D01*
X150880233Y-85635012D01*
X150868499Y-85614892D01*
X150834707Y-85563120D01*
X150780968Y-85482796D01*
X150709395Y-85377022D01*
X150622100Y-85248900D01*
X150521197Y-85101531D01*
X150408797Y-84938017D01*
X150287014Y-84761459D01*
X150171219Y-84594093D01*
X149462204Y-83570755D01*
X149327706Y-83569980D01*
X149197031Y-83558526D01*
X149088509Y-83521869D01*
X148986572Y-83454025D01*
X148954871Y-83426625D01*
X148854936Y-83312352D01*
X148793354Y-83182691D01*
X148769128Y-83057170D01*
X148770637Y-83016931D01*
X149080517Y-83016931D01*
X149096428Y-83104160D01*
X149141822Y-83180683D01*
X149212259Y-83234259D01*
X149287135Y-83263193D01*
X149352376Y-83264708D01*
X149426670Y-83240804D01*
X149506013Y-83186818D01*
X149553593Y-83105765D01*
X149567900Y-83010538D01*
X149552075Y-82911213D01*
X149502924Y-82836629D01*
X149440666Y-82793296D01*
X149342967Y-82763926D01*
X149245780Y-82776855D01*
X149210159Y-82792335D01*
X149137334Y-82850886D01*
X149094136Y-82929129D01*
X149080517Y-83016931D01*
X148770637Y-83016931D01*
X148774883Y-82903771D01*
X148819490Y-82764641D01*
X148900679Y-82644005D01*
X149016177Y-82546088D01*
X149056905Y-82521923D01*
X149200358Y-82465950D01*
X149345627Y-82449877D01*
X149486695Y-82472001D01*
X149486695Y-82472001D01*
G37*
X149486695Y-82472001D02*
X149617544Y-82530621D01*
X149732153Y-82624035D01*
X149816629Y-82736766D01*
X149847187Y-82794715D01*
X149864839Y-82849135D01*
X149872932Y-82915466D01*
X149874817Y-83005083D01*
X149870184Y-83119148D01*
X149855120Y-83202929D01*
X149836044Y-83252356D01*
X149797272Y-83330296D01*
X150585697Y-84467038D01*
X150721401Y-84663077D01*
X150849717Y-84849186D01*
X150968638Y-85022404D01*
X151076155Y-85179773D01*
X151170262Y-85318331D01*
X151248949Y-85435119D01*
X151310209Y-85527175D01*
X151352034Y-85591541D01*
X151372417Y-85625255D01*
X151374122Y-85629402D01*
X151362805Y-85650995D01*
X151330109Y-85705022D01*
X151277914Y-85788551D01*
X151208102Y-85898646D01*
X151122555Y-86032373D01*
X151023153Y-86186797D01*
X150911777Y-86358984D01*
X150790310Y-86546000D01*
X150660632Y-86744909D01*
X150577364Y-86872259D01*
X150443219Y-87077403D01*
X150315782Y-87272685D01*
X150196974Y-87455139D01*
X150088715Y-87621796D01*
X149992923Y-87769692D01*
X149911518Y-87895858D01*
X149846419Y-87997330D01*
X149799547Y-88071140D01*
X149772820Y-88114321D01*
X149767239Y-88124330D01*
X149766081Y-88135529D01*
X149775564Y-88144052D01*
X149800552Y-88150258D01*
X149845906Y-88154508D01*
X149916491Y-88157160D01*
X150017170Y-88158576D01*
X150152806Y-88159114D01*
X150238147Y-88159167D01*
X150722422Y-88159167D01*
X151318940Y-87201375D01*
X151433181Y-87018070D01*
X151541300Y-86844832D01*
X151641116Y-86685138D01*
X151730448Y-86542465D01*
X151807116Y-86420292D01*
X151868938Y-86322095D01*
X151913733Y-86251352D01*
X151939322Y-86211541D01*
X151943952Y-86204697D01*
X151952320Y-86198208D01*
X151964173Y-86200511D01*
X151981495Y-86214426D01*
X152006269Y-86242774D01*
X152040479Y-86288376D01*
X152086107Y-86354053D01*
X152145137Y-86442626D01*
X152219553Y-86556915D01*
X152311337Y-86699742D01*
X152422474Y-86873928D01*
X152498311Y-86993155D01*
X153024174Y-87820500D01*
X153142829Y-87820965D01*
X153290199Y-87841307D01*
X153422211Y-87897901D01*
X153533643Y-87985894D01*
X153619277Y-88100436D01*
X153673895Y-88236678D01*
X153689839Y-88329330D01*
X153683996Y-88477368D01*
X153642201Y-88611925D01*
X153569786Y-88728888D01*
X153472083Y-88824141D01*
X153354423Y-88893572D01*
X153222139Y-88933066D01*
X153080562Y-88938509D01*
X152940263Y-88907672D01*
X152829796Y-88849687D01*
X152727335Y-88762012D01*
X152645899Y-88656992D01*
X152616670Y-88600765D01*
X152582529Y-88477370D01*
X152578513Y-88393065D01*
X152891067Y-88393065D01*
X152897350Y-88455959D01*
X152922106Y-88506487D01*
X152965676Y-88555509D01*
X153013292Y-88599487D01*
X153052825Y-88619873D01*
X153103226Y-88623272D01*
X153149627Y-88619612D01*
X153225189Y-88606977D01*
X153277700Y-88581233D01*
X153318434Y-88542552D01*
X153366084Y-88460616D01*
X153379730Y-88367916D01*
X153358790Y-88277697D01*
X153332013Y-88233539D01*
X153272916Y-88179308D01*
X153199933Y-88140633D01*
X153128698Y-88124515D01*
X153095888Y-88127814D01*
X152994873Y-88170387D01*
X152929492Y-88233986D01*
X152896570Y-88322720D01*
X152891067Y-88393065D01*
X152578513Y-88393065D01*
X152576076Y-88341937D01*
X152596871Y-88210930D01*
X152629391Y-88126803D01*
X152673844Y-88041522D01*
X152332664Y-87504363D01*
X152246542Y-87369619D01*
X152167213Y-87247120D01*
X152097613Y-87141272D01*
X152040675Y-87056478D01*
X151999335Y-86997144D01*
X151976529Y-86967675D01*
X151973429Y-86965226D01*
X151958855Y-86982214D01*
X151924356Y-87031619D01*
X151872259Y-87109847D01*
X151804890Y-87213302D01*
X151724577Y-87338390D01*
X151633646Y-87481515D01*
X151534425Y-87639082D01*
X151454091Y-87767583D01*
X150952808Y-88571917D01*
X150036310Y-88563585D01*
X149841173Y-88561533D01*
X149657426Y-88559067D01*
X149489766Y-88556291D01*
X149342887Y-88553304D01*
X149221487Y-88550209D01*
X149130261Y-88547108D01*
X149073906Y-88544103D01*
X149058929Y-88542418D01*
X148998045Y-88529583D01*
X149939139Y-87091088D01*
X150084712Y-86868364D01*
X150223398Y-86655764D01*
X150353472Y-86455960D01*
X150473205Y-86271623D01*
X150580873Y-86105425D01*
X150674749Y-85960037D01*
X150753105Y-85838129D01*
X150814216Y-85742374D01*
X150856355Y-85675442D01*
X150877796Y-85640004D01*
X150880233Y-85635012D01*
X150868499Y-85614892D01*
X150834707Y-85563120D01*
X150780968Y-85482796D01*
X150709395Y-85377022D01*
X150622100Y-85248900D01*
X150521197Y-85101531D01*
X150408797Y-84938017D01*
X150287014Y-84761459D01*
X150171219Y-84594093D01*
X149462204Y-83570755D01*
X149327706Y-83569980D01*
X149197031Y-83558526D01*
X149088509Y-83521869D01*
X148986572Y-83454025D01*
X148954871Y-83426625D01*
X148854936Y-83312352D01*
X148793354Y-83182691D01*
X148769128Y-83057170D01*
X148770637Y-83016931D01*
X149080517Y-83016931D01*
X149096428Y-83104160D01*
X149141822Y-83180683D01*
X149212259Y-83234259D01*
X149287135Y-83263193D01*
X149352376Y-83264708D01*
X149426670Y-83240804D01*
X149506013Y-83186818D01*
X149553593Y-83105765D01*
X149567900Y-83010538D01*
X149552075Y-82911213D01*
X149502924Y-82836629D01*
X149440666Y-82793296D01*
X149342967Y-82763926D01*
X149245780Y-82776855D01*
X149210159Y-82792335D01*
X149137334Y-82850886D01*
X149094136Y-82929129D01*
X149080517Y-83016931D01*
X148770637Y-83016931D01*
X148774883Y-82903771D01*
X148819490Y-82764641D01*
X148900679Y-82644005D01*
X149016177Y-82546088D01*
X149056905Y-82521923D01*
X149200358Y-82465950D01*
X149345627Y-82449877D01*
X149486695Y-82472001D01*
G36*
X150977201Y-82460820D02*
G01*
X151105718Y-82507149D01*
X151220497Y-82584312D01*
X151315009Y-82690904D01*
X151377182Y-82810412D01*
X151403092Y-82923346D01*
X151405519Y-83051015D01*
X151385434Y-83175027D01*
X151353463Y-83259907D01*
X151309518Y-83344219D01*
X151626899Y-83848371D01*
X151722939Y-84000063D01*
X151799420Y-84118654D01*
X151858621Y-84207306D01*
X151902822Y-84269185D01*
X151934302Y-84307455D01*
X151955339Y-84325278D01*
X151968214Y-84325821D01*
X151969787Y-84324387D01*
X151986113Y-84300773D01*
X152022129Y-84245038D01*
X152075361Y-84161125D01*
X152143334Y-84052979D01*
X152223572Y-83924544D01*
X152313599Y-83779766D01*
X152410941Y-83622587D01*
X152455692Y-83550125D01*
X152916090Y-82804000D01*
X153930162Y-82804000D01*
X154132830Y-82804219D01*
X154321997Y-82804848D01*
X154493568Y-82805842D01*
X154643450Y-82807157D01*
X154767547Y-82808751D01*
X154861767Y-82810579D01*
X154922014Y-82812596D01*
X154944196Y-82814760D01*
X154944233Y-82814854D01*
X154932697Y-82833678D01*
X154899259Y-82884978D01*
X154845675Y-82966126D01*
X154773700Y-83074492D01*
X154685090Y-83207447D01*
X154581600Y-83362361D01*
X154464987Y-83536605D01*
X154337004Y-83727550D01*
X154199409Y-83932566D01*
X154053957Y-84149024D01*
X153981700Y-84256461D01*
X153019167Y-85687212D01*
X153153774Y-85880731D01*
X153193059Y-85937415D01*
X153253306Y-86024618D01*
X153331505Y-86137971D01*
X153424643Y-86273103D01*
X153529709Y-86425642D01*
X153643693Y-86591219D01*
X153763581Y-86765462D01*
X153885045Y-86942083D01*
X154481710Y-87809917D01*
X154644222Y-87822533D01*
X154769329Y-87838884D01*
X154866918Y-87869617D01*
X154950957Y-87920682D01*
X155020427Y-87982771D01*
X155107414Y-88092001D01*
X155158032Y-88213040D01*
X155175994Y-88355139D01*
X155176137Y-88370833D01*
X155156786Y-88526770D01*
X155100586Y-88665696D01*
X155010317Y-88782944D01*
X154888759Y-88873845D01*
X154870772Y-88883500D01*
X154777220Y-88915869D01*
X154663107Y-88932872D01*
X154547865Y-88933019D01*
X154453006Y-88915522D01*
X154315880Y-88849281D01*
X154205481Y-88754037D01*
X154124747Y-88635804D01*
X154076615Y-88500594D01*
X154064023Y-88354421D01*
X154066260Y-88341358D01*
X154377200Y-88341358D01*
X154381750Y-88436692D01*
X154404749Y-88498348D01*
X154463041Y-88569134D01*
X154543099Y-88611713D01*
X154633184Y-88623755D01*
X154721559Y-88602929D01*
X154771863Y-88571224D01*
X154836879Y-88494424D01*
X154866713Y-88410006D01*
X154865079Y-88325295D01*
X154835690Y-88247616D01*
X154782259Y-88184293D01*
X154708499Y-88142650D01*
X154618123Y-88130012D01*
X154553498Y-88140467D01*
X154466912Y-88184012D01*
X154406867Y-88254053D01*
X154377200Y-88341358D01*
X154066260Y-88341358D01*
X154089909Y-88203299D01*
X154095932Y-88184552D01*
X154116852Y-88112826D01*
X154127519Y-88055377D01*
X154125909Y-88025802D01*
X154111592Y-88004408D01*
X154075311Y-87951097D01*
X154019092Y-87868827D01*
X153944966Y-87760558D01*
X153854961Y-87629249D01*
X153751105Y-87477860D01*
X153635429Y-87309350D01*
X153509959Y-87126678D01*
X153376726Y-86932803D01*
X153319634Y-86849755D01*
X153179346Y-86645033D01*
X153048250Y-86452406D01*
X152928158Y-86274612D01*
X152820879Y-86114389D01*
X152728225Y-85974476D01*
X152652005Y-85857611D01*
X152594029Y-85766533D01*
X152556108Y-85703982D01*
X152540053Y-85672694D01*
X152539710Y-85669939D01*
X152553158Y-85647857D01*
X152588334Y-85593628D01*
X152643280Y-85510190D01*
X152716036Y-85400483D01*
X152804644Y-85267445D01*
X152907145Y-85114014D01*
X153021579Y-84943129D01*
X153145988Y-84757729D01*
X153278412Y-84560753D01*
X153355982Y-84445532D01*
X153491691Y-84243889D01*
X153620214Y-84052606D01*
X153739628Y-83874563D01*
X153848011Y-83712643D01*
X153943438Y-83569728D01*
X154023988Y-83448700D01*
X154087738Y-83352442D01*
X154132764Y-83283835D01*
X154157144Y-83245762D01*
X154161067Y-83238805D01*
X154140859Y-83235660D01*
X154084074Y-83232920D01*
X153996466Y-83230703D01*
X153883788Y-83229127D01*
X153751795Y-83228310D01*
X153647775Y-83228260D01*
X153134483Y-83229186D01*
X152553030Y-84171808D01*
X152441304Y-84352692D01*
X152336148Y-84522476D01*
X152239672Y-84677785D01*
X152153987Y-84815241D01*
X152081204Y-84931470D01*
X152023435Y-85023095D01*
X151982789Y-85086739D01*
X151961378Y-85119026D01*
X151958689Y-85122395D01*
X151945099Y-85106752D01*
X151911430Y-85058794D01*
X151860029Y-84982113D01*
X151793238Y-84880302D01*
X151713403Y-84756953D01*
X151622868Y-84615658D01*
X151523977Y-84460010D01*
X151453393Y-84348180D01*
X150960984Y-83566000D01*
X150841233Y-83565793D01*
X150696339Y-83546916D01*
X150569877Y-83494677D01*
X150464184Y-83414864D01*
X150381597Y-83313269D01*
X150324451Y-83195684D01*
X150295085Y-83067897D01*
X150295154Y-83055685D01*
X150607658Y-83055685D01*
X150618964Y-83103765D01*
X150649951Y-83150287D01*
X150657461Y-83159353D01*
X150719817Y-83213219D01*
X150793449Y-83247995D01*
X150862694Y-83257041D01*
X150880233Y-83253756D01*
X150923387Y-83239622D01*
X150969160Y-83223209D01*
X151038394Y-83176634D01*
X151084064Y-83104161D01*
X151101572Y-83017738D01*
X151086321Y-82929314D01*
X151084240Y-82924149D01*
X151029359Y-82839138D01*
X150953504Y-82783561D01*
X150865847Y-82759798D01*
X150775558Y-82770230D01*
X150691809Y-82817236D01*
X150687348Y-82821132D01*
X150642501Y-82870833D01*
X150619256Y-82928223D01*
X150610653Y-82986135D01*
X150607658Y-83055685D01*
X150295154Y-83055685D01*
X150295833Y-82935700D01*
X150329032Y-82804884D01*
X150397020Y-82681239D01*
X150456383Y-82612001D01*
X150574538Y-82520917D01*
X150705080Y-82466297D01*
X150841478Y-82446734D01*
X150977201Y-82460820D01*
X150977201Y-82460820D01*
G37*
X150977201Y-82460820D02*
X151105718Y-82507149D01*
X151220497Y-82584312D01*
X151315009Y-82690904D01*
X151377182Y-82810412D01*
X151403092Y-82923346D01*
X151405519Y-83051015D01*
X151385434Y-83175027D01*
X151353463Y-83259907D01*
X151309518Y-83344219D01*
X151626899Y-83848371D01*
X151722939Y-84000063D01*
X151799420Y-84118654D01*
X151858621Y-84207306D01*
X151902822Y-84269185D01*
X151934302Y-84307455D01*
X151955339Y-84325278D01*
X151968214Y-84325821D01*
X151969787Y-84324387D01*
X151986113Y-84300773D01*
X152022129Y-84245038D01*
X152075361Y-84161125D01*
X152143334Y-84052979D01*
X152223572Y-83924544D01*
X152313599Y-83779766D01*
X152410941Y-83622587D01*
X152455692Y-83550125D01*
X152916090Y-82804000D01*
X153930162Y-82804000D01*
X154132830Y-82804219D01*
X154321997Y-82804848D01*
X154493568Y-82805842D01*
X154643450Y-82807157D01*
X154767547Y-82808751D01*
X154861767Y-82810579D01*
X154922014Y-82812596D01*
X154944196Y-82814760D01*
X154944233Y-82814854D01*
X154932697Y-82833678D01*
X154899259Y-82884978D01*
X154845675Y-82966126D01*
X154773700Y-83074492D01*
X154685090Y-83207447D01*
X154581600Y-83362361D01*
X154464987Y-83536605D01*
X154337004Y-83727550D01*
X154199409Y-83932566D01*
X154053957Y-84149024D01*
X153981700Y-84256461D01*
X153019167Y-85687212D01*
X153153774Y-85880731D01*
X153193059Y-85937415D01*
X153253306Y-86024618D01*
X153331505Y-86137971D01*
X153424643Y-86273103D01*
X153529709Y-86425642D01*
X153643693Y-86591219D01*
X153763581Y-86765462D01*
X153885045Y-86942083D01*
X154481710Y-87809917D01*
X154644222Y-87822533D01*
X154769329Y-87838884D01*
X154866918Y-87869617D01*
X154950957Y-87920682D01*
X155020427Y-87982771D01*
X155107414Y-88092001D01*
X155158032Y-88213040D01*
X155175994Y-88355139D01*
X155176137Y-88370833D01*
X155156786Y-88526770D01*
X155100586Y-88665696D01*
X155010317Y-88782944D01*
X154888759Y-88873845D01*
X154870772Y-88883500D01*
X154777220Y-88915869D01*
X154663107Y-88932872D01*
X154547865Y-88933019D01*
X154453006Y-88915522D01*
X154315880Y-88849281D01*
X154205481Y-88754037D01*
X154124747Y-88635804D01*
X154076615Y-88500594D01*
X154064023Y-88354421D01*
X154066260Y-88341358D01*
X154377200Y-88341358D01*
X154381750Y-88436692D01*
X154404749Y-88498348D01*
X154463041Y-88569134D01*
X154543099Y-88611713D01*
X154633184Y-88623755D01*
X154721559Y-88602929D01*
X154771863Y-88571224D01*
X154836879Y-88494424D01*
X154866713Y-88410006D01*
X154865079Y-88325295D01*
X154835690Y-88247616D01*
X154782259Y-88184293D01*
X154708499Y-88142650D01*
X154618123Y-88130012D01*
X154553498Y-88140467D01*
X154466912Y-88184012D01*
X154406867Y-88254053D01*
X154377200Y-88341358D01*
X154066260Y-88341358D01*
X154089909Y-88203299D01*
X154095932Y-88184552D01*
X154116852Y-88112826D01*
X154127519Y-88055377D01*
X154125909Y-88025802D01*
X154111592Y-88004408D01*
X154075311Y-87951097D01*
X154019092Y-87868827D01*
X153944966Y-87760558D01*
X153854961Y-87629249D01*
X153751105Y-87477860D01*
X153635429Y-87309350D01*
X153509959Y-87126678D01*
X153376726Y-86932803D01*
X153319634Y-86849755D01*
X153179346Y-86645033D01*
X153048250Y-86452406D01*
X152928158Y-86274612D01*
X152820879Y-86114389D01*
X152728225Y-85974476D01*
X152652005Y-85857611D01*
X152594029Y-85766533D01*
X152556108Y-85703982D01*
X152540053Y-85672694D01*
X152539710Y-85669939D01*
X152553158Y-85647857D01*
X152588334Y-85593628D01*
X152643280Y-85510190D01*
X152716036Y-85400483D01*
X152804644Y-85267445D01*
X152907145Y-85114014D01*
X153021579Y-84943129D01*
X153145988Y-84757729D01*
X153278412Y-84560753D01*
X153355982Y-84445532D01*
X153491691Y-84243889D01*
X153620214Y-84052606D01*
X153739628Y-83874563D01*
X153848011Y-83712643D01*
X153943438Y-83569728D01*
X154023988Y-83448700D01*
X154087738Y-83352442D01*
X154132764Y-83283835D01*
X154157144Y-83245762D01*
X154161067Y-83238805D01*
X154140859Y-83235660D01*
X154084074Y-83232920D01*
X153996466Y-83230703D01*
X153883788Y-83229127D01*
X153751795Y-83228310D01*
X153647775Y-83228260D01*
X153134483Y-83229186D01*
X152553030Y-84171808D01*
X152441304Y-84352692D01*
X152336148Y-84522476D01*
X152239672Y-84677785D01*
X152153987Y-84815241D01*
X152081204Y-84931470D01*
X152023435Y-85023095D01*
X151982789Y-85086739D01*
X151961378Y-85119026D01*
X151958689Y-85122395D01*
X151945099Y-85106752D01*
X151911430Y-85058794D01*
X151860029Y-84982113D01*
X151793238Y-84880302D01*
X151713403Y-84756953D01*
X151622868Y-84615658D01*
X151523977Y-84460010D01*
X151453393Y-84348180D01*
X150960984Y-83566000D01*
X150841233Y-83565793D01*
X150696339Y-83546916D01*
X150569877Y-83494677D01*
X150464184Y-83414864D01*
X150381597Y-83313269D01*
X150324451Y-83195684D01*
X150295085Y-83067897D01*
X150295154Y-83055685D01*
X150607658Y-83055685D01*
X150618964Y-83103765D01*
X150649951Y-83150287D01*
X150657461Y-83159353D01*
X150719817Y-83213219D01*
X150793449Y-83247995D01*
X150862694Y-83257041D01*
X150880233Y-83253756D01*
X150923387Y-83239622D01*
X150969160Y-83223209D01*
X151038394Y-83176634D01*
X151084064Y-83104161D01*
X151101572Y-83017738D01*
X151086321Y-82929314D01*
X151084240Y-82924149D01*
X151029359Y-82839138D01*
X150953504Y-82783561D01*
X150865847Y-82759798D01*
X150775558Y-82770230D01*
X150691809Y-82817236D01*
X150687348Y-82821132D01*
X150642501Y-82870833D01*
X150619256Y-82928223D01*
X150610653Y-82986135D01*
X150607658Y-83055685D01*
X150295154Y-83055685D01*
X150295833Y-82935700D01*
X150329032Y-82804884D01*
X150397020Y-82681239D01*
X150456383Y-82612001D01*
X150574538Y-82520917D01*
X150705080Y-82466297D01*
X150841478Y-82446734D01*
X150977201Y-82460820D01*
D10*
G36*
X138036797Y-99932811D02*
G01*
X138410019Y-100087404D01*
X138745910Y-100311840D01*
X139031560Y-100597490D01*
X139255996Y-100933381D01*
X139410589Y-101306603D01*
X139489400Y-101702814D01*
X139489400Y-102106786D01*
X139410589Y-102502997D01*
X139255996Y-102876219D01*
X139031560Y-103212110D01*
X138745910Y-103497760D01*
X138410019Y-103722196D01*
X138036797Y-103876789D01*
X137640586Y-103955600D01*
X137236614Y-103955600D01*
X136840403Y-103876789D01*
X136467181Y-103722196D01*
X136131290Y-103497760D01*
X135845640Y-103212110D01*
X135621204Y-102876219D01*
X135466611Y-102502997D01*
X135387800Y-102106786D01*
X135387800Y-101702814D01*
X135466611Y-101306603D01*
X135621204Y-100933381D01*
X135845640Y-100597490D01*
X136131290Y-100311840D01*
X136467181Y-100087404D01*
X136840403Y-99932811D01*
X137236614Y-99854000D01*
X137640586Y-99854000D01*
X138036797Y-99932811D01*
X138036797Y-99932811D01*
G37*
G36*
X144057601Y-101182853D02*
G01*
X144194238Y-101239449D01*
X144317209Y-101321616D01*
X144421784Y-101426191D01*
X144503951Y-101549162D01*
X144560547Y-101685799D01*
X144589400Y-101830852D01*
X144589400Y-101978748D01*
X144560547Y-102123801D01*
X144503951Y-102260438D01*
X144421784Y-102383409D01*
X144317209Y-102487984D01*
X144194238Y-102570151D01*
X144057601Y-102626747D01*
X143912548Y-102655600D01*
X143764652Y-102655600D01*
X143619599Y-102626747D01*
X143482962Y-102570151D01*
X143359991Y-102487984D01*
X143255416Y-102383409D01*
X143173249Y-102260438D01*
X143116653Y-102123801D01*
X143087800Y-101978748D01*
X143087800Y-101830852D01*
X143116653Y-101685799D01*
X143173249Y-101549162D01*
X143255416Y-101426191D01*
X143359991Y-101321616D01*
X143482962Y-101239449D01*
X143619599Y-101182853D01*
X143764652Y-101154000D01*
X143912548Y-101154000D01*
X144057601Y-101182853D01*
X144057601Y-101182853D01*
G37*
G36*
X131257601Y-101182853D02*
G01*
X131394238Y-101239449D01*
X131517209Y-101321616D01*
X131621784Y-101426191D01*
X131703951Y-101549162D01*
X131760547Y-101685799D01*
X131789400Y-101830852D01*
X131789400Y-101978748D01*
X131760547Y-102123801D01*
X131703951Y-102260438D01*
X131621784Y-102383409D01*
X131517209Y-102487984D01*
X131394238Y-102570151D01*
X131257601Y-102626747D01*
X131112548Y-102655600D01*
X130964652Y-102655600D01*
X130819599Y-102626747D01*
X130682962Y-102570151D01*
X130559991Y-102487984D01*
X130455416Y-102383409D01*
X130373249Y-102260438D01*
X130316653Y-102123801D01*
X130287800Y-101978748D01*
X130287800Y-101830852D01*
X130316653Y-101685799D01*
X130373249Y-101549162D01*
X130455416Y-101426191D01*
X130559991Y-101321616D01*
X130682962Y-101239449D01*
X130819599Y-101182853D01*
X130964652Y-101154000D01*
X131112548Y-101154000D01*
X131257601Y-101182853D01*
X131257601Y-101182853D01*
G37*
G36*
X143772521Y-89304586D02*
G01*
X143936307Y-89372428D01*
X143936310Y-89372430D01*
X144083717Y-89470924D01*
X144209076Y-89596283D01*
X144307570Y-89743690D01*
X144307572Y-89743693D01*
X144375414Y-89907479D01*
X144410000Y-90081357D01*
X144410000Y-90258643D01*
X144375414Y-90432521D01*
X144307572Y-90596307D01*
X144307570Y-90596310D01*
X144209076Y-90743717D01*
X144083717Y-90869076D01*
X143936310Y-90967570D01*
X143936307Y-90967572D01*
X143772521Y-91035414D01*
X143598643Y-91070000D01*
X143421357Y-91070000D01*
X143247479Y-91035414D01*
X143083693Y-90967572D01*
X143083690Y-90967570D01*
X142936283Y-90869076D01*
X142810924Y-90743717D01*
X142712430Y-90596310D01*
X142712428Y-90596307D01*
X142644586Y-90432521D01*
X142610000Y-90258643D01*
X142610000Y-90081357D01*
X142644586Y-89907479D01*
X142712428Y-89743693D01*
X142712430Y-89743690D01*
X142810924Y-89596283D01*
X142936283Y-89470924D01*
X143083690Y-89372430D01*
X143083693Y-89372428D01*
X143247479Y-89304586D01*
X143421357Y-89270000D01*
X143598643Y-89270000D01*
X143772521Y-89304586D01*
X143772521Y-89304586D01*
G37*
G36*
X141870000Y-91070000D02*
G01*
X140070000Y-91070000D01*
X140070000Y-89270000D01*
X141870000Y-89270000D01*
X141870000Y-91070000D01*
X141870000Y-91070000D01*
G37*
G36*
X134885000Y-91070000D02*
G01*
X133085000Y-91070000D01*
X133085000Y-89270000D01*
X134885000Y-89270000D01*
X134885000Y-91070000D01*
X134885000Y-91070000D01*
G37*
G36*
X131707521Y-89304586D02*
G01*
X131871307Y-89372428D01*
X131871310Y-89372430D01*
X132018717Y-89470924D01*
X132144076Y-89596283D01*
X132242570Y-89743690D01*
X132242572Y-89743693D01*
X132310414Y-89907479D01*
X132345000Y-90081357D01*
X132345000Y-90258643D01*
X132310414Y-90432521D01*
X132242572Y-90596307D01*
X132242570Y-90596310D01*
X132144076Y-90743717D01*
X132018717Y-90869076D01*
X131871310Y-90967570D01*
X131871307Y-90967572D01*
X131707521Y-91035414D01*
X131533643Y-91070000D01*
X131356357Y-91070000D01*
X131182479Y-91035414D01*
X131018693Y-90967572D01*
X131018690Y-90967570D01*
X130871283Y-90869076D01*
X130745924Y-90743717D01*
X130647430Y-90596310D01*
X130647428Y-90596307D01*
X130579586Y-90432521D01*
X130545000Y-90258643D01*
X130545000Y-90081357D01*
X130579586Y-89907479D01*
X130647428Y-89743693D01*
X130647430Y-89743690D01*
X130745924Y-89596283D01*
X130871283Y-89470924D01*
X131018690Y-89372430D01*
X131018693Y-89372428D01*
X131182479Y-89304586D01*
X131356357Y-89270000D01*
X131533643Y-89270000D01*
X131707521Y-89304586D01*
X131707521Y-89304586D01*
G37*
G36*
X137889224Y-79511074D02*
G01*
X138344194Y-79699528D01*
X138753658Y-79973124D01*
X139101876Y-80321342D01*
X139375472Y-80730806D01*
X139563926Y-81185776D01*
X139660000Y-81668771D01*
X139660000Y-82161229D01*
X139563926Y-82644224D01*
X139375472Y-83099194D01*
X139101876Y-83508658D01*
X138753658Y-83856876D01*
X138344194Y-84130472D01*
X137889224Y-84318926D01*
X137406229Y-84415000D01*
X136913771Y-84415000D01*
X136430776Y-84318926D01*
X135975806Y-84130472D01*
X135566342Y-83856876D01*
X135218124Y-83508658D01*
X134944528Y-83099194D01*
X134756074Y-82644224D01*
X134660000Y-82161229D01*
X134660000Y-81668771D01*
X134756074Y-81185776D01*
X134944528Y-80730806D01*
X135218124Y-80321342D01*
X135566342Y-79973124D01*
X135975806Y-79699528D01*
X136430776Y-79511074D01*
X136913771Y-79415000D01*
X137406229Y-79415000D01*
X137889224Y-79511074D01*
X137889224Y-79511074D01*
G37*
M02*
