G04 #@! TF.GenerationSoftware,KiCad,Pcbnew,5.1.4-e60b266~84~ubuntu18.04.1*
G04 #@! TF.CreationDate,2019-10-12T11:31:16-06:00*
G04 #@! TF.ProjectId,001,3030312e-6b69-4636-9164-5f7063625858,1*
G04 #@! TF.SameCoordinates,Original*
G04 #@! TF.FileFunction,Legend,Bot*
G04 #@! TF.FilePolarity,Positive*
%FSLAX46Y46*%
G04 Gerber Fmt 4.6, Leading zero omitted, Abs format (unit mm)*
G04 Created by KiCad (PCBNEW 5.1.4-e60b266~84~ubuntu18.04.1) date 2019-10-12 11:31:16*
%MOMM*%
%LPD*%
G04 APERTURE LIST*
%ADD10C,0.300000*%
%ADD11C,0.190500*%
%ADD12C,0.010000*%
%ADD13C,0.152400*%
%ADD14R,1.800000X1.800000*%
%ADD15C,1.800000*%
%ADD16C,5.000000*%
%ADD17C,4.101600*%
%ADD18C,1.501600*%
G04 APERTURE END LIST*
D10*
X157504742Y-90458857D02*
X156876171Y-89658857D01*
X157504742Y-89658857D02*
X156876171Y-90458857D01*
X156419028Y-90458857D02*
X156419028Y-89658857D01*
X156419028Y-89258857D02*
X156476171Y-89316000D01*
X156419028Y-89373142D01*
X156361885Y-89316000D01*
X156419028Y-89258857D01*
X156419028Y-89373142D01*
X155847600Y-90458857D02*
X155847600Y-89658857D01*
X155847600Y-89887428D02*
X155790457Y-89773142D01*
X155733314Y-89716000D01*
X155619028Y-89658857D01*
X155504742Y-89658857D01*
X154590457Y-90401714D02*
X154704742Y-90458857D01*
X154933314Y-90458857D01*
X155047600Y-90401714D01*
X155104742Y-90344571D01*
X155161885Y-90230285D01*
X155161885Y-89887428D01*
X155104742Y-89773142D01*
X155047600Y-89716000D01*
X154933314Y-89658857D01*
X154704742Y-89658857D01*
X154590457Y-89716000D01*
X153561885Y-89658857D02*
X153561885Y-90458857D01*
X154076171Y-89658857D02*
X154076171Y-90287428D01*
X154019028Y-90401714D01*
X153904742Y-90458857D01*
X153733314Y-90458857D01*
X153619028Y-90401714D01*
X153561885Y-90344571D01*
X152990457Y-90458857D02*
X152990457Y-89658857D01*
X152990457Y-89258857D02*
X153047600Y-89316000D01*
X152990457Y-89373142D01*
X152933314Y-89316000D01*
X152990457Y-89258857D01*
X152990457Y-89373142D01*
X152590457Y-89658857D02*
X152133314Y-89658857D01*
X152419028Y-89258857D02*
X152419028Y-90287428D01*
X152361885Y-90401714D01*
X152247600Y-90458857D01*
X152133314Y-90458857D01*
X151561885Y-90458857D02*
X151676171Y-90401714D01*
X151733314Y-90344571D01*
X151790457Y-90230285D01*
X151790457Y-89887428D01*
X151733314Y-89773142D01*
X151676171Y-89716000D01*
X151561885Y-89658857D01*
X151390457Y-89658857D01*
X151276171Y-89716000D01*
X151219028Y-89773142D01*
X151161885Y-89887428D01*
X151161885Y-90230285D01*
X151219028Y-90344571D01*
X151276171Y-90401714D01*
X151390457Y-90458857D01*
X151561885Y-90458857D01*
X150704742Y-90401714D02*
X150590457Y-90458857D01*
X150361885Y-90458857D01*
X150247600Y-90401714D01*
X150190457Y-90287428D01*
X150190457Y-90230285D01*
X150247600Y-90116000D01*
X150361885Y-90058857D01*
X150533314Y-90058857D01*
X150647600Y-90001714D01*
X150704742Y-89887428D01*
X150704742Y-89830285D01*
X150647600Y-89716000D01*
X150533314Y-89658857D01*
X150361885Y-89658857D01*
X150247600Y-89716000D01*
X149676171Y-90344571D02*
X149619028Y-90401714D01*
X149676171Y-90458857D01*
X149733314Y-90401714D01*
X149676171Y-90344571D01*
X149676171Y-90458857D01*
X149104742Y-90458857D02*
X149104742Y-89658857D01*
X149104742Y-89773142D02*
X149047600Y-89716000D01*
X148933314Y-89658857D01*
X148761885Y-89658857D01*
X148647600Y-89716000D01*
X148590457Y-89830285D01*
X148590457Y-90458857D01*
X148590457Y-89830285D02*
X148533314Y-89716000D01*
X148419028Y-89658857D01*
X148247600Y-89658857D01*
X148133314Y-89716000D01*
X148076171Y-89830285D01*
X148076171Y-90458857D01*
X147619028Y-90458857D02*
X146990457Y-89658857D01*
X147619028Y-89658857D02*
X146990457Y-90458857D01*
D11*
X146340285Y-121064564D02*
X146340285Y-120302564D01*
X146158857Y-120302564D01*
X146050000Y-120338850D01*
X145977428Y-120411421D01*
X145941142Y-120483992D01*
X145904857Y-120629135D01*
X145904857Y-120737992D01*
X145941142Y-120883135D01*
X145977428Y-120955707D01*
X146050000Y-121028278D01*
X146158857Y-121064564D01*
X146340285Y-121064564D01*
X145288000Y-121028278D02*
X145360571Y-121064564D01*
X145505714Y-121064564D01*
X145578285Y-121028278D01*
X145614571Y-120955707D01*
X145614571Y-120665421D01*
X145578285Y-120592850D01*
X145505714Y-120556564D01*
X145360571Y-120556564D01*
X145288000Y-120592850D01*
X145251714Y-120665421D01*
X145251714Y-120737992D01*
X145614571Y-120810564D01*
X144997714Y-120556564D02*
X144816285Y-121064564D01*
X144634857Y-120556564D01*
X144054285Y-121028278D02*
X144126857Y-121064564D01*
X144272000Y-121064564D01*
X144344571Y-121028278D01*
X144380857Y-120955707D01*
X144380857Y-120665421D01*
X144344571Y-120592850D01*
X144272000Y-120556564D01*
X144126857Y-120556564D01*
X144054285Y-120592850D01*
X144018000Y-120665421D01*
X144018000Y-120737992D01*
X144380857Y-120810564D01*
X143582571Y-121064564D02*
X143655142Y-121028278D01*
X143691428Y-120955707D01*
X143691428Y-120302564D01*
X143183428Y-121064564D02*
X143256000Y-121028278D01*
X143292285Y-120991992D01*
X143328571Y-120919421D01*
X143328571Y-120701707D01*
X143292285Y-120629135D01*
X143256000Y-120592850D01*
X143183428Y-120556564D01*
X143074571Y-120556564D01*
X143002000Y-120592850D01*
X142965714Y-120629135D01*
X142929428Y-120701707D01*
X142929428Y-120919421D01*
X142965714Y-120991992D01*
X143002000Y-121028278D01*
X143074571Y-121064564D01*
X143183428Y-121064564D01*
X142602857Y-120556564D02*
X142602857Y-121318564D01*
X142602857Y-120592850D02*
X142530285Y-120556564D01*
X142385142Y-120556564D01*
X142312571Y-120592850D01*
X142276285Y-120629135D01*
X142240000Y-120701707D01*
X142240000Y-120919421D01*
X142276285Y-120991992D01*
X142312571Y-121028278D01*
X142385142Y-121064564D01*
X142530285Y-121064564D01*
X142602857Y-121028278D01*
X141623142Y-121028278D02*
X141695714Y-121064564D01*
X141840857Y-121064564D01*
X141913428Y-121028278D01*
X141949714Y-120955707D01*
X141949714Y-120665421D01*
X141913428Y-120592850D01*
X141840857Y-120556564D01*
X141695714Y-120556564D01*
X141623142Y-120592850D01*
X141586857Y-120665421D01*
X141586857Y-120737992D01*
X141949714Y-120810564D01*
X140933714Y-121064564D02*
X140933714Y-120302564D01*
X140933714Y-121028278D02*
X141006285Y-121064564D01*
X141151428Y-121064564D01*
X141224000Y-121028278D01*
X141260285Y-120991992D01*
X141296571Y-120919421D01*
X141296571Y-120701707D01*
X141260285Y-120629135D01*
X141224000Y-120592850D01*
X141151428Y-120556564D01*
X141006285Y-120556564D01*
X140933714Y-120592850D01*
X144090571Y-122398064D02*
X144090571Y-121636064D01*
X144090571Y-121926350D02*
X144018000Y-121890064D01*
X143872857Y-121890064D01*
X143800285Y-121926350D01*
X143764000Y-121962635D01*
X143727714Y-122035207D01*
X143727714Y-122252921D01*
X143764000Y-122325492D01*
X143800285Y-122361778D01*
X143872857Y-122398064D01*
X144018000Y-122398064D01*
X144090571Y-122361778D01*
X143473714Y-121890064D02*
X143292285Y-122398064D01*
X143110857Y-121890064D02*
X143292285Y-122398064D01*
X143364857Y-122579492D01*
X143401142Y-122615778D01*
X143473714Y-122652064D01*
D12*
G36*
X121882274Y-100386353D02*
G01*
X121923786Y-100392230D01*
X121941707Y-100405542D01*
X121945400Y-100427367D01*
X121939168Y-100453821D01*
X121913289Y-100466331D01*
X121856992Y-100469684D01*
X121850150Y-100469700D01*
X121754900Y-100469700D01*
X121754900Y-101655033D01*
X121840231Y-101655033D01*
X121908156Y-101663342D01*
X121938096Y-101687696D01*
X121944114Y-101721157D01*
X121941050Y-101729938D01*
X121912902Y-101739180D01*
X121858797Y-101746653D01*
X121795107Y-101751114D01*
X121738204Y-101751321D01*
X121708576Y-101747589D01*
X121677178Y-101720328D01*
X121666243Y-101690773D01*
X121662924Y-101675658D01*
X121654313Y-101664104D01*
X121635129Y-101655474D01*
X121600088Y-101649131D01*
X121543908Y-101644440D01*
X121461305Y-101640763D01*
X121346998Y-101637464D01*
X121195702Y-101633906D01*
X121193983Y-101633867D01*
X121007368Y-101628401D01*
X120862752Y-101621432D01*
X120759827Y-101612937D01*
X120698287Y-101602895D01*
X120682853Y-101597237D01*
X120621973Y-101549246D01*
X120555751Y-101477340D01*
X120495923Y-101396301D01*
X120454226Y-101320914D01*
X120446292Y-101299288D01*
X120421568Y-101151324D01*
X120424319Y-101117778D01*
X120506093Y-101117778D01*
X120526164Y-101244215D01*
X120582128Y-101364418D01*
X120672152Y-101469825D01*
X120760188Y-101549200D01*
X121670233Y-101549200D01*
X121670233Y-101411305D01*
X121669004Y-101336155D01*
X121662080Y-101290645D01*
X121644611Y-101262093D01*
X121611745Y-101237815D01*
X121601442Y-101231468D01*
X121555833Y-101209557D01*
X121499793Y-101196555D01*
X121421622Y-101190535D01*
X121345919Y-101189446D01*
X121249905Y-101190994D01*
X121182561Y-101197525D01*
X121130289Y-101211717D01*
X121079489Y-101236252D01*
X121064360Y-101244939D01*
X120969533Y-101300512D01*
X120918745Y-101252800D01*
X120867958Y-101205088D01*
X120860491Y-101350685D01*
X120856906Y-101417727D01*
X120854457Y-101449285D01*
X120852646Y-101443662D01*
X120850975Y-101399159D01*
X120848946Y-101314077D01*
X120848879Y-101311075D01*
X120848845Y-101228495D01*
X120852272Y-101164881D01*
X120858487Y-101129799D01*
X120861919Y-101125867D01*
X120884532Y-101141328D01*
X120918562Y-101179532D01*
X120926322Y-101189730D01*
X120973538Y-101253593D01*
X121062594Y-101203480D01*
X121105571Y-101181073D01*
X121145127Y-101167392D01*
X121192160Y-101161177D01*
X121257568Y-101161167D01*
X121352250Y-101166100D01*
X121373900Y-101167457D01*
X121470214Y-101174916D01*
X121553438Y-101183842D01*
X121612739Y-101192935D01*
X121634129Y-101198665D01*
X121652952Y-101203867D01*
X121663703Y-101193318D01*
X121667994Y-101159427D01*
X121667437Y-101094596D01*
X121665879Y-101049116D01*
X121659650Y-100882450D01*
X121299817Y-100877205D01*
X121179054Y-100876544D01*
X121071975Y-100878024D01*
X120986220Y-100881378D01*
X120929431Y-100886335D01*
X120910468Y-100890927D01*
X120895349Y-100909404D01*
X120902085Y-100939868D01*
X120928151Y-100986262D01*
X120965894Y-101034539D01*
X120995640Y-101048962D01*
X121012247Y-101028219D01*
X121014067Y-101008201D01*
X121025901Y-100980844D01*
X121035233Y-100977700D01*
X121054336Y-100993037D01*
X121050600Y-101030210D01*
X121029383Y-101070056D01*
X120994305Y-101094933D01*
X120970055Y-101094605D01*
X120930732Y-101062246D01*
X120894205Y-101005522D01*
X120870222Y-100941830D01*
X120865900Y-100908748D01*
X120868510Y-100882354D01*
X120882184Y-100865737D01*
X120915693Y-100855350D01*
X120977805Y-100847645D01*
X121027843Y-100843222D01*
X121120046Y-100837382D01*
X121236616Y-100832783D01*
X121359592Y-100830037D01*
X121430010Y-100829533D01*
X121670233Y-100829533D01*
X121670233Y-100702533D01*
X120740373Y-100702533D01*
X120662230Y-100771143D01*
X120574027Y-100874235D01*
X120522014Y-100992115D01*
X120506093Y-101117778D01*
X120424319Y-101117778D01*
X120433522Y-101005598D01*
X120479751Y-100870149D01*
X120557850Y-100753014D01*
X120629420Y-100686804D01*
X120721024Y-100617867D01*
X121670233Y-100617867D01*
X121670233Y-100385033D01*
X121807817Y-100385033D01*
X121882274Y-100386353D01*
X121882274Y-100386353D01*
G37*
X121882274Y-100386353D02*
X121923786Y-100392230D01*
X121941707Y-100405542D01*
X121945400Y-100427367D01*
X121939168Y-100453821D01*
X121913289Y-100466331D01*
X121856992Y-100469684D01*
X121850150Y-100469700D01*
X121754900Y-100469700D01*
X121754900Y-101655033D01*
X121840231Y-101655033D01*
X121908156Y-101663342D01*
X121938096Y-101687696D01*
X121944114Y-101721157D01*
X121941050Y-101729938D01*
X121912902Y-101739180D01*
X121858797Y-101746653D01*
X121795107Y-101751114D01*
X121738204Y-101751321D01*
X121708576Y-101747589D01*
X121677178Y-101720328D01*
X121666243Y-101690773D01*
X121662924Y-101675658D01*
X121654313Y-101664104D01*
X121635129Y-101655474D01*
X121600088Y-101649131D01*
X121543908Y-101644440D01*
X121461305Y-101640763D01*
X121346998Y-101637464D01*
X121195702Y-101633906D01*
X121193983Y-101633867D01*
X121007368Y-101628401D01*
X120862752Y-101621432D01*
X120759827Y-101612937D01*
X120698287Y-101602895D01*
X120682853Y-101597237D01*
X120621973Y-101549246D01*
X120555751Y-101477340D01*
X120495923Y-101396301D01*
X120454226Y-101320914D01*
X120446292Y-101299288D01*
X120421568Y-101151324D01*
X120424319Y-101117778D01*
X120506093Y-101117778D01*
X120526164Y-101244215D01*
X120582128Y-101364418D01*
X120672152Y-101469825D01*
X120760188Y-101549200D01*
X121670233Y-101549200D01*
X121670233Y-101411305D01*
X121669004Y-101336155D01*
X121662080Y-101290645D01*
X121644611Y-101262093D01*
X121611745Y-101237815D01*
X121601442Y-101231468D01*
X121555833Y-101209557D01*
X121499793Y-101196555D01*
X121421622Y-101190535D01*
X121345919Y-101189446D01*
X121249905Y-101190994D01*
X121182561Y-101197525D01*
X121130289Y-101211717D01*
X121079489Y-101236252D01*
X121064360Y-101244939D01*
X120969533Y-101300512D01*
X120918745Y-101252800D01*
X120867958Y-101205088D01*
X120860491Y-101350685D01*
X120856906Y-101417727D01*
X120854457Y-101449285D01*
X120852646Y-101443662D01*
X120850975Y-101399159D01*
X120848946Y-101314077D01*
X120848879Y-101311075D01*
X120848845Y-101228495D01*
X120852272Y-101164881D01*
X120858487Y-101129799D01*
X120861919Y-101125867D01*
X120884532Y-101141328D01*
X120918562Y-101179532D01*
X120926322Y-101189730D01*
X120973538Y-101253593D01*
X121062594Y-101203480D01*
X121105571Y-101181073D01*
X121145127Y-101167392D01*
X121192160Y-101161177D01*
X121257568Y-101161167D01*
X121352250Y-101166100D01*
X121373900Y-101167457D01*
X121470214Y-101174916D01*
X121553438Y-101183842D01*
X121612739Y-101192935D01*
X121634129Y-101198665D01*
X121652952Y-101203867D01*
X121663703Y-101193318D01*
X121667994Y-101159427D01*
X121667437Y-101094596D01*
X121665879Y-101049116D01*
X121659650Y-100882450D01*
X121299817Y-100877205D01*
X121179054Y-100876544D01*
X121071975Y-100878024D01*
X120986220Y-100881378D01*
X120929431Y-100886335D01*
X120910468Y-100890927D01*
X120895349Y-100909404D01*
X120902085Y-100939868D01*
X120928151Y-100986262D01*
X120965894Y-101034539D01*
X120995640Y-101048962D01*
X121012247Y-101028219D01*
X121014067Y-101008201D01*
X121025901Y-100980844D01*
X121035233Y-100977700D01*
X121054336Y-100993037D01*
X121050600Y-101030210D01*
X121029383Y-101070056D01*
X120994305Y-101094933D01*
X120970055Y-101094605D01*
X120930732Y-101062246D01*
X120894205Y-101005522D01*
X120870222Y-100941830D01*
X120865900Y-100908748D01*
X120868510Y-100882354D01*
X120882184Y-100865737D01*
X120915693Y-100855350D01*
X120977805Y-100847645D01*
X121027843Y-100843222D01*
X121120046Y-100837382D01*
X121236616Y-100832783D01*
X121359592Y-100830037D01*
X121430010Y-100829533D01*
X121670233Y-100829533D01*
X121670233Y-100702533D01*
X120740373Y-100702533D01*
X120662230Y-100771143D01*
X120574027Y-100874235D01*
X120522014Y-100992115D01*
X120506093Y-101117778D01*
X120424319Y-101117778D01*
X120433522Y-101005598D01*
X120479751Y-100870149D01*
X120557850Y-100753014D01*
X120629420Y-100686804D01*
X120721024Y-100617867D01*
X121670233Y-100617867D01*
X121670233Y-100385033D01*
X121807817Y-100385033D01*
X121882274Y-100386353D01*
G36*
X122368118Y-101290140D02*
G01*
X122368733Y-101295200D01*
X122352626Y-101315751D01*
X122347567Y-101316367D01*
X122327015Y-101300259D01*
X122326400Y-101295200D01*
X122342507Y-101274648D01*
X122347567Y-101274033D01*
X122368118Y-101290140D01*
X122368118Y-101290140D01*
G37*
X122368118Y-101290140D02*
X122368733Y-101295200D01*
X122352626Y-101315751D01*
X122347567Y-101316367D01*
X122327015Y-101300259D01*
X122326400Y-101295200D01*
X122342507Y-101274648D01*
X122347567Y-101274033D01*
X122368118Y-101290140D01*
G36*
X122636844Y-101281089D02*
G01*
X122639378Y-101306209D01*
X122636844Y-101309311D01*
X122624261Y-101306405D01*
X122622733Y-101295200D01*
X122630478Y-101277777D01*
X122636844Y-101281089D01*
X122636844Y-101281089D01*
G37*
X122636844Y-101281089D02*
X122639378Y-101306209D01*
X122636844Y-101309311D01*
X122624261Y-101306405D01*
X122622733Y-101295200D01*
X122630478Y-101277777D01*
X122636844Y-101281089D01*
G36*
X122918824Y-101290410D02*
G01*
X122919067Y-101295200D01*
X122902795Y-101315553D01*
X122896651Y-101316367D01*
X122884009Y-101303399D01*
X122887317Y-101295200D01*
X122906337Y-101275007D01*
X122909732Y-101274033D01*
X122918824Y-101290410D01*
X122918824Y-101290410D01*
G37*
X122918824Y-101290410D02*
X122919067Y-101295200D01*
X122902795Y-101315553D01*
X122896651Y-101316367D01*
X122884009Y-101303399D01*
X122887317Y-101295200D01*
X122906337Y-101275007D01*
X122909732Y-101274033D01*
X122918824Y-101290410D01*
G36*
X123060178Y-101281089D02*
G01*
X123062711Y-101306209D01*
X123060178Y-101309311D01*
X123047594Y-101306405D01*
X123046067Y-101295200D01*
X123053811Y-101277777D01*
X123060178Y-101281089D01*
X123060178Y-101281089D01*
G37*
X123060178Y-101281089D02*
X123062711Y-101306209D01*
X123060178Y-101309311D01*
X123047594Y-101306405D01*
X123046067Y-101295200D01*
X123053811Y-101277777D01*
X123060178Y-101281089D01*
G36*
X123130733Y-101284617D02*
G01*
X123150926Y-101303637D01*
X123151900Y-101307032D01*
X123135523Y-101316124D01*
X123130733Y-101316367D01*
X123110380Y-101300095D01*
X123109567Y-101293951D01*
X123122534Y-101281309D01*
X123130733Y-101284617D01*
X123130733Y-101284617D01*
G37*
X123130733Y-101284617D02*
X123150926Y-101303637D01*
X123151900Y-101307032D01*
X123135523Y-101316124D01*
X123130733Y-101316367D01*
X123110380Y-101300095D01*
X123109567Y-101293951D01*
X123122534Y-101281309D01*
X123130733Y-101284617D01*
G36*
X123214785Y-101290140D02*
G01*
X123215400Y-101295200D01*
X123199293Y-101315751D01*
X123194233Y-101316367D01*
X123173682Y-101300259D01*
X123173067Y-101295200D01*
X123189174Y-101274648D01*
X123194233Y-101274033D01*
X123214785Y-101290140D01*
X123214785Y-101290140D01*
G37*
X123214785Y-101290140D02*
X123215400Y-101295200D01*
X123199293Y-101315751D01*
X123194233Y-101316367D01*
X123173682Y-101300259D01*
X123173067Y-101295200D01*
X123189174Y-101274648D01*
X123194233Y-101274033D01*
X123214785Y-101290140D01*
G36*
X123278657Y-101290410D02*
G01*
X123278900Y-101295200D01*
X123262628Y-101315553D01*
X123256484Y-101316367D01*
X123243842Y-101303399D01*
X123247150Y-101295200D01*
X123266170Y-101275007D01*
X123269566Y-101274033D01*
X123278657Y-101290410D01*
X123278657Y-101290410D01*
G37*
X123278657Y-101290410D02*
X123278900Y-101295200D01*
X123262628Y-101315553D01*
X123256484Y-101316367D01*
X123243842Y-101303399D01*
X123247150Y-101295200D01*
X123266170Y-101275007D01*
X123269566Y-101274033D01*
X123278657Y-101290410D01*
G36*
X123547011Y-101281089D02*
G01*
X123549544Y-101306209D01*
X123547011Y-101309311D01*
X123534427Y-101306405D01*
X123532900Y-101295200D01*
X123540644Y-101277777D01*
X123547011Y-101281089D01*
X123547011Y-101281089D01*
G37*
X123547011Y-101281089D02*
X123549544Y-101306209D01*
X123547011Y-101309311D01*
X123534427Y-101306405D01*
X123532900Y-101295200D01*
X123540644Y-101277777D01*
X123547011Y-101281089D01*
G36*
X123617567Y-101284617D02*
G01*
X123637759Y-101303637D01*
X123638733Y-101307032D01*
X123622357Y-101316124D01*
X123617567Y-101316367D01*
X123597213Y-101300095D01*
X123596400Y-101293951D01*
X123609367Y-101281309D01*
X123617567Y-101284617D01*
X123617567Y-101284617D01*
G37*
X123617567Y-101284617D02*
X123637759Y-101303637D01*
X123638733Y-101307032D01*
X123622357Y-101316124D01*
X123617567Y-101316367D01*
X123597213Y-101300095D01*
X123596400Y-101293951D01*
X123609367Y-101281309D01*
X123617567Y-101284617D01*
G36*
X123701618Y-101290140D02*
G01*
X123702233Y-101295200D01*
X123686126Y-101315751D01*
X123681067Y-101316367D01*
X123660515Y-101300259D01*
X123659900Y-101295200D01*
X123676007Y-101274648D01*
X123681067Y-101274033D01*
X123701618Y-101290140D01*
X123701618Y-101290140D01*
G37*
X123701618Y-101290140D02*
X123702233Y-101295200D01*
X123686126Y-101315751D01*
X123681067Y-101316367D01*
X123660515Y-101300259D01*
X123659900Y-101295200D01*
X123676007Y-101274648D01*
X123681067Y-101274033D01*
X123701618Y-101290140D01*
G36*
X123906844Y-101281089D02*
G01*
X123909378Y-101306209D01*
X123906844Y-101309311D01*
X123894261Y-101306405D01*
X123892733Y-101295200D01*
X123900478Y-101277777D01*
X123906844Y-101281089D01*
X123906844Y-101281089D01*
G37*
X123906844Y-101281089D02*
X123909378Y-101306209D01*
X123906844Y-101309311D01*
X123894261Y-101306405D01*
X123892733Y-101295200D01*
X123900478Y-101277777D01*
X123906844Y-101281089D01*
G36*
X123977400Y-101284617D02*
G01*
X123997592Y-101303637D01*
X123998567Y-101307032D01*
X123982190Y-101316124D01*
X123977400Y-101316367D01*
X123957047Y-101300095D01*
X123956233Y-101293951D01*
X123969201Y-101281309D01*
X123977400Y-101284617D01*
X123977400Y-101284617D01*
G37*
X123977400Y-101284617D02*
X123997592Y-101303637D01*
X123998567Y-101307032D01*
X123982190Y-101316124D01*
X123977400Y-101316367D01*
X123957047Y-101300095D01*
X123956233Y-101293951D01*
X123969201Y-101281309D01*
X123977400Y-101284617D01*
G36*
X124061451Y-101290140D02*
G01*
X124062067Y-101295200D01*
X124045959Y-101315751D01*
X124040900Y-101316367D01*
X124020348Y-101300259D01*
X124019733Y-101295200D01*
X124035840Y-101274648D01*
X124040900Y-101274033D01*
X124061451Y-101290140D01*
X124061451Y-101290140D01*
G37*
X124061451Y-101290140D02*
X124062067Y-101295200D01*
X124045959Y-101315751D01*
X124040900Y-101316367D01*
X124020348Y-101300259D01*
X124019733Y-101295200D01*
X124035840Y-101274648D01*
X124040900Y-101274033D01*
X124061451Y-101290140D01*
G36*
X124125324Y-101290410D02*
G01*
X124125567Y-101295200D01*
X124109295Y-101315553D01*
X124103151Y-101316367D01*
X124090509Y-101303399D01*
X124093817Y-101295200D01*
X124112837Y-101275007D01*
X124116232Y-101274033D01*
X124125324Y-101290410D01*
X124125324Y-101290410D01*
G37*
X124125324Y-101290410D02*
X124125567Y-101295200D01*
X124109295Y-101315553D01*
X124103151Y-101316367D01*
X124090509Y-101303399D01*
X124093817Y-101295200D01*
X124112837Y-101275007D01*
X124116232Y-101274033D01*
X124125324Y-101290410D01*
G36*
X124188824Y-101290410D02*
G01*
X124189067Y-101295200D01*
X124172795Y-101315553D01*
X124166651Y-101316367D01*
X124154009Y-101303399D01*
X124157317Y-101295200D01*
X124176337Y-101275007D01*
X124179732Y-101274033D01*
X124188824Y-101290410D01*
X124188824Y-101290410D01*
G37*
X124188824Y-101290410D02*
X124189067Y-101295200D01*
X124172795Y-101315553D01*
X124166651Y-101316367D01*
X124154009Y-101303399D01*
X124157317Y-101295200D01*
X124176337Y-101275007D01*
X124179732Y-101274033D01*
X124188824Y-101290410D01*
G36*
X122368118Y-101226640D02*
G01*
X122368733Y-101231700D01*
X122352626Y-101252251D01*
X122347567Y-101252867D01*
X122327015Y-101236759D01*
X122326400Y-101231700D01*
X122342507Y-101211148D01*
X122347567Y-101210533D01*
X122368118Y-101226640D01*
X122368118Y-101226640D01*
G37*
X122368118Y-101226640D02*
X122368733Y-101231700D01*
X122352626Y-101252251D01*
X122347567Y-101252867D01*
X122327015Y-101236759D01*
X122326400Y-101231700D01*
X122342507Y-101211148D01*
X122347567Y-101210533D01*
X122368118Y-101226640D01*
G36*
X122636844Y-101217589D02*
G01*
X122639378Y-101242709D01*
X122636844Y-101245811D01*
X122624261Y-101242905D01*
X122622733Y-101231700D01*
X122630478Y-101214277D01*
X122636844Y-101217589D01*
X122636844Y-101217589D01*
G37*
X122636844Y-101217589D02*
X122639378Y-101242709D01*
X122636844Y-101245811D01*
X122624261Y-101242905D01*
X122622733Y-101231700D01*
X122630478Y-101214277D01*
X122636844Y-101217589D01*
G36*
X122918451Y-101226640D02*
G01*
X122919067Y-101231700D01*
X122902959Y-101252251D01*
X122897900Y-101252867D01*
X122877348Y-101236759D01*
X122876733Y-101231700D01*
X122892840Y-101211148D01*
X122897900Y-101210533D01*
X122918451Y-101226640D01*
X122918451Y-101226640D01*
G37*
X122918451Y-101226640D02*
X122919067Y-101231700D01*
X122902959Y-101252251D01*
X122897900Y-101252867D01*
X122877348Y-101236759D01*
X122876733Y-101231700D01*
X122892840Y-101211148D01*
X122897900Y-101210533D01*
X122918451Y-101226640D01*
G36*
X123060178Y-101217589D02*
G01*
X123062711Y-101242709D01*
X123060178Y-101245811D01*
X123047594Y-101242905D01*
X123046067Y-101231700D01*
X123053811Y-101214277D01*
X123060178Y-101217589D01*
X123060178Y-101217589D01*
G37*
X123060178Y-101217589D02*
X123062711Y-101242709D01*
X123060178Y-101245811D01*
X123047594Y-101242905D01*
X123046067Y-101231700D01*
X123053811Y-101214277D01*
X123060178Y-101217589D01*
G36*
X123341538Y-101225898D02*
G01*
X123342400Y-101231700D01*
X123335178Y-101252316D01*
X123333066Y-101252867D01*
X123314994Y-101238034D01*
X123310650Y-101231700D01*
X123312328Y-101212195D01*
X123319984Y-101210533D01*
X123341538Y-101225898D01*
X123341538Y-101225898D01*
G37*
X123341538Y-101225898D02*
X123342400Y-101231700D01*
X123335178Y-101252316D01*
X123333066Y-101252867D01*
X123314994Y-101238034D01*
X123310650Y-101231700D01*
X123312328Y-101212195D01*
X123319984Y-101210533D01*
X123341538Y-101225898D01*
G36*
X123638118Y-101226640D02*
G01*
X123638733Y-101231700D01*
X123622626Y-101252251D01*
X123617567Y-101252867D01*
X123597015Y-101236759D01*
X123596400Y-101231700D01*
X123612507Y-101211148D01*
X123617567Y-101210533D01*
X123638118Y-101226640D01*
X123638118Y-101226640D01*
G37*
X123638118Y-101226640D02*
X123638733Y-101231700D01*
X123622626Y-101252251D01*
X123617567Y-101252867D01*
X123597015Y-101236759D01*
X123596400Y-101231700D01*
X123612507Y-101211148D01*
X123617567Y-101210533D01*
X123638118Y-101226640D01*
G36*
X124188451Y-101226640D02*
G01*
X124189067Y-101231700D01*
X124172959Y-101252251D01*
X124167900Y-101252867D01*
X124147348Y-101236759D01*
X124146733Y-101231700D01*
X124162840Y-101211148D01*
X124167900Y-101210533D01*
X124188451Y-101226640D01*
X124188451Y-101226640D01*
G37*
X124188451Y-101226640D02*
X124189067Y-101231700D01*
X124172959Y-101252251D01*
X124167900Y-101252867D01*
X124147348Y-101236759D01*
X124146733Y-101231700D01*
X124162840Y-101211148D01*
X124167900Y-101210533D01*
X124188451Y-101226640D01*
G36*
X122368118Y-101163140D02*
G01*
X122368733Y-101168200D01*
X122352626Y-101188751D01*
X122347567Y-101189367D01*
X122327015Y-101173259D01*
X122326400Y-101168200D01*
X122342507Y-101147648D01*
X122347567Y-101147033D01*
X122368118Y-101163140D01*
X122368118Y-101163140D01*
G37*
X122368118Y-101163140D02*
X122368733Y-101168200D01*
X122352626Y-101188751D01*
X122347567Y-101189367D01*
X122327015Y-101173259D01*
X122326400Y-101168200D01*
X122342507Y-101147648D01*
X122347567Y-101147033D01*
X122368118Y-101163140D01*
G36*
X122656178Y-101156989D02*
G01*
X122654483Y-101168200D01*
X122636378Y-101188370D01*
X122633317Y-101189367D01*
X122616488Y-101174604D01*
X122612150Y-101168200D01*
X122617176Y-101150268D01*
X122633317Y-101147033D01*
X122656178Y-101156989D01*
X122656178Y-101156989D01*
G37*
X122656178Y-101156989D02*
X122654483Y-101168200D01*
X122636378Y-101188370D01*
X122633317Y-101189367D01*
X122616488Y-101174604D01*
X122612150Y-101168200D01*
X122617176Y-101150268D01*
X122633317Y-101147033D01*
X122656178Y-101156989D01*
G36*
X122918205Y-101162398D02*
G01*
X122919067Y-101168200D01*
X122911845Y-101188816D01*
X122909732Y-101189367D01*
X122891661Y-101174534D01*
X122887317Y-101168200D01*
X122888995Y-101148695D01*
X122896651Y-101147033D01*
X122918205Y-101162398D01*
X122918205Y-101162398D01*
G37*
X122918205Y-101162398D02*
X122919067Y-101168200D01*
X122911845Y-101188816D01*
X122909732Y-101189367D01*
X122891661Y-101174534D01*
X122887317Y-101168200D01*
X122888995Y-101148695D01*
X122896651Y-101147033D01*
X122918205Y-101162398D01*
G36*
X123081124Y-101160001D02*
G01*
X123077817Y-101168200D01*
X123058796Y-101188392D01*
X123055401Y-101189367D01*
X123046309Y-101172990D01*
X123046067Y-101168200D01*
X123062338Y-101147847D01*
X123068482Y-101147033D01*
X123081124Y-101160001D01*
X123081124Y-101160001D01*
G37*
X123081124Y-101160001D02*
X123077817Y-101168200D01*
X123058796Y-101188392D01*
X123055401Y-101189367D01*
X123046309Y-101172990D01*
X123046067Y-101168200D01*
X123062338Y-101147847D01*
X123068482Y-101147033D01*
X123081124Y-101160001D01*
G36*
X123341538Y-101162398D02*
G01*
X123342400Y-101168200D01*
X123335178Y-101188816D01*
X123333066Y-101189367D01*
X123314994Y-101174534D01*
X123310650Y-101168200D01*
X123312328Y-101148695D01*
X123319984Y-101147033D01*
X123341538Y-101162398D01*
X123341538Y-101162398D01*
G37*
X123341538Y-101162398D02*
X123342400Y-101168200D01*
X123335178Y-101188816D01*
X123333066Y-101189367D01*
X123314994Y-101174534D01*
X123310650Y-101168200D01*
X123312328Y-101148695D01*
X123319984Y-101147033D01*
X123341538Y-101162398D01*
G36*
X123631457Y-101160001D02*
G01*
X123628150Y-101168200D01*
X123609129Y-101188392D01*
X123605734Y-101189367D01*
X123596643Y-101172990D01*
X123596400Y-101168200D01*
X123612672Y-101147847D01*
X123618816Y-101147033D01*
X123631457Y-101160001D01*
X123631457Y-101160001D01*
G37*
X123631457Y-101160001D02*
X123628150Y-101168200D01*
X123609129Y-101188392D01*
X123605734Y-101189367D01*
X123596643Y-101172990D01*
X123596400Y-101168200D01*
X123612672Y-101147847D01*
X123618816Y-101147033D01*
X123631457Y-101160001D01*
G36*
X124188205Y-101162398D02*
G01*
X124189067Y-101168200D01*
X124181845Y-101188816D01*
X124179732Y-101189367D01*
X124161661Y-101174534D01*
X124157317Y-101168200D01*
X124158995Y-101148695D01*
X124166651Y-101147033D01*
X124188205Y-101162398D01*
X124188205Y-101162398D01*
G37*
X124188205Y-101162398D02*
X124189067Y-101168200D01*
X124181845Y-101188816D01*
X124179732Y-101189367D01*
X124161661Y-101174534D01*
X124157317Y-101168200D01*
X124158995Y-101148695D01*
X124166651Y-101147033D01*
X124188205Y-101162398D01*
G36*
X122058032Y-100999698D02*
G01*
X122095976Y-101005519D01*
X122111542Y-101021317D01*
X122114709Y-101052083D01*
X122114733Y-101062367D01*
X122113070Y-101097516D01*
X122101429Y-101116488D01*
X122069832Y-101124271D01*
X122008301Y-101125855D01*
X121987733Y-101125867D01*
X121917434Y-101125035D01*
X121879491Y-101119214D01*
X121863924Y-101103416D01*
X121860757Y-101072650D01*
X121860733Y-101062367D01*
X121862396Y-101027217D01*
X121874037Y-101008245D01*
X121905634Y-101000462D01*
X121967166Y-100998878D01*
X121987733Y-100998867D01*
X122058032Y-100999698D01*
X122058032Y-100999698D01*
G37*
X122058032Y-100999698D02*
X122095976Y-101005519D01*
X122111542Y-101021317D01*
X122114709Y-101052083D01*
X122114733Y-101062367D01*
X122113070Y-101097516D01*
X122101429Y-101116488D01*
X122069832Y-101124271D01*
X122008301Y-101125855D01*
X121987733Y-101125867D01*
X121917434Y-101125035D01*
X121879491Y-101119214D01*
X121863924Y-101103416D01*
X121860757Y-101072650D01*
X121860733Y-101062367D01*
X121862396Y-101027217D01*
X121874037Y-101008245D01*
X121905634Y-101000462D01*
X121967166Y-100998878D01*
X121987733Y-100998867D01*
X122058032Y-100999698D01*
G36*
X122368118Y-101099640D02*
G01*
X122368733Y-101104700D01*
X122352626Y-101125251D01*
X122347567Y-101125867D01*
X122327015Y-101109759D01*
X122326400Y-101104700D01*
X122342507Y-101084148D01*
X122347567Y-101083533D01*
X122368118Y-101099640D01*
X122368118Y-101099640D01*
G37*
X122368118Y-101099640D02*
X122368733Y-101104700D01*
X122352626Y-101125251D01*
X122347567Y-101125867D01*
X122327015Y-101109759D01*
X122326400Y-101104700D01*
X122342507Y-101084148D01*
X122347567Y-101083533D01*
X122368118Y-101099640D01*
G36*
X122656178Y-101093489D02*
G01*
X122654483Y-101104700D01*
X122636378Y-101124870D01*
X122633317Y-101125867D01*
X122616488Y-101111104D01*
X122612150Y-101104700D01*
X122617176Y-101086768D01*
X122633317Y-101083533D01*
X122656178Y-101093489D01*
X122656178Y-101093489D01*
G37*
X122656178Y-101093489D02*
X122654483Y-101104700D01*
X122636378Y-101124870D01*
X122633317Y-101125867D01*
X122616488Y-101111104D01*
X122612150Y-101104700D01*
X122617176Y-101086768D01*
X122633317Y-101083533D01*
X122656178Y-101093489D01*
G36*
X122721291Y-101096501D02*
G01*
X122717983Y-101104700D01*
X122698963Y-101124892D01*
X122695567Y-101125867D01*
X122686476Y-101109490D01*
X122686233Y-101104700D01*
X122702505Y-101084347D01*
X122708649Y-101083533D01*
X122721291Y-101096501D01*
X122721291Y-101096501D01*
G37*
X122721291Y-101096501D02*
X122717983Y-101104700D01*
X122698963Y-101124892D01*
X122695567Y-101125867D01*
X122686476Y-101109490D01*
X122686233Y-101104700D01*
X122702505Y-101084347D01*
X122708649Y-101083533D01*
X122721291Y-101096501D01*
G36*
X122784791Y-101096501D02*
G01*
X122781483Y-101104700D01*
X122762463Y-101124892D01*
X122759067Y-101125867D01*
X122749976Y-101109490D01*
X122749733Y-101104700D01*
X122766005Y-101084347D01*
X122772149Y-101083533D01*
X122784791Y-101096501D01*
X122784791Y-101096501D01*
G37*
X122784791Y-101096501D02*
X122781483Y-101104700D01*
X122762463Y-101124892D01*
X122759067Y-101125867D01*
X122749976Y-101109490D01*
X122749733Y-101104700D01*
X122766005Y-101084347D01*
X122772149Y-101083533D01*
X122784791Y-101096501D01*
G36*
X122854951Y-101099640D02*
G01*
X122855567Y-101104700D01*
X122839459Y-101125251D01*
X122834400Y-101125867D01*
X122813848Y-101109759D01*
X122813233Y-101104700D01*
X122829340Y-101084148D01*
X122834400Y-101083533D01*
X122854951Y-101099640D01*
X122854951Y-101099640D01*
G37*
X122854951Y-101099640D02*
X122855567Y-101104700D01*
X122839459Y-101125251D01*
X122834400Y-101125867D01*
X122813848Y-101109759D01*
X122813233Y-101104700D01*
X122829340Y-101084148D01*
X122834400Y-101083533D01*
X122854951Y-101099640D01*
G36*
X122918205Y-101098898D02*
G01*
X122919067Y-101104700D01*
X122911845Y-101125316D01*
X122909732Y-101125867D01*
X122891661Y-101111034D01*
X122887317Y-101104700D01*
X122888995Y-101085195D01*
X122896651Y-101083533D01*
X122918205Y-101098898D01*
X122918205Y-101098898D01*
G37*
X122918205Y-101098898D02*
X122919067Y-101104700D01*
X122911845Y-101125316D01*
X122909732Y-101125867D01*
X122891661Y-101111034D01*
X122887317Y-101104700D01*
X122888995Y-101085195D01*
X122896651Y-101083533D01*
X122918205Y-101098898D01*
G36*
X123079512Y-101093489D02*
G01*
X123077817Y-101104700D01*
X123059711Y-101124870D01*
X123056650Y-101125867D01*
X123039821Y-101111104D01*
X123035483Y-101104700D01*
X123040510Y-101086768D01*
X123056650Y-101083533D01*
X123079512Y-101093489D01*
X123079512Y-101093489D01*
G37*
X123079512Y-101093489D02*
X123077817Y-101104700D01*
X123059711Y-101124870D01*
X123056650Y-101125867D01*
X123039821Y-101111104D01*
X123035483Y-101104700D01*
X123040510Y-101086768D01*
X123056650Y-101083533D01*
X123079512Y-101093489D01*
G36*
X123144624Y-101096501D02*
G01*
X123141317Y-101104700D01*
X123122296Y-101124892D01*
X123118901Y-101125867D01*
X123109809Y-101109490D01*
X123109567Y-101104700D01*
X123125838Y-101084347D01*
X123131982Y-101083533D01*
X123144624Y-101096501D01*
X123144624Y-101096501D01*
G37*
X123144624Y-101096501D02*
X123141317Y-101104700D01*
X123122296Y-101124892D01*
X123118901Y-101125867D01*
X123109809Y-101109490D01*
X123109567Y-101104700D01*
X123125838Y-101084347D01*
X123131982Y-101083533D01*
X123144624Y-101096501D01*
G36*
X123214785Y-101099640D02*
G01*
X123215400Y-101104700D01*
X123199293Y-101125251D01*
X123194233Y-101125867D01*
X123173682Y-101109759D01*
X123173067Y-101104700D01*
X123189174Y-101084148D01*
X123194233Y-101083533D01*
X123214785Y-101099640D01*
X123214785Y-101099640D01*
G37*
X123214785Y-101099640D02*
X123215400Y-101104700D01*
X123199293Y-101125251D01*
X123194233Y-101125867D01*
X123173682Y-101109759D01*
X123173067Y-101104700D01*
X123189174Y-101084148D01*
X123194233Y-101083533D01*
X123214785Y-101099640D01*
G36*
X123341538Y-101098898D02*
G01*
X123342400Y-101104700D01*
X123335178Y-101125316D01*
X123333066Y-101125867D01*
X123314994Y-101111034D01*
X123310650Y-101104700D01*
X123312328Y-101085195D01*
X123319984Y-101083533D01*
X123341538Y-101098898D01*
X123341538Y-101098898D01*
G37*
X123341538Y-101098898D02*
X123342400Y-101104700D01*
X123335178Y-101125316D01*
X123333066Y-101125867D01*
X123314994Y-101111034D01*
X123310650Y-101104700D01*
X123312328Y-101085195D01*
X123319984Y-101083533D01*
X123341538Y-101098898D01*
G36*
X123631457Y-101096501D02*
G01*
X123628150Y-101104700D01*
X123609129Y-101124892D01*
X123605734Y-101125867D01*
X123596643Y-101109490D01*
X123596400Y-101104700D01*
X123612672Y-101084347D01*
X123618816Y-101083533D01*
X123631457Y-101096501D01*
X123631457Y-101096501D01*
G37*
X123631457Y-101096501D02*
X123628150Y-101104700D01*
X123609129Y-101124892D01*
X123605734Y-101125867D01*
X123596643Y-101109490D01*
X123596400Y-101104700D01*
X123612672Y-101084347D01*
X123618816Y-101083533D01*
X123631457Y-101096501D01*
G36*
X124188205Y-101098898D02*
G01*
X124189067Y-101104700D01*
X124181845Y-101125316D01*
X124179732Y-101125867D01*
X124161661Y-101111034D01*
X124157317Y-101104700D01*
X124158995Y-101085195D01*
X124166651Y-101083533D01*
X124188205Y-101098898D01*
X124188205Y-101098898D01*
G37*
X124188205Y-101098898D02*
X124189067Y-101104700D01*
X124181845Y-101125316D01*
X124179732Y-101125867D01*
X124161661Y-101111034D01*
X124157317Y-101104700D01*
X124158995Y-101085195D01*
X124166651Y-101083533D01*
X124188205Y-101098898D01*
G36*
X126898400Y-101125867D02*
G01*
X124358400Y-101125867D01*
X124358400Y-100998867D01*
X125513965Y-100998867D01*
X125764293Y-100998834D01*
X125975627Y-100998656D01*
X126151305Y-100998210D01*
X126294668Y-100997377D01*
X126409054Y-100996034D01*
X126497801Y-100994061D01*
X126564250Y-100991336D01*
X126611739Y-100987738D01*
X126643608Y-100983147D01*
X126663195Y-100977440D01*
X126673840Y-100970497D01*
X126678881Y-100962196D01*
X126680600Y-100956533D01*
X126694862Y-100930382D01*
X126727392Y-100917696D01*
X126789723Y-100914210D01*
X126795035Y-100914200D01*
X126898400Y-100914200D01*
X126898400Y-101125867D01*
X126898400Y-101125867D01*
G37*
X126898400Y-101125867D02*
X124358400Y-101125867D01*
X124358400Y-100998867D01*
X125513965Y-100998867D01*
X125764293Y-100998834D01*
X125975627Y-100998656D01*
X126151305Y-100998210D01*
X126294668Y-100997377D01*
X126409054Y-100996034D01*
X126497801Y-100994061D01*
X126564250Y-100991336D01*
X126611739Y-100987738D01*
X126643608Y-100983147D01*
X126663195Y-100977440D01*
X126673840Y-100970497D01*
X126678881Y-100962196D01*
X126680600Y-100956533D01*
X126694862Y-100930382D01*
X126727392Y-100917696D01*
X126789723Y-100914210D01*
X126795035Y-100914200D01*
X126898400Y-100914200D01*
X126898400Y-101125867D01*
G36*
X122431425Y-100874342D02*
G01*
X122490353Y-100881100D01*
X122516335Y-100891140D01*
X122516900Y-100893033D01*
X122498293Y-100907024D01*
X122452539Y-100914017D01*
X122442817Y-100914200D01*
X122393019Y-100917778D01*
X122372595Y-100935690D01*
X122368733Y-100976451D01*
X122362208Y-101025333D01*
X122347567Y-101051783D01*
X122333163Y-101042841D01*
X122326556Y-100999719D01*
X122326400Y-100989532D01*
X122323273Y-100939328D01*
X122305442Y-100918519D01*
X122260232Y-100914219D01*
X122252317Y-100914200D01*
X122203350Y-100908883D01*
X122178873Y-100895811D01*
X122178233Y-100893033D01*
X122198037Y-100882551D01*
X122252105Y-100875185D01*
X122332418Y-100871937D01*
X122347567Y-100871867D01*
X122431425Y-100874342D01*
X122431425Y-100874342D01*
G37*
X122431425Y-100874342D02*
X122490353Y-100881100D01*
X122516335Y-100891140D01*
X122516900Y-100893033D01*
X122498293Y-100907024D01*
X122452539Y-100914017D01*
X122442817Y-100914200D01*
X122393019Y-100917778D01*
X122372595Y-100935690D01*
X122368733Y-100976451D01*
X122362208Y-101025333D01*
X122347567Y-101051783D01*
X122333163Y-101042841D01*
X122326556Y-100999719D01*
X122326400Y-100989532D01*
X122323273Y-100939328D01*
X122305442Y-100918519D01*
X122260232Y-100914219D01*
X122252317Y-100914200D01*
X122203350Y-100908883D01*
X122178873Y-100895811D01*
X122178233Y-100893033D01*
X122198037Y-100882551D01*
X122252105Y-100875185D01*
X122332418Y-100871937D01*
X122347567Y-100871867D01*
X122431425Y-100874342D01*
G36*
X122648360Y-100890061D02*
G01*
X122656052Y-100933924D01*
X122656049Y-100987375D01*
X122648011Y-101034334D01*
X122637209Y-101054946D01*
X122621790Y-101062283D01*
X122620949Y-101060603D01*
X122611988Y-100991398D01*
X122612167Y-100928641D01*
X122620665Y-100884847D01*
X122633317Y-100871867D01*
X122648360Y-100890061D01*
X122648360Y-100890061D01*
G37*
X122648360Y-100890061D02*
X122656052Y-100933924D01*
X122656049Y-100987375D01*
X122648011Y-101034334D01*
X122637209Y-101054946D01*
X122621790Y-101062283D01*
X122620949Y-101060603D01*
X122611988Y-100991398D01*
X122612167Y-100928641D01*
X122620665Y-100884847D01*
X122633317Y-100871867D01*
X122648360Y-100890061D01*
G36*
X122910255Y-100890784D02*
G01*
X122918065Y-100938647D01*
X122919067Y-100967117D01*
X122916317Y-101034787D01*
X122907821Y-101061558D01*
X122893210Y-101048521D01*
X122892128Y-101046492D01*
X122882702Y-101009086D01*
X122879818Y-100957190D01*
X122882995Y-100907244D01*
X122891752Y-100875689D01*
X122897237Y-100871867D01*
X122910255Y-100890784D01*
X122910255Y-100890784D01*
G37*
X122910255Y-100890784D02*
X122918065Y-100938647D01*
X122919067Y-100967117D01*
X122916317Y-101034787D01*
X122907821Y-101061558D01*
X122893210Y-101048521D01*
X122892128Y-101046492D01*
X122882702Y-101009086D01*
X122879818Y-100957190D01*
X122882995Y-100907244D01*
X122891752Y-100875689D01*
X122897237Y-100871867D01*
X122910255Y-100890784D01*
G36*
X123336474Y-100953765D02*
G01*
X123342398Y-100998093D01*
X123342400Y-100998867D01*
X123338254Y-101044889D01*
X123328332Y-101065313D01*
X123318820Y-101057075D01*
X123310732Y-101020411D01*
X123309977Y-100975665D01*
X123315972Y-100942110D01*
X123322501Y-100935367D01*
X123336474Y-100953765D01*
X123336474Y-100953765D01*
G37*
X123336474Y-100953765D02*
X123342398Y-100998093D01*
X123342400Y-100998867D01*
X123338254Y-101044889D01*
X123328332Y-101065313D01*
X123318820Y-101057075D01*
X123310732Y-101020411D01*
X123309977Y-100975665D01*
X123315972Y-100942110D01*
X123322501Y-100935367D01*
X123336474Y-100953765D01*
G36*
X123663788Y-100876071D02*
G01*
X123697863Y-100886707D01*
X123702233Y-100893033D01*
X123685089Y-100911812D01*
X123670483Y-100914200D01*
X123642882Y-100932682D01*
X123634598Y-100985307D01*
X123636787Y-101013145D01*
X123624439Y-101046325D01*
X123618128Y-101051436D01*
X123603083Y-101043003D01*
X123596520Y-100998813D01*
X123596400Y-100989532D01*
X123591834Y-100937950D01*
X123573926Y-100916875D01*
X123554067Y-100914200D01*
X123519671Y-100905336D01*
X123511733Y-100893033D01*
X123530652Y-100880410D01*
X123578518Y-100872838D01*
X123606983Y-100871867D01*
X123663788Y-100876071D01*
X123663788Y-100876071D01*
G37*
X123663788Y-100876071D02*
X123697863Y-100886707D01*
X123702233Y-100893033D01*
X123685089Y-100911812D01*
X123670483Y-100914200D01*
X123642882Y-100932682D01*
X123634598Y-100985307D01*
X123636787Y-101013145D01*
X123624439Y-101046325D01*
X123618128Y-101051436D01*
X123603083Y-101043003D01*
X123596520Y-100998813D01*
X123596400Y-100989532D01*
X123591834Y-100937950D01*
X123573926Y-100916875D01*
X123554067Y-100914200D01*
X123519671Y-100905336D01*
X123511733Y-100893033D01*
X123530652Y-100880410D01*
X123578518Y-100872838D01*
X123606983Y-100871867D01*
X123663788Y-100876071D01*
G36*
X124192622Y-100885242D02*
G01*
X124194058Y-100887742D01*
X124197253Y-100916412D01*
X124193705Y-100961590D01*
X124185847Y-101008948D01*
X124176117Y-101044158D01*
X124166949Y-101052894D01*
X124166171Y-101051783D01*
X124155061Y-101014471D01*
X124150214Y-100962215D01*
X124151646Y-100911120D01*
X124159374Y-100877290D01*
X124165988Y-100871867D01*
X124192622Y-100885242D01*
X124192622Y-100885242D01*
G37*
X124192622Y-100885242D02*
X124194058Y-100887742D01*
X124197253Y-100916412D01*
X124193705Y-100961590D01*
X124185847Y-101008948D01*
X124176117Y-101044158D01*
X124166949Y-101052894D01*
X124166171Y-101051783D01*
X124155061Y-101014471D01*
X124150214Y-100962215D01*
X124151646Y-100911120D01*
X124159374Y-100877290D01*
X124165988Y-100871867D01*
X124192622Y-100885242D01*
G36*
X123085272Y-100960832D02*
G01*
X123073503Y-100979897D01*
X123046978Y-100990316D01*
X123037527Y-100981007D01*
X123039398Y-100952336D01*
X123047129Y-100945293D01*
X123077179Y-100940356D01*
X123085272Y-100960832D01*
X123085272Y-100960832D01*
G37*
X123085272Y-100960832D02*
X123073503Y-100979897D01*
X123046978Y-100990316D01*
X123037527Y-100981007D01*
X123039398Y-100952336D01*
X123047129Y-100945293D01*
X123077179Y-100940356D01*
X123085272Y-100960832D01*
G36*
X123247252Y-100876561D02*
G01*
X123276741Y-100888288D01*
X123278900Y-100893033D01*
X123260122Y-100906288D01*
X123213212Y-100913660D01*
X123194233Y-100914200D01*
X123141215Y-100909505D01*
X123111725Y-100897778D01*
X123109567Y-100893033D01*
X123128345Y-100879779D01*
X123175254Y-100872406D01*
X123194233Y-100871867D01*
X123247252Y-100876561D01*
X123247252Y-100876561D01*
G37*
X123247252Y-100876561D02*
X123276741Y-100888288D01*
X123278900Y-100893033D01*
X123260122Y-100906288D01*
X123213212Y-100913660D01*
X123194233Y-100914200D01*
X123141215Y-100909505D01*
X123111725Y-100897778D01*
X123109567Y-100893033D01*
X123128345Y-100879779D01*
X123175254Y-100872406D01*
X123194233Y-100871867D01*
X123247252Y-100876561D01*
G36*
X123734747Y-99488415D02*
G01*
X123739052Y-99574799D01*
X123741858Y-99692854D01*
X123743076Y-99831940D01*
X123742614Y-99981418D01*
X123740383Y-100130649D01*
X123740263Y-100136124D01*
X123736273Y-100290896D01*
X123731792Y-100408145D01*
X123726404Y-100492681D01*
X123719695Y-100549314D01*
X123711251Y-100582856D01*
X123700658Y-100598116D01*
X123700462Y-100598242D01*
X123662329Y-100608630D01*
X123596561Y-100614960D01*
X123517688Y-100616955D01*
X123440238Y-100614340D01*
X123378741Y-100606841D01*
X123368858Y-100604525D01*
X123347082Y-100596253D01*
X123333203Y-100580037D01*
X123325451Y-100547623D01*
X123322054Y-100490758D01*
X123321242Y-100401188D01*
X123321233Y-100382564D01*
X123319362Y-100293295D01*
X123314304Y-100223333D01*
X123306888Y-100181426D01*
X123301370Y-100173367D01*
X123277970Y-100183825D01*
X123224153Y-100213015D01*
X123145663Y-100257658D01*
X123048246Y-100314475D01*
X122937646Y-100380189D01*
X122911944Y-100395617D01*
X122542381Y-100617867D01*
X122376182Y-100617542D01*
X122293622Y-100615236D01*
X122225947Y-100609427D01*
X122185658Y-100601275D01*
X122182060Y-100599513D01*
X122163293Y-100564523D01*
X122160893Y-100500161D01*
X122165166Y-100465658D01*
X122175470Y-100437799D01*
X122197889Y-100410977D01*
X122238506Y-100379583D01*
X122303404Y-100338010D01*
X122398666Y-100280650D01*
X122399647Y-100280065D01*
X122631644Y-100141617D01*
X122393910Y-100135627D01*
X122156176Y-100129638D01*
X122161938Y-99710469D01*
X122580400Y-99710469D01*
X122582849Y-99724728D01*
X122594064Y-99735084D01*
X122619846Y-99742159D01*
X122665996Y-99746571D01*
X122738316Y-99748940D01*
X122842606Y-99749885D01*
X122950817Y-99750033D01*
X123084299Y-99749774D01*
X123181253Y-99748582D01*
X123247480Y-99745835D01*
X123288784Y-99740913D01*
X123310966Y-99733192D01*
X123319831Y-99722051D01*
X123321233Y-99710346D01*
X123312890Y-99685190D01*
X123284529Y-99666965D01*
X123231151Y-99654749D01*
X123147758Y-99647620D01*
X123029350Y-99644655D01*
X122964046Y-99644433D01*
X122821619Y-99646170D01*
X122716842Y-99651570D01*
X122645128Y-99661423D01*
X122601892Y-99676519D01*
X122582547Y-99697645D01*
X122580400Y-99710469D01*
X122161938Y-99710469D01*
X122167650Y-99294950D01*
X122943530Y-99289399D01*
X123719410Y-99283849D01*
X123734747Y-99488415D01*
X123734747Y-99488415D01*
G37*
X123734747Y-99488415D02*
X123739052Y-99574799D01*
X123741858Y-99692854D01*
X123743076Y-99831940D01*
X123742614Y-99981418D01*
X123740383Y-100130649D01*
X123740263Y-100136124D01*
X123736273Y-100290896D01*
X123731792Y-100408145D01*
X123726404Y-100492681D01*
X123719695Y-100549314D01*
X123711251Y-100582856D01*
X123700658Y-100598116D01*
X123700462Y-100598242D01*
X123662329Y-100608630D01*
X123596561Y-100614960D01*
X123517688Y-100616955D01*
X123440238Y-100614340D01*
X123378741Y-100606841D01*
X123368858Y-100604525D01*
X123347082Y-100596253D01*
X123333203Y-100580037D01*
X123325451Y-100547623D01*
X123322054Y-100490758D01*
X123321242Y-100401188D01*
X123321233Y-100382564D01*
X123319362Y-100293295D01*
X123314304Y-100223333D01*
X123306888Y-100181426D01*
X123301370Y-100173367D01*
X123277970Y-100183825D01*
X123224153Y-100213015D01*
X123145663Y-100257658D01*
X123048246Y-100314475D01*
X122937646Y-100380189D01*
X122911944Y-100395617D01*
X122542381Y-100617867D01*
X122376182Y-100617542D01*
X122293622Y-100615236D01*
X122225947Y-100609427D01*
X122185658Y-100601275D01*
X122182060Y-100599513D01*
X122163293Y-100564523D01*
X122160893Y-100500161D01*
X122165166Y-100465658D01*
X122175470Y-100437799D01*
X122197889Y-100410977D01*
X122238506Y-100379583D01*
X122303404Y-100338010D01*
X122398666Y-100280650D01*
X122399647Y-100280065D01*
X122631644Y-100141617D01*
X122393910Y-100135627D01*
X122156176Y-100129638D01*
X122161938Y-99710469D01*
X122580400Y-99710469D01*
X122582849Y-99724728D01*
X122594064Y-99735084D01*
X122619846Y-99742159D01*
X122665996Y-99746571D01*
X122738316Y-99748940D01*
X122842606Y-99749885D01*
X122950817Y-99750033D01*
X123084299Y-99749774D01*
X123181253Y-99748582D01*
X123247480Y-99745835D01*
X123288784Y-99740913D01*
X123310966Y-99733192D01*
X123319831Y-99722051D01*
X123321233Y-99710346D01*
X123312890Y-99685190D01*
X123284529Y-99666965D01*
X123231151Y-99654749D01*
X123147758Y-99647620D01*
X123029350Y-99644655D01*
X122964046Y-99644433D01*
X122821619Y-99646170D01*
X122716842Y-99651570D01*
X122645128Y-99661423D01*
X122601892Y-99676519D01*
X122582547Y-99697645D01*
X122580400Y-99710469D01*
X122161938Y-99710469D01*
X122167650Y-99294950D01*
X122943530Y-99289399D01*
X123719410Y-99283849D01*
X123734747Y-99488415D01*
G36*
X125332067Y-100594782D02*
G01*
X125263275Y-100607611D01*
X125203319Y-100613633D01*
X125122685Y-100615408D01*
X125067483Y-100613862D01*
X124940483Y-100607283D01*
X124921735Y-100369158D01*
X124902986Y-100131033D01*
X124169286Y-100131033D01*
X124163301Y-100369158D01*
X124157317Y-100607283D01*
X123976397Y-100613336D01*
X123892574Y-100614453D01*
X123825542Y-100612193D01*
X123786062Y-100607044D01*
X123780606Y-100604517D01*
X123776920Y-100580414D01*
X123773567Y-100519238D01*
X123770663Y-100426247D01*
X123768327Y-100306703D01*
X123766674Y-100165864D01*
X123765823Y-100008990D01*
X123765733Y-99937005D01*
X123765733Y-99707700D01*
X124167900Y-99707700D01*
X124169704Y-99722750D01*
X124178950Y-99733734D01*
X124201383Y-99741293D01*
X124242751Y-99746063D01*
X124308801Y-99748684D01*
X124405282Y-99749794D01*
X124537939Y-99750033D01*
X124548900Y-99750033D01*
X124684348Y-99749833D01*
X124783211Y-99748805D01*
X124851235Y-99746313D01*
X124894169Y-99741716D01*
X124917758Y-99734377D01*
X124927751Y-99723657D01*
X124929895Y-99708918D01*
X124929900Y-99707700D01*
X124928095Y-99692650D01*
X124918850Y-99681665D01*
X124896417Y-99674107D01*
X124855049Y-99669337D01*
X124788998Y-99666716D01*
X124692518Y-99665605D01*
X124559861Y-99665367D01*
X124548900Y-99665367D01*
X124413451Y-99665567D01*
X124314589Y-99666594D01*
X124246564Y-99669087D01*
X124203631Y-99673683D01*
X124180041Y-99681022D01*
X124170048Y-99691742D01*
X124167904Y-99706482D01*
X124167900Y-99707700D01*
X123765733Y-99707700D01*
X123765733Y-99284367D01*
X125332067Y-99284367D01*
X125332067Y-100594782D01*
X125332067Y-100594782D01*
G37*
X125332067Y-100594782D02*
X125263275Y-100607611D01*
X125203319Y-100613633D01*
X125122685Y-100615408D01*
X125067483Y-100613862D01*
X124940483Y-100607283D01*
X124921735Y-100369158D01*
X124902986Y-100131033D01*
X124169286Y-100131033D01*
X124163301Y-100369158D01*
X124157317Y-100607283D01*
X123976397Y-100613336D01*
X123892574Y-100614453D01*
X123825542Y-100612193D01*
X123786062Y-100607044D01*
X123780606Y-100604517D01*
X123776920Y-100580414D01*
X123773567Y-100519238D01*
X123770663Y-100426247D01*
X123768327Y-100306703D01*
X123766674Y-100165864D01*
X123765823Y-100008990D01*
X123765733Y-99937005D01*
X123765733Y-99707700D01*
X124167900Y-99707700D01*
X124169704Y-99722750D01*
X124178950Y-99733734D01*
X124201383Y-99741293D01*
X124242751Y-99746063D01*
X124308801Y-99748684D01*
X124405282Y-99749794D01*
X124537939Y-99750033D01*
X124548900Y-99750033D01*
X124684348Y-99749833D01*
X124783211Y-99748805D01*
X124851235Y-99746313D01*
X124894169Y-99741716D01*
X124917758Y-99734377D01*
X124927751Y-99723657D01*
X124929895Y-99708918D01*
X124929900Y-99707700D01*
X124928095Y-99692650D01*
X124918850Y-99681665D01*
X124896417Y-99674107D01*
X124855049Y-99669337D01*
X124788998Y-99666716D01*
X124692518Y-99665605D01*
X124559861Y-99665367D01*
X124548900Y-99665367D01*
X124413451Y-99665567D01*
X124314589Y-99666594D01*
X124246564Y-99669087D01*
X124203631Y-99673683D01*
X124180041Y-99681022D01*
X124170048Y-99691742D01*
X124167904Y-99706482D01*
X124167900Y-99707700D01*
X123765733Y-99707700D01*
X123765733Y-99284367D01*
X125332067Y-99284367D01*
X125332067Y-100594782D01*
G36*
X126940733Y-99665367D02*
G01*
X126390400Y-99665367D01*
X126390400Y-100108355D01*
X126390341Y-100268188D01*
X126388745Y-100390627D01*
X126383488Y-100480607D01*
X126372442Y-100543062D01*
X126353482Y-100582927D01*
X126324480Y-100605138D01*
X126283312Y-100614628D01*
X126227850Y-100616333D01*
X126171930Y-100615411D01*
X126091021Y-100612881D01*
X126023448Y-100608578D01*
X125983514Y-100603421D01*
X125982942Y-100603276D01*
X125970789Y-100597038D01*
X125961610Y-100582017D01*
X125954995Y-100552947D01*
X125950530Y-100504564D01*
X125947805Y-100431603D01*
X125946408Y-100328801D01*
X125945928Y-100190892D01*
X125945900Y-100129481D01*
X125945900Y-99665367D01*
X125374400Y-99665367D01*
X125374400Y-99284367D01*
X126940733Y-99284367D01*
X126940733Y-99665367D01*
X126940733Y-99665367D01*
G37*
X126940733Y-99665367D02*
X126390400Y-99665367D01*
X126390400Y-100108355D01*
X126390341Y-100268188D01*
X126388745Y-100390627D01*
X126383488Y-100480607D01*
X126372442Y-100543062D01*
X126353482Y-100582927D01*
X126324480Y-100605138D01*
X126283312Y-100614628D01*
X126227850Y-100616333D01*
X126171930Y-100615411D01*
X126091021Y-100612881D01*
X126023448Y-100608578D01*
X125983514Y-100603421D01*
X125982942Y-100603276D01*
X125970789Y-100597038D01*
X125961610Y-100582017D01*
X125954995Y-100552947D01*
X125950530Y-100504564D01*
X125947805Y-100431603D01*
X125946408Y-100328801D01*
X125945928Y-100190892D01*
X125945900Y-100129481D01*
X125945900Y-99665367D01*
X125374400Y-99665367D01*
X125374400Y-99284367D01*
X126940733Y-99284367D01*
X126940733Y-99665367D01*
G36*
X128565722Y-99702408D02*
G01*
X128559983Y-100120450D01*
X127983192Y-100126082D01*
X127406400Y-100131714D01*
X127406400Y-100236867D01*
X128570567Y-100236867D01*
X128570567Y-100591161D01*
X128491192Y-100604281D01*
X128450987Y-100607326D01*
X128375025Y-100609809D01*
X128269879Y-100611738D01*
X128142122Y-100613119D01*
X127998325Y-100613961D01*
X127845062Y-100614270D01*
X127688905Y-100614053D01*
X127536428Y-100613318D01*
X127394201Y-100612072D01*
X127268799Y-100610323D01*
X127166793Y-100608077D01*
X127094757Y-100605342D01*
X127062442Y-100602706D01*
X127004233Y-100593888D01*
X127004233Y-99777539D01*
X127197985Y-99763786D01*
X127286315Y-99759117D01*
X127404808Y-99755127D01*
X127541298Y-99752109D01*
X127683615Y-99750356D01*
X127769485Y-99750033D01*
X127904292Y-99749824D01*
X128002535Y-99748768D01*
X128069985Y-99746224D01*
X128112410Y-99741552D01*
X128135580Y-99734109D01*
X128145265Y-99723254D01*
X128147233Y-99708347D01*
X128147233Y-99708046D01*
X128145747Y-99695474D01*
X128138143Y-99685631D01*
X128119704Y-99678119D01*
X128085712Y-99672542D01*
X128031449Y-99668503D01*
X127952197Y-99665605D01*
X127843238Y-99663452D01*
X127699854Y-99661645D01*
X127581025Y-99660421D01*
X127014817Y-99654783D01*
X127002585Y-99284367D01*
X128571461Y-99284367D01*
X128565722Y-99702408D01*
X128565722Y-99702408D01*
G37*
X128565722Y-99702408D02*
X128559983Y-100120450D01*
X127983192Y-100126082D01*
X127406400Y-100131714D01*
X127406400Y-100236867D01*
X128570567Y-100236867D01*
X128570567Y-100591161D01*
X128491192Y-100604281D01*
X128450987Y-100607326D01*
X128375025Y-100609809D01*
X128269879Y-100611738D01*
X128142122Y-100613119D01*
X127998325Y-100613961D01*
X127845062Y-100614270D01*
X127688905Y-100614053D01*
X127536428Y-100613318D01*
X127394201Y-100612072D01*
X127268799Y-100610323D01*
X127166793Y-100608077D01*
X127094757Y-100605342D01*
X127062442Y-100602706D01*
X127004233Y-100593888D01*
X127004233Y-99777539D01*
X127197985Y-99763786D01*
X127286315Y-99759117D01*
X127404808Y-99755127D01*
X127541298Y-99752109D01*
X127683615Y-99750356D01*
X127769485Y-99750033D01*
X127904292Y-99749824D01*
X128002535Y-99748768D01*
X128069985Y-99746224D01*
X128112410Y-99741552D01*
X128135580Y-99734109D01*
X128145265Y-99723254D01*
X128147233Y-99708347D01*
X128147233Y-99708046D01*
X128145747Y-99695474D01*
X128138143Y-99685631D01*
X128119704Y-99678119D01*
X128085712Y-99672542D01*
X128031449Y-99668503D01*
X127952197Y-99665605D01*
X127843238Y-99663452D01*
X127699854Y-99661645D01*
X127581025Y-99660421D01*
X127014817Y-99654783D01*
X127002585Y-99284367D01*
X128571461Y-99284367D01*
X128565722Y-99702408D01*
G36*
X120895477Y-99406075D02*
G01*
X120851194Y-99475040D01*
X120812237Y-99534796D01*
X120788994Y-99569535D01*
X120766496Y-99607077D01*
X120760067Y-99624875D01*
X120772245Y-99646219D01*
X120805177Y-99693311D01*
X120853452Y-99758614D01*
X120897206Y-99815956D01*
X121034345Y-99993450D01*
X120945000Y-100000209D01*
X120899839Y-100002044D01*
X120865041Y-99995600D01*
X120832437Y-99974996D01*
X120793856Y-99934349D01*
X120741128Y-99867778D01*
X120716819Y-99835951D01*
X120662988Y-99765281D01*
X120590638Y-99884657D01*
X120550738Y-99948458D01*
X120520673Y-99984165D01*
X120488409Y-99999932D01*
X120441916Y-100003914D01*
X120414493Y-100004033D01*
X120310698Y-100004033D01*
X120348903Y-99945825D01*
X120379601Y-99898254D01*
X120423229Y-99829688D01*
X120469926Y-99755631D01*
X120552745Y-99623645D01*
X120441552Y-99480464D01*
X120388206Y-99411774D01*
X120343362Y-99354039D01*
X120314516Y-99316909D01*
X120309788Y-99310825D01*
X120306495Y-99294131D01*
X120334423Y-99286065D01*
X120383315Y-99284367D01*
X120436825Y-99287051D01*
X120475831Y-99300270D01*
X120513444Y-99331773D01*
X120562778Y-99389307D01*
X120564519Y-99391446D01*
X120651624Y-99498525D01*
X120683145Y-99449654D01*
X120716451Y-99391715D01*
X120740763Y-99342575D01*
X120761548Y-99307089D01*
X120791429Y-99289892D01*
X120844591Y-99284594D01*
X120869948Y-99284367D01*
X120973034Y-99284367D01*
X120895477Y-99406075D01*
X120895477Y-99406075D01*
G37*
X120895477Y-99406075D02*
X120851194Y-99475040D01*
X120812237Y-99534796D01*
X120788994Y-99569535D01*
X120766496Y-99607077D01*
X120760067Y-99624875D01*
X120772245Y-99646219D01*
X120805177Y-99693311D01*
X120853452Y-99758614D01*
X120897206Y-99815956D01*
X121034345Y-99993450D01*
X120945000Y-100000209D01*
X120899839Y-100002044D01*
X120865041Y-99995600D01*
X120832437Y-99974996D01*
X120793856Y-99934349D01*
X120741128Y-99867778D01*
X120716819Y-99835951D01*
X120662988Y-99765281D01*
X120590638Y-99884657D01*
X120550738Y-99948458D01*
X120520673Y-99984165D01*
X120488409Y-99999932D01*
X120441916Y-100003914D01*
X120414493Y-100004033D01*
X120310698Y-100004033D01*
X120348903Y-99945825D01*
X120379601Y-99898254D01*
X120423229Y-99829688D01*
X120469926Y-99755631D01*
X120552745Y-99623645D01*
X120441552Y-99480464D01*
X120388206Y-99411774D01*
X120343362Y-99354039D01*
X120314516Y-99316909D01*
X120309788Y-99310825D01*
X120306495Y-99294131D01*
X120334423Y-99286065D01*
X120383315Y-99284367D01*
X120436825Y-99287051D01*
X120475831Y-99300270D01*
X120513444Y-99331773D01*
X120562778Y-99389307D01*
X120564519Y-99391446D01*
X120651624Y-99498525D01*
X120683145Y-99449654D01*
X120716451Y-99391715D01*
X120740763Y-99342575D01*
X120761548Y-99307089D01*
X120791429Y-99289892D01*
X120844591Y-99284594D01*
X120869948Y-99284367D01*
X120973034Y-99284367D01*
X120895477Y-99406075D01*
G36*
X121850150Y-99294950D02*
G01*
X121874729Y-99591283D01*
X121886615Y-99733243D01*
X121894966Y-99838444D01*
X121899177Y-99912356D01*
X121898641Y-99960452D01*
X121892752Y-99988205D01*
X121880903Y-100001085D01*
X121862487Y-100004565D01*
X121836899Y-100004118D01*
X121828983Y-100004033D01*
X121754900Y-100004033D01*
X121752807Y-99861158D01*
X121749406Y-99763998D01*
X121742822Y-99662914D01*
X121736932Y-99601867D01*
X121723150Y-99485450D01*
X121648944Y-99739450D01*
X121574737Y-99993450D01*
X121411647Y-99993450D01*
X121323982Y-99760617D01*
X121236317Y-99527783D01*
X121224347Y-100004033D01*
X121077567Y-100004033D01*
X121077470Y-99882325D01*
X121076154Y-99809070D01*
X121072681Y-99708820D01*
X121067638Y-99596825D01*
X121063653Y-99522492D01*
X121049932Y-99284367D01*
X121285300Y-99284367D01*
X121375796Y-99517200D01*
X121412275Y-99607982D01*
X121444377Y-99682209D01*
X121468592Y-99732139D01*
X121481302Y-99750033D01*
X121496456Y-99731987D01*
X121510231Y-99691825D01*
X121522740Y-99644723D01*
X121543710Y-99570872D01*
X121569219Y-99484007D01*
X121577032Y-99457920D01*
X121629914Y-99282224D01*
X121850150Y-99294950D01*
X121850150Y-99294950D01*
G37*
X121850150Y-99294950D02*
X121874729Y-99591283D01*
X121886615Y-99733243D01*
X121894966Y-99838444D01*
X121899177Y-99912356D01*
X121898641Y-99960452D01*
X121892752Y-99988205D01*
X121880903Y-100001085D01*
X121862487Y-100004565D01*
X121836899Y-100004118D01*
X121828983Y-100004033D01*
X121754900Y-100004033D01*
X121752807Y-99861158D01*
X121749406Y-99763998D01*
X121742822Y-99662914D01*
X121736932Y-99601867D01*
X121723150Y-99485450D01*
X121648944Y-99739450D01*
X121574737Y-99993450D01*
X121411647Y-99993450D01*
X121323982Y-99760617D01*
X121236317Y-99527783D01*
X121224347Y-100004033D01*
X121077567Y-100004033D01*
X121077470Y-99882325D01*
X121076154Y-99809070D01*
X121072681Y-99708820D01*
X121067638Y-99596825D01*
X121063653Y-99522492D01*
X121049932Y-99284367D01*
X121285300Y-99284367D01*
X121375796Y-99517200D01*
X121412275Y-99607982D01*
X121444377Y-99682209D01*
X121468592Y-99732139D01*
X121481302Y-99750033D01*
X121496456Y-99731987D01*
X121510231Y-99691825D01*
X121522740Y-99644723D01*
X121543710Y-99570872D01*
X121569219Y-99484007D01*
X121577032Y-99457920D01*
X121629914Y-99282224D01*
X121850150Y-99294950D01*
G36*
X130059363Y-83258326D02*
G01*
X130061511Y-83431530D01*
X130063468Y-83633599D01*
X130065237Y-83861935D01*
X130066819Y-84113935D01*
X130068217Y-84386999D01*
X130069432Y-84678526D01*
X130070468Y-84985915D01*
X130071325Y-85306565D01*
X130072007Y-85637874D01*
X130072514Y-85977242D01*
X130072850Y-86322069D01*
X130073017Y-86669752D01*
X130073016Y-87017691D01*
X130072850Y-87363284D01*
X130072520Y-87703932D01*
X130072030Y-88037033D01*
X130071380Y-88359985D01*
X130070574Y-88670189D01*
X130069613Y-88965043D01*
X130068499Y-89241945D01*
X130067235Y-89498296D01*
X130065822Y-89731494D01*
X130064263Y-89938937D01*
X130062560Y-90118026D01*
X130060715Y-90266159D01*
X130058730Y-90380735D01*
X130056607Y-90459153D01*
X130054349Y-90498812D01*
X130053469Y-90503158D01*
X130044375Y-90508746D01*
X130023697Y-90514027D01*
X129990439Y-90519005D01*
X129943606Y-90523685D01*
X129882201Y-90528072D01*
X129805230Y-90532169D01*
X129711696Y-90535981D01*
X129600604Y-90539513D01*
X129470958Y-90542769D01*
X129321763Y-90545754D01*
X129152023Y-90548472D01*
X128960741Y-90550928D01*
X128746924Y-90553125D01*
X128509574Y-90555070D01*
X128247697Y-90556765D01*
X127960296Y-90558216D01*
X127646376Y-90559427D01*
X127304942Y-90560402D01*
X126934996Y-90561146D01*
X126535545Y-90561664D01*
X126105592Y-90561959D01*
X125644142Y-90562037D01*
X125150198Y-90561902D01*
X124622766Y-90561558D01*
X124060850Y-90561010D01*
X123463453Y-90560263D01*
X122829580Y-90559320D01*
X122158237Y-90558186D01*
X121448426Y-90556866D01*
X120699152Y-90555364D01*
X119909420Y-90553685D01*
X119177858Y-90552059D01*
X116759567Y-90546587D01*
X116759567Y-90254895D01*
X117161733Y-90254895D01*
X123220692Y-90241869D01*
X123726545Y-90240728D01*
X124222452Y-90239506D01*
X124706671Y-90238210D01*
X125177460Y-90236848D01*
X125633077Y-90235428D01*
X126071779Y-90233959D01*
X126491827Y-90232447D01*
X126891476Y-90230902D01*
X127268986Y-90229332D01*
X127622614Y-90227743D01*
X127950620Y-90226145D01*
X128251260Y-90224546D01*
X128522793Y-90222952D01*
X128763477Y-90221373D01*
X128971570Y-90219816D01*
X129145330Y-90218290D01*
X129283016Y-90216802D01*
X129382886Y-90215360D01*
X129443197Y-90213973D01*
X129459567Y-90213179D01*
X129639483Y-90197517D01*
X129644833Y-86403392D01*
X129650182Y-82609267D01*
X117189899Y-82609267D01*
X117175825Y-85228642D01*
X117173960Y-85586382D01*
X117172167Y-85950937D01*
X117170463Y-86317937D01*
X117168862Y-86683013D01*
X117167383Y-87041794D01*
X117166039Y-87389912D01*
X117164849Y-87722996D01*
X117163827Y-88036679D01*
X117162991Y-88326589D01*
X117162355Y-88588358D01*
X117161936Y-88817615D01*
X117161751Y-89009993D01*
X117161743Y-89051456D01*
X117161733Y-90254895D01*
X116759567Y-90254895D01*
X116759567Y-82270600D01*
X130045327Y-82270600D01*
X130059363Y-83258326D01*
X130059363Y-83258326D01*
G37*
X130059363Y-83258326D02*
X130061511Y-83431530D01*
X130063468Y-83633599D01*
X130065237Y-83861935D01*
X130066819Y-84113935D01*
X130068217Y-84386999D01*
X130069432Y-84678526D01*
X130070468Y-84985915D01*
X130071325Y-85306565D01*
X130072007Y-85637874D01*
X130072514Y-85977242D01*
X130072850Y-86322069D01*
X130073017Y-86669752D01*
X130073016Y-87017691D01*
X130072850Y-87363284D01*
X130072520Y-87703932D01*
X130072030Y-88037033D01*
X130071380Y-88359985D01*
X130070574Y-88670189D01*
X130069613Y-88965043D01*
X130068499Y-89241945D01*
X130067235Y-89498296D01*
X130065822Y-89731494D01*
X130064263Y-89938937D01*
X130062560Y-90118026D01*
X130060715Y-90266159D01*
X130058730Y-90380735D01*
X130056607Y-90459153D01*
X130054349Y-90498812D01*
X130053469Y-90503158D01*
X130044375Y-90508746D01*
X130023697Y-90514027D01*
X129990439Y-90519005D01*
X129943606Y-90523685D01*
X129882201Y-90528072D01*
X129805230Y-90532169D01*
X129711696Y-90535981D01*
X129600604Y-90539513D01*
X129470958Y-90542769D01*
X129321763Y-90545754D01*
X129152023Y-90548472D01*
X128960741Y-90550928D01*
X128746924Y-90553125D01*
X128509574Y-90555070D01*
X128247697Y-90556765D01*
X127960296Y-90558216D01*
X127646376Y-90559427D01*
X127304942Y-90560402D01*
X126934996Y-90561146D01*
X126535545Y-90561664D01*
X126105592Y-90561959D01*
X125644142Y-90562037D01*
X125150198Y-90561902D01*
X124622766Y-90561558D01*
X124060850Y-90561010D01*
X123463453Y-90560263D01*
X122829580Y-90559320D01*
X122158237Y-90558186D01*
X121448426Y-90556866D01*
X120699152Y-90555364D01*
X119909420Y-90553685D01*
X119177858Y-90552059D01*
X116759567Y-90546587D01*
X116759567Y-90254895D01*
X117161733Y-90254895D01*
X123220692Y-90241869D01*
X123726545Y-90240728D01*
X124222452Y-90239506D01*
X124706671Y-90238210D01*
X125177460Y-90236848D01*
X125633077Y-90235428D01*
X126071779Y-90233959D01*
X126491827Y-90232447D01*
X126891476Y-90230902D01*
X127268986Y-90229332D01*
X127622614Y-90227743D01*
X127950620Y-90226145D01*
X128251260Y-90224546D01*
X128522793Y-90222952D01*
X128763477Y-90221373D01*
X128971570Y-90219816D01*
X129145330Y-90218290D01*
X129283016Y-90216802D01*
X129382886Y-90215360D01*
X129443197Y-90213973D01*
X129459567Y-90213179D01*
X129639483Y-90197517D01*
X129644833Y-86403392D01*
X129650182Y-82609267D01*
X117189899Y-82609267D01*
X117175825Y-85228642D01*
X117173960Y-85586382D01*
X117172167Y-85950937D01*
X117170463Y-86317937D01*
X117168862Y-86683013D01*
X117167383Y-87041794D01*
X117166039Y-87389912D01*
X117164849Y-87722996D01*
X117163827Y-88036679D01*
X117162991Y-88326589D01*
X117162355Y-88588358D01*
X117161936Y-88817615D01*
X117161751Y-89009993D01*
X117161743Y-89051456D01*
X117161733Y-90254895D01*
X116759567Y-90254895D01*
X116759567Y-82270600D01*
X130045327Y-82270600D01*
X130059363Y-83258326D01*
G36*
X123960382Y-80838886D02*
G01*
X123973856Y-80842758D01*
X124099461Y-80899637D01*
X124198825Y-80983645D01*
X124271401Y-81088266D01*
X124316642Y-81206985D01*
X124334001Y-81333287D01*
X124322932Y-81460657D01*
X124282888Y-81582579D01*
X124213322Y-81692539D01*
X124113688Y-81784021D01*
X124055788Y-81819057D01*
X123987761Y-81841309D01*
X123893173Y-81855757D01*
X123787199Y-81861664D01*
X123685019Y-81858295D01*
X123601808Y-81844915D01*
X123590652Y-81841596D01*
X123468285Y-81780499D01*
X123371174Y-81687638D01*
X123302587Y-81567424D01*
X123265794Y-81424270D01*
X123263075Y-81399517D01*
X123263306Y-81374360D01*
X123619273Y-81374360D01*
X123627159Y-81465844D01*
X123644623Y-81543537D01*
X123669399Y-81592068D01*
X123728513Y-81628571D01*
X123802058Y-81633237D01*
X123877016Y-81606454D01*
X123906901Y-81584969D01*
X123937964Y-81554049D01*
X123956524Y-81519454D01*
X123966530Y-81468751D01*
X123971926Y-81389507D01*
X123972404Y-81378594D01*
X123971866Y-81267943D01*
X123956560Y-81188719D01*
X123922522Y-81131414D01*
X123865783Y-81086522D01*
X123845802Y-81075158D01*
X123768133Y-81033300D01*
X123714630Y-81083562D01*
X123669887Y-81140324D01*
X123637134Y-81206531D01*
X123637015Y-81206889D01*
X123622160Y-81283303D01*
X123619273Y-81374360D01*
X123263306Y-81374360D01*
X123264420Y-81253149D01*
X123299187Y-81127875D01*
X123370061Y-81015680D01*
X123404513Y-80977381D01*
X123522567Y-80883653D01*
X123655959Y-80828998D01*
X123802595Y-80813911D01*
X123960382Y-80838886D01*
X123960382Y-80838886D01*
G37*
X123960382Y-80838886D02*
X123973856Y-80842758D01*
X124099461Y-80899637D01*
X124198825Y-80983645D01*
X124271401Y-81088266D01*
X124316642Y-81206985D01*
X124334001Y-81333287D01*
X124322932Y-81460657D01*
X124282888Y-81582579D01*
X124213322Y-81692539D01*
X124113688Y-81784021D01*
X124055788Y-81819057D01*
X123987761Y-81841309D01*
X123893173Y-81855757D01*
X123787199Y-81861664D01*
X123685019Y-81858295D01*
X123601808Y-81844915D01*
X123590652Y-81841596D01*
X123468285Y-81780499D01*
X123371174Y-81687638D01*
X123302587Y-81567424D01*
X123265794Y-81424270D01*
X123263075Y-81399517D01*
X123263306Y-81374360D01*
X123619273Y-81374360D01*
X123627159Y-81465844D01*
X123644623Y-81543537D01*
X123669399Y-81592068D01*
X123728513Y-81628571D01*
X123802058Y-81633237D01*
X123877016Y-81606454D01*
X123906901Y-81584969D01*
X123937964Y-81554049D01*
X123956524Y-81519454D01*
X123966530Y-81468751D01*
X123971926Y-81389507D01*
X123972404Y-81378594D01*
X123971866Y-81267943D01*
X123956560Y-81188719D01*
X123922522Y-81131414D01*
X123865783Y-81086522D01*
X123845802Y-81075158D01*
X123768133Y-81033300D01*
X123714630Y-81083562D01*
X123669887Y-81140324D01*
X123637134Y-81206531D01*
X123637015Y-81206889D01*
X123622160Y-81283303D01*
X123619273Y-81374360D01*
X123263306Y-81374360D01*
X123264420Y-81253149D01*
X123299187Y-81127875D01*
X123370061Y-81015680D01*
X123404513Y-80977381D01*
X123522567Y-80883653D01*
X123655959Y-80828998D01*
X123802595Y-80813911D01*
X123960382Y-80838886D01*
G36*
X124936838Y-80822489D02*
G01*
X125040171Y-80854892D01*
X125135442Y-80900164D01*
X125174602Y-80926062D01*
X125232704Y-80982995D01*
X125289522Y-81059396D01*
X125337093Y-81142016D01*
X125367452Y-81217604D01*
X125374201Y-81258160D01*
X125382545Y-81331038D01*
X125405149Y-81373458D01*
X125425822Y-81381600D01*
X125457108Y-81372172D01*
X125512211Y-81347697D01*
X125566433Y-81320173D01*
X125655512Y-81277635D01*
X125754679Y-81237591D01*
X125803329Y-81220961D01*
X125875538Y-81194050D01*
X125934626Y-81164004D01*
X125960521Y-81144305D01*
X125982370Y-81108567D01*
X125972070Y-81082458D01*
X125927012Y-81064803D01*
X125844587Y-81054428D01*
X125752513Y-81050630D01*
X125665080Y-81046730D01*
X125593397Y-81039582D01*
X125548273Y-81030440D01*
X125539414Y-81025914D01*
X125521165Y-80985122D01*
X125539072Y-80941694D01*
X125587443Y-80899381D01*
X125660586Y-80861932D01*
X125752808Y-80833095D01*
X125857024Y-80816735D01*
X126008491Y-80818280D01*
X126132211Y-80851194D01*
X126229629Y-80916183D01*
X126302191Y-81013958D01*
X126315800Y-81041787D01*
X126339478Y-81104968D01*
X126342398Y-81156809D01*
X126329513Y-81211891D01*
X126290192Y-81290710D01*
X126221032Y-81356304D01*
X126117361Y-81412315D01*
X126030567Y-81444873D01*
X125922174Y-81484505D01*
X125850549Y-81520168D01*
X125810732Y-81555048D01*
X125797766Y-81592330D01*
X125797733Y-81594506D01*
X125799974Y-81612452D01*
X125811389Y-81624237D01*
X125839018Y-81630878D01*
X125889901Y-81633393D01*
X125971077Y-81632801D01*
X126050589Y-81631060D01*
X126175591Y-81629699D01*
X126262654Y-81633625D01*
X126316010Y-81644430D01*
X126339892Y-81663706D01*
X126338533Y-81693043D01*
X126317813Y-81731537D01*
X126248974Y-81798760D01*
X126145188Y-81843316D01*
X126006035Y-81865352D01*
X125929345Y-81867968D01*
X125805486Y-81862643D01*
X125709234Y-81846744D01*
X125675345Y-81835610D01*
X125586205Y-81783865D01*
X125505117Y-81711412D01*
X125446543Y-81631882D01*
X125436122Y-81610141D01*
X125410343Y-81547906D01*
X125281247Y-81675499D01*
X125211107Y-81739470D01*
X125140954Y-81794617D01*
X125083671Y-81831003D01*
X125073455Y-81835763D01*
X124981433Y-81858859D01*
X124866979Y-81865675D01*
X124746726Y-81856231D01*
X124651699Y-81835227D01*
X124570732Y-81800203D01*
X124498925Y-81751401D01*
X124446172Y-81697257D01*
X124422363Y-81646209D01*
X124421900Y-81639227D01*
X124439809Y-81593743D01*
X124483760Y-81548877D01*
X124539092Y-81516878D01*
X124578213Y-81508679D01*
X124622755Y-81518538D01*
X124684497Y-81550205D01*
X124769749Y-81607021D01*
X124785908Y-81618607D01*
X124839697Y-81635440D01*
X124896242Y-81617338D01*
X124949810Y-81570840D01*
X124994669Y-81502486D01*
X125025085Y-81418814D01*
X125035385Y-81334036D01*
X125030955Y-81267157D01*
X125011706Y-81215847D01*
X124969547Y-81160438D01*
X124959187Y-81148827D01*
X124910061Y-81101250D01*
X124866809Y-81070814D01*
X124848062Y-81064760D01*
X124809976Y-81075775D01*
X124754174Y-81102796D01*
X124728817Y-81117569D01*
X124636049Y-81158950D01*
X124550880Y-81167116D01*
X124481037Y-81141775D01*
X124464233Y-81127600D01*
X124430447Y-81082875D01*
X124427869Y-81040105D01*
X124458164Y-80989890D01*
X124495820Y-80949257D01*
X124576834Y-80889768D01*
X124681341Y-80842375D01*
X124790765Y-80814467D01*
X124845711Y-80810100D01*
X124936838Y-80822489D01*
X124936838Y-80822489D01*
G37*
X124936838Y-80822489D02*
X125040171Y-80854892D01*
X125135442Y-80900164D01*
X125174602Y-80926062D01*
X125232704Y-80982995D01*
X125289522Y-81059396D01*
X125337093Y-81142016D01*
X125367452Y-81217604D01*
X125374201Y-81258160D01*
X125382545Y-81331038D01*
X125405149Y-81373458D01*
X125425822Y-81381600D01*
X125457108Y-81372172D01*
X125512211Y-81347697D01*
X125566433Y-81320173D01*
X125655512Y-81277635D01*
X125754679Y-81237591D01*
X125803329Y-81220961D01*
X125875538Y-81194050D01*
X125934626Y-81164004D01*
X125960521Y-81144305D01*
X125982370Y-81108567D01*
X125972070Y-81082458D01*
X125927012Y-81064803D01*
X125844587Y-81054428D01*
X125752513Y-81050630D01*
X125665080Y-81046730D01*
X125593397Y-81039582D01*
X125548273Y-81030440D01*
X125539414Y-81025914D01*
X125521165Y-80985122D01*
X125539072Y-80941694D01*
X125587443Y-80899381D01*
X125660586Y-80861932D01*
X125752808Y-80833095D01*
X125857024Y-80816735D01*
X126008491Y-80818280D01*
X126132211Y-80851194D01*
X126229629Y-80916183D01*
X126302191Y-81013958D01*
X126315800Y-81041787D01*
X126339478Y-81104968D01*
X126342398Y-81156809D01*
X126329513Y-81211891D01*
X126290192Y-81290710D01*
X126221032Y-81356304D01*
X126117361Y-81412315D01*
X126030567Y-81444873D01*
X125922174Y-81484505D01*
X125850549Y-81520168D01*
X125810732Y-81555048D01*
X125797766Y-81592330D01*
X125797733Y-81594506D01*
X125799974Y-81612452D01*
X125811389Y-81624237D01*
X125839018Y-81630878D01*
X125889901Y-81633393D01*
X125971077Y-81632801D01*
X126050589Y-81631060D01*
X126175591Y-81629699D01*
X126262654Y-81633625D01*
X126316010Y-81644430D01*
X126339892Y-81663706D01*
X126338533Y-81693043D01*
X126317813Y-81731537D01*
X126248974Y-81798760D01*
X126145188Y-81843316D01*
X126006035Y-81865352D01*
X125929345Y-81867968D01*
X125805486Y-81862643D01*
X125709234Y-81846744D01*
X125675345Y-81835610D01*
X125586205Y-81783865D01*
X125505117Y-81711412D01*
X125446543Y-81631882D01*
X125436122Y-81610141D01*
X125410343Y-81547906D01*
X125281247Y-81675499D01*
X125211107Y-81739470D01*
X125140954Y-81794617D01*
X125083671Y-81831003D01*
X125073455Y-81835763D01*
X124981433Y-81858859D01*
X124866979Y-81865675D01*
X124746726Y-81856231D01*
X124651699Y-81835227D01*
X124570732Y-81800203D01*
X124498925Y-81751401D01*
X124446172Y-81697257D01*
X124422363Y-81646209D01*
X124421900Y-81639227D01*
X124439809Y-81593743D01*
X124483760Y-81548877D01*
X124539092Y-81516878D01*
X124578213Y-81508679D01*
X124622755Y-81518538D01*
X124684497Y-81550205D01*
X124769749Y-81607021D01*
X124785908Y-81618607D01*
X124839697Y-81635440D01*
X124896242Y-81617338D01*
X124949810Y-81570840D01*
X124994669Y-81502486D01*
X125025085Y-81418814D01*
X125035385Y-81334036D01*
X125030955Y-81267157D01*
X125011706Y-81215847D01*
X124969547Y-81160438D01*
X124959187Y-81148827D01*
X124910061Y-81101250D01*
X124866809Y-81070814D01*
X124848062Y-81064760D01*
X124809976Y-81075775D01*
X124754174Y-81102796D01*
X124728817Y-81117569D01*
X124636049Y-81158950D01*
X124550880Y-81167116D01*
X124481037Y-81141775D01*
X124464233Y-81127600D01*
X124430447Y-81082875D01*
X124427869Y-81040105D01*
X124458164Y-80989890D01*
X124495820Y-80949257D01*
X124576834Y-80889768D01*
X124681341Y-80842375D01*
X124790765Y-80814467D01*
X124845711Y-80810100D01*
X124936838Y-80822489D01*
G36*
X126743365Y-80829406D02*
G01*
X126800797Y-80880096D01*
X126818527Y-80908253D01*
X126831245Y-80942464D01*
X126840056Y-80990499D01*
X126846068Y-81060124D01*
X126850386Y-81159106D01*
X126852884Y-81245785D01*
X126855445Y-81426302D01*
X126852457Y-81568822D01*
X126843489Y-81677372D01*
X126828112Y-81755979D01*
X126805897Y-81808667D01*
X126790826Y-81827840D01*
X126735823Y-81859681D01*
X126671211Y-81866416D01*
X126614931Y-81847525D01*
X126599367Y-81833406D01*
X126589321Y-81812024D01*
X126581726Y-81772103D01*
X126576307Y-81708874D01*
X126572783Y-81617565D01*
X126570879Y-81493408D01*
X126570317Y-81334272D01*
X126570510Y-81182234D01*
X126571409Y-81066957D01*
X126573489Y-80982868D01*
X126577226Y-80924395D01*
X126583097Y-80885966D01*
X126591579Y-80862009D01*
X126603147Y-80846951D01*
X126612631Y-80839235D01*
X126677347Y-80814823D01*
X126743365Y-80829406D01*
X126743365Y-80829406D01*
G37*
X126743365Y-80829406D02*
X126800797Y-80880096D01*
X126818527Y-80908253D01*
X126831245Y-80942464D01*
X126840056Y-80990499D01*
X126846068Y-81060124D01*
X126850386Y-81159106D01*
X126852884Y-81245785D01*
X126855445Y-81426302D01*
X126852457Y-81568822D01*
X126843489Y-81677372D01*
X126828112Y-81755979D01*
X126805897Y-81808667D01*
X126790826Y-81827840D01*
X126735823Y-81859681D01*
X126671211Y-81866416D01*
X126614931Y-81847525D01*
X126599367Y-81833406D01*
X126589321Y-81812024D01*
X126581726Y-81772103D01*
X126576307Y-81708874D01*
X126572783Y-81617565D01*
X126570879Y-81493408D01*
X126570317Y-81334272D01*
X126570510Y-81182234D01*
X126571409Y-81066957D01*
X126573489Y-80982868D01*
X126577226Y-80924395D01*
X126583097Y-80885966D01*
X126591579Y-80862009D01*
X126603147Y-80846951D01*
X126612631Y-80839235D01*
X126677347Y-80814823D01*
X126743365Y-80829406D01*
G36*
X127364067Y-81096479D02*
G01*
X127363413Y-81272310D01*
X127361548Y-81431953D01*
X127358614Y-81570428D01*
X127354755Y-81682758D01*
X127350114Y-81763965D01*
X127344834Y-81809069D01*
X127343424Y-81814139D01*
X127322415Y-81850383D01*
X127286717Y-81865783D01*
X127239127Y-81868433D01*
X127172722Y-81860291D01*
X127126625Y-81830075D01*
X127111603Y-81812662D01*
X127086993Y-81771346D01*
X127072439Y-81716937D01*
X127065277Y-81637318D01*
X127063884Y-81595704D01*
X127062420Y-81497197D01*
X127062059Y-81378399D01*
X127062673Y-81245822D01*
X127064135Y-81105977D01*
X127066317Y-80965374D01*
X127069092Y-80830526D01*
X127072332Y-80707944D01*
X127075910Y-80604138D01*
X127079699Y-80525620D01*
X127083571Y-80478902D01*
X127085948Y-80468770D01*
X127112692Y-80460176D01*
X127168789Y-80451046D01*
X127231775Y-80444319D01*
X127364067Y-80433114D01*
X127364067Y-81096479D01*
X127364067Y-81096479D01*
G37*
X127364067Y-81096479D02*
X127363413Y-81272310D01*
X127361548Y-81431953D01*
X127358614Y-81570428D01*
X127354755Y-81682758D01*
X127350114Y-81763965D01*
X127344834Y-81809069D01*
X127343424Y-81814139D01*
X127322415Y-81850383D01*
X127286717Y-81865783D01*
X127239127Y-81868433D01*
X127172722Y-81860291D01*
X127126625Y-81830075D01*
X127111603Y-81812662D01*
X127086993Y-81771346D01*
X127072439Y-81716937D01*
X127065277Y-81637318D01*
X127063884Y-81595704D01*
X127062420Y-81497197D01*
X127062059Y-81378399D01*
X127062673Y-81245822D01*
X127064135Y-81105977D01*
X127066317Y-80965374D01*
X127069092Y-80830526D01*
X127072332Y-80707944D01*
X127075910Y-80604138D01*
X127079699Y-80525620D01*
X127083571Y-80478902D01*
X127085948Y-80468770D01*
X127112692Y-80460176D01*
X127168789Y-80451046D01*
X127231775Y-80444319D01*
X127364067Y-80433114D01*
X127364067Y-81096479D01*
G36*
X128074595Y-80819277D02*
G01*
X128238800Y-80852590D01*
X128364192Y-80894015D01*
X128433542Y-80923108D01*
X128470826Y-80948071D01*
X128484839Y-80975842D01*
X128485900Y-80990025D01*
X128479672Y-81037603D01*
X128456949Y-81070566D01*
X128411674Y-81091369D01*
X128337790Y-81102468D01*
X128229240Y-81106316D01*
X128198638Y-81106433D01*
X128100951Y-81108302D01*
X128027552Y-81113476D01*
X127985359Y-81121310D01*
X127977900Y-81127056D01*
X127997724Y-81153548D01*
X128053354Y-81185206D01*
X128139027Y-81219189D01*
X128211013Y-81242031D01*
X128345131Y-81291947D01*
X128442640Y-81353891D01*
X128507181Y-81429031D01*
X128542364Y-81524614D01*
X128543743Y-81629374D01*
X128513607Y-81730373D01*
X128454251Y-81814674D01*
X128435990Y-81830921D01*
X128376436Y-81856862D01*
X128289044Y-81867243D01*
X128185368Y-81862008D01*
X128076961Y-81841102D01*
X128048483Y-81832796D01*
X127981108Y-81813244D01*
X127936474Y-81807840D01*
X127897422Y-81816584D01*
X127860696Y-81832796D01*
X127759641Y-81864553D01*
X127671636Y-81858325D01*
X127615120Y-81827898D01*
X127595228Y-81809881D01*
X127581503Y-81788684D01*
X127572845Y-81756784D01*
X127568154Y-81706661D01*
X127566331Y-81630791D01*
X127566275Y-81521652D01*
X127566382Y-81494523D01*
X127567209Y-81460975D01*
X127935891Y-81460975D01*
X127944577Y-81506248D01*
X127951766Y-81520992D01*
X127994358Y-81558676D01*
X128054264Y-81583338D01*
X128118082Y-81593006D01*
X128172407Y-81585707D01*
X128203838Y-81559466D01*
X128204359Y-81558181D01*
X128200271Y-81516665D01*
X128164716Y-81475671D01*
X128107988Y-81442658D01*
X128040379Y-81425081D01*
X128019053Y-81423933D01*
X127963147Y-81428160D01*
X127939116Y-81443773D01*
X127935891Y-81460975D01*
X127567209Y-81460975D01*
X127570650Y-81321591D01*
X127582798Y-81184563D01*
X127604280Y-81077504D01*
X127636552Y-80994475D01*
X127681067Y-80929538D01*
X127712361Y-80898444D01*
X127807800Y-80842229D01*
X127929736Y-80815832D01*
X128074595Y-80819277D01*
X128074595Y-80819277D01*
G37*
X128074595Y-80819277D02*
X128238800Y-80852590D01*
X128364192Y-80894015D01*
X128433542Y-80923108D01*
X128470826Y-80948071D01*
X128484839Y-80975842D01*
X128485900Y-80990025D01*
X128479672Y-81037603D01*
X128456949Y-81070566D01*
X128411674Y-81091369D01*
X128337790Y-81102468D01*
X128229240Y-81106316D01*
X128198638Y-81106433D01*
X128100951Y-81108302D01*
X128027552Y-81113476D01*
X127985359Y-81121310D01*
X127977900Y-81127056D01*
X127997724Y-81153548D01*
X128053354Y-81185206D01*
X128139027Y-81219189D01*
X128211013Y-81242031D01*
X128345131Y-81291947D01*
X128442640Y-81353891D01*
X128507181Y-81429031D01*
X128542364Y-81524614D01*
X128543743Y-81629374D01*
X128513607Y-81730373D01*
X128454251Y-81814674D01*
X128435990Y-81830921D01*
X128376436Y-81856862D01*
X128289044Y-81867243D01*
X128185368Y-81862008D01*
X128076961Y-81841102D01*
X128048483Y-81832796D01*
X127981108Y-81813244D01*
X127936474Y-81807840D01*
X127897422Y-81816584D01*
X127860696Y-81832796D01*
X127759641Y-81864553D01*
X127671636Y-81858325D01*
X127615120Y-81827898D01*
X127595228Y-81809881D01*
X127581503Y-81788684D01*
X127572845Y-81756784D01*
X127568154Y-81706661D01*
X127566331Y-81630791D01*
X127566275Y-81521652D01*
X127566382Y-81494523D01*
X127567209Y-81460975D01*
X127935891Y-81460975D01*
X127944577Y-81506248D01*
X127951766Y-81520992D01*
X127994358Y-81558676D01*
X128054264Y-81583338D01*
X128118082Y-81593006D01*
X128172407Y-81585707D01*
X128203838Y-81559466D01*
X128204359Y-81558181D01*
X128200271Y-81516665D01*
X128164716Y-81475671D01*
X128107988Y-81442658D01*
X128040379Y-81425081D01*
X128019053Y-81423933D01*
X127963147Y-81428160D01*
X127939116Y-81443773D01*
X127935891Y-81460975D01*
X127567209Y-81460975D01*
X127570650Y-81321591D01*
X127582798Y-81184563D01*
X127604280Y-81077504D01*
X127636552Y-80994475D01*
X127681067Y-80929538D01*
X127712361Y-80898444D01*
X127807800Y-80842229D01*
X127929736Y-80815832D01*
X128074595Y-80819277D01*
G36*
X129007669Y-80935698D02*
G01*
X129014851Y-81113427D01*
X129021966Y-81253588D01*
X129031407Y-81360877D01*
X129045570Y-81439986D01*
X129066850Y-81495612D01*
X129097641Y-81532447D01*
X129140338Y-81555187D01*
X129197337Y-81568526D01*
X129271032Y-81577158D01*
X129338052Y-81583306D01*
X129440008Y-81599098D01*
X129504661Y-81625540D01*
X129536311Y-81665443D01*
X129540091Y-81715543D01*
X129521957Y-81771030D01*
X129479757Y-81811572D01*
X129408789Y-81839210D01*
X129304350Y-81855986D01*
X129201214Y-81862669D01*
X129098570Y-81865629D01*
X129027980Y-81864155D01*
X128979289Y-81857067D01*
X128942343Y-81843186D01*
X128919817Y-81829960D01*
X128870049Y-81791779D01*
X128807848Y-81736259D01*
X128763155Y-81692216D01*
X128669993Y-81595719D01*
X128685308Y-81028520D01*
X128689494Y-80878395D01*
X128693522Y-80742996D01*
X128697208Y-80627829D01*
X128700368Y-80538397D01*
X128702818Y-80480206D01*
X128704373Y-80458761D01*
X128704386Y-80458748D01*
X128725664Y-80455719D01*
X128777747Y-80450275D01*
X128847705Y-80443744D01*
X128987260Y-80431313D01*
X129007669Y-80935698D01*
X129007669Y-80935698D01*
G37*
X129007669Y-80935698D02*
X129014851Y-81113427D01*
X129021966Y-81253588D01*
X129031407Y-81360877D01*
X129045570Y-81439986D01*
X129066850Y-81495612D01*
X129097641Y-81532447D01*
X129140338Y-81555187D01*
X129197337Y-81568526D01*
X129271032Y-81577158D01*
X129338052Y-81583306D01*
X129440008Y-81599098D01*
X129504661Y-81625540D01*
X129536311Y-81665443D01*
X129540091Y-81715543D01*
X129521957Y-81771030D01*
X129479757Y-81811572D01*
X129408789Y-81839210D01*
X129304350Y-81855986D01*
X129201214Y-81862669D01*
X129098570Y-81865629D01*
X129027980Y-81864155D01*
X128979289Y-81857067D01*
X128942343Y-81843186D01*
X128919817Y-81829960D01*
X128870049Y-81791779D01*
X128807848Y-81736259D01*
X128763155Y-81692216D01*
X128669993Y-81595719D01*
X128685308Y-81028520D01*
X128689494Y-80878395D01*
X128693522Y-80742996D01*
X128697208Y-80627829D01*
X128700368Y-80538397D01*
X128702818Y-80480206D01*
X128704373Y-80458761D01*
X128704386Y-80458748D01*
X128725664Y-80455719D01*
X128777747Y-80450275D01*
X128847705Y-80443744D01*
X128987260Y-80431313D01*
X129007669Y-80935698D01*
G36*
X126782334Y-80466631D02*
G01*
X126793958Y-80472178D01*
X126825197Y-80510076D01*
X126835155Y-80567677D01*
X126823642Y-80627977D01*
X126796191Y-80669236D01*
X126738098Y-80698104D01*
X126669365Y-80701027D01*
X126609227Y-80678355D01*
X126594764Y-80665558D01*
X126565081Y-80606593D01*
X126564219Y-80539754D01*
X126592364Y-80484166D01*
X126592995Y-80483528D01*
X126644298Y-80457536D01*
X126713931Y-80451535D01*
X126782334Y-80466631D01*
X126782334Y-80466631D01*
G37*
X126782334Y-80466631D02*
X126793958Y-80472178D01*
X126825197Y-80510076D01*
X126835155Y-80567677D01*
X126823642Y-80627977D01*
X126796191Y-80669236D01*
X126738098Y-80698104D01*
X126669365Y-80701027D01*
X126609227Y-80678355D01*
X126594764Y-80665558D01*
X126565081Y-80606593D01*
X126564219Y-80539754D01*
X126592364Y-80484166D01*
X126592995Y-80483528D01*
X126644298Y-80457536D01*
X126713931Y-80451535D01*
X126782334Y-80466631D01*
G36*
X123425777Y-87478148D02*
G01*
X123504914Y-87507052D01*
X123613636Y-87554408D01*
X123614917Y-87554989D01*
X123691806Y-87588222D01*
X123756164Y-87613083D01*
X123796541Y-87625226D01*
X123801492Y-87625767D01*
X123833763Y-87610679D01*
X123875639Y-87573260D01*
X123885962Y-87561596D01*
X123939958Y-87497426D01*
X124175637Y-87503388D01*
X124411317Y-87509350D01*
X124416833Y-88411317D01*
X124422350Y-89313284D01*
X124323921Y-89326775D01*
X124219486Y-89336748D01*
X124112679Y-89339712D01*
X124016701Y-89335884D01*
X123944756Y-89325478D01*
X123927672Y-89320312D01*
X123882081Y-89288279D01*
X123860486Y-89254032D01*
X123855706Y-89220209D01*
X123850339Y-89150685D01*
X123844738Y-89052084D01*
X123839254Y-88931026D01*
X123834238Y-88794135D01*
X123831794Y-88714057D01*
X123826672Y-88544646D01*
X123820975Y-88412033D01*
X123813088Y-88310692D01*
X123801394Y-88235101D01*
X123784278Y-88179735D01*
X123760122Y-88139071D01*
X123727311Y-88107586D01*
X123684229Y-88079754D01*
X123639027Y-88055215D01*
X123570894Y-88026114D01*
X123496005Y-88011108D01*
X123397056Y-88006768D01*
X123394611Y-88006767D01*
X123241814Y-88006767D01*
X123270197Y-88139058D01*
X123298685Y-88352756D01*
X123292150Y-88556077D01*
X123252683Y-88745309D01*
X123182370Y-88916736D01*
X123083303Y-89066644D01*
X122957568Y-89191318D01*
X122807256Y-89287045D01*
X122634455Y-89350111D01*
X122582802Y-89361321D01*
X122479088Y-89373961D01*
X122353957Y-89379394D01*
X122225273Y-89377633D01*
X122110899Y-89368690D01*
X122061817Y-89360967D01*
X121936582Y-89327877D01*
X121820484Y-89282535D01*
X121719607Y-89228894D01*
X121640032Y-89170905D01*
X121587844Y-89112519D01*
X121569125Y-89057689D01*
X121571042Y-89042138D01*
X121591580Y-88999849D01*
X121632100Y-88940756D01*
X121676824Y-88885856D01*
X121769620Y-88780695D01*
X121924002Y-88851854D01*
X122077910Y-88907852D01*
X122228437Y-88934621D01*
X122368765Y-88932341D01*
X122492077Y-88901190D01*
X122591557Y-88841349D01*
X122599649Y-88834058D01*
X122650804Y-88769368D01*
X122665067Y-88708352D01*
X122659633Y-88664209D01*
X122635350Y-88639186D01*
X122585692Y-88621713D01*
X122521112Y-88609858D01*
X122435420Y-88601809D01*
X122366822Y-88599551D01*
X122296885Y-88598649D01*
X122195702Y-88596237D01*
X122074319Y-88592632D01*
X121943784Y-88588149D01*
X121872614Y-88585444D01*
X121517901Y-88571454D01*
X121525275Y-88315079D01*
X121529226Y-88203644D01*
X121535038Y-88123039D01*
X121537379Y-88108543D01*
X122079460Y-88108543D01*
X122082233Y-88161387D01*
X122122907Y-88197405D01*
X122202892Y-88219782D01*
X122275254Y-88226298D01*
X122365607Y-88226818D01*
X122460470Y-88222166D01*
X122546361Y-88213167D01*
X122609800Y-88200646D01*
X122628025Y-88193779D01*
X122659150Y-88159255D01*
X122665067Y-88134529D01*
X122647551Y-88085395D01*
X122602117Y-88028860D01*
X122539430Y-87974936D01*
X122470156Y-87933636D01*
X122437939Y-87921309D01*
X122375367Y-87906821D01*
X122322610Y-87909237D01*
X122256786Y-87929864D01*
X122251221Y-87931976D01*
X122161530Y-87981955D01*
X122113020Y-88035660D01*
X122079460Y-88108543D01*
X121537379Y-88108543D01*
X121544935Y-88061761D01*
X121561137Y-88008307D01*
X121585865Y-87951175D01*
X121601952Y-87917976D01*
X121691013Y-87777243D01*
X121807405Y-87653956D01*
X121941026Y-87557691D01*
X122024846Y-87517053D01*
X122106238Y-87490060D01*
X122191233Y-87474805D01*
X122296353Y-87468704D01*
X122336983Y-87468263D01*
X122506650Y-87477173D01*
X122651951Y-87507782D01*
X122787018Y-87564183D01*
X122896865Y-87630399D01*
X122995893Y-87696953D01*
X123065770Y-87742945D01*
X123112500Y-87771400D01*
X123142084Y-87785349D01*
X123160521Y-87787820D01*
X123173814Y-87781840D01*
X123182767Y-87774666D01*
X123202024Y-87740751D01*
X123219316Y-87680351D01*
X123227235Y-87633659D01*
X123242020Y-87555567D01*
X123265426Y-87507831D01*
X123289832Y-87486008D01*
X123325840Y-87469240D01*
X123368620Y-87466082D01*
X123425777Y-87478148D01*
X123425777Y-87478148D01*
G37*
X123425777Y-87478148D02*
X123504914Y-87507052D01*
X123613636Y-87554408D01*
X123614917Y-87554989D01*
X123691806Y-87588222D01*
X123756164Y-87613083D01*
X123796541Y-87625226D01*
X123801492Y-87625767D01*
X123833763Y-87610679D01*
X123875639Y-87573260D01*
X123885962Y-87561596D01*
X123939958Y-87497426D01*
X124175637Y-87503388D01*
X124411317Y-87509350D01*
X124416833Y-88411317D01*
X124422350Y-89313284D01*
X124323921Y-89326775D01*
X124219486Y-89336748D01*
X124112679Y-89339712D01*
X124016701Y-89335884D01*
X123944756Y-89325478D01*
X123927672Y-89320312D01*
X123882081Y-89288279D01*
X123860486Y-89254032D01*
X123855706Y-89220209D01*
X123850339Y-89150685D01*
X123844738Y-89052084D01*
X123839254Y-88931026D01*
X123834238Y-88794135D01*
X123831794Y-88714057D01*
X123826672Y-88544646D01*
X123820975Y-88412033D01*
X123813088Y-88310692D01*
X123801394Y-88235101D01*
X123784278Y-88179735D01*
X123760122Y-88139071D01*
X123727311Y-88107586D01*
X123684229Y-88079754D01*
X123639027Y-88055215D01*
X123570894Y-88026114D01*
X123496005Y-88011108D01*
X123397056Y-88006768D01*
X123394611Y-88006767D01*
X123241814Y-88006767D01*
X123270197Y-88139058D01*
X123298685Y-88352756D01*
X123292150Y-88556077D01*
X123252683Y-88745309D01*
X123182370Y-88916736D01*
X123083303Y-89066644D01*
X122957568Y-89191318D01*
X122807256Y-89287045D01*
X122634455Y-89350111D01*
X122582802Y-89361321D01*
X122479088Y-89373961D01*
X122353957Y-89379394D01*
X122225273Y-89377633D01*
X122110899Y-89368690D01*
X122061817Y-89360967D01*
X121936582Y-89327877D01*
X121820484Y-89282535D01*
X121719607Y-89228894D01*
X121640032Y-89170905D01*
X121587844Y-89112519D01*
X121569125Y-89057689D01*
X121571042Y-89042138D01*
X121591580Y-88999849D01*
X121632100Y-88940756D01*
X121676824Y-88885856D01*
X121769620Y-88780695D01*
X121924002Y-88851854D01*
X122077910Y-88907852D01*
X122228437Y-88934621D01*
X122368765Y-88932341D01*
X122492077Y-88901190D01*
X122591557Y-88841349D01*
X122599649Y-88834058D01*
X122650804Y-88769368D01*
X122665067Y-88708352D01*
X122659633Y-88664209D01*
X122635350Y-88639186D01*
X122585692Y-88621713D01*
X122521112Y-88609858D01*
X122435420Y-88601809D01*
X122366822Y-88599551D01*
X122296885Y-88598649D01*
X122195702Y-88596237D01*
X122074319Y-88592632D01*
X121943784Y-88588149D01*
X121872614Y-88585444D01*
X121517901Y-88571454D01*
X121525275Y-88315079D01*
X121529226Y-88203644D01*
X121535038Y-88123039D01*
X121537379Y-88108543D01*
X122079460Y-88108543D01*
X122082233Y-88161387D01*
X122122907Y-88197405D01*
X122202892Y-88219782D01*
X122275254Y-88226298D01*
X122365607Y-88226818D01*
X122460470Y-88222166D01*
X122546361Y-88213167D01*
X122609800Y-88200646D01*
X122628025Y-88193779D01*
X122659150Y-88159255D01*
X122665067Y-88134529D01*
X122647551Y-88085395D01*
X122602117Y-88028860D01*
X122539430Y-87974936D01*
X122470156Y-87933636D01*
X122437939Y-87921309D01*
X122375367Y-87906821D01*
X122322610Y-87909237D01*
X122256786Y-87929864D01*
X122251221Y-87931976D01*
X122161530Y-87981955D01*
X122113020Y-88035660D01*
X122079460Y-88108543D01*
X121537379Y-88108543D01*
X121544935Y-88061761D01*
X121561137Y-88008307D01*
X121585865Y-87951175D01*
X121601952Y-87917976D01*
X121691013Y-87777243D01*
X121807405Y-87653956D01*
X121941026Y-87557691D01*
X122024846Y-87517053D01*
X122106238Y-87490060D01*
X122191233Y-87474805D01*
X122296353Y-87468704D01*
X122336983Y-87468263D01*
X122506650Y-87477173D01*
X122651951Y-87507782D01*
X122787018Y-87564183D01*
X122896865Y-87630399D01*
X122995893Y-87696953D01*
X123065770Y-87742945D01*
X123112500Y-87771400D01*
X123142084Y-87785349D01*
X123160521Y-87787820D01*
X123173814Y-87781840D01*
X123182767Y-87774666D01*
X123202024Y-87740751D01*
X123219316Y-87680351D01*
X123227235Y-87633659D01*
X123242020Y-87555567D01*
X123265426Y-87507831D01*
X123289832Y-87486008D01*
X123325840Y-87469240D01*
X123368620Y-87466082D01*
X123425777Y-87478148D01*
G36*
X126381183Y-87462603D02*
G01*
X126564904Y-87487315D01*
X126746562Y-87535693D01*
X126918969Y-87607395D01*
X127023420Y-87666830D01*
X127106702Y-87732064D01*
X127149657Y-87796004D01*
X127154654Y-87858600D01*
X127131438Y-87909894D01*
X127085970Y-87970686D01*
X127030734Y-88026277D01*
X126984567Y-88058907D01*
X126953879Y-88072244D01*
X126923127Y-88075951D01*
X126882464Y-88068224D01*
X126822041Y-88047259D01*
X126738232Y-88013792D01*
X126595182Y-87963519D01*
X126466276Y-87933793D01*
X126355926Y-87924443D01*
X126268545Y-87935297D01*
X126208544Y-87966182D01*
X126180337Y-88016927D01*
X126178733Y-88035607D01*
X126184031Y-88064761D01*
X126203716Y-88089337D01*
X126243475Y-88111943D01*
X126308994Y-88135186D01*
X126405960Y-88161673D01*
X126507626Y-88186390D01*
X126726165Y-88248077D01*
X126905204Y-88321265D01*
X127046379Y-88407443D01*
X127151323Y-88508101D01*
X127221668Y-88624727D01*
X127259050Y-88758811D01*
X127266350Y-88877956D01*
X127246019Y-89028750D01*
X127193158Y-89155504D01*
X127111460Y-89256089D01*
X127004614Y-89328380D01*
X126876311Y-89370250D01*
X126730243Y-89379572D01*
X126570099Y-89354221D01*
X126485650Y-89327786D01*
X126364180Y-89283352D01*
X126276261Y-89251590D01*
X126215373Y-89231509D01*
X126174999Y-89222121D01*
X126148621Y-89222434D01*
X126129720Y-89231458D01*
X126111778Y-89248202D01*
X126092163Y-89268007D01*
X126059215Y-89296476D01*
X126025141Y-89314798D01*
X125979074Y-89325831D01*
X125910151Y-89332432D01*
X125832172Y-89336404D01*
X125706269Y-89338029D01*
X125621066Y-89330139D01*
X125585865Y-89318992D01*
X125537182Y-89292937D01*
X125550170Y-88686894D01*
X125551170Y-88647695D01*
X126159592Y-88647695D01*
X126173189Y-88730733D01*
X126202830Y-88798889D01*
X126217022Y-88816463D01*
X126294060Y-88869658D01*
X126388113Y-88900043D01*
X126486313Y-88906543D01*
X126575793Y-88888080D01*
X126635897Y-88851479D01*
X126671674Y-88804682D01*
X126686732Y-88758794D01*
X126686733Y-88758454D01*
X126667325Y-88702536D01*
X126615144Y-88645583D01*
X126539255Y-88593011D01*
X126448726Y-88550237D01*
X126352621Y-88522679D01*
X126279678Y-88515231D01*
X126217803Y-88517447D01*
X126185395Y-88528852D01*
X126169710Y-88555454D01*
X126165970Y-88568832D01*
X126159592Y-88647695D01*
X125551170Y-88647695D01*
X125555967Y-88459868D01*
X125563349Y-88270756D01*
X125573212Y-88115144D01*
X125586452Y-87988618D01*
X125603967Y-87886766D01*
X125626652Y-87805172D01*
X125655405Y-87739423D01*
X125691122Y-87685106D01*
X125734699Y-87637807D01*
X125769475Y-87607238D01*
X125889547Y-87533873D01*
X126036315Y-87485540D01*
X126202591Y-87461897D01*
X126381183Y-87462603D01*
X126381183Y-87462603D01*
G37*
X126381183Y-87462603D02*
X126564904Y-87487315D01*
X126746562Y-87535693D01*
X126918969Y-87607395D01*
X127023420Y-87666830D01*
X127106702Y-87732064D01*
X127149657Y-87796004D01*
X127154654Y-87858600D01*
X127131438Y-87909894D01*
X127085970Y-87970686D01*
X127030734Y-88026277D01*
X126984567Y-88058907D01*
X126953879Y-88072244D01*
X126923127Y-88075951D01*
X126882464Y-88068224D01*
X126822041Y-88047259D01*
X126738232Y-88013792D01*
X126595182Y-87963519D01*
X126466276Y-87933793D01*
X126355926Y-87924443D01*
X126268545Y-87935297D01*
X126208544Y-87966182D01*
X126180337Y-88016927D01*
X126178733Y-88035607D01*
X126184031Y-88064761D01*
X126203716Y-88089337D01*
X126243475Y-88111943D01*
X126308994Y-88135186D01*
X126405960Y-88161673D01*
X126507626Y-88186390D01*
X126726165Y-88248077D01*
X126905204Y-88321265D01*
X127046379Y-88407443D01*
X127151323Y-88508101D01*
X127221668Y-88624727D01*
X127259050Y-88758811D01*
X127266350Y-88877956D01*
X127246019Y-89028750D01*
X127193158Y-89155504D01*
X127111460Y-89256089D01*
X127004614Y-89328380D01*
X126876311Y-89370250D01*
X126730243Y-89379572D01*
X126570099Y-89354221D01*
X126485650Y-89327786D01*
X126364180Y-89283352D01*
X126276261Y-89251590D01*
X126215373Y-89231509D01*
X126174999Y-89222121D01*
X126148621Y-89222434D01*
X126129720Y-89231458D01*
X126111778Y-89248202D01*
X126092163Y-89268007D01*
X126059215Y-89296476D01*
X126025141Y-89314798D01*
X125979074Y-89325831D01*
X125910151Y-89332432D01*
X125832172Y-89336404D01*
X125706269Y-89338029D01*
X125621066Y-89330139D01*
X125585865Y-89318992D01*
X125537182Y-89292937D01*
X125550170Y-88686894D01*
X125551170Y-88647695D01*
X126159592Y-88647695D01*
X126173189Y-88730733D01*
X126202830Y-88798889D01*
X126217022Y-88816463D01*
X126294060Y-88869658D01*
X126388113Y-88900043D01*
X126486313Y-88906543D01*
X126575793Y-88888080D01*
X126635897Y-88851479D01*
X126671674Y-88804682D01*
X126686732Y-88758794D01*
X126686733Y-88758454D01*
X126667325Y-88702536D01*
X126615144Y-88645583D01*
X126539255Y-88593011D01*
X126448726Y-88550237D01*
X126352621Y-88522679D01*
X126279678Y-88515231D01*
X126217803Y-88517447D01*
X126185395Y-88528852D01*
X126169710Y-88555454D01*
X126165970Y-88568832D01*
X126159592Y-88647695D01*
X125551170Y-88647695D01*
X125555967Y-88459868D01*
X125563349Y-88270756D01*
X125573212Y-88115144D01*
X125586452Y-87988618D01*
X125603967Y-87886766D01*
X125626652Y-87805172D01*
X125655405Y-87739423D01*
X125691122Y-87685106D01*
X125734699Y-87637807D01*
X125769475Y-87607238D01*
X125889547Y-87533873D01*
X126036315Y-87485540D01*
X126202591Y-87461897D01*
X126381183Y-87462603D01*
G36*
X124975296Y-87503365D02*
G01*
X125052764Y-87504447D01*
X125116905Y-87505842D01*
X125168968Y-87511210D01*
X125210204Y-87524213D01*
X125241864Y-87548509D01*
X125265199Y-87587758D01*
X125281459Y-87645622D01*
X125291894Y-87725760D01*
X125297757Y-87831832D01*
X125300296Y-87967499D01*
X125300764Y-88136420D01*
X125300411Y-88342256D01*
X125300317Y-88454525D01*
X125300597Y-88672189D01*
X125300726Y-88851250D01*
X125299640Y-88995428D01*
X125296271Y-89108443D01*
X125289555Y-89194017D01*
X125278426Y-89255868D01*
X125261818Y-89297719D01*
X125238665Y-89323288D01*
X125207902Y-89336296D01*
X125168463Y-89340463D01*
X125119282Y-89339511D01*
X125059294Y-89337158D01*
X125047563Y-89336879D01*
X124956610Y-89334176D01*
X124873365Y-89330154D01*
X124813951Y-89325617D01*
X124808192Y-89324955D01*
X124739400Y-89316418D01*
X124739400Y-87497380D01*
X124975296Y-87503365D01*
X124975296Y-87503365D01*
G37*
X124975296Y-87503365D02*
X125052764Y-87504447D01*
X125116905Y-87505842D01*
X125168968Y-87511210D01*
X125210204Y-87524213D01*
X125241864Y-87548509D01*
X125265199Y-87587758D01*
X125281459Y-87645622D01*
X125291894Y-87725760D01*
X125297757Y-87831832D01*
X125300296Y-87967499D01*
X125300764Y-88136420D01*
X125300411Y-88342256D01*
X125300317Y-88454525D01*
X125300597Y-88672189D01*
X125300726Y-88851250D01*
X125299640Y-88995428D01*
X125296271Y-89108443D01*
X125289555Y-89194017D01*
X125278426Y-89255868D01*
X125261818Y-89297719D01*
X125238665Y-89323288D01*
X125207902Y-89336296D01*
X125168463Y-89340463D01*
X125119282Y-89339511D01*
X125059294Y-89337158D01*
X125047563Y-89336879D01*
X124956610Y-89334176D01*
X124873365Y-89330154D01*
X124813951Y-89325617D01*
X124808192Y-89324955D01*
X124739400Y-89316418D01*
X124739400Y-87497380D01*
X124975296Y-87503365D01*
G36*
X128745192Y-87588725D02*
G01*
X128747097Y-87916710D01*
X128747970Y-88204401D01*
X128747759Y-88453823D01*
X128746416Y-88667005D01*
X128743889Y-88845973D01*
X128740129Y-88992754D01*
X128735086Y-89109375D01*
X128728709Y-89197863D01*
X128720950Y-89260246D01*
X128711757Y-89298549D01*
X128702628Y-89313808D01*
X128664692Y-89325956D01*
X128594338Y-89333732D01*
X128501276Y-89336895D01*
X128395218Y-89335204D01*
X128285877Y-89328417D01*
X128250832Y-89325030D01*
X128174514Y-89316909D01*
X128163420Y-88851356D01*
X128159817Y-88715471D01*
X128155912Y-88594436D01*
X128151960Y-88494441D01*
X128148221Y-88421676D01*
X128144949Y-88382331D01*
X128143729Y-88377206D01*
X128110732Y-88364021D01*
X128048584Y-88353226D01*
X127970445Y-88345864D01*
X127889475Y-88342973D01*
X127818834Y-88345596D01*
X127791319Y-88349335D01*
X127699067Y-88358950D01*
X127599304Y-88356528D01*
X127505801Y-88343628D01*
X127432330Y-88321805D01*
X127404194Y-88305570D01*
X127383543Y-88285580D01*
X127371703Y-88260415D01*
X127367450Y-88220419D01*
X127369562Y-88155939D01*
X127375254Y-88077136D01*
X127390335Y-87884349D01*
X127562409Y-87871747D01*
X127668960Y-87864036D01*
X127793579Y-87855155D01*
X127912098Y-87846823D01*
X127930275Y-87845559D01*
X128126067Y-87831973D01*
X128126067Y-87334240D01*
X128036108Y-87322129D01*
X127987588Y-87317748D01*
X127904784Y-87312599D01*
X127795729Y-87307083D01*
X127668457Y-87301600D01*
X127530999Y-87296551D01*
X127506942Y-87295756D01*
X127067733Y-87281495D01*
X127067733Y-86821433D01*
X128739900Y-86821433D01*
X128745192Y-87588725D01*
X128745192Y-87588725D01*
G37*
X128745192Y-87588725D02*
X128747097Y-87916710D01*
X128747970Y-88204401D01*
X128747759Y-88453823D01*
X128746416Y-88667005D01*
X128743889Y-88845973D01*
X128740129Y-88992754D01*
X128735086Y-89109375D01*
X128728709Y-89197863D01*
X128720950Y-89260246D01*
X128711757Y-89298549D01*
X128702628Y-89313808D01*
X128664692Y-89325956D01*
X128594338Y-89333732D01*
X128501276Y-89336895D01*
X128395218Y-89335204D01*
X128285877Y-89328417D01*
X128250832Y-89325030D01*
X128174514Y-89316909D01*
X128163420Y-88851356D01*
X128159817Y-88715471D01*
X128155912Y-88594436D01*
X128151960Y-88494441D01*
X128148221Y-88421676D01*
X128144949Y-88382331D01*
X128143729Y-88377206D01*
X128110732Y-88364021D01*
X128048584Y-88353226D01*
X127970445Y-88345864D01*
X127889475Y-88342973D01*
X127818834Y-88345596D01*
X127791319Y-88349335D01*
X127699067Y-88358950D01*
X127599304Y-88356528D01*
X127505801Y-88343628D01*
X127432330Y-88321805D01*
X127404194Y-88305570D01*
X127383543Y-88285580D01*
X127371703Y-88260415D01*
X127367450Y-88220419D01*
X127369562Y-88155939D01*
X127375254Y-88077136D01*
X127390335Y-87884349D01*
X127562409Y-87871747D01*
X127668960Y-87864036D01*
X127793579Y-87855155D01*
X127912098Y-87846823D01*
X127930275Y-87845559D01*
X128126067Y-87831973D01*
X128126067Y-87334240D01*
X128036108Y-87322129D01*
X127987588Y-87317748D01*
X127904784Y-87312599D01*
X127795729Y-87307083D01*
X127668457Y-87301600D01*
X127530999Y-87296551D01*
X127506942Y-87295756D01*
X127067733Y-87281495D01*
X127067733Y-86821433D01*
X128739900Y-86821433D01*
X128745192Y-87588725D01*
G36*
X124947594Y-86802166D02*
G01*
X124995365Y-86803687D01*
X125099110Y-86807514D01*
X125169232Y-86812664D01*
X125214436Y-86820946D01*
X125243427Y-86834168D01*
X125264914Y-86854136D01*
X125270478Y-86860820D01*
X125302220Y-86928412D01*
X125313918Y-87016534D01*
X125306064Y-87108694D01*
X125279151Y-87188403D01*
X125259841Y-87217128D01*
X125233080Y-87245167D01*
X125204429Y-87263097D01*
X125163630Y-87273647D01*
X125100428Y-87279544D01*
X125011132Y-87283295D01*
X124907008Y-87284897D01*
X124836485Y-87280633D01*
X124791126Y-87269629D01*
X124771150Y-87258456D01*
X124749927Y-87237056D01*
X124737255Y-87205276D01*
X124731136Y-87153117D01*
X124729574Y-87070583D01*
X124729627Y-87050594D01*
X124730392Y-86944870D01*
X124736150Y-86873451D01*
X124753826Y-86829904D01*
X124790343Y-86807796D01*
X124852624Y-86800694D01*
X124947594Y-86802166D01*
X124947594Y-86802166D01*
G37*
X124947594Y-86802166D02*
X124995365Y-86803687D01*
X125099110Y-86807514D01*
X125169232Y-86812664D01*
X125214436Y-86820946D01*
X125243427Y-86834168D01*
X125264914Y-86854136D01*
X125270478Y-86860820D01*
X125302220Y-86928412D01*
X125313918Y-87016534D01*
X125306064Y-87108694D01*
X125279151Y-87188403D01*
X125259841Y-87217128D01*
X125233080Y-87245167D01*
X125204429Y-87263097D01*
X125163630Y-87273647D01*
X125100428Y-87279544D01*
X125011132Y-87283295D01*
X124907008Y-87284897D01*
X124836485Y-87280633D01*
X124791126Y-87269629D01*
X124771150Y-87258456D01*
X124749927Y-87237056D01*
X124737255Y-87205276D01*
X124731136Y-87153117D01*
X124729574Y-87070583D01*
X124729627Y-87050594D01*
X124730392Y-86944870D01*
X124736150Y-86873451D01*
X124753826Y-86829904D01*
X124790343Y-86807796D01*
X124852624Y-86800694D01*
X124947594Y-86802166D01*
G36*
X121537202Y-86860476D02*
G01*
X121604243Y-86911006D01*
X121642169Y-86989538D01*
X121649067Y-87050553D01*
X121632699Y-87128026D01*
X121589414Y-87179823D01*
X121527941Y-87203106D01*
X121457006Y-87195037D01*
X121385338Y-87152777D01*
X121372272Y-87140561D01*
X121330481Y-87088816D01*
X121312919Y-87032429D01*
X121310400Y-86982556D01*
X121320622Y-86905753D01*
X121354934Y-86861308D01*
X121418800Y-86843564D01*
X121445596Y-86842600D01*
X121537202Y-86860476D01*
X121537202Y-86860476D01*
G37*
X121537202Y-86860476D02*
X121604243Y-86911006D01*
X121642169Y-86989538D01*
X121649067Y-87050553D01*
X121632699Y-87128026D01*
X121589414Y-87179823D01*
X121527941Y-87203106D01*
X121457006Y-87195037D01*
X121385338Y-87152777D01*
X121372272Y-87140561D01*
X121330481Y-87088816D01*
X121312919Y-87032429D01*
X121310400Y-86982556D01*
X121320622Y-86905753D01*
X121354934Y-86861308D01*
X121418800Y-86843564D01*
X121445596Y-86842600D01*
X121537202Y-86860476D01*
G36*
X121449823Y-84150431D02*
G01*
X121595252Y-84175823D01*
X121659650Y-84196402D01*
X121845506Y-84288869D01*
X122001166Y-84410054D01*
X122124732Y-84557191D01*
X122214308Y-84727513D01*
X122267997Y-84918254D01*
X122284067Y-85106933D01*
X122266931Y-85294105D01*
X122218029Y-85472743D01*
X122141113Y-85637007D01*
X122039939Y-85781058D01*
X121918261Y-85899057D01*
X121779834Y-85985164D01*
X121699322Y-86016383D01*
X121567473Y-86044458D01*
X121411710Y-86057835D01*
X121247841Y-86056446D01*
X121091675Y-86040226D01*
X120992900Y-86019333D01*
X120855424Y-85974407D01*
X120736957Y-85921194D01*
X120642893Y-85863159D01*
X120578625Y-85803768D01*
X120549545Y-85746486D01*
X120548400Y-85733701D01*
X120561310Y-85687938D01*
X120593683Y-85626761D01*
X120635984Y-85564539D01*
X120678675Y-85515638D01*
X120706198Y-85495953D01*
X120737922Y-85497629D01*
X120798905Y-85511382D01*
X120878687Y-85534635D01*
X120924818Y-85549860D01*
X121069489Y-85590317D01*
X121209447Y-85612464D01*
X121335454Y-85615737D01*
X121438270Y-85599574D01*
X121478915Y-85583606D01*
X121550772Y-85532880D01*
X121600413Y-85471194D01*
X121625218Y-85406934D01*
X121622566Y-85348484D01*
X121589835Y-85304230D01*
X121569692Y-85293181D01*
X121527685Y-85284528D01*
X121446976Y-85276669D01*
X121331193Y-85269816D01*
X121183963Y-85264181D01*
X121008913Y-85259976D01*
X120998192Y-85259784D01*
X120484900Y-85250758D01*
X120485213Y-85099470D01*
X120502100Y-84894292D01*
X120523491Y-84810169D01*
X121040383Y-84810169D01*
X121048182Y-84837897D01*
X121082155Y-84856614D01*
X121146601Y-84867848D01*
X121245825Y-84873127D01*
X121342150Y-84874100D01*
X121459379Y-84872882D01*
X121540686Y-84868776D01*
X121592424Y-84861104D01*
X121620948Y-84849187D01*
X121626777Y-84843703D01*
X121637322Y-84801211D01*
X121613801Y-84748139D01*
X121561075Y-84690551D01*
X121484001Y-84634510D01*
X121439255Y-84609672D01*
X121380687Y-84586690D01*
X121326956Y-84586974D01*
X121286750Y-84597176D01*
X121203753Y-84634584D01*
X121124534Y-84690997D01*
X121065482Y-84754089D01*
X121054454Y-84771903D01*
X121040383Y-84810169D01*
X120523491Y-84810169D01*
X120550192Y-84705165D01*
X120626950Y-84536469D01*
X120729836Y-84392585D01*
X120856311Y-84277893D01*
X121003835Y-84196774D01*
X121009799Y-84194422D01*
X121140872Y-84159680D01*
X121292955Y-84145033D01*
X121449823Y-84150431D01*
X121449823Y-84150431D01*
G37*
X121449823Y-84150431D02*
X121595252Y-84175823D01*
X121659650Y-84196402D01*
X121845506Y-84288869D01*
X122001166Y-84410054D01*
X122124732Y-84557191D01*
X122214308Y-84727513D01*
X122267997Y-84918254D01*
X122284067Y-85106933D01*
X122266931Y-85294105D01*
X122218029Y-85472743D01*
X122141113Y-85637007D01*
X122039939Y-85781058D01*
X121918261Y-85899057D01*
X121779834Y-85985164D01*
X121699322Y-86016383D01*
X121567473Y-86044458D01*
X121411710Y-86057835D01*
X121247841Y-86056446D01*
X121091675Y-86040226D01*
X120992900Y-86019333D01*
X120855424Y-85974407D01*
X120736957Y-85921194D01*
X120642893Y-85863159D01*
X120578625Y-85803768D01*
X120549545Y-85746486D01*
X120548400Y-85733701D01*
X120561310Y-85687938D01*
X120593683Y-85626761D01*
X120635984Y-85564539D01*
X120678675Y-85515638D01*
X120706198Y-85495953D01*
X120737922Y-85497629D01*
X120798905Y-85511382D01*
X120878687Y-85534635D01*
X120924818Y-85549860D01*
X121069489Y-85590317D01*
X121209447Y-85612464D01*
X121335454Y-85615737D01*
X121438270Y-85599574D01*
X121478915Y-85583606D01*
X121550772Y-85532880D01*
X121600413Y-85471194D01*
X121625218Y-85406934D01*
X121622566Y-85348484D01*
X121589835Y-85304230D01*
X121569692Y-85293181D01*
X121527685Y-85284528D01*
X121446976Y-85276669D01*
X121331193Y-85269816D01*
X121183963Y-85264181D01*
X121008913Y-85259976D01*
X120998192Y-85259784D01*
X120484900Y-85250758D01*
X120485213Y-85099470D01*
X120502100Y-84894292D01*
X120523491Y-84810169D01*
X121040383Y-84810169D01*
X121048182Y-84837897D01*
X121082155Y-84856614D01*
X121146601Y-84867848D01*
X121245825Y-84873127D01*
X121342150Y-84874100D01*
X121459379Y-84872882D01*
X121540686Y-84868776D01*
X121592424Y-84861104D01*
X121620948Y-84849187D01*
X121626777Y-84843703D01*
X121637322Y-84801211D01*
X121613801Y-84748139D01*
X121561075Y-84690551D01*
X121484001Y-84634510D01*
X121439255Y-84609672D01*
X121380687Y-84586690D01*
X121326956Y-84586974D01*
X121286750Y-84597176D01*
X121203753Y-84634584D01*
X121124534Y-84690997D01*
X121065482Y-84754089D01*
X121054454Y-84771903D01*
X121040383Y-84810169D01*
X120523491Y-84810169D01*
X120550192Y-84705165D01*
X120626950Y-84536469D01*
X120729836Y-84392585D01*
X120856311Y-84277893D01*
X121003835Y-84196774D01*
X121009799Y-84194422D01*
X121140872Y-84159680D01*
X121292955Y-84145033D01*
X121449823Y-84150431D01*
G36*
X119288706Y-84160013D02*
G01*
X119395588Y-84189307D01*
X119492954Y-84228517D01*
X119571616Y-84262031D01*
X119636379Y-84287648D01*
X119676898Y-84301351D01*
X119683828Y-84302600D01*
X119713488Y-84289986D01*
X119757910Y-84258892D01*
X119767036Y-84251414D01*
X119833064Y-84214370D01*
X119919399Y-84191421D01*
X120016253Y-84182033D01*
X120113840Y-84185675D01*
X120202372Y-84201812D01*
X120272062Y-84229910D01*
X120313122Y-84269437D01*
X120317876Y-84281433D01*
X120322110Y-84318125D01*
X120325664Y-84391086D01*
X120328540Y-84494259D01*
X120330743Y-84621585D01*
X120332273Y-84767005D01*
X120333134Y-84924461D01*
X120333329Y-85087895D01*
X120332859Y-85251249D01*
X120331728Y-85408464D01*
X120329939Y-85553483D01*
X120327493Y-85680246D01*
X120324395Y-85782695D01*
X120320645Y-85854772D01*
X120317175Y-85886511D01*
X120301079Y-85948368D01*
X120281992Y-85993418D01*
X120275680Y-86001953D01*
X120245674Y-86012112D01*
X120184582Y-86020790D01*
X120103641Y-86027438D01*
X120014091Y-86031510D01*
X119927167Y-86032460D01*
X119854108Y-86029740D01*
X119812858Y-86024481D01*
X119788028Y-86015573D01*
X119773572Y-85995817D01*
X119766556Y-85955505D01*
X119764044Y-85884931D01*
X119763783Y-85862169D01*
X119761109Y-85710031D01*
X119756186Y-85553692D01*
X119749432Y-85399688D01*
X119741265Y-85254553D01*
X119732102Y-85124824D01*
X119722362Y-85017036D01*
X119712462Y-84937724D01*
X119702818Y-84893423D01*
X119701704Y-84890783D01*
X119659313Y-84837150D01*
X119587812Y-84781053D01*
X119499414Y-84729220D01*
X119406335Y-84688381D01*
X119320787Y-84665264D01*
X119287192Y-84662433D01*
X119246464Y-84653127D01*
X119194445Y-84631051D01*
X119136437Y-84578125D01*
X119101425Y-84494774D01*
X119091600Y-84387440D01*
X119095226Y-84339116D01*
X119115165Y-84248042D01*
X119151833Y-84188452D01*
X119208567Y-84159419D01*
X119288706Y-84160013D01*
X119288706Y-84160013D01*
G37*
X119288706Y-84160013D02*
X119395588Y-84189307D01*
X119492954Y-84228517D01*
X119571616Y-84262031D01*
X119636379Y-84287648D01*
X119676898Y-84301351D01*
X119683828Y-84302600D01*
X119713488Y-84289986D01*
X119757910Y-84258892D01*
X119767036Y-84251414D01*
X119833064Y-84214370D01*
X119919399Y-84191421D01*
X120016253Y-84182033D01*
X120113840Y-84185675D01*
X120202372Y-84201812D01*
X120272062Y-84229910D01*
X120313122Y-84269437D01*
X120317876Y-84281433D01*
X120322110Y-84318125D01*
X120325664Y-84391086D01*
X120328540Y-84494259D01*
X120330743Y-84621585D01*
X120332273Y-84767005D01*
X120333134Y-84924461D01*
X120333329Y-85087895D01*
X120332859Y-85251249D01*
X120331728Y-85408464D01*
X120329939Y-85553483D01*
X120327493Y-85680246D01*
X120324395Y-85782695D01*
X120320645Y-85854772D01*
X120317175Y-85886511D01*
X120301079Y-85948368D01*
X120281992Y-85993418D01*
X120275680Y-86001953D01*
X120245674Y-86012112D01*
X120184582Y-86020790D01*
X120103641Y-86027438D01*
X120014091Y-86031510D01*
X119927167Y-86032460D01*
X119854108Y-86029740D01*
X119812858Y-86024481D01*
X119788028Y-86015573D01*
X119773572Y-85995817D01*
X119766556Y-85955505D01*
X119764044Y-85884931D01*
X119763783Y-85862169D01*
X119761109Y-85710031D01*
X119756186Y-85553692D01*
X119749432Y-85399688D01*
X119741265Y-85254553D01*
X119732102Y-85124824D01*
X119722362Y-85017036D01*
X119712462Y-84937724D01*
X119702818Y-84893423D01*
X119701704Y-84890783D01*
X119659313Y-84837150D01*
X119587812Y-84781053D01*
X119499414Y-84729220D01*
X119406335Y-84688381D01*
X119320787Y-84665264D01*
X119287192Y-84662433D01*
X119246464Y-84653127D01*
X119194445Y-84631051D01*
X119136437Y-84578125D01*
X119101425Y-84494774D01*
X119091600Y-84387440D01*
X119095226Y-84339116D01*
X119115165Y-84248042D01*
X119151833Y-84188452D01*
X119208567Y-84159419D01*
X119288706Y-84160013D01*
G36*
X123752709Y-83450585D02*
G01*
X123854016Y-83477954D01*
X123862688Y-83481728D01*
X123886779Y-83495462D01*
X123906623Y-83515311D01*
X123922707Y-83545300D01*
X123935518Y-83589456D01*
X123945542Y-83651803D01*
X123953265Y-83736367D01*
X123959176Y-83847173D01*
X123963759Y-83988246D01*
X123967502Y-84163612D01*
X123970883Y-84376683D01*
X123973663Y-84655720D01*
X123973796Y-84916328D01*
X123971400Y-85155649D01*
X123966591Y-85370827D01*
X123959487Y-85559004D01*
X123950204Y-85717323D01*
X123938861Y-85842928D01*
X123925572Y-85932960D01*
X123910457Y-85984562D01*
X123904676Y-85993096D01*
X123873432Y-86011645D01*
X123818668Y-86024210D01*
X123732932Y-86032144D01*
X123674433Y-86034859D01*
X123559880Y-86036801D01*
X123479960Y-86028559D01*
X123427583Y-86003798D01*
X123395660Y-85956184D01*
X123377102Y-85879382D01*
X123364819Y-85767056D01*
X123363990Y-85757459D01*
X123346072Y-85615903D01*
X123319225Y-85513104D01*
X123282200Y-85446187D01*
X123233750Y-85412276D01*
X123211908Y-85407426D01*
X123154571Y-85421903D01*
X123092575Y-85478108D01*
X123026215Y-85575728D01*
X122989245Y-85644409D01*
X122911763Y-85784887D01*
X122836712Y-85895254D01*
X122767043Y-85971569D01*
X122719408Y-86004422D01*
X122657572Y-86021933D01*
X122568953Y-86033017D01*
X122468670Y-86037290D01*
X122371839Y-86034369D01*
X122293579Y-86023870D01*
X122266721Y-86015896D01*
X122231431Y-85991771D01*
X122230477Y-85953304D01*
X122231851Y-85948446D01*
X122245046Y-85917420D01*
X122275012Y-85854241D01*
X122319055Y-85764352D01*
X122374485Y-85653193D01*
X122438608Y-85526206D01*
X122508686Y-85388925D01*
X122771296Y-84877166D01*
X122538264Y-84585739D01*
X122462492Y-84489017D01*
X122397015Y-84401693D01*
X122346158Y-84329840D01*
X122314242Y-84279530D01*
X122305233Y-84258387D01*
X122310578Y-84233533D01*
X122330745Y-84216257D01*
X122371935Y-84205251D01*
X122440346Y-84199207D01*
X122542177Y-84196815D01*
X122598006Y-84196584D01*
X122823817Y-84196401D01*
X123056650Y-84440332D01*
X123159536Y-84545952D01*
X123237534Y-84620836D01*
X123292827Y-84666790D01*
X123327601Y-84685621D01*
X123344041Y-84679138D01*
X123344375Y-84678308D01*
X123345521Y-84656603D01*
X123347711Y-84598322D01*
X123350752Y-84509205D01*
X123354454Y-84394993D01*
X123358625Y-84261424D01*
X123362190Y-84143850D01*
X123368138Y-83960835D01*
X123374599Y-83815440D01*
X123382767Y-83702956D01*
X123393836Y-83618674D01*
X123408998Y-83557887D01*
X123429449Y-83515886D01*
X123456380Y-83487963D01*
X123490985Y-83469409D01*
X123534458Y-83455517D01*
X123536828Y-83454875D01*
X123638985Y-83442233D01*
X123752709Y-83450585D01*
X123752709Y-83450585D01*
G37*
X123752709Y-83450585D02*
X123854016Y-83477954D01*
X123862688Y-83481728D01*
X123886779Y-83495462D01*
X123906623Y-83515311D01*
X123922707Y-83545300D01*
X123935518Y-83589456D01*
X123945542Y-83651803D01*
X123953265Y-83736367D01*
X123959176Y-83847173D01*
X123963759Y-83988246D01*
X123967502Y-84163612D01*
X123970883Y-84376683D01*
X123973663Y-84655720D01*
X123973796Y-84916328D01*
X123971400Y-85155649D01*
X123966591Y-85370827D01*
X123959487Y-85559004D01*
X123950204Y-85717323D01*
X123938861Y-85842928D01*
X123925572Y-85932960D01*
X123910457Y-85984562D01*
X123904676Y-85993096D01*
X123873432Y-86011645D01*
X123818668Y-86024210D01*
X123732932Y-86032144D01*
X123674433Y-86034859D01*
X123559880Y-86036801D01*
X123479960Y-86028559D01*
X123427583Y-86003798D01*
X123395660Y-85956184D01*
X123377102Y-85879382D01*
X123364819Y-85767056D01*
X123363990Y-85757459D01*
X123346072Y-85615903D01*
X123319225Y-85513104D01*
X123282200Y-85446187D01*
X123233750Y-85412276D01*
X123211908Y-85407426D01*
X123154571Y-85421903D01*
X123092575Y-85478108D01*
X123026215Y-85575728D01*
X122989245Y-85644409D01*
X122911763Y-85784887D01*
X122836712Y-85895254D01*
X122767043Y-85971569D01*
X122719408Y-86004422D01*
X122657572Y-86021933D01*
X122568953Y-86033017D01*
X122468670Y-86037290D01*
X122371839Y-86034369D01*
X122293579Y-86023870D01*
X122266721Y-86015896D01*
X122231431Y-85991771D01*
X122230477Y-85953304D01*
X122231851Y-85948446D01*
X122245046Y-85917420D01*
X122275012Y-85854241D01*
X122319055Y-85764352D01*
X122374485Y-85653193D01*
X122438608Y-85526206D01*
X122508686Y-85388925D01*
X122771296Y-84877166D01*
X122538264Y-84585739D01*
X122462492Y-84489017D01*
X122397015Y-84401693D01*
X122346158Y-84329840D01*
X122314242Y-84279530D01*
X122305233Y-84258387D01*
X122310578Y-84233533D01*
X122330745Y-84216257D01*
X122371935Y-84205251D01*
X122440346Y-84199207D01*
X122542177Y-84196815D01*
X122598006Y-84196584D01*
X122823817Y-84196401D01*
X123056650Y-84440332D01*
X123159536Y-84545952D01*
X123237534Y-84620836D01*
X123292827Y-84666790D01*
X123327601Y-84685621D01*
X123344041Y-84679138D01*
X123344375Y-84678308D01*
X123345521Y-84656603D01*
X123347711Y-84598322D01*
X123350752Y-84509205D01*
X123354454Y-84394993D01*
X123358625Y-84261424D01*
X123362190Y-84143850D01*
X123368138Y-83960835D01*
X123374599Y-83815440D01*
X123382767Y-83702956D01*
X123393836Y-83618674D01*
X123408998Y-83557887D01*
X123429449Y-83515886D01*
X123456380Y-83487963D01*
X123490985Y-83469409D01*
X123534458Y-83455517D01*
X123536828Y-83454875D01*
X123638985Y-83442233D01*
X123752709Y-83450585D01*
G36*
X125049861Y-84151119D02*
G01*
X125228796Y-84171601D01*
X125401217Y-84211201D01*
X125558387Y-84269688D01*
X125610561Y-84295871D01*
X125698735Y-84353170D01*
X125767491Y-84416037D01*
X125809440Y-84476730D01*
X125818900Y-84514185D01*
X125805268Y-84548163D01*
X125769344Y-84601365D01*
X125718579Y-84662896D01*
X125712755Y-84669328D01*
X125606610Y-84785467D01*
X125421713Y-84709363D01*
X125281127Y-84659872D01*
X125149852Y-84629487D01*
X125033837Y-84618443D01*
X124939030Y-84626977D01*
X124871381Y-84655326D01*
X124843719Y-84686429D01*
X124833152Y-84724046D01*
X124847355Y-84757258D01*
X124890063Y-84788282D01*
X124965012Y-84819332D01*
X125075938Y-84852626D01*
X125160625Y-84874430D01*
X125371311Y-84934066D01*
X125542871Y-85000233D01*
X125678315Y-85075396D01*
X125780653Y-85162020D01*
X125852896Y-85262571D01*
X125898055Y-85379513D01*
X125917437Y-85494104D01*
X125916186Y-85648742D01*
X125881127Y-85778393D01*
X125811639Y-85884354D01*
X125707100Y-85967919D01*
X125683946Y-85980986D01*
X125636662Y-86002902D01*
X125586353Y-86016799D01*
X125521783Y-86024368D01*
X125431716Y-86027299D01*
X125374400Y-86027555D01*
X125271172Y-86026544D01*
X125196602Y-86021909D01*
X125137024Y-86011029D01*
X125078775Y-85991287D01*
X125008190Y-85960064D01*
X124998403Y-85955497D01*
X124913297Y-85917898D01*
X124852598Y-85900898D01*
X124803202Y-85905483D01*
X124752000Y-85932637D01*
X124691873Y-85978526D01*
X124638403Y-86005261D01*
X124560739Y-86024871D01*
X124470771Y-86036636D01*
X124380392Y-86039835D01*
X124301494Y-86033749D01*
X124245969Y-86017656D01*
X124231317Y-86006416D01*
X124212905Y-85960142D01*
X124200123Y-85873517D01*
X124193011Y-85748150D01*
X124191610Y-85585653D01*
X124195960Y-85387637D01*
X124199256Y-85312259D01*
X124765997Y-85312259D01*
X124783232Y-85385119D01*
X124788427Y-85395745D01*
X124858175Y-85489657D01*
X124951502Y-85548977D01*
X125012574Y-85563416D01*
X125092864Y-85570104D01*
X125175458Y-85568950D01*
X125243442Y-85559864D01*
X125269958Y-85550688D01*
X125302218Y-85512039D01*
X125312758Y-85452568D01*
X125302030Y-85387515D01*
X125270485Y-85332122D01*
X125263275Y-85324935D01*
X125198856Y-85275390D01*
X125125449Y-85240687D01*
X125027207Y-85213548D01*
X125014897Y-85210860D01*
X124913331Y-85200900D01*
X124835214Y-85216747D01*
X124784714Y-85255001D01*
X124765997Y-85312259D01*
X124199256Y-85312259D01*
X124206102Y-85155712D01*
X124208768Y-85106500D01*
X124221387Y-84906583D01*
X124235624Y-84743996D01*
X124252875Y-84613737D01*
X124274537Y-84510803D01*
X124302005Y-84430191D01*
X124336677Y-84366900D01*
X124379949Y-84315926D01*
X124433218Y-84272266D01*
X124443683Y-84264998D01*
X124561322Y-84206695D01*
X124707388Y-84168435D01*
X124873147Y-84149987D01*
X125049861Y-84151119D01*
X125049861Y-84151119D01*
G37*
X125049861Y-84151119D02*
X125228796Y-84171601D01*
X125401217Y-84211201D01*
X125558387Y-84269688D01*
X125610561Y-84295871D01*
X125698735Y-84353170D01*
X125767491Y-84416037D01*
X125809440Y-84476730D01*
X125818900Y-84514185D01*
X125805268Y-84548163D01*
X125769344Y-84601365D01*
X125718579Y-84662896D01*
X125712755Y-84669328D01*
X125606610Y-84785467D01*
X125421713Y-84709363D01*
X125281127Y-84659872D01*
X125149852Y-84629487D01*
X125033837Y-84618443D01*
X124939030Y-84626977D01*
X124871381Y-84655326D01*
X124843719Y-84686429D01*
X124833152Y-84724046D01*
X124847355Y-84757258D01*
X124890063Y-84788282D01*
X124965012Y-84819332D01*
X125075938Y-84852626D01*
X125160625Y-84874430D01*
X125371311Y-84934066D01*
X125542871Y-85000233D01*
X125678315Y-85075396D01*
X125780653Y-85162020D01*
X125852896Y-85262571D01*
X125898055Y-85379513D01*
X125917437Y-85494104D01*
X125916186Y-85648742D01*
X125881127Y-85778393D01*
X125811639Y-85884354D01*
X125707100Y-85967919D01*
X125683946Y-85980986D01*
X125636662Y-86002902D01*
X125586353Y-86016799D01*
X125521783Y-86024368D01*
X125431716Y-86027299D01*
X125374400Y-86027555D01*
X125271172Y-86026544D01*
X125196602Y-86021909D01*
X125137024Y-86011029D01*
X125078775Y-85991287D01*
X125008190Y-85960064D01*
X124998403Y-85955497D01*
X124913297Y-85917898D01*
X124852598Y-85900898D01*
X124803202Y-85905483D01*
X124752000Y-85932637D01*
X124691873Y-85978526D01*
X124638403Y-86005261D01*
X124560739Y-86024871D01*
X124470771Y-86036636D01*
X124380392Y-86039835D01*
X124301494Y-86033749D01*
X124245969Y-86017656D01*
X124231317Y-86006416D01*
X124212905Y-85960142D01*
X124200123Y-85873517D01*
X124193011Y-85748150D01*
X124191610Y-85585653D01*
X124195960Y-85387637D01*
X124199256Y-85312259D01*
X124765997Y-85312259D01*
X124783232Y-85385119D01*
X124788427Y-85395745D01*
X124858175Y-85489657D01*
X124951502Y-85548977D01*
X125012574Y-85563416D01*
X125092864Y-85570104D01*
X125175458Y-85568950D01*
X125243442Y-85559864D01*
X125269958Y-85550688D01*
X125302218Y-85512039D01*
X125312758Y-85452568D01*
X125302030Y-85387515D01*
X125270485Y-85332122D01*
X125263275Y-85324935D01*
X125198856Y-85275390D01*
X125125449Y-85240687D01*
X125027207Y-85213548D01*
X125014897Y-85210860D01*
X124913331Y-85200900D01*
X124835214Y-85216747D01*
X124784714Y-85255001D01*
X124765997Y-85312259D01*
X124199256Y-85312259D01*
X124206102Y-85155712D01*
X124208768Y-85106500D01*
X124221387Y-84906583D01*
X124235624Y-84743996D01*
X124252875Y-84613737D01*
X124274537Y-84510803D01*
X124302005Y-84430191D01*
X124336677Y-84366900D01*
X124379949Y-84315926D01*
X124433218Y-84272266D01*
X124443683Y-84264998D01*
X124561322Y-84206695D01*
X124707388Y-84168435D01*
X124873147Y-84149987D01*
X125049861Y-84151119D01*
G36*
X126632856Y-83453042D02*
G01*
X126732681Y-83461541D01*
X126804332Y-83479184D01*
X126854788Y-83508454D01*
X126891024Y-83551835D01*
X126915038Y-83599719D01*
X126940722Y-83666183D01*
X126975891Y-83765599D01*
X127018045Y-83890314D01*
X127064688Y-84032679D01*
X127113321Y-84185042D01*
X127161445Y-84339753D01*
X127206564Y-84489159D01*
X127217100Y-84524850D01*
X127257180Y-84656065D01*
X127297962Y-84780268D01*
X127337118Y-84891236D01*
X127372322Y-84982748D01*
X127401248Y-85048583D01*
X127421571Y-85082518D01*
X127426813Y-85085767D01*
X127438382Y-85078212D01*
X127453964Y-85053565D01*
X127474648Y-85008847D01*
X127501527Y-84941080D01*
X127535689Y-84847285D01*
X127578226Y-84724487D01*
X127630227Y-84569706D01*
X127692784Y-84379964D01*
X127753983Y-84192318D01*
X127979000Y-83499953D01*
X128057825Y-83478061D01*
X128123877Y-83466737D01*
X128216764Y-83459661D01*
X128323987Y-83456800D01*
X128433047Y-83458116D01*
X128531443Y-83463574D01*
X128606676Y-83473139D01*
X128632419Y-83479697D01*
X128691654Y-83515547D01*
X128724493Y-83559072D01*
X128730651Y-83594249D01*
X128736313Y-83666655D01*
X128741435Y-83771186D01*
X128745967Y-83902739D01*
X128749863Y-84056213D01*
X128753074Y-84226504D01*
X128755555Y-84408509D01*
X128757257Y-84597127D01*
X128758133Y-84787253D01*
X128758135Y-84973786D01*
X128757216Y-85151622D01*
X128755329Y-85315659D01*
X128752426Y-85460795D01*
X128748460Y-85581926D01*
X128744058Y-85664535D01*
X128734006Y-85792346D01*
X128723602Y-85883748D01*
X128711860Y-85944664D01*
X128697793Y-85981013D01*
X128689474Y-85991930D01*
X128647705Y-86012449D01*
X128577712Y-86027237D01*
X128493345Y-86035270D01*
X128408451Y-86035523D01*
X128336879Y-86026972D01*
X128312341Y-86019838D01*
X128285635Y-86005697D01*
X128264155Y-85983043D01*
X128247166Y-85947313D01*
X128233935Y-85893942D01*
X128223729Y-85818369D01*
X128215813Y-85716028D01*
X128209455Y-85582357D01*
X128203920Y-85412793D01*
X128201713Y-85331627D01*
X128197290Y-85188222D01*
X128191999Y-85057999D01*
X128186200Y-84947238D01*
X128180250Y-84862221D01*
X128174507Y-84809229D01*
X128171106Y-84795021D01*
X128163014Y-84788779D01*
X128151812Y-84797404D01*
X128136097Y-84824366D01*
X128114463Y-84873134D01*
X128085505Y-84947178D01*
X128047819Y-85049967D01*
X128000000Y-85184969D01*
X127940643Y-85355654D01*
X127920806Y-85413087D01*
X127855016Y-85599196D01*
X127798872Y-85747434D01*
X127750968Y-85860795D01*
X127709899Y-85942275D01*
X127674259Y-85994869D01*
X127642642Y-86021570D01*
X127633525Y-86025034D01*
X127571111Y-86034394D01*
X127487217Y-86037707D01*
X127396358Y-86035492D01*
X127313051Y-86028264D01*
X127251811Y-86016538D01*
X127237209Y-86010942D01*
X127216190Y-85996498D01*
X127194816Y-85972248D01*
X127171487Y-85934375D01*
X127144604Y-85879061D01*
X127112566Y-85802489D01*
X127073775Y-85700840D01*
X127026629Y-85570297D01*
X126969531Y-85407041D01*
X126902763Y-85212767D01*
X126739952Y-84736517D01*
X126716076Y-85244517D01*
X126706553Y-85439989D01*
X126697895Y-85597555D01*
X126689527Y-85721617D01*
X126680874Y-85816579D01*
X126671360Y-85886842D01*
X126660412Y-85936810D01*
X126647453Y-85970885D01*
X126631908Y-85993469D01*
X126616508Y-86006728D01*
X126568092Y-86024955D01*
X126493791Y-86036027D01*
X126406558Y-86039994D01*
X126319345Y-86036907D01*
X126245106Y-86026820D01*
X126196793Y-86009782D01*
X126190860Y-86005036D01*
X126159590Y-85959014D01*
X126141723Y-85915078D01*
X126138295Y-85881734D01*
X126135296Y-85810928D01*
X126132723Y-85707528D01*
X126130576Y-85576402D01*
X126128854Y-85422419D01*
X126127556Y-85250448D01*
X126126680Y-85065357D01*
X126126225Y-84872014D01*
X126126190Y-84675289D01*
X126126575Y-84480049D01*
X126127377Y-84291164D01*
X126128595Y-84113501D01*
X126130230Y-83951930D01*
X126132278Y-83811319D01*
X126134740Y-83696536D01*
X126137614Y-83612451D01*
X126140898Y-83563931D01*
X126142283Y-83555726D01*
X126161906Y-83514708D01*
X126198247Y-83485543D01*
X126257344Y-83466458D01*
X126345236Y-83455677D01*
X126467960Y-83451427D01*
X126497882Y-83451201D01*
X126632856Y-83453042D01*
X126632856Y-83453042D01*
G37*
X126632856Y-83453042D02*
X126732681Y-83461541D01*
X126804332Y-83479184D01*
X126854788Y-83508454D01*
X126891024Y-83551835D01*
X126915038Y-83599719D01*
X126940722Y-83666183D01*
X126975891Y-83765599D01*
X127018045Y-83890314D01*
X127064688Y-84032679D01*
X127113321Y-84185042D01*
X127161445Y-84339753D01*
X127206564Y-84489159D01*
X127217100Y-84524850D01*
X127257180Y-84656065D01*
X127297962Y-84780268D01*
X127337118Y-84891236D01*
X127372322Y-84982748D01*
X127401248Y-85048583D01*
X127421571Y-85082518D01*
X127426813Y-85085767D01*
X127438382Y-85078212D01*
X127453964Y-85053565D01*
X127474648Y-85008847D01*
X127501527Y-84941080D01*
X127535689Y-84847285D01*
X127578226Y-84724487D01*
X127630227Y-84569706D01*
X127692784Y-84379964D01*
X127753983Y-84192318D01*
X127979000Y-83499953D01*
X128057825Y-83478061D01*
X128123877Y-83466737D01*
X128216764Y-83459661D01*
X128323987Y-83456800D01*
X128433047Y-83458116D01*
X128531443Y-83463574D01*
X128606676Y-83473139D01*
X128632419Y-83479697D01*
X128691654Y-83515547D01*
X128724493Y-83559072D01*
X128730651Y-83594249D01*
X128736313Y-83666655D01*
X128741435Y-83771186D01*
X128745967Y-83902739D01*
X128749863Y-84056213D01*
X128753074Y-84226504D01*
X128755555Y-84408509D01*
X128757257Y-84597127D01*
X128758133Y-84787253D01*
X128758135Y-84973786D01*
X128757216Y-85151622D01*
X128755329Y-85315659D01*
X128752426Y-85460795D01*
X128748460Y-85581926D01*
X128744058Y-85664535D01*
X128734006Y-85792346D01*
X128723602Y-85883748D01*
X128711860Y-85944664D01*
X128697793Y-85981013D01*
X128689474Y-85991930D01*
X128647705Y-86012449D01*
X128577712Y-86027237D01*
X128493345Y-86035270D01*
X128408451Y-86035523D01*
X128336879Y-86026972D01*
X128312341Y-86019838D01*
X128285635Y-86005697D01*
X128264155Y-85983043D01*
X128247166Y-85947313D01*
X128233935Y-85893942D01*
X128223729Y-85818369D01*
X128215813Y-85716028D01*
X128209455Y-85582357D01*
X128203920Y-85412793D01*
X128201713Y-85331627D01*
X128197290Y-85188222D01*
X128191999Y-85057999D01*
X128186200Y-84947238D01*
X128180250Y-84862221D01*
X128174507Y-84809229D01*
X128171106Y-84795021D01*
X128163014Y-84788779D01*
X128151812Y-84797404D01*
X128136097Y-84824366D01*
X128114463Y-84873134D01*
X128085505Y-84947178D01*
X128047819Y-85049967D01*
X128000000Y-85184969D01*
X127940643Y-85355654D01*
X127920806Y-85413087D01*
X127855016Y-85599196D01*
X127798872Y-85747434D01*
X127750968Y-85860795D01*
X127709899Y-85942275D01*
X127674259Y-85994869D01*
X127642642Y-86021570D01*
X127633525Y-86025034D01*
X127571111Y-86034394D01*
X127487217Y-86037707D01*
X127396358Y-86035492D01*
X127313051Y-86028264D01*
X127251811Y-86016538D01*
X127237209Y-86010942D01*
X127216190Y-85996498D01*
X127194816Y-85972248D01*
X127171487Y-85934375D01*
X127144604Y-85879061D01*
X127112566Y-85802489D01*
X127073775Y-85700840D01*
X127026629Y-85570297D01*
X126969531Y-85407041D01*
X126902763Y-85212767D01*
X126739952Y-84736517D01*
X126716076Y-85244517D01*
X126706553Y-85439989D01*
X126697895Y-85597555D01*
X126689527Y-85721617D01*
X126680874Y-85816579D01*
X126671360Y-85886842D01*
X126660412Y-85936810D01*
X126647453Y-85970885D01*
X126631908Y-85993469D01*
X126616508Y-86006728D01*
X126568092Y-86024955D01*
X126493791Y-86036027D01*
X126406558Y-86039994D01*
X126319345Y-86036907D01*
X126245106Y-86026820D01*
X126196793Y-86009782D01*
X126190860Y-86005036D01*
X126159590Y-85959014D01*
X126141723Y-85915078D01*
X126138295Y-85881734D01*
X126135296Y-85810928D01*
X126132723Y-85707528D01*
X126130576Y-85576402D01*
X126128854Y-85422419D01*
X126127556Y-85250448D01*
X126126680Y-85065357D01*
X126126225Y-84872014D01*
X126126190Y-84675289D01*
X126126575Y-84480049D01*
X126127377Y-84291164D01*
X126128595Y-84113501D01*
X126130230Y-83951930D01*
X126132278Y-83811319D01*
X126134740Y-83696536D01*
X126137614Y-83612451D01*
X126140898Y-83563931D01*
X126142283Y-83555726D01*
X126161906Y-83514708D01*
X126198247Y-83485543D01*
X126257344Y-83466458D01*
X126345236Y-83455677D01*
X126467960Y-83451427D01*
X126497882Y-83451201D01*
X126632856Y-83453042D01*
%LPC*%
D13*
G36*
X148139399Y-123636371D02*
G01*
X148134199Y-123601921D01*
X148132499Y-123562301D01*
X148011920Y-123352149D01*
X147848278Y-123179894D01*
X147824168Y-123155774D01*
X147805218Y-123129934D01*
X147782828Y-123109264D01*
X147751818Y-123095484D01*
X147648466Y-123004184D01*
X147522720Y-122924944D01*
X147391806Y-122847434D01*
X147271228Y-122761304D01*
X147241948Y-122769904D01*
X147217828Y-122768204D01*
X147178208Y-122814714D01*
X147126528Y-122840554D01*
X147076578Y-122871564D01*
X147040408Y-122919794D01*
X147052468Y-122928394D01*
X147047268Y-122947344D01*
X147043868Y-122966294D01*
X147059368Y-122974894D01*
X147047308Y-122986954D01*
X147035248Y-122999014D01*
X147040448Y-123016234D01*
X147040448Y-123035184D01*
X147133468Y-123088584D01*
X147240266Y-123140264D01*
X147353954Y-123200554D01*
X147467642Y-123272904D01*
X147583053Y-123364204D01*
X147693296Y-123471003D01*
X147793206Y-123586414D01*
X147872446Y-123701825D01*
X147863846Y-123717325D01*
X147853516Y-123732825D01*
X147731215Y-123732825D01*
X147617527Y-123739725D01*
X147608927Y-123725945D01*
X147598587Y-123713885D01*
X147379823Y-123675985D01*
X147173117Y-123620865D01*
X147228237Y-123601915D01*
X147228237Y-123584685D01*
X147209287Y-123567465D01*
X147255797Y-123526125D01*
X147276467Y-123458945D01*
X147264407Y-123434834D01*
X147276467Y-123412444D01*
X147286807Y-123412444D01*
X147290207Y-123419344D01*
X147293607Y-123426244D01*
X147302207Y-123426244D01*
X147293607Y-123395234D01*
X147283267Y-123365954D01*
X147140296Y-123271214D01*
X147085176Y-123307384D01*
X147016276Y-123345284D01*
X146942206Y-123384904D01*
X146871586Y-123422804D01*
X146818186Y-123457255D01*
X146775126Y-123498595D01*
X146733786Y-123539935D01*
X146683836Y-123574384D01*
X146680436Y-123619175D01*
X146677036Y-123660515D01*
X146756276Y-123760425D01*
X146861351Y-123829325D01*
X146983652Y-123879275D01*
X147118011Y-123917175D01*
X147257537Y-123955075D01*
X147393618Y-123999865D01*
X147443568Y-124001565D01*
X147483188Y-124006765D01*
X147521088Y-124013665D01*
X147562428Y-124018865D01*
X147574488Y-124022265D01*
X147581388Y-124030865D01*
X147643398Y-124036065D01*
X147689908Y-124036065D01*
X147739858Y-124042965D01*
X147788088Y-124048165D01*
X148030967Y-123937922D01*
X148127427Y-123653701D01*
X148130827Y-123643371D01*
X148139427Y-123636471D01*
X148139399Y-123636371D01*
X148139399Y-123636371D01*
G37*
G36*
X146604264Y-123904743D02*
G01*
X146180693Y-123295105D01*
X146209973Y-123374345D01*
X146058389Y-123334725D01*
X145908527Y-123272715D01*
X145953317Y-123171085D01*
X146029107Y-123117685D01*
X146029113Y-123117685D01*
X146079063Y-123177975D01*
X146134183Y-123233095D01*
X146180693Y-123295105D01*
X146604264Y-123904743D01*
X146619764Y-123892683D01*
X146635264Y-123863403D01*
X146616314Y-123863403D01*
X146623214Y-123794503D01*
X146607714Y-123732493D01*
X146593934Y-123673923D01*
X146599134Y-123613633D01*
X146587074Y-123610233D01*
X146580174Y-123586113D01*
X146578474Y-123555103D01*
X146580174Y-123527543D01*
X146545724Y-123417299D01*
X146521604Y-123305334D01*
X146499214Y-123196813D01*
X146464764Y-123096903D01*
X146414814Y-123103803D01*
X146378644Y-123126193D01*
X146283904Y-123026283D01*
X146201224Y-122912595D01*
X146104764Y-122812685D01*
X145972127Y-122761005D01*
X145879107Y-122824735D01*
X145794697Y-122907415D01*
X145768857Y-122926365D01*
X145741297Y-122943595D01*
X145741297Y-122969435D01*
X145701677Y-123022835D01*
X145672397Y-123086565D01*
X145646557Y-123153745D01*
X145618997Y-123217475D01*
X145622397Y-123236425D01*
X145618997Y-123251925D01*
X145613797Y-123269145D01*
X145612097Y-123291535D01*
X145672387Y-123439674D01*
X145799856Y-123530975D01*
X145958330Y-123591265D01*
X146111637Y-123644665D01*
X146104737Y-123651565D01*
X146099537Y-123661895D01*
X146020297Y-123711845D01*
X145966897Y-123744575D01*
X145911777Y-123765245D01*
X145827367Y-123785915D01*
X145744687Y-123806585D01*
X145689567Y-123818645D01*
X145637887Y-123825545D01*
X145563817Y-123834145D01*
X145532807Y-123878935D01*
X145515577Y-123930615D01*
X145513877Y-123980565D01*
X145527657Y-124016735D01*
X145519057Y-124023635D01*
X145501837Y-124023635D01*
X145522507Y-124044305D01*
X145539737Y-124068425D01*
X145560407Y-124090815D01*
X145587967Y-124102875D01*
X145746442Y-124104575D01*
X145992766Y-124025335D01*
X146113344Y-123975385D01*
X146194304Y-123932325D01*
X146258034Y-123885815D01*
X146325214Y-123825525D01*
X146332114Y-123832425D01*
X146337314Y-123839325D01*
X146364874Y-123951289D01*
X146416554Y-124039140D01*
X146454454Y-124044340D01*
X146476844Y-124063290D01*
X146502684Y-124061590D01*
X146518184Y-124052990D01*
X146533684Y-124042650D01*
X146561244Y-124039250D01*
X146571584Y-124009970D01*
X146599144Y-123996190D01*
X146595744Y-123970350D01*
X146600944Y-123949679D01*
X146607844Y-123929010D01*
X146604444Y-123904890D01*
X146604264Y-123904743D01*
X146604264Y-123904743D01*
G37*
G36*
X144550986Y-123083087D02*
G01*
X144550986Y-123102037D01*
X144552686Y-123112367D01*
X144552686Y-123124427D01*
X144549286Y-123141657D01*
X144633696Y-123222617D01*
X144735326Y-123253627D01*
X144849014Y-123272577D01*
X144962702Y-123317367D01*
X145004042Y-123317367D01*
X145055722Y-123322567D01*
X145081562Y-123338067D01*
X145112572Y-123346667D01*
X145107372Y-123379398D01*
X145102172Y-123405237D01*
X144969535Y-123403537D01*
X144824841Y-123394937D01*
X144826541Y-123406997D01*
X144828241Y-123415597D01*
X144804121Y-123437987D01*
X144780001Y-123462108D01*
X144755881Y-123482778D01*
X144724871Y-123487978D01*
X144716271Y-123518988D01*
X144719671Y-123551718D01*
X144774791Y-123591338D01*
X144833361Y-123625788D01*
X144897091Y-123651628D01*
X144971161Y-123658528D01*
X144984941Y-123658528D01*
X144995281Y-123653328D01*
X145034901Y-123658528D01*
X145072801Y-123663728D01*
X145119311Y-123656828D01*
X145165821Y-123649928D01*
X145215771Y-123727438D01*
X145255391Y-123815288D01*
X145158931Y-123822188D01*
X145084861Y-123816988D01*
X145014241Y-123808388D01*
X144922941Y-123804988D01*
X144841981Y-123780868D01*
X144754131Y-123760198D01*
X144730011Y-123779148D01*
X144711061Y-123803268D01*
X144690391Y-123822218D01*
X144664551Y-123829118D01*
X144655951Y-123846348D01*
X144650751Y-123863568D01*
X144645551Y-123879068D01*
X144630051Y-123882468D01*
X144690341Y-123970318D01*
X144766131Y-124015108D01*
X144862591Y-124039218D01*
X144978002Y-124059888D01*
X145003842Y-124058188D01*
X145027962Y-124054788D01*
X145122702Y-124070288D01*
X145234668Y-124075488D01*
X145343188Y-124059988D01*
X145427588Y-124015198D01*
X145446538Y-123987638D01*
X145468928Y-123961798D01*
X145475828Y-123911848D01*
X145486158Y-123855008D01*
X145494758Y-123794718D01*
X145491358Y-123741318D01*
X145470688Y-123694808D01*
X145458628Y-123650018D01*
X145448288Y-123641418D01*
X145434508Y-123634518D01*
X145412118Y-123575948D01*
X145387998Y-123522548D01*
X145362158Y-123470868D01*
X145336318Y-123410577D01*
X145372488Y-123362347D01*
X145387988Y-123308947D01*
X145396588Y-123253827D01*
X145408648Y-123195257D01*
X145367308Y-123153917D01*
X145312188Y-123126357D01*
X145248448Y-123109127D01*
X145176098Y-123093627D01*
X145053797Y-123059177D01*
X144946999Y-123040227D01*
X144836756Y-123024727D01*
X144707565Y-123004057D01*
X144678285Y-123019557D01*
X144662785Y-123010957D01*
X144654185Y-123000627D01*
X144611125Y-123050577D01*
X144550835Y-123083307D01*
X144550986Y-123083087D01*
X144550986Y-123083087D01*
G37*
G36*
X144041112Y-123601575D02*
G01*
X144061782Y-123627415D01*
X144079012Y-123656695D01*
X144097962Y-123692865D01*
X144123802Y-123723875D01*
X144141032Y-123765215D01*
X144168592Y-123797945D01*
X144249552Y-123947807D01*
X144259892Y-123978817D01*
X144275392Y-124006377D01*
X144282292Y-124018437D01*
X144287492Y-124027037D01*
X144290892Y-124044267D01*
X144309842Y-124068387D01*
X144328792Y-124087337D01*
X144340852Y-124101117D01*
X144366692Y-124111447D01*
X144519998Y-123977089D01*
X144518298Y-123959859D01*
X144513098Y-123942639D01*
X144506198Y-123921969D01*
X144490698Y-123873739D01*
X144461418Y-123830679D01*
X144445918Y-123792779D01*
X144404578Y-123711819D01*
X144366678Y-123646359D01*
X144344288Y-123608459D01*
X144385628Y-123558509D01*
X144425248Y-123475829D01*
X144449368Y-123405208D01*
X144454568Y-123367308D01*
X144461468Y-123334578D01*
X144470068Y-123296678D01*
X144473468Y-123257058D01*
X144483798Y-123232938D01*
X144480398Y-123215708D01*
X144478698Y-123184698D01*
X144487298Y-123143358D01*
X144495898Y-123105458D01*
X144497598Y-123064118D01*
X144487258Y-123026218D01*
X144454528Y-122993488D01*
X144425248Y-122991788D01*
X144395968Y-123009018D01*
X144366688Y-123024518D01*
X144330518Y-123041748D01*
X144294348Y-123064138D01*
X144282288Y-123088258D01*
X144259898Y-123107208D01*
X144259898Y-123126158D01*
X144258198Y-123145108D01*
X144251298Y-123172668D01*
X144244398Y-123193339D01*
X144239198Y-123239848D01*
X144228868Y-123279468D01*
X144218538Y-123319088D01*
X144216838Y-123363878D01*
X144199608Y-123351818D01*
X144192708Y-123346618D01*
X144185808Y-123341418D01*
X144084178Y-123203614D01*
X144087578Y-123186384D01*
X144051408Y-123151934D01*
X144025568Y-123126094D01*
X144003178Y-123100254D01*
X143984228Y-123086474D01*
X143827476Y-122979676D01*
X143803356Y-122976276D01*
X143796456Y-122998666D01*
X143768896Y-123033116D01*
X143722386Y-123062396D01*
X143706886Y-123072736D01*
X143698286Y-123098576D01*
X143699986Y-123114076D01*
X143693086Y-123131306D01*
X143727536Y-123191596D01*
X143765436Y-123226046D01*
X143794716Y-123251886D01*
X143813666Y-123279446D01*
X143825726Y-123293226D01*
X143872236Y-123348346D01*
X143877436Y-123369016D01*
X143898106Y-123369016D01*
X143906706Y-123375916D01*
X143923936Y-123405196D01*
X143941156Y-123427586D01*
X143949756Y-123436187D01*
X143954956Y-123449967D01*
X143960156Y-123463747D01*
X143987716Y-123498197D01*
X143999776Y-123522317D01*
X144013556Y-123549877D01*
X144032506Y-123575717D01*
X144041112Y-123601575D01*
X144041112Y-123601575D01*
G37*
G36*
X143532960Y-123739379D02*
G01*
X143555350Y-123758329D01*
X143569130Y-123787609D01*
X143581190Y-123816889D01*
X143598420Y-123828949D01*
X143608750Y-123853069D01*
X143622530Y-123875459D01*
X143632860Y-123899579D01*
X143629460Y-123928859D01*
X143646680Y-123958139D01*
X143655280Y-123994309D01*
X143669060Y-124023589D01*
X143706960Y-124033929D01*
X143708660Y-124042529D01*
X143703460Y-124054589D01*
X143732740Y-124056289D01*
X143755130Y-124064889D01*
X143810250Y-124028719D01*
X143848150Y-123971879D01*
X143877430Y-123906419D01*
X143901550Y-123849579D01*
X143899850Y-123813409D01*
X143911910Y-123782399D01*
X143890570Y-123737239D01*
X143868740Y-123691319D01*
X143846430Y-123644649D01*
X143823630Y-123597229D01*
X143800350Y-123549049D01*
X143776580Y-123500119D01*
X143752330Y-123450429D01*
X143727590Y-123399988D01*
X143702770Y-123349248D01*
X143678280Y-123298678D01*
X143654110Y-123248268D01*
X143630260Y-123198018D01*
X143606740Y-123147928D01*
X143583540Y-123097998D01*
X143560660Y-123048228D01*
X143538110Y-122998628D01*
X143460600Y-123034798D01*
X143389980Y-123079588D01*
X143334860Y-123139878D01*
X143305580Y-123213948D01*
X143314180Y-123222548D01*
X143321080Y-123224248D01*
X143314180Y-123236308D01*
X143314180Y-123243208D01*
X143314180Y-123253548D01*
X143308980Y-123269048D01*
X143319310Y-123270748D01*
X143329650Y-123270748D01*
X143326250Y-123301758D01*
X143333150Y-123324148D01*
X143341750Y-123344818D01*
X143340050Y-123372378D01*
X143348650Y-123375778D01*
X143352050Y-123380979D01*
X143357250Y-123386178D01*
X143364150Y-123386178D01*
X143360750Y-123461969D01*
X143364150Y-123539479D01*
X143362450Y-123620439D01*
X143350390Y-123706569D01*
X143252210Y-123613549D01*
X143191920Y-123486080D01*
X143155750Y-123334495D01*
X143129910Y-123169130D01*
X143105790Y-123131230D01*
X143090290Y-123084720D01*
X143076510Y-123034770D01*
X143059280Y-122988260D01*
X143016220Y-123005490D01*
X142981770Y-123033050D01*
X142949040Y-123060610D01*
X142905980Y-123076110D01*
X142868080Y-123132950D01*
X142845690Y-123191520D01*
X142859470Y-123222530D01*
X142868070Y-123256980D01*
X142881850Y-123289710D01*
X142905970Y-123313830D01*
X142919750Y-123396510D01*
X142935250Y-123468861D01*
X142947310Y-123544651D01*
X142950710Y-123629051D01*
X142979990Y-123713451D01*
X143004110Y-123794411D01*
X143047170Y-123847811D01*
X143079900Y-123909821D01*
X143088500Y-123913221D01*
X143100560Y-123908021D01*
X143100560Y-123918361D01*
X143105760Y-123925261D01*
X143109160Y-123932161D01*
X143105760Y-123945941D01*
X143148820Y-123975221D01*
X143190160Y-124009671D01*
X143241840Y-124030341D01*
X143319350Y-124018281D01*
X143445096Y-123899425D01*
X143532946Y-123739228D01*
X143532960Y-123739379D01*
X143532960Y-123739379D01*
G37*
G36*
X141979222Y-123908189D02*
G01*
X142477038Y-123610188D01*
X142384018Y-123603288D01*
X142289278Y-123587788D01*
X142315118Y-123480990D01*
X142344398Y-123369023D01*
X142354728Y-123386253D01*
X142421908Y-123467214D01*
X142475308Y-123551624D01*
X142495978Y-123582634D01*
X142514928Y-123613644D01*
X142495978Y-123611944D01*
X142477028Y-123610244D01*
X142477038Y-123610188D01*
X141979222Y-123908189D01*
X142010232Y-123968479D01*
X142056742Y-124021879D01*
X142115312Y-124059779D01*
X142184212Y-124077009D01*
X142215222Y-124064949D01*
X142230722Y-124054619D01*
X142241062Y-124049419D01*
X142247962Y-124044219D01*
X142268632Y-124035619D01*
X142261732Y-124013229D01*
X142263432Y-123992559D01*
X142284102Y-123970169D01*
X142294442Y-123959829D01*
X142303042Y-123949498D01*
X142332322Y-123916769D01*
X142285812Y-123904709D01*
X142228962Y-123873699D01*
X142216902Y-123809959D01*
X142275472Y-123808259D01*
X142321982Y-123820319D01*
X142385712Y-123835819D01*
X142454612Y-123841019D01*
X142480452Y-123841019D01*
X142506292Y-123837619D01*
X142523512Y-123834219D01*
X142530412Y-123813549D01*
X142537312Y-123806649D01*
X142556262Y-123784259D01*
X142559662Y-123746359D01*
X142569992Y-123715349D01*
X142585492Y-123758409D01*
X142592392Y-123775639D01*
X142609622Y-123779039D01*
X142614822Y-123787639D01*
X142616522Y-123796239D01*
X142625122Y-123825519D01*
X142632022Y-123832419D01*
X142638922Y-123837619D01*
X142647522Y-123868629D01*
X142657862Y-123897909D01*
X142673362Y-123942699D01*
X142676762Y-123984039D01*
X142683662Y-124002989D01*
X142702612Y-124020219D01*
X142723282Y-124030549D01*
X142733622Y-124037449D01*
X142742222Y-124040849D01*
X142747422Y-124059799D01*
X142768092Y-124063199D01*
X142795652Y-124068399D01*
X142812882Y-124070099D01*
X142830112Y-124068399D01*
X142859392Y-124044279D01*
X142883512Y-124025329D01*
X142900732Y-123994319D01*
X142904132Y-123975369D01*
X142907532Y-123958139D01*
X142912732Y-123947809D01*
X142935122Y-123927139D01*
X142916172Y-123911639D01*
X142914472Y-123882359D01*
X142842122Y-123713550D01*
X142761162Y-123548185D01*
X142735322Y-123493065D01*
X142707762Y-123437944D01*
X142709462Y-123425884D01*
X142706062Y-123410384D01*
X142675052Y-123358704D01*
X142650932Y-123310474D01*
X142623372Y-123253634D01*
X142585472Y-123196794D01*
X142557912Y-123184735D01*
X142545852Y-123181334D01*
X142530352Y-123177934D01*
X142504512Y-123181334D01*
X142420112Y-123119324D01*
X142346042Y-123021134D01*
X142328812Y-122997024D01*
X142306422Y-123010804D01*
X142282302Y-123021134D01*
X142249572Y-123029734D01*
X142191002Y-123045234D01*
X142146212Y-123071074D01*
X142134152Y-123112414D01*
X142128952Y-123139974D01*
X142120352Y-123198544D01*
X142113452Y-123264004D01*
X142099672Y-123322574D01*
X142087612Y-123379414D01*
X142070392Y-123460375D01*
X142048002Y-123532725D01*
X142030772Y-123534425D01*
X142013552Y-123529225D01*
X141991162Y-123525825D01*
X141972212Y-123524125D01*
X141965312Y-123541355D01*
X141948082Y-123558585D01*
X141915352Y-123568925D01*
X141896402Y-123584425D01*
X141882622Y-123594765D01*
X141856782Y-123605095D01*
X141870562Y-123630935D01*
X141920512Y-123691225D01*
X141991132Y-123737735D01*
X141989432Y-123758405D01*
X141984232Y-123777355D01*
X141975632Y-123837645D01*
X141975632Y-123901375D01*
X141979222Y-123908189D01*
X141979222Y-123908189D01*
G37*
G36*
X140642524Y-123742824D02*
G01*
X140751045Y-123858235D01*
X140899184Y-123925415D01*
X141069716Y-123971925D01*
X141240249Y-124025325D01*
X141283309Y-124027025D01*
X141317759Y-124032225D01*
X141348769Y-124037425D01*
X141383219Y-124040825D01*
X141391819Y-124044225D01*
X141397019Y-124051125D01*
X141450419Y-124056325D01*
X141488319Y-124056325D01*
X141531379Y-124061525D01*
X141569279Y-124066725D01*
X141772540Y-123975425D01*
X141853500Y-123737713D01*
X141856900Y-123727383D01*
X141863800Y-123722183D01*
X141860400Y-123692903D01*
X141858700Y-123661893D01*
X141757070Y-123486193D01*
X141620989Y-123341498D01*
X141600319Y-123320828D01*
X141584819Y-123300158D01*
X141565869Y-123282928D01*
X141540029Y-123270868D01*
X141453899Y-123195078D01*
X141348824Y-123129618D01*
X141240304Y-123065888D01*
X141140394Y-122993538D01*
X141112834Y-122998738D01*
X141093884Y-122998738D01*
X141061154Y-123034908D01*
X141018094Y-123057298D01*
X140976754Y-123083138D01*
X140947474Y-123124478D01*
X140957814Y-123133078D01*
X140952614Y-123148578D01*
X140950914Y-123164078D01*
X140962974Y-123170978D01*
X140952644Y-123181318D01*
X140942304Y-123189918D01*
X140947504Y-123203698D01*
X140947504Y-123220928D01*
X141025024Y-123263988D01*
X141112874Y-123308778D01*
X141207614Y-123358728D01*
X141302354Y-123419018D01*
X141397094Y-123496539D01*
X141490114Y-123584389D01*
X141574524Y-123680849D01*
X141641704Y-123777309D01*
X141634804Y-123791089D01*
X141626204Y-123803149D01*
X141524574Y-123803149D01*
X141428114Y-123808349D01*
X141421214Y-123798009D01*
X141412614Y-123787669D01*
X141230024Y-123756659D01*
X141057769Y-123710149D01*
X141083609Y-123701549D01*
X141104279Y-123692949D01*
X141104279Y-123679169D01*
X141087049Y-123665389D01*
X141126669Y-123630939D01*
X141143899Y-123575819D01*
X141133569Y-123555149D01*
X141143899Y-123536199D01*
X141152499Y-123536199D01*
X141155899Y-123541399D01*
X141157599Y-123548299D01*
X141166199Y-123546599D01*
X141159299Y-123520759D01*
X141148959Y-123496649D01*
X141030104Y-123417408D01*
X140983594Y-123448419D01*
X140926754Y-123481149D01*
X140864744Y-123513879D01*
X140804454Y-123544889D01*
X140761394Y-123572449D01*
X140725224Y-123608619D01*
X140690774Y-123643069D01*
X140647714Y-123672349D01*
X140646014Y-123708519D01*
X140642614Y-123742969D01*
X140642524Y-123742824D01*
X140642524Y-123742824D01*
G37*
G36*
X139714223Y-123896496D02*
G01*
X140208439Y-123591681D01*
X140115419Y-123584781D01*
X140020679Y-123569280D01*
X140046519Y-123462483D01*
X140075799Y-123350516D01*
X140086139Y-123367746D01*
X140153319Y-123448707D01*
X140206719Y-123533117D01*
X140227389Y-123564127D01*
X140246339Y-123595137D01*
X140227389Y-123593437D01*
X140208439Y-123591737D01*
X140208439Y-123591681D01*
X139714223Y-123896496D01*
X139745233Y-123956786D01*
X139791743Y-124010186D01*
X139850313Y-124048086D01*
X139919213Y-124065316D01*
X139950223Y-124053256D01*
X139965723Y-124042926D01*
X139976063Y-124037726D01*
X139982963Y-124032526D01*
X140003633Y-124023926D01*
X139996733Y-124001536D01*
X139998433Y-123980866D01*
X140019103Y-123958476D01*
X140029443Y-123948135D01*
X140038043Y-123937806D01*
X140067323Y-123905076D01*
X140020813Y-123893016D01*
X139963963Y-123862006D01*
X139951903Y-123798266D01*
X140010473Y-123796566D01*
X140056983Y-123808626D01*
X140120713Y-123824126D01*
X140189613Y-123829326D01*
X140215453Y-123829326D01*
X140241293Y-123825926D01*
X140258513Y-123822526D01*
X140265413Y-123801856D01*
X140272313Y-123794956D01*
X140291263Y-123772566D01*
X140294663Y-123734666D01*
X140304993Y-123703655D01*
X140320493Y-123746716D01*
X140327393Y-123763946D01*
X140344623Y-123767346D01*
X140349823Y-123775946D01*
X140351523Y-123784546D01*
X140360123Y-123813826D01*
X140367023Y-123820726D01*
X140373923Y-123825926D01*
X140382523Y-123856936D01*
X140392863Y-123886216D01*
X140408363Y-123931006D01*
X140411763Y-123972346D01*
X140418663Y-123991296D01*
X140437613Y-124008526D01*
X140458283Y-124018856D01*
X140468623Y-124025756D01*
X140477223Y-124029156D01*
X140482423Y-124048106D01*
X140503093Y-124051506D01*
X140530653Y-124056706D01*
X140547883Y-124058406D01*
X140565113Y-124056706D01*
X140594393Y-124032586D01*
X140618513Y-124013636D01*
X140635733Y-123982626D01*
X140639133Y-123963675D01*
X140642533Y-123946446D01*
X140647733Y-123936116D01*
X140670123Y-123915446D01*
X140651173Y-123899946D01*
X140649473Y-123870666D01*
X140577123Y-123701857D01*
X140496163Y-123536492D01*
X140470323Y-123481372D01*
X140442763Y-123426251D01*
X140444463Y-123414191D01*
X140441063Y-123398691D01*
X140410053Y-123347011D01*
X140385933Y-123298781D01*
X140358373Y-123241941D01*
X140320473Y-123185102D01*
X140292913Y-123173041D01*
X140280853Y-123169641D01*
X140265353Y-123166241D01*
X140239513Y-123169641D01*
X140155113Y-123107631D01*
X140081043Y-123009441D01*
X140063813Y-122985331D01*
X140041423Y-122999111D01*
X140017303Y-123009441D01*
X139984573Y-123018041D01*
X139926003Y-123033541D01*
X139881213Y-123059381D01*
X139869153Y-123100721D01*
X139863953Y-123128281D01*
X139855353Y-123186851D01*
X139848453Y-123252311D01*
X139834673Y-123310881D01*
X139822613Y-123367721D01*
X139805383Y-123448682D01*
X139782993Y-123521032D01*
X139765763Y-123522732D01*
X139748543Y-123517532D01*
X139726153Y-123514132D01*
X139707203Y-123512432D01*
X139700303Y-123529662D01*
X139683073Y-123546892D01*
X139650343Y-123557232D01*
X139631393Y-123572732D01*
X139617613Y-123583072D01*
X139591773Y-123593402D01*
X139605553Y-123619242D01*
X139655503Y-123679532D01*
X139726123Y-123726042D01*
X139724423Y-123746712D01*
X139719223Y-123765662D01*
X139710623Y-123825952D01*
X139710623Y-123889682D01*
X139714223Y-123896496D01*
X139714223Y-123896496D01*
G37*
D12*
G36*
X149486695Y-82472001D02*
G01*
X149617544Y-82530621D01*
X149732153Y-82624035D01*
X149816629Y-82736766D01*
X149847187Y-82794715D01*
X149864839Y-82849135D01*
X149872932Y-82915466D01*
X149874817Y-83005083D01*
X149870184Y-83119148D01*
X149855120Y-83202929D01*
X149836044Y-83252356D01*
X149797272Y-83330296D01*
X150585697Y-84467038D01*
X150721401Y-84663077D01*
X150849717Y-84849186D01*
X150968638Y-85022404D01*
X151076155Y-85179773D01*
X151170262Y-85318331D01*
X151248949Y-85435119D01*
X151310209Y-85527175D01*
X151352034Y-85591541D01*
X151372417Y-85625255D01*
X151374122Y-85629402D01*
X151362805Y-85650995D01*
X151330109Y-85705022D01*
X151277914Y-85788551D01*
X151208102Y-85898646D01*
X151122555Y-86032373D01*
X151023153Y-86186797D01*
X150911777Y-86358984D01*
X150790310Y-86546000D01*
X150660632Y-86744909D01*
X150577364Y-86872259D01*
X150443219Y-87077403D01*
X150315782Y-87272685D01*
X150196974Y-87455139D01*
X150088715Y-87621796D01*
X149992923Y-87769692D01*
X149911518Y-87895858D01*
X149846419Y-87997330D01*
X149799547Y-88071140D01*
X149772820Y-88114321D01*
X149767239Y-88124330D01*
X149766081Y-88135529D01*
X149775564Y-88144052D01*
X149800552Y-88150258D01*
X149845906Y-88154508D01*
X149916491Y-88157160D01*
X150017170Y-88158576D01*
X150152806Y-88159114D01*
X150238147Y-88159167D01*
X150722422Y-88159167D01*
X151318940Y-87201375D01*
X151433181Y-87018070D01*
X151541300Y-86844832D01*
X151641116Y-86685138D01*
X151730448Y-86542465D01*
X151807116Y-86420292D01*
X151868938Y-86322095D01*
X151913733Y-86251352D01*
X151939322Y-86211541D01*
X151943952Y-86204697D01*
X151952320Y-86198208D01*
X151964173Y-86200511D01*
X151981495Y-86214426D01*
X152006269Y-86242774D01*
X152040479Y-86288376D01*
X152086107Y-86354053D01*
X152145137Y-86442626D01*
X152219553Y-86556915D01*
X152311337Y-86699742D01*
X152422474Y-86873928D01*
X152498311Y-86993155D01*
X153024174Y-87820500D01*
X153142829Y-87820965D01*
X153290199Y-87841307D01*
X153422211Y-87897901D01*
X153533643Y-87985894D01*
X153619277Y-88100436D01*
X153673895Y-88236678D01*
X153689839Y-88329330D01*
X153683996Y-88477368D01*
X153642201Y-88611925D01*
X153569786Y-88728888D01*
X153472083Y-88824141D01*
X153354423Y-88893572D01*
X153222139Y-88933066D01*
X153080562Y-88938509D01*
X152940263Y-88907672D01*
X152829796Y-88849687D01*
X152727335Y-88762012D01*
X152645899Y-88656992D01*
X152616670Y-88600765D01*
X152582529Y-88477370D01*
X152578513Y-88393065D01*
X152891067Y-88393065D01*
X152897350Y-88455959D01*
X152922106Y-88506487D01*
X152965676Y-88555509D01*
X153013292Y-88599487D01*
X153052825Y-88619873D01*
X153103226Y-88623272D01*
X153149627Y-88619612D01*
X153225189Y-88606977D01*
X153277700Y-88581233D01*
X153318434Y-88542552D01*
X153366084Y-88460616D01*
X153379730Y-88367916D01*
X153358790Y-88277697D01*
X153332013Y-88233539D01*
X153272916Y-88179308D01*
X153199933Y-88140633D01*
X153128698Y-88124515D01*
X153095888Y-88127814D01*
X152994873Y-88170387D01*
X152929492Y-88233986D01*
X152896570Y-88322720D01*
X152891067Y-88393065D01*
X152578513Y-88393065D01*
X152576076Y-88341937D01*
X152596871Y-88210930D01*
X152629391Y-88126803D01*
X152673844Y-88041522D01*
X152332664Y-87504363D01*
X152246542Y-87369619D01*
X152167213Y-87247120D01*
X152097613Y-87141272D01*
X152040675Y-87056478D01*
X151999335Y-86997144D01*
X151976529Y-86967675D01*
X151973429Y-86965226D01*
X151958855Y-86982214D01*
X151924356Y-87031619D01*
X151872259Y-87109847D01*
X151804890Y-87213302D01*
X151724577Y-87338390D01*
X151633646Y-87481515D01*
X151534425Y-87639082D01*
X151454091Y-87767583D01*
X150952808Y-88571917D01*
X150036310Y-88563585D01*
X149841173Y-88561533D01*
X149657426Y-88559067D01*
X149489766Y-88556291D01*
X149342887Y-88553304D01*
X149221487Y-88550209D01*
X149130261Y-88547108D01*
X149073906Y-88544103D01*
X149058929Y-88542418D01*
X148998045Y-88529583D01*
X149939139Y-87091088D01*
X150084712Y-86868364D01*
X150223398Y-86655764D01*
X150353472Y-86455960D01*
X150473205Y-86271623D01*
X150580873Y-86105425D01*
X150674749Y-85960037D01*
X150753105Y-85838129D01*
X150814216Y-85742374D01*
X150856355Y-85675442D01*
X150877796Y-85640004D01*
X150880233Y-85635012D01*
X150868499Y-85614892D01*
X150834707Y-85563120D01*
X150780968Y-85482796D01*
X150709395Y-85377022D01*
X150622100Y-85248900D01*
X150521197Y-85101531D01*
X150408797Y-84938017D01*
X150287014Y-84761459D01*
X150171219Y-84594093D01*
X149462204Y-83570755D01*
X149327706Y-83569980D01*
X149197031Y-83558526D01*
X149088509Y-83521869D01*
X148986572Y-83454025D01*
X148954871Y-83426625D01*
X148854936Y-83312352D01*
X148793354Y-83182691D01*
X148769128Y-83057170D01*
X148770637Y-83016931D01*
X149080517Y-83016931D01*
X149096428Y-83104160D01*
X149141822Y-83180683D01*
X149212259Y-83234259D01*
X149287135Y-83263193D01*
X149352376Y-83264708D01*
X149426670Y-83240804D01*
X149506013Y-83186818D01*
X149553593Y-83105765D01*
X149567900Y-83010538D01*
X149552075Y-82911213D01*
X149502924Y-82836629D01*
X149440666Y-82793296D01*
X149342967Y-82763926D01*
X149245780Y-82776855D01*
X149210159Y-82792335D01*
X149137334Y-82850886D01*
X149094136Y-82929129D01*
X149080517Y-83016931D01*
X148770637Y-83016931D01*
X148774883Y-82903771D01*
X148819490Y-82764641D01*
X148900679Y-82644005D01*
X149016177Y-82546088D01*
X149056905Y-82521923D01*
X149200358Y-82465950D01*
X149345627Y-82449877D01*
X149486695Y-82472001D01*
X149486695Y-82472001D01*
G37*
X149486695Y-82472001D02*
X149617544Y-82530621D01*
X149732153Y-82624035D01*
X149816629Y-82736766D01*
X149847187Y-82794715D01*
X149864839Y-82849135D01*
X149872932Y-82915466D01*
X149874817Y-83005083D01*
X149870184Y-83119148D01*
X149855120Y-83202929D01*
X149836044Y-83252356D01*
X149797272Y-83330296D01*
X150585697Y-84467038D01*
X150721401Y-84663077D01*
X150849717Y-84849186D01*
X150968638Y-85022404D01*
X151076155Y-85179773D01*
X151170262Y-85318331D01*
X151248949Y-85435119D01*
X151310209Y-85527175D01*
X151352034Y-85591541D01*
X151372417Y-85625255D01*
X151374122Y-85629402D01*
X151362805Y-85650995D01*
X151330109Y-85705022D01*
X151277914Y-85788551D01*
X151208102Y-85898646D01*
X151122555Y-86032373D01*
X151023153Y-86186797D01*
X150911777Y-86358984D01*
X150790310Y-86546000D01*
X150660632Y-86744909D01*
X150577364Y-86872259D01*
X150443219Y-87077403D01*
X150315782Y-87272685D01*
X150196974Y-87455139D01*
X150088715Y-87621796D01*
X149992923Y-87769692D01*
X149911518Y-87895858D01*
X149846419Y-87997330D01*
X149799547Y-88071140D01*
X149772820Y-88114321D01*
X149767239Y-88124330D01*
X149766081Y-88135529D01*
X149775564Y-88144052D01*
X149800552Y-88150258D01*
X149845906Y-88154508D01*
X149916491Y-88157160D01*
X150017170Y-88158576D01*
X150152806Y-88159114D01*
X150238147Y-88159167D01*
X150722422Y-88159167D01*
X151318940Y-87201375D01*
X151433181Y-87018070D01*
X151541300Y-86844832D01*
X151641116Y-86685138D01*
X151730448Y-86542465D01*
X151807116Y-86420292D01*
X151868938Y-86322095D01*
X151913733Y-86251352D01*
X151939322Y-86211541D01*
X151943952Y-86204697D01*
X151952320Y-86198208D01*
X151964173Y-86200511D01*
X151981495Y-86214426D01*
X152006269Y-86242774D01*
X152040479Y-86288376D01*
X152086107Y-86354053D01*
X152145137Y-86442626D01*
X152219553Y-86556915D01*
X152311337Y-86699742D01*
X152422474Y-86873928D01*
X152498311Y-86993155D01*
X153024174Y-87820500D01*
X153142829Y-87820965D01*
X153290199Y-87841307D01*
X153422211Y-87897901D01*
X153533643Y-87985894D01*
X153619277Y-88100436D01*
X153673895Y-88236678D01*
X153689839Y-88329330D01*
X153683996Y-88477368D01*
X153642201Y-88611925D01*
X153569786Y-88728888D01*
X153472083Y-88824141D01*
X153354423Y-88893572D01*
X153222139Y-88933066D01*
X153080562Y-88938509D01*
X152940263Y-88907672D01*
X152829796Y-88849687D01*
X152727335Y-88762012D01*
X152645899Y-88656992D01*
X152616670Y-88600765D01*
X152582529Y-88477370D01*
X152578513Y-88393065D01*
X152891067Y-88393065D01*
X152897350Y-88455959D01*
X152922106Y-88506487D01*
X152965676Y-88555509D01*
X153013292Y-88599487D01*
X153052825Y-88619873D01*
X153103226Y-88623272D01*
X153149627Y-88619612D01*
X153225189Y-88606977D01*
X153277700Y-88581233D01*
X153318434Y-88542552D01*
X153366084Y-88460616D01*
X153379730Y-88367916D01*
X153358790Y-88277697D01*
X153332013Y-88233539D01*
X153272916Y-88179308D01*
X153199933Y-88140633D01*
X153128698Y-88124515D01*
X153095888Y-88127814D01*
X152994873Y-88170387D01*
X152929492Y-88233986D01*
X152896570Y-88322720D01*
X152891067Y-88393065D01*
X152578513Y-88393065D01*
X152576076Y-88341937D01*
X152596871Y-88210930D01*
X152629391Y-88126803D01*
X152673844Y-88041522D01*
X152332664Y-87504363D01*
X152246542Y-87369619D01*
X152167213Y-87247120D01*
X152097613Y-87141272D01*
X152040675Y-87056478D01*
X151999335Y-86997144D01*
X151976529Y-86967675D01*
X151973429Y-86965226D01*
X151958855Y-86982214D01*
X151924356Y-87031619D01*
X151872259Y-87109847D01*
X151804890Y-87213302D01*
X151724577Y-87338390D01*
X151633646Y-87481515D01*
X151534425Y-87639082D01*
X151454091Y-87767583D01*
X150952808Y-88571917D01*
X150036310Y-88563585D01*
X149841173Y-88561533D01*
X149657426Y-88559067D01*
X149489766Y-88556291D01*
X149342887Y-88553304D01*
X149221487Y-88550209D01*
X149130261Y-88547108D01*
X149073906Y-88544103D01*
X149058929Y-88542418D01*
X148998045Y-88529583D01*
X149939139Y-87091088D01*
X150084712Y-86868364D01*
X150223398Y-86655764D01*
X150353472Y-86455960D01*
X150473205Y-86271623D01*
X150580873Y-86105425D01*
X150674749Y-85960037D01*
X150753105Y-85838129D01*
X150814216Y-85742374D01*
X150856355Y-85675442D01*
X150877796Y-85640004D01*
X150880233Y-85635012D01*
X150868499Y-85614892D01*
X150834707Y-85563120D01*
X150780968Y-85482796D01*
X150709395Y-85377022D01*
X150622100Y-85248900D01*
X150521197Y-85101531D01*
X150408797Y-84938017D01*
X150287014Y-84761459D01*
X150171219Y-84594093D01*
X149462204Y-83570755D01*
X149327706Y-83569980D01*
X149197031Y-83558526D01*
X149088509Y-83521869D01*
X148986572Y-83454025D01*
X148954871Y-83426625D01*
X148854936Y-83312352D01*
X148793354Y-83182691D01*
X148769128Y-83057170D01*
X148770637Y-83016931D01*
X149080517Y-83016931D01*
X149096428Y-83104160D01*
X149141822Y-83180683D01*
X149212259Y-83234259D01*
X149287135Y-83263193D01*
X149352376Y-83264708D01*
X149426670Y-83240804D01*
X149506013Y-83186818D01*
X149553593Y-83105765D01*
X149567900Y-83010538D01*
X149552075Y-82911213D01*
X149502924Y-82836629D01*
X149440666Y-82793296D01*
X149342967Y-82763926D01*
X149245780Y-82776855D01*
X149210159Y-82792335D01*
X149137334Y-82850886D01*
X149094136Y-82929129D01*
X149080517Y-83016931D01*
X148770637Y-83016931D01*
X148774883Y-82903771D01*
X148819490Y-82764641D01*
X148900679Y-82644005D01*
X149016177Y-82546088D01*
X149056905Y-82521923D01*
X149200358Y-82465950D01*
X149345627Y-82449877D01*
X149486695Y-82472001D01*
G36*
X150977201Y-82460820D02*
G01*
X151105718Y-82507149D01*
X151220497Y-82584312D01*
X151315009Y-82690904D01*
X151377182Y-82810412D01*
X151403092Y-82923346D01*
X151405519Y-83051015D01*
X151385434Y-83175027D01*
X151353463Y-83259907D01*
X151309518Y-83344219D01*
X151626899Y-83848371D01*
X151722939Y-84000063D01*
X151799420Y-84118654D01*
X151858621Y-84207306D01*
X151902822Y-84269185D01*
X151934302Y-84307455D01*
X151955339Y-84325278D01*
X151968214Y-84325821D01*
X151969787Y-84324387D01*
X151986113Y-84300773D01*
X152022129Y-84245038D01*
X152075361Y-84161125D01*
X152143334Y-84052979D01*
X152223572Y-83924544D01*
X152313599Y-83779766D01*
X152410941Y-83622587D01*
X152455692Y-83550125D01*
X152916090Y-82804000D01*
X153930162Y-82804000D01*
X154132830Y-82804219D01*
X154321997Y-82804848D01*
X154493568Y-82805842D01*
X154643450Y-82807157D01*
X154767547Y-82808751D01*
X154861767Y-82810579D01*
X154922014Y-82812596D01*
X154944196Y-82814760D01*
X154944233Y-82814854D01*
X154932697Y-82833678D01*
X154899259Y-82884978D01*
X154845675Y-82966126D01*
X154773700Y-83074492D01*
X154685090Y-83207447D01*
X154581600Y-83362361D01*
X154464987Y-83536605D01*
X154337004Y-83727550D01*
X154199409Y-83932566D01*
X154053957Y-84149024D01*
X153981700Y-84256461D01*
X153019167Y-85687212D01*
X153153774Y-85880731D01*
X153193059Y-85937415D01*
X153253306Y-86024618D01*
X153331505Y-86137971D01*
X153424643Y-86273103D01*
X153529709Y-86425642D01*
X153643693Y-86591219D01*
X153763581Y-86765462D01*
X153885045Y-86942083D01*
X154481710Y-87809917D01*
X154644222Y-87822533D01*
X154769329Y-87838884D01*
X154866918Y-87869617D01*
X154950957Y-87920682D01*
X155020427Y-87982771D01*
X155107414Y-88092001D01*
X155158032Y-88213040D01*
X155175994Y-88355139D01*
X155176137Y-88370833D01*
X155156786Y-88526770D01*
X155100586Y-88665696D01*
X155010317Y-88782944D01*
X154888759Y-88873845D01*
X154870772Y-88883500D01*
X154777220Y-88915869D01*
X154663107Y-88932872D01*
X154547865Y-88933019D01*
X154453006Y-88915522D01*
X154315880Y-88849281D01*
X154205481Y-88754037D01*
X154124747Y-88635804D01*
X154076615Y-88500594D01*
X154064023Y-88354421D01*
X154066260Y-88341358D01*
X154377200Y-88341358D01*
X154381750Y-88436692D01*
X154404749Y-88498348D01*
X154463041Y-88569134D01*
X154543099Y-88611713D01*
X154633184Y-88623755D01*
X154721559Y-88602929D01*
X154771863Y-88571224D01*
X154836879Y-88494424D01*
X154866713Y-88410006D01*
X154865079Y-88325295D01*
X154835690Y-88247616D01*
X154782259Y-88184293D01*
X154708499Y-88142650D01*
X154618123Y-88130012D01*
X154553498Y-88140467D01*
X154466912Y-88184012D01*
X154406867Y-88254053D01*
X154377200Y-88341358D01*
X154066260Y-88341358D01*
X154089909Y-88203299D01*
X154095932Y-88184552D01*
X154116852Y-88112826D01*
X154127519Y-88055377D01*
X154125909Y-88025802D01*
X154111592Y-88004408D01*
X154075311Y-87951097D01*
X154019092Y-87868827D01*
X153944966Y-87760558D01*
X153854961Y-87629249D01*
X153751105Y-87477860D01*
X153635429Y-87309350D01*
X153509959Y-87126678D01*
X153376726Y-86932803D01*
X153319634Y-86849755D01*
X153179346Y-86645033D01*
X153048250Y-86452406D01*
X152928158Y-86274612D01*
X152820879Y-86114389D01*
X152728225Y-85974476D01*
X152652005Y-85857611D01*
X152594029Y-85766533D01*
X152556108Y-85703982D01*
X152540053Y-85672694D01*
X152539710Y-85669939D01*
X152553158Y-85647857D01*
X152588334Y-85593628D01*
X152643280Y-85510190D01*
X152716036Y-85400483D01*
X152804644Y-85267445D01*
X152907145Y-85114014D01*
X153021579Y-84943129D01*
X153145988Y-84757729D01*
X153278412Y-84560753D01*
X153355982Y-84445532D01*
X153491691Y-84243889D01*
X153620214Y-84052606D01*
X153739628Y-83874563D01*
X153848011Y-83712643D01*
X153943438Y-83569728D01*
X154023988Y-83448700D01*
X154087738Y-83352442D01*
X154132764Y-83283835D01*
X154157144Y-83245762D01*
X154161067Y-83238805D01*
X154140859Y-83235660D01*
X154084074Y-83232920D01*
X153996466Y-83230703D01*
X153883788Y-83229127D01*
X153751795Y-83228310D01*
X153647775Y-83228260D01*
X153134483Y-83229186D01*
X152553030Y-84171808D01*
X152441304Y-84352692D01*
X152336148Y-84522476D01*
X152239672Y-84677785D01*
X152153987Y-84815241D01*
X152081204Y-84931470D01*
X152023435Y-85023095D01*
X151982789Y-85086739D01*
X151961378Y-85119026D01*
X151958689Y-85122395D01*
X151945099Y-85106752D01*
X151911430Y-85058794D01*
X151860029Y-84982113D01*
X151793238Y-84880302D01*
X151713403Y-84756953D01*
X151622868Y-84615658D01*
X151523977Y-84460010D01*
X151453393Y-84348180D01*
X150960984Y-83566000D01*
X150841233Y-83565793D01*
X150696339Y-83546916D01*
X150569877Y-83494677D01*
X150464184Y-83414864D01*
X150381597Y-83313269D01*
X150324451Y-83195684D01*
X150295085Y-83067897D01*
X150295154Y-83055685D01*
X150607658Y-83055685D01*
X150618964Y-83103765D01*
X150649951Y-83150287D01*
X150657461Y-83159353D01*
X150719817Y-83213219D01*
X150793449Y-83247995D01*
X150862694Y-83257041D01*
X150880233Y-83253756D01*
X150923387Y-83239622D01*
X150969160Y-83223209D01*
X151038394Y-83176634D01*
X151084064Y-83104161D01*
X151101572Y-83017738D01*
X151086321Y-82929314D01*
X151084240Y-82924149D01*
X151029359Y-82839138D01*
X150953504Y-82783561D01*
X150865847Y-82759798D01*
X150775558Y-82770230D01*
X150691809Y-82817236D01*
X150687348Y-82821132D01*
X150642501Y-82870833D01*
X150619256Y-82928223D01*
X150610653Y-82986135D01*
X150607658Y-83055685D01*
X150295154Y-83055685D01*
X150295833Y-82935700D01*
X150329032Y-82804884D01*
X150397020Y-82681239D01*
X150456383Y-82612001D01*
X150574538Y-82520917D01*
X150705080Y-82466297D01*
X150841478Y-82446734D01*
X150977201Y-82460820D01*
X150977201Y-82460820D01*
G37*
X150977201Y-82460820D02*
X151105718Y-82507149D01*
X151220497Y-82584312D01*
X151315009Y-82690904D01*
X151377182Y-82810412D01*
X151403092Y-82923346D01*
X151405519Y-83051015D01*
X151385434Y-83175027D01*
X151353463Y-83259907D01*
X151309518Y-83344219D01*
X151626899Y-83848371D01*
X151722939Y-84000063D01*
X151799420Y-84118654D01*
X151858621Y-84207306D01*
X151902822Y-84269185D01*
X151934302Y-84307455D01*
X151955339Y-84325278D01*
X151968214Y-84325821D01*
X151969787Y-84324387D01*
X151986113Y-84300773D01*
X152022129Y-84245038D01*
X152075361Y-84161125D01*
X152143334Y-84052979D01*
X152223572Y-83924544D01*
X152313599Y-83779766D01*
X152410941Y-83622587D01*
X152455692Y-83550125D01*
X152916090Y-82804000D01*
X153930162Y-82804000D01*
X154132830Y-82804219D01*
X154321997Y-82804848D01*
X154493568Y-82805842D01*
X154643450Y-82807157D01*
X154767547Y-82808751D01*
X154861767Y-82810579D01*
X154922014Y-82812596D01*
X154944196Y-82814760D01*
X154944233Y-82814854D01*
X154932697Y-82833678D01*
X154899259Y-82884978D01*
X154845675Y-82966126D01*
X154773700Y-83074492D01*
X154685090Y-83207447D01*
X154581600Y-83362361D01*
X154464987Y-83536605D01*
X154337004Y-83727550D01*
X154199409Y-83932566D01*
X154053957Y-84149024D01*
X153981700Y-84256461D01*
X153019167Y-85687212D01*
X153153774Y-85880731D01*
X153193059Y-85937415D01*
X153253306Y-86024618D01*
X153331505Y-86137971D01*
X153424643Y-86273103D01*
X153529709Y-86425642D01*
X153643693Y-86591219D01*
X153763581Y-86765462D01*
X153885045Y-86942083D01*
X154481710Y-87809917D01*
X154644222Y-87822533D01*
X154769329Y-87838884D01*
X154866918Y-87869617D01*
X154950957Y-87920682D01*
X155020427Y-87982771D01*
X155107414Y-88092001D01*
X155158032Y-88213040D01*
X155175994Y-88355139D01*
X155176137Y-88370833D01*
X155156786Y-88526770D01*
X155100586Y-88665696D01*
X155010317Y-88782944D01*
X154888759Y-88873845D01*
X154870772Y-88883500D01*
X154777220Y-88915869D01*
X154663107Y-88932872D01*
X154547865Y-88933019D01*
X154453006Y-88915522D01*
X154315880Y-88849281D01*
X154205481Y-88754037D01*
X154124747Y-88635804D01*
X154076615Y-88500594D01*
X154064023Y-88354421D01*
X154066260Y-88341358D01*
X154377200Y-88341358D01*
X154381750Y-88436692D01*
X154404749Y-88498348D01*
X154463041Y-88569134D01*
X154543099Y-88611713D01*
X154633184Y-88623755D01*
X154721559Y-88602929D01*
X154771863Y-88571224D01*
X154836879Y-88494424D01*
X154866713Y-88410006D01*
X154865079Y-88325295D01*
X154835690Y-88247616D01*
X154782259Y-88184293D01*
X154708499Y-88142650D01*
X154618123Y-88130012D01*
X154553498Y-88140467D01*
X154466912Y-88184012D01*
X154406867Y-88254053D01*
X154377200Y-88341358D01*
X154066260Y-88341358D01*
X154089909Y-88203299D01*
X154095932Y-88184552D01*
X154116852Y-88112826D01*
X154127519Y-88055377D01*
X154125909Y-88025802D01*
X154111592Y-88004408D01*
X154075311Y-87951097D01*
X154019092Y-87868827D01*
X153944966Y-87760558D01*
X153854961Y-87629249D01*
X153751105Y-87477860D01*
X153635429Y-87309350D01*
X153509959Y-87126678D01*
X153376726Y-86932803D01*
X153319634Y-86849755D01*
X153179346Y-86645033D01*
X153048250Y-86452406D01*
X152928158Y-86274612D01*
X152820879Y-86114389D01*
X152728225Y-85974476D01*
X152652005Y-85857611D01*
X152594029Y-85766533D01*
X152556108Y-85703982D01*
X152540053Y-85672694D01*
X152539710Y-85669939D01*
X152553158Y-85647857D01*
X152588334Y-85593628D01*
X152643280Y-85510190D01*
X152716036Y-85400483D01*
X152804644Y-85267445D01*
X152907145Y-85114014D01*
X153021579Y-84943129D01*
X153145988Y-84757729D01*
X153278412Y-84560753D01*
X153355982Y-84445532D01*
X153491691Y-84243889D01*
X153620214Y-84052606D01*
X153739628Y-83874563D01*
X153848011Y-83712643D01*
X153943438Y-83569728D01*
X154023988Y-83448700D01*
X154087738Y-83352442D01*
X154132764Y-83283835D01*
X154157144Y-83245762D01*
X154161067Y-83238805D01*
X154140859Y-83235660D01*
X154084074Y-83232920D01*
X153996466Y-83230703D01*
X153883788Y-83229127D01*
X153751795Y-83228310D01*
X153647775Y-83228260D01*
X153134483Y-83229186D01*
X152553030Y-84171808D01*
X152441304Y-84352692D01*
X152336148Y-84522476D01*
X152239672Y-84677785D01*
X152153987Y-84815241D01*
X152081204Y-84931470D01*
X152023435Y-85023095D01*
X151982789Y-85086739D01*
X151961378Y-85119026D01*
X151958689Y-85122395D01*
X151945099Y-85106752D01*
X151911430Y-85058794D01*
X151860029Y-84982113D01*
X151793238Y-84880302D01*
X151713403Y-84756953D01*
X151622868Y-84615658D01*
X151523977Y-84460010D01*
X151453393Y-84348180D01*
X150960984Y-83566000D01*
X150841233Y-83565793D01*
X150696339Y-83546916D01*
X150569877Y-83494677D01*
X150464184Y-83414864D01*
X150381597Y-83313269D01*
X150324451Y-83195684D01*
X150295085Y-83067897D01*
X150295154Y-83055685D01*
X150607658Y-83055685D01*
X150618964Y-83103765D01*
X150649951Y-83150287D01*
X150657461Y-83159353D01*
X150719817Y-83213219D01*
X150793449Y-83247995D01*
X150862694Y-83257041D01*
X150880233Y-83253756D01*
X150923387Y-83239622D01*
X150969160Y-83223209D01*
X151038394Y-83176634D01*
X151084064Y-83104161D01*
X151101572Y-83017738D01*
X151086321Y-82929314D01*
X151084240Y-82924149D01*
X151029359Y-82839138D01*
X150953504Y-82783561D01*
X150865847Y-82759798D01*
X150775558Y-82770230D01*
X150691809Y-82817236D01*
X150687348Y-82821132D01*
X150642501Y-82870833D01*
X150619256Y-82928223D01*
X150610653Y-82986135D01*
X150607658Y-83055685D01*
X150295154Y-83055685D01*
X150295833Y-82935700D01*
X150329032Y-82804884D01*
X150397020Y-82681239D01*
X150456383Y-82612001D01*
X150574538Y-82520917D01*
X150705080Y-82466297D01*
X150841478Y-82446734D01*
X150977201Y-82460820D01*
D14*
X133985000Y-90170000D03*
D15*
X131445000Y-90170000D03*
X143510000Y-90170000D03*
D14*
X140970000Y-90170000D03*
D16*
X137160000Y-81915000D03*
D17*
X137438600Y-101904800D03*
D18*
X131038600Y-101904800D03*
X143838600Y-101904800D03*
M02*
